mtllib material.mtl
o Default
v -0.08 0 0.000006000000284984708
v -0.22 0.34 0
v -0.08 0.34 0.000007999999797903002
v -0.22 0 0
v -0.08 0 0.02
v -0.08 0.34 0.02
v -0.22 0.34 0.019999998807907104
v -0.22 0 0.02000000238418579
vt 0.875 0.359375
vt 0.984375 0.625
vt 0.875 0.625
vt 0.984375 0.359375
vt 0.6875 0.671875
vt 0.703125 0.9375
vt 0.6875 0.9375
vt 0.703125 0.671875
vt 0.578125 0.9375
vt 0.6875 0.953125
vt 0.578125 0.953125
vt 0.5625 0.671875
vt 0.5625 0.9375
vt 0.578125 0.671875
vn 0.00005714 0.00000588 -1
vn 0.00004286 0 -1
vn 1 0 0
vn 0 1 0
vn 0 -1 0
vn -1 0 0
vn -1e-8 1e-8 1
vn 2e-8 0 1
g DoorL
usemtl fridge-tex
f 1/1/1 2/2/1 3/3/1
f 1/1/2 4/4/2 2/2/2
f 5/5/3 3/6/3 6/7/3
f 5/5/3 1/8/3 3/6/3
f 7/9/4 3/10/4 2/11/4
f 7/9/4 6/7/4 3/10/4
f 4/9/5 5/10/5 8/11/5
f 4/9/5 1/7/5 5/10/5
f 4/12/6 7/9/6 2/13/6
f 4/12/6 8/14/6 7/9/6
f 8/14/7 6/7/7 7/9/7
f 8/14/8 5/5/8 6/7/8
