mtllib blue_nebulae_1.png.import.mtl
o Default
v -2.56 0 -1.93 1 1 1 1
v -2.56 0 -2.57 1 1 1 1
v -1.92 0 -2.57 1 1 1 1
v -1.92 0 -1.93 1 1 1 1
v 1.12 0 0.96 1 1 1 1
v 1.28 0 0.8 1 1 1 1
v 1.12 0 0.8 1 1 1 1
v 1.28 0 0.96 1 1 1 1
v 0.96 0 0.96 1 1 1 1
v 1.12 0 0.8 1 1 1 1
v 0.96 0 0.8 1 1 1 1
v 1.12 0 0.96 1 1 1 1
v 0.8 0 0.96 1 1 1 1
v 0.96 0 0.8 1 1 1 1
v 0.8 0 0.8 1 1 1 1
v 0.96 0 0.96 1 1 1 1
v 0.64 0 0.96 1 1 1 1
v 0.8 0 0.8 1 1 1 1
v 0.64 0 0.8 1 1 1 1
v 0.8 0 0.96 1 1 1 1
v 0.48 0 0.96 1 1 1 1
v 0.64 0 0.8 1 1 1 1
v 0.48 0 0.8 1 1 1 1
v 0.64 0 0.96 1 1 1 1
v 0.32 0 0.96 1 1 1 1
v 0.48 0 0.8 1 1 1 1
v 0.32 0 0.8 1 1 1 1
v 0.48 0 0.96 1 1 1 1
v 0.16 0 0.96 1 1 1 1
v 0.32 0 0.8 1 1 1 1
v 0.16 0 0.8 1 1 1 1
v 0.32 0 0.96 1 1 1 1
v 0 0 0.96 1 1 1 1
v 0.16 0 0.8 1 1 1 1
v 0 0 0.8 1 1 1 1
v 0.16 0 0.96 1 1 1 1
v 0 0 1.12 1 1 1 1
v 0.16 0 0.96 1 1 1 1
v 0 0 0.96 1 1 1 1
v 0.16 0 1.12 1 1 1 1
v -0.32 0 1.12 1 1 1 1
v -0.16 0 0.96 1 1 1 1
v -0.32 0 0.96 1 1 1 1
v -0.16 0 1.12 1 1 1 1
v -0.16 0 0.96 1 1 1 1
v 0 0 0.8 1 1 1 1
v -0.16 0 0.8 1 1 1 1
v 0 0 0.96 1 1 1 1
v -0.32 0 0.96 1 1 1 1
v -0.16 0 0.8 1 1 1 1
v -0.32 0 0.8 1 1 1 1
v -0.16 0 0.96 1 1 1 1
v 0 0 1.76 1 1 1 1
v 0.16 0 1.6 1 1 1 1
v 0 0 1.6 1 1 1 1
v 0.16 0 1.76 1 1 1 1
v 0 0 1.92 1 1 1 1
v 0.16 0 1.76 1 1 1 1
v 0 0 1.76 1 1 1 1
v 0.16 0 1.92 1 1 1 1
v 0 0 2.08 1 1 1 1
v 0.16 0 1.92 1 1 1 1
v 0 0 1.92 1 1 1 1
v 0.16 0 2.08 1 1 1 1
v 0 0 2.24 1 1 1 1
v 0.16 0 2.08 1 1 1 1
v 0 0 2.08 1 1 1 1
v 0.16 0 2.24 1 1 1 1
v 0 0 2.4 1 1 1 1
v 0.16 0 2.24 1 1 1 1
v 0 0 2.24 1 1 1 1
v 0.16 0 2.4 1 1 1 1
v 0.16 0 2.4 1 1 1 1
v 0.32 0 2.24 1 1 1 1
v 0.16 0 2.24 1 1 1 1
v 0.32 0 2.4 1 1 1 1
v 0.32 0 2.4 1 1 1 1
v 0.48 0 2.24 1 1 1 1
v 0.32 0 2.24 1 1 1 1
v 0.48 0 2.4 1 1 1 1
v 0.48 0 2.4 1 1 1 1
v 0.64 0 2.24 1 1 1 1
v 0.48 0 2.24 1 1 1 1
v 0.64 0 2.4 1 1 1 1
v 0.64 0 2.4 1 1 1 1
v 0.8 0 2.24 1 1 1 1
v 0.64 0 2.24 1 1 1 1
v 0.8 0 2.4 1 1 1 1
v 0.8 0 2.4 1 1 1 1
v 0.96 0 2.24 1 1 1 1
v 0.8 0 2.24 1 1 1 1
v 0.96 0 2.4 1 1 1 1
v 0.96 0 2.4 1 1 1 1
v 1.12 0 2.24 1 1 1 1
v 0.96 0 2.24 1 1 1 1
v 1.12 0 2.4 1 1 1 1
v 1.12 0 2.4 1 1 1 1
v 1.28 0 2.24 1 1 1 1
v 1.12 0 2.24 1 1 1 1
v 1.28 0 2.4 1 1 1 1
v 1.12 0 2.24 1 1 1 1
v 1.28 0 2.08 1 1 1 1
v 1.12 0 2.08 1 1 1 1
v 1.28 0 2.24 1 1 1 1
v 1.12 0 2.08 1 1 1 1
v 1.28 0 1.92 1 1 1 1
v 1.12 0 1.92 1 1 1 1
v 1.28 0 2.08 1 1 1 1
v 1.12 0 1.92 1 1 1 1
v 1.28 0 1.76 1 1 1 1
v 1.12 0 1.76 1 1 1 1
v 1.28 0 1.92 1 1 1 1
v 1.12 0 1.76 1 1 1 1
v 1.28 0 1.6 1 1 1 1
v 1.12 0 1.6 1 1 1 1
v 1.28 0 1.76 1 1 1 1
v 1.12 0 1.6 1 1 1 1
v 1.28 0 1.44 1 1 1 1
v 1.12 0 1.44 1 1 1 1
v 1.28 0 1.6 1 1 1 1
v 1.12 0 1.44 1 1 1 1
v 1.28 0 1.28 1 1 1 1
v 1.12 0 1.28 1 1 1 1
v 1.28 0 1.44 1 1 1 1
v 1.12 0 1.28 1 1 1 1
v 1.28 0 1.12 1 1 1 1
v 1.12 0 1.12 1 1 1 1
v 1.28 0 1.28 1 1 1 1
v 1.12 0 1.12 1 1 1 1
v 1.28 0 0.96 1 1 1 1
v 1.12 0 0.96 1 1 1 1
v 1.28 0 1.12 1 1 1 1
v 0.96 0 1.12 1 1 1 1
v 1.12 0 0.96 1 1 1 1
v 0.96 0 0.96 1 1 1 1
v 1.12 0 1.12 1 1 1 1
v 0.64 0 1.12 1 1 1 1
v 0.8 0 0.96 1 1 1 1
v 0.64 0 0.96 1 1 1 1
v 0.8 0 1.12 1 1 1 1
v 0.48 0 1.12 1 1 1 1
v 0.64 0 0.96 1 1 1 1
v 0.48 0 0.96 1 1 1 1
v 0.64 0 1.12 1 1 1 1
v 0.32 0 1.12 1 1 1 1
v 0.48 0 0.96 1 1 1 1
v 0.32 0 0.96 1 1 1 1
v 0.48 0 1.12 1 1 1 1
v 0.16 0 1.12 1 1 1 1
v 0.32 0 0.96 1 1 1 1
v 0.16 0 0.96 1 1 1 1
v 0.32 0 1.12 1 1 1 1
v 0.16 0 1.28 1 1 1 1
v 0.32 0 1.12 1 1 1 1
v 0.16 0 1.12 1 1 1 1
v 0.32 0 1.28 1 1 1 1
v 0.16 0 1.44 1 1 1 1
v 0.32 0 1.28 1 1 1 1
v 0.16 0 1.28 1 1 1 1
v 0.32 0 1.44 1 1 1 1
v 0.16 0 1.6 1 1 1 1
v 0.32 0 1.44 1 1 1 1
v 0.16 0 1.44 1 1 1 1
v 0.32 0 1.6 1 1 1 1
v 0.16 0 1.76 1 1 1 1
v 0.32 0 1.6 1 1 1 1
v 0.16 0 1.6 1 1 1 1
v 0.32 0 1.76 1 1 1 1
v 0.16 0 1.92 1 1 1 1
v 0.32 0 1.76 1 1 1 1
v 0.16 0 1.76 1 1 1 1
v 0.32 0 1.92 1 1 1 1
v 0.16 0 2.08 1 1 1 1
v 0.32 0 1.92 1 1 1 1
v 0.16 0 1.92 1 1 1 1
v 0.32 0 2.08 1 1 1 1
v 0.16 0 2.24 1 1 1 1
v 0.32 0 2.08 1 1 1 1
v 0.16 0 2.08 1 1 1 1
v 0.32 0 2.24 1 1 1 1
v 0.32 0 2.24 1 1 1 1
v 0.48 0 2.08 1 1 1 1
v 0.32 0 2.08 1 1 1 1
v 0.48 0 2.24 1 1 1 1
v 0.64 0 2.24 1 1 1 1
v 0.8 0 2.08 1 1 1 1
v 0.64 0 2.08 1 1 1 1
v 0.8 0 2.24 1 1 1 1
v 0.8 0 2.24 1 1 1 1
v 0.96 0 2.08 1 1 1 1
v 0.8 0 2.08 1 1 1 1
v 0.96 0 2.24 1 1 1 1
v 0.96 0 2.24 1 1 1 1
v 1.12 0 2.08 1 1 1 1
v 0.96 0 2.08 1 1 1 1
v 1.12 0 2.24 1 1 1 1
v 0.48 0 2.24 1 1 1 1
v 0.64 0 2.08 1 1 1 1
v 0.48 0 2.08 1 1 1 1
v 0.64 0 2.24 1 1 1 1
v 0.32 0 1.28 1 1 1 1
v 0.48 0 1.12 1 1 1 1
v 0.32 0 1.12 1 1 1 1
v 0.48 0 1.28 1 1 1 1
v 0.32 0 1.44 1 1 1 1
v 0.48 0 1.28 1 1 1 1
v 0.32 0 1.28 1 1 1 1
v 0.48 0 1.44 1 1 1 1
v 0.32 0 1.6 1 1 1 1
v 0.48 0 1.44 1 1 1 1
v 0.32 0 1.44 1 1 1 1
v 0.48 0 1.6 1 1 1 1
v 0.32 0 1.76 1 1 1 1
v 0.48 0 1.6 1 1 1 1
v 0.32 0 1.6 1 1 1 1
v 0.48 0 1.76 1 1 1 1
v 0.32 0 1.92 1 1 1 1
v 0.48 0 1.76 1 1 1 1
v 0.32 0 1.76 1 1 1 1
v 0.48 0 1.92 1 1 1 1
v 0.32 0 2.08 1 1 1 1
v 0.48 0 1.92 1 1 1 1
v 0.32 0 1.92 1 1 1 1
v 0.48 0 2.08 1 1 1 1
v 0.48 0 2.08 1 1 1 1
v 0.64 0 1.92 1 1 1 1
v 0.48 0 1.92 1 1 1 1
v 0.64 0 2.08 1 1 1 1
v 0.8 0 2.08 1 1 1 1
v 0.96 0 1.92 1 1 1 1
v 0.8 0 1.92 1 1 1 1
v 0.96 0 2.08 1 1 1 1
v 0.96 0 2.08 1 1 1 1
v 1.12 0 1.92 1 1 1 1
v 0.96 0 1.92 1 1 1 1
v 1.12 0 2.08 1 1 1 1
v 0.64 0 2.08 1 1 1 1
v 0.8 0 1.92 1 1 1 1
v 0.64 0 1.92 1 1 1 1
v 0.8 0 2.08 1 1 1 1
v 0.64 0 1.92 1 1 1 1
v 0.8 0 1.76 1 1 1 1
v 0.64 0 1.76 1 1 1 1
v 0.8 0 1.92 1 1 1 1
v 0.64 0 1.76 1 1 1 1
v 0.8 0 1.6 1 1 1 1
v 0.64 0 1.6 1 1 1 1
v 0.8 0 1.76 1 1 1 1
v 0.64 0 1.6 1 1 1 1
v 0.8 0 1.44 1 1 1 1
v 0.64 0 1.44 1 1 1 1
v 0.8 0 1.6 1 1 1 1
v 0.48 0 1.6 1 1 1 1
v 0.64 0 1.44 1 1 1 1
v 0.48 0 1.44 1 1 1 1
v 0.64 0 1.6 1 1 1 1
v 0.48 0 1.44 1 1 1 1
v 0.64 0 1.28 1 1 1 1
v 0.48 0 1.28 1 1 1 1
v 0.64 0 1.44 1 1 1 1
v 0.48 0 1.28 1 1 1 1
v 0.64 0 1.12 1 1 1 1
v 0.48 0 1.12 1 1 1 1
v 0.64 0 1.28 1 1 1 1
v 0.48 0 1.76 1 1 1 1
v 0.64 0 1.6 1 1 1 1
v 0.48 0 1.6 1 1 1 1
v 0.64 0 1.76 1 1 1 1
v 0.48 0 1.92 1 1 1 1
v 0.64 0 1.76 1 1 1 1
v 0.48 0 1.76 1 1 1 1
v 0.64 0 1.92 1 1 1 1
v 0.8 0 1.92 1 1 1 1
v 0.96 0 1.76 1 1 1 1
v 0.8 0 1.76 1 1 1 1
v 0.96 0 1.92 1 1 1 1
v 0.96 0 1.92 1 1 1 1
v 1.12 0 1.76 1 1 1 1
v 0.96 0 1.76 1 1 1 1
v 1.12 0 1.92 1 1 1 1
v 0.96 0 1.76 1 1 1 1
v 1.12 0 1.6 1 1 1 1
v 0.96 0 1.6 1 1 1 1
v 1.12 0 1.76 1 1 1 1
v 0.96 0 1.6 1 1 1 1
v 1.12 0 1.44 1 1 1 1
v 0.96 0 1.44 1 1 1 1
v 1.12 0 1.6 1 1 1 1
v 0.96 0 1.44 1 1 1 1
v 1.12 0 1.28 1 1 1 1
v 0.96 0 1.28 1 1 1 1
v 1.12 0 1.44 1 1 1 1
v 0.96 0 1.28 1 1 1 1
v 1.12 0 1.12 1 1 1 1
v 0.96 0 1.12 1 1 1 1
v 1.12 0 1.28 1 1 1 1
v 0.8 0 1.12 1 1 1 1
v 0.96 0 0.96 1 1 1 1
v 0.8 0 0.96 1 1 1 1
v 0.96 0 1.12 1 1 1 1
v 0.8 0 1.28 1 1 1 1
v 0.96 0 1.12 1 1 1 1
v 0.8 0 1.12 1 1 1 1
v 0.96 0 1.28 1 1 1 1
v 0.8 0 1.44 1 1 1 1
v 0.96 0 1.28 1 1 1 1
v 0.8 0 1.28 1 1 1 1
v 0.96 0 1.44 1 1 1 1
v 0.8 0 1.6 1 1 1 1
v 0.96 0 1.44 1 1 1 1
v 0.8 0 1.44 1 1 1 1
v 0.96 0 1.6 1 1 1 1
v 0.8 0 1.76 1 1 1 1
v 0.96 0 1.6 1 1 1 1
v 0.8 0 1.6 1 1 1 1
v 0.96 0 1.76 1 1 1 1
v 0.64 0 1.44 1 1 1 1
v 0.8 0 1.28 1 1 1 1
v 0.64 0 1.28 1 1 1 1
v 0.8 0 1.44 1 1 1 1
v 0.64 0 1.28 1 1 1 1
v 0.8 0 1.12 1 1 1 1
v 0.64 0 1.12 1 1 1 1
v 0.8 0 1.28 1 1 1 1
v -0.16 0 2.4 1 1 1 1
v 0 0 2.24 1 1 1 1
v -0.16 0 2.24 1 1 1 1
v 0 0 2.4 1 1 1 1
v -0.16 0 2.24 1 1 1 1
v 0 0 2.08 1 1 1 1
v -0.16 0 2.08 1 1 1 1
v 0 0 2.24 1 1 1 1
v -0.16 0 2.08 1 1 1 1
v 0 0 1.92 1 1 1 1
v -0.16 0 1.92 1 1 1 1
v 0 0 2.08 1 1 1 1
v -0.32 0 1.76 1 1 1 1
v -0.16 0 1.6 1 1 1 1
v -0.32 0 1.6 1 1 1 1
v -0.16 0 1.76 1 1 1 1
v -0.32 0 1.44 1 1 1 1
v -0.16 0 1.28 1 1 1 1
v -0.32 0 1.28 1 1 1 1
v -0.16 0 1.44 1 1 1 1
v -0.32 0 1.28 1 1 1 1
v -0.16 0 1.12 1 1 1 1
v -0.32 0 1.12 1 1 1 1
v -0.16 0 1.28 1 1 1 1
v 0 0 1.28 1 1 1 1
v 0.16 0 1.12 1 1 1 1
v 0 0 1.12 1 1 1 1
v 0.16 0 1.28 1 1 1 1
v 0 0 1.44 1 1 1 1
v 0.16 0 1.28 1 1 1 1
v 0 0 1.28 1 1 1 1
v 0.16 0 1.44 1 1 1 1
v 0 0 1.6 1 1 1 1
v 0.16 0 1.44 1 1 1 1
v 0 0 1.44 1 1 1 1
v 0.16 0 1.6 1 1 1 1
v -0.16 0 1.12 1 1 1 1
v 0 0 0.96 1 1 1 1
v -0.16 0 0.96 1 1 1 1
v 0 0 1.12 1 1 1 1
v -0.16 0 1.28 1 1 1 1
v 0 0 1.12 1 1 1 1
v -0.16 0 1.12 1 1 1 1
v 0 0 1.28 1 1 1 1
v -0.16 0 1.44 1 1 1 1
v 0 0 1.28 1 1 1 1
v -0.16 0 1.28 1 1 1 1
v 0 0 1.44 1 1 1 1
v -0.16 0 1.6 1 1 1 1
v 0 0 1.44 1 1 1 1
v -0.16 0 1.44 1 1 1 1
v 0 0 1.6 1 1 1 1
v -0.16 0 1.76 1 1 1 1
v 0 0 1.6 1 1 1 1
v -0.16 0 1.6 1 1 1 1
v 0 0 1.76 1 1 1 1
v -0.16 0 1.92 1 1 1 1
v 0 0 1.76 1 1 1 1
v -0.16 0 1.76 1 1 1 1
v 0 0 1.92 1 1 1 1
v -0.32 0 2.4 1 1 1 1
v -0.16 0 2.24 1 1 1 1
v -0.32 0 2.24 1 1 1 1
v -0.16 0 2.4 1 1 1 1
v -0.64 0 2.4 1 1 1 1
v -0.48 0 2.24 1 1 1 1
v -0.64 0 2.24 1 1 1 1
v -0.48 0 2.4 1 1 1 1
v -0.8 0 2.4 1 1 1 1
v -0.64 0 2.24 1 1 1 1
v -0.8 0 2.24 1 1 1 1
v -0.64 0 2.4 1 1 1 1
v -0.96 0 2.4 1 1 1 1
v -0.8 0 2.24 1 1 1 1
v -0.96 0 2.24 1 1 1 1
v -0.8 0 2.4 1 1 1 1
v -1.12 0 2.4 1 1 1 1
v -0.96 0 2.24 1 1 1 1
v -1.12 0 2.24 1 1 1 1
v -0.96 0 2.4 1 1 1 1
v -1.28 0 2.4 1 1 1 1
v -1.12 0 2.24 1 1 1 1
v -1.28 0 2.24 1 1 1 1
v -1.12 0 2.4 1 1 1 1
v -0.48 0 2.4 1 1 1 1
v -0.32 0 2.24 1 1 1 1
v -0.48 0 2.24 1 1 1 1
v -0.32 0 2.4 1 1 1 1
v -0.48 0 0.96 1 1 1 1
v -0.32 0 0.8 1 1 1 1
v -0.48 0 0.8 1 1 1 1
v -0.32 0 0.96 1 1 1 1
v -1.12 0 0.96 1 1 1 1
v -0.96 0 0.8 1 1 1 1
v -1.12 0 0.8 1 1 1 1
v -0.96 0 0.96 1 1 1 1
v -0.64 0 0.96 1 1 1 1
v -0.48 0 0.8 1 1 1 1
v -0.64 0 0.8 1 1 1 1
v -0.48 0 0.96 1 1 1 1
v -1.44 0 2.4 1 1 1 1
v -1.28 0 2.24 1 1 1 1
v -1.44 0 2.24 1 1 1 1
v -1.28 0 2.4 1 1 1 1
v -1.6 0 2.4 1 1 1 1
v -1.44 0 2.24 1 1 1 1
v -1.6 0 2.24 1 1 1 1
v -1.44 0 2.4 1 1 1 1
v -1.92 0 2.4 1 1 1 1
v -1.76 0 2.24 1 1 1 1
v -1.92 0 2.24 1 1 1 1
v -1.76 0 2.4 1 1 1 1
v -2.08 0 2.4 1 1 1 1
v -1.92 0 2.24 1 1 1 1
v -2.08 0 2.24 1 1 1 1
v -1.92 0 2.4 1 1 1 1
v -1.28 0 0.96 1 1 1 1
v -1.12 0 0.8 1 1 1 1
v -1.28 0 0.8 1 1 1 1
v -1.12 0 0.96 1 1 1 1
v -0.96 0 0.96 1 1 1 1
v -0.8 0 0.8 1 1 1 1
v -0.96 0 0.8 1 1 1 1
v -0.8 0 0.96 1 1 1 1
v -1.76 0 1.12 1 1 1 1
v -1.6 0 0.96 1 1 1 1
v -1.76 0 0.96 1 1 1 1
v -1.6 0 1.12 1 1 1 1
v -2.4 0 2.4 1 1 1 1
v -2.24 0 2.24 1 1 1 1
v -2.4 0 2.24 1 1 1 1
v -2.24 0 2.4 1 1 1 1
v -2.56 0 2.4 1 1 1 1
v -2.4 0 2.24 1 1 1 1
v -2.56 0 2.24 1 1 1 1
v -2.4 0 2.4 1 1 1 1
v -2.24 0 2.4 1 1 1 1
v -2.08 0 2.24 1 1 1 1
v -2.24 0 2.24 1 1 1 1
v -2.08 0 2.4 1 1 1 1
v -1.76 0 2.4 1 1 1 1
v -1.6 0 2.24 1 1 1 1
v -1.76 0 2.24 1 1 1 1
v -1.6 0 2.4 1 1 1 1
v -2.56 0 2.24 1 1 1 1
v -2.4 0 2.08 1 1 1 1
v -2.56 0 2.08 1 1 1 1
v -2.4 0 2.24 1 1 1 1
v -2.56 0 2.08 1 1 1 1
v -2.4 0 1.92 1 1 1 1
v -2.56 0 1.92 1 1 1 1
v -2.4 0 2.08 1 1 1 1
v -2.56 0 1.92 1 1 1 1
v -2.4 0 1.76 1 1 1 1
v -2.56 0 1.76 1 1 1 1
v -2.4 0 1.92 1 1 1 1
v -0.8 0 0.96 1 1 1 1
v -0.64 0 0.8 1 1 1 1
v -0.8 0 0.8 1 1 1 1
v -0.64 0 0.96 1 1 1 1
v -1.6 0 1.12 1 1 1 1
v -1.44 0 0.96 1 1 1 1
v -1.6 0 0.96 1 1 1 1
v -1.44 0 1.12 1 1 1 1
v -1.6 0 0.96 1 1 1 1
v -1.44 0 0.8 1 1 1 1
v -1.6 0 0.8 1 1 1 1
v -1.44 0 0.96 1 1 1 1
v -1.44 0 0.96 1 1 1 1
v -1.28 0 0.8 1 1 1 1
v -1.44 0 0.8 1 1 1 1
v -1.28 0 0.96 1 1 1 1
v -2.56 0 1.28 1 1 1 1
v -2.4 0 1.12 1 1 1 1
v -2.56 0 1.12 1 1 1 1
v -2.4 0 1.28 1 1 1 1
v -2.56 0 1.12 1 1 1 1
v -2.4 0 0.96 1 1 1 1
v -2.56 0 0.96 1 1 1 1
v -2.4 0 1.12 1 1 1 1
v -2.56 0 0.96 1 1 1 1
v -2.4 0 0.8 1 1 1 1
v -2.56 0 0.8 1 1 1 1
v -2.4 0 0.96 1 1 1 1
v -2.4 0 0.96 1 1 1 1
v -2.24 0 0.8 1 1 1 1
v -2.4 0 0.8 1 1 1 1
v -2.24 0 0.96 1 1 1 1
v -2.24 0 0.96 1 1 1 1
v -2.08 0 0.8 1 1 1 1
v -2.24 0 0.8 1 1 1 1
v -2.08 0 0.96 1 1 1 1
v -2.08 0 0.96 1 1 1 1
v -1.92 0 0.8 1 1 1 1
v -2.08 0 0.8 1 1 1 1
v -1.92 0 0.96 1 1 1 1
v -1.92 0 0.96 1 1 1 1
v -1.76 0 0.8 1 1 1 1
v -1.92 0 0.8 1 1 1 1
v -1.76 0 0.96 1 1 1 1
v -1.76 0 0.96 1 1 1 1
v -1.6 0 0.8 1 1 1 1
v -1.76 0 0.8 1 1 1 1
v -1.6 0 0.96 1 1 1 1
v -2.56 0 1.76 1 1 1 1
v -2.4 0 1.6 1 1 1 1
v -2.56 0 1.6 1 1 1 1
v -2.4 0 1.76 1 1 1 1
v -2.56 0 1.6 1 1 1 1
v -2.4 0 1.44 1 1 1 1
v -2.56 0 1.44 1 1 1 1
v -2.4 0 1.6 1 1 1 1
v -2.56 0 1.44 1 1 1 1
v -2.4 0 1.28 1 1 1 1
v -2.56 0 1.28 1 1 1 1
v -2.4 0 1.44 1 1 1 1
v -2.4 0 1.44 1 1 1 1
v -2.24 0 1.28 1 1 1 1
v -2.4 0 1.28 1 1 1 1
v -2.24 0 1.44 1 1 1 1
v -2.24 0 1.44 1 1 1 1
v -2.08 0 1.28 1 1 1 1
v -2.24 0 1.28 1 1 1 1
v -2.08 0 1.44 1 1 1 1
v -2.08 0 1.44 1 1 1 1
v -1.92 0 1.28 1 1 1 1
v -2.08 0 1.28 1 1 1 1
v -1.92 0 1.44 1 1 1 1
v -1.92 0 1.44 1 1 1 1
v -1.76 0 1.28 1 1 1 1
v -1.92 0 1.28 1 1 1 1
v -1.76 0 1.44 1 1 1 1
v -1.92 0 1.28 1 1 1 1
v -1.76 0 1.12 1 1 1 1
v -1.92 0 1.12 1 1 1 1
v -1.76 0 1.28 1 1 1 1
v -1.76 0 1.28 1 1 1 1
v -1.6 0 1.12 1 1 1 1
v -1.76 0 1.12 1 1 1 1
v -1.6 0 1.28 1 1 1 1
v -1.6 0 1.28 1 1 1 1
v -1.44 0 1.12 1 1 1 1
v -1.6 0 1.12 1 1 1 1
v -1.44 0 1.28 1 1 1 1
v -1.44 0 1.28 1 1 1 1
v -1.28 0 1.12 1 1 1 1
v -1.44 0 1.12 1 1 1 1
v -1.28 0 1.28 1 1 1 1
v -1.28 0 1.28 1 1 1 1
v -1.12 0 1.12 1 1 1 1
v -1.28 0 1.12 1 1 1 1
v -1.12 0 1.28 1 1 1 1
v -1.12 0 1.28 1 1 1 1
v -0.96 0 1.12 1 1 1 1
v -1.12 0 1.12 1 1 1 1
v -0.96 0 1.28 1 1 1 1
v -1.28 0 1.12 1 1 1 1
v -1.12 0 0.96 1 1 1 1
v -1.28 0 0.96 1 1 1 1
v -1.12 0 1.12 1 1 1 1
v -1.44 0 1.12 1 1 1 1
v -1.28 0 0.96 1 1 1 1
v -1.44 0 0.96 1 1 1 1
v -1.28 0 1.12 1 1 1 1
v -1.12 0 1.12 1 1 1 1
v -0.96 0 0.96 1 1 1 1
v -1.12 0 0.96 1 1 1 1
v -0.96 0 1.12 1 1 1 1
v -0.96 0 1.12 1 1 1 1
v -0.8 0 0.96 1 1 1 1
v -0.96 0 0.96 1 1 1 1
v -0.8 0 1.12 1 1 1 1
v -0.8 0 1.12 1 1 1 1
v -0.64 0 0.96 1 1 1 1
v -0.8 0 0.96 1 1 1 1
v -0.64 0 1.12 1 1 1 1
v -0.64 0 1.12 1 1 1 1
v -0.48 0 0.96 1 1 1 1
v -0.64 0 0.96 1 1 1 1
v -0.48 0 1.12 1 1 1 1
v -0.48 0 1.12 1 1 1 1
v -0.32 0 0.96 1 1 1 1
v -0.48 0 0.96 1 1 1 1
v -0.32 0 1.12 1 1 1 1
v -0.48 0 1.28 1 1 1 1
v -0.32 0 1.12 1 1 1 1
v -0.48 0 1.12 1 1 1 1
v -0.32 0 1.28 1 1 1 1
v -0.48 0 1.44 1 1 1 1
v -0.32 0 1.28 1 1 1 1
v -0.48 0 1.28 1 1 1 1
v -0.32 0 1.44 1 1 1 1
v -0.48 0 1.6 1 1 1 1
v -0.32 0 1.44 1 1 1 1
v -0.48 0 1.44 1 1 1 1
v -0.32 0 1.6 1 1 1 1
v -0.48 0 1.76 1 1 1 1
v -0.32 0 1.6 1 1 1 1
v -0.48 0 1.6 1 1 1 1
v -0.32 0 1.76 1 1 1 1
v -0.32 0 1.92 1 1 1 1
v -0.16 0 1.76 1 1 1 1
v -0.32 0 1.76 1 1 1 1
v -0.16 0 1.92 1 1 1 1
v -0.32 0 2.08 1 1 1 1
v -0.16 0 1.92 1 1 1 1
v -0.32 0 1.92 1 1 1 1
v -0.16 0 2.08 1 1 1 1
v -0.32 0 2.24 1 1 1 1
v -0.16 0 2.08 1 1 1 1
v -0.32 0 2.08 1 1 1 1
v -0.16 0 2.24 1 1 1 1
v -0.48 0 2.24 1 1 1 1
v -0.32 0 2.08 1 1 1 1
v -0.48 0 2.08 1 1 1 1
v -0.32 0 2.24 1 1 1 1
v -0.64 0 2.24 1 1 1 1
v -0.48 0 2.08 1 1 1 1
v -0.64 0 2.08 1 1 1 1
v -0.48 0 2.24 1 1 1 1
v -0.8 0 2.24 1 1 1 1
v -0.64 0 2.08 1 1 1 1
v -0.8 0 2.08 1 1 1 1
v -0.64 0 2.24 1 1 1 1
v -0.96 0 2.24 1 1 1 1
v -0.8 0 2.08 1 1 1 1
v -0.96 0 2.08 1 1 1 1
v -0.8 0 2.24 1 1 1 1
v -1.12 0 2.24 1 1 1 1
v -0.96 0 2.08 1 1 1 1
v -1.12 0 2.08 1 1 1 1
v -0.96 0 2.24 1 1 1 1
v -1.28 0 2.24 1 1 1 1
v -1.12 0 2.08 1 1 1 1
v -1.28 0 2.08 1 1 1 1
v -1.12 0 2.24 1 1 1 1
v -1.44 0 2.24 1 1 1 1
v -1.28 0 2.08 1 1 1 1
v -1.44 0 2.08 1 1 1 1
v -1.28 0 2.24 1 1 1 1
v -1.6 0 2.24 1 1 1 1
v -1.44 0 2.08 1 1 1 1
v -1.6 0 2.08 1 1 1 1
v -1.44 0 2.24 1 1 1 1
v -1.76 0 2.24 1 1 1 1
v -1.6 0 2.08 1 1 1 1
v -1.76 0 2.08 1 1 1 1
v -1.6 0 2.24 1 1 1 1
v -1.92 0 2.24 1 1 1 1
v -1.76 0 2.08 1 1 1 1
v -1.92 0 2.08 1 1 1 1
v -1.76 0 2.24 1 1 1 1
v -2.08 0 2.24 1 1 1 1
v -1.92 0 2.08 1 1 1 1
v -2.08 0 2.08 1 1 1 1
v -1.92 0 2.24 1 1 1 1
v -2.24 0 2.24 1 1 1 1
v -2.08 0 2.08 1 1 1 1
v -2.24 0 2.08 1 1 1 1
v -2.08 0 2.24 1 1 1 1
v -2.4 0 2.24 1 1 1 1
v -2.24 0 2.08 1 1 1 1
v -2.4 0 2.08 1 1 1 1
v -2.24 0 2.24 1 1 1 1
v -2.4 0 2.08 1 1 1 1
v -2.24 0 1.92 1 1 1 1
v -2.4 0 1.92 1 1 1 1
v -2.24 0 2.08 1 1 1 1
v -2.4 0 1.92 1 1 1 1
v -2.24 0 1.76 1 1 1 1
v -2.4 0 1.76 1 1 1 1
v -2.24 0 1.92 1 1 1 1
v -2.4 0 1.76 1 1 1 1
v -2.24 0 1.6 1 1 1 1
v -2.4 0 1.6 1 1 1 1
v -2.24 0 1.76 1 1 1 1
v -2.4 0 1.6 1 1 1 1
v -2.24 0 1.44 1 1 1 1
v -2.4 0 1.44 1 1 1 1
v -2.24 0 1.6 1 1 1 1
v -2.4 0 1.28 1 1 1 1
v -2.24 0 1.12 1 1 1 1
v -2.4 0 1.12 1 1 1 1
v -2.24 0 1.28 1 1 1 1
v -2.4 0 1.12 1 1 1 1
v -2.24 0 0.96 1 1 1 1
v -2.4 0 0.96 1 1 1 1
v -2.24 0 1.12 1 1 1 1
v -2.24 0 1.12 1 1 1 1
v -2.08 0 0.96 1 1 1 1
v -2.24 0 0.96 1 1 1 1
v -2.08 0 1.12 1 1 1 1
v -2.08 0 1.12 1 1 1 1
v -1.92 0 0.96 1 1 1 1
v -2.08 0 0.96 1 1 1 1
v -1.92 0 1.12 1 1 1 1
v -1.92 0 1.12 1 1 1 1
v -1.76 0 0.96 1 1 1 1
v -1.92 0 0.96 1 1 1 1
v -1.76 0 1.12 1 1 1 1
v -2.08 0 1.28 1 1 1 1
v -1.92 0 1.12 1 1 1 1
v -2.08 0 1.12 1 1 1 1
v -1.92 0 1.28 1 1 1 1
v -2.24 0 1.28 1 1 1 1
v -2.08 0 1.12 1 1 1 1
v -2.24 0 1.12 1 1 1 1
v -2.08 0 1.28 1 1 1 1
v -2.24 0 1.6 1 1 1 1
v -2.08 0 1.44 1 1 1 1
v -2.24 0 1.44 1 1 1 1
v -2.08 0 1.6 1 1 1 1
v -2.24 0 1.76 1 1 1 1
v -2.08 0 1.6 1 1 1 1
v -2.24 0 1.6 1 1 1 1
v -2.08 0 1.76 1 1 1 1
v -2.24 0 1.92 1 1 1 1
v -2.08 0 1.76 1 1 1 1
v -2.24 0 1.76 1 1 1 1
v -2.08 0 1.92 1 1 1 1
v -2.24 0 2.08 1 1 1 1
v -2.08 0 1.92 1 1 1 1
v -2.24 0 1.92 1 1 1 1
v -2.08 0 2.08 1 1 1 1
v -1.92 0 2.08 1 1 1 1
v -1.76 0 1.92 1 1 1 1
v -1.92 0 1.92 1 1 1 1
v -1.76 0 2.08 1 1 1 1
v -1.76 0 2.08 1 1 1 1
v -1.6 0 1.92 1 1 1 1
v -1.76 0 1.92 1 1 1 1
v -1.6 0 2.08 1 1 1 1
v -1.6 0 2.08 1 1 1 1
v -1.44 0 1.92 1 1 1 1
v -1.6 0 1.92 1 1 1 1
v -1.44 0 2.08 1 1 1 1
v -2.08 0 2.08 1 1 1 1
v -1.92 0 1.92 1 1 1 1
v -2.08 0 1.92 1 1 1 1
v -1.92 0 2.08 1 1 1 1
v -1.44 0 2.08 1 1 1 1
v -1.28 0 1.92 1 1 1 1
v -1.44 0 1.92 1 1 1 1
v -1.28 0 2.08 1 1 1 1
v -1.28 0 2.08 1 1 1 1
v -1.12 0 1.92 1 1 1 1
v -1.28 0 1.92 1 1 1 1
v -1.12 0 2.08 1 1 1 1
v -1.12 0 2.08 1 1 1 1
v -0.96 0 1.92 1 1 1 1
v -1.12 0 1.92 1 1 1 1
v -0.96 0 2.08 1 1 1 1
v -0.96 0 2.08 1 1 1 1
v -0.8 0 1.92 1 1 1 1
v -0.96 0 1.92 1 1 1 1
v -0.8 0 2.08 1 1 1 1
v -0.8 0 2.08 1 1 1 1
v -0.64 0 1.92 1 1 1 1
v -0.8 0 1.92 1 1 1 1
v -0.64 0 2.08 1 1 1 1
v -0.64 0 2.08 1 1 1 1
v -0.48 0 1.92 1 1 1 1
v -0.64 0 1.92 1 1 1 1
v -0.48 0 2.08 1 1 1 1
v -0.48 0 2.08 1 1 1 1
v -0.32 0 1.92 1 1 1 1
v -0.48 0 1.92 1 1 1 1
v -0.32 0 2.08 1 1 1 1
v -0.48 0 1.92 1 1 1 1
v -0.32 0 1.76 1 1 1 1
v -0.48 0 1.76 1 1 1 1
v -0.32 0 1.92 1 1 1 1
v -0.64 0 1.92 1 1 1 1
v -0.48 0 1.76 1 1 1 1
v -0.64 0 1.76 1 1 1 1
v -0.48 0 1.92 1 1 1 1
v -0.8 0 1.92 1 1 1 1
v -0.64 0 1.76 1 1 1 1
v -0.8 0 1.76 1 1 1 1
v -0.64 0 1.92 1 1 1 1
v -0.96 0 1.92 1 1 1 1
v -0.8 0 1.76 1 1 1 1
v -0.96 0 1.76 1 1 1 1
v -0.8 0 1.92 1 1 1 1
v -1.12 0 1.92 1 1 1 1
v -0.96 0 1.76 1 1 1 1
v -1.12 0 1.76 1 1 1 1
v -0.96 0 1.92 1 1 1 1
v -1.28 0 1.92 1 1 1 1
v -1.12 0 1.76 1 1 1 1
v -1.28 0 1.76 1 1 1 1
v -1.12 0 1.92 1 1 1 1
v -1.44 0 1.92 1 1 1 1
v -1.28 0 1.76 1 1 1 1
v -1.44 0 1.76 1 1 1 1
v -1.28 0 1.92 1 1 1 1
v -1.6 0 1.92 1 1 1 1
v -1.44 0 1.76 1 1 1 1
v -1.6 0 1.76 1 1 1 1
v -1.44 0 1.92 1 1 1 1
v -1.76 0 1.92 1 1 1 1
v -1.6 0 1.76 1 1 1 1
v -1.76 0 1.76 1 1 1 1
v -1.6 0 1.92 1 1 1 1
v -1.92 0 1.92 1 1 1 1
v -1.76 0 1.76 1 1 1 1
v -1.92 0 1.76 1 1 1 1
v -1.76 0 1.92 1 1 1 1
v -2.08 0 1.92 1 1 1 1
v -1.92 0 1.76 1 1 1 1
v -2.08 0 1.76 1 1 1 1
v -1.92 0 1.92 1 1 1 1
v -2.08 0 1.76 1 1 1 1
v -1.92 0 1.6 1 1 1 1
v -2.08 0 1.6 1 1 1 1
v -1.92 0 1.76 1 1 1 1
v -1.92 0 1.76 1 1 1 1
v -1.76 0 1.6 1 1 1 1
v -1.92 0 1.6 1 1 1 1
v -1.76 0 1.76 1 1 1 1
v -1.76 0 1.76 1 1 1 1
v -1.6 0 1.6 1 1 1 1
v -1.76 0 1.6 1 1 1 1
v -1.6 0 1.76 1 1 1 1
v -1.6 0 1.76 1 1 1 1
v -1.44 0 1.6 1 1 1 1
v -1.6 0 1.6 1 1 1 1
v -1.44 0 1.76 1 1 1 1
v -1.44 0 1.76 1 1 1 1
v -1.28 0 1.6 1 1 1 1
v -1.44 0 1.6 1 1 1 1
v -1.28 0 1.76 1 1 1 1
v -1.28 0 1.76 1 1 1 1
v -1.12 0 1.6 1 1 1 1
v -1.28 0 1.6 1 1 1 1
v -1.12 0 1.76 1 1 1 1
v -1.12 0 1.76 1 1 1 1
v -0.96 0 1.6 1 1 1 1
v -1.12 0 1.6 1 1 1 1
v -0.96 0 1.76 1 1 1 1
v -0.96 0 1.76 1 1 1 1
v -0.8 0 1.6 1 1 1 1
v -0.96 0 1.6 1 1 1 1
v -0.8 0 1.76 1 1 1 1
v -0.8 0 1.76 1 1 1 1
v -0.64 0 1.6 1 1 1 1
v -0.8 0 1.6 1 1 1 1
v -0.64 0 1.76 1 1 1 1
v -0.64 0 1.76 1 1 1 1
v -0.48 0 1.6 1 1 1 1
v -0.64 0 1.6 1 1 1 1
v -0.48 0 1.76 1 1 1 1
v -0.64 0 1.6 1 1 1 1
v -0.48 0 1.44 1 1 1 1
v -0.64 0 1.44 1 1 1 1
v -0.48 0 1.6 1 1 1 1
v -0.8 0 1.6 1 1 1 1
v -0.64 0 1.44 1 1 1 1
v -0.8 0 1.44 1 1 1 1
v -0.64 0 1.6 1 1 1 1
v -0.96 0 1.6 1 1 1 1
v -0.8 0 1.44 1 1 1 1
v -0.96 0 1.44 1 1 1 1
v -0.8 0 1.6 1 1 1 1
v -1.12 0 1.6 1 1 1 1
v -0.96 0 1.44 1 1 1 1
v -1.12 0 1.44 1 1 1 1
v -0.96 0 1.6 1 1 1 1
v -1.28 0 1.6 1 1 1 1
v -1.12 0 1.44 1 1 1 1
v -1.28 0 1.44 1 1 1 1
v -1.12 0 1.6 1 1 1 1
v -1.44 0 1.6 1 1 1 1
v -1.28 0 1.44 1 1 1 1
v -1.44 0 1.44 1 1 1 1
v -1.28 0 1.6 1 1 1 1
v -1.6 0 1.6 1 1 1 1
v -1.44 0 1.44 1 1 1 1
v -1.6 0 1.44 1 1 1 1
v -1.44 0 1.6 1 1 1 1
v -1.76 0 1.6 1 1 1 1
v -1.6 0 1.44 1 1 1 1
v -1.76 0 1.44 1 1 1 1
v -1.6 0 1.6 1 1 1 1
v -1.92 0 1.6 1 1 1 1
v -1.76 0 1.44 1 1 1 1
v -1.92 0 1.44 1 1 1 1
v -1.76 0 1.6 1 1 1 1
v -2.08 0 1.6 1 1 1 1
v -1.92 0 1.44 1 1 1 1
v -2.08 0 1.44 1 1 1 1
v -1.92 0 1.6 1 1 1 1
v -1.76 0 1.44 1 1 1 1
v -1.6 0 1.28 1 1 1 1
v -1.76 0 1.28 1 1 1 1
v -1.6 0 1.44 1 1 1 1
v -1.6 0 1.44 1 1 1 1
v -1.44 0 1.28 1 1 1 1
v -1.6 0 1.28 1 1 1 1
v -1.44 0 1.44 1 1 1 1
v -1.44 0 1.44 1 1 1 1
v -1.28 0 1.28 1 1 1 1
v -1.44 0 1.28 1 1 1 1
v -1.28 0 1.44 1 1 1 1
v -1.28 0 1.44 1 1 1 1
v -1.12 0 1.28 1 1 1 1
v -1.28 0 1.28 1 1 1 1
v -1.12 0 1.44 1 1 1 1
v -1.12 0 1.44 1 1 1 1
v -0.96 0 1.28 1 1 1 1
v -1.12 0 1.28 1 1 1 1
v -0.96 0 1.44 1 1 1 1
v -0.96 0 1.44 1 1 1 1
v -0.8 0 1.28 1 1 1 1
v -0.96 0 1.28 1 1 1 1
v -0.8 0 1.44 1 1 1 1
v -0.8 0 1.44 1 1 1 1
v -0.64 0 1.28 1 1 1 1
v -0.8 0 1.28 1 1 1 1
v -0.64 0 1.44 1 1 1 1
v -0.64 0 1.44 1 1 1 1
v -0.48 0 1.28 1 1 1 1
v -0.64 0 1.28 1 1 1 1
v -0.48 0 1.44 1 1 1 1
v -0.64 0 1.28 1 1 1 1
v -0.48 0 1.12 1 1 1 1
v -0.64 0 1.12 1 1 1 1
v -0.48 0 1.28 1 1 1 1
v -0.8 0 1.28 1 1 1 1
v -0.64 0 1.12 1 1 1 1
v -0.8 0 1.12 1 1 1 1
v -0.64 0 1.28 1 1 1 1
v -0.96 0 1.28 1 1 1 1
v -0.8 0 1.12 1 1 1 1
v -0.96 0 1.12 1 1 1 1
v -0.8 0 1.28 1 1 1 1
v -0.32 0 1.6 1 1 1 1
v -0.16 0 1.44 1 1 1 1
v -0.32 0 1.44 1 1 1 1
v -0.16 0 1.6 1 1 1 1
v 1.28 0 2.4 1 1 1 1
v 1.44 0 2.24 1 1 1 1
v 1.28 0 2.24 1 1 1 1
v 1.44 0 2.4 1 1 1 1
v 1.28 0 2.24 1 1 1 1
v 1.44 0 2.08 1 1 1 1
v 1.28 0 2.08 1 1 1 1
v 1.44 0 2.24 1 1 1 1
v 1.28 0 2.08 1 1 1 1
v 1.44 0 1.92 1 1 1 1
v 1.28 0 1.92 1 1 1 1
v 1.44 0 2.08 1 1 1 1
v 1.28 0 1.92 1 1 1 1
v 1.44 0 1.76 1 1 1 1
v 1.28 0 1.76 1 1 1 1
v 1.44 0 1.92 1 1 1 1
v 1.28 0 1.76 1 1 1 1
v 1.44 0 1.6 1 1 1 1
v 1.28 0 1.6 1 1 1 1
v 1.44 0 1.76 1 1 1 1
v 1.28 0 1.6 1 1 1 1
v 1.44 0 1.44 1 1 1 1
v 1.28 0 1.44 1 1 1 1
v 1.44 0 1.6 1 1 1 1
v 1.28 0 1.44 1 1 1 1
v 1.44 0 1.28 1 1 1 1
v 1.28 0 1.28 1 1 1 1
v 1.44 0 1.44 1 1 1 1
v 1.28 0 1.28 1 1 1 1
v 1.44 0 1.12 1 1 1 1
v 1.28 0 1.12 1 1 1 1
v 1.44 0 1.28 1 1 1 1
v 1.28 0 1.12 1 1 1 1
v 1.44 0 0.96 1 1 1 1
v 1.28 0 0.96 1 1 1 1
v 1.44 0 1.12 1 1 1 1
v 1.44 0 0.96 1 1 1 1
v 1.6 0 0.8 1 1 1 1
v 1.44 0 0.8 1 1 1 1
v 1.6 0 0.96 1 1 1 1
v 1.28 0 0.96 1 1 1 1
v 1.44 0 0.8 1 1 1 1
v 1.28 0 0.8 1 1 1 1
v 1.44 0 0.96 1 1 1 1
v 1.6 0 0.96 1 1 1 1
v 1.76 0 0.8 1 1 1 1
v 1.6 0 0.8 1 1 1 1
v 1.76 0 0.96 1 1 1 1
v 1.76 0 0.96 1 1 1 1
v 1.92 0 0.8 1 1 1 1
v 1.76 0 0.8 1 1 1 1
v 1.92 0 0.96 1 1 1 1
v 1.44 0 1.12 1 1 1 1
v 1.6 0 0.96 1 1 1 1
v 1.44 0 0.96 1 1 1 1
v 1.6 0 1.12 1 1 1 1
v 1.6 0 1.12 1 1 1 1
v 1.76 0 0.96 1 1 1 1
v 1.6 0 0.96 1 1 1 1
v 1.76 0 1.12 1 1 1 1
v 1.44 0 1.28 1 1 1 1
v 1.6 0 1.12 1 1 1 1
v 1.44 0 1.12 1 1 1 1
v 1.6 0 1.28 1 1 1 1
v 1.6 0 1.28 1 1 1 1
v 1.76 0 1.12 1 1 1 1
v 1.6 0 1.12 1 1 1 1
v 1.76 0 1.28 1 1 1 1
v 1.44 0 1.44 1 1 1 1
v 1.6 0 1.28 1 1 1 1
v 1.44 0 1.28 1 1 1 1
v 1.6 0 1.44 1 1 1 1
v 1.6 0 1.44 1 1 1 1
v 1.76 0 1.28 1 1 1 1
v 1.6 0 1.28 1 1 1 1
v 1.76 0 1.44 1 1 1 1
v 1.44 0 1.6 1 1 1 1
v 1.6 0 1.44 1 1 1 1
v 1.44 0 1.44 1 1 1 1
v 1.6 0 1.6 1 1 1 1
v 1.6 0 1.6 1 1 1 1
v 1.76 0 1.44 1 1 1 1
v 1.6 0 1.44 1 1 1 1
v 1.76 0 1.6 1 1 1 1
v 1.44 0 1.76 1 1 1 1
v 1.6 0 1.6 1 1 1 1
v 1.44 0 1.6 1 1 1 1
v 1.6 0 1.76 1 1 1 1
v 1.6 0 1.76 1 1 1 1
v 1.76 0 1.6 1 1 1 1
v 1.6 0 1.6 1 1 1 1
v 1.76 0 1.76 1 1 1 1
v 1.44 0 1.92 1 1 1 1
v 1.6 0 1.76 1 1 1 1
v 1.44 0 1.76 1 1 1 1
v 1.6 0 1.92 1 1 1 1
v 1.6 0 1.92 1 1 1 1
v 1.76 0 1.76 1 1 1 1
v 1.6 0 1.76 1 1 1 1
v 1.76 0 1.92 1 1 1 1
v 1.44 0 2.08 1 1 1 1
v 1.6 0 1.92 1 1 1 1
v 1.44 0 1.92 1 1 1 1
v 1.6 0 2.08 1 1 1 1
v 1.6 0 2.08 1 1 1 1
v 1.76 0 1.92 1 1 1 1
v 1.6 0 1.92 1 1 1 1
v 1.76 0 2.08 1 1 1 1
v 1.44 0 2.24 1 1 1 1
v 1.6 0 2.08 1 1 1 1
v 1.44 0 2.08 1 1 1 1
v 1.6 0 2.24 1 1 1 1
v 1.6 0 2.24 1 1 1 1
v 1.76 0 2.08 1 1 1 1
v 1.6 0 2.08 1 1 1 1
v 1.76 0 2.24 1 1 1 1
v 1.44 0 2.4 1 1 1 1
v 1.6 0 2.24 1 1 1 1
v 1.44 0 2.24 1 1 1 1
v 1.6 0 2.4 1 1 1 1
v 1.6 0 2.4 1 1 1 1
v 1.76 0 2.24 1 1 1 1
v 1.6 0 2.24 1 1 1 1
v 1.76 0 2.4 1 1 1 1
v 1.76 0 2.4 1 1 1 1
v 1.92 0 2.24 1 1 1 1
v 1.76 0 2.24 1 1 1 1
v 1.92 0 2.4 1 1 1 1
v 1.92 0 2.4 1 1 1 1
v 2.08 0 2.24 1 1 1 1
v 1.92 0 2.24 1 1 1 1
v 2.08 0 2.4 1 1 1 1
v 2.08 0 2.4 1 1 1 1
v 2.24 0 2.24 1 1 1 1
v 2.08 0 2.24 1 1 1 1
v 2.24 0 2.4 1 1 1 1
v 2.24 0 2.4 1 1 1 1
v 2.4 0 2.24 1 1 1 1
v 2.24 0 2.24 1 1 1 1
v 2.4 0 2.4 1 1 1 1
v 2.4 0 2.4 1 1 1 1
v 2.56 0 2.24 1 1 1 1
v 2.4 0 2.24 1 1 1 1
v 2.56 0 2.4 1 1 1 1
v 2.56 0 2.24 1 1 1 1
v 2.72 0 2.08 1 1 1 1
v 2.56 0 2.08 1 1 1 1
v 2.72 0 2.24 1 1 1 1
v 2.72 0 2.24 1 1 1 1
v 2.88 0 2.08 1 1 1 1
v 2.72 0 2.08 1 1 1 1
v 2.88 0 2.24 1 1 1 1
v 2.88 0 2.24 1 1 1 1
v 3.04 0 2.08 1 1 1 1
v 2.88 0 2.08 1 1 1 1
v 3.04 0 2.24 1 1 1 1
v 3.04 0 2.24 1 1 1 1
v 3.2 0 2.08 1 1 1 1
v 3.04 0 2.08 1 1 1 1
v 3.2 0 2.24 1 1 1 1
v 3.2 0 2.24 1 1 1 1
v 3.36 0 2.08 1 1 1 1
v 3.2 0 2.08 1 1 1 1
v 3.36 0 2.24 1 1 1 1
v 3.2 0 2.4 1 1 1 1
v 3.36 0 2.24 1 1 1 1
v 3.2 0 2.24 1 1 1 1
v 3.36 0 2.4 1 1 1 1
v 2.72 0 2.4 1 1 1 1
v 2.88 0 2.24 1 1 1 1
v 2.72 0 2.24 1 1 1 1
v 2.88 0 2.4 1 1 1 1
v 2.88 0 2.4 1 1 1 1
v 3.04 0 2.24 1 1 1 1
v 2.88 0 2.24 1 1 1 1
v 3.04 0 2.4 1 1 1 1
v 3.04 0 2.4 1 1 1 1
v 3.2 0 2.24 1 1 1 1
v 3.04 0 2.24 1 1 1 1
v 3.2 0 2.4 1 1 1 1
v 2.56 0 2.4 1 1 1 1
v 2.72 0 2.24 1 1 1 1
v 2.56 0 2.24 1 1 1 1
v 2.72 0 2.4 1 1 1 1
v 1.76 0 2.24 1 1 1 1
v 1.92 0 2.08 1 1 1 1
v 1.76 0 2.08 1 1 1 1
v 1.92 0 2.24 1 1 1 1
v 1.92 0 2.24 1 1 1 1
v 2.08 0 2.08 1 1 1 1
v 1.92 0 2.08 1 1 1 1
v 2.08 0 2.24 1 1 1 1
v 2.08 0 2.24 1 1 1 1
v 2.24 0 2.08 1 1 1 1
v 2.08 0 2.08 1 1 1 1
v 2.24 0 2.24 1 1 1 1
v 2.24 0 2.24 1 1 1 1
v 2.4 0 2.08 1 1 1 1
v 2.24 0 2.08 1 1 1 1
v 2.4 0 2.24 1 1 1 1
v 2.4 0 2.24 1 1 1 1
v 2.56 0 2.08 1 1 1 1
v 2.4 0 2.08 1 1 1 1
v 2.56 0 2.24 1 1 1 1
v 1.76 0 2.08 1 1 1 1
v 1.92 0 1.92 1 1 1 1
v 1.76 0 1.92 1 1 1 1
v 1.92 0 2.08 1 1 1 1
v 1.92 0 2.08 1 1 1 1
v 2.08 0 1.92 1 1 1 1
v 1.92 0 1.92 1 1 1 1
v 2.08 0 2.08 1 1 1 1
v 2.08 0 2.08 1 1 1 1
v 2.24 0 1.92 1 1 1 1
v 2.08 0 1.92 1 1 1 1
v 2.24 0 2.08 1 1 1 1
v 2.24 0 2.08 1 1 1 1
v 2.4 0 1.92 1 1 1 1
v 2.24 0 1.92 1 1 1 1
v 2.4 0 2.08 1 1 1 1
v 2.4 0 2.08 1 1 1 1
v 2.56 0 1.92 1 1 1 1
v 2.4 0 1.92 1 1 1 1
v 2.56 0 2.08 1 1 1 1
v 2.56 0 2.08 1 1 1 1
v 2.72 0 1.92 1 1 1 1
v 2.56 0 1.92 1 1 1 1
v 2.72 0 2.08 1 1 1 1
v 2.72 0 2.08 1 1 1 1
v 2.88 0 1.92 1 1 1 1
v 2.72 0 1.92 1 1 1 1
v 2.88 0 2.08 1 1 1 1
v 2.88 0 2.08 1 1 1 1
v 3.04 0 1.92 1 1 1 1
v 2.88 0 1.92 1 1 1 1
v 3.04 0 2.08 1 1 1 1
v 3.04 0 2.08 1 1 1 1
v 3.2 0 1.92 1 1 1 1
v 3.04 0 1.92 1 1 1 1
v 3.2 0 2.08 1 1 1 1
v 3.2 0 2.08 1 1 1 1
v 3.36 0 1.92 1 1 1 1
v 3.2 0 1.92 1 1 1 1
v 3.36 0 2.08 1 1 1 1
v 1.76 0 1.92 1 1 1 1
v 1.92 0 1.76 1 1 1 1
v 1.76 0 1.76 1 1 1 1
v 1.92 0 1.92 1 1 1 1
v 1.92 0 1.92 1 1 1 1
v 2.08 0 1.76 1 1 1 1
v 1.92 0 1.76 1 1 1 1
v 2.08 0 1.92 1 1 1 1
v 2.08 0 1.92 1 1 1 1
v 2.24 0 1.76 1 1 1 1
v 2.08 0 1.76 1 1 1 1
v 2.24 0 1.92 1 1 1 1
v 2.24 0 1.92 1 1 1 1
v 2.4 0 1.76 1 1 1 1
v 2.24 0 1.76 1 1 1 1
v 2.4 0 1.92 1 1 1 1
v 2.56 0 1.92 1 1 1 1
v 2.72 0 1.76 1 1 1 1
v 2.56 0 1.76 1 1 1 1
v 2.72 0 1.92 1 1 1 1
v 2.72 0 1.92 1 1 1 1
v 2.88 0 1.76 1 1 1 1
v 2.72 0 1.76 1 1 1 1
v 2.88 0 1.92 1 1 1 1
v 2.88 0 1.92 1 1 1 1
v 3.04 0 1.76 1 1 1 1
v 2.88 0 1.76 1 1 1 1
v 3.04 0 1.92 1 1 1 1
v 2.4 0 1.92 1 1 1 1
v 2.56 0 1.76 1 1 1 1
v 2.4 0 1.76 1 1 1 1
v 2.56 0 1.92 1 1 1 1
v 3.04 0 1.92 1 1 1 1
v 3.2 0 1.76 1 1 1 1
v 3.04 0 1.76 1 1 1 1
v 3.2 0 1.92 1 1 1 1
v 3.2 0 1.92 1 1 1 1
v 3.36 0 1.76 1 1 1 1
v 3.2 0 1.76 1 1 1 1
v 3.36 0 1.92 1 1 1 1
v 2.24 0 1.76 1 1 1 1
v 2.4 0 1.6 1 1 1 1
v 2.24 0 1.6 1 1 1 1
v 2.4 0 1.76 1 1 1 1
v 2.4 0 1.76 1 1 1 1
v 2.56 0 1.6 1 1 1 1
v 2.4 0 1.6 1 1 1 1
v 2.56 0 1.76 1 1 1 1
v 2.56 0 1.76 1 1 1 1
v 2.72 0 1.6 1 1 1 1
v 2.56 0 1.6 1 1 1 1
v 2.72 0 1.76 1 1 1 1
v 2.72 0 1.76 1 1 1 1
v 2.88 0 1.6 1 1 1 1
v 2.72 0 1.6 1 1 1 1
v 2.88 0 1.76 1 1 1 1
v 2.88 0 1.76 1 1 1 1
v 3.04 0 1.6 1 1 1 1
v 2.88 0 1.6 1 1 1 1
v 3.04 0 1.76 1 1 1 1
v 3.04 0 1.76 1 1 1 1
v 3.2 0 1.6 1 1 1 1
v 3.04 0 1.6 1 1 1 1
v 3.2 0 1.76 1 1 1 1
v 3.2 0 1.76 1 1 1 1
v 3.36 0 1.6 1 1 1 1
v 3.2 0 1.6 1 1 1 1
v 3.36 0 1.76 1 1 1 1
v 1.76 0 1.76 1 1 1 1
v 1.92 0 1.6 1 1 1 1
v 1.76 0 1.6 1 1 1 1
v 1.92 0 1.76 1 1 1 1
v 1.92 0 1.76 1 1 1 1
v 2.08 0 1.6 1 1 1 1
v 1.92 0 1.6 1 1 1 1
v 2.08 0 1.76 1 1 1 1
v 2.08 0 1.76 1 1 1 1
v 2.24 0 1.6 1 1 1 1
v 2.08 0 1.6 1 1 1 1
v 2.24 0 1.76 1 1 1 1
v 1.76 0 1.6 1 1 1 1
v 1.92 0 1.44 1 1 1 1
v 1.76 0 1.44 1 1 1 1
v 1.92 0 1.6 1 1 1 1
v 1.92 0 1.6 1 1 1 1
v 2.08 0 1.44 1 1 1 1
v 1.92 0 1.44 1 1 1 1
v 2.08 0 1.6 1 1 1 1
v 2.08 0 1.6 1 1 1 1
v 2.24 0 1.44 1 1 1 1
v 2.08 0 1.44 1 1 1 1
v 2.24 0 1.6 1 1 1 1
v 2.24 0 1.6 1 1 1 1
v 2.4 0 1.44 1 1 1 1
v 2.24 0 1.44 1 1 1 1
v 2.4 0 1.6 1 1 1 1
v 2.4 0 1.6 1 1 1 1
v 2.56 0 1.44 1 1 1 1
v 2.4 0 1.44 1 1 1 1
v 2.56 0 1.6 1 1 1 1
v 2.56 0 1.6 1 1 1 1
v 2.72 0 1.44 1 1 1 1
v 2.56 0 1.44 1 1 1 1
v 2.72 0 1.6 1 1 1 1
v 2.72 0 1.6 1 1 1 1
v 2.88 0 1.44 1 1 1 1
v 2.72 0 1.44 1 1 1 1
v 2.88 0 1.6 1 1 1 1
v 2.88 0 1.6 1 1 1 1
v 3.04 0 1.44 1 1 1 1
v 2.88 0 1.44 1 1 1 1
v 3.04 0 1.6 1 1 1 1
v 3.04 0 1.6 1 1 1 1
v 3.2 0 1.44 1 1 1 1
v 3.04 0 1.44 1 1 1 1
v 3.2 0 1.6 1 1 1 1
v 3.2 0 1.6 1 1 1 1
v 3.36 0 1.44 1 1 1 1
v 3.2 0 1.44 1 1 1 1
v 3.36 0 1.6 1 1 1 1
v 3.36 0 1.6 1 1 1 1
v 3.52 0 1.44 1 1 1 1
v 3.36 0 1.44 1 1 1 1
v 3.52 0 1.6 1 1 1 1
v 3.52 0 1.6 1 1 1 1
v 3.68 0 1.44 1 1 1 1
v 3.52 0 1.44 1 1 1 1
v 3.68 0 1.6 1 1 1 1
v 3.84 0 1.6 1 1 1 1
v 4 0 1.44 1 1 1 1
v 3.84 0 1.44 1 1 1 1
v 4 0 1.6 1 1 1 1
v 4 0 1.6 1 1 1 1
v 4.16 0 1.44 1 1 1 1
v 4 0 1.44 1 1 1 1
v 4.16 0 1.6 1 1 1 1
v 4.16 0 1.76 1 1 1 1
v 4.32 0 1.6 1 1 1 1
v 4.16 0 1.6 1 1 1 1
v 4.32 0 1.76 1 1 1 1
v 4.16 0 1.92 1 1 1 1
v 4.32 0 1.76 1 1 1 1
v 4.16 0 1.76 1 1 1 1
v 4.32 0 1.92 1 1 1 1
v 4 0 1.92 1 1 1 1
v 4.16 0 1.76 1 1 1 1
v 4 0 1.76 1 1 1 1
v 4.16 0 1.92 1 1 1 1
v 4 0 2.08 1 1 1 1
v 4.16 0 1.92 1 1 1 1
v 4 0 1.92 1 1 1 1
v 4.16 0 2.08 1 1 1 1
v 3.84 0 2.08 1 1 1 1
v 4 0 1.92 1 1 1 1
v 3.84 0 1.92 1 1 1 1
v 4 0 2.08 1 1 1 1
v 3.68 0 2.24 1 1 1 1
v 3.84 0 2.08 1 1 1 1
v 3.68 0 2.08 1 1 1 1
v 3.84 0 2.24 1 1 1 1
v 3.52 0 2.24 1 1 1 1
v 3.68 0 2.08 1 1 1 1
v 3.52 0 2.08 1 1 1 1
v 3.68 0 2.24 1 1 1 1
v 3.52 0 2.4 1 1 1 1
v 3.68 0 2.24 1 1 1 1
v 3.52 0 2.24 1 1 1 1
v 3.68 0 2.4 1 1 1 1
v 3.36 0 2.4 1 1 1 1
v 3.52 0 2.24 1 1 1 1
v 3.36 0 2.24 1 1 1 1
v 3.52 0 2.4 1 1 1 1
v 3.36 0 2.24 1 1 1 1
v 3.52 0 2.08 1 1 1 1
v 3.36 0 2.08 1 1 1 1
v 3.52 0 2.24 1 1 1 1
v 3.36 0 2.08 1 1 1 1
v 3.52 0 1.92 1 1 1 1
v 3.36 0 1.92 1 1 1 1
v 3.52 0 2.08 1 1 1 1
v 3.36 0 1.92 1 1 1 1
v 3.52 0 1.76 1 1 1 1
v 3.36 0 1.76 1 1 1 1
v 3.52 0 1.92 1 1 1 1
v 3.36 0 1.76 1 1 1 1
v 3.52 0 1.6 1 1 1 1
v 3.36 0 1.6 1 1 1 1
v 3.52 0 1.76 1 1 1 1
v 3.52 0 1.76 1 1 1 1
v 3.68 0 1.6 1 1 1 1
v 3.52 0 1.6 1 1 1 1
v 3.68 0 1.76 1 1 1 1
v 3.68 0 1.76 1 1 1 1
v 3.84 0 1.6 1 1 1 1
v 3.68 0 1.6 1 1 1 1
v 3.84 0 1.76 1 1 1 1
v 3.68 0 1.6 1 1 1 1
v 3.84 0 1.44 1 1 1 1
v 3.68 0 1.44 1 1 1 1
v 3.84 0 1.6 1 1 1 1
v 4.16 0 1.6 1 1 1 1
v 4.32 0 1.44 1 1 1 1
v 4.16 0 1.44 1 1 1 1
v 4.32 0 1.6 1 1 1 1
v 4.16 0 2.08 1 1 1 1
v 4.32 0 1.92 1 1 1 1
v 4.16 0 1.92 1 1 1 1
v 4.32 0 2.08 1 1 1 1
v 4.16 0 2.24 1 1 1 1
v 4.32 0 2.08 1 1 1 1
v 4.16 0 2.08 1 1 1 1
v 4.32 0 2.24 1 1 1 1
v 4.16 0 2.4 1 1 1 1
v 4.32 0 2.24 1 1 1 1
v 4.16 0 2.24 1 1 1 1
v 4.32 0 2.4 1 1 1 1
v 4 0 2.4 1 1 1 1
v 4.16 0 2.24 1 1 1 1
v 4 0 2.24 1 1 1 1
v 4.16 0 2.4 1 1 1 1
v 3.84 0 2.4 1 1 1 1
v 4 0 2.24 1 1 1 1
v 3.84 0 2.24 1 1 1 1
v 4 0 2.4 1 1 1 1
v 3.68 0 2.4 1 1 1 1
v 3.84 0 2.24 1 1 1 1
v 3.68 0 2.24 1 1 1 1
v 3.84 0 2.4 1 1 1 1
v 3.84 0 2.24 1 1 1 1
v 4 0 2.08 1 1 1 1
v 3.84 0 2.08 1 1 1 1
v 4 0 2.24 1 1 1 1
v 4 0 2.24 1 1 1 1
v 4.16 0 2.08 1 1 1 1
v 4 0 2.08 1 1 1 1
v 4.16 0 2.24 1 1 1 1
v 4 0 1.76 1 1 1 1
v 4.16 0 1.6 1 1 1 1
v 4 0 1.6 1 1 1 1
v 4.16 0 1.76 1 1 1 1
v 3.84 0 1.76 1 1 1 1
v 4 0 1.6 1 1 1 1
v 3.84 0 1.6 1 1 1 1
v 4 0 1.76 1 1 1 1
v 3.84 0 1.92 1 1 1 1
v 4 0 1.76 1 1 1 1
v 3.84 0 1.76 1 1 1 1
v 4 0 1.92 1 1 1 1
v 3.68 0 2.08 1 1 1 1
v 3.84 0 1.92 1 1 1 1
v 3.68 0 1.92 1 1 1 1
v 3.84 0 2.08 1 1 1 1
v 3.68 0 1.92 1 1 1 1
v 3.84 0 1.76 1 1 1 1
v 3.68 0 1.76 1 1 1 1
v 3.84 0 1.92 1 1 1 1
v 3.52 0 1.92 1 1 1 1
v 3.68 0 1.76 1 1 1 1
v 3.52 0 1.76 1 1 1 1
v 3.68 0 1.92 1 1 1 1
v 3.52 0 2.08 1 1 1 1
v 3.68 0 1.92 1 1 1 1
v 3.52 0 1.92 1 1 1 1
v 3.68 0 2.08 1 1 1 1
v 1.92 0 0.96 1 1 1 1
v 2.08 0 0.8 1 1 1 1
v 1.92 0 0.8 1 1 1 1
v 2.08 0 0.96 1 1 1 1
v 2.08 0 0.96 1 1 1 1
v 2.24 0 0.8 1 1 1 1
v 2.08 0 0.8 1 1 1 1
v 2.24 0 0.96 1 1 1 1
v 2.24 0 0.96 1 1 1 1
v 2.4 0 0.8 1 1 1 1
v 2.24 0 0.8 1 1 1 1
v 2.4 0 0.96 1 1 1 1
v 2.4 0 0.96 1 1 1 1
v 2.56 0 0.8 1 1 1 1
v 2.4 0 0.8 1 1 1 1
v 2.56 0 0.96 1 1 1 1
v 2.56 0 0.96 1 1 1 1
v 2.72 0 0.8 1 1 1 1
v 2.56 0 0.8 1 1 1 1
v 2.72 0 0.96 1 1 1 1
v 2.72 0 0.96 1 1 1 1
v 2.88 0 0.8 1 1 1 1
v 2.72 0 0.8 1 1 1 1
v 2.88 0 0.96 1 1 1 1
v 2.88 0 0.96 1 1 1 1
v 3.04 0 0.8 1 1 1 1
v 2.88 0 0.8 1 1 1 1
v 3.04 0 0.96 1 1 1 1
v 3.04 0 0.96 1 1 1 1
v 3.2 0 0.8 1 1 1 1
v 3.04 0 0.8 1 1 1 1
v 3.2 0 0.96 1 1 1 1
v 3.2 0 0.96 1 1 1 1
v 3.36 0 0.8 1 1 1 1
v 3.2 0 0.8 1 1 1 1
v 3.36 0 0.96 1 1 1 1
v 3.36 0 0.96 1 1 1 1
v 3.52 0 0.8 1 1 1 1
v 3.36 0 0.8 1 1 1 1
v 3.52 0 0.96 1 1 1 1
v 3.52 0 0.96 1 1 1 1
v 3.68 0 0.8 1 1 1 1
v 3.52 0 0.8 1 1 1 1
v 3.68 0 0.96 1 1 1 1
v 3.68 0 0.96 1 1 1 1
v 3.84 0 0.8 1 1 1 1
v 3.68 0 0.8 1 1 1 1
v 3.84 0 0.96 1 1 1 1
v 3.84 0 0.96 1 1 1 1
v 4 0 0.8 1 1 1 1
v 3.84 0 0.8 1 1 1 1
v 4 0 0.96 1 1 1 1
v 4 0 0.96 1 1 1 1
v 4.16 0 0.8 1 1 1 1
v 4 0 0.8 1 1 1 1
v 4.16 0 0.96 1 1 1 1
v 4.16 0 0.96 1 1 1 1
v 4.32 0 0.8 1 1 1 1
v 4.16 0 0.8 1 1 1 1
v 4.32 0 0.96 1 1 1 1
v 4.16 0 1.12 1 1 1 1
v 4.32 0 0.96 1 1 1 1
v 4.16 0 0.96 1 1 1 1
v 4.32 0 1.12 1 1 1 1
v 4.16 0 1.28 1 1 1 1
v 4.32 0 1.12 1 1 1 1
v 4.16 0 1.12 1 1 1 1
v 4.32 0 1.28 1 1 1 1
v 4.16 0 1.44 1 1 1 1
v 4.32 0 1.28 1 1 1 1
v 4.16 0 1.28 1 1 1 1
v 4.32 0 1.44 1 1 1 1
v 4 0 1.44 1 1 1 1
v 4.16 0 1.28 1 1 1 1
v 4 0 1.28 1 1 1 1
v 4.16 0 1.44 1 1 1 1
v 3.84 0 1.44 1 1 1 1
v 4 0 1.28 1 1 1 1
v 3.84 0 1.28 1 1 1 1
v 4 0 1.44 1 1 1 1
v 3.52 0 1.44 1 1 1 1
v 3.68 0 1.28 1 1 1 1
v 3.52 0 1.28 1 1 1 1
v 3.68 0 1.44 1 1 1 1
v 3.2 0 1.44 1 1 1 1
v 3.36 0 1.28 1 1 1 1
v 3.2 0 1.28 1 1 1 1
v 3.36 0 1.44 1 1 1 1
v 3.04 0 1.44 1 1 1 1
v 3.2 0 1.28 1 1 1 1
v 3.04 0 1.28 1 1 1 1
v 3.2 0 1.44 1 1 1 1
v 2.88 0 1.44 1 1 1 1
v 3.04 0 1.28 1 1 1 1
v 2.88 0 1.28 1 1 1 1
v 3.04 0 1.44 1 1 1 1
v 2.72 0 1.44 1 1 1 1
v 2.88 0 1.28 1 1 1 1
v 2.72 0 1.28 1 1 1 1
v 2.88 0 1.44 1 1 1 1
v 2.56 0 1.44 1 1 1 1
v 2.72 0 1.28 1 1 1 1
v 2.56 0 1.28 1 1 1 1
v 2.72 0 1.44 1 1 1 1
v 3.36 0 1.44 1 1 1 1
v 3.52 0 1.28 1 1 1 1
v 3.36 0 1.28 1 1 1 1
v 3.52 0 1.44 1 1 1 1
v 3.68 0 1.44 1 1 1 1
v 3.84 0 1.28 1 1 1 1
v 3.68 0 1.28 1 1 1 1
v 3.84 0 1.44 1 1 1 1
v 2.4 0 1.44 1 1 1 1
v 2.56 0 1.28 1 1 1 1
v 2.4 0 1.28 1 1 1 1
v 2.56 0 1.44 1 1 1 1
v 2.24 0 1.44 1 1 1 1
v 2.4 0 1.28 1 1 1 1
v 2.24 0 1.28 1 1 1 1
v 2.4 0 1.44 1 1 1 1
v 2.08 0 1.44 1 1 1 1
v 2.24 0 1.28 1 1 1 1
v 2.08 0 1.28 1 1 1 1
v 2.24 0 1.44 1 1 1 1
v 1.92 0 1.44 1 1 1 1
v 2.08 0 1.28 1 1 1 1
v 1.92 0 1.28 1 1 1 1
v 2.08 0 1.44 1 1 1 1
v 1.76 0 1.44 1 1 1 1
v 1.92 0 1.28 1 1 1 1
v 1.76 0 1.28 1 1 1 1
v 1.92 0 1.44 1 1 1 1
v 1.76 0 1.28 1 1 1 1
v 1.92 0 1.12 1 1 1 1
v 1.76 0 1.12 1 1 1 1
v 1.92 0 1.28 1 1 1 1
v 1.92 0 1.28 1 1 1 1
v 2.08 0 1.12 1 1 1 1
v 1.92 0 1.12 1 1 1 1
v 2.08 0 1.28 1 1 1 1
v 2.08 0 1.28 1 1 1 1
v 2.24 0 1.12 1 1 1 1
v 2.08 0 1.12 1 1 1 1
v 2.24 0 1.28 1 1 1 1
v 2.24 0 1.28 1 1 1 1
v 2.4 0 1.12 1 1 1 1
v 2.24 0 1.12 1 1 1 1
v 2.4 0 1.28 1 1 1 1
v 2.4 0 1.28 1 1 1 1
v 2.56 0 1.12 1 1 1 1
v 2.4 0 1.12 1 1 1 1
v 2.56 0 1.28 1 1 1 1
v 2.56 0 1.28 1 1 1 1
v 2.72 0 1.12 1 1 1 1
v 2.56 0 1.12 1 1 1 1
v 2.72 0 1.28 1 1 1 1
v 2.72 0 1.28 1 1 1 1
v 2.88 0 1.12 1 1 1 1
v 2.72 0 1.12 1 1 1 1
v 2.88 0 1.28 1 1 1 1
v 2.88 0 1.28 1 1 1 1
v 3.04 0 1.12 1 1 1 1
v 2.88 0 1.12 1 1 1 1
v 3.04 0 1.28 1 1 1 1
v 3.04 0 1.28 1 1 1 1
v 3.2 0 1.12 1 1 1 1
v 3.04 0 1.12 1 1 1 1
v 3.2 0 1.28 1 1 1 1
v 3.2 0 1.28 1 1 1 1
v 3.36 0 1.12 1 1 1 1
v 3.2 0 1.12 1 1 1 1
v 3.36 0 1.28 1 1 1 1
v 3.36 0 1.28 1 1 1 1
v 3.52 0 1.12 1 1 1 1
v 3.36 0 1.12 1 1 1 1
v 3.52 0 1.28 1 1 1 1
v 3.52 0 1.28 1 1 1 1
v 3.68 0 1.12 1 1 1 1
v 3.52 0 1.12 1 1 1 1
v 3.68 0 1.28 1 1 1 1
v 3.68 0 1.28 1 1 1 1
v 3.84 0 1.12 1 1 1 1
v 3.68 0 1.12 1 1 1 1
v 3.84 0 1.28 1 1 1 1
v 3.84 0 1.28 1 1 1 1
v 4 0 1.12 1 1 1 1
v 3.84 0 1.12 1 1 1 1
v 4 0 1.28 1 1 1 1
v 4 0 1.28 1 1 1 1
v 4.16 0 1.12 1 1 1 1
v 4 0 1.12 1 1 1 1
v 4.16 0 1.28 1 1 1 1
v 4 0 1.12 1 1 1 1
v 4.16 0 0.96 1 1 1 1
v 4 0 0.96 1 1 1 1
v 4.16 0 1.12 1 1 1 1
v 3.84 0 1.12 1 1 1 1
v 4 0 0.96 1 1 1 1
v 3.84 0 0.96 1 1 1 1
v 4 0 1.12 1 1 1 1
v 3.68 0 1.12 1 1 1 1
v 3.84 0 0.96 1 1 1 1
v 3.68 0 0.96 1 1 1 1
v 3.84 0 1.12 1 1 1 1
v 3.52 0 1.12 1 1 1 1
v 3.68 0 0.96 1 1 1 1
v 3.52 0 0.96 1 1 1 1
v 3.68 0 1.12 1 1 1 1
v 3.36 0 1.12 1 1 1 1
v 3.52 0 0.96 1 1 1 1
v 3.36 0 0.96 1 1 1 1
v 3.52 0 1.12 1 1 1 1
v 3.2 0 1.12 1 1 1 1
v 3.36 0 0.96 1 1 1 1
v 3.2 0 0.96 1 1 1 1
v 3.36 0 1.12 1 1 1 1
v 3.04 0 1.12 1 1 1 1
v 3.2 0 0.96 1 1 1 1
v 3.04 0 0.96 1 1 1 1
v 3.2 0 1.12 1 1 1 1
v 2.88 0 1.12 1 1 1 1
v 3.04 0 0.96 1 1 1 1
v 2.88 0 0.96 1 1 1 1
v 3.04 0 1.12 1 1 1 1
v 2.72 0 1.12 1 1 1 1
v 2.88 0 0.96 1 1 1 1
v 2.72 0 0.96 1 1 1 1
v 2.88 0 1.12 1 1 1 1
v 2.56 0 1.12 1 1 1 1
v 2.72 0 0.96 1 1 1 1
v 2.56 0 0.96 1 1 1 1
v 2.72 0 1.12 1 1 1 1
v 2.4 0 1.12 1 1 1 1
v 2.56 0 0.96 1 1 1 1
v 2.4 0 0.96 1 1 1 1
v 2.56 0 1.12 1 1 1 1
v 2.24 0 1.12 1 1 1 1
v 2.4 0 0.96 1 1 1 1
v 2.24 0 0.96 1 1 1 1
v 2.4 0 1.12 1 1 1 1
v 2.08 0 1.12 1 1 1 1
v 2.24 0 0.96 1 1 1 1
v 2.08 0 0.96 1 1 1 1
v 2.24 0 1.12 1 1 1 1
v 1.92 0 1.12 1 1 1 1
v 2.08 0 0.96 1 1 1 1
v 1.92 0 0.96 1 1 1 1
v 2.08 0 1.12 1 1 1 1
v 1.76 0 1.12 1 1 1 1
v 1.92 0 0.96 1 1 1 1
v 1.76 0 0.96 1 1 1 1
v 1.92 0 1.12 1 1 1 1
v -2.88 0 1.76 1 1 1 1
v -2.72 0 1.6 1 1 1 1
v -2.88 0 1.6 1 1 1 1
v -2.72 0 1.76 1 1 1 1
v -2.72 0 1.76 1 1 1 1
v -2.56 0 1.6 1 1 1 1
v -2.72 0 1.6 1 1 1 1
v -2.56 0 1.76 1 1 1 1
v -2.88 0 1.92 1 1 1 1
v -2.72 0 1.76 1 1 1 1
v -2.88 0 1.76 1 1 1 1
v -2.72 0 1.92 1 1 1 1
v -2.72 0 1.92 1 1 1 1
v -2.56 0 1.76 1 1 1 1
v -2.72 0 1.76 1 1 1 1
v -2.56 0 1.92 1 1 1 1
v -2.88 0 2.08 1 1 1 1
v -2.72 0 1.92 1 1 1 1
v -2.88 0 1.92 1 1 1 1
v -2.72 0 2.08 1 1 1 1
v -2.72 0 2.08 1 1 1 1
v -2.56 0 1.92 1 1 1 1
v -2.72 0 1.92 1 1 1 1
v -2.56 0 2.08 1 1 1 1
v -2.88 0 2.24 1 1 1 1
v -2.72 0 2.08 1 1 1 1
v -2.88 0 2.08 1 1 1 1
v -2.72 0 2.24 1 1 1 1
v -2.72 0 2.24 1 1 1 1
v -2.56 0 2.08 1 1 1 1
v -2.72 0 2.08 1 1 1 1
v -2.56 0 2.24 1 1 1 1
v -2.88 0 2.4 1 1 1 1
v -2.72 0 2.24 1 1 1 1
v -2.88 0 2.24 1 1 1 1
v -2.72 0 2.4 1 1 1 1
v -2.72 0 2.4 1 1 1 1
v -2.56 0 2.24 1 1 1 1
v -2.72 0 2.24 1 1 1 1
v -2.56 0 2.4 1 1 1 1
v -2.72 0 1.6 1 1 1 1
v -2.56 0 1.44 1 1 1 1
v -2.72 0 1.44 1 1 1 1
v -2.56 0 1.6 1 1 1 1
v -2.72 0 1.44 1 1 1 1
v -2.56 0 1.28 1 1 1 1
v -2.72 0 1.28 1 1 1 1
v -2.56 0 1.44 1 1 1 1
v -2.88 0 1.44 1 1 1 1
v -2.72 0 1.28 1 1 1 1
v -2.88 0 1.28 1 1 1 1
v -2.72 0 1.44 1 1 1 1
v -2.88 0 1.28 1 1 1 1
v -2.72 0 1.12 1 1 1 1
v -2.88 0 1.12 1 1 1 1
v -2.72 0 1.28 1 1 1 1
v -2.88 0 1.12 1 1 1 1
v -2.72 0 0.96 1 1 1 1
v -2.88 0 0.96 1 1 1 1
v -2.72 0 1.12 1 1 1 1
v -2.88 0 0.96 1 1 1 1
v -2.72 0 0.8 1 1 1 1
v -2.88 0 0.8 1 1 1 1
v -2.72 0 0.96 1 1 1 1
v -2.72 0 0.96 1 1 1 1
v -2.56 0 0.8 1 1 1 1
v -2.72 0 0.8 1 1 1 1
v -2.56 0 0.96 1 1 1 1
v -2.72 0 1.12 1 1 1 1
v -2.56 0 0.96 1 1 1 1
v -2.72 0 0.96 1 1 1 1
v -2.56 0 1.12 1 1 1 1
v -2.72 0 1.28 1 1 1 1
v -2.56 0 1.12 1 1 1 1
v -2.72 0 1.12 1 1 1 1
v -2.56 0 1.28 1 1 1 1
v -2.88 0 1.6 1 1 1 1
v -2.72 0 1.44 1 1 1 1
v -2.88 0 1.44 1 1 1 1
v -2.72 0 1.6 1 1 1 1
v -3.2 0 -1.93 1 1 1 1
v -2.56 0 -2.57 1 1 1 1
v -3.2 0 -2.57 1 1 1 1
v -2.56 0 -1.93 1 1 1 1
v -3.2 0 -2.57 1 1 1 1
v -2.56 0 -3.21 1 1 1 1
v -3.2 0 -3.21 1 1 1 1
v -2.56 0 -2.57 1 1 1 1
v -3.2 0 -3.21 1 1 1 1
v -2.56 0 -3.85 1 1 1 1
v -3.2 0 -3.85 1 1 1 1
v -2.56 0 -3.21 1 1 1 1
v -3.2 0 -3.85 1 1 1 1
v -2.56 0 -4.49 1 1 1 1
v -3.2 0 -4.49 1 1 1 1
v -2.56 0 -3.85 1 1 1 1
v -2.56 0 -3.85 1 1 1 1
v -1.92 0 -4.49 1 1 1 1
v -2.56 0 -4.49 1 1 1 1
v -1.92 0 -3.85 1 1 1 1
v -1.92 0 -3.85 1 1 1 1
v -1.28 0 -4.49 1 1 1 1
v -1.92 0 -4.49 1 1 1 1
v -1.28 0 -3.85 1 1 1 1
v -1.28 0 -3.85 1 1 1 1
v -0.64 0 -4.49 1 1 1 1
v -1.28 0 -4.49 1 1 1 1
v -0.64 0 -3.85 1 1 1 1
v -1.28 0 -3.21 1 1 1 1
v -0.64 0 -3.85 1 1 1 1
v -1.28 0 -3.85 1 1 1 1
v -0.64 0 -3.21 1 1 1 1
v -1.28 0 -2.57 1 1 1 1
v -0.64 0 -3.21 1 1 1 1
v -1.28 0 -3.21 1 1 1 1
v -0.64 0 -2.57 1 1 1 1
v -1.92 0 -2.57 1 1 1 1
v -1.28 0 -3.21 1 1 1 1
v -1.92 0 -3.21 1 1 1 1
v -1.28 0 -2.57 1 1 1 1
v -2.56 0 -2.57 1 1 1 1
v -1.92 0 -3.21 1 1 1 1
v -2.56 0 -3.21 1 1 1 1
v -1.92 0 -2.57 1 1 1 1
v -2.56 0 -3.21 1 1 1 1
v -1.92 0 -3.85 1 1 1 1
v -2.56 0 -3.85 1 1 1 1
v -1.92 0 -3.21 1 1 1 1
v -1.92 0 -3.21 1 1 1 1
v -1.28 0 -3.85 1 1 1 1
v -1.92 0 -3.85 1 1 1 1
v -1.28 0 -3.21 1 1 1 1
v 2.56 0 -3.21 1 1 1 1
v 3.2 0 -3.85 1 1 1 1
v 2.56 0 -3.85 1 1 1 1
v 3.2 0 -3.21 1 1 1 1
v 2.56 0 -3.85 1 1 1 1
v 3.2 0 -4.49 1 1 1 1
v 2.56 0 -4.49 1 1 1 1
v 3.2 0 -3.85 1 1 1 1
v 3.2 0 -3.21 1 1 1 1
v 3.84 0 -3.85 1 1 1 1
v 3.2 0 -3.85 1 1 1 1
v 3.84 0 -3.21 1 1 1 1
v 3.84 0 -3.21 1 1 1 1
v 4.48 0 -3.85 1 1 1 1
v 3.84 0 -3.85 1 1 1 1
v 4.48 0 -3.21 1 1 1 1
v 3.84 0 -3.85 1 1 1 1
v 4.48 0 -4.49 1 1 1 1
v 3.84 0 -4.49 1 1 1 1
v 4.48 0 -3.85 1 1 1 1
v 3.2 0 -3.85 1 1 1 1
v 3.84 0 -4.49 1 1 1 1
v 3.2 0 -4.49 1 1 1 1
v 3.84 0 -3.85 1 1 1 1
v 3.84 0 0 1 1 1 1
v 4.48 0 -0.64 1 1 1 1
v 3.84 0 -0.64 1 1 1 1
v 4.48 0 0 1 1 1 1
v 3.2 0 0 1 1 1 1
v 3.84 0 -0.64 1 1 1 1
v 3.2 0 -0.64 1 1 1 1
v 3.84 0 0 1 1 1 1
v 2.56 0 0 1 1 1 1
v 3.2 0 -0.64 1 1 1 1
v 2.56 0 -0.64 1 1 1 1
v 3.2 0 0 1 1 1 1
v 1.92 0 0 1 1 1 1
v 2.56 0 -0.64 1 1 1 1
v 1.92 0 -0.64 1 1 1 1
v 2.56 0 0 1 1 1 1
v 1.28 0 0 1 1 1 1
v 1.92 0 -0.64 1 1 1 1
v 1.28 0 -0.64 1 1 1 1
v 1.92 0 0 1 1 1 1
v 0.64 0 0 1 1 1 1
v 1.28 0 -0.64 1 1 1 1
v 0.64 0 -0.64 1 1 1 1
v 1.28 0 0 1 1 1 1
v 0 0 0 1 1 1 1
v 0.64 0 -0.64 1 1 1 1
v 0 0 -0.64 1 1 1 1
v 0.64 0 0 1 1 1 1
v -0.64 0 0 1 1 1 1
v 0 0 -0.64 1 1 1 1
v -0.64 0 -0.64 1 1 1 1
v 0 0 0 1 1 1 1
v -1.28 0 0 1 1 1 1
v -0.64 0 -0.64 1 1 1 1
v -1.28 0 -0.64 1 1 1 1
v -0.64 0 0 1 1 1 1
v -1.92 0 0 1 1 1 1
v -1.28 0 -0.64 1 1 1 1
v -1.92 0 -0.64 1 1 1 1
v -1.28 0 0 1 1 1 1
v -2.56 0 0 1 1 1 1
v -1.92 0 -0.64 1 1 1 1
v -2.56 0 -0.64 1 1 1 1
v -1.92 0 0 1 1 1 1
v -3.2 0 0 1 1 1 1
v -2.56 0 -0.64 1 1 1 1
v -3.2 0 -0.64 1 1 1 1
v -2.56 0 0 1 1 1 1
v 3.84 0 -0.64 1 1 1 1
v 4.48 0 -1.28 1 1 1 1
v 3.84 0 -1.28 1 1 1 1
v 4.48 0 -0.64 1 1 1 1
v 3.2 0 -0.64 1 1 1 1
v 3.84 0 -1.28 1 1 1 1
v 3.2 0 -1.28 1 1 1 1
v 3.84 0 -0.64 1 1 1 1
v 2.56 0 -0.64 1 1 1 1
v 3.2 0 -1.28 1 1 1 1
v 2.56 0 -1.28 1 1 1 1
v 3.2 0 -0.64 1 1 1 1
v 1.92 0 -0.64 1 1 1 1
v 2.56 0 -1.28 1 1 1 1
v 1.92 0 -1.28 1 1 1 1
v 2.56 0 -0.64 1 1 1 1
v 1.28 0 -0.64 1 1 1 1
v 1.92 0 -1.28 1 1 1 1
v 1.28 0 -1.28 1 1 1 1
v 1.92 0 -0.64 1 1 1 1
v 0.64 0 -0.64 1 1 1 1
v 1.28 0 -1.28 1 1 1 1
v 0.64 0 -1.28 1 1 1 1
v 1.28 0 -0.64 1 1 1 1
v 0 0 -0.64 1 1 1 1
v 0.64 0 -1.28 1 1 1 1
v 0 0 -1.28 1 1 1 1
v 0.64 0 -0.64 1 1 1 1
v -0.64 0 -0.64 1 1 1 1
v 0 0 -1.28 1 1 1 1
v -0.64 0 -1.28 1 1 1 1
v 0 0 -0.64 1 1 1 1
v -1.28 0 -0.64 1 1 1 1
v -0.64 0 -1.28 1 1 1 1
v -1.28 0 -1.28 1 1 1 1
v -0.64 0 -0.64 1 1 1 1
v -1.92 0 -0.64 1 1 1 1
v -1.28 0 -1.28 1 1 1 1
v -1.92 0 -1.28 1 1 1 1
v -1.28 0 -0.64 1 1 1 1
v -2.56 0 -0.64 1 1 1 1
v -1.92 0 -1.28 1 1 1 1
v -2.56 0 -1.28 1 1 1 1
v -1.92 0 -0.64 1 1 1 1
v -3.2 0 -0.64 1 1 1 1
v -2.56 0 -1.28 1 1 1 1
v -3.2 0 -1.28 1 1 1 1
v -2.56 0 -0.64 1 1 1 1
v 3.84 0 -1.28 1 1 1 1
v 4.48 0 -1.92 1 1 1 1
v 3.84 0 -1.92 1 1 1 1
v 4.48 0 -1.28 1 1 1 1
v 2.56 0 -1.28 1 1 1 1
v 3.2 0 -1.92 1 1 1 1
v 2.56 0 -1.92 1 1 1 1
v 3.2 0 -1.28 1 1 1 1
v 1.92 0 -1.28 1 1 1 1
v 2.56 0 -1.92 1 1 1 1
v 1.92 0 -1.92 1 1 1 1
v 2.56 0 -1.28 1 1 1 1
v 1.28 0 -1.28 1 1 1 1
v 1.92 0 -1.92 1 1 1 1
v 1.28 0 -1.92 1 1 1 1
v 1.92 0 -1.28 1 1 1 1
v 0.64 0 -1.28 1 1 1 1
v 1.28 0 -1.92 1 1 1 1
v 0.64 0 -1.92 1 1 1 1
v 1.28 0 -1.28 1 1 1 1
v 3.2 0 -1.28 1 1 1 1
v 3.84 0 -1.92 1 1 1 1
v 3.2 0 -1.92 1 1 1 1
v 3.84 0 -1.28 1 1 1 1
v 0 0 -1.28 1 1 1 1
v 0.64 0 -1.92 1 1 1 1
v 0 0 -1.92 1 1 1 1
v 0.64 0 -1.28 1 1 1 1
v -0.64 0 -1.28 1 1 1 1
v 0 0 -1.92 1 1 1 1
v -0.64 0 -1.92 1 1 1 1
v 0 0 -1.28 1 1 1 1
v -1.28 0 -1.28 1 1 1 1
v -0.64 0 -1.92 1 1 1 1
v -1.28 0 -1.92 1 1 1 1
v -0.64 0 -1.28 1 1 1 1
v -1.92 0 -1.28 1 1 1 1
v -1.28 0 -1.92 1 1 1 1
v -1.92 0 -1.92 1 1 1 1
v -1.28 0 -1.28 1 1 1 1
v -2.56 0 -1.28 1 1 1 1
v -1.92 0 -1.92 1 1 1 1
v -2.56 0 -1.92 1 1 1 1
v -1.92 0 -1.28 1 1 1 1
v -3.2 0 -1.28 1 1 1 1
v -2.56 0 -1.92 1 1 1 1
v -3.2 0 -1.92 1 1 1 1
v -2.56 0 -1.28 1 1 1 1
v 0.64 0 -1.93 1 1 1 1
v 1.28 0 -2.57 1 1 1 1
v 0.64 0 -2.57 1 1 1 1
v 1.29 0 -1.93 1 1 1 1
v 0 0 -1.93 1 1 1 1
v 0.64 0 -2.57 1 1 1 1
v 0 0 -2.57 1 1 1 1
v 0.64 0 -1.93 1 1 1 1
v 0 0 -2.57 1 1 1 1
v 0.64 0 -3.21 1 1 1 1
v 0 0 -3.21 1 1 1 1
v 0.64 0 -2.57 1 1 1 1
v 0.64 0 -2.57 1 1 1 1
v 1.28 0 -3.21 1 1 1 1
v 0.64 0 -3.21 1 1 1 1
v 1.28 0 -2.57 1 1 1 1
v 0 0 -3.21 1 1 1 1
v 0.64 0 -3.85 1 1 1 1
v 0 0 -3.85 1 1 1 1
v 0.64 0 -3.21 1 1 1 1
v 0.64 0 -3.21 1 1 1 1
v 1.28 0 -3.85 1 1 1 1
v 0.64 0 -3.85 1 1 1 1
v 1.28 0 -3.21 1 1 1 1
v 0 0 -3.85 1 1 1 1
v 0.64 0 -4.49 1 1 1 1
v 0 0 -4.49 1 1 1 1
v 0.64 0 -3.85 1 1 1 1
v 0.64 0 -3.85 1 1 1 1
v 1.28 0 -4.49 1 1 1 1
v 0.64 0 -4.49 1 1 1 1
v 1.28 0 -3.85 1 1 1 1
v 3.2 0 -1.93 1 1 1 1
v 3.84 0 -2.57 1 1 1 1
v 3.2 0 -2.57 1 1 1 1
v 3.84 0 -1.93 1 1 1 1
v 3.84 0 -1.93 1 1 1 1
v 4.48 0 -2.57 1 1 1 1
v 3.84 0 -2.57 1 1 1 1
v 4.48 0 -1.93 1 1 1 1
v 3.84 0 -2.57 1 1 1 1
v 4.48 0 -3.21 1 1 1 1
v 3.84 0 -3.21 1 1 1 1
v 4.48 0 -2.57 1 1 1 1
v 3.2 0 -2.57 1 1 1 1
v 3.84 0 -3.21 1 1 1 1
v 3.2 0 -3.21 1 1 1 1
v 3.84 0 -2.57 1 1 1 1
v 2.56 0 -1.93 1 1 1 1
v 3.2 0 -2.57 1 1 1 1
v 2.56 0 -2.57 1 1 1 1
v 3.2 0 -1.93 1 1 1 1
v 2.56 0 -2.57 1 1 1 1
v 3.2 0 -3.21 1 1 1 1
v 2.56 0 -3.21 1 1 1 1
v 3.2 0 -2.57 1 1 1 1
v -1.28 0 -1.93 1 1 1 1
v -0.64 0 -2.57 1 1 1 1
v -1.28 0 -2.57 1 1 1 1
v -0.64 0 -1.93 1 1 1 1
v -1.92 0 -1.93 1 1 1 1
v -1.28 0 -2.57 1 1 1 1
v -1.92 0 -2.57 1 1 1 1
v -1.28 0 -1.93 1 1 1 1
v 0 0 0.8 1 1 1 1
v 1.28 0 0.64 1 1 1 1
v 0 0 0.64 1 1 1 1
v 1.28 0 0.8 1 1 1 1
v 1.29 2.24 0 1 1 1 1
v 3.5300000000000002 2.24 0.8 1 1 1 1
v 3.5300000000000002 2.24 0 1 1 1 1
v 1.29 2.24 0.8 1 1 1 1
v -2.21 2.24 0 1 1 1 1
v 0.03 2.24 0.8 1 1 1 1
v 0.03 2.24 0 1 1 1 1
v -2.21 2.24 0.8 1 1 1 1
v -2.22 0 0 1 1 1 1
v 0.02 2.24 0 1 1 1 1
v 0.02 0 0 1 1 1 1
v -2.22 2.24 0 1 1 1 1
v 0.02 0 0 1 1 1 1
v 0.02 2.24 0.8 1 1 1 1
v 0.02 0 0.8 1 1 1 1
v 0.02 2.24 0 1 1 1 1
v 0.02 0 0.8 1 1 1 1
v -2.22 2.24 0.8 1 1 1 1
v -2.22 0 0.8 1 1 1 1
v 0.02 2.24 0.8 1 1 1 1
v -2.22 0 0.8 1 1 1 1
v -2.22 2.24 0 1 1 1 1
v -2.22 0 0 1 1 1 1
v -2.22 2.24 0.8 1 1 1 1
v 1.28 0 0 1 1 1 1
v 3.52 2.24 0 1 1 1 1
v 3.52 0 0 1 1 1 1
v 1.28 2.24 0 1 1 1 1
v 3.52 0 0 1 1 1 1
v 3.52 2.24 0.8 1 1 1 1
v 3.52 0 0.8 1 1 1 1
v 3.52 2.24 0 1 1 1 1
v 3.52 0 0.8 1 1 1 1
v 1.28 2.24 0.8 1 1 1 1
v 1.28 0 0.8 1 1 1 1
v 3.52 2.24 0.8 1 1 1 1
v 1.28 0 0.8 1 1 1 1
v 1.28 2.24 0 1 1 1 1
v 1.28 0 0 1 1 1 1
v 1.28 2.24 0.8 1 1 1 1
v 1.26 2.5500000000000003 -1.9000000000000001 1 1 1 1
v 2.5100000000000002 2.5500000000000003 -4.14 1 1 1 1
v 1.26 2.5500000000000003 -4.14 1 1 1 1
v 2.5100000000000002 2.5500000000000003 -1.9000000000000001 1 1 1 1
v -0.62 2.5500000000000003 -1.9000000000000001 1 1 1 1
v 0.02 2.5500000000000003 -4.14 1 1 1 1
v -0.62 2.5500000000000003 -4.14 1 1 1 1
v 0.02 2.5500000000000003 -1.9000000000000001 1 1 1 1
v -0.62 0.31 -1.9000000000000001 1 1 1 1
v -0.62 2.5500000000000003 -4.14 1 1 1 1
v -0.62 0.31 -4.14 1 1 1 1
v -0.62 2.5500000000000003 -1.9000000000000001 1 1 1 1
v -0.62 0.31 -4.14 1 1 1 1
v 0.02 2.5500000000000003 -4.14 1 1 1 1
v 0.02 0.31 -4.14 1 1 1 1
v -0.62 2.5500000000000003 -4.14 1 1 1 1
v 0.02 0.31 -4.14 1 1 1 1
v 0.02 2.5500000000000003 -1.9000000000000001 1 1 1 1
v 0.02 0.31 -1.9000000000000001 1 1 1 1
v 0.02 2.5500000000000003 -4.14 1 1 1 1
v 0.02 0.31 -1.9000000000000001 1 1 1 1
v -0.62 2.5500000000000003 -1.9000000000000001 1 1 1 1
v -0.62 0.31 -1.9000000000000001 1 1 1 1
v 0.02 2.5500000000000003 -1.9000000000000001 1 1 1 1
v 1.26 0.31 -1.9000000000000001 1 1 1 1
v 1.26 2.5500000000000003 -4.14 1 1 1 1
v 1.26 0.31 -4.14 1 1 1 1
v 1.26 2.5500000000000003 -1.9000000000000001 1 1 1 1
v 1.26 0.31 -4.14 1 1 1 1
v 2.5100000000000002 2.5500000000000003 -4.14 1 1 1 1
v 2.5100000000000002 0.31 -4.14 1 1 1 1
v 1.26 2.5500000000000003 -4.14 1 1 1 1
v 2.5100000000000002 0.31 -4.14 1 1 1 1
v 2.5100000000000002 2.5500000000000003 -1.9000000000000001 1 1 1 1
v 2.5100000000000002 0.31 -1.9000000000000001 1 1 1 1
v 2.5100000000000002 2.5500000000000003 -4.14 1 1 1 1
v 2.5100000000000002 0.31 -1.9000000000000001 1 1 1 1
v 1.26 2.5500000000000003 -1.9000000000000001 1 1 1 1
v 1.26 0.31 -1.9000000000000001 1 1 1 1
v 2.5100000000000002 2.5500000000000003 -1.9000000000000001 1 1 1 1
v 1.12 0 0.64 1 1 1 1
v 1.28 0 0.48 1 1 1 1
v 1.12 0 0.48 1 1 1 1
v 1.28 0 0.64 1 1 1 1
v 0.96 0 0.64 1 1 1 1
v 1.12 0 0.48 1 1 1 1
v 0.96 0 0.48 1 1 1 1
v 1.12 0 0.64 1 1 1 1
v 0.8 0 0.64 1 1 1 1
v 0.96 0 0.48 1 1 1 1
v 0.8 0 0.48 1 1 1 1
v 0.96 0 0.64 1 1 1 1
v 0.64 0 0.64 1 1 1 1
v 0.8 0 0.48 1 1 1 1
v 0.64 0 0.48 1 1 1 1
v 0.8 0 0.64 1 1 1 1
v 0.48 0 0.64 1 1 1 1
v 0.64 0 0.48 1 1 1 1
v 0.48 0 0.48 1 1 1 1
v 0.64 0 0.64 1 1 1 1
v 0.32 0 0.64 1 1 1 1
v 0.48 0 0.48 1 1 1 1
v 0.32 0 0.48 1 1 1 1
v 0.48 0 0.64 1 1 1 1
v 0.16 0 0.64 1 1 1 1
v 0.32 0 0.48 1 1 1 1
v 0.16 0 0.48 1 1 1 1
v 0.32 0 0.64 1 1 1 1
v 0 0 0.64 1 1 1 1
v 0.16 0 0.48 1 1 1 1
v 0 0 0.48 1 1 1 1
v 0.16 0 0.64 1 1 1 1
v 0 0 0.48 1 1 1 1
v 0.16 0 0.32 1 1 1 1
v 0 0 0.32 1 1 1 1
v 0.16 0 0.48 1 1 1 1
v 0 0 0.32 1 1 1 1
v 0.16 0 0.16 1 1 1 1
v 0 0 0.16 1 1 1 1
v 0.16 0 0.32 1 1 1 1
v 0 0 0.16 1 1 1 1
v 0.16 0 0 1 1 1 1
v 0 0 0 1 1 1 1
v 0.16 0 0.16 1 1 1 1
v 0.16 0 0.16 1 1 1 1
v 0.32 0 0 1 1 1 1
v 0.16 0 0 1 1 1 1
v 0.32 0 0.16 1 1 1 1
v 0.32 0 0.16 1 1 1 1
v 0.48 0 0 1 1 1 1
v 0.32 0 0 1 1 1 1
v 0.48 0 0.16 1 1 1 1
v 0.48 0 0.16 1 1 1 1
v 0.64 0 0 1 1 1 1
v 0.48 0 0 1 1 1 1
v 0.64 0 0.16 1 1 1 1
v 0.64 0 0.16 1 1 1 1
v 0.8 0 0 1 1 1 1
v 0.64 0 0 1 1 1 1
v 0.8 0 0.16 1 1 1 1
v 0.8 0 0.16 1 1 1 1
v 0.96 0 0 1 1 1 1
v 0.8 0 0 1 1 1 1
v 0.96 0 0.16 1 1 1 1
v 0.96 0 0.16 1 1 1 1
v 1.12 0 0 1 1 1 1
v 0.96 0 0 1 1 1 1
v 1.12 0 0.16 1 1 1 1
v 1.12 0 0.16 1 1 1 1
v 1.28 0 0 1 1 1 1
v 1.12 0 0 1 1 1 1
v 1.28 0 0.16 1 1 1 1
v 1.44 0 0.16 1 1 1 1
v 1.6 0 0 1 1 1 1
v 1.44 0 0 1 1 1 1
v 1.6 0 0.16 1 1 1 1
v 1.6 0 0.16 1 1 1 1
v 1.76 0 0 1 1 1 1
v 1.6 0 0 1 1 1 1
v 1.76 0 0.16 1 1 1 1
v 1.12 0 0.48 1 1 1 1
v 1.28 0 0.32 1 1 1 1
v 1.12 0 0.32 1 1 1 1
v 1.28 0 0.48 1 1 1 1
v 1.12 0 0.32 1 1 1 1
v 1.28 0 0.16 1 1 1 1
v 1.12 0 0.16 1 1 1 1
v 1.28 0 0.32 1 1 1 1
v 0.96 0 0.32 1 1 1 1
v 1.12 0 0.16 1 1 1 1
v 0.96 0 0.16 1 1 1 1
v 1.12 0 0.32 1 1 1 1
v 0.96 0 0.48 1 1 1 1
v 1.12 0 0.32 1 1 1 1
v 0.96 0 0.32 1 1 1 1
v 1.12 0 0.48 1 1 1 1
v 0.8 0 0.32 1 1 1 1
v 0.96 0 0.16 1 1 1 1
v 0.8 0 0.16 1 1 1 1
v 0.96 0 0.32 1 1 1 1
v 0.8 0 0.48 1 1 1 1
v 0.96 0 0.32 1 1 1 1
v 0.8 0 0.32 1 1 1 1
v 0.96 0 0.48 1 1 1 1
v 0.64 0 0.48 1 1 1 1
v 0.8 0 0.32 1 1 1 1
v 0.64 0 0.32 1 1 1 1
v 0.8 0 0.48 1 1 1 1
v 0.48 0 0.48 1 1 1 1
v 0.64 0 0.32 1 1 1 1
v 0.48 0 0.32 1 1 1 1
v 0.64 0 0.48 1 1 1 1
v 0.32 0 0.48 1 1 1 1
v 0.48 0 0.32 1 1 1 1
v 0.32 0 0.32 1 1 1 1
v 0.48 0 0.48 1 1 1 1
v 0.16 0 0.48 1 1 1 1
v 0.32 0 0.32 1 1 1 1
v 0.16 0 0.32 1 1 1 1
v 0.32 0 0.48 1 1 1 1
v 0.16 0 0.32 1 1 1 1
v 0.32 0 0.16 1 1 1 1
v 0.16 0 0.16 1 1 1 1
v 0.32 0 0.32 1 1 1 1
v 0.32 0 0.32 1 1 1 1
v 0.48 0 0.16 1 1 1 1
v 0.32 0 0.16 1 1 1 1
v 0.48 0 0.32 1 1 1 1
v 0.48 0 0.32 1 1 1 1
v 0.64 0 0.16 1 1 1 1
v 0.48 0 0.16 1 1 1 1
v 0.64 0 0.32 1 1 1 1
v 0.64 0 0.32 1 1 1 1
v 0.8 0 0.16 1 1 1 1
v 0.64 0 0.16 1 1 1 1
v 0.8 0 0.32 1 1 1 1
vt 0.75 0
vt 1 0.25
vt 0.75 0.25
vt 1 0
vt 0.8125 0.0625
vt 0.875 0.125
vt 0.8125 0.125
vt 0.875 0.0625
vt 0.5 0
vt 0.5625 0.0625
vt 0.5 0.0625
vt 0.5625 0
vt 0 0
vt 0 0.0625
vt 0.375 0.125
vt 0.6875 1
vt 0.375 1
vt 0.6875 0.125
vt 0.5 0.6875
vt 0.4375 0.75
vt 0.4375 0.6875
vt 0.5 0.75
vt 0.625 1
vt 0.625 0.125
vt 0.5625 0.625
vt 0.5 0.625
vt 0.5625 0.6875
vn 0 1 0
vn 0 0 -1
vn 1 0 0
vn 0 0 1
vn -1 0 0
g Scene
usemtl 0
f 1/1/1 3/2/1 2/3/1
f 1/1/1 4/4/1 3/2/1
f 5/5/1 6/6/1 7/7/1
f 5/5/1 8/8/1 6/6/1
f 9/5/1 10/6/1 11/7/1
f 9/5/1 12/8/1 10/6/1
f 13/5/1 14/6/1 15/7/1
f 13/5/1 16/8/1 14/6/1
f 17/5/1 18/6/1 19/7/1
f 17/5/1 20/8/1 18/6/1
f 21/5/1 22/6/1 23/7/1
f 21/5/1 24/8/1 22/6/1
f 25/5/1 26/6/1 27/7/1
f 25/5/1 28/8/1 26/6/1
f 29/5/1 30/6/1 31/7/1
f 29/5/1 32/8/1 30/6/1
f 33/5/1 34/6/1 35/7/1
f 33/5/1 36/8/1 34/6/1
f 37/5/1 38/6/1 39/7/1
f 37/5/1 40/8/1 38/6/1
f 41/9/1 42/10/1 43/11/1
f 41/9/1 44/12/1 42/10/1
f 45/9/1 46/10/1 47/11/1
f 45/9/1 48/12/1 46/10/1
f 49/9/1 50/10/1 51/11/1
f 49/9/1 52/12/1 50/10/1
f 53/5/1 54/6/1 55/7/1
f 53/5/1 56/8/1 54/6/1
f 57/5/1 58/6/1 59/7/1
f 57/5/1 60/8/1 58/6/1
f 61/5/1 62/6/1 63/7/1
f 61/5/1 64/8/1 62/6/1
f 65/5/1 66/6/1 67/7/1
f 65/5/1 68/8/1 66/6/1
f 69/5/1 70/6/1 71/7/1
f 69/5/1 72/8/1 70/6/1
f 73/5/1 74/6/1 75/7/1
f 73/5/1 76/8/1 74/6/1
f 77/5/1 78/6/1 79/7/1
f 77/5/1 80/8/1 78/6/1
f 81/5/1 82/6/1 83/7/1
f 81/5/1 84/8/1 82/6/1
f 85/5/1 86/6/1 87/7/1
f 85/5/1 88/8/1 86/6/1
f 89/5/1 90/6/1 91/7/1
f 89/5/1 92/8/1 90/6/1
f 93/5/1 94/6/1 95/7/1
f 93/5/1 96/8/1 94/6/1
f 97/5/1 98/6/1 99/7/1
f 97/5/1 100/8/1 98/6/1
f 101/5/1 102/6/1 103/7/1
f 101/5/1 104/8/1 102/6/1
f 105/5/1 106/6/1 107/7/1
f 105/5/1 108/8/1 106/6/1
f 109/5/1 110/6/1 111/7/1
f 109/5/1 112/8/1 110/6/1
f 113/5/1 114/6/1 115/7/1
f 113/5/1 116/8/1 114/6/1
f 117/5/1 118/6/1 119/7/1
f 117/5/1 120/8/1 118/6/1
f 121/5/1 122/6/1 123/7/1
f 121/5/1 124/8/1 122/6/1
f 125/5/1 126/6/1 127/7/1
f 125/5/1 128/8/1 126/6/1
f 129/5/1 130/6/1 131/7/1
f 129/5/1 132/8/1 130/6/1
f 133/5/1 134/6/1 135/7/1
f 133/5/1 136/8/1 134/6/1
f 137/5/1 138/6/1 139/7/1
f 137/5/1 140/8/1 138/6/1
f 141/5/1 142/6/1 143/7/1
f 141/5/1 144/8/1 142/6/1
f 145/5/1 146/6/1 147/7/1
f 145/5/1 148/8/1 146/6/1
f 149/5/1 150/6/1 151/7/1
f 149/5/1 152/8/1 150/6/1
f 153/5/1 154/6/1 155/7/1
f 153/5/1 156/8/1 154/6/1
f 157/5/1 158/6/1 159/7/1
f 157/5/1 160/8/1 158/6/1
f 161/5/1 162/6/1 163/7/1
f 161/5/1 164/8/1 162/6/1
f 165/5/1 166/6/1 167/7/1
f 165/5/1 168/8/1 166/6/1
f 169/5/1 170/6/1 171/7/1
f 169/5/1 172/8/1 170/6/1
f 173/5/1 174/6/1 175/7/1
f 173/5/1 176/8/1 174/6/1
f 177/5/1 178/6/1 179/7/1
f 177/5/1 180/8/1 178/6/1
f 181/5/1 182/6/1 183/7/1
f 181/5/1 184/8/1 182/6/1
f 185/5/1 186/6/1 187/7/1
f 185/5/1 188/8/1 186/6/1
f 189/5/1 190/6/1 191/7/1
f 189/5/1 192/8/1 190/6/1
f 193/5/1 194/6/1 195/7/1
f 193/5/1 196/8/1 194/6/1
f 197/5/1 198/6/1 199/7/1
f 197/5/1 200/8/1 198/6/1
f 201/5/1 202/6/1 203/7/1
f 201/5/1 204/8/1 202/6/1
f 205/5/1 206/6/1 207/7/1
f 205/5/1 208/8/1 206/6/1
f 209/5/1 210/6/1 211/7/1
f 209/5/1 212/8/1 210/6/1
f 213/5/1 214/6/1 215/7/1
f 213/5/1 216/8/1 214/6/1
f 217/5/1 218/6/1 219/7/1
f 217/5/1 220/8/1 218/6/1
f 221/5/1 222/6/1 223/7/1
f 221/5/1 224/8/1 222/6/1
f 225/5/1 226/6/1 227/7/1
f 225/5/1 228/8/1 226/6/1
f 229/5/1 230/6/1 231/7/1
f 229/5/1 232/8/1 230/6/1
f 233/5/1 234/6/1 235/7/1
f 233/5/1 236/8/1 234/6/1
f 237/5/1 238/6/1 239/7/1
f 237/5/1 240/8/1 238/6/1
f 241/5/1 242/6/1 243/7/1
f 241/5/1 244/8/1 242/6/1
f 245/5/1 246/6/1 247/7/1
f 245/5/1 248/8/1 246/6/1
f 249/5/1 250/6/1 251/7/1
f 249/5/1 252/8/1 250/6/1
f 253/5/1 254/6/1 255/7/1
f 253/5/1 256/8/1 254/6/1
f 257/5/1 258/6/1 259/7/1
f 257/5/1 260/8/1 258/6/1
f 261/5/1 262/6/1 263/7/1
f 261/5/1 264/8/1 262/6/1
f 265/5/1 266/6/1 267/7/1
f 265/5/1 268/8/1 266/6/1
f 269/5/1 270/6/1 271/7/1
f 269/5/1 272/8/1 270/6/1
f 273/5/1 274/6/1 275/7/1
f 273/5/1 276/8/1 274/6/1
f 277/5/1 278/6/1 279/7/1
f 277/5/1 280/8/1 278/6/1
f 281/5/1 282/6/1 283/7/1
f 281/5/1 284/8/1 282/6/1
f 285/5/1 286/6/1 287/7/1
f 285/5/1 288/8/1 286/6/1
f 289/5/1 290/6/1 291/7/1
f 289/5/1 292/8/1 290/6/1
f 293/5/1 294/6/1 295/7/1
f 293/5/1 296/8/1 294/6/1
f 297/5/1 298/6/1 299/7/1
f 297/5/1 300/8/1 298/6/1
f 301/5/1 302/6/1 303/7/1
f 301/5/1 304/8/1 302/6/1
f 305/5/1 306/6/1 307/7/1
f 305/5/1 308/8/1 306/6/1
f 309/5/1 310/6/1 311/7/1
f 309/5/1 312/8/1 310/6/1
f 313/5/1 314/6/1 315/7/1
f 313/5/1 316/8/1 314/6/1
f 317/5/1 318/6/1 319/7/1
f 317/5/1 320/8/1 318/6/1
f 321/5/1 322/6/1 323/7/1
f 321/5/1 324/8/1 322/6/1
f 325/9/1 326/10/1 327/11/1
f 325/9/1 328/12/1 326/10/1
f 329/9/1 330/10/1 331/11/1
f 329/9/1 332/12/1 330/10/1
f 333/9/1 334/10/1 335/11/1
f 333/9/1 336/12/1 334/10/1
f 337/9/1 338/10/1 339/11/1
f 337/9/1 340/12/1 338/10/1
f 341/9/1 342/10/1 343/11/1
f 341/9/1 344/12/1 342/10/1
f 345/9/1 346/10/1 347/11/1
f 345/9/1 348/12/1 346/10/1
f 349/5/1 350/6/1 351/7/1
f 349/5/1 352/8/1 350/6/1
f 353/5/1 354/6/1 355/7/1
f 353/5/1 356/8/1 354/6/1
f 357/5/1 358/6/1 359/7/1
f 357/5/1 360/8/1 358/6/1
f 361/9/1 362/10/1 363/11/1
f 361/9/1 364/12/1 362/10/1
f 365/9/1 366/10/1 367/11/1
f 365/9/1 368/12/1 366/10/1
f 369/9/1 370/10/1 371/11/1
f 369/9/1 372/12/1 370/10/1
f 373/9/1 374/10/1 375/11/1
f 373/9/1 376/12/1 374/10/1
f 377/9/1 378/10/1 379/11/1
f 377/9/1 380/12/1 378/10/1
f 381/9/1 382/10/1 383/11/1
f 381/9/1 384/12/1 382/10/1
f 385/9/1 386/10/1 387/11/1
f 385/9/1 388/12/1 386/10/1
f 389/9/1 390/10/1 391/11/1
f 389/9/1 392/12/1 390/10/1
f 393/9/1 394/10/1 395/11/1
f 393/9/1 396/12/1 394/10/1
f 397/9/1 398/10/1 399/11/1
f 397/9/1 400/12/1 398/10/1
f 401/9/1 402/10/1 403/11/1
f 401/9/1 404/12/1 402/10/1
f 405/9/1 406/10/1 407/11/1
f 405/9/1 408/12/1 406/10/1
f 409/9/1 410/10/1 411/11/1
f 409/9/1 412/12/1 410/10/1
f 413/9/1 414/10/1 415/11/1
f 413/9/1 416/12/1 414/10/1
f 417/9/1 418/10/1 419/11/1
f 417/9/1 420/12/1 418/10/1
f 421/9/1 422/10/1 423/11/1
f 421/9/1 424/12/1 422/10/1
f 425/9/1 426/10/1 427/11/1
f 425/9/1 428/12/1 426/10/1
f 429/9/1 430/10/1 431/11/1
f 429/9/1 432/12/1 430/10/1
f 433/9/1 434/10/1 435/11/1
f 433/9/1 436/12/1 434/10/1
f 437/9/1 438/10/1 439/11/1
f 437/9/1 440/12/1 438/10/1
f 441/9/1 442/10/1 443/11/1
f 441/9/1 444/12/1 442/10/1
f 445/9/1 446/10/1 447/11/1
f 445/9/1 448/12/1 446/10/1
f 449/9/1 450/10/1 451/11/1
f 449/9/1 452/12/1 450/10/1
f 453/9/1 454/10/1 455/11/1
f 453/9/1 456/12/1 454/10/1
f 457/9/1 458/10/1 459/11/1
f 457/9/1 460/12/1 458/10/1
f 461/9/1 462/10/1 463/11/1
f 461/9/1 464/12/1 462/10/1
f 465/9/1 466/10/1 467/11/1
f 465/9/1 468/12/1 466/10/1
f 469/9/1 470/10/1 471/11/1
f 469/9/1 472/12/1 470/10/1
f 473/9/1 474/10/1 475/11/1
f 473/9/1 476/12/1 474/10/1
f 477/9/1 478/10/1 479/11/1
f 477/9/1 480/12/1 478/10/1
f 481/9/1 482/10/1 483/11/1
f 481/9/1 484/12/1 482/10/1
f 485/9/1 486/10/1 487/11/1
f 485/9/1 488/12/1 486/10/1
f 489/9/1 490/10/1 491/11/1
f 489/9/1 492/12/1 490/10/1
f 493/9/1 494/10/1 495/11/1
f 493/9/1 496/12/1 494/10/1
f 497/9/1 498/10/1 499/11/1
f 497/9/1 500/12/1 498/10/1
f 501/9/1 502/10/1 503/11/1
f 501/9/1 504/12/1 502/10/1
f 505/9/1 506/10/1 507/11/1
f 505/9/1 508/12/1 506/10/1
f 509/9/1 510/10/1 511/11/1
f 509/9/1 512/12/1 510/10/1
f 513/9/1 514/10/1 515/11/1
f 513/9/1 516/12/1 514/10/1
f 517/9/1 518/10/1 519/11/1
f 517/9/1 520/12/1 518/10/1
f 521/9/1 522/10/1 523/11/1
f 521/9/1 524/12/1 522/10/1
f 525/9/1 526/10/1 527/11/1
f 525/9/1 528/12/1 526/10/1
f 529/9/1 530/10/1 531/11/1
f 529/9/1 532/12/1 530/10/1
f 533/9/1 534/10/1 535/11/1
f 533/9/1 536/12/1 534/10/1
f 537/9/1 538/10/1 539/11/1
f 537/9/1 540/12/1 538/10/1
f 541/9/1 542/10/1 543/11/1
f 541/9/1 544/12/1 542/10/1
f 545/9/1 546/10/1 547/11/1
f 545/9/1 548/12/1 546/10/1
f 549/9/1 550/10/1 551/11/1
f 549/9/1 552/12/1 550/10/1
f 553/9/1 554/10/1 555/11/1
f 553/9/1 556/12/1 554/10/1
f 557/9/1 558/10/1 559/11/1
f 557/9/1 560/12/1 558/10/1
f 561/9/1 562/10/1 563/11/1
f 561/9/1 564/12/1 562/10/1
f 565/9/1 566/10/1 567/11/1
f 565/9/1 568/12/1 566/10/1
f 569/9/1 570/10/1 571/11/1
f 569/9/1 572/12/1 570/10/1
f 573/9/1 574/10/1 575/11/1
f 573/9/1 576/12/1 574/10/1
f 577/9/1 578/10/1 579/11/1
f 577/9/1 580/12/1 578/10/1
f 581/9/1 582/10/1 583/11/1
f 581/9/1 584/12/1 582/10/1
f 585/9/1 586/10/1 587/11/1
f 585/9/1 588/12/1 586/10/1
f 589/9/1 590/10/1 591/11/1
f 589/9/1 592/12/1 590/10/1
f 593/9/1 594/10/1 595/11/1
f 593/9/1 596/12/1 594/10/1
f 597/9/1 598/10/1 599/11/1
f 597/9/1 600/12/1 598/10/1
f 601/9/1 602/10/1 603/11/1
f 601/9/1 604/12/1 602/10/1
f 605/9/1 606/10/1 607/11/1
f 605/9/1 608/12/1 606/10/1
f 609/9/1 610/10/1 611/11/1
f 609/9/1 612/12/1 610/10/1
f 613/9/1 614/10/1 615/11/1
f 613/9/1 616/12/1 614/10/1
f 617/9/1 618/10/1 619/11/1
f 617/9/1 620/12/1 618/10/1
f 621/9/1 622/10/1 623/11/1
f 621/9/1 624/12/1 622/10/1
f 625/9/1 626/10/1 627/11/1
f 625/9/1 628/12/1 626/10/1
f 629/9/1 630/10/1 631/11/1
f 629/9/1 632/12/1 630/10/1
f 633/9/1 634/10/1 635/11/1
f 633/9/1 636/12/1 634/10/1
f 637/9/1 638/10/1 639/11/1
f 637/9/1 640/12/1 638/10/1
f 641/9/1 642/10/1 643/11/1
f 641/9/1 644/12/1 642/10/1
f 645/9/1 646/10/1 647/11/1
f 645/9/1 648/12/1 646/10/1
f 649/9/1 650/10/1 651/11/1
f 649/9/1 652/12/1 650/10/1
f 653/9/1 654/10/1 655/11/1
f 653/9/1 656/12/1 654/10/1
f 657/9/1 658/10/1 659/11/1
f 657/9/1 660/12/1 658/10/1
f 661/9/1 662/10/1 663/11/1
f 661/9/1 664/12/1 662/10/1
f 665/9/1 666/10/1 667/11/1
f 665/9/1 668/12/1 666/10/1
f 669/9/1 670/10/1 671/11/1
f 669/9/1 672/12/1 670/10/1
f 673/9/1 674/10/1 675/11/1
f 673/9/1 676/12/1 674/10/1
f 677/9/1 678/10/1 679/11/1
f 677/9/1 680/12/1 678/10/1
f 681/9/1 682/10/1 683/11/1
f 681/9/1 684/12/1 682/10/1
f 685/9/1 686/10/1 687/11/1
f 685/9/1 688/12/1 686/10/1
f 689/9/1 690/10/1 691/11/1
f 689/9/1 692/12/1 690/10/1
f 693/9/1 694/10/1 695/11/1
f 693/9/1 696/12/1 694/10/1
f 697/9/1 698/10/1 699/11/1
f 697/9/1 700/12/1 698/10/1
f 701/9/1 702/10/1 703/11/1
f 701/9/1 704/12/1 702/10/1
f 705/9/1 706/10/1 707/11/1
f 705/9/1 708/12/1 706/10/1
f 709/9/1 710/10/1 711/11/1
f 709/9/1 712/12/1 710/10/1
f 713/9/1 714/10/1 715/11/1
f 713/9/1 716/12/1 714/10/1
f 717/9/1 718/10/1 719/11/1
f 717/9/1 720/12/1 718/10/1
f 721/9/1 722/10/1 723/11/1
f 721/9/1 724/12/1 722/10/1
f 725/9/1 726/10/1 727/11/1
f 725/9/1 728/12/1 726/10/1
f 729/9/1 730/10/1 731/11/1
f 729/9/1 732/12/1 730/10/1
f 733/9/1 734/10/1 735/11/1
f 733/9/1 736/12/1 734/10/1
f 737/9/1 738/10/1 739/11/1
f 737/9/1 740/12/1 738/10/1
f 741/9/1 742/10/1 743/11/1
f 741/9/1 744/12/1 742/10/1
f 745/9/1 746/10/1 747/11/1
f 745/9/1 748/12/1 746/10/1
f 749/9/1 750/10/1 751/11/1
f 749/9/1 752/12/1 750/10/1
f 753/9/1 754/10/1 755/11/1
f 753/9/1 756/12/1 754/10/1
f 757/9/1 758/10/1 759/11/1
f 757/9/1 760/12/1 758/10/1
f 761/9/1 762/10/1 763/11/1
f 761/9/1 764/12/1 762/10/1
f 765/9/1 766/10/1 767/11/1
f 765/9/1 768/12/1 766/10/1
f 769/9/1 770/10/1 771/11/1
f 769/9/1 772/12/1 770/10/1
f 773/9/1 774/10/1 775/11/1
f 773/9/1 776/12/1 774/10/1
f 777/9/1 778/10/1 779/11/1
f 777/9/1 780/12/1 778/10/1
f 781/9/1 782/10/1 783/11/1
f 781/9/1 784/12/1 782/10/1
f 785/9/1 786/10/1 787/11/1
f 785/9/1 788/12/1 786/10/1
f 789/9/1 790/10/1 791/11/1
f 789/9/1 792/12/1 790/10/1
f 793/9/1 794/10/1 795/11/1
f 793/9/1 796/12/1 794/10/1
f 797/9/1 798/10/1 799/11/1
f 797/9/1 800/12/1 798/10/1
f 801/9/1 802/10/1 803/11/1
f 801/9/1 804/12/1 802/10/1
f 805/9/1 806/10/1 807/11/1
f 805/9/1 808/12/1 806/10/1
f 809/9/1 810/10/1 811/11/1
f 809/9/1 812/12/1 810/10/1
f 813/9/1 814/10/1 815/11/1
f 813/9/1 816/12/1 814/10/1
f 817/9/1 818/10/1 819/11/1
f 817/9/1 820/12/1 818/10/1
f 821/9/1 822/10/1 823/11/1
f 821/9/1 824/12/1 822/10/1
f 825/9/1 826/10/1 827/11/1
f 825/9/1 828/12/1 826/10/1
f 829/9/1 830/10/1 831/11/1
f 829/9/1 832/12/1 830/10/1
f 833/9/1 834/10/1 835/11/1
f 833/9/1 836/12/1 834/10/1
f 837/9/1 838/10/1 839/11/1
f 837/9/1 840/12/1 838/10/1
f 841/9/1 842/10/1 843/11/1
f 841/9/1 844/12/1 842/10/1
f 845/9/1 846/10/1 847/11/1
f 845/9/1 848/12/1 846/10/1
f 849/9/1 850/10/1 851/11/1
f 849/9/1 852/12/1 850/10/1
f 853/9/1 854/10/1 855/11/1
f 853/9/1 856/12/1 854/10/1
f 857/9/1 858/10/1 859/11/1
f 857/9/1 860/12/1 858/10/1
f 861/9/1 862/10/1 863/11/1
f 861/9/1 864/12/1 862/10/1
f 865/9/1 866/10/1 867/11/1
f 865/9/1 868/12/1 866/10/1
f 869/9/1 870/10/1 871/11/1
f 869/9/1 872/12/1 870/10/1
f 873/9/1 874/10/1 875/11/1
f 873/9/1 876/12/1 874/10/1
f 877/9/1 878/10/1 879/11/1
f 877/9/1 880/12/1 878/10/1
f 881/9/1 882/10/1 883/11/1
f 881/9/1 884/12/1 882/10/1
f 885/9/1 886/10/1 887/11/1
f 885/9/1 888/12/1 886/10/1
f 889/9/1 890/10/1 891/11/1
f 889/9/1 892/12/1 890/10/1
f 893/9/1 894/10/1 895/11/1
f 893/9/1 896/12/1 894/10/1
f 897/9/1 898/10/1 899/11/1
f 897/9/1 900/12/1 898/10/1
f 901/9/1 902/10/1 903/11/1
f 901/9/1 904/12/1 902/10/1
f 905/9/1 906/10/1 907/11/1
f 905/9/1 908/12/1 906/10/1
f 909/9/1 910/10/1 911/11/1
f 909/9/1 912/12/1 910/10/1
f 913/9/1 914/10/1 915/11/1
f 913/9/1 916/12/1 914/10/1
f 917/9/1 918/10/1 919/11/1
f 917/9/1 920/12/1 918/10/1
f 921/9/1 922/10/1 923/11/1
f 921/9/1 924/12/1 922/10/1
f 925/9/1 926/10/1 927/11/1
f 925/9/1 928/12/1 926/10/1
f 929/9/1 930/10/1 931/11/1
f 929/9/1 932/12/1 930/10/1
f 933/9/1 934/10/1 935/11/1
f 933/9/1 936/12/1 934/10/1
f 937/9/1 938/10/1 939/11/1
f 937/9/1 940/12/1 938/10/1
f 941/9/1 942/10/1 943/11/1
f 941/9/1 944/12/1 942/10/1
f 945/9/1 946/10/1 947/11/1
f 945/9/1 948/12/1 946/10/1
f 949/9/1 950/10/1 951/11/1
f 949/9/1 952/12/1 950/10/1
f 953/9/1 954/10/1 955/11/1
f 953/9/1 956/12/1 954/10/1
f 957/9/1 958/10/1 959/11/1
f 957/9/1 960/12/1 958/10/1
f 961/9/1 962/10/1 963/11/1
f 961/9/1 964/12/1 962/10/1
f 965/9/1 966/10/1 967/11/1
f 965/9/1 968/12/1 966/10/1
f 969/9/1 970/10/1 971/11/1
f 969/9/1 972/12/1 970/10/1
f 973/9/1 974/10/1 975/11/1
f 973/9/1 976/12/1 974/10/1
f 977/9/1 978/10/1 979/11/1
f 977/9/1 980/12/1 978/10/1
f 981/9/1 982/10/1 983/11/1
f 981/9/1 984/12/1 982/10/1
f 985/9/1 986/10/1 987/11/1
f 985/9/1 988/12/1 986/10/1
f 989/9/1 990/10/1 991/11/1
f 989/9/1 992/12/1 990/10/1
f 993/9/1 994/10/1 995/11/1
f 993/9/1 996/12/1 994/10/1
f 997/9/1 998/10/1 999/11/1
f 997/9/1 1000/12/1 998/10/1
f 1001/9/1 1002/10/1 1003/11/1
f 1001/9/1 1004/12/1 1002/10/1
f 1005/9/1 1006/10/1 1007/11/1
f 1005/9/1 1008/12/1 1006/10/1
f 1009/9/1 1010/10/1 1011/11/1
f 1009/9/1 1012/12/1 1010/10/1
f 1013/9/1 1014/10/1 1015/11/1
f 1013/9/1 1016/12/1 1014/10/1
f 1017/9/1 1018/10/1 1019/11/1
f 1017/9/1 1020/12/1 1018/10/1
f 1021/9/1 1022/10/1 1023/11/1
f 1021/9/1 1024/12/1 1022/10/1
f 1025/9/1 1026/10/1 1027/11/1
f 1025/9/1 1028/12/1 1026/10/1
f 1029/9/1 1030/10/1 1031/11/1
f 1029/9/1 1032/12/1 1030/10/1
f 1033/9/1 1034/10/1 1035/11/1
f 1033/9/1 1036/12/1 1034/10/1
f 1037/9/1 1038/10/1 1039/11/1
f 1037/9/1 1040/12/1 1038/10/1
f 1041/9/1 1042/10/1 1043/11/1
f 1041/9/1 1044/12/1 1042/10/1
f 1045/9/1 1046/10/1 1047/11/1
f 1045/9/1 1048/12/1 1046/10/1
f 1049/9/1 1050/10/1 1051/11/1
f 1049/9/1 1052/12/1 1050/10/1
f 1053/9/1 1054/10/1 1055/11/1
f 1053/9/1 1056/12/1 1054/10/1
f 1057/9/1 1058/10/1 1059/11/1
f 1057/9/1 1060/12/1 1058/10/1
f 1061/9/1 1062/10/1 1063/11/1
f 1061/9/1 1064/12/1 1062/10/1
f 1065/9/1 1066/10/1 1067/11/1
f 1065/9/1 1068/12/1 1066/10/1
f 1069/9/1 1070/10/1 1071/11/1
f 1069/9/1 1072/12/1 1070/10/1
f 1073/9/1 1074/10/1 1075/11/1
f 1073/9/1 1076/12/1 1074/10/1
f 1077/9/1 1078/10/1 1079/11/1
f 1077/9/1 1080/12/1 1078/10/1
f 1081/9/1 1082/10/1 1083/11/1
f 1081/9/1 1084/12/1 1082/10/1
f 1085/9/1 1086/10/1 1087/11/1
f 1085/9/1 1088/12/1 1086/10/1
f 1089/9/1 1090/10/1 1091/11/1
f 1089/9/1 1092/12/1 1090/10/1
f 1093/9/1 1094/10/1 1095/11/1
f 1093/9/1 1096/12/1 1094/10/1
f 1097/9/1 1098/10/1 1099/11/1
f 1097/9/1 1100/12/1 1098/10/1
f 1101/9/1 1102/10/1 1103/11/1
f 1101/9/1 1104/12/1 1102/10/1
f 1105/9/1 1106/10/1 1107/11/1
f 1105/9/1 1108/12/1 1106/10/1
f 1109/9/1 1110/10/1 1111/11/1
f 1109/9/1 1112/12/1 1110/10/1
f 1113/9/1 1114/10/1 1115/11/1
f 1113/9/1 1116/12/1 1114/10/1
f 1117/9/1 1118/10/1 1119/11/1
f 1117/9/1 1120/12/1 1118/10/1
f 1121/9/1 1122/10/1 1123/11/1
f 1121/9/1 1124/12/1 1122/10/1
f 1125/9/1 1126/10/1 1127/11/1
f 1125/9/1 1128/12/1 1126/10/1
f 1129/9/1 1130/10/1 1131/11/1
f 1129/9/1 1132/12/1 1130/10/1
f 1133/9/1 1134/10/1 1135/11/1
f 1133/9/1 1136/12/1 1134/10/1
f 1137/9/1 1138/10/1 1139/11/1
f 1137/9/1 1140/12/1 1138/10/1
f 1141/9/1 1142/10/1 1143/11/1
f 1141/9/1 1144/12/1 1142/10/1
f 1145/9/1 1146/10/1 1147/11/1
f 1145/9/1 1148/12/1 1146/10/1
f 1149/9/1 1150/10/1 1151/11/1
f 1149/9/1 1152/12/1 1150/10/1
f 1153/9/1 1154/10/1 1155/11/1
f 1153/9/1 1156/12/1 1154/10/1
f 1157/9/1 1158/10/1 1159/11/1
f 1157/9/1 1160/12/1 1158/10/1
f 1161/9/1 1162/10/1 1163/11/1
f 1161/9/1 1164/12/1 1162/10/1
f 1165/9/1 1166/10/1 1167/11/1
f 1165/9/1 1168/12/1 1166/10/1
f 1169/9/1 1170/10/1 1171/11/1
f 1169/9/1 1172/12/1 1170/10/1
f 1173/9/1 1174/10/1 1175/11/1
f 1173/9/1 1176/12/1 1174/10/1
f 1177/9/1 1178/10/1 1179/11/1
f 1177/9/1 1180/12/1 1178/10/1
f 1181/9/1 1182/10/1 1183/11/1
f 1181/9/1 1184/12/1 1182/10/1
f 1185/9/1 1186/10/1 1187/11/1
f 1185/9/1 1188/12/1 1186/10/1
f 1189/9/1 1190/10/1 1191/11/1
f 1189/9/1 1192/12/1 1190/10/1
f 1193/9/1 1194/10/1 1195/11/1
f 1193/9/1 1196/12/1 1194/10/1
f 1197/9/1 1198/10/1 1199/11/1
f 1197/9/1 1200/12/1 1198/10/1
f 1201/9/1 1202/10/1 1203/11/1
f 1201/9/1 1204/12/1 1202/10/1
f 1205/9/1 1206/10/1 1207/11/1
f 1205/9/1 1208/12/1 1206/10/1
f 1209/9/1 1210/10/1 1211/11/1
f 1209/9/1 1212/12/1 1210/10/1
f 1213/9/1 1214/10/1 1215/11/1
f 1213/9/1 1216/12/1 1214/10/1
f 1217/9/1 1218/10/1 1219/11/1
f 1217/9/1 1220/12/1 1218/10/1
f 1221/9/1 1222/10/1 1223/11/1
f 1221/9/1 1224/12/1 1222/10/1
f 1225/9/1 1226/10/1 1227/11/1
f 1225/9/1 1228/12/1 1226/10/1
f 1229/9/1 1230/10/1 1231/11/1
f 1229/9/1 1232/12/1 1230/10/1
f 1233/9/1 1234/10/1 1235/11/1
f 1233/9/1 1236/12/1 1234/10/1
f 1237/9/1 1238/10/1 1239/11/1
f 1237/9/1 1240/12/1 1238/10/1
f 1241/9/1 1242/10/1 1243/11/1
f 1241/9/1 1244/12/1 1242/10/1
f 1245/9/1 1246/10/1 1247/11/1
f 1245/9/1 1248/12/1 1246/10/1
f 1249/9/1 1250/10/1 1251/11/1
f 1249/9/1 1252/12/1 1250/10/1
f 1253/9/1 1254/10/1 1255/11/1
f 1253/9/1 1256/12/1 1254/10/1
f 1257/9/1 1258/10/1 1259/11/1
f 1257/9/1 1260/12/1 1258/10/1
f 1261/9/1 1262/10/1 1263/11/1
f 1261/9/1 1264/12/1 1262/10/1
f 1265/9/1 1266/10/1 1267/11/1
f 1265/9/1 1268/12/1 1266/10/1
f 1269/9/1 1270/10/1 1271/11/1
f 1269/9/1 1272/12/1 1270/10/1
f 1273/9/1 1274/10/1 1275/11/1
f 1273/9/1 1276/12/1 1274/10/1
f 1277/9/1 1278/10/1 1279/11/1
f 1277/9/1 1280/12/1 1278/10/1
f 1281/9/1 1282/10/1 1283/11/1
f 1281/9/1 1284/12/1 1282/10/1
f 1285/9/1 1286/10/1 1287/11/1
f 1285/9/1 1288/12/1 1286/10/1
f 1289/9/1 1290/10/1 1291/11/1
f 1289/9/1 1292/12/1 1290/10/1
f 1293/9/1 1294/10/1 1295/11/1
f 1293/9/1 1296/12/1 1294/10/1
f 1297/9/1 1298/10/1 1299/11/1
f 1297/9/1 1300/12/1 1298/10/1
f 1301/9/1 1302/10/1 1303/11/1
f 1301/9/1 1304/12/1 1302/10/1
f 1305/9/1 1306/10/1 1307/11/1
f 1305/9/1 1308/12/1 1306/10/1
f 1309/9/1 1310/10/1 1311/11/1
f 1309/9/1 1312/12/1 1310/10/1
f 1313/9/1 1314/10/1 1315/11/1
f 1313/9/1 1316/12/1 1314/10/1
f 1317/9/1 1318/10/1 1319/11/1
f 1317/9/1 1320/12/1 1318/10/1
f 1321/9/1 1322/10/1 1323/11/1
f 1321/9/1 1324/12/1 1322/10/1
f 1325/9/1 1326/10/1 1327/11/1
f 1325/9/1 1328/12/1 1326/10/1
f 1329/9/1 1330/10/1 1331/11/1
f 1329/9/1 1332/12/1 1330/10/1
f 1333/9/1 1334/10/1 1335/11/1
f 1333/9/1 1336/12/1 1334/10/1
f 1337/9/1 1338/10/1 1339/11/1
f 1337/9/1 1340/12/1 1338/10/1
f 1341/9/1 1342/10/1 1343/11/1
f 1341/9/1 1344/12/1 1342/10/1
f 1345/9/1 1346/10/1 1347/11/1
f 1345/9/1 1348/12/1 1346/10/1
f 1349/9/1 1350/10/1 1351/11/1
f 1349/9/1 1352/12/1 1350/10/1
f 1353/9/1 1354/10/1 1355/11/1
f 1353/9/1 1356/12/1 1354/10/1
f 1357/9/1 1358/10/1 1359/11/1
f 1357/9/1 1360/12/1 1358/10/1
f 1361/9/1 1362/10/1 1363/11/1
f 1361/9/1 1364/12/1 1362/10/1
f 1365/9/1 1366/10/1 1367/11/1
f 1365/9/1 1368/12/1 1366/10/1
f 1369/9/1 1370/10/1 1371/11/1
f 1369/9/1 1372/12/1 1370/10/1
f 1373/9/1 1374/10/1 1375/11/1
f 1373/9/1 1376/12/1 1374/10/1
f 1377/9/1 1378/10/1 1379/11/1
f 1377/9/1 1380/12/1 1378/10/1
f 1381/9/1 1382/10/1 1383/11/1
f 1381/9/1 1384/12/1 1382/10/1
f 1385/9/1 1386/10/1 1387/11/1
f 1385/9/1 1388/12/1 1386/10/1
f 1389/9/1 1390/10/1 1391/11/1
f 1389/9/1 1392/12/1 1390/10/1
f 1393/9/1 1394/10/1 1395/11/1
f 1393/9/1 1396/12/1 1394/10/1
f 1397/9/1 1398/10/1 1399/11/1
f 1397/9/1 1400/12/1 1398/10/1
f 1401/9/1 1402/10/1 1403/11/1
f 1401/9/1 1404/12/1 1402/10/1
f 1405/9/1 1406/10/1 1407/11/1
f 1405/9/1 1408/12/1 1406/10/1
f 1409/9/1 1410/10/1 1411/11/1
f 1409/9/1 1412/12/1 1410/10/1
f 1413/9/1 1414/10/1 1415/11/1
f 1413/9/1 1416/12/1 1414/10/1
f 1417/9/1 1418/10/1 1419/11/1
f 1417/9/1 1420/12/1 1418/10/1
f 1421/9/1 1422/10/1 1423/11/1
f 1421/9/1 1424/12/1 1422/10/1
f 1425/9/1 1426/10/1 1427/11/1
f 1425/9/1 1428/12/1 1426/10/1
f 1429/9/1 1430/10/1 1431/11/1
f 1429/9/1 1432/12/1 1430/10/1
f 1433/9/1 1434/10/1 1435/11/1
f 1433/9/1 1436/12/1 1434/10/1
f 1437/9/1 1438/10/1 1439/11/1
f 1437/9/1 1440/12/1 1438/10/1
f 1441/9/1 1442/10/1 1443/11/1
f 1441/9/1 1444/12/1 1442/10/1
f 1445/9/1 1446/10/1 1447/11/1
f 1445/9/1 1448/12/1 1446/10/1
f 1449/9/1 1450/10/1 1451/11/1
f 1449/9/1 1452/12/1 1450/10/1
f 1453/9/1 1454/10/1 1455/11/1
f 1453/9/1 1456/12/1 1454/10/1
f 1457/9/1 1458/10/1 1459/11/1
f 1457/9/1 1460/12/1 1458/10/1
f 1461/9/1 1462/10/1 1463/11/1
f 1461/9/1 1464/12/1 1462/10/1
f 1465/9/1 1466/10/1 1467/11/1
f 1465/9/1 1468/12/1 1466/10/1
f 1469/9/1 1470/10/1 1471/11/1
f 1469/9/1 1472/12/1 1470/10/1
f 1473/9/1 1474/10/1 1475/11/1
f 1473/9/1 1476/12/1 1474/10/1
f 1477/9/1 1478/10/1 1479/11/1
f 1477/9/1 1480/12/1 1478/10/1
f 1481/9/1 1482/10/1 1483/11/1
f 1481/9/1 1484/12/1 1482/10/1
f 1485/9/1 1486/10/1 1487/11/1
f 1485/9/1 1488/12/1 1486/10/1
f 1489/9/1 1490/10/1 1491/11/1
f 1489/9/1 1492/12/1 1490/10/1
f 1493/9/1 1494/10/1 1495/11/1
f 1493/9/1 1496/12/1 1494/10/1
f 1497/9/1 1498/10/1 1499/11/1
f 1497/9/1 1500/12/1 1498/10/1
f 1501/9/1 1502/10/1 1503/11/1
f 1501/9/1 1504/12/1 1502/10/1
f 1505/9/1 1506/10/1 1507/11/1
f 1505/9/1 1508/12/1 1506/10/1
f 1509/9/1 1510/10/1 1511/11/1
f 1509/9/1 1512/12/1 1510/10/1
f 1513/9/1 1514/10/1 1515/11/1
f 1513/9/1 1516/12/1 1514/10/1
f 1517/9/1 1518/10/1 1519/11/1
f 1517/9/1 1520/12/1 1518/10/1
f 1521/9/1 1522/10/1 1523/11/1
f 1521/9/1 1524/12/1 1522/10/1
f 1525/9/1 1526/10/1 1527/11/1
f 1525/9/1 1528/12/1 1526/10/1
f 1529/9/1 1530/10/1 1531/11/1
f 1529/9/1 1532/12/1 1530/10/1
f 1533/9/1 1534/10/1 1535/11/1
f 1533/9/1 1536/12/1 1534/10/1
f 1537/9/1 1538/10/1 1539/11/1
f 1537/9/1 1540/12/1 1538/10/1
f 1541/9/1 1542/10/1 1543/11/1
f 1541/9/1 1544/12/1 1542/10/1
f 1545/9/1 1546/10/1 1547/11/1
f 1545/9/1 1548/12/1 1546/10/1
f 1549/9/1 1550/10/1 1551/11/1
f 1549/9/1 1552/12/1 1550/10/1
f 1553/9/1 1554/10/1 1555/11/1
f 1553/9/1 1556/12/1 1554/10/1
f 1557/9/1 1558/10/1 1559/11/1
f 1557/9/1 1560/12/1 1558/10/1
f 1561/9/1 1562/10/1 1563/11/1
f 1561/9/1 1564/12/1 1562/10/1
f 1565/9/1 1566/10/1 1567/11/1
f 1565/9/1 1568/12/1 1566/10/1
f 1569/9/1 1570/10/1 1571/11/1
f 1569/9/1 1572/12/1 1570/10/1
f 1573/9/1 1574/10/1 1575/11/1
f 1573/9/1 1576/12/1 1574/10/1
f 1577/9/1 1578/10/1 1579/11/1
f 1577/9/1 1580/12/1 1578/10/1
f 1581/9/1 1582/10/1 1583/11/1
f 1581/9/1 1584/12/1 1582/10/1
f 1585/9/1 1586/10/1 1587/11/1
f 1585/9/1 1588/12/1 1586/10/1
f 1589/9/1 1590/10/1 1591/11/1
f 1589/9/1 1592/12/1 1590/10/1
f 1593/9/1 1594/10/1 1595/11/1
f 1593/9/1 1596/12/1 1594/10/1
f 1597/9/1 1598/10/1 1599/11/1
f 1597/9/1 1600/12/1 1598/10/1
f 1601/9/1 1602/10/1 1603/11/1
f 1601/9/1 1604/12/1 1602/10/1
f 1605/9/1 1606/10/1 1607/11/1
f 1605/9/1 1608/12/1 1606/10/1
f 1609/9/1 1610/10/1 1611/11/1
f 1609/9/1 1612/12/1 1610/10/1
f 1613/9/1 1614/10/1 1615/11/1
f 1613/9/1 1616/12/1 1614/10/1
f 1617/9/1 1618/10/1 1619/11/1
f 1617/9/1 1620/12/1 1618/10/1
f 1621/9/1 1622/10/1 1623/11/1
f 1621/9/1 1624/12/1 1622/10/1
f 1625/9/1 1626/10/1 1627/11/1
f 1625/9/1 1628/12/1 1626/10/1
f 1629/9/1 1630/10/1 1631/11/1
f 1629/9/1 1632/12/1 1630/10/1
f 1633/9/1 1634/10/1 1635/11/1
f 1633/9/1 1636/12/1 1634/10/1
f 1637/9/1 1638/10/1 1639/11/1
f 1637/9/1 1640/12/1 1638/10/1
f 1641/9/1 1642/10/1 1643/11/1
f 1641/9/1 1644/12/1 1642/10/1
f 1645/9/1 1646/10/1 1647/11/1
f 1645/9/1 1648/12/1 1646/10/1
f 1649/9/1 1650/10/1 1651/11/1
f 1649/9/1 1652/12/1 1650/10/1
f 1653/9/1 1654/10/1 1655/11/1
f 1653/9/1 1656/12/1 1654/10/1
f 1657/9/1 1658/10/1 1659/11/1
f 1657/9/1 1660/12/1 1658/10/1
f 1661/9/1 1662/10/1 1663/11/1
f 1661/9/1 1664/12/1 1662/10/1
f 1665/9/1 1666/10/1 1667/11/1
f 1665/9/1 1668/12/1 1666/10/1
f 1669/9/1 1670/10/1 1671/11/1
f 1669/9/1 1672/12/1 1670/10/1
f 1673/9/1 1674/10/1 1675/11/1
f 1673/9/1 1676/12/1 1674/10/1
f 1677/9/1 1678/10/1 1679/11/1
f 1677/9/1 1680/12/1 1678/10/1
f 1681/9/1 1682/10/1 1683/11/1
f 1681/9/1 1684/12/1 1682/10/1
f 1685/9/1 1686/10/1 1687/11/1
f 1685/9/1 1688/12/1 1686/10/1
f 1689/9/1 1690/10/1 1691/11/1
f 1689/9/1 1692/12/1 1690/10/1
f 1693/9/1 1694/10/1 1695/11/1
f 1693/9/1 1696/12/1 1694/10/1
f 1697/9/1 1698/10/1 1699/11/1
f 1697/9/1 1700/12/1 1698/10/1
f 1701/9/1 1702/10/1 1703/11/1
f 1701/9/1 1704/12/1 1702/10/1
f 1705/9/1 1706/10/1 1707/11/1
f 1705/9/1 1708/12/1 1706/10/1
f 1709/9/1 1710/10/1 1711/11/1
f 1709/9/1 1712/12/1 1710/10/1
f 1713/9/1 1714/10/1 1715/11/1
f 1713/9/1 1716/12/1 1714/10/1
f 1717/9/1 1718/10/1 1719/11/1
f 1717/9/1 1720/12/1 1718/10/1
f 1721/9/1 1722/10/1 1723/11/1
f 1721/9/1 1724/12/1 1722/10/1
f 1725/9/1 1726/10/1 1727/11/1
f 1725/9/1 1728/12/1 1726/10/1
f 1729/9/1 1730/10/1 1731/11/1
f 1729/9/1 1732/12/1 1730/10/1
f 1733/9/1 1734/10/1 1735/11/1
f 1733/9/1 1736/12/1 1734/10/1
f 1737/9/1 1738/10/1 1739/11/1
f 1737/9/1 1740/12/1 1738/10/1
f 1741/9/1 1742/10/1 1743/11/1
f 1741/9/1 1744/12/1 1742/10/1
f 1745/9/1 1746/10/1 1747/11/1
f 1745/9/1 1748/12/1 1746/10/1
f 1749/9/1 1750/10/1 1751/11/1
f 1749/9/1 1752/12/1 1750/10/1
f 1753/9/1 1754/10/1 1755/11/1
f 1753/9/1 1756/12/1 1754/10/1
f 1757/9/1 1758/10/1 1759/11/1
f 1757/9/1 1760/12/1 1758/10/1
f 1761/9/1 1762/10/1 1763/11/1
f 1761/9/1 1764/12/1 1762/10/1
f 1765/9/1 1766/10/1 1767/11/1
f 1765/9/1 1768/12/1 1766/10/1
f 1769/9/1 1770/10/1 1771/11/1
f 1769/9/1 1772/12/1 1770/10/1
f 1773/9/1 1774/10/1 1775/11/1
f 1773/9/1 1776/12/1 1774/10/1
f 1777/9/1 1778/10/1 1779/11/1
f 1777/9/1 1780/12/1 1778/10/1
f 1781/9/1 1782/10/1 1783/11/1
f 1781/9/1 1784/12/1 1782/10/1
f 1785/9/1 1786/10/1 1787/11/1
f 1785/9/1 1788/12/1 1786/10/1
f 1789/9/1 1790/10/1 1791/11/1
f 1789/9/1 1792/12/1 1790/10/1
f 1793/9/1 1794/10/1 1795/11/1
f 1793/9/1 1796/12/1 1794/10/1
f 1797/9/1 1798/10/1 1799/11/1
f 1797/9/1 1800/12/1 1798/10/1
f 1801/9/1 1802/10/1 1803/11/1
f 1801/9/1 1804/12/1 1802/10/1
f 1805/1/1 1806/2/1 1807/3/1
f 1805/1/1 1808/4/1 1806/2/1
f 1809/1/1 1810/2/1 1811/3/1
f 1809/1/1 1812/4/1 1810/2/1
f 1813/1/1 1814/2/1 1815/3/1
f 1813/1/1 1816/4/1 1814/2/1
f 1817/1/1 1818/2/1 1819/3/1
f 1817/1/1 1820/4/1 1818/2/1
f 1821/1/1 1822/2/1 1823/3/1
f 1821/1/1 1824/4/1 1822/2/1
f 1825/1/1 1826/2/1 1827/3/1
f 1825/1/1 1828/4/1 1826/2/1
f 1829/1/1 1830/2/1 1831/3/1
f 1829/1/1 1832/4/1 1830/2/1
f 1833/1/1 1834/2/1 1835/3/1
f 1833/1/1 1836/4/1 1834/2/1
f 1837/1/1 1838/2/1 1839/3/1
f 1837/1/1 1840/4/1 1838/2/1
f 1841/1/1 1842/2/1 1843/3/1
f 1841/1/1 1844/4/1 1842/2/1
f 1845/1/1 1846/2/1 1847/3/1
f 1845/1/1 1848/4/1 1846/2/1
f 1849/1/1 1850/2/1 1851/3/1
f 1849/1/1 1852/4/1 1850/2/1
f 1853/1/1 1854/2/1 1855/3/1
f 1853/1/1 1856/4/1 1854/2/1
f 1857/1/1 1858/2/1 1859/3/1
f 1857/1/1 1860/4/1 1858/2/1
f 1861/1/1 1862/2/1 1863/3/1
f 1861/1/1 1864/4/1 1862/2/1
f 1865/1/1 1866/2/1 1867/3/1
f 1865/1/1 1868/4/1 1866/2/1
f 1869/1/1 1870/2/1 1871/3/1
f 1869/1/1 1872/4/1 1870/2/1
f 1873/1/1 1874/2/1 1875/3/1
f 1873/1/1 1876/4/1 1874/2/1
f 1877/1/1 1878/2/1 1879/3/1
f 1877/1/1 1880/4/1 1878/2/1
f 1881/1/1 1882/2/1 1883/3/1
f 1881/1/1 1884/4/1 1882/2/1
f 1885/1/1 1886/2/1 1887/3/1
f 1885/1/1 1888/4/1 1886/2/1
f 1889/1/1 1890/2/1 1891/3/1
f 1889/1/1 1892/4/1 1890/2/1
f 1893/1/1 1894/2/1 1895/3/1
f 1893/1/1 1896/4/1 1894/2/1
f 1897/1/1 1898/2/1 1899/3/1
f 1897/1/1 1900/4/1 1898/2/1
f 1901/1/1 1902/2/1 1903/3/1
f 1901/1/1 1904/4/1 1902/2/1
f 1905/1/1 1906/2/1 1907/3/1
f 1905/1/1 1908/4/1 1906/2/1
f 1909/1/1 1910/2/1 1911/3/1
f 1909/1/1 1912/4/1 1910/2/1
f 1913/1/1 1914/2/1 1915/3/1
f 1913/1/1 1916/4/1 1914/2/1
f 1917/1/1 1918/2/1 1919/3/1
f 1917/1/1 1920/4/1 1918/2/1
f 1921/1/1 1922/2/1 1923/3/1
f 1921/1/1 1924/4/1 1922/2/1
f 1925/1/1 1926/2/1 1927/3/1
f 1925/1/1 1928/4/1 1926/2/1
f 1929/1/1 1930/2/1 1931/3/1
f 1929/1/1 1932/4/1 1930/2/1
f 1933/1/1 1934/2/1 1935/3/1
f 1933/1/1 1936/4/1 1934/2/1
f 1937/1/1 1938/2/1 1939/3/1
f 1937/1/1 1940/4/1 1938/2/1
f 1941/1/1 1942/2/1 1943/3/1
f 1941/1/1 1944/4/1 1942/2/1
f 1945/1/1 1946/2/1 1947/3/1
f 1945/1/1 1948/4/1 1946/2/1
f 1949/1/1 1950/2/1 1951/3/1
f 1949/1/1 1952/4/1 1950/2/1
f 1953/1/1 1954/2/1 1955/3/1
f 1953/1/1 1956/4/1 1954/2/1
f 1957/1/1 1958/2/1 1959/3/1
f 1957/1/1 1960/4/1 1958/2/1
f 1961/1/1 1962/2/1 1963/3/1
f 1961/1/1 1964/4/1 1962/2/1
f 1965/1/1 1966/2/1 1967/3/1
f 1965/1/1 1968/4/1 1966/2/1
f 1969/1/1 1970/2/1 1971/3/1
f 1969/1/1 1972/4/1 1970/2/1
f 1973/1/1 1974/2/1 1975/3/1
f 1973/1/1 1976/4/1 1974/2/1
f 1977/1/1 1978/2/1 1979/3/1
f 1977/1/1 1980/4/1 1978/2/1
f 1981/1/1 1982/2/1 1983/3/1
f 1981/1/1 1984/4/1 1982/2/1
f 1985/1/1 1986/2/1 1987/3/1
f 1985/1/1 1988/4/1 1986/2/1
f 1989/1/1 1990/2/1 1991/3/1
f 1989/1/1 1992/4/1 1990/2/1
f 1993/1/1 1994/2/1 1995/3/1
f 1993/1/1 1996/4/1 1994/2/1
f 1997/1/1 1998/2/1 1999/3/1
f 1997/1/1 2000/4/1 1998/2/1
f 2001/1/1 2002/2/1 2003/3/1
f 2001/1/1 2004/4/1 2002/2/1
f 2005/1/1 2006/2/1 2007/3/1
f 2005/1/1 2008/4/1 2006/2/1
f 2009/1/1 2010/2/1 2011/3/1
f 2009/1/1 2012/4/1 2010/2/1
f 2013/1/1 2014/2/1 2015/3/1
f 2013/1/1 2016/4/1 2014/2/1
f 2017/1/1 2018/2/1 2019/3/1
f 2017/1/1 2020/4/1 2018/2/1
f 2021/1/1 2022/2/1 2023/3/1
f 2021/1/1 2024/4/1 2022/2/1
f 2025/1/1 2026/2/1 2027/3/1
f 2025/1/1 2028/4/1 2026/2/1
f 2029/1/1 2030/2/1 2031/3/1
f 2029/1/1 2032/4/1 2030/2/1
f 2033/1/1 2034/2/1 2035/3/1
f 2033/1/1 2036/4/1 2034/2/1
f 2037/1/1 2038/2/1 2039/3/1
f 2037/1/1 2040/4/1 2038/2/1
f 2041/1/1 2042/2/1 2043/3/1
f 2041/1/1 2044/4/1 2042/2/1
f 2045/1/1 2046/2/1 2047/3/1
f 2045/1/1 2048/4/1 2046/2/1
f 2049/1/1 2050/2/1 2051/3/1
f 2049/1/1 2052/4/1 2050/2/1
f 2053/1/1 2054/2/1 2055/3/1
f 2053/1/1 2056/4/1 2054/2/1
f 2057/1/1 2058/2/1 2059/3/1
f 2057/1/1 2060/4/1 2058/2/1
f 2061/1/1 2062/2/1 2063/3/1
f 2061/1/1 2064/4/1 2062/2/1
f 2065/1/1 2066/2/1 2067/3/1
f 2065/1/1 2068/4/1 2066/2/1
f 2069/1/1 2070/2/1 2071/3/1
f 2069/1/1 2072/4/1 2070/2/1
f 2073/1/1 2074/2/1 2075/3/1
f 2073/1/1 2076/4/1 2074/2/1
f 2077/1/1 2078/2/1 2079/3/1
f 2077/1/1 2080/4/1 2078/2/1
f 2081/1/1 2082/2/1 2083/3/1
f 2081/1/1 2084/4/1 2082/2/1
f 2085/1/1 2086/2/1 2087/3/1
f 2085/1/1 2088/4/1 2086/2/1
f 2089/13/1 2090/11/1 2091/14/1
f 2089/13/1 2092/9/1 2090/11/1
f 2093/15/1 2094/16/1 2095/17/1
f 2093/15/1 2096/18/1 2094/16/1
f 2097/15/1 2098/16/1 2099/17/1
f 2097/15/1 2100/18/1 2098/16/1
f 2101/19/2 2102/20/2 2103/21/2
f 2101/19/2 2104/22/2 2102/20/2
f 2105/19/3 2106/20/3 2107/21/3
f 2105/19/3 2108/22/3 2106/20/3
f 2109/19/4 2110/20/4 2111/21/4
f 2109/19/4 2112/22/4 2110/20/4
f 2113/19/5 2114/20/5 2115/21/5
f 2113/19/5 2116/22/5 2114/20/5
f 2117/19/2 2118/20/2 2119/21/2
f 2117/19/2 2120/22/2 2118/20/2
f 2121/19/3 2122/20/3 2123/21/3
f 2121/19/3 2124/22/3 2122/20/3
f 2125/19/4 2126/20/4 2127/21/4
f 2125/19/4 2128/22/4 2126/20/4
f 2129/19/5 2130/20/5 2131/21/5
f 2129/19/5 2132/22/5 2130/20/5
f 2133/15/1 2134/16/1 2135/17/1
f 2133/15/1 2136/18/1 2134/16/1
f 2137/15/1 2138/23/1 2139/17/1
f 2137/15/1 2140/24/1 2138/23/1
f 2141/25/5 2142/19/5 2143/26/5
f 2141/25/5 2144/27/5 2142/19/5
f 2145/25/2 2146/19/2 2147/26/2
f 2145/25/2 2148/27/2 2146/19/2
f 2149/25/3 2150/19/3 2151/26/3
f 2149/25/3 2152/27/3 2150/19/3
f 2153/25/4 2154/19/4 2155/26/4
f 2153/25/4 2156/27/4 2154/19/4
f 2157/25/5 2158/19/5 2159/26/5
f 2157/25/5 2160/27/5 2158/19/5
f 2161/25/2 2162/19/2 2163/26/2
f 2161/25/2 2164/27/2 2162/19/2
f 2165/25/3 2166/19/3 2167/26/3
f 2165/25/3 2168/27/3 2166/19/3
f 2169/25/4 2170/19/4 2171/26/4
f 2169/25/4 2172/27/4 2170/19/4
f 2173/5/1 2174/6/1 2175/7/1
f 2173/5/1 2176/8/1 2174/6/1
f 2177/5/1 2178/6/1 2179/7/1
f 2177/5/1 2180/8/1 2178/6/1
f 2181/5/1 2182/6/1 2183/7/1
f 2181/5/1 2184/8/1 2182/6/1
f 2185/5/1 2186/6/1 2187/7/1
f 2185/5/1 2188/8/1 2186/6/1
f 2189/5/1 2190/6/1 2191/7/1
f 2189/5/1 2192/8/1 2190/6/1
f 2193/5/1 2194/6/1 2195/7/1
f 2193/5/1 2196/8/1 2194/6/1
f 2197/5/1 2198/6/1 2199/7/1
f 2197/5/1 2200/8/1 2198/6/1
f 2201/5/1 2202/6/1 2203/7/1
f 2201/5/1 2204/8/1 2202/6/1
f 2205/5/1 2206/6/1 2207/7/1
f 2205/5/1 2208/8/1 2206/6/1
f 2209/5/1 2210/6/1 2211/7/1
f 2209/5/1 2212/8/1 2210/6/1
f 2213/5/1 2214/6/1 2215/7/1
f 2213/5/1 2216/8/1 2214/6/1
f 2217/5/1 2218/6/1 2219/7/1
f 2217/5/1 2220/8/1 2218/6/1
f 2221/5/1 2222/6/1 2223/7/1
f 2221/5/1 2224/8/1 2222/6/1
f 2225/5/1 2226/6/1 2227/7/1
f 2225/5/1 2228/8/1 2226/6/1
f 2229/5/1 2230/6/1 2231/7/1
f 2229/5/1 2232/8/1 2230/6/1
f 2233/5/1 2234/6/1 2235/7/1
f 2233/5/1 2236/8/1 2234/6/1
f 2237/5/1 2238/6/1 2239/7/1
f 2237/5/1 2240/8/1 2238/6/1
f 2241/5/1 2242/6/1 2243/7/1
f 2241/5/1 2244/8/1 2242/6/1
f 2245/5/1 2246/6/1 2247/7/1
f 2245/5/1 2248/8/1 2246/6/1
f 2249/5/1 2250/6/1 2251/7/1
f 2249/5/1 2252/8/1 2250/6/1
f 2253/5/1 2254/6/1 2255/7/1
f 2253/5/1 2256/8/1 2254/6/1
f 2257/5/1 2258/6/1 2259/7/1
f 2257/5/1 2260/8/1 2258/6/1
f 2261/5/1 2262/6/1 2263/7/1
f 2261/5/1 2264/8/1 2262/6/1
f 2265/5/1 2266/6/1 2267/7/1
f 2265/5/1 2268/8/1 2266/6/1
f 2269/5/1 2270/6/1 2271/7/1
f 2269/5/1 2272/8/1 2270/6/1
f 2273/5/1 2274/6/1 2275/7/1
f 2273/5/1 2276/8/1 2274/6/1
f 2277/5/1 2278/6/1 2279/7/1
f 2277/5/1 2280/8/1 2278/6/1
f 2281/5/1 2282/6/1 2283/7/1
f 2281/5/1 2284/8/1 2282/6/1
f 2285/5/1 2286/6/1 2287/7/1
f 2285/5/1 2288/8/1 2286/6/1
f 2289/5/1 2290/6/1 2291/7/1
f 2289/5/1 2292/8/1 2290/6/1
f 2293/5/1 2294/6/1 2295/7/1
f 2293/5/1 2296/8/1 2294/6/1
f 2297/5/1 2298/6/1 2299/7/1
f 2297/5/1 2300/8/1 2298/6/1
f 2301/5/1 2302/6/1 2303/7/1
f 2301/5/1 2304/8/1 2302/6/1
f 2305/5/1 2306/6/1 2307/7/1
f 2305/5/1 2308/8/1 2306/6/1
