mtllib CeremonyRoom.mtl
o Default
v 0 0 0 1 1 1 1
v 0 0 -2 1 1 1 1
v 8 0 -2 1 1 1 1
v 8 0 0 1 1 1 1
v 0 0 -2 1 1 1 1
v 8 0 -4 1 1 1 1
v 0 0 -4 1 1 1 1
v 8 0 -2 1 1 1 1
v 0 0 -6 1 1 1 1
v 8 0 -8 1 1 1 1
v 0 0 -8 1 1 1 1
v 8 0 -6 1 1 1 1
v 0 0 -8 1 1 1 1
v 8 0 -10 1 1 1 1
v 0 0 -10 1 1 1 1
v 8 0 -8 1 1 1 1
v 0 0 -4 1 1 1 1
v 8 0 -6 1 1 1 1
v 0 0 -6 1 1 1 1
v 8 0 -4 1 1 1 1
v 8 0 -4 1 1 1 1
v 16 0 -6 1 1 1 1
v 8 0 -6 1 1 1 1
v 16 0 -4 1 1 1 1
v 8 0 -2 1 1 1 1
v 16 0 -4 1 1 1 1
v 8 0 -4 1 1 1 1
v 16 0 -2 1 1 1 1
v 8 0 0 1 1 1 1
v 16 0 -2 1 1 1 1
v 8 0 -2 1 1 1 1
v 16 0 0 1 1 1 1
v 8 0 -6 1 1 1 1
v 16 0 -8 1 1 1 1
v 8 0 -8 1 1 1 1
v 16 0 -6 1 1 1 1
v 28 0 -47.875 1 1 1 1
v 30 8 -47.875 1 1 1 1
v 28 8 -47.875 1 1 1 1
v 30 0 -47.875 1 1 1 1
v 40 12 -26 1 1 1 1
v 32 12 -28 1 1 1 1
v 40 12 -28 1 1 1 1
v 32 12 -26 1 1 1 1
v 40 12 -28 1 1 1 1
v 32 12 -30 1 1 1 1
v 40 12 -30 1 1 1 1
v 32 12 -28 1 1 1 1
v 8 0 -8 1 1 1 1
v 16 0 -10 1 1 1 1
v 8 0 -10 1 1 1 1
v 16 0 -8 1 1 1 1
v 26 0 -47.875 1 1 1 1
v 28 8 -47.875 1 1 1 1
v 26 8 -47.875 1 1 1 1
v 28 0 -47.875 1 1 1 1
v 40 12 -8 1 1 1 1
v 32 12 -10 1 1 1 1
v 40 12 -10 1 1 1 1
v 32 12 -8 1 1 1 1
v 32 0 0 1 1 1 1
v 40 0 -2 1 1 1 1
v 32 0 -2 1 1 1 1
v 40 0 0 1 1 1 1
v 32 0 -2 1 1 1 1
v 40 0 -4 1 1 1 1
v 32 0 -4 1 1 1 1
v 40 0 -2 1 1 1 1
v 32 0 -4 1 1 1 1
v 40 0 -6 1 1 1 1
v 32 0 -6 1 1 1 1
v 40 0 -4 1 1 1 1
v 32 0 -6 1 1 1 1
v 40 0 -8 1 1 1 1
v 32 0 -8 1 1 1 1
v 40 0 -6 1 1 1 1
v 32 0 -8 1 1 1 1
v 40 0 -10 1 1 1 1
v 32 0 -10 1 1 1 1
v 40 0 -8 1 1 1 1
v 32 0 -10 1 1 1 1
v 40 0 -12 1 1 1 1
v 32 0 -12 1 1 1 1
v 40 0 -10 1 1 1 1
v 32 0 -12 1 1 1 1
v 40 0 -14 1 1 1 1
v 32 0 -14 1 1 1 1
v 40 0 -12 1 1 1 1
v 24 0 -32 1 1 1 1
v 32 0 -34 1 1 1 1
v 24 0 -34 1 1 1 1
v 32 0 -32 1 1 1 1
v 40 12 0 1 1 1 1
v 32 12 -2 1 1 1 1
v 40 12 -2 1 1 1 1
v 32 12 0 1 1 1 1
v 32 0 -46.0625 1 1 1 1
v 40 0 -48.0625 1 1 1 1
v 32 0 -48.0625 1 1 1 1
v 40 0 -46.0625 1 1 1 1
v 32 0 -44.0625 1 1 1 1
v 40 0 -46.0625 1 1 1 1
v 32 0 -46.0625 1 1 1 1
v 40 0 -44.0625 1 1 1 1
v 16 0 -43.9375 1 1 1 1
v 8 0 -43.9375 1 1 1 1
v 16 0 -41.9375 1 1 1 1
v 8 0 -41.9375 1 1 1 1
v 8.125 0 -39.9375 1 1 1 1
v 16.125 0 -41.9375 1 1 1 1
v 8.125 0 -41.9375 1 1 1 1
v 16.125 0 -39.9375 1 1 1 1
v 8 12 -4 1 1 1 1
v 0 12 -6 1 1 1 1
v 8 12 -6 1 1 1 1
v 0 12 -4 1 1 1 1
v 16 12 -8 1 1 1 1
v 8 12 -10 1 1 1 1
v 16 12 -10 1 1 1 1
v 8 12 -8 1 1 1 1
v 24 0 -47.875 1 1 1 1
v 26 8 -47.875 1 1 1 1
v 24 8 -47.875 1 1 1 1
v 26 0 -47.875 1 1 1 1
v 32 0 -34 1 1 1 1
v 40 0 -36 1 1 1 1
v 32 0 -36 1 1 1 1
v 40 0 -34 1 1 1 1
v 32 0 -36 1 1 1 1
v 40 0 -38 1 1 1 1
v 32 0 -38 1 1 1 1
v 40 0 -36 1 1 1 1
v 32 0 -38 1 1 1 1
v 40 0 -40 1 1 1 1
v 32 0 -40 1 1 1 1
v 40 0 -38 1 1 1 1
v 24 0 -46.0625 1 1 1 1
v 32 0 -48.0625 1 1 1 1
v 24 0 -48.0625 1 1 1 1
v 32 0 -46.0625 1 1 1 1
v 8 0 -12 1 1 1 1
v 16 0 -14 1 1 1 1
v 8 0 -14 1 1 1 1
v 16 0 -12 1 1 1 1
v 8 0 -10 1 1 1 1
v 16 0 -12 1 1 1 1
v 8 0 -12 1 1 1 1
v 16 0 -10 1 1 1 1
v 0 0 -10 1 1 1 1
v 8 0 -12 1 1 1 1
v 0 0 -12 1 1 1 1
v 8 0 -10 1 1 1 1
v 0 0 -12 1 1 1 1
v 8 0 -14 1 1 1 1
v 0 0 -14 1 1 1 1
v 8 0 -12 1 1 1 1
v 32 12 -4 1 1 1 1
v 24 12 -6 1 1 1 1
v 32 12 -6 1 1 1 1
v 24 12 -4 1 1 1 1
v 32 0 -20 1 1 1 1
v 40 0 -22 1 1 1 1
v 32 0 -22 1 1 1 1
v 40 0 -20 1 1 1 1
v 8 12 -6 1 1 1 1
v 0 12 -8 1 1 1 1
v 8 12 -8 1 1 1 1
v 0 12 -6 1 1 1 1
v 32 0 -18 1 1 1 1
v 40 0 -20 1 1 1 1
v 32 0 -20 1 1 1 1
v 40 0 -18 1 1 1 1
v 8 12 -8 1 1 1 1
v 0 12 -10 1 1 1 1
v 8 12 -10 1 1 1 1
v 0 12 -8 1 1 1 1
v 8 12 -2 1 1 1 1
v 0 12 -4 1 1 1 1
v 8 12 -4 1 1 1 1
v 0 12 -2 1 1 1 1
v 8 12 0 1 1 1 1
v 0 12 -2 1 1 1 1
v 8 12 -2 1 1 1 1
v 0 12 0 1 1 1 1
v 16 12 0 1 1 1 1
v 8 12 -2 1 1 1 1
v 16 12 -2 1 1 1 1
v 8 12 0 1 1 1 1
v 22 0 -47.875 1 1 1 1
v 24 8 -47.875 1 1 1 1
v 22 8 -47.875 1 1 1 1
v 24 0 -47.875 1 1 1 1
v 20 8 -47.875 1 1 1 1
v 22 12 -47.875 1 1 1 1
v 20 12 -47.875 1 1 1 1
v 22 8 -47.875 1 1 1 1
v 16 12 -6 1 1 1 1
v 8 12 -8 1 1 1 1
v 16 12 -8 1 1 1 1
v 8 12 -6 1 1 1 1
v 16 12 -2 1 1 1 1
v 8 12 -4 1 1 1 1
v 16 12 -4 1 1 1 1
v 8 12 -2 1 1 1 1
v 16 12 -4 1 1 1 1
v 8 12 -6 1 1 1 1
v 16 12 -6 1 1 1 1
v 8 12 -4 1 1 1 1
v 32 0 -16 1 1 1 1
v 40 0 -18 1 1 1 1
v 32 0 -18 1 1 1 1
v 40 0 -16 1 1 1 1
v 18 8 -47.875 1 1 1 1
v 20 12 -47.875 1 1 1 1
v 18 12 -47.875 1 1 1 1
v 20 8 -47.875 1 1 1 1
v 40 12 -4 1 1 1 1
v 32 12 -6 1 1 1 1
v 40 12 -6 1 1 1 1
v 32 12 -4 1 1 1 1
v 40 0 -45.9375 1 1 1 1
v 40 12 -43.9375 1 1 1 1
v 40 12 -45.9375 1 1 1 1
v 40 0 -43.9375 1 1 1 1
v 0 0 0 1 1 1 1
v 0 8 -2 1 1 1 1
v 0 8 0 1 1 1 1
v 0 0 -2 1 1 1 1
v 0 0 -6 1 1 1 1
v 0 8 -8 1 1 1 1
v 0 8 -6 1 1 1 1
v 0 0 -8 1 1 1 1
v 0 0 -2 1 1 1 1
v 0 8 -4 1 1 1 1
v 0 8 -2 1 1 1 1
v 0 0 -4 1 1 1 1
v 0 0 -4 1 1 1 1
v 0 8 -6 1 1 1 1
v 0 8 -4 1 1 1 1
v 0 0 -6 1 1 1 1
v 0 8 0 1 1 1 1
v 0 12 -2 1 1 1 1
v 0 12 0 1 1 1 1
v 0 8 -2 1 1 1 1
v 0 8 -2 1 1 1 1
v 0 12 -4 1 1 1 1
v 0 12 -2 1 1 1 1
v 0 8 -4 1 1 1 1
v 0 8 -4 1 1 1 1
v 0 12 -6 1 1 1 1
v 0 12 -4 1 1 1 1
v 0 8 -6 1 1 1 1
v 0 8 -6 1 1 1 1
v 0 12 -8 1 1 1 1
v 0 12 -6 1 1 1 1
v 0 8 -8 1 1 1 1
v 0 0 -31.9375 1 1 1 1
v 0 12 -33.9375 1 1 1 1
v 0 12 -31.9375 1 1 1 1
v 0 0 -33.9375 1 1 1 1
v 30 8 0 1 1 1 1
v 28 12 0 1 1 1 1
v 30 12 0 1 1 1 1
v 28 8 0 1 1 1 1
v 32 8 0 1 1 1 1
v 30 12 0 1 1 1 1
v 32 12 0 1 1 1 1
v 30 8 0 1 1 1 1
v 28 8 0 1 1 1 1
v 26 12 0 1 1 1 1
v 28 12 0 1 1 1 1
v 26 8 0 1 1 1 1
v 32 0 0.0625 1 1 1 1
v 28 4 0.0625 1 1 1 1
v 32 4 0.0625 1 1 1 1
v 28 0 0.0625 1 1 1 1
v 20 8 0 1 1 1 1
v 18 12 0 1 1 1 1
v 20 12 0 1 1 1 1
v 18 8 0 1 1 1 1
v 32 4 0.0625 1 1 1 1
v 28 8 0.0625 1 1 1 1
v 32 8 0.0625 1 1 1 1
v 28 4 0.0625 1 1 1 1
v 12 0 0.0625 1 1 1 1
v 8 4 0.0625 1 1 1 1
v 12 4 0.0625 1 1 1 1
v 8 0 0.0625 1 1 1 1
v 0 8 -8 1 1 1 1
v 0 12 -10 1 1 1 1
v 0 12 -8 1 1 1 1
v 0 8 -10 1 1 1 1
v 0 8 -16 1 1 1 1
v 0 12 -18 1 1 1 1
v 0 12 -16 1 1 1 1
v 0 8 -18 1 1 1 1
v 0 8 -14 1 1 1 1
v 0 12 -16 1 1 1 1
v 0 12 -14 1 1 1 1
v 0 8 -16 1 1 1 1
v 12 4 0.0625 1 1 1 1
v 8 8 0.0625 1 1 1 1
v 12 8 0.0625 1 1 1 1
v 8 4 0.0625 1 1 1 1
v 0 8 -18 1 1 1 1
v 0 12 -20 1 1 1 1
v 0 12 -18 1 1 1 1
v 0 8 -20 1 1 1 1
v 0 8 -20 1 1 1 1
v 0 12 -22 1 1 1 1
v 0 12 -20 1 1 1 1
v 0 8 -22 1 1 1 1
v 0 8 -12 1 1 1 1
v 0 12 -14 1 1 1 1
v 0 12 -12 1 1 1 1
v 0 8 -14 1 1 1 1
v 0 8 -10 1 1 1 1
v 0 12 -12 1 1 1 1
v 0 12 -10 1 1 1 1
v 0 8 -12 1 1 1 1
v 40 0 -42 1 1 1 1
v 40 12 -40 1 1 1 1
v 40 12 -42 1 1 1 1
v 40 0 -40 1 1 1 1
v 40 12 -45.875 1 1 1 1
v 32 12 -47.875 1 1 1 1
v 40 12 -47.875 1 1 1 1
v 32 12 -45.875 1 1 1 1
v 0.0625 0 -45.9375 1 1 1 1
v 8.0625 0 -47.9375 1 1 1 1
v 0.0625 0 -47.9375 1 1 1 1
v 8.0625 0 -45.9375 1 1 1 1
v 40 0 -47.9375 1 1 1 1
v 40 12 -45.9375 1 1 1 1
v 40 12 -47.9375 1 1 1 1
v 40 0 -45.9375 1 1 1 1
v 40 0 -43.9375 1 1 1 1
v 40 12 -41.9375 1 1 1 1
v 40 12 -43.9375 1 1 1 1
v 40 0 -41.9375 1 1 1 1
v 32 12 -2 1 1 1 1
v 24 12 -4 1 1 1 1
v 32 12 -4 1 1 1 1
v 24 12 -2 1 1 1 1
v 0 0 -41.875 1 1 1 1
v 0 12 -43.875 1 1 1 1
v 0 12 -41.875 1 1 1 1
v 0 0 -43.875 1 1 1 1
v 0 0 -43.875 1 1 1 1
v 0 12 -45.875 1 1 1 1
v 0 12 -43.875 1 1 1 1
v 0 0 -45.875 1 1 1 1
v 0 8 -12 1 1 1 1
v 0 12 -14 1 1 1 1
v 0 12 -12 1 1 1 1
v 0 8 -14 1 1 1 1
v 0 8 -20 1 1 1 1
v 0 12 -22 1 1 1 1
v 0 12 -20 1 1 1 1
v 0 8 -22 1 1 1 1
v 0 8 -18 1 1 1 1
v 0 12 -20 1 1 1 1
v 0 12 -18 1 1 1 1
v 0 8 -20 1 1 1 1
v 0 8 -21.9375 1 1 1 1
v 0 12 -23.9375 1 1 1 1
v 0 12 -21.9375 1 1 1 1
v 0 8 -23.9375 1 1 1 1
v 0 8 -14 1 1 1 1
v 0 12 -16 1 1 1 1
v 0 12 -14 1 1 1 1
v 0 8 -16 1 1 1 1
v 0 8 -16 1 1 1 1
v 0 12 -18 1 1 1 1
v 0 12 -16 1 1 1 1
v 0 8 -18 1 1 1 1
v 0 0 -23.9375 1 1 1 1
v 0 8 -25.9375 1 1 1 1
v 0 8 -23.9375 1 1 1 1
v 0 0 -25.9375 1 1 1 1
v 0 0 -25.9375 1 1 1 1
v 0 8 -27.9375 1 1 1 1
v 0 8 -25.9375 1 1 1 1
v 0 0 -27.9375 1 1 1 1
v 0 0 -27.9375 1 1 1 1
v 0 8 -29.9375 1 1 1 1
v 0 8 -27.9375 1 1 1 1
v 0 0 -29.9375 1 1 1 1
v 0 8 -23.9375 1 1 1 1
v 0 12 -25.9375 1 1 1 1
v 0 12 -23.9375 1 1 1 1
v 0 8 -25.9375 1 1 1 1
v 0 8 -25.9375 1 1 1 1
v 0 12 -27.9375 1 1 1 1
v 0 12 -25.9375 1 1 1 1
v 0 8 -27.9375 1 1 1 1
v 0 8 -27.9375 1 1 1 1
v 0 12 -29.9375 1 1 1 1
v 0 12 -27.9375 1 1 1 1
v 0 8 -29.9375 1 1 1 1
v 0 0 -29.9375 1 1 1 1
v 0 8 -31.9375 1 1 1 1
v 0 8 -29.9375 1 1 1 1
v 0 0 -31.9375 1 1 1 1
v 0 8 -29.9375 1 1 1 1
v 0 12 -31.9375 1 1 1 1
v 0 12 -29.9375 1 1 1 1
v 0 8 -31.9375 1 1 1 1
v 0 8 -10 1 1 1 1
v 0 12 -12 1 1 1 1
v 0 12 -10 1 1 1 1
v 0 8 -12 1 1 1 1
v 0 8 -8 1 1 1 1
v 0 12 -10 1 1 1 1
v 0 12 -8 1 1 1 1
v 0 8 -10 1 1 1 1
v 0 8 -6 1 1 1 1
v 0 12 -8 1 1 1 1
v 0 12 -6 1 1 1 1
v 0 8 -8 1 1 1 1
v 0 8 -4 1 1 1 1
v 0 12 -6 1 1 1 1
v 0 12 -4 1 1 1 1
v 0 8 -6 1 1 1 1
v 0 8 -2 1 1 1 1
v 0 12 -4 1 1 1 1
v 0 12 -2 1 1 1 1
v 0 8 -4 1 1 1 1
v 0 8 0 1 1 1 1
v 0 12 -2 1 1 1 1
v 0 12 0 1 1 1 1
v 0 8 -2 1 1 1 1
v 0 0 -4 1 1 1 1
v 0 8 -6 1 1 1 1
v 0 8 -4 1 1 1 1
v 0 0 -6 1 1 1 1
v 0 0 -2 1 1 1 1
v 0 8 -4 1 1 1 1
v 0 8 -2 1 1 1 1
v 0 0 -4 1 1 1 1
v 0 0 -6 1 1 1 1
v 0 8 -8 1 1 1 1
v 0 8 -6 1 1 1 1
v 0 0 -8 1 1 1 1
v 0 0 0 1 1 1 1
v 0 8 -2 1 1 1 1
v 0 8 0 1 1 1 1
v 0 0 -2 1 1 1 1
v 16 0 -6 1 1 1 1
v 24 0 -8 1 1 1 1
v 16 0 -8 1 1 1 1
v 24 0 -6 1 1 1 1
v 12 8 0 1 1 1 1
v 10 12 0 1 1 1 1
v 12 12 0 1 1 1 1
v 10 8 0 1 1 1 1
v 14 8 0 1 1 1 1
v 12 12 0 1 1 1 1
v 14 12 0 1 1 1 1
v 12 8 0 1 1 1 1
v 10 8 0 1 1 1 1
v 8 12 0 1 1 1 1
v 10 12 0 1 1 1 1
v 8 8 0 1 1 1 1
v 16 0 -2 1 1 1 1
v 24 0 -4 1 1 1 1
v 16 0 -4 1 1 1 1
v 24 0 -2 1 1 1 1
v 16 8 0 1 1 1 1
v 14 12 0 1 1 1 1
v 16 12 0 1 1 1 1
v 14 8 0 1 1 1 1
v 8 0 0 1 1 1 1
v 6 8 0 1 1 1 1
v 8 8 0 1 1 1 1
v 6 0 0 1 1 1 1
v 6 0 0 1 1 1 1
v 4 8 0 1 1 1 1
v 6 8 0 1 1 1 1
v 4 0 0 1 1 1 1
v 4 0 0 1 1 1 1
v 2 8 0 1 1 1 1
v 4 8 0 1 1 1 1
v 2 0 0 1 1 1 1
v 8 8 0 1 1 1 1
v 6 12 0 1 1 1 1
v 8 12 0 1 1 1 1
v 6 8 0 1 1 1 1
v 6 8 0 1 1 1 1
v 4 12 0 1 1 1 1
v 6 12 0 1 1 1 1
v 4 8 0 1 1 1 1
v 4 8 0 1 1 1 1
v 2 12 0 1 1 1 1
v 4 12 0 1 1 1 1
v 2 8 0 1 1 1 1
v 2 0 0 1 1 1 1
v 0 8 0 1 1 1 1
v 2 8 0 1 1 1 1
v 0 0 0 1 1 1 1
v 2 8 0 1 1 1 1
v 0 12 0 1 1 1 1
v 2 12 0 1 1 1 1
v 0 8 0 1 1 1 1
v 16 0 -4 1 1 1 1
v 24 0 -6 1 1 1 1
v 16 0 -6 1 1 1 1
v 24 0 -4 1 1 1 1
v 16 0 -8 1 1 1 1
v 24 0 -10 1 1 1 1
v 16 0 -10 1 1 1 1
v 24 0 -8 1 1 1 1
v 34 8 0 1 1 1 1
v 32 12 0 1 1 1 1
v 34 12 0 1 1 1 1
v 32 8 0 1 1 1 1
v 36 8 0 1 1 1 1
v 34 12 0 1 1 1 1
v 36 12 0 1 1 1 1
v 34 8 0 1 1 1 1
v 38 8 0 1 1 1 1
v 36 12 0 1 1 1 1
v 38 12 0 1 1 1 1
v 36 8 0 1 1 1 1
v 40 8 0 1 1 1 1
v 38 12 0 1 1 1 1
v 40 12 0 1 1 1 1
v 38 8 0 1 1 1 1
v 36 0 0 1 1 1 1
v 34 8 0 1 1 1 1
v 36 8 0 1 1 1 1
v 34 0 0 1 1 1 1
v 38 0 0 1 1 1 1
v 36 8 0 1 1 1 1
v 38 8 0 1 1 1 1
v 36 0 0 1 1 1 1
v 34 0 0 1 1 1 1
v 32 8 0 1 1 1 1
v 34 8 0 1 1 1 1
v 32 0 0 1 1 1 1
v 40 0 0 1 1 1 1
v 38 8 0 1 1 1 1
v 40 8 0 1 1 1 1
v 38 0 0 1 1 1 1
v 0 0 -8 1 1 1 1
v 0 8 -10 1 1 1 1
v 0 8 -8 1 1 1 1
v 0 0 -10 1 1 1 1
v 0 0 -16 1 1 1 1
v 0 8 -18 1 1 1 1
v 0 8 -16 1 1 1 1
v 0 0 -18 1 1 1 1
v 0 0 -22 1 1 1 1
v 0 8 -24 1 1 1 1
v 0 8 -22 1 1 1 1
v 0 0 -24 1 1 1 1
v 0 0 -14 1 1 1 1
v 0 8 -16 1 1 1 1
v 0 8 -14 1 1 1 1
v 0 0 -16 1 1 1 1
v 0 0 -20 1 1 1 1
v 0 8 -22 1 1 1 1
v 0 8 -20 1 1 1 1
v 0 0 -22 1 1 1 1
v 0 0 -18 1 1 1 1
v 0 8 -20 1 1 1 1
v 0 8 -18 1 1 1 1
v 0 0 -20 1 1 1 1
v 0 0 -12 1 1 1 1
v 0 8 -14 1 1 1 1
v 0 8 -12 1 1 1 1
v 0 0 -14 1 1 1 1
v 0 0 -10 1 1 1 1
v 0 8 -12 1 1 1 1
v 0 8 -10 1 1 1 1
v 0 0 -12 1 1 1 1
v 32 12 0 1 1 1 1
v 24 12 -2 1 1 1 1
v 32 12 -2 1 1 1 1
v 24 12 0 1 1 1 1
v 32 12 -6 1 1 1 1
v 24 12 -8 1 1 1 1
v 32 12 -8 1 1 1 1
v 24 12 -6 1 1 1 1
v 24 0 -10 1 1 1 1
v 32 0 -12 1 1 1 1
v 24 0 -12 1 1 1 1
v 32 0 -10 1 1 1 1
v 24 0 -12 1 1 1 1
v 32 0 -14 1 1 1 1
v 24 0 -14 1 1 1 1
v 32 0 -12 1 1 1 1
v 24 0 0 1 1 1 1
v 32 0 -2 1 1 1 1
v 24 0 -2 1 1 1 1
v 32 0 0 1 1 1 1
v 24 0 -6 1 1 1 1
v 32 0 -8 1 1 1 1
v 24 0 -8 1 1 1 1
v 32 0 -6 1 1 1 1
v 24 0 -2 1 1 1 1
v 32 0 -4 1 1 1 1
v 24 0 -4 1 1 1 1
v 32 0 -2 1 1 1 1
v 24 0 -4 1 1 1 1
v 32 0 -6 1 1 1 1
v 24 0 -6 1 1 1 1
v 32 0 -4 1 1 1 1
v 24 0 -8 1 1 1 1
v 32 0 -10 1 1 1 1
v 24 0 -10 1 1 1 1
v 32 0 -8 1 1 1 1
v 24 12 -40 1 1 1 1
v 16 12 -42 1 1 1 1
v 24 12 -42 1 1 1 1
v 16 12 -39.1875 1 1 1 1
v 24 12 -38 1 1 1 1
v 16 12 -39.1875 1 1 1 1
v 24 12 -40 1 1 1 1
v 16 12 -38 1 1 1 1
v 24 12 -36 1 1 1 1
v 16 12 -38 1 1 1 1
v 24 12 -38 1 1 1 1
v 16 12 -36 1 1 1 1
v 24 12 -34 1 1 1 1
v 16 12 -36 1 1 1 1
v 24 12 -36 1 1 1 1
v 16 12 -34 1 1 1 1
v 24 12 -32 1 1 1 1
v 16 12 -34 1 1 1 1
v 24 12 -34 1 1 1 1
v 16 12 -32 1 1 1 1
v 16 0 -39.9375 1 1 1 1
v 24 0 -41.9375 1 1 1 1
v 16 0 -41.9375 1 1 1 1
v 24 0 -39.9375 1 1 1 1
v 24 12 -43.875 1 1 1 1
v 16 12 -45.875 1 1 1 1
v 24 12 -45.875 1 1 1 1
v 16 12 -43.875 1 1 1 1
v 24 12 -42 1 1 1 1
v 16 12 -44 1 1 1 1
v 24 12 -44 1 1 1 1
v 16 12 -42 1 1 1 1
v 24 12 -8 1 1 1 1
v 16 12 -10 1 1 1 1
v 24 12 -10 1 1 1 1
v 16 12 -8 1 1 1 1
v 24 12 -28 1 1 1 1
v 16 12 -30 1 1 1 1
v 24 12 -30 1 1 1 1
v 16 12 -28 1 1 1 1
v 24 12 -26 1 1 1 1
v 16 12 -28 1 1 1 1
v 24 12 -28 1 1 1 1
v 16 12 -26 1 1 1 1
v 24 12 -18 1 1 1 1
v 16 12 -20 1 1 1 1
v 24 12 -20 1 1 1 1
v 16 12 -18 1 1 1 1
v 24 12 -16 1 1 1 1
v 16 12 -18 1 1 1 1
v 24 12 -18 1 1 1 1
v 16 12 -16 1 1 1 1
v 24 12 -14 1 1 1 1
v 16 12 -16 1 1 1 1
v 24 12 -16 1 1 1 1
v 16 12 -14 1 1 1 1
v 24 12 -12 1 1 1 1
v 16 12 -14 1 1 1 1
v 24 12 -14 1 1 1 1
v 16 12 -12 1 1 1 1
v 24 12 -10 1 1 1 1
v 16 12 -12 1 1 1 1
v 24 12 -12 1 1 1 1
v 16 12 -10 1 1 1 1
v 24 12 -24 1 1 1 1
v 16 12 -26 1 1 1 1
v 24 12 -26 1 1 1 1
v 16 12 -24 1 1 1 1
v 24 12 -22 1 1 1 1
v 16 12 -24 1 1 1 1
v 24 12 -24 1 1 1 1
v 16 12 -22 1 1 1 1
v 24 12 -20 1 1 1 1
v 16 12 -22 1 1 1 1
v 24 12 -22 1 1 1 1
v 16 12 -20 1 1 1 1
v 16 0 -18 1 1 1 1
v 24 0 -20 1 1 1 1
v 16 0 -20 1 1 1 1
v 24 0 -18 1 1 1 1
v 16 0 -16 1 1 1 1
v 24 0 -18 1 1 1 1
v 16 0 -18 1 1 1 1
v 24 0 -16 1 1 1 1
v 16 0 -14 1 1 1 1
v 24 0 -16 1 1 1 1
v 16 0 -16 1 1 1 1
v 24 0 -14 1 1 1 1
v 16 0 -20 1 1 1 1
v 24 0 -22 1 1 1 1
v 16 0 -22 1 1 1 1
v 24 0 -20 1 1 1 1
v 24 12 -45.875 1 1 1 1
v 16 12 -47.875 1 1 1 1
v 24 12 -47.875 1 1 1 1
v 16 12 -45.875 1 1 1 1
v 16 0 -34 1 1 1 1
v 24 0 -36 1 1 1 1
v 16 0 -36 1 1 1 1
v 24 0 -34 1 1 1 1
v 24 12 -30 1 1 1 1
v 16 12 -32 1 1 1 1
v 24 12 -32 1 1 1 1
v 16 12 -30 1 1 1 1
v 16 0 -24 1 1 1 1
v 24 0 -26 1 1 1 1
v 16 0 -26 1 1 1 1
v 24 0 -24 1 1 1 1
v 16 0 -26 1 1 1 1
v 24 0 -28 1 1 1 1
v 16 0 -28 1 1 1 1
v 24 0 -26 1 1 1 1
v 16 0 -22 1 1 1 1
v 24 0 -24 1 1 1 1
v 16 0 -24 1 1 1 1
v 24 0 -22 1 1 1 1
v 24 0 -44.0625 1 1 1 1
v 16 0 -44.0625 1 1 1 1
v 24 0 -41.9375 1 1 1 1
v 16 0 -41.9375 1 1 1 1
v 16 0 0 1 1 1 1
v 24 0 -2 1 1 1 1
v 16 0 -2 1 1 1 1
v 24 0 0 1 1 1 1
v 16 0 -44.0625 1 1 1 1
v 24 0 -46.0625 1 1 1 1
v 16 0 -46.0625 1 1 1 1
v 24 0 -44.0625 1 1 1 1
v 16 0 -36 1 1 1 1
v 24 0 -38 1 1 1 1
v 16 0 -38 1 1 1 1
v 24 0 -36 1 1 1 1
v 22 8 0 1 1 1 1
v 20 12 0 1 1 1 1
v 22 12 0 1 1 1 1
v 20 8 0 1 1 1 1
v 16 0 -38 1 1 1 1
v 24 0 -40 1 1 1 1
v 16 0 -40 1 1 1 1
v 24 0 -38 1 1 1 1
v 16 0 -28 1 1 1 1
v 24 0 -30 1 1 1 1
v 16 0 -30 1 1 1 1
v 24 0 -28 1 1 1 1
v 16 0 -30 1 1 1 1
v 24 0 -32 1 1 1 1
v 16 0 -32 1 1 1 1
v 24 0 -30 1 1 1 1
v 16 0 -32 1 1 1 1
v 24 0 -34 1 1 1 1
v 16 0 -34 1 1 1 1
v 24 0 -32 1 1 1 1
v 16 0 -46.0625 1 1 1 1
v 24 0 -48.0625 1 1 1 1
v 16 0 -48.0625 1 1 1 1
v 24 0 -46.0625 1 1 1 1
v 24 12 -4 1 1 1 1
v 16 12 -6 1 1 1 1
v 24 12 -6 1 1 1 1
v 16 12 -4 1 1 1 1
v 18 8 0 1 1 1 1
v 16 12 0 1 1 1 1
v 18 12 0 1 1 1 1
v 16 8 0 1 1 1 1
v 16 0 -12 1 1 1 1
v 24 0 -14 1 1 1 1
v 16 0 -14 1 1 1 1
v 24 0 -12 1 1 1 1
v 24 12 -2 1 1 1 1
v 16 12 -4 1 1 1 1
v 24 12 -4 1 1 1 1
v 16 12 -2 1 1 1 1
v 24 8 0 1 1 1 1
v 22 12 0 1 1 1 1
v 24 12 0 1 1 1 1
v 22 8 0 1 1 1 1
v 24 12 0 1 1 1 1
v 16 12 -2 1 1 1 1
v 24 12 -2 1 1 1 1
v 16 12 0 1 1 1 1
v 24 12 -6 1 1 1 1
v 16 12 -8 1 1 1 1
v 24 12 -8 1 1 1 1
v 16 12 -6 1 1 1 1
v 16 0 -10 1 1 1 1
v 24 0 -12 1 1 1 1
v 16 0 -12 1 1 1 1
v 24 0 -10 1 1 1 1
v 10 0 -47.875 1 1 1 1
v 12 8 -47.875 1 1 1 1
v 10 8 -47.875 1 1 1 1
v 12 0 -47.875 1 1 1 1
v 16 12 -38 1 1 1 1
v 8 12 -40 1 1 1 1
v 16 12 -39.1875 1 1 1 1
v 8 12 -38 1 1 1 1
v 16 12 -39.1875 1 1 1 1
v 8 12 -42 1 1 1 1
v 16 12 -42 1 1 1 1
v 8 12 -40 1 1 1 1
v 12 0 -47.875 1 1 1 1
v 14 8 -47.875 1 1 1 1
v 12 8 -47.875 1 1 1 1
v 14 0 -47.875 1 1 1 1
v 8 12 -42 1 1 1 1
v 0 12 -44 1 1 1 1
v 8 12 -44 1 1 1 1
v 0 12 -42 1 1 1 1
v 14 0 -47.875 1 1 1 1
v 16 8 -47.875 1 1 1 1
v 14 8 -47.875 1 1 1 1
v 16 0 -47.875 1 1 1 1
v 38 8 -47.875 1 1 1 1
v 40 12 -47.875 1 1 1 1
v 38 12 -47.875 1 1 1 1
v 40 8 -47.875 1 1 1 1
v 38 0 -47.875 1 1 1 1
v 40 8 -47.875 1 1 1 1
v 38 8 -47.875 1 1 1 1
v 40 0 -47.875 1 1 1 1
v 36 8 -47.875 1 1 1 1
v 38 12 -47.875 1 1 1 1
v 36 12 -47.875 1 1 1 1
v 38 8 -47.875 1 1 1 1
v 34 8 -47.875 1 1 1 1
v 36 12 -47.875 1 1 1 1
v 34 12 -47.875 1 1 1 1
v 36 8 -47.875 1 1 1 1
v 32 8 -47.875 1 1 1 1
v 34 12 -47.875 1 1 1 1
v 32 12 -47.875 1 1 1 1
v 34 8 -47.875 1 1 1 1
v 36 0 -47.875 1 1 1 1
v 38 8 -47.875 1 1 1 1
v 36 8 -47.875 1 1 1 1
v 38 0 -47.875 1 1 1 1
v 34 0 -47.875 1 1 1 1
v 36 8 -47.875 1 1 1 1
v 34 8 -47.875 1 1 1 1
v 36 0 -47.875 1 1 1 1
v 32 0 -47.875 1 1 1 1
v 34 8 -47.875 1 1 1 1
v 32 8 -47.875 1 1 1 1
v 34 0 -47.875 1 1 1 1
v 8 12 -40 1 1 1 1
v 0 12 -42 1 1 1 1
v 8 12 -42 1 1 1 1
v 0 12 -40 1 1 1 1
v 14 8 -47.875 1 1 1 1
v 16 12 -47.875 1 1 1 1
v 14 12 -47.875 1 1 1 1
v 16 8 -47.875 1 1 1 1
v 8 12 -38 1 1 1 1
v 0 12 -40 1 1 1 1
v 8 12 -40 1 1 1 1
v 0 12 -38 1 1 1 1
v 8 12 -36 1 1 1 1
v 0 12 -38 1 1 1 1
v 8 12 -38 1 1 1 1
v 0 12 -36 1 1 1 1
v 8 12 -34 1 1 1 1
v 0 12 -36 1 1 1 1
v 8 12 -36 1 1 1 1
v 0 12 -34 1 1 1 1
v 12 8 -47.875 1 1 1 1
v 14 12 -47.875 1 1 1 1
v 12 12 -47.875 1 1 1 1
v 14 8 -47.875 1 1 1 1
v 40 12 -43.875 1 1 1 1
v 32 12 -45.875 1 1 1 1
v 40 12 -45.875 1 1 1 1
v 32 12 -43.875 1 1 1 1
v 40 12 -42 1 1 1 1
v 32 12 -44 1 1 1 1
v 40 12 -44 1 1 1 1
v 32 12 -42 1 1 1 1
v 0 0 -28 1 1 1 1
v 8 0 -30 1 1 1 1
v 0 0 -30 1 1 1 1
v 8 0 -28 1 1 1 1
v 0 0 -36 1 1 1 1
v 8 0 -38 1 1 1 1
v 0 0 -38 1 1 1 1
v 8 0 -36 1 1 1 1
v 8 0 -28 1 1 1 1
v 16 0 -30 1 1 1 1
v 8 0 -30 1 1 1 1
v 16 0 -28 1 1 1 1
v 40 12 -40 1 1 1 1
v 32 12 -42 1 1 1 1
v 40 12 -42 1 1 1 1
v 32 12 -40 1 1 1 1
v 8 12 -32 1 1 1 1
v 0 12 -34 1 1 1 1
v 8 12 -34 1 1 1 1
v 0 12 -32 1 1 1 1
v 32 0 -39.9375 1 1 1 1
v 40 0 -41.9375 1 1 1 1
v 32 0 -41.9375 1 1 1 1
v 40 0 -39.9375 1 1 1 1
v 0 0 -34 1 1 1 1
v 8 0 -36 1 1 1 1
v 0 0 -36 1 1 1 1
v 8 0 -34 1 1 1 1
v 8 0 -36 1 1 1 1
v 16 0 -38 1 1 1 1
v 8 0 -38 1 1 1 1
v 16 0 -36 1 1 1 1
v 0 0 -38 1 1 1 1
v 8 0 -40 1 1 1 1
v 0 0 -40 1 1 1 1
v 8 0 -38 1 1 1 1
v 8 0 -38 1 1 1 1
v 16 0 -40 1 1 1 1
v 8 0 -40 1 1 1 1
v 16 0 -38 1 1 1 1
v 0.125 0 -41.9375 1 1 1 1
v 8.125 0 -43.9375 1 1 1 1
v 0.125 0 -43.9375 1 1 1 1
v 8.125 0 -41.9375 1 1 1 1
v 40 12 -38 1 1 1 1
v 32 12 -40 1 1 1 1
v 40 12 -40 1 1 1 1
v 32 12 -38 1 1 1 1
v 8 0 -47.875 1 1 1 1
v 10 8 -47.875 1 1 1 1
v 8 8 -47.875 1 1 1 1
v 10 0 -47.875 1 1 1 1
v 0 0 -35.9375 1 1 1 1
v 0 12 -37.9375 1 1 1 1
v 0 12 -35.9375 1 1 1 1
v 0 0 -37.9375 1 1 1 1
v 40 0 -44.0625 1 1 1 1
v 32 0 -44.0625 1 1 1 1
v 40 0 -41.9375 1 1 1 1
v 32 0 -41.9375 1 1 1 1
v 6 0 -47.875 1 1 1 1
v 8 8 -47.875 1 1 1 1
v 6 8 -47.875 1 1 1 1
v 8 0 -47.875 1 1 1 1
v 2 0 -47.875 1 1 1 1
v 4 8 -47.875 1 1 1 1
v 2 8 -47.875 1 1 1 1
v 4 0 -47.875 1 1 1 1
v 4 0 -47.875 1 1 1 1
v 6 8 -47.875 1 1 1 1
v 4 8 -47.875 1 1 1 1
v 6 0 -47.875 1 1 1 1
v 0.0625 0 -43.9375 1 1 1 1
v 8.0625 0 -45.9375 1 1 1 1
v 0.0625 0 -45.9375 1 1 1 1
v 8.0625 0 -43.9375 1 1 1 1
v 2 8 -47.875 1 1 1 1
v 4 12 -47.875 1 1 1 1
v 2 12 -47.875 1 1 1 1
v 4 8 -47.875 1 1 1 1
v 4 8 -47.875 1 1 1 1
v 6 12 -47.875 1 1 1 1
v 4 12 -47.875 1 1 1 1
v 6 8 -47.875 1 1 1 1
v 6 8 -47.875 1 1 1 1
v 8 12 -47.875 1 1 1 1
v 6 12 -47.875 1 1 1 1
v 8 8 -47.875 1 1 1 1
v 8 8 -47.875 1 1 1 1
v 10 12 -47.875 1 1 1 1
v 8 12 -47.875 1 1 1 1
v 10 8 -47.875 1 1 1 1
v 10 8 -47.875 1 1 1 1
v 12 12 -47.875 1 1 1 1
v 10 12 -47.875 1 1 1 1
v 12 8 -47.875 1 1 1 1
v 8 0 -32 1 1 1 1
v 16 0 -34 1 1 1 1
v 8 0 -34 1 1 1 1
v 16 0 -32 1 1 1 1
v 0 0 -32 1 1 1 1
v 8 0 -34 1 1 1 1
v 0 0 -34 1 1 1 1
v 8 0 -32 1 1 1 1
v 8 0 -30 1 1 1 1
v 16 0 -32 1 1 1 1
v 8 0 -32 1 1 1 1
v 16 0 -30 1 1 1 1
v 0 0 -30 1 1 1 1
v 8 0 -32 1 1 1 1
v 0 0 -32 1 1 1 1
v 8 0 -30 1 1 1 1
v 40 12 -30 1 1 1 1
v 32 12 -32 1 1 1 1
v 40 12 -32 1 1 1 1
v 32 12 -30 1 1 1 1
v 0 0 -37.9375 1 1 1 1
v 0 12 -39.9375 1 1 1 1
v 0 12 -37.9375 1 1 1 1
v 0 0 -39.9375 1 1 1 1
v 0 0 -39.9375 1 1 1 1
v 0 12 -41.9375 1 1 1 1
v 0 12 -39.9375 1 1 1 1
v 0 0 -41.9375 1 1 1 1
v 0 0 -47.875 1 1 1 1
v 2 8 -47.875 1 1 1 1
v 0 8 -47.875 1 1 1 1
v 2 0 -47.875 1 1 1 1
v 40 12 -36 1 1 1 1
v 32 12 -38 1 1 1 1
v 40 12 -38 1 1 1 1
v 32 12 -36 1 1 1 1
v 0 8 -47.875 1 1 1 1
v 2 12 -47.875 1 1 1 1
v 0 12 -47.875 1 1 1 1
v 2 8 -47.875 1 1 1 1
v 0 0 -45.875 1 1 1 1
v 0 12 -47.875 1 1 1 1
v 0 12 -45.875 1 1 1 1
v 0 0 -47.875 1 1 1 1
v 40 12 -34 1 1 1 1
v 32 12 -36 1 1 1 1
v 40 12 -36 1 1 1 1
v 32 12 -34 1 1 1 1
v 8.0625 0 -45.9375 1 1 1 1
v 16.0625 0 -47.9375 1 1 1 1
v 8.0625 0 -47.9375 1 1 1 1
v 16.0625 0 -45.9375 1 1 1 1
v 8.0625 0 -43.9375 1 1 1 1
v 16.0625 0 -45.9375 1 1 1 1
v 8.0625 0 -45.9375 1 1 1 1
v 16.0625 0 -43.9375 1 1 1 1
v 40 12 -32 1 1 1 1
v 32 12 -34 1 1 1 1
v 40 12 -34 1 1 1 1
v 32 12 -32 1 1 1 1
v 32 0 -14 1 1 1 1
v 40 0 -16 1 1 1 1
v 32 0 -16 1 1 1 1
v 40 0 -14 1 1 1 1
v 40 12 -6 1 1 1 1
v 32 12 -8 1 1 1 1
v 40 12 -8 1 1 1 1
v 32 12 -6 1 1 1 1
v 40 12 -2 1 1 1 1
v 32 12 -4 1 1 1 1
v 40 12 -4 1 1 1 1
v 32 12 -2 1 1 1 1
v 16 12 -30 1 1 1 1
v 8 12 -32 1 1 1 1
v 16 12 -32 1 1 1 1
v 8 12 -30 1 1 1 1
v 32 0 -30 1 1 1 1
v 40 0 -32 1 1 1 1
v 32 0 -32 1 1 1 1
v 40 0 -30 1 1 1 1
v 32 0 -28 1 1 1 1
v 40 0 -30 1 1 1 1
v 32 0 -30 1 1 1 1
v 40 0 -28 1 1 1 1
v 22 8 -47.875 1 1 1 1
v 24 12 -47.875 1 1 1 1
v 22 12 -47.875 1 1 1 1
v 24 8 -47.875 1 1 1 1
v 0 0 -24 1 1 1 1
v 8 0 -26 1 1 1 1
v 0 0 -26 1 1 1 1
v 8 0 -24 1 1 1 1
v 32 0 -22 1 1 1 1
v 40 0 -24 1 1 1 1
v 32 0 -24 1 1 1 1
v 40 0 -22 1 1 1 1
v 8 0 -20 1 1 1 1
v 16 0 -22 1 1 1 1
v 8 0 -22 1 1 1 1
v 16 0 -20 1 1 1 1
v 8 0 -22 1 1 1 1
v 16 0 -24 1 1 1 1
v 8 0 -24 1 1 1 1
v 16 0 -22 1 1 1 1
v 0 0 -22 1 1 1 1
v 8 0 -24 1 1 1 1
v 0 0 -24 1 1 1 1
v 8 0 -22 1 1 1 1
v 8 0 -26 1 1 1 1
v 16 0 -28 1 1 1 1
v 8 0 -28 1 1 1 1
v 16 0 -26 1 1 1 1
v 0 0 -20 1 1 1 1
v 8 0 -22 1 1 1 1
v 0 0 -22 1 1 1 1
v 8 0 -20 1 1 1 1
v 0 0 -18 1 1 1 1
v 8 0 -20 1 1 1 1
v 0 0 -20 1 1 1 1
v 8 0 -18 1 1 1 1
v 0 0 -16 1 1 1 1
v 8 0 -18 1 1 1 1
v 0 0 -18 1 1 1 1
v 8 0 -16 1 1 1 1
v 8 0 -24 1 1 1 1
v 16 0 -26 1 1 1 1
v 8 0 -26 1 1 1 1
v 16 0 -24 1 1 1 1
v 0 0 -26 1 1 1 1
v 8 0 -28 1 1 1 1
v 0 0 -28 1 1 1 1
v 8 0 -26 1 1 1 1
v 16 8 -47.875 1 1 1 1
v 18 12 -47.875 1 1 1 1
v 16 12 -47.875 1 1 1 1
v 18 8 -47.875 1 1 1 1
v 32 0 -26 1 1 1 1
v 40 0 -28 1 1 1 1
v 32 0 -28 1 1 1 1
v 40 0 -26 1 1 1 1
v 32 0 -24 1 1 1 1
v 40 0 -26 1 1 1 1
v 32 0 -26 1 1 1 1
v 40 0 -24 1 1 1 1
v 20 0 -47.875 1 1 1 1
v 22 8 -47.875 1 1 1 1
v 20 8 -47.875 1 1 1 1
v 22 0 -47.875 1 1 1 1
v 18 0 -47.875 1 1 1 1
v 20 8 -47.875 1 1 1 1
v 18 8 -47.875 1 1 1 1
v 20 0 -47.875 1 1 1 1
v 8 12 -30 1 1 1 1
v 0 12 -32 1 1 1 1
v 8 12 -32 1 1 1 1
v 0 12 -30 1 1 1 1
v 26 8 0 1 1 1 1
v 24 12 0 1 1 1 1
v 26 12 0 1 1 1 1
v 24 8 0 1 1 1 1
v 32 0 -32 1 1 1 1
v 40 0 -34 1 1 1 1
v 32 0 -34 1 1 1 1
v 40 0 -32 1 1 1 1
v 0 0 -33.9375 1 1 1 1
v 0 12 -35.9375 1 1 1 1
v 0 12 -33.9375 1 1 1 1
v 0 0 -35.9375 1 1 1 1
v 8 0 -34 1 1 1 1
v 16 0 -36 1 1 1 1
v 8 0 -36 1 1 1 1
v 16 0 -34 1 1 1 1
v 16 0 -47.875 1 1 1 1
v 18 8 -47.875 1 1 1 1
v 16 8 -47.875 1 1 1 1
v 18 0 -47.875 1 1 1 1
v 16 12 -45.875 1 1 1 1
v 8 12 -47.875 1 1 1 1
v 16 12 -47.875 1 1 1 1
v 8 12 -45.875 1 1 1 1
v 0.125 0 -39.9375 1 1 1 1
v 8.125 0 -41.9375 1 1 1 1
v 0.125 0 -41.9375 1 1 1 1
v 8.125 0 -39.9375 1 1 1 1
v 0 0 -14 1 1 1 1
v 8 0 -16 1 1 1 1
v 0 0 -16 1 1 1 1
v 8 0 -14 1 1 1 1
v 8 0 -14 1 1 1 1
v 16 0 -16 1 1 1 1
v 8 0 -16 1 1 1 1
v 16 0 -14 1 1 1 1
v 8 0 -16 1 1 1 1
v 16 0 -18 1 1 1 1
v 8 0 -18 1 1 1 1
v 16 0 -16 1 1 1 1
v 8 0 -18 1 1 1 1
v 16 0 -20 1 1 1 1
v 8 0 -20 1 1 1 1
v 16 0 -18 1 1 1 1
v 16 12 -43.875 1 1 1 1
v 8 12 -45.875 1 1 1 1
v 16 12 -45.875 1 1 1 1
v 8 12 -43.875 1 1 1 1
v 8 12 -43.875 1 1 1 1
v 0 12 -45.875 1 1 1 1
v 8 12 -45.875 1 1 1 1
v 0 12 -43.875 1 1 1 1
v 8 12 -45.875 1 1 1 1
v 0 12 -47.875 1 1 1 1
v 8 12 -47.875 1 1 1 1
v 0 12 -45.875 1 1 1 1
v 16 12 -42 1 1 1 1
v 8 12 -44 1 1 1 1
v 16 12 -44 1 1 1 1
v 8 12 -42 1 1 1 1
v 16 12 -32 1 1 1 1
v 8 12 -34 1 1 1 1
v 16 12 -34 1 1 1 1
v 8 12 -32 1 1 1 1
v 16 12 -34 1 1 1 1
v 8 12 -36 1 1 1 1
v 16 12 -36 1 1 1 1
v 8 12 -34 1 1 1 1
v 16 12 -36 1 1 1 1
v 8 12 -38 1 1 1 1
v 16 12 -38 1 1 1 1
v 8 12 -36 1 1 1 1
v 40 12 -24 1 1 1 1
v 32 12 -26 1 1 1 1
v 40 12 -26 1 1 1 1
v 32 12 -24 1 1 1 1
v 40 12 -22 1 1 1 1
v 32 12 -24 1 1 1 1
v 40 12 -24 1 1 1 1
v 32 12 -22 1 1 1 1
v 40 12 -20 1 1 1 1
v 32 12 -22 1 1 1 1
v 40 12 -22 1 1 1 1
v 32 12 -20 1 1 1 1
v 40 12 -18 1 1 1 1
v 32 12 -20 1 1 1 1
v 40 12 -20 1 1 1 1
v 32 12 -18 1 1 1 1
v 40 12 -16 1 1 1 1
v 32 12 -18 1 1 1 1
v 40 12 -18 1 1 1 1
v 32 12 -16 1 1 1 1
v 40 12 -14 1 1 1 1
v 32 12 -16 1 1 1 1
v 40 12 -16 1 1 1 1
v 32 12 -14 1 1 1 1
v 40 12 -12 1 1 1 1
v 32 12 -14 1 1 1 1
v 40 12 -14 1 1 1 1
v 32 12 -12 1 1 1 1
v 40 12 -10 1 1 1 1
v 32 12 -12 1 1 1 1
v 40 12 -12 1 1 1 1
v 32 12 -10 1 1 1 1
v 30 0 -47.875 1 1 1 1
v 32 8 -47.875 1 1 1 1
v 30 8 -47.875 1 1 1 1
v 32 0 -47.875 1 1 1 1
v 28 8 -47.875 1 1 1 1
v 30 12 -47.875 1 1 1 1
v 28 12 -47.875 1 1 1 1
v 30 8 -47.875 1 1 1 1
v 26 8 -47.875 1 1 1 1
v 28 12 -47.875 1 1 1 1
v 26 12 -47.875 1 1 1 1
v 28 8 -47.875 1 1 1 1
v 30 8 -47.875 1 1 1 1
v 32 12 -47.875 1 1 1 1
v 30 12 -47.875 1 1 1 1
v 32 8 -47.875 1 1 1 1
v 24 8 -47.875 1 1 1 1
v 26 12 -47.875 1 1 1 1
v 24 12 -47.875 1 1 1 1
v 26 8 -47.875 1 1 1 1
v 16 12 -24 1 1 1 1
v 8 12 -26 1 1 1 1
v 16 12 -26 1 1 1 1
v 8 12 -24 1 1 1 1
v 16 12 -22 1 1 1 1
v 8 12 -24 1 1 1 1
v 16 12 -24 1 1 1 1
v 8 12 -22 1 1 1 1
v 8 12 -22 1 1 1 1
v 0 12 -24 1 1 1 1
v 8 12 -24 1 1 1 1
v 0 12 -22 1 1 1 1
v 8 12 -24 1 1 1 1
v 0 12 -26 1 1 1 1
v 8 12 -26 1 1 1 1
v 0 12 -24 1 1 1 1
v 16 12 -20 1 1 1 1
v 8 12 -22 1 1 1 1
v 16 12 -22 1 1 1 1
v 8 12 -20 1 1 1 1
v 16 12 -10 1 1 1 1
v 8 12 -12 1 1 1 1
v 16 12 -12 1 1 1 1
v 8 12 -10 1 1 1 1
v 16 12 -12 1 1 1 1
v 8 12 -14 1 1 1 1
v 16 12 -14 1 1 1 1
v 8 12 -12 1 1 1 1
v 16 12 -14 1 1 1 1
v 8 12 -16 1 1 1 1
v 16 12 -16 1 1 1 1
v 8 12 -14 1 1 1 1
v 16 12 -16 1 1 1 1
v 8 12 -18 1 1 1 1
v 16 12 -18 1 1 1 1
v 8 12 -16 1 1 1 1
v 16 12 -18 1 1 1 1
v 8 12 -20 1 1 1 1
v 16 12 -20 1 1 1 1
v 8 12 -18 1 1 1 1
v 8 12 -20 1 1 1 1
v 0 12 -22 1 1 1 1
v 8 12 -22 1 1 1 1
v 0 12 -20 1 1 1 1
v 8 12 -18 1 1 1 1
v 0 12 -20 1 1 1 1
v 8 12 -20 1 1 1 1
v 0 12 -18 1 1 1 1
v 8 12 -16 1 1 1 1
v 0 12 -18 1 1 1 1
v 8 12 -18 1 1 1 1
v 0 12 -16 1 1 1 1
v 8 12 -14 1 1 1 1
v 0 12 -16 1 1 1 1
v 8 12 -16 1 1 1 1
v 0 12 -14 1 1 1 1
v 8 12 -12 1 1 1 1
v 0 12 -14 1 1 1 1
v 8 12 -14 1 1 1 1
v 0 12 -12 1 1 1 1
v 8 12 -10 1 1 1 1
v 0 12 -12 1 1 1 1
v 8 12 -12 1 1 1 1
v 0 12 -10 1 1 1 1
v 16 12 -26 1 1 1 1
v 8 12 -28 1 1 1 1
v 16 12 -28 1 1 1 1
v 8 12 -26 1 1 1 1
v 8 12 -26 1 1 1 1
v 0 12 -28 1 1 1 1
v 8 12 -28 1 1 1 1
v 0 12 -26 1 1 1 1
v 16 12 -28 1 1 1 1
v 8 12 -30 1 1 1 1
v 16 12 -30 1 1 1 1
v 8 12 -28 1 1 1 1
v 8 12 -28 1 1 1 1
v 0 12 -30 1 1 1 1
v 8 12 -30 1 1 1 1
v 0 12 -28 1 1 1 1
v 32 12 -40 1 1 1 1
v 24 12 -42 1 1 1 1
v 32 12 -42 1 1 1 1
v 24 12 -39.1875 1 1 1 1
v 32 12 -38 1 1 1 1
v 24 12 -39.1875 1 1 1 1
v 32 12 -40 1 1 1 1
v 24 12 -38 1 1 1 1
v 32 12 -36 1 1 1 1
v 24 12 -38 1 1 1 1
v 32 12 -38 1 1 1 1
v 24 12 -36 1 1 1 1
v 32 12 -34 1 1 1 1
v 24 12 -36 1 1 1 1
v 32 12 -36 1 1 1 1
v 24 12 -34 1 1 1 1
v 32 12 -32 1 1 1 1
v 24 12 -34 1 1 1 1
v 32 12 -34 1 1 1 1
v 24 12 -32 1 1 1 1
v 24 0 -39.9375 1 1 1 1
v 32 0 -41.9375 1 1 1 1
v 24 0 -41.9375 1 1 1 1
v 32 0 -39.9375 1 1 1 1
v 32 12 -43.875 1 1 1 1
v 24 12 -45.875 1 1 1 1
v 32 12 -45.875 1 1 1 1
v 24 12 -43.875 1 1 1 1
v 32 12 -42 1 1 1 1
v 24 12 -44 1 1 1 1
v 32 12 -44 1 1 1 1
v 24 12 -42 1 1 1 1
v 32 12 -8 1 1 1 1
v 24 12 -10 1 1 1 1
v 32 12 -10 1 1 1 1
v 24 12 -8 1 1 1 1
v 32 12 -28 1 1 1 1
v 24 12 -30 1 1 1 1
v 32 12 -30 1 1 1 1
v 24 12 -28 1 1 1 1
v 32 12 -26 1 1 1 1
v 24 12 -28 1 1 1 1
v 32 12 -28 1 1 1 1
v 24 12 -26 1 1 1 1
v 32 12 -18 1 1 1 1
v 24 12 -20 1 1 1 1
v 32 12 -20 1 1 1 1
v 24 12 -18 1 1 1 1
v 32 12 -16 1 1 1 1
v 24 12 -18 1 1 1 1
v 32 12 -18 1 1 1 1
v 24 12 -16 1 1 1 1
v 32 12 -14 1 1 1 1
v 24 12 -16 1 1 1 1
v 32 12 -16 1 1 1 1
v 24 12 -14 1 1 1 1
v 32 12 -12 1 1 1 1
v 24 12 -14 1 1 1 1
v 32 12 -14 1 1 1 1
v 24 12 -12 1 1 1 1
v 32 12 -10 1 1 1 1
v 24 12 -12 1 1 1 1
v 32 12 -12 1 1 1 1
v 24 12 -10 1 1 1 1
v 32 12 -24 1 1 1 1
v 24 12 -26 1 1 1 1
v 32 12 -26 1 1 1 1
v 24 12 -24 1 1 1 1
v 32 12 -22 1 1 1 1
v 24 12 -24 1 1 1 1
v 32 12 -24 1 1 1 1
v 24 12 -22 1 1 1 1
v 32 12 -20 1 1 1 1
v 24 12 -22 1 1 1 1
v 32 12 -22 1 1 1 1
v 24 12 -20 1 1 1 1
v 24 0 -18 1 1 1 1
v 32 0 -20 1 1 1 1
v 24 0 -20 1 1 1 1
v 32 0 -18 1 1 1 1
v 24 0 -16 1 1 1 1
v 32 0 -18 1 1 1 1
v 24 0 -18 1 1 1 1
v 32 0 -16 1 1 1 1
v 24 0 -14 1 1 1 1
v 32 0 -16 1 1 1 1
v 24 0 -16 1 1 1 1
v 32 0 -14 1 1 1 1
v 24 0 -20 1 1 1 1
v 32 0 -22 1 1 1 1
v 24 0 -22 1 1 1 1
v 32 0 -20 1 1 1 1
v 32 12 -45.875 1 1 1 1
v 24 12 -47.875 1 1 1 1
v 32 12 -47.875 1 1 1 1
v 24 12 -45.875 1 1 1 1
v 24 0 -34 1 1 1 1
v 32 0 -36 1 1 1 1
v 24 0 -36 1 1 1 1
v 32 0 -34 1 1 1 1
v 32 12 -30 1 1 1 1
v 24 12 -32 1 1 1 1
v 32 12 -32 1 1 1 1
v 24 12 -30 1 1 1 1
v 24 0 -24 1 1 1 1
v 32 0 -26 1 1 1 1
v 24 0 -26 1 1 1 1
v 32 0 -24 1 1 1 1
v 24 0 -26 1 1 1 1
v 32 0 -28 1 1 1 1
v 24 0 -28 1 1 1 1
v 32 0 -26 1 1 1 1
v 24 0 -22 1 1 1 1
v 32 0 -24 1 1 1 1
v 24 0 -24 1 1 1 1
v 32 0 -22 1 1 1 1
v 32 0 -44.0625 1 1 1 1
v 24 0 -44.0625 1 1 1 1
v 32 0 -41.9375 1 1 1 1
v 24 0 -41.9375 1 1 1 1
v 24 0 -44.0625 1 1 1 1
v 32 0 -46.0625 1 1 1 1
v 24 0 -46.0625 1 1 1 1
v 32 0 -44.0625 1 1 1 1
v 24 0 -36 1 1 1 1
v 32 0 -38 1 1 1 1
v 24 0 -38 1 1 1 1
v 32 0 -36 1 1 1 1
v 24 0 -38 1 1 1 1
v 32 0 -40 1 1 1 1
v 24 0 -40 1 1 1 1
v 32 0 -38 1 1 1 1
v 24 0 -28 1 1 1 1
v 32 0 -30 1 1 1 1
v 24 0 -30 1 1 1 1
v 32 0 -28 1 1 1 1
v 24 0 -30 1 1 1 1
v 32 0 -32 1 1 1 1
v 24 0 -32 1 1 1 1
v 32 0 -30 1 1 1 1
v 40 0 -38 1 1 1 1
v 40 12 -36 1 1 1 1
v 40 12 -38 1 1 1 1
v 40 0 -36 1 1 1 1
v 40 0 -40 1 1 1 1
v 40 12 -38 1 1 1 1
v 40 12 -40 1 1 1 1
v 40 0 -38 1 1 1 1
v 40 0 -34 1 1 1 1
v 40 12 -32 1 1 1 1
v 40 12 -34 1 1 1 1
v 40 0 -32 1 1 1 1
v 40 0 -36 1 1 1 1
v 40 12 -34 1 1 1 1
v 40 12 -36 1 1 1 1
v 40 0 -34 1 1 1 1
v 40 0 -30 1 1 1 1
v 40 12 -28 1 1 1 1
v 40 12 -30 1 1 1 1
v 40 0 -28 1 1 1 1
v 40 0 -32 1 1 1 1
v 40 12 -30 1 1 1 1
v 40 12 -32 1 1 1 1
v 40 0 -30 1 1 1 1
v 40 0 -26 1 1 1 1
v 40 12 -24 1 1 1 1
v 40 12 -26 1 1 1 1
v 40 0 -24 1 1 1 1
v 40 0 -28 1 1 1 1
v 40 12 -26 1 1 1 1
v 40 12 -28 1 1 1 1
v 40 0 -26 1 1 1 1
v 40 0 -22 1 1 1 1
v 40 12 -20 1 1 1 1
v 40 12 -22 1 1 1 1
v 40 0 -20 1 1 1 1
v 40 0 -24 1 1 1 1
v 40 12 -22 1 1 1 1
v 40 12 -24 1 1 1 1
v 40 0 -22 1 1 1 1
v 40 0 -18 1 1 1 1
v 40 12 -16 1 1 1 1
v 40 12 -18 1 1 1 1
v 40 0 -16 1 1 1 1
v 40 0 -20 1 1 1 1
v 40 12 -18 1 1 1 1
v 40 12 -20 1 1 1 1
v 40 0 -18 1 1 1 1
v 40 0 -14 1 1 1 1
v 40 12 -12 1 1 1 1
v 40 12 -14 1 1 1 1
v 40 0 -12 1 1 1 1
v 40 0 -16 1 1 1 1
v 40 12 -14 1 1 1 1
v 40 12 -16 1 1 1 1
v 40 0 -14 1 1 1 1
v 40 0 -10 1 1 1 1
v 40 12 -8 1 1 1 1
v 40 12 -10 1 1 1 1
v 40 0 -8 1 1 1 1
v 40 0 -12 1 1 1 1
v 40 12 -10 1 1 1 1
v 40 12 -12 1 1 1 1
v 40 0 -10 1 1 1 1
v 40 0 -6 1 1 1 1
v 40 12 -4 1 1 1 1
v 40 12 -6 1 1 1 1
v 40 0 -4 1 1 1 1
v 40 0 -8 1 1 1 1
v 40 12 -6 1 1 1 1
v 40 12 -8 1 1 1 1
v 40 0 -6 1 1 1 1
v 40 0 -2 1 1 1 1
v 40 12 0 1 1 1 1
v 40 12 -2 1 1 1 1
v 40 0 0 1 1 1 1
v 40 0 -4 1 1 1 1
v 40 12 -2 1 1 1 1
v 40 12 -4 1 1 1 1
v 40 0 -2 1 1 1 1
vt 0 0.875
vt 0.5 1
vt 0 1
vt 0.5 0.875
vt 0.5625 0.125
vt 0.6875 0.625
vt 0.5625 0.625
vt 0.6875 0.125
vt 0.5 0.125
vt 0.625 0.625
vt 0.5 0.625
vt 0.625 0.125
vt 0.75 0.625
vt 0.75 0.125
vt 0.6875 0.875
vt 0.5625 0.875
vt 0.625 0.875
vt 0.75 0.875
vt 0.75 0.375
vt 0.5 0.375
vn 0 1 0
vn 0 0 1
vn 0 -1 0
vn -1 0 0
vn 1 0 0
vn 0 0 -1
g Scene
usemtl 0
f 1/1/1 3/2/1 2/3/1
f 1/1/1 4/4/1 3/2/1
f 5/1/1 6/2/1 7/3/1
f 5/1/1 8/4/1 6/2/1
f 9/1/1 10/2/1 11/3/1
f 9/1/1 12/4/1 10/2/1
f 13/1/1 14/2/1 15/3/1
f 13/1/1 16/4/1 14/2/1
f 17/1/1 18/2/1 19/3/1
f 17/1/1 20/4/1 18/2/1
f 21/1/1 22/2/1 23/3/1
f 21/1/1 24/4/1 22/2/1
f 25/1/1 26/2/1 27/3/1
f 25/1/1 28/4/1 26/2/1
f 29/1/1 30/2/1 31/3/1
f 29/1/1 32/4/1 30/2/1
f 33/1/1 34/2/1 35/3/1
f 33/1/1 36/4/1 34/2/1
f 37/5/2 38/6/2 39/7/2
f 37/5/2 40/8/2 38/6/2
f 41/1/3 42/2/3 43/3/3
f 41/1/3 44/4/3 42/2/3
f 45/1/3 46/2/3 47/3/3
f 45/1/3 48/4/3 46/2/3
f 49/1/1 50/2/1 51/3/1
f 49/1/1 52/4/1 50/2/1
f 53/5/2 54/6/2 55/7/2
f 53/5/2 56/8/2 54/6/2
f 57/1/3 58/2/3 59/3/3
f 57/1/3 60/4/3 58/2/3
f 61/1/1 62/2/1 63/3/1
f 61/1/1 64/4/1 62/2/1
f 65/1/1 66/2/1 67/3/1
f 65/1/1 68/4/1 66/2/1
f 69/1/1 70/2/1 71/3/1
f 69/1/1 72/4/1 70/2/1
f 73/1/1 74/2/1 75/3/1
f 73/1/1 76/4/1 74/2/1
f 77/1/1 78/2/1 79/3/1
f 77/1/1 80/4/1 78/2/1
f 81/1/1 82/2/1 83/3/1
f 81/1/1 84/4/1 82/2/1
f 85/1/1 86/2/1 87/3/1
f 85/1/1 88/4/1 86/2/1
f 89/1/1 90/2/1 91/3/1
f 89/1/1 92/4/1 90/2/1
f 93/1/3 94/2/3 95/3/3
f 93/1/3 96/4/3 94/2/3
f 97/1/1 98/2/1 99/3/1
f 97/1/1 100/4/1 98/2/1
f 101/1/1 102/2/1 103/3/1
f 101/1/1 104/4/1 102/2/1
f 105/3/1 106/2/1 107/1/1
f 106/2/1 108/4/1 107/1/1
f 109/1/1 110/2/1 111/3/1
f 109/1/1 112/4/1 110/2/1
f 113/1/3 114/2/3 115/3/3
f 113/1/3 116/4/3 114/2/3
f 117/1/3 118/2/3 119/3/3
f 117/1/3 120/4/3 118/2/3
f 121/9/2 122/10/2 123/11/2
f 121/9/2 124/12/2 122/10/2
f 125/1/1 126/2/1 127/3/1
f 125/1/1 128/4/1 126/2/1
f 129/1/1 130/2/1 131/3/1
f 129/1/1 132/4/1 130/2/1
f 133/1/1 134/2/1 135/3/1
f 133/1/1 136/4/1 134/2/1
f 137/1/1 138/2/1 139/3/1
f 137/1/1 140/4/1 138/2/1
f 141/1/1 142/2/1 143/3/1
f 141/1/1 144/4/1 142/2/1
f 145/1/1 146/2/1 147/3/1
f 145/1/1 148/4/1 146/2/1
f 149/1/1 150/2/1 151/3/1
f 149/1/1 152/4/1 150/2/1
f 153/1/1 154/2/1 155/3/1
f 153/1/1 156/4/1 154/2/1
f 157/1/3 158/2/3 159/3/3
f 157/1/3 160/4/3 158/2/3
f 161/1/1 162/2/1 163/3/1
f 161/1/1 164/4/1 162/2/1
f 165/1/3 166/2/3 167/3/3
f 165/1/3 168/4/3 166/2/3
f 169/1/1 170/2/1 171/3/1
f 169/1/1 172/4/1 170/2/1
f 173/1/3 174/2/3 175/3/3
f 173/1/3 176/4/3 174/2/3
f 177/1/3 178/2/3 179/3/3
f 177/1/3 180/4/3 178/2/3
f 181/1/3 182/2/3 183/3/3
f 181/1/3 184/4/3 182/2/3
f 185/1/3 186/2/3 187/3/3
f 185/1/3 188/4/3 186/2/3
f 189/12/2 190/13/2 191/10/2
f 189/12/2 192/14/2 190/13/2
f 193/7/2 194/15/2 195/16/2
f 193/7/2 196/6/2 194/15/2
f 197/1/3 198/2/3 199/3/3
f 197/1/3 200/4/3 198/2/3
f 201/1/3 202/2/3 203/3/3
f 201/1/3 204/4/3 202/2/3
f 205/1/3 206/2/3 207/3/3
f 205/1/3 208/4/3 206/2/3
f 209/1/1 210/2/1 211/3/1
f 209/1/1 212/4/1 210/2/1
f 213/7/2 214/15/2 215/16/2
f 213/7/2 216/6/2 214/15/2
f 217/1/3 218/2/3 219/3/3
f 217/1/3 220/4/3 218/2/3
f 221/5/4 222/15/4 223/16/4
f 221/5/4 224/8/4 222/15/4
f 225/9/5 226/10/5 227/11/5
f 225/9/5 228/12/5 226/10/5
f 229/12/5 230/13/5 231/10/5
f 229/12/5 232/14/5 230/13/5
f 233/5/5 234/6/5 235/7/5
f 233/5/5 236/8/5 234/6/5
f 237/5/5 238/6/5 239/7/5
f 237/5/5 240/8/5 238/6/5
f 241/11/5 242/17/5 243/4/5
f 241/11/5 244/10/5 242/17/5
f 245/7/5 246/15/5 247/16/5
f 245/7/5 248/6/5 246/15/5
f 249/7/5 250/15/5 251/16/5
f 249/7/5 252/6/5 250/15/5
f 253/10/5 254/18/5 255/17/5
f 253/10/5 256/13/5 254/18/5
f 257/9/5 258/17/5 259/4/5
f 257/9/5 260/12/5 258/17/5
f 261/7/6 262/15/6 263/16/6
f 261/7/6 264/6/6 262/15/6
f 265/11/6 266/17/6 267/4/6
f 265/11/6 268/10/6 266/17/6
f 269/7/6 270/15/6 271/16/6
f 269/7/6 272/6/6 270/15/6
f 273/9/6 274/19/6 275/20/6
f 273/9/6 276/14/6 274/19/6
f 277/7/6 278/15/6 279/16/6
f 277/7/6 280/6/6 278/15/6
f 281/20/6 282/13/6 283/11/6
f 281/20/6 284/19/6 282/13/6
f 285/9/6 286/19/6 287/20/6
f 285/9/6 288/14/6 286/19/6
f 289/11/5 290/17/5 291/4/5
f 289/11/5 292/10/5 290/17/5
f 293/11/5 294/17/5 295/4/5
f 293/11/5 296/10/5 294/17/5
f 297/10/5 298/18/5 299/17/5
f 297/10/5 300/13/5 298/18/5
f 301/20/6 302/13/6 303/11/6
f 301/20/6 304/19/6 302/13/6
f 305/7/5 306/15/5 307/16/5
f 305/7/5 308/6/5 306/15/5
f 309/7/5 310/15/5 311/16/5
f 309/7/5 312/6/5 310/15/5
f 313/7/5 314/15/5 315/16/5
f 313/7/5 316/6/5 314/15/5
f 317/7/5 318/15/5 319/16/5
f 317/7/5 320/6/5 318/15/5
f 321/12/4 322/18/4 323/17/4
f 321/12/4 324/14/4 322/18/4
f 325/1/3 326/2/3 327/3/3
f 325/1/3 328/4/3 326/2/3
f 329/1/1 330/2/1 331/3/1
f 329/1/1 332/4/1 330/2/1
f 333/9/4 334/17/4 335/4/4
f 333/9/4 336/12/4 334/17/4
f 337/5/4 338/15/4 339/16/4
f 337/5/4 340/8/4 338/15/4
f 341/1/3 342/2/3 343/3/3
f 341/1/3 344/4/3 342/2/3
f 345/5/5 346/15/5 347/16/5
f 345/5/5 348/8/5 346/15/5
f 349/5/5 350/15/5 351/16/5
f 349/5/5 352/8/5 350/15/5
f 353/7/5 354/15/5 355/16/5
f 353/7/5 356/6/5 354/15/5
f 357/7/5 358/15/5 359/16/5
f 357/7/5 360/6/5 358/15/5
f 361/7/5 362/15/5 363/16/5
f 361/7/5 364/6/5 362/15/5
f 365/10/5 366/18/5 367/17/5
f 365/10/5 368/13/5 366/18/5
f 369/10/5 370/18/5 371/17/5
f 369/10/5 372/13/5 370/18/5
f 373/11/5 374/17/5 375/4/5
f 373/11/5 376/10/5 374/17/5
f 377/9/5 378/10/5 379/11/5
f 377/9/5 380/12/5 378/10/5
f 381/5/5 382/6/5 383/7/5
f 381/5/5 384/8/5 382/6/5
f 385/5/5 386/6/5 387/7/5
f 385/5/5 388/8/5 386/6/5
f 389/11/5 390/17/5 391/4/5
f 389/11/5 392/10/5 390/17/5
f 393/7/5 394/15/5 395/16/5
f 393/7/5 396/6/5 394/15/5
f 397/7/5 398/15/5 399/16/5
f 397/7/5 400/6/5 398/15/5
f 401/12/5 402/13/5 403/10/5
f 401/12/5 404/14/5 402/13/5
f 405/10/5 406/18/5 407/17/5
f 405/10/5 408/13/5 406/18/5
f 409/7/5 410/15/5 411/16/5
f 409/7/5 412/6/5 410/15/5
f 413/11/5 414/17/5 415/4/5
f 413/11/5 416/10/5 414/17/5
f 417/10/5 418/18/5 419/17/5
f 417/10/5 420/13/5 418/18/5
f 421/7/5 422/15/5 423/16/5
f 421/7/5 424/6/5 422/15/5
f 425/7/5 426/15/5 427/16/5
f 425/7/5 428/6/5 426/15/5
f 429/11/5 430/17/5 431/4/5
f 429/11/5 432/10/5 430/17/5
f 433/5/5 434/6/5 435/7/5
f 433/5/5 436/8/5 434/6/5
f 437/5/5 438/6/5 439/7/5
f 437/5/5 440/8/5 438/6/5
f 441/12/5 442/13/5 443/10/5
f 441/12/5 444/14/5 442/13/5
f 445/9/5 446/10/5 447/11/5
f 445/9/5 448/12/5 446/10/5
f 449/1/1 450/2/1 451/3/1
f 449/1/1 452/4/1 450/2/1
f 453/7/6 454/15/6 455/16/6
f 453/7/6 456/6/6 454/15/6
f 457/7/6 458/15/6 459/16/6
f 457/7/6 460/6/6 458/15/6
f 461/10/6 462/18/6 463/17/6
f 461/10/6 464/13/6 462/18/6
f 465/1/1 466/2/1 467/3/1
f 465/1/1 468/4/1 466/2/1
f 469/11/6 470/17/6 471/4/6
f 469/11/6 472/10/6 470/17/6
f 473/9/6 474/10/6 475/11/6
f 473/9/6 476/12/6 474/10/6
f 477/5/6 478/6/6 479/7/6
f 477/5/6 480/8/6 478/6/6
f 481/5/6 482/6/6 483/7/6
f 481/5/6 484/8/6 482/6/6
f 485/11/6 486/17/6 487/4/6
f 485/11/6 488/10/6 486/17/6
f 489/7/6 490/15/6 491/16/6
f 489/7/6 492/6/6 490/15/6
f 493/7/6 494/15/6 495/16/6
f 493/7/6 496/6/6 494/15/6
f 497/12/6 498/13/6 499/10/6
f 497/12/6 500/14/6 498/13/6
f 501/10/6 502/18/6 503/17/6
f 501/10/6 504/13/6 502/18/6
f 505/1/1 506/2/1 507/3/1
f 505/1/1 508/4/1 506/2/1
f 509/1/1 510/2/1 511/3/1
f 509/1/1 512/4/1 510/2/1
f 513/10/6 514/18/6 515/17/6
f 513/10/6 516/13/6 514/18/6
f 517/7/6 518/15/6 519/16/6
f 517/7/6 520/6/6 518/15/6
f 521/7/6 522/15/6 523/16/6
f 521/7/6 524/6/6 522/15/6
f 525/11/6 526/17/6 527/4/6
f 525/11/6 528/10/6 526/17/6
f 529/5/6 530/6/6 531/7/6
f 529/5/6 532/8/6 530/6/6
f 533/5/6 534/6/6 535/7/6
f 533/5/6 536/8/6 534/6/6
f 537/12/6 538/13/6 539/10/6
f 537/12/6 540/14/6 538/13/6
f 541/9/6 542/10/6 543/11/6
f 541/9/6 544/12/6 542/10/6
f 545/9/5 546/10/5 547/11/5
f 545/9/5 548/12/5 546/10/5
f 549/9/5 550/10/5 551/11/5
f 549/9/5 552/12/5 550/10/5
f 553/12/5 554/13/5 555/10/5
f 553/12/5 556/14/5 554/13/5
f 557/12/5 558/13/5 559/10/5
f 557/12/5 560/14/5 558/13/5
f 561/5/5 562/6/5 563/7/5
f 561/5/5 564/8/5 562/6/5
f 565/5/5 566/6/5 567/7/5
f 565/5/5 568/8/5 566/6/5
f 569/5/5 570/6/5 571/7/5
f 569/5/5 572/8/5 570/6/5
f 573/5/5 574/6/5 575/7/5
f 573/5/5 576/8/5 574/6/5
f 577/1/3 578/2/3 579/3/3
f 577/1/3 580/4/3 578/2/3
f 581/1/3 582/2/3 583/3/3
f 581/1/3 584/4/3 582/2/3
f 585/1/1 586/2/1 587/3/1
f 585/1/1 588/4/1 586/2/1
f 589/1/1 590/2/1 591/3/1
f 589/1/1 592/4/1 590/2/1
f 593/1/1 594/2/1 595/3/1
f 593/1/1 596/4/1 594/2/1
f 597/1/1 598/2/1 599/3/1
f 597/1/1 600/4/1 598/2/1
f 601/1/1 602/2/1 603/3/1
f 601/1/1 604/4/1 602/2/1
f 605/1/1 606/2/1 607/3/1
f 605/1/1 608/4/1 606/2/1
f 609/1/1 610/2/1 611/3/1
f 609/1/1 612/4/1 610/2/1
f 613/1/3 614/2/3 615/3/3
f 613/1/3 616/4/3 614/2/3
f 617/1/3 618/2/3 619/3/3
f 617/1/3 620/4/3 618/2/3
f 621/1/3 622/2/3 623/3/3
f 621/1/3 624/4/3 622/2/3
f 625/1/3 626/2/3 627/3/3
f 625/1/3 628/4/3 626/2/3
f 629/1/3 630/2/3 631/3/3
f 629/1/3 632/4/3 630/2/3
f 633/1/1 634/2/1 635/3/1
f 633/1/1 636/4/1 634/2/1
f 637/1/3 638/2/3 639/3/3
f 637/1/3 640/4/3 638/2/3
f 641/1/3 642/2/3 643/3/3
f 641/1/3 644/4/3 642/2/3
f 645/1/3 646/2/3 647/3/3
f 645/1/3 648/4/3 646/2/3
f 649/1/3 650/2/3 651/3/3
f 649/1/3 652/4/3 650/2/3
f 653/1/3 654/2/3 655/3/3
f 653/1/3 656/4/3 654/2/3
f 657/1/3 658/2/3 659/3/3
f 657/1/3 660/4/3 658/2/3
f 661/1/3 662/2/3 663/3/3
f 661/1/3 664/4/3 662/2/3
f 665/1/3 666/2/3 667/3/3
f 665/1/3 668/4/3 666/2/3
f 669/1/3 670/2/3 671/3/3
f 669/1/3 672/4/3 670/2/3
f 673/1/3 674/2/3 675/3/3
f 673/1/3 676/4/3 674/2/3
f 677/1/3 678/2/3 679/3/3
f 677/1/3 680/4/3 678/2/3
f 681/1/3 682/2/3 683/3/3
f 681/1/3 684/4/3 682/2/3
f 685/1/3 686/2/3 687/3/3
f 685/1/3 688/4/3 686/2/3
f 689/1/1 690/2/1 691/3/1
f 689/1/1 692/4/1 690/2/1
f 693/1/1 694/2/1 695/3/1
f 693/1/1 696/4/1 694/2/1
f 697/1/1 698/2/1 699/3/1
f 697/1/1 700/4/1 698/2/1
f 701/1/1 702/2/1 703/3/1
f 701/1/1 704/4/1 702/2/1
f 705/1/3 706/2/3 707/3/3
f 705/1/3 708/4/3 706/2/3
f 709/1/1 710/2/1 711/3/1
f 709/1/1 712/4/1 710/2/1
f 713/1/3 714/2/3 715/3/3
f 713/1/3 716/4/3 714/2/3
f 717/1/1 718/2/1 719/3/1
f 717/1/1 720/4/1 718/2/1
f 721/1/1 722/2/1 723/3/1
f 721/1/1 724/4/1 722/2/1
f 725/1/1 726/2/1 727/3/1
f 725/1/1 728/4/1 726/2/1
f 729/3/1 730/2/1 731/1/1
f 730/2/1 732/4/1 731/1/1
f 733/1/1 734/2/1 735/3/1
f 733/1/1 736/4/1 734/2/1
f 737/1/1 738/2/1 739/3/1
f 737/1/1 740/4/1 738/2/1
f 741/1/1 742/2/1 743/3/1
f 741/1/1 744/4/1 742/2/1
f 745/7/6 746/15/6 747/16/6
f 745/7/6 748/6/6 746/15/6
f 749/1/1 750/2/1 751/3/1
f 749/1/1 752/4/1 750/2/1
f 753/1/1 754/2/1 755/3/1
f 753/1/1 756/4/1 754/2/1
f 757/1/1 758/2/1 759/3/1
f 757/1/1 760/4/1 758/2/1
f 761/1/1 762/2/1 763/3/1
f 761/1/1 764/4/1 762/2/1
f 765/1/1 766/2/1 767/3/1
f 765/1/1 768/4/1 766/2/1
f 769/1/3 770/2/3 771/3/3
f 769/1/3 772/4/3 770/2/3
f 773/10/6 774/18/6 775/17/6
f 773/10/6 776/13/6 774/18/6
f 777/1/1 778/2/1 779/3/1
f 777/1/1 780/4/1 778/2/1
f 781/1/3 782/2/3 783/3/3
f 781/1/3 784/4/3 782/2/3
f 785/11/6 786/17/6 787/4/6
f 785/11/6 788/10/6 786/17/6
f 789/1/3 790/2/3 791/3/3
f 789/1/3 792/4/3 790/2/3
f 793/1/3 794/2/3 795/3/3
f 793/1/3 796/4/3 794/2/3
f 797/1/1 798/2/1 799/3/1
f 797/1/1 800/4/1 798/2/1
f 801/5/2 802/6/2 803/7/2
f 801/5/2 804/8/2 802/6/2
f 805/1/3 806/2/3 807/3/3
f 805/1/3 808/4/3 806/2/3
f 809/1/3 810/2/3 811/3/3
f 809/1/3 812/4/3 810/2/3
f 813/5/2 814/6/2 815/7/2
f 813/5/2 816/8/2 814/6/2
f 817/1/3 818/2/3 819/3/3
f 817/1/3 820/4/3 818/2/3
f 821/12/2 822/13/2 823/10/2
f 821/12/2 824/14/2 822/13/2
f 825/10/2 826/18/2 827/17/2
f 825/10/2 828/13/2 826/18/2
f 829/12/2 830/13/2 831/10/2
f 829/12/2 832/14/2 830/13/2
f 833/7/2 834/15/2 835/16/2
f 833/7/2 836/6/2 834/15/2
f 837/7/2 838/15/2 839/16/2
f 837/7/2 840/6/2 838/15/2
f 841/11/2 842/17/2 843/4/2
f 841/11/2 844/10/2 842/17/2
f 845/5/2 846/6/2 847/7/2
f 845/5/2 848/8/2 846/6/2
f 849/5/2 850/6/2 851/7/2
f 849/5/2 852/8/2 850/6/2
f 853/9/2 854/10/2 855/11/2
f 853/9/2 856/12/2 854/10/2
f 857/1/3 858/2/3 859/3/3
f 857/1/3 860/4/3 858/2/3
f 861/10/2 862/18/2 863/17/2
f 861/10/2 864/13/2 862/18/2
f 865/1/3 866/2/3 867/3/3
f 865/1/3 868/4/3 866/2/3
f 869/1/3 870/2/3 871/3/3
f 869/1/3 872/4/3 870/2/3
f 873/1/3 874/2/3 875/3/3
f 873/1/3 876/4/3 874/2/3
f 877/7/2 878/15/2 879/16/2
f 877/7/2 880/6/2 878/15/2
f 881/1/3 882/2/3 883/3/3
f 881/1/3 884/4/3 882/2/3
f 885/1/3 886/2/3 887/3/3
f 885/1/3 888/4/3 886/2/3
f 889/1/1 890/2/1 891/3/1
f 889/1/1 892/4/1 890/2/1
f 893/1/1 894/2/1 895/3/1
f 893/1/1 896/4/1 894/2/1
f 897/1/1 898/2/1 899/3/1
f 897/1/1 900/4/1 898/2/1
f 901/1/3 902/2/3 903/3/3
f 901/1/3 904/4/3 902/2/3
f 905/1/3 906/2/3 907/3/3
f 905/1/3 908/4/3 906/2/3
f 909/1/1 910/2/1 911/3/1
f 909/1/1 912/4/1 910/2/1
f 913/1/1 914/2/1 915/3/1
f 913/1/1 916/4/1 914/2/1
f 917/1/1 918/2/1 919/3/1
f 917/1/1 920/4/1 918/2/1
f 921/1/1 922/2/1 923/3/1
f 921/1/1 924/4/1 922/2/1
f 925/1/1 926/2/1 927/3/1
f 925/1/1 928/4/1 926/2/1
f 929/1/1 930/2/1 931/3/1
f 929/1/1 932/4/1 930/2/1
f 933/1/3 934/2/3 935/3/3
f 933/1/3 936/4/3 934/2/3
f 937/9/2 938/10/2 939/11/2
f 937/9/2 940/12/2 938/10/2
f 941/5/5 942/15/5 943/16/5
f 941/5/5 944/8/5 942/15/5
f 945/3/1 946/2/1 947/1/1
f 946/2/1 948/4/1 947/1/1
f 949/12/2 950/13/2 951/10/2
f 949/12/2 952/14/2 950/13/2
f 953/5/2 954/6/2 955/7/2
f 953/5/2 956/8/2 954/6/2
f 957/5/2 958/6/2 959/7/2
f 957/5/2 960/8/2 958/6/2
f 961/1/1 962/2/1 963/3/1
f 961/1/1 964/4/1 962/2/1
f 965/7/2 966/15/2 967/16/2
f 965/7/2 968/6/2 966/15/2
f 969/7/2 970/15/2 971/16/2
f 969/7/2 972/6/2 970/15/2
f 973/10/2 974/18/2 975/17/2
f 973/10/2 976/13/2 974/18/2
f 977/11/2 978/17/2 979/4/2
f 977/11/2 980/10/2 978/17/2
f 981/7/2 982/15/2 983/16/2
f 981/7/2 984/6/2 982/15/2
f 985/1/1 986/2/1 987/3/1
f 985/1/1 988/4/1 986/2/1
f 989/1/1 990/2/1 991/3/1
f 989/1/1 992/4/1 990/2/1
f 993/1/1 994/2/1 995/3/1
f 993/1/1 996/4/1 994/2/1
f 997/1/1 998/2/1 999/3/1
f 997/1/1 1000/4/1 998/2/1
f 1001/1/3 1002/2/3 1003/3/3
f 1001/1/3 1004/4/3 1002/2/3
f 1005/12/5 1006/18/5 1007/17/5
f 1005/12/5 1008/14/5 1006/18/5
f 1009/9/5 1010/17/5 1011/4/5
f 1009/9/5 1012/12/5 1010/17/5
f 1013/9/2 1014/10/2 1015/11/2
f 1013/9/2 1016/12/2 1014/10/2
f 1017/1/3 1018/2/3 1019/3/3
f 1017/1/3 1020/4/3 1018/2/3
f 1021/11/2 1022/17/2 1023/4/2
f 1021/11/2 1024/10/2 1022/17/2
f 1025/12/5 1026/18/5 1027/17/5
f 1025/12/5 1028/14/5 1026/18/5
f 1029/1/3 1030/2/3 1031/3/3
f 1029/1/3 1032/4/3 1030/2/3
f 1033/1/1 1034/2/1 1035/3/1
f 1033/1/1 1036/4/1 1034/2/1
f 1037/1/1 1038/2/1 1039/3/1
f 1037/1/1 1040/4/1 1038/2/1
f 1041/1/3 1042/2/3 1043/3/3
f 1041/1/3 1044/4/3 1042/2/3
f 1045/1/1 1046/2/1 1047/3/1
f 1045/1/1 1048/4/1 1046/2/1
f 1049/1/3 1050/2/3 1051/3/3
f 1049/1/3 1052/4/3 1050/2/3
f 1053/1/3 1054/2/3 1055/3/3
f 1053/1/3 1056/4/3 1054/2/3
f 1057/1/3 1058/2/3 1059/3/3
f 1057/1/3 1060/4/3 1058/2/3
f 1061/1/1 1062/2/1 1063/3/1
f 1061/1/1 1064/4/1 1062/2/1
f 1065/1/1 1066/2/1 1067/3/1
f 1065/1/1 1068/4/1 1066/2/1
f 1069/10/2 1070/18/2 1071/17/2
f 1069/10/2 1072/13/2 1070/18/2
f 1073/1/1 1074/2/1 1075/3/1
f 1073/1/1 1076/4/1 1074/2/1
f 1077/1/1 1078/2/1 1079/3/1
f 1077/1/1 1080/4/1 1078/2/1
f 1081/1/1 1082/2/1 1083/3/1
f 1081/1/1 1084/4/1 1082/2/1
f 1085/1/1 1086/2/1 1087/3/1
f 1085/1/1 1088/4/1 1086/2/1
f 1089/1/1 1090/2/1 1091/3/1
f 1089/1/1 1092/4/1 1090/2/1
f 1093/1/1 1094/2/1 1095/3/1
f 1093/1/1 1096/4/1 1094/2/1
f 1097/1/1 1098/2/1 1099/3/1
f 1097/1/1 1100/4/1 1098/2/1
f 1101/1/1 1102/2/1 1103/3/1
f 1101/1/1 1104/4/1 1102/2/1
f 1105/1/1 1106/2/1 1107/3/1
f 1105/1/1 1108/4/1 1106/2/1
f 1109/1/1 1110/2/1 1111/3/1
f 1109/1/1 1112/4/1 1110/2/1
f 1113/1/1 1114/2/1 1115/3/1
f 1113/1/1 1116/4/1 1114/2/1
f 1117/11/2 1118/17/2 1119/4/2
f 1117/11/2 1120/10/2 1118/17/2
f 1121/1/1 1122/2/1 1123/3/1
f 1121/1/1 1124/4/1 1122/2/1
f 1125/1/1 1126/2/1 1127/3/1
f 1125/1/1 1128/4/1 1126/2/1
f 1129/5/2 1130/6/2 1131/7/2
f 1129/5/2 1132/8/2 1130/6/2
f 1133/5/2 1134/6/2 1135/7/2
f 1133/5/2 1136/8/2 1134/6/2
f 1137/1/3 1138/2/3 1139/3/3
f 1137/1/3 1140/4/3 1138/2/3
f 1141/10/6 1142/18/6 1143/17/6
f 1141/10/6 1144/13/6 1142/18/6
f 1145/1/1 1146/2/1 1147/3/1
f 1145/1/1 1148/4/1 1146/2/1
f 1149/5/5 1150/15/5 1151/16/5
f 1149/5/5 1152/8/5 1150/15/5
f 1153/1/1 1154/2/1 1155/3/1
f 1153/1/1 1156/4/1 1154/2/1
f 1157/9/2 1158/10/2 1159/11/2
f 1157/9/2 1160/12/2 1158/10/2
f 1161/1/3 1162/2/3 1163/3/3
f 1161/1/3 1164/4/3 1162/2/3
f 1165/1/1 1166/2/1 1167/3/1
f 1165/1/1 1168/4/1 1166/2/1
f 1169/1/1 1170/2/1 1171/3/1
f 1169/1/1 1172/4/1 1170/2/1
f 1173/1/1 1174/2/1 1175/3/1
f 1173/1/1 1176/4/1 1174/2/1
f 1177/1/1 1178/2/1 1179/3/1
f 1177/1/1 1180/4/1 1178/2/1
f 1181/1/1 1182/2/1 1183/3/1
f 1181/1/1 1184/4/1 1182/2/1
f 1185/1/3 1186/2/3 1187/3/3
f 1185/1/3 1188/4/3 1186/2/3
f 1189/1/3 1190/2/3 1191/3/3
f 1189/1/3 1192/4/3 1190/2/3
f 1193/1/3 1194/2/3 1195/3/3
f 1193/1/3 1196/4/3 1194/2/3
f 1197/1/3 1198/2/3 1199/3/3
f 1197/1/3 1200/4/3 1198/2/3
f 1201/1/3 1202/2/3 1203/3/3
f 1201/1/3 1204/4/3 1202/2/3
f 1205/1/3 1206/2/3 1207/3/3
f 1205/1/3 1208/4/3 1206/2/3
f 1209/1/3 1210/2/3 1211/3/3
f 1209/1/3 1212/4/3 1210/2/3
f 1213/1/3 1214/2/3 1215/3/3
f 1213/1/3 1216/4/3 1214/2/3
f 1217/1/3 1218/2/3 1219/3/3
f 1217/1/3 1220/4/3 1218/2/3
f 1221/1/3 1222/2/3 1223/3/3
f 1221/1/3 1224/4/3 1222/2/3
f 1225/1/3 1226/2/3 1227/3/3
f 1225/1/3 1228/4/3 1226/2/3
f 1229/1/3 1230/2/3 1231/3/3
f 1229/1/3 1232/4/3 1230/2/3
f 1233/1/3 1234/2/3 1235/3/3
f 1233/1/3 1236/4/3 1234/2/3
f 1237/1/3 1238/2/3 1239/3/3
f 1237/1/3 1240/4/3 1238/2/3
f 1241/1/3 1242/2/3 1243/3/3
f 1241/1/3 1244/4/3 1242/2/3
f 1245/12/2 1246/13/2 1247/10/2
f 1245/12/2 1248/14/2 1246/13/2
f 1249/7/2 1250/15/2 1251/16/2
f 1249/7/2 1252/6/2 1250/15/2
f 1253/7/2 1254/15/2 1255/16/2
f 1253/7/2 1256/6/2 1254/15/2
f 1257/10/2 1258/18/2 1259/17/2
f 1257/10/2 1260/13/2 1258/18/2
f 1261/11/2 1262/17/2 1263/4/2
f 1261/11/2 1264/10/2 1262/17/2
f 1265/1/3 1266/2/3 1267/3/3
f 1265/1/3 1268/4/3 1266/2/3
f 1269/1/3 1270/2/3 1271/3/3
f 1269/1/3 1272/4/3 1270/2/3
f 1273/1/3 1274/2/3 1275/3/3
f 1273/1/3 1276/4/3 1274/2/3
f 1277/1/3 1278/2/3 1279/3/3
f 1277/1/3 1280/4/3 1278/2/3
f 1281/1/3 1282/2/3 1283/3/3
f 1281/1/3 1284/4/3 1282/2/3
f 1285/1/3 1286/2/3 1287/3/3
f 1285/1/3 1288/4/3 1286/2/3
f 1289/1/3 1290/2/3 1291/3/3
f 1289/1/3 1292/4/3 1290/2/3
f 1293/1/3 1294/2/3 1295/3/3
f 1293/1/3 1296/4/3 1294/2/3
f 1297/1/3 1298/2/3 1299/3/3
f 1297/1/3 1300/4/3 1298/2/3
f 1301/1/3 1302/2/3 1303/3/3
f 1301/1/3 1304/4/3 1302/2/3
f 1305/1/3 1306/2/3 1307/3/3
f 1305/1/3 1308/4/3 1306/2/3
f 1309/1/3 1310/2/3 1311/3/3
f 1309/1/3 1312/4/3 1310/2/3
f 1313/1/3 1314/2/3 1315/3/3
f 1313/1/3 1316/4/3 1314/2/3
f 1317/1/3 1318/2/3 1319/3/3
f 1317/1/3 1320/4/3 1318/2/3
f 1321/1/3 1322/2/3 1323/3/3
f 1321/1/3 1324/4/3 1322/2/3
f 1325/1/3 1326/2/3 1327/3/3
f 1325/1/3 1328/4/3 1326/2/3
f 1329/1/3 1330/2/3 1331/3/3
f 1329/1/3 1332/4/3 1330/2/3
f 1333/1/3 1334/2/3 1335/3/3
f 1333/1/3 1336/4/3 1334/2/3
f 1337/1/3 1338/2/3 1339/3/3
f 1337/1/3 1340/4/3 1338/2/3
f 1341/1/3 1342/2/3 1343/3/3
f 1341/1/3 1344/4/3 1342/2/3
f 1345/1/3 1346/2/3 1347/3/3
f 1345/1/3 1348/4/3 1346/2/3
f 1349/1/3 1350/2/3 1351/3/3
f 1349/1/3 1352/4/3 1350/2/3
f 1353/1/3 1354/2/3 1355/3/3
f 1353/1/3 1356/4/3 1354/2/3
f 1357/1/3 1358/2/3 1359/3/3
f 1357/1/3 1360/4/3 1358/2/3
f 1361/1/3 1362/2/3 1363/3/3
f 1361/1/3 1364/4/3 1362/2/3
f 1365/1/1 1366/2/1 1367/3/1
f 1365/1/1 1368/4/1 1366/2/1
f 1369/1/3 1370/2/3 1371/3/3
f 1369/1/3 1372/4/3 1370/2/3
f 1373/1/3 1374/2/3 1375/3/3
f 1373/1/3 1376/4/3 1374/2/3
f 1377/1/3 1378/2/3 1379/3/3
f 1377/1/3 1380/4/3 1378/2/3
f 1381/1/3 1382/2/3 1383/3/3
f 1381/1/3 1384/4/3 1382/2/3
f 1385/1/3 1386/2/3 1387/3/3
f 1385/1/3 1388/4/3 1386/2/3
f 1389/1/3 1390/2/3 1391/3/3
f 1389/1/3 1392/4/3 1390/2/3
f 1393/1/3 1394/2/3 1395/3/3
f 1393/1/3 1396/4/3 1394/2/3
f 1397/1/3 1398/2/3 1399/3/3
f 1397/1/3 1400/4/3 1398/2/3
f 1401/1/3 1402/2/3 1403/3/3
f 1401/1/3 1404/4/3 1402/2/3
f 1405/1/3 1406/2/3 1407/3/3
f 1405/1/3 1408/4/3 1406/2/3
f 1409/1/3 1410/2/3 1411/3/3
f 1409/1/3 1412/4/3 1410/2/3
f 1413/1/3 1414/2/3 1415/3/3
f 1413/1/3 1416/4/3 1414/2/3
f 1417/1/3 1418/2/3 1419/3/3
f 1417/1/3 1420/4/3 1418/2/3
f 1421/1/1 1422/2/1 1423/3/1
f 1421/1/1 1424/4/1 1422/2/1
f 1425/1/1 1426/2/1 1427/3/1
f 1425/1/1 1428/4/1 1426/2/1
f 1429/1/1 1430/2/1 1431/3/1
f 1429/1/1 1432/4/1 1430/2/1
f 1433/1/1 1434/2/1 1435/3/1
f 1433/1/1 1436/4/1 1434/2/1
f 1437/1/3 1438/2/3 1439/3/3
f 1437/1/3 1440/4/3 1438/2/3
f 1441/1/1 1442/2/1 1443/3/1
f 1441/1/1 1444/4/1 1442/2/1
f 1445/1/3 1446/2/3 1447/3/3
f 1445/1/3 1448/4/3 1446/2/3
f 1449/1/1 1450/2/1 1451/3/1
f 1449/1/1 1452/4/1 1450/2/1
f 1453/1/1 1454/2/1 1455/3/1
f 1453/1/1 1456/4/1 1454/2/1
f 1457/1/1 1458/2/1 1459/3/1
f 1457/1/1 1460/4/1 1458/2/1
f 1461/3/1 1462/2/1 1463/1/1
f 1462/2/1 1464/4/1 1463/1/1
f 1465/1/1 1466/2/1 1467/3/1
f 1465/1/1 1468/4/1 1466/2/1
f 1469/1/1 1470/2/1 1471/3/1
f 1469/1/1 1472/4/1 1470/2/1
f 1473/1/1 1474/2/1 1475/3/1
f 1473/1/1 1476/4/1 1474/2/1
f 1477/1/1 1478/2/1 1479/3/1
f 1477/1/1 1480/4/1 1478/2/1
f 1481/1/1 1482/2/1 1483/3/1
f 1481/1/1 1484/4/1 1482/2/1
f 1485/5/4 1486/15/4 1487/16/4
f 1485/5/4 1488/8/4 1486/15/4
f 1489/9/4 1490/17/4 1491/4/4
f 1489/9/4 1492/12/4 1490/17/4
f 1493/12/4 1494/18/4 1495/17/4
f 1493/12/4 1496/14/4 1494/18/4
f 1497/5/4 1498/15/4 1499/16/4
f 1497/5/4 1500/8/4 1498/15/4
f 1501/5/4 1502/15/4 1503/16/4
f 1501/5/4 1504/8/4 1502/15/4
f 1505/9/4 1506/17/4 1507/4/4
f 1505/9/4 1508/12/4 1506/17/4
f 1509/12/4 1510/18/4 1511/17/4
f 1509/12/4 1512/14/4 1510/18/4
f 1513/5/4 1514/15/4 1515/16/4
f 1513/5/4 1516/8/4 1514/15/4
f 1517/5/4 1518/15/4 1519/16/4
f 1517/5/4 1520/8/4 1518/15/4
f 1521/9/4 1522/17/4 1523/4/4
f 1521/9/4 1524/12/4 1522/17/4
f 1525/12/4 1526/18/4 1527/17/4
f 1525/12/4 1528/14/4 1526/18/4
f 1529/5/4 1530/15/4 1531/16/4
f 1529/5/4 1532/8/4 1530/15/4
f 1533/5/4 1534/15/4 1535/16/4
f 1533/5/4 1536/8/4 1534/15/4
f 1537/9/4 1538/17/4 1539/4/4
f 1537/9/4 1540/12/4 1538/17/4
f 1541/12/4 1542/18/4 1543/17/4
f 1541/12/4 1544/14/4 1542/18/4
f 1545/5/4 1546/15/4 1547/16/4
f 1545/5/4 1548/8/4 1546/15/4
f 1549/5/4 1550/15/4 1551/16/4
f 1549/5/4 1552/8/4 1550/15/4
f 1553/9/4 1554/17/4 1555/4/4
f 1553/9/4 1556/12/4 1554/17/4
f 1557/12/4 1558/18/4 1559/17/4
f 1557/12/4 1560/14/4 1558/18/4
f 1561/5/4 1562/15/4 1563/16/4
f 1561/5/4 1564/8/4 1562/15/4
