mtllib House_Lobby.mtl
o Default
v 0 0 0
v 1.28 0 -0.32
v 0 0 -0.32
v 1.28 0 0
v -1.28 0 0
v -1.28 0 -0.32
v 0 0 -0.64
v -1.28 0 -0.64
v 0 0 -0.96
v -1.28 0 -0.96
v 0 0 -1.28
v -1.28 0 -1.28
v 1.28 0 -1.28
v 1.28 0 -0.96
v 1.28 0 -0.64
v 0 0 -1.6
v -1.28 0 -1.6
v 0 0 -1.92
v -1.28 0 -1.92
v 1.28 0 -1.92
v 1.28 0 -1.6
v -2.56 0 0
v -2.56 0 -0.32
v -2.56 0 -0.64
v -2.56 0 -0.96
v -2.56 0 -1.28
v -2.56 0 -1.6
v -2.56 0 -1.92
v 2.56 0 -0.32
v 2.56 0 0
v 2.56 0 -1.28
v 2.56 0 -0.96
v 2.56 0 -1.6
v 2.56 0 -1.92
v 2.56 0 -0.64
v 3.84 0 -0.32
v 3.84 0 0
v 3.84 0 -0.64
v 3.84 0 -0.96
v 3.84 0 -1.28
v 3.84 0 -1.6
v 3.84 0 -1.92
v -3.84 0 0
v -3.84 0 -0.32
v -3.84 0 -0.96
v -3.84 0 -1.28
v -3.84 0 -1.6
v -3.84 0 -0.64
v -3.84 0 -1.92
v -1.28 0 -2.24
v -2.56 0 -2.24
v -1.28 0 -2.56
v -2.56 0 -2.56
v -2.56 0 -2.88
v -1.28 0 -3.2
v -2.56 0 -3.2
v -1.28 0 -2.88
v -2.56 0 -4.16
v -1.28 0 -4.48
v -2.56 0 -4.48
v -1.28 0 -4.16
v -1.28 0 -4.8
v -2.56 0 -4.8
v -1.28 0 -5.12
v -2.56 0 -5.12
v 1.28 1.92 -3.52
v 1.28 1.92 -3.2
v 1.28 0 -3.52
v 1.28 0 -3.2
v 1.28 1.92 -3.84
v 1.28 0 -3.84
v 1.28 1.92 -4.16
v 1.28 0 -4.16
v -3.84 0 -4.16
v -3.84 0 -4.48
v -3.84 0 -3.52
v -2.56 0 -3.84
v -3.84 0 -3.84
v -2.56 0 -3.52
v -3.84 0 -3.2
v -3.84 0 -2.88
v -3.84 0 -2.56
v -3.84 0 -2.24
v -3.84 0 -4.8
v -3.84 0 -5.12
v 1.28 1.92 -4.48
v 1.28 0 -4.48
v -1.28 0 -3.52
v -1.28 0 -3.84
v 1.28 1.92 -4.8
v 1.28 0 -4.8
v 1.28 1.92 -5.12
v 1.28 0 -5.12
v 2.56 0 -2.24
v 1.28 0 -2.24
v 2.56 0 -2.56
v 1.28 0 -2.56
v 1.28 0 -2.88
v 2.56 0 -3.2
v 2.56 0 -2.88
v 2.56 0 -3.52
v 2.56 0 -3.84
v 2.56 0 -4.16
v 2.56 0 -4.48
v 2.56 0 -4.8
v 2.56 0 -5.12
v -3.84 1.92 -0.64
v -3.84 1.92 -0.32
v -3.84 1.92 0
v 3.84 0 -2.24
v 3.84 0 -2.56
v 3.84 0 -2.88
v 3.84 0 -3.2
v 3.84 0 -3.52
v 3.84 0 -3.84
v 3.84 0 -4.48
v 3.84 0 -4.16
v 3.84 0 -5.12
v 3.84 0 -4.8
v -3.84 1.92 -2.88
v -3.84 1.92 -2.56
v -3.84 1.92 -3.2
v -3.84 1.92 -3.52
v -3.84 1.92 -3.84
v -1.6 1.92 0
v -1.28 1.92 0
v -1.6 0 0
v -1.92 1.92 0
v -1.92 0 0
v -2.24 1.92 0
v -2.24 0 0
v -2.56 1.92 0
v -2.88 1.92 0
v -2.88 0 0
v -3.2 1.92 0
v -3.2 0 0
v -3.52 1.92 0
v -3.52 0 0
v 1.6 0 0
v 1.28 1.92 0
v 1.6 1.92 0
v 1.92 0 0
v 1.92 1.92 0
v 2.24 0 0
v 2.24 1.92 0
v 2.56 1.92 0
v 2.88 0 0
v 2.88 1.92 0
v 3.2 0 0
v 3.2 1.92 0
v 3.52 0 0
v 3.52 1.92 0
v 3.84 1.92 0
v 0.96 0 -1.92
v 1.28 1.92 -1.92
v 0.96 1.92 -1.92
v 0.64 0 -1.92
v 0.64 1.92 -1.92
v 0.32 0 -1.92
v 0.32 1.92 -1.92
v 0 1.92 -1.92
v -0.32 0 -1.92
v -0.32 1.92 -1.92
v -0.64 0 -1.92
v -0.64 1.92 -1.92
v -0.96 0 -1.92
v -0.96 1.92 -1.92
v -1.28 1.92 -1.92
v -1.28 1.92 -4.16
v -1.28 1.92 -4.48
v -1.28 1.92 -3.84
v -1.28 1.92 -3.52
v -1.28 1.92 -3.2
v -1.28 1.92 -2.88
v -1.28 1.92 -2.56
v -1.28 1.92 -2.24
v -3.84 1.92 -2.24
v -3.84 1.92 -1.92
v -3.84 1.92 -1.6
v -3.84 1.92 -1.28
v -3.84 1.92 -0.96
v -1.28 1.92 -4.8
v -1.28 1.92 -5.12
v 1.28 1.92 -2.24
v 1.28 1.92 -2.56
v 1.28 1.92 -2.88
v 3.84 1.92 -0.32
v 3.84 1.92 -0.64
v 3.84 1.92 -0.96
v 3.84 1.92 -1.28
v 3.84 1.92 -2.24
v 3.84 1.92 -2.56
v 3.84 1.92 -1.92
v 3.84 1.92 -1.6
v 3.84 1.92 -3.52
v 3.84 1.92 -3.84
v 3.84 1.92 -3.2
v 3.84 1.92 -2.88
v 2.56 1.92 -3.84
v 2.56 1.92 -3.52
v 2.56 1.92 -3.2
v 2.56 1.92 -2.88
v 2.56 1.92 -2.56
v 2.56 1.92 -2.24
v 2.56 1.92 -1.92
v 2.56 1.92 -1.6
v 2.56 1.92 -1.28
v 2.56 1.92 -0.96
v 2.56 1.92 -0.64
v 2.56 1.92 -0.32
v 1.28 1.92 -0.32
v 1.28 1.92 -0.64
v 1.28 1.92 -0.96
v 1.28 1.92 -1.28
v 1.28 1.92 -1.6
v 2.56 1.92 -4.16
v 3.84 1.92 -4.16
v 2.56 1.92 -4.48
v 3.84 1.92 -4.48
v 2.56 1.92 -4.8
v 3.84 1.92 -4.8
v 2.56 1.92 -5.12
v 3.84 1.92 -5.12
v 0 1.92 -0.32
v 0 1.92 0
v 0 1.92 -0.64
v 0 1.92 -0.96
v 0 1.92 -1.28
v 0 1.92 -1.6
v -1.28 1.92 -1.6
v -1.28 1.92 -1.28
v -1.28 1.92 -0.96
v -1.28 1.92 -0.64
v -1.28 1.92 -0.32
v -2.56 1.92 -0.64
v -2.56 1.92 -0.32
v -2.56 1.92 -1.28
v -2.56 1.92 -0.96
v -2.56 1.92 -1.6
v -2.56 1.92 -1.92
v -2.56 1.92 -2.24
v -2.56 1.92 -2.56
v -2.56 1.92 -2.88
v -2.56 1.92 -3.2
v -2.56 1.92 -3.52
v -2.56 1.92 -3.84
v -3.84 1.92 -4.16
v -2.56 1.92 -4.16
v -3.84 1.92 -4.48
v -2.56 1.92 -4.48
v -3.84 1.92 -4.8
v -2.56 1.92 -4.8
v -3.84 1.92 -5.12
v -2.56 1.92 -5.12
v -2.56 1.92 -8.32
v -1.28 1.92 -8.32
v -2.56 1.92 -8
v -1.28 1.92 -8
v -2.56 1.92 -7.68
v -1.28 1.92 -7.68
v -2.56 1.92 -7.36
v -1.28 1.92 -7.36
v -2.56 1.92 -7.04
v -1.28 1.92 -7.04
v -2.56 1.92 -6.72
v -1.28 1.92 -6.72
v -2.56 1.92 -6.4
v -1.28 1.92 -6.4
v -2.56 1.92 -6.08
v -1.28 1.92 -6.08
v -2.56 1.92 -5.76
v -1.28 1.92 -5.76
v -2.56 1.92 -5.44
v -1.28 1.92 -5.44
v -3.84 1.92 -5.44
v -3.84 1.92 -5.76
v -3.84 1.92 -6.08
v -3.84 1.92 -6.4
v -3.84 1.92 -6.72
v -3.84 1.92 -7.04
v -3.84 1.92 -7.36
v -3.84 1.92 -7.68
v -3.84 1.92 -8
v -3.84 1.92 -8.32
v -3.84 1.92 -8.96
v -2.56 1.92 -8.96
v -3.84 1.92 -8.64
v -2.56 1.92 -8.64
v -3.84 1.92 -9.28
v -2.56 1.92 -9.28
v -3.84 1.92 -9.6
v -2.56 1.92 -9.6
v -3.84 1.92 -9.92
v -2.56 1.92 -9.92
v -3.84 1.92 -10.24
v -2.56 1.92 -10.24
v -1.28 1.92 -10.24
v -1.28 1.92 -9.92
v -1.28 1.92 -9.6
v -1.28 1.92 -9.28
v -1.28 1.92 -8.64
v -1.28 1.92 -8.96
v 0 1.92 -10.24
v 0 1.92 -9.92
v 0 1.92 -9.6
v 0 1.92 -9.28
v 0 1.92 -8.96
v 0 1.92 -8.64
v 0 1.92 -8.32
v -3.84 0 -7.68
v -3.84 0 -7.36
v -3.84 0 -7.04
v -3.84 0 -6.72
v -3.84 0 -6.4
v -1.28 0 -5.76
v -1.28 0 -5.44
v -3.84 0 -9.6
v -3.84 0 -9.28
v -3.84 0 -8.96
v -3.84 0 -8.64
v -3.84 0 -8.32
v -3.84 0 -8
v -1.28 0 -8.32
v -1.28 0 -8
v -1.28 0 -7.68
v -1.28 0 -7.36
v -1.28 0 -7.04
v -1.28 0 -6.72
v -1.28 0 -6.4
v -1.28 0 -6.08
v -0.96 1.92 -8.32
v -0.96 0 -8.32
v -3.84 0 -10.24
v -3.84 0 -9.92
v -2.56 0 -6.08
v -2.56 0 -6.4
v -2.56 0 -6.72
v -2.56 0 -7.04
v -2.56 0 -7.36
v -2.56 0 -7.68
v -3.84 0 -5.44
v -2.56 0 -5.44
v -3.84 0 -5.76
v -2.56 0 -5.76
v -3.84 0 -6.08
v -2.56 0 -8
v -2.56 0 -8.32
v -2.56 0 -9.6
v -2.56 0 -9.92
v -2.56 0 -8.64
v -2.56 0 -9.28
v -2.56 0 -8.96
v -2.56 0 -10.24
v -1.28 0 -8.64
v -1.28 0 -8.96
v -1.28 0 -9.28
v -1.28 0 -9.6
v -1.28 0 -9.92
v -1.28 0 -10.24
v 0 0 -8.32
v 0 0 -8.64
v 0 0 -8.96
v 0 0 -9.28
v 0 0 -9.6
v 0 0 -9.92
v 0 0 -10.24
v -3.52 1.92 -10.24
v -3.52 0 -10.24
v -3.2 1.92 -10.24
v -3.2 0 -10.24
v -2.88 1.92 -10.24
v -2.88 0 -10.24
v -2.24 1.92 -10.24
v -2.24 0 -10.24
v -1.92 1.92 -10.24
v -1.92 0 -10.24
v -1.6 1.92 -10.24
v -1.6 0 -10.24
v 1.28 1.92 -8.64
v 1.28 1.92 -8.32
v 1.28 1.92 -8.96
v 1.28 1.92 -9.28
v 1.28 1.92 -9.6
v 1.28 1.92 -9.92
v 1.28 1.92 -10.24
v 1.28 1.92 -5.76
v 2.56 1.92 -5.76
v 1.28 1.92 -5.44
v 2.56 1.92 -5.44
v 3.84 1.92 -5.44
v 3.84 1.92 -5.76
v 1.28 1.92 -6.4
v 2.56 1.92 -6.4
v 1.28 1.92 -6.08
v 2.56 1.92 -6.08
v 3.84 1.92 -6.08
v 3.84 1.92 -6.4
v 1.28 1.92 -6.72
v 2.56 1.92 -6.72
v 1.28 1.92 -7.04
v 2.56 1.92 -7.04
v 1.28 1.92 -7.36
v 2.56 1.92 -7.36
v 1.28 1.92 -7.68
v 2.56 1.92 -7.68
v 1.28 1.92 -8
v 2.56 1.92 -8
v 2.56 1.92 -8.32
v 2.56 1.92 -8.64
v 2.56 1.92 -8.96
v 2.56 1.92 -9.28
v 2.56 1.92 -9.6
v 2.56 1.92 -9.92
v 2.56 1.92 -10.24
v 3.84 1.92 -10.24
v 3.84 1.92 -9.92
v 3.84 1.92 -9.6
v 3.84 1.92 -9.28
v 3.84 1.92 -8.96
v 3.84 1.92 -8.64
v 3.84 1.92 -8.32
v 3.84 1.92 -8
v 3.84 1.92 -7.68
v 3.84 1.92 -7.36
v 3.84 1.92 -7.04
v 3.84 1.92 -6.72
v 3.84 0 -7.36
v 3.84 0 -7.68
v 3.84 0 -7.04
v 3.84 0 -6.72
v 3.84 0 -6.4
v 3.84 0 -8.64
v 3.84 0 -8.96
v 3.84 0 -8.32
v 3.84 0 -8
v 3.84 0 -9.28
v 3.84 0 -9.6
v 3.84 0 -9.92
v 3.84 0 -10.24
v 1.28 0 -7.04
v 1.28 0 -7.36
v 1.28 0 -7.68
v 1.28 0 -8
v 1.28 0 -8.32
v -0.64 1.92 -8.32
v -0.64 0 -8.32
v -0.32 1.92 -8.32
v -0.32 0 -8.32
v 0.32 1.92 -8.32
v 0.32 0 -8.32
v 0.64 1.92 -8.32
v 0.64 0 -8.32
v 0.96 1.92 -8.32
v 0.96 0 -8.32
v 2.56 0 -6.08
v 3.84 0 -6.08
v 2.56 0 -6.4
v 2.56 0 -5.44
v 3.84 0 -5.44
v 2.56 0 -5.76
v 3.84 0 -5.76
v 2.56 0 -6.72
v 2.56 0 -7.04
v 2.56 0 -7.36
v 2.56 0 -7.68
v 2.56 0 -8
v 2.56 0 -8.32
v 1.28 0 -5.44
v 1.28 0 -5.76
v 1.28 0 -6.08
v 1.28 0 -6.4
v 1.28 0 -6.72
v 2.56 0 -8.64
v 2.56 0 -8.96
v 2.56 0 -9.28
v 2.56 0 -9.6
v 2.56 0 -9.92
v 2.56 0 -10.24
v 1.28 0 -9.6
v 1.28 0 -9.92
v 1.28 0 -9.28
v 1.28 0 -8.64
v 1.28 0 -8.96
v 1.28 0 -10.24
v 3.52 1.92 -10.24
v 3.52 0 -10.24
v 3.2 1.92 -10.24
v 3.2 0 -10.24
v 2.88 1.92 -10.24
v 2.88 0 -10.24
v 2.24 1.92 -10.24
v 2.24 0 -10.24
v 1.92 1.92 -10.24
v 1.92 0 -10.24
v 1.6 1.92 -10.24
v 1.6 0 -10.24
vt 0 0.875
vt 0.5 1
vt 0 1
vt 0.5 0.875
vt 0.625 0.875
vt 0.75 0.875
vt 0.625 0.125
vt 0.75 0.125
vt 0.5625 0.875
vt 0.6875 0.875
vt 0.5625 0.125
vt 0.6875 0.125
vt 0.5 0.125
vn 0 1 0
vn 1 0 0
vn 0 0 -1
vn 0 0 1
vn -1 0 0
vn 0 -1 0
g Scene
usemtl 0
f 1/1/1 2/2/1 3/3/1
f 1/1/1 4/4/1 2/2/1
f 5/1/1 3/2/1 6/3/1
f 5/1/1 1/4/1 3/2/1
f 6/1/1 7/2/1 8/3/1
f 6/1/1 3/4/1 7/2/1
f 8/1/1 9/2/1 10/3/1
f 8/1/1 7/4/1 9/2/1
f 10/1/1 11/2/1 12/3/1
f 10/1/1 9/4/1 11/2/1
f 9/1/1 13/2/1 11/3/1
f 9/1/1 14/4/1 13/2/1
f 7/1/1 14/2/1 9/3/1
f 7/1/1 15/4/1 14/2/1
f 3/1/1 15/2/1 7/3/1
f 3/1/1 2/4/1 15/2/1
f 12/1/1 16/2/1 17/3/1
f 12/1/1 11/4/1 16/2/1
f 17/1/1 18/2/1 19/3/1
f 17/1/1 16/4/1 18/2/1
f 16/1/1 20/2/1 18/3/1
f 16/1/1 21/4/1 20/2/1
f 11/1/1 21/2/1 16/3/1
f 11/1/1 13/4/1 21/2/1
f 22/1/1 6/2/1 23/3/1
f 22/1/1 5/4/1 6/2/1
f 23/1/1 8/2/1 24/3/1
f 23/1/1 6/4/1 8/2/1
f 24/1/1 10/2/1 25/3/1
f 24/1/1 8/4/1 10/2/1
f 25/1/1 12/2/1 26/3/1
f 25/1/1 10/4/1 12/2/1
f 26/1/1 17/2/1 27/3/1
f 26/1/1 12/4/1 17/2/1
f 27/1/1 19/2/1 28/3/1
f 27/1/1 17/4/1 19/2/1
f 4/1/1 29/2/1 2/3/1
f 4/1/1 30/4/1 29/2/1
f 14/1/1 31/2/1 13/3/1
f 14/1/1 32/4/1 31/2/1
f 13/1/1 33/2/1 21/3/1
f 13/1/1 31/4/1 33/2/1
f 21/1/1 34/2/1 20/3/1
f 21/1/1 33/4/1 34/2/1
f 15/1/1 32/2/1 14/3/1
f 15/1/1 35/4/1 32/2/1
f 2/1/1 35/2/1 15/3/1
f 2/1/1 29/4/1 35/2/1
f 30/1/1 36/2/1 29/3/1
f 30/1/1 37/4/1 36/2/1
f 29/1/1 38/2/1 35/3/1
f 29/1/1 36/4/1 38/2/1
f 35/1/1 39/2/1 32/3/1
f 35/1/1 38/4/1 39/2/1
f 32/1/1 40/2/1 31/3/1
f 32/1/1 39/4/1 40/2/1
f 31/1/1 41/2/1 33/3/1
f 31/1/1 40/4/1 41/2/1
f 33/1/1 42/2/1 34/3/1
f 33/1/1 41/4/1 42/2/1
f 43/1/1 23/2/1 44/3/1
f 43/1/1 22/4/1 23/2/1
f 45/1/1 26/2/1 46/3/1
f 45/1/1 25/4/1 26/2/1
f 46/1/1 27/2/1 47/3/1
f 46/1/1 26/4/1 27/2/1
f 48/1/1 25/2/1 45/3/1
f 48/1/1 24/4/1 25/2/1
f 47/1/1 28/2/1 49/3/1
f 47/1/1 27/4/1 28/2/1
f 44/1/1 24/2/1 48/3/1
f 44/1/1 23/4/1 24/2/1
f 28/1/1 50/2/1 51/3/1
f 28/1/1 19/4/1 50/2/1
f 51/1/1 52/2/1 53/3/1
f 51/1/1 50/4/1 52/2/1
f 54/1/1 55/2/1 56/3/1
f 54/1/1 57/4/1 55/2/1
f 58/1/1 59/2/1 60/3/1
f 58/1/1 61/4/1 59/2/1
f 60/1/1 62/2/1 63/3/1
f 60/1/1 59/4/1 62/2/1
f 63/1/1 64/2/1 65/3/1
f 63/1/1 62/4/1 64/2/1
f 66/5/2 67/6/2 68/7/2
f 67/6/2 69/8/2 68/7/2
f 70/9/2 66/10/2 71/11/2
f 66/10/2 68/12/2 71/11/2
f 72/9/2 70/10/2 73/11/2
f 70/10/2 71/12/2 73/11/2
f 74/1/1 60/2/1 75/3/1
f 74/1/1 58/4/1 60/2/1
f 76/1/1 77/2/1 78/3/1
f 76/1/1 79/4/1 77/2/1
f 80/1/1 79/2/1 76/3/1
f 80/1/1 56/4/1 79/2/1
f 81/1/1 56/2/1 80/3/1
f 81/1/1 54/4/1 56/2/1
f 82/1/1 54/2/1 81/3/1
f 82/1/1 53/4/1 54/2/1
f 83/1/1 53/2/1 82/3/1
f 83/1/1 51/4/1 53/2/1
f 49/1/1 51/2/1 83/3/1
f 49/1/1 28/4/1 51/2/1
f 78/1/1 58/2/1 74/3/1
f 78/1/1 77/4/1 58/2/1
f 75/1/1 63/2/1 84/3/1
f 75/1/1 60/4/1 63/2/1
f 84/1/1 65/2/1 85/3/1
f 84/1/1 63/4/1 65/2/1
f 86/4/2 72/5/2 87/13/2
f 72/5/2 73/7/2 87/13/2
f 53/1/1 57/2/1 54/3/1
f 53/1/1 52/4/1 57/2/1
f 56/1/1 88/2/1 79/3/1
f 56/1/1 55/4/1 88/2/1
f 79/1/1 89/2/1 77/3/1
f 79/1/1 88/4/1 89/2/1
f 77/1/1 61/2/1 58/3/1
f 77/1/1 89/4/1 61/2/1
f 90/5/2 86/6/2 91/7/2
f 86/6/2 87/8/2 91/7/2
f 92/9/2 90/10/2 93/11/2
f 90/10/2 91/12/2 93/11/2
f 20/1/1 94/2/1 95/3/1
f 20/1/1 34/4/1 94/2/1
f 95/1/1 96/2/1 97/3/1
f 95/1/1 94/4/1 96/2/1
f 98/1/1 99/2/1 69/3/1
f 98/1/1 100/4/1 99/2/1
f 69/1/1 101/2/1 68/3/1
f 69/1/1 99/4/1 101/2/1
f 68/1/1 102/2/1 71/3/1
f 68/1/1 101/4/1 102/2/1
f 71/1/1 103/2/1 73/3/1
f 71/1/1 102/4/1 103/2/1
f 73/1/1 104/2/1 87/3/1
f 73/1/1 103/4/1 104/2/1
f 87/1/1 105/2/1 91/3/1
f 87/1/1 104/4/1 105/2/1
f 91/1/1 106/2/1 93/3/1
f 91/1/1 105/4/1 106/2/1
f 44/11/2 107/10/2 108/9/2
f 44/11/2 48/12/2 107/10/2
f 43/13/2 108/5/2 109/4/2
f 43/13/2 44/7/2 108/5/2
f 97/1/1 100/2/1 98/3/1
f 97/1/1 96/4/1 100/2/1
f 34/1/1 110/2/1 94/3/1
f 34/1/1 42/4/1 110/2/1
f 94/1/1 111/2/1 96/3/1
f 94/1/1 110/4/1 111/2/1
f 96/1/1 112/2/1 100/3/1
f 96/1/1 111/4/1 112/2/1
f 100/1/1 113/2/1 99/3/1
f 100/1/1 112/4/1 113/2/1
f 99/1/1 114/2/1 101/3/1
f 99/1/1 113/4/1 114/2/1
f 101/1/1 115/2/1 102/3/1
f 101/1/1 114/4/1 115/2/1
f 103/1/1 116/2/1 104/3/1
f 103/1/1 117/4/1 116/2/1
f 105/1/1 118/2/1 106/3/1
f 105/1/1 119/4/1 118/2/1
f 82/13/2 120/5/2 121/4/2
f 82/13/2 81/7/2 120/5/2
f 81/11/2 122/10/2 120/9/2
f 81/11/2 80/12/2 122/10/2
f 80/11/2 123/10/2 122/9/2
f 80/11/2 76/12/2 123/10/2
f 76/7/2 124/6/2 123/5/2
f 76/7/2 78/8/2 124/6/2
f 104/1/1 119/2/1 105/3/1
f 104/1/1 116/4/1 119/2/1
f 102/1/1 117/2/1 103/3/1
f 102/1/1 115/4/1 117/2/1
f 5/13/3 125/5/3 126/4/3
f 5/13/3 127/7/3 125/5/3
f 127/11/3 128/10/3 125/9/3
f 127/11/3 129/12/3 128/10/3
f 129/11/3 130/10/3 128/9/3
f 129/11/3 131/12/3 130/10/3
f 131/7/3 132/6/3 130/5/3
f 131/7/3 22/8/3 132/6/3
f 22/13/3 133/5/3 132/4/3
f 22/13/3 134/7/3 133/5/3
f 134/11/3 135/10/3 133/9/3
f 134/11/3 136/12/3 135/10/3
f 136/11/3 137/10/3 135/9/3
f 136/11/3 138/12/3 137/10/3
f 138/7/3 109/6/3 137/5/3
f 138/7/3 43/8/3 109/6/3
f 139/7/3 140/6/3 141/5/3
f 139/7/3 4/8/3 140/6/3
f 142/11/3 141/10/3 143/9/3
f 142/11/3 139/12/3 141/10/3
f 144/11/3 143/10/3 145/9/3
f 144/11/3 142/12/3 143/10/3
f 30/13/3 145/5/3 146/4/3
f 30/13/3 144/7/3 145/5/3
f 147/7/3 146/6/3 148/5/3
f 147/7/3 30/8/3 146/6/3
f 149/11/3 148/10/3 150/9/3
f 149/11/3 147/12/3 148/10/3
f 151/11/3 150/10/3 152/9/3
f 151/11/3 149/12/3 150/10/3
f 37/13/3 152/5/3 153/4/3
f 37/13/3 151/7/3 152/5/3
f 154/7/4 155/6/4 156/5/4
f 154/7/4 20/8/4 155/6/4
f 157/11/4 156/10/4 158/9/4
f 157/11/4 154/12/4 156/10/4
f 159/11/4 158/10/4 160/9/4
f 159/11/4 157/12/4 158/10/4
f 18/13/4 160/5/4 161/4/4
f 18/13/4 159/7/4 160/5/4
f 162/7/4 161/6/4 163/5/4
f 162/7/4 18/8/4 161/6/4
f 164/11/4 163/10/4 165/9/4
f 164/11/4 162/12/4 163/10/4
f 166/11/4 165/10/4 167/9/4
f 166/11/4 164/12/4 165/10/4
f 19/13/4 167/5/4 168/4/4
f 19/13/4 166/7/4 167/5/4
f 169/5/5 170/6/5 61/7/5
f 170/6/5 59/8/5 61/7/5
f 171/9/5 169/10/5 89/11/5
f 169/10/5 61/12/5 89/11/5
f 172/9/5 171/10/5 88/11/5
f 171/10/5 89/12/5 88/11/5
f 173/4/5 172/5/5 55/13/5
f 172/5/5 88/7/5 55/13/5
f 174/5/5 173/6/5 57/7/5
f 173/6/5 55/8/5 57/7/5
f 175/9/5 174/10/5 52/11/5
f 174/10/5 57/12/5 52/11/5
f 176/9/5 175/10/5 50/11/5
f 175/10/5 52/12/5 50/11/5
f 168/4/5 176/5/5 19/13/5
f 176/5/5 50/7/5 19/13/5
f 83/7/2 121/6/2 177/5/2
f 83/7/2 82/8/2 121/6/2
f 49/11/2 177/10/2 178/9/2
f 49/11/2 83/12/2 177/10/2
f 47/11/2 178/10/2 179/9/2
f 47/11/2 49/12/2 178/10/2
f 46/13/2 179/5/2 180/4/2
f 46/13/2 47/7/2 179/5/2
f 45/7/2 180/6/2 181/5/2
f 45/7/2 46/8/2 180/6/2
f 48/11/2 181/10/2 107/9/2
f 48/11/2 45/12/2 181/10/2
f 182/9/5 183/10/5 62/11/5
f 183/10/5 64/12/5 62/11/5
f 170/4/5 182/5/5 59/13/5
f 182/5/5 62/7/5 59/13/5
f 184/5/2 155/6/2 95/7/2
f 155/6/2 20/8/2 95/7/2
f 185/9/2 184/10/2 97/11/2
f 184/10/2 95/12/2 97/11/2
f 186/9/2 185/10/2 98/11/2
f 185/10/2 97/12/2 98/11/2
f 67/4/2 186/5/2 69/13/2
f 186/5/2 98/7/2 69/13/2
f 76/7/2 124/6/2 123/5/2
f 76/7/2 78/8/2 124/6/2
f 80/11/2 123/10/2 122/9/2
f 80/11/2 76/12/2 123/10/2
f 81/11/2 122/10/2 120/9/2
f 81/11/2 80/12/2 122/10/2
f 82/13/2 120/5/2 121/4/2
f 82/13/2 81/7/2 120/5/2
f 36/7/5 153/6/5 187/5/5
f 36/7/5 37/8/5 153/6/5
f 38/11/5 187/10/5 188/9/5
f 38/11/5 36/12/5 187/10/5
f 39/11/5 188/10/5 189/9/5
f 39/11/5 38/12/5 188/10/5
f 40/13/5 189/5/5 190/4/5
f 40/13/5 39/7/5 189/5/5
f 111/13/5 191/5/5 192/4/5
f 111/13/5 110/7/5 191/5/5
f 110/11/5 193/10/5 191/9/5
f 110/11/5 42/12/5 193/10/5
f 42/11/5 194/10/5 193/9/5
f 42/11/5 41/12/5 194/10/5
f 41/7/5 190/6/5 194/5/5
f 41/7/5 40/8/5 190/6/5
f 115/13/5 195/5/5 196/4/5
f 115/13/5 114/7/5 195/5/5
f 114/11/5 197/10/5 195/9/5
f 114/11/5 113/12/5 197/10/5
f 113/11/5 198/10/5 197/9/5
f 113/11/5 112/12/5 198/10/5
f 112/7/5 192/6/5 198/5/5
f 112/7/5 111/8/5 192/6/5
f 199/1/6 195/2/6 200/3/6
f 199/1/6 196/4/6 195/2/6
f 200/1/6 197/2/6 201/3/6
f 200/1/6 195/4/6 197/2/6
f 201/1/6 198/2/6 202/3/6
f 201/1/6 197/4/6 198/2/6
f 202/1/6 192/2/6 203/3/6
f 202/1/6 198/4/6 192/2/6
f 203/1/6 191/2/6 204/3/6
f 203/1/6 192/4/6 191/2/6
f 204/1/6 193/2/6 205/3/6
f 204/1/6 191/4/6 193/2/6
f 205/1/6 194/2/6 206/3/6
f 205/1/6 193/4/6 194/2/6
f 206/1/6 190/2/6 207/3/6
f 206/1/6 194/4/6 190/2/6
f 207/1/6 189/2/6 208/3/6
f 207/1/6 190/4/6 189/2/6
f 208/1/6 188/2/6 209/3/6
f 208/1/6 189/4/6 188/2/6
f 209/1/6 187/2/6 210/3/6
f 209/1/6 188/4/6 187/2/6
f 210/1/6 153/2/6 146/3/6
f 210/1/6 187/4/6 153/2/6
f 211/1/6 146/2/6 140/3/6
f 211/1/6 210/4/6 146/2/6
f 212/1/6 210/2/6 211/3/6
f 212/1/6 209/4/6 210/2/6
f 213/1/6 209/2/6 212/3/6
f 213/1/6 208/4/6 209/2/6
f 214/1/6 208/2/6 213/3/6
f 214/1/6 207/4/6 208/2/6
f 215/1/6 207/2/6 214/3/6
f 215/1/6 206/4/6 207/2/6
f 155/1/6 206/2/6 215/3/6
f 155/1/6 205/4/6 206/2/6
f 184/1/6 205/2/6 155/3/6
f 184/1/6 204/4/6 205/2/6
f 185/1/6 204/2/6 184/3/6
f 185/1/6 203/4/6 204/2/6
f 186/1/6 203/2/6 185/3/6
f 186/1/6 202/4/6 203/2/6
f 67/1/6 202/2/6 186/3/6
f 67/1/6 201/4/6 202/2/6
f 66/1/6 201/2/6 67/3/6
f 66/1/6 200/4/6 201/2/6
f 70/1/6 200/2/6 66/3/6
f 70/1/6 199/4/6 200/2/6
f 216/1/6 196/2/6 199/3/6
f 216/1/6 217/4/6 196/2/6
f 218/1/6 217/2/6 216/3/6
f 218/1/6 219/4/6 217/2/6
f 86/1/6 216/2/6 72/3/6
f 86/1/6 218/4/6 216/2/6
f 72/1/6 199/2/6 70/3/6
f 72/1/6 216/4/6 199/2/6
f 220/1/6 219/2/6 218/3/6
f 220/1/6 221/4/6 219/2/6
f 222/1/6 221/2/6 220/3/6
f 222/1/6 223/4/6 221/2/6
f 92/1/6 220/2/6 90/3/6
f 92/1/6 222/4/6 220/2/6
f 90/1/6 218/2/6 86/3/6
f 90/1/6 220/4/6 218/2/6
f 224/1/6 140/2/6 225/3/6
f 224/1/6 211/4/6 140/2/6
f 226/1/6 211/2/6 224/3/6
f 226/1/6 212/4/6 211/2/6
f 227/1/6 212/2/6 226/3/6
f 227/1/6 213/4/6 212/2/6
f 228/1/6 213/2/6 227/3/6
f 228/1/6 214/4/6 213/2/6
f 229/1/6 214/2/6 228/3/6
f 229/1/6 215/4/6 214/2/6
f 161/1/6 215/2/6 229/3/6
f 161/1/6 155/4/6 215/2/6
f 168/1/6 229/2/6 230/3/6
f 168/1/6 161/4/6 229/2/6
f 230/1/6 228/2/6 231/3/6
f 230/1/6 229/4/6 228/2/6
f 231/1/6 227/2/6 232/3/6
f 231/1/6 228/4/6 227/2/6
f 232/1/6 226/2/6 233/3/6
f 232/1/6 227/4/6 226/2/6
f 233/1/6 224/2/6 234/3/6
f 233/1/6 226/4/6 224/2/6
f 234/1/6 225/2/6 126/3/6
f 234/1/6 224/4/6 225/2/6
f 235/1/6 234/2/6 236/3/6
f 235/1/6 233/4/6 234/2/6
f 237/1/6 232/2/6 238/3/6
f 237/1/6 231/4/6 232/2/6
f 239/1/6 231/2/6 237/3/6
f 239/1/6 230/4/6 231/2/6
f 240/1/6 230/2/6 239/3/6
f 240/1/6 168/4/6 230/2/6
f 238/1/6 233/2/6 235/3/6
f 238/1/6 232/4/6 233/2/6
f 236/1/6 126/2/6 132/3/6
f 236/1/6 234/4/6 126/2/6
f 178/1/6 239/2/6 179/3/6
f 178/1/6 240/4/6 239/2/6
f 108/1/6 132/2/6 109/3/6
f 108/1/6 236/4/6 132/2/6
f 107/1/6 236/2/6 108/3/6
f 107/1/6 235/4/6 236/2/6
f 181/1/6 235/2/6 107/3/6
f 181/1/6 238/4/6 235/2/6
f 180/1/6 238/2/6 181/3/6
f 180/1/6 237/4/6 238/2/6
f 179/1/6 237/2/6 180/3/6
f 179/1/6 239/4/6 237/2/6
f 177/1/6 240/2/6 178/3/6
f 177/1/6 241/4/6 240/2/6
f 121/1/6 241/2/6 177/3/6
f 121/1/6 242/4/6 241/2/6
f 120/1/6 242/2/6 121/3/6
f 120/1/6 243/4/6 242/2/6
f 122/1/6 243/2/6 120/3/6
f 122/1/6 244/4/6 243/2/6
f 123/1/6 244/2/6 122/3/6
f 123/1/6 245/4/6 244/2/6
f 124/1/6 245/2/6 123/3/6
f 124/1/6 246/4/6 245/2/6
f 247/1/6 246/2/6 124/3/6
f 247/1/6 248/4/6 246/2/6
f 249/1/6 248/2/6 247/3/6
f 249/1/6 250/4/6 248/2/6
f 251/1/6 250/2/6 249/3/6
f 251/1/6 252/4/6 250/2/6
f 253/1/6 252/2/6 251/3/6
f 253/1/6 254/4/6 252/2/6
f 254/1/6 182/2/6 252/3/6
f 254/1/6 183/4/6 182/2/6
f 252/1/6 170/2/6 250/3/6
f 252/1/6 182/4/6 170/2/6
f 250/1/6 169/2/6 248/3/6
f 250/1/6 170/4/6 169/2/6
f 248/1/6 171/2/6 246/3/6
f 248/1/6 169/4/6 171/2/6
f 246/1/6 172/2/6 245/3/6
f 246/1/6 171/4/6 172/2/6
f 245/1/6 173/2/6 244/3/6
f 245/1/6 172/4/6 173/2/6
f 244/1/6 174/2/6 243/3/6
f 244/1/6 173/4/6 174/2/6
f 243/1/6 175/2/6 242/3/6
f 243/1/6 174/4/6 175/2/6
f 242/1/6 176/2/6 241/3/6
f 242/1/6 175/4/6 176/2/6
f 241/1/6 168/2/6 240/3/6
f 241/1/6 176/4/6 168/2/6
f 255/3/6 256/2/6 257/1/6
f 256/2/6 258/4/6 257/1/6
f 257/3/6 258/2/6 259/1/6
f 258/2/6 260/4/6 259/1/6
f 259/3/6 260/2/6 261/1/6
f 260/2/6 262/4/6 261/1/6
f 261/3/6 262/2/6 263/1/6
f 262/2/6 264/4/6 263/1/6
f 263/3/6 264/2/6 265/1/6
f 264/2/6 266/4/6 265/1/6
f 265/3/6 266/2/6 267/1/6
f 266/2/6 268/4/6 267/1/6
f 267/3/6 268/2/6 269/1/6
f 268/2/6 270/4/6 269/1/6
f 269/3/6 270/2/6 271/1/6
f 270/2/6 272/4/6 271/1/6
f 271/3/6 272/2/6 273/1/6
f 272/2/6 274/4/6 273/1/6
f 273/3/6 274/2/6 254/1/6
f 274/2/6 183/4/6 254/1/6
f 275/3/6 273/2/6 253/1/6
f 273/2/6 254/4/6 253/1/6
f 276/3/6 271/2/6 275/1/6
f 271/2/6 273/4/6 275/1/6
f 277/3/6 269/2/6 276/1/6
f 269/2/6 271/4/6 276/1/6
f 278/3/6 267/2/6 277/1/6
f 267/2/6 269/4/6 277/1/6
f 279/3/6 265/2/6 278/1/6
f 265/2/6 267/4/6 278/1/6
f 280/3/6 263/2/6 279/1/6
f 263/2/6 265/4/6 279/1/6
f 281/3/6 261/2/6 280/1/6
f 261/2/6 263/4/6 280/1/6
f 282/3/6 259/2/6 281/1/6
f 259/2/6 261/4/6 281/1/6
f 283/3/6 257/2/6 282/1/6
f 257/2/6 259/4/6 282/1/6
f 284/3/6 255/2/6 283/1/6
f 255/2/6 257/4/6 283/1/6
f 285/3/6 286/2/6 287/1/6
f 286/2/6 288/4/6 287/1/6
f 289/3/6 290/2/6 285/1/6
f 290/2/6 286/4/6 285/1/6
f 291/3/6 292/2/6 289/1/6
f 292/2/6 290/4/6 289/1/6
f 293/3/6 294/2/6 291/1/6
f 294/2/6 292/4/6 291/1/6
f 295/3/6 296/2/6 293/1/6
f 296/2/6 294/4/6 293/1/6
f 287/3/6 288/2/6 284/1/6
f 288/2/6 255/4/6 284/1/6
f 296/3/6 297/2/6 294/1/6
f 297/2/6 298/4/6 294/1/6
f 292/3/6 299/2/6 290/1/6
f 299/2/6 300/4/6 290/1/6
f 288/3/6 301/2/6 255/1/6
f 301/2/6 256/4/6 255/1/6
f 286/3/6 302/2/6 288/1/6
f 302/2/6 301/4/6 288/1/6
f 290/3/6 300/2/6 286/1/6
f 300/2/6 302/4/6 286/1/6
f 294/3/6 298/2/6 292/1/6
f 298/2/6 299/4/6 292/1/6
f 297/3/6 303/2/6 298/1/6
f 303/2/6 304/4/6 298/1/6
f 298/3/6 304/2/6 299/1/6
f 304/2/6 305/4/6 299/1/6
f 299/3/6 305/2/6 300/1/6
f 305/2/6 306/4/6 300/1/6
f 300/3/6 306/2/6 302/1/6
f 306/2/6 307/4/6 302/1/6
f 302/3/6 307/2/6 301/1/6
f 307/2/6 308/4/6 301/1/6
f 301/3/6 308/2/6 256/1/6
f 308/2/6 309/4/6 256/1/6
f 282/4/2 281/5/2 310/13/2
f 281/5/2 311/7/2 310/13/2
f 281/9/2 280/10/2 311/11/2
f 280/10/2 312/12/2 311/11/2
f 280/9/2 279/10/2 312/11/2
f 279/10/2 313/12/2 312/11/2
f 279/5/2 278/6/2 313/7/2
f 278/6/2 314/8/2 313/7/2
f 315/13/5 274/5/5 272/4/5
f 315/13/5 316/7/5 274/5/5
f 316/11/5 183/10/5 274/9/5
f 316/11/5 64/12/5 183/10/5
f 291/9/2 289/10/2 317/11/2
f 289/10/2 318/12/2 317/11/2
f 289/5/2 285/6/2 318/7/2
f 285/6/2 319/8/2 318/7/2
f 285/4/2 287/5/2 319/13/2
f 287/5/2 320/7/2 319/13/2
f 287/9/2 284/10/2 320/11/2
f 284/10/2 321/12/2 320/11/2
f 284/9/2 283/10/2 321/11/2
f 283/10/2 322/12/2 321/11/2
f 283/5/2 282/6/2 322/7/2
f 282/6/2 310/8/2 322/7/2
f 323/13/5 258/5/5 256/4/5
f 323/13/5 324/7/5 258/5/5
f 324/11/5 260/10/5 258/9/5
f 324/11/5 325/12/5 260/10/5
f 325/11/5 262/10/5 260/9/5
f 325/11/5 326/12/5 262/10/5
f 326/7/5 264/6/5 262/5/5
f 326/7/5 327/8/5 264/6/5
f 327/13/5 266/5/5 264/4/5
f 327/13/5 328/7/5 266/5/5
f 328/11/5 268/10/5 266/9/5
f 328/11/5 329/12/5 268/10/5
f 329/11/5 270/10/5 268/9/5
f 329/11/5 330/12/5 270/10/5
f 330/7/5 272/6/5 270/5/5
f 330/7/5 315/8/5 272/6/5
f 256/4/3 331/5/3 323/13/3
f 331/5/3 332/7/3 323/13/3
f 279/5/2 278/6/2 313/7/2
f 278/6/2 314/8/2 313/7/2
f 280/9/2 279/10/2 312/11/2
f 279/10/2 313/12/2 312/11/2
f 281/9/2 280/10/2 311/11/2
f 280/10/2 312/12/2 311/11/2
f 282/4/2 281/5/2 310/13/2
f 281/5/2 311/7/2 310/13/2
f 295/4/2 293/5/2 333/13/2
f 293/5/2 334/7/2 333/13/2
f 293/9/2 291/10/2 334/11/2
f 291/10/2 317/12/2 334/11/2
f 335/3/1 330/2/1 336/1/1
f 330/2/1 329/4/1 336/1/1
f 336/3/1 329/2/1 337/1/1
f 329/2/1 328/4/1 337/1/1
f 337/3/1 328/2/1 338/1/1
f 328/2/1 327/4/1 338/1/1
f 339/3/1 326/2/1 340/1/1
f 326/2/1 325/4/1 340/1/1
f 85/3/1 65/2/1 341/1/1
f 65/2/1 342/4/1 341/1/1
f 341/3/1 342/2/1 343/1/1
f 342/2/1 344/4/1 343/1/1
f 345/3/1 335/2/1 314/1/1
f 335/2/1 336/4/1 314/1/1
f 322/3/1 346/2/1 321/1/1
f 346/2/1 347/4/1 321/1/1
f 310/3/1 340/2/1 322/1/1
f 340/2/1 346/4/1 322/1/1
f 311/3/1 339/2/1 310/1/1
f 339/2/1 340/4/1 310/1/1
f 312/3/1 338/2/1 311/1/1
f 338/2/1 339/4/1 311/1/1
f 313/3/1 337/2/1 312/1/1
f 337/2/1 338/4/1 312/1/1
f 314/3/1 336/2/1 313/1/1
f 336/2/1 337/4/1 313/1/1
f 343/3/1 344/2/1 345/1/1
f 344/2/1 335/4/1 345/1/1
f 65/3/1 64/2/1 342/1/1
f 64/2/1 316/4/1 342/1/1
f 342/3/1 316/2/1 344/1/1
f 316/2/1 315/4/1 344/1/1
f 344/3/1 315/2/1 335/1/1
f 315/2/1 330/4/1 335/1/1
f 338/3/1 327/2/1 339/1/1
f 327/2/1 326/4/1 339/1/1
f 340/3/1 325/2/1 346/1/1
f 325/2/1 324/4/1 346/1/1
f 346/3/1 324/2/1 347/1/1
f 324/2/1 323/4/1 347/1/1
f 317/3/1 348/2/1 334/1/1
f 348/2/1 349/4/1 334/1/1
f 321/3/1 347/2/1 320/1/1
f 347/2/1 350/4/1 320/1/1
f 318/3/1 351/2/1 317/1/1
f 351/2/1 348/4/1 317/1/1
f 320/3/1 350/2/1 319/1/1
f 350/2/1 352/4/1 319/1/1
f 319/3/1 352/2/1 318/1/1
f 352/2/1 351/4/1 318/1/1
f 334/3/1 349/2/1 333/1/1
f 349/2/1 353/4/1 333/1/1
f 347/3/1 323/2/1 350/1/1
f 323/2/1 354/4/1 350/1/1
f 350/3/1 354/2/1 352/1/1
f 354/2/1 355/4/1 352/1/1
f 352/3/1 355/2/1 351/1/1
f 355/2/1 356/4/1 351/1/1
f 351/3/1 356/2/1 348/1/1
f 356/2/1 357/4/1 348/1/1
f 348/3/1 357/2/1 349/1/1
f 357/2/1 358/4/1 349/1/1
f 349/3/1 358/2/1 353/1/1
f 358/2/1 359/4/1 353/1/1
f 323/3/1 360/2/1 354/1/1
f 360/2/1 361/4/1 354/1/1
f 354/3/1 361/2/1 355/1/1
f 361/2/1 362/4/1 355/1/1
f 355/3/1 362/2/1 356/1/1
f 362/2/1 363/4/1 356/1/1
f 356/3/1 363/2/1 357/1/1
f 363/2/1 364/4/1 357/1/1
f 357/3/1 364/2/1 358/1/1
f 364/2/1 365/4/1 358/1/1
f 358/3/1 365/2/1 359/1/1
f 365/2/1 366/4/1 359/1/1
f 367/5/4 295/6/4 368/7/4
f 295/6/4 333/8/4 368/7/4
f 369/9/4 367/10/4 370/11/4
f 367/10/4 368/12/4 370/11/4
f 371/9/4 369/10/4 372/11/4
f 369/10/4 370/12/4 372/11/4
f 296/4/4 371/5/4 353/13/4
f 371/5/4 372/7/4 353/13/4
f 373/5/4 296/6/4 374/7/4
f 296/6/4 353/8/4 374/7/4
f 375/9/4 373/10/4 376/11/4
f 373/10/4 374/12/4 376/11/4
f 377/9/4 375/10/4 378/11/4
f 375/10/4 376/12/4 378/11/4
f 297/4/4 377/5/4 359/13/4
f 377/5/4 378/7/4 359/13/4
f 308/3/6 379/2/6 309/1/6
f 379/2/6 380/4/6 309/1/6
f 307/3/6 381/2/6 308/1/6
f 381/2/6 379/4/6 308/1/6
f 306/3/6 382/2/6 307/1/6
f 382/2/6 381/4/6 307/1/6
f 305/3/6 383/2/6 306/1/6
f 383/2/6 382/4/6 306/1/6
f 304/3/6 384/2/6 305/1/6
f 384/2/6 383/4/6 305/1/6
f 303/3/6 385/2/6 304/1/6
f 385/2/6 384/4/6 304/1/6
f 386/3/6 387/2/6 388/1/6
f 387/2/6 389/4/6 388/1/6
f 388/3/6 389/2/6 92/1/6
f 389/2/6 222/4/6 92/1/6
f 389/3/6 390/2/6 222/1/6
f 390/2/6 223/4/6 222/1/6
f 387/3/6 391/2/6 389/1/6
f 391/2/6 390/4/6 389/1/6
f 392/3/6 393/2/6 394/1/6
f 393/2/6 395/4/6 394/1/6
f 394/3/6 395/2/6 386/1/6
f 395/2/6 387/4/6 386/1/6
f 395/3/6 396/2/6 387/1/6
f 396/2/6 391/4/6 387/1/6
f 393/3/6 397/2/6 395/1/6
f 397/2/6 396/4/6 395/1/6
f 398/3/6 399/2/6 392/1/6
f 399/2/6 393/4/6 392/1/6
f 400/3/6 401/2/6 398/1/6
f 401/2/6 399/4/6 398/1/6
f 402/3/6 403/2/6 400/1/6
f 403/2/6 401/4/6 400/1/6
f 404/3/6 405/2/6 402/1/6
f 405/2/6 403/4/6 402/1/6
f 406/3/6 407/2/6 404/1/6
f 407/2/6 405/4/6 404/1/6
f 380/3/6 408/2/6 406/1/6
f 408/2/6 407/4/6 406/1/6
f 379/3/6 409/2/6 380/1/6
f 409/2/6 408/4/6 380/1/6
f 381/3/6 410/2/6 379/1/6
f 410/2/6 409/4/6 379/1/6
f 382/3/6 411/2/6 381/1/6
f 411/2/6 410/4/6 381/1/6
f 383/3/6 412/2/6 382/1/6
f 412/2/6 411/4/6 382/1/6
f 384/3/6 413/2/6 383/1/6
f 413/2/6 412/4/6 383/1/6
f 385/3/6 414/2/6 384/1/6
f 414/2/6 413/4/6 384/1/6
f 414/3/6 415/2/6 413/1/6
f 415/2/6 416/4/6 413/1/6
f 413/3/6 416/2/6 412/1/6
f 416/2/6 417/4/6 412/1/6
f 412/3/6 417/2/6 411/1/6
f 417/2/6 418/4/6 411/1/6
f 411/3/6 418/2/6 410/1/6
f 418/2/6 419/4/6 410/1/6
f 410/3/6 419/2/6 409/1/6
f 419/2/6 420/4/6 409/1/6
f 409/3/6 420/2/6 408/1/6
f 420/2/6 421/4/6 408/1/6
f 408/3/6 421/2/6 407/1/6
f 421/2/6 422/4/6 407/1/6
f 407/3/6 422/2/6 405/1/6
f 422/2/6 423/4/6 405/1/6
f 405/3/6 423/2/6 403/1/6
f 423/2/6 424/4/6 403/1/6
f 403/3/6 424/2/6 401/1/6
f 424/2/6 425/4/6 401/1/6
f 401/3/6 425/2/6 399/1/6
f 425/2/6 426/4/6 399/1/6
f 399/3/6 426/2/6 393/1/6
f 426/2/6 397/4/6 393/1/6
f 424/5/5 423/6/5 427/7/5
f 423/6/5 428/8/5 427/7/5
f 425/9/5 424/10/5 429/11/5
f 424/10/5 427/12/5 429/11/5
f 426/9/5 425/10/5 430/11/5
f 425/10/5 429/12/5 430/11/5
f 397/4/5 426/5/5 431/13/5
f 426/5/5 430/7/5 431/13/5
f 420/5/5 419/6/5 432/7/5
f 419/6/5 433/8/5 432/7/5
f 421/9/5 420/10/5 434/11/5
f 420/10/5 432/12/5 434/11/5
f 422/9/5 421/10/5 435/11/5
f 421/10/5 434/12/5 435/11/5
f 423/4/5 422/5/5 428/13/5
f 422/5/5 435/7/5 428/13/5
f 419/4/5 418/5/5 433/13/5
f 418/5/5 436/7/5 433/13/5
f 418/9/5 417/10/5 436/11/5
f 417/10/5 437/12/5 436/11/5
f 417/9/5 416/10/5 437/11/5
f 416/10/5 438/12/5 437/11/5
f 416/5/5 415/6/5 438/7/5
f 415/6/5 439/8/5 438/7/5
f 440/13/2 402/5/2 400/4/2
f 440/13/2 441/7/2 402/5/2
f 441/11/2 404/10/2 402/9/2
f 441/11/2 442/12/2 404/10/2
f 442/11/2 406/10/2 404/9/2
f 442/11/2 443/12/2 406/10/2
f 443/7/2 380/6/2 406/5/2
f 443/7/2 444/8/2 380/6/2
f 331/9/3 445/10/3 332/11/3
f 445/10/3 446/12/3 332/11/3
f 445/9/3 447/10/3 446/11/3
f 447/10/3 448/12/3 446/11/3
f 447/5/3 309/6/3 448/7/3
f 309/6/3 360/8/3 448/7/3
f 309/4/3 449/5/3 360/13/3
f 449/5/3 450/7/3 360/13/3
f 449/9/3 451/10/3 450/11/3
f 451/10/3 452/12/3 450/11/3
f 451/9/3 453/10/3 452/11/3
f 453/10/3 454/12/3 452/11/3
f 453/5/3 380/6/3 454/7/3
f 380/6/3 444/8/3 454/7/3
f 455/3/1 456/2/1 457/1/1
f 456/2/1 431/4/1 457/1/1
f 458/3/1 459/2/1 460/1/1
f 459/2/1 461/4/1 460/1/1
f 106/3/1 118/2/1 458/1/1
f 118/2/1 459/4/1 458/1/1
f 460/3/1 461/2/1 455/1/1
f 461/2/1 456/4/1 455/1/1
f 457/3/1 431/2/1 462/1/1
f 431/2/1 430/4/1 462/1/1
f 462/3/1 430/2/1 463/1/1
f 430/2/1 429/4/1 463/1/1
f 463/3/1 429/2/1 464/1/1
f 429/2/1 427/4/1 464/1/1
f 464/3/1 427/2/1 465/1/1
f 427/2/1 428/4/1 465/1/1
f 465/3/1 428/2/1 466/1/1
f 428/2/1 435/4/1 466/1/1
f 466/3/1 435/2/1 467/1/1
f 435/2/1 434/4/1 467/1/1
f 441/3/1 464/2/1 442/1/1
f 464/2/1 465/4/1 442/1/1
f 93/3/1 106/2/1 468/1/1
f 106/2/1 458/4/1 468/1/1
f 468/3/1 458/2/1 469/1/1
f 458/2/1 460/4/1 469/1/1
f 469/3/1 460/2/1 470/1/1
f 460/2/1 455/4/1 470/1/1
f 470/3/1 455/2/1 471/1/1
f 455/2/1 457/4/1 471/1/1
f 471/3/1 457/2/1 472/1/1
f 457/2/1 462/4/1 472/1/1
f 472/3/1 462/2/1 440/1/1
f 462/2/1 463/4/1 440/1/1
f 440/3/1 463/2/1 441/1/1
f 463/2/1 464/4/1 441/1/1
f 442/3/1 465/2/1 443/1/1
f 465/2/1 466/4/1 443/1/1
f 443/3/1 466/2/1 444/1/1
f 466/2/1 467/4/1 444/1/1
f 93/11/2 388/10/2 92/9/2
f 93/11/2 468/12/2 388/10/2
f 468/7/2 386/6/2 388/5/2
f 468/7/2 469/8/2 386/6/2
f 469/13/2 394/5/2 386/4/2
f 469/13/2 470/7/2 394/5/2
f 470/11/2 392/10/2 394/9/2
f 470/11/2 471/12/2 392/10/2
f 471/11/2 398/10/2 392/9/2
f 471/11/2 472/12/2 398/10/2
f 472/7/2 400/6/2 398/5/2
f 472/7/2 440/8/2 400/6/2
f 467/3/1 434/2/1 473/1/1
f 434/2/1 432/4/1 473/1/1
f 473/3/1 432/2/1 474/1/1
f 432/2/1 433/4/1 474/1/1
f 474/3/1 433/2/1 475/1/1
f 433/2/1 436/4/1 475/1/1
f 475/3/1 436/2/1 476/1/1
f 436/2/1 437/4/1 476/1/1
f 476/3/1 437/2/1 477/1/1
f 437/2/1 438/4/1 477/1/1
f 477/3/1 438/2/1 478/1/1
f 438/2/1 439/4/1 478/1/1
f 479/3/1 476/2/1 480/1/1
f 476/2/1 477/4/1 480/1/1
f 481/3/1 475/2/1 479/1/1
f 475/2/1 476/4/1 479/1/1
f 444/3/1 467/2/1 482/1/1
f 467/2/1 473/4/1 482/1/1
f 482/3/1 473/2/1 483/1/1
f 473/2/1 474/4/1 483/1/1
f 483/3/1 474/2/1 481/1/1
f 474/2/1 475/4/1 481/1/1
f 480/3/1 477/2/1 484/1/1
f 477/2/1 478/4/1 484/1/1
f 361/3/1 482/2/1 362/1/1
f 482/2/1 483/4/1 362/1/1
f 360/3/1 444/2/1 361/1/1
f 444/2/1 482/4/1 361/1/1
f 364/3/1 479/2/1 365/1/1
f 479/2/1 480/4/1 365/1/1
f 363/3/1 481/2/1 364/1/1
f 481/2/1 479/4/1 364/1/1
f 362/3/1 483/2/1 363/1/1
f 483/2/1 481/4/1 363/1/1
f 365/3/1 480/2/1 366/1/1
f 480/2/1 484/4/1 366/1/1
f 415/4/4 485/5/4 439/13/4
f 485/5/4 486/7/4 439/13/4
f 485/9/4 487/10/4 486/11/4
f 487/10/4 488/12/4 486/11/4
f 487/9/4 489/10/4 488/11/4
f 489/10/4 490/12/4 488/11/4
f 489/5/4 414/6/4 490/7/4
f 414/6/4 478/8/4 490/7/4
f 414/4/4 491/5/4 478/13/4
f 491/5/4 492/7/4 478/13/4
f 491/9/4 493/10/4 492/11/4
f 493/10/4 494/12/4 492/11/4
f 493/9/4 495/10/4 494/11/4
f 495/10/4 496/12/4 494/11/4
f 495/5/4 385/6/4 496/7/4
f 385/6/4 484/8/4 496/7/4
