mtllib House_Hallway.mtl
o Default
v -1.28 0 0
v 0 0 -0.32
v -1.28 0 -0.32
v 0 0 0
v 1.28 0 -0.32
v 1.28 0 0
v 1.28 0 -0.64
v 0 0 -0.64
v 1.28 0 -0.96
v 0 0 -0.96
v -1.28 0 -0.64
v -1.28 1.92 -0.96
v -1.28 1.92 -0.64
v -1.28 0 -0.96
v -1.28 1.92 -1.28
v -1.28 0 -1.28
v -1.28 1.92 -0.32
v -1.28 1.92 0
v 0 1.92 0
v 0 1.92 -0.32
v 1.28 0 -1.28
v 0 0 -1.28
v 1.28 1.92 0
v 1.28 1.92 -0.32
v 1.28 1.92 -0.96
v 1.28 1.92 -1.28
v 1.28 1.92 -0.64
v 0 1.92 -0.64
v 0 1.92 -0.96
v 0 1.92 -1.28
v -1.28 0 -1.6
v 0 0 -1.92
v -1.28 0 -1.92
v 0 0 -1.6
v 0 0 -2.24
v -1.28 0 -2.24
v 0 0 -2.56
v -1.28 0 -2.56
v 1.28 0 -2.56
v 1.28 0 -2.24
v -1.28 1.92 -1.92
v -1.28 1.92 -1.6
v -1.28 1.92 -2.56
v -1.28 1.92 -2.24
v 1.28 0 -1.92
v 1.28 0 -1.6
v 0 1.92 -1.6
v 0 1.92 -1.92
v 0 1.92 -2.24
v 0 1.92 -2.56
v 1.28 1.92 -2.24
v 1.28 1.92 -2.56
v 1.28 1.92 -1.92
v 1.28 1.92 -1.6
v -1.28 0 -2.88
v 0 0 -3.2
v -1.28 0 -3.2
v 0 0 -2.88
v 0 0 -3.52
v -1.28 0 -3.52
v 0 0 -3.84
v -1.28 0 -3.84
v 1.28 0 -3.84
v 1.28 0 -3.52
v -1.28 1.92 -3.2
v -1.28 1.92 -2.88
v -1.28 1.92 -3.84
v -1.28 1.92 -3.52
v 1.28 0 -3.2
v 1.28 0 -2.88
v 0 1.92 -2.88
v 0 1.92 -3.2
v 0 1.92 -3.52
v 0 1.92 -3.84
v 1.28 1.92 -3.52
v 1.28 1.92 -3.84
v 1.28 1.92 -3.2
v 1.28 1.92 -2.88
v -1.28 0 -4.16
v 0 0 -4.48
v -1.28 0 -4.48
v 0 0 -4.16
v 0 0 -4.8
v -1.28 0 -4.8
v 0 0 -5.12
v -1.28 0 -5.12
v 1.28 0 -5.12
v 1.28 0 -4.8
v -1.28 1.92 -4.48
v -1.28 1.92 -4.16
v -1.28 1.92 -5.12
v -1.28 1.92 -4.8
v 1.28 0 -4.48
v 1.28 0 -4.16
v 0 1.92 -4.16
v 0 1.92 -4.48
v 0 1.92 -4.8
v 0 1.92 -5.12
v 1.28 1.92 -4.8
v 1.28 1.92 -5.12
v 1.28 1.92 -4.48
v 1.28 1.92 -4.16
vt 0 0.875
vt 0.5 1
vt 0 1
vt 0.5 0.875
vt 0.5625 0.125
vt 0.6875 0.875
vt 0.5625 0.875
vt 0.6875 0.125
vt 0.625 0.125
vt 0.75 0.875
vt 0.625 0.875
vt 0.75 0.125
vt 0.5 0.125
vn 0 1 0
vn 1 0 0
vn 0 -1 0
vn -1 0 0
g Scene
usemtl 0
f 1/1/1 2/2/1 3/3/1
f 1/1/1 4/4/1 2/2/1
f 4/1/1 5/2/1 2/3/1
f 4/1/1 6/4/1 5/2/1
f 2/1/1 7/2/1 8/3/1
f 2/1/1 5/4/1 7/2/1
f 8/1/1 9/2/1 10/3/1
f 8/1/1 7/4/1 9/2/1
f 11/5/2 12/6/2 13/7/2
f 11/5/2 14/8/2 12/6/2
f 14/9/2 15/10/2 12/11/2
f 14/9/2 16/12/2 15/10/2
f 1/13/2 17/11/2 18/4/2
f 1/13/2 3/9/2 17/11/2
f 3/5/2 13/6/2 17/7/2
f 3/5/2 11/8/2 13/6/2
f 17/1/3 19/2/3 18/3/3
f 17/1/3 20/4/3 19/2/3
f 10/1/1 21/2/1 22/3/1
f 10/1/1 9/4/1 21/2/1
f 5/9/4 23/10/4 24/11/4
f 5/9/4 6/12/4 23/10/4
f 21/13/4 25/11/4 26/4/4
f 21/13/4 9/9/4 25/11/4
f 9/5/4 27/6/4 25/7/4
f 9/5/4 7/8/4 27/6/4
f 7/5/4 24/6/4 27/7/4
f 7/5/4 5/8/4 24/6/4
f 20/1/3 23/2/3 19/3/3
f 20/1/3 24/4/3 23/2/3
f 28/1/3 24/2/3 20/3/3
f 28/1/3 27/4/3 24/2/3
f 29/1/3 27/2/3 28/3/3
f 29/1/3 25/4/3 27/2/3
f 30/1/3 25/2/3 29/3/3
f 30/1/3 26/4/3 25/2/3
f 14/1/1 22/2/1 16/3/1
f 14/1/1 10/4/1 22/2/1
f 11/1/1 10/2/1 14/3/1
f 11/1/1 8/4/1 10/2/1
f 3/1/1 8/2/1 11/3/1
f 3/1/1 2/4/1 8/2/1
f 15/1/3 29/2/3 12/3/3
f 15/1/3 30/4/3 29/2/3
f 12/1/3 28/2/3 13/3/3
f 12/1/3 29/4/3 28/2/3
f 13/1/3 20/2/3 17/3/3
f 13/1/3 28/4/3 20/2/3
f 31/1/1 32/2/1 33/3/1
f 31/1/1 34/4/1 32/2/1
f 33/1/1 35/2/1 36/3/1
f 33/1/1 32/4/1 35/2/1
f 36/1/1 37/2/1 38/3/1
f 36/1/1 35/4/1 37/2/1
f 35/1/1 39/2/1 37/3/1
f 35/1/1 40/4/1 39/2/1
f 31/5/2 41/6/2 42/7/2
f 31/5/2 33/8/2 41/6/2
f 16/13/2 42/11/2 15/4/2
f 16/13/2 31/9/2 42/11/2
f 36/9/2 43/10/2 44/11/2
f 36/9/2 38/12/2 43/10/2
f 33/5/2 44/6/2 41/7/2
f 33/5/2 36/8/2 44/6/2
f 32/1/1 40/2/1 35/3/1
f 32/1/1 45/4/1 40/2/1
f 34/1/1 45/2/1 32/3/1
f 34/1/1 46/4/1 45/2/1
f 22/1/1 46/2/1 34/3/1
f 22/1/1 21/4/1 46/2/1
f 16/1/1 34/2/1 31/3/1
f 16/1/1 22/4/1 34/2/1
f 41/1/3 47/2/3 42/3/3
f 41/1/3 48/4/3 47/2/3
f 44/1/3 48/2/3 41/3/3
f 44/1/3 49/4/3 48/2/3
f 43/1/3 49/2/3 44/3/3
f 43/1/3 50/4/3 49/2/3
f 50/1/3 51/2/3 49/3/3
f 50/1/3 52/4/3 51/2/3
f 49/1/3 53/2/3 48/3/3
f 49/1/3 51/4/3 53/2/3
f 48/1/3 54/2/3 47/3/3
f 48/1/3 53/4/3 54/2/3
f 47/1/3 26/2/3 30/3/3
f 47/1/3 54/4/3 26/2/3
f 42/1/3 30/2/3 15/3/3
f 42/1/3 47/4/3 30/2/3
f 45/5/4 54/6/4 53/7/4
f 45/5/4 46/8/4 54/6/4
f 40/5/4 53/6/4 51/7/4
f 40/5/4 45/8/4 53/6/4
f 39/13/4 51/11/4 52/4/4
f 39/13/4 40/9/4 51/11/4
f 46/9/4 26/10/4 54/11/4
f 46/9/4 21/12/4 26/10/4
f 55/1/1 56/2/1 57/3/1
f 55/1/1 58/4/1 56/2/1
f 57/1/1 59/2/1 60/3/1
f 57/1/1 56/4/1 59/2/1
f 60/1/1 61/2/1 62/3/1
f 60/1/1 59/4/1 61/2/1
f 59/1/1 63/2/1 61/3/1
f 59/1/1 64/4/1 63/2/1
f 55/5/2 65/6/2 66/7/2
f 55/5/2 57/8/2 65/6/2
f 38/13/2 66/11/2 43/4/2
f 38/13/2 55/9/2 66/11/2
f 60/9/2 67/10/2 68/11/2
f 60/9/2 62/12/2 67/10/2
f 57/5/2 68/6/2 65/7/2
f 57/5/2 60/8/2 68/6/2
f 56/1/1 64/2/1 59/3/1
f 56/1/1 69/4/1 64/2/1
f 58/1/1 69/2/1 56/3/1
f 58/1/1 70/4/1 69/2/1
f 37/1/1 70/2/1 58/3/1
f 37/1/1 39/4/1 70/2/1
f 38/1/1 58/2/1 55/3/1
f 38/1/1 37/4/1 58/2/1
f 65/1/3 71/2/3 66/3/3
f 65/1/3 72/4/3 71/2/3
f 68/1/3 72/2/3 65/3/3
f 68/1/3 73/4/3 72/2/3
f 67/1/3 73/2/3 68/3/3
f 67/1/3 74/4/3 73/2/3
f 74/1/3 75/2/3 73/3/3
f 74/1/3 76/4/3 75/2/3
f 73/1/3 77/2/3 72/3/3
f 73/1/3 75/4/3 77/2/3
f 72/1/3 78/2/3 71/3/3
f 72/1/3 77/4/3 78/2/3
f 71/1/3 52/2/3 50/3/3
f 71/1/3 78/4/3 52/2/3
f 66/1/3 50/2/3 43/3/3
f 66/1/3 71/4/3 50/2/3
f 69/5/4 78/6/4 77/7/4
f 69/5/4 70/8/4 78/6/4
f 64/5/4 77/6/4 75/7/4
f 64/5/4 69/8/4 77/6/4
f 63/13/4 75/11/4 76/4/4
f 63/13/4 64/9/4 75/11/4
f 70/9/4 52/10/4 78/11/4
f 70/9/4 39/12/4 52/10/4
f 79/1/1 80/2/1 81/3/1
f 79/1/1 82/4/1 80/2/1
f 81/1/1 83/2/1 84/3/1
f 81/1/1 80/4/1 83/2/1
f 84/1/1 85/2/1 86/3/1
f 84/1/1 83/4/1 85/2/1
f 83/1/1 87/2/1 85/3/1
f 83/1/1 88/4/1 87/2/1
f 79/5/2 89/6/2 90/7/2
f 79/5/2 81/8/2 89/6/2
f 62/13/2 90/11/2 67/4/2
f 62/13/2 79/9/2 90/11/2
f 84/9/2 91/10/2 92/11/2
f 84/9/2 86/12/2 91/10/2
f 81/5/2 92/6/2 89/7/2
f 81/5/2 84/8/2 92/6/2
f 80/1/1 88/2/1 83/3/1
f 80/1/1 93/4/1 88/2/1
f 82/1/1 93/2/1 80/3/1
f 82/1/1 94/4/1 93/2/1
f 61/1/1 94/2/1 82/3/1
f 61/1/1 63/4/1 94/2/1
f 62/1/1 82/2/1 79/3/1
f 62/1/1 61/4/1 82/2/1
f 89/1/3 95/2/3 90/3/3
f 89/1/3 96/4/3 95/2/3
f 92/1/3 96/2/3 89/3/3
f 92/1/3 97/4/3 96/2/3
f 91/1/3 97/2/3 92/3/3
f 91/1/3 98/4/3 97/2/3
f 98/1/3 99/2/3 97/3/3
f 98/1/3 100/4/3 99/2/3
f 97/1/3 101/2/3 96/3/3
f 97/1/3 99/4/3 101/2/3
f 96/1/3 102/2/3 95/3/3
f 96/1/3 101/4/3 102/2/3
f 95/1/3 76/2/3 74/3/3
f 95/1/3 102/4/3 76/2/3
f 90/1/3 74/2/3 67/3/3
f 90/1/3 95/4/3 74/2/3
f 93/5/4 102/6/4 101/7/4
f 93/5/4 94/8/4 102/6/4
f 88/5/4 101/6/4 99/7/4
f 88/5/4 93/8/4 101/6/4
f 87/13/4 99/11/4 100/4/4
f 87/13/4 88/9/4 99/11/4
f 94/9/4 76/10/4 102/11/4
f 94/9/4 63/12/4 76/10/4
