mtllib lowTable.mtl
o Default
v 0 -0.9375 0.1875 1 1 1 1
v 0 -0.9375 0.6875 1 1 1 1
v 0 -1.9375 0.6875 1 1 1 1
v 0 -1.9375 0.1875 1 1 1 1
v 0 -0.9375 0.6875 1 1 1 1
v 0 -0.6875 -2.8125 1 1 1 1
v 0 -0.9375 -2.8125 1 1 1 1
v 0 -0.6875 0.6875 1 1 1 1
v 0 -0.9375 -2.8125 1 1 1 1
v 3.5 -0.6875 -2.8125 1 1 1 1
v 3.5 -0.9375 -2.8125 1 1 1 1
v 0 -0.6875 -2.8125 1 1 1 1
v 3.5 -0.9375 -2.8125 1 1 1 1
v 3.5 -0.6875 0.6875 1 1 1 1
v 3.5 -0.9375 0.6875 1 1 1 1
v 3.5 -0.6875 -2.8125 1 1 1 1
v 3.5 -0.9375 0.6875 1 1 1 1
v 0 -0.6875 0.6875 1 1 1 1
v 0 -0.9375 0.6875 1 1 1 1
v 3.5 -0.6875 0.6875 1 1 1 1
v 0 -0.9375 0.6875 1 1 1 1
v 0.5 -1.9375 0.6875 1 1 1 1
v 0.5 -0.9375 0.6875 1 1 1 1
v 0 -1.9375 0.6875 1 1 1 1
v 3 -0.9375 0.6875 1 1 1 1
v 3.5 -1.9375 0.6875 1 1 1 1
v 3.5 -0.9375 0.6875 1 1 1 1
v 3 -1.9375 0.6875 1 1 1 1
v 3.5 -0.9375 0.6875 1 1 1 1
v 3.5 -1.9375 0.1875 1 1 1 1
v 3.5 -0.9375 0.1875 1 1 1 1
v 3.5 -1.9375 0.6875 1 1 1 1
v 3.5 -0.9375 -2.3125 1 1 1 1
v 3.5 -1.9375 -2.8125 1 1 1 1
v 3.5 -0.9375 -2.8125 1 1 1 1
v 3.5 -1.9375 -2.3125 1 1 1 1
v 3.5 -0.9375 -2.8125 1 1 1 1
v 3 -1.9375 -2.8125 1 1 1 1
v 3 -0.9375 -2.8125 1 1 1 1
v 3.5 -1.9375 -2.8125 1 1 1 1
v 0.5 -0.9375 -2.8125 1 1 1 1
v 0 -1.9375 -2.8125 1 1 1 1
v 0 -0.9375 -2.8125 1 1 1 1
v 0.5 -1.9375 -2.8125 1 1 1 1
v 0 -0.9375 -2.8125 1 1 1 1
v 0 -1.9375 -2.3125 1 1 1 1
v 0 -0.9375 -2.3125 1 1 1 1
v 0 -1.9375 -2.8125 1 1 1 1
v 0 -1.9375 -2.8125 1 1 1 1
v 0.5 -1.9375 -2.3125 1 1 1 1
v 0 -1.9375 -2.3125 1 1 1 1
v 0.5 -1.9375 -2.8125 1 1 1 1
v 3.5 -0.9375 0.6875 1 1 1 1
v 0 -0.9375 -2.8125 1 1 1 1
v 3.5 -0.9375 -2.8125 1 1 1 1
v 0 -0.9375 0.6875 1 1 1 1
v 0 -0.6875 0.6875 1 1 1 1
v 3.5 -0.6875 -2.8125 1 1 1 1
v 0 -0.6875 -2.8125 1 1 1 1
v 3.5 -0.6875 0.6875 1 1 1 1
v 0 -1.9375 0.1875 1 1 1 1
v 0.5 -1.9375 0.6875 1 1 1 1
v 0 -1.9375 0.6875 1 1 1 1
v 0.5 -1.9375 0.1875 1 1 1 1
v 3 -1.9375 -2.8125 1 1 1 1
v 3.5 -1.9375 -2.3125 1 1 1 1
v 3 -1.9375 -2.3125 1 1 1 1
v 3.5 -1.9375 -2.8125 1 1 1 1
v 2.9375 -1.9375 0.1875 1 1 1 1
v 3.4375 -1.9375 0.6875 1 1 1 1
v 2.9375 -1.9375 0.6875 1 1 1 1
v 3.4375 -1.9375 0.1875 1 1 1 1
v 3.5 -1.9375 0.1875 1 1 1 1
v 3.25 -1.6875 0.1875 1 1 1 1
v 3.5 -1.6875 0.1875 1 1 1 1
v 3.25 -1.9375 0.1875 1 1 1 1
v 3.5 -1.1875 0.1875 1 1 1 1
v 3.25 -0.9375 0.1875 1 1 1 1
v 3.5 -0.9375 0.1875 1 1 1 1
v 3.25 -1.1875 0.1875 1 1 1 1
v 3.25 -1.1875 0.1875 1 1 1 1
v 3 -0.9375 0.1875 1 1 1 1
v 3.25 -0.9375 0.1875 1 1 1 1
v 3 -1.1875 0.1875 1 1 1 1
v 3.25 -1.4375 0.1875 1 1 1 1
v 3 -1.1875 0.1875 1 1 1 1
v 3.25 -1.1875 0.1875 1 1 1 1
v 3 -1.4375 0.1875 1 1 1 1
v 3.5 -1.4375 0.1875 1 1 1 1
v 3.25 -1.1875 0.1875 1 1 1 1
v 3.5 -1.1875 0.1875 1 1 1 1
v 3.25 -1.4375 0.1875 1 1 1 1
v 3.5 -1.6875 0.1875 1 1 1 1
v 3.25 -1.4375 0.1875 1 1 1 1
v 3.5 -1.4375 0.1875 1 1 1 1
v 3.25 -1.6875 0.1875 1 1 1 1
v 3.25 -1.6875 0.1875 1 1 1 1
v 3 -1.4375 0.1875 1 1 1 1
v 3.25 -1.4375 0.1875 1 1 1 1
v 3 -1.6875 0.1875 1 1 1 1
v 3.25 -1.9375 0.1875 1 1 1 1
v 3 -1.6875 0.1875 1 1 1 1
v 3.25 -1.6875 0.1875 1 1 1 1
v 3 -1.9375 0.1875 1 1 1 1
v 3 -1.1875 0.1875 1 1 1 1
v 3 -0.9375 0.4375 1 1 1 1
v 3 -0.9375 0.1875 1 1 1 1
v 3 -1.1875 0.4375 1 1 1 1
v 3 -1.4375 0.1875 1 1 1 1
v 3 -1.1875 0.4375 1 1 1 1
v 3 -1.1875 0.1875 1 1 1 1
v 3 -1.4375 0.4375 1 1 1 1
v 3 -1.6875 0.1875 1 1 1 1
v 3 -1.4375 0.4375 1 1 1 1
v 3 -1.4375 0.1875 1 1 1 1
v 3 -1.6875 0.4375 1 1 1 1
v 3 -1.9375 0.1875 1 1 1 1
v 3 -1.6875 0.4375 1 1 1 1
v 3 -1.6875 0.1875 1 1 1 1
v 3 -1.9375 0.4375 1 1 1 1
v 3 -1.9375 0.4375 1 1 1 1
v 3 -1.6875 0.6875 1 1 1 1
v 3 -1.6875 0.4375 1 1 1 1
v 3 -1.9375 0.6875 1 1 1 1
v 3 -1.6875 0.4375 1 1 1 1
v 3 -1.4375 0.6875 1 1 1 1
v 3 -1.4375 0.4375 1 1 1 1
v 3 -1.6875 0.6875 1 1 1 1
v 3 -1.4375 0.4375 1 1 1 1
v 3 -1.1875 0.6875 1 1 1 1
v 3 -1.1875 0.4375 1 1 1 1
v 3 -1.4375 0.6875 1 1 1 1
v 3 -1.1875 0.4375 1 1 1 1
v 3 -0.9375 0.6875 1 1 1 1
v 3 -0.9375 0.4375 1 1 1 1
v 3 -1.1875 0.6875 1 1 1 1
v 3.25 -1.1875 -2.3125 1 1 1 1
v 3.5 -0.9375 -2.3125 1 1 1 1
v 3.25 -0.9375 -2.3125 1 1 1 1
v 3.5 -1.1875 -2.3125 1 1 1 1
v 3.25 -1.4375 -2.3125 1 1 1 1
v 3.5 -1.1875 -2.3125 1 1 1 1
v 3.25 -1.1875 -2.3125 1 1 1 1
v 3.5 -1.4375 -2.3125 1 1 1 1
v 3.25 -1.6875 -2.3125 1 1 1 1
v 3.5 -1.4375 -2.3125 1 1 1 1
v 3.25 -1.4375 -2.3125 1 1 1 1
v 3.5 -1.6875 -2.3125 1 1 1 1
v 3.25 -1.9375 -2.3125 1 1 1 1
v 3.5 -1.6875 -2.3125 1 1 1 1
v 3.25 -1.6875 -2.3125 1 1 1 1
v 3.5 -1.9375 -2.3125 1 1 1 1
v 3 -1.9375 -2.3125 1 1 1 1
v 3.25 -1.6875 -2.3125 1 1 1 1
v 3 -1.6875 -2.3125 1 1 1 1
v 3.25 -1.9375 -2.3125 1 1 1 1
v 3 -1.6875 -2.3125 1 1 1 1
v 3.25 -1.4375 -2.3125 1 1 1 1
v 3 -1.4375 -2.3125 1 1 1 1
v 3.25 -1.6875 -2.3125 1 1 1 1
v 3 -1.4375 -2.3125 1 1 1 1
v 3.25 -1.1875 -2.3125 1 1 1 1
v 3 -1.1875 -2.3125 1 1 1 1
v 3.25 -1.4375 -2.3125 1 1 1 1
v 3 -1.1875 -2.3125 1 1 1 1
v 3.25 -0.9375 -2.3125 1 1 1 1
v 3 -0.9375 -2.3125 1 1 1 1
v 3.25 -1.1875 -2.3125 1 1 1 1
v 3 -1.9375 -2.5625 1 1 1 1
v 3 -1.6875 -2.3125 1 1 1 1
v 3 -1.6875 -2.5625 1 1 1 1
v 3 -1.9375 -2.3125 1 1 1 1
v 3 -1.6875 -2.5625 1 1 1 1
v 3 -1.4375 -2.3125 1 1 1 1
v 3 -1.4375 -2.5625 1 1 1 1
v 3 -1.6875 -2.3125 1 1 1 1
v 3 -1.6875 -2.8125 1 1 1 1
v 3 -1.4375 -2.5625 1 1 1 1
v 3 -1.4375 -2.8125 1 1 1 1
v 3 -1.6875 -2.5625 1 1 1 1
v 3 -1.4375 -2.8125 1 1 1 1
v 3 -1.1875 -2.5625 1 1 1 1
v 3 -1.1875 -2.8125 1 1 1 1
v 3 -1.4375 -2.5625 1 1 1 1
v 3 -1.4375 -2.5625 1 1 1 1
v 3 -1.1875 -2.3125 1 1 1 1
v 3 -1.1875 -2.5625 1 1 1 1
v 3 -1.4375 -2.3125 1 1 1 1
v 3 -1.1875 -2.5625 1 1 1 1
v 3 -0.9375 -2.3125 1 1 1 1
v 3 -0.9375 -2.5625 1 1 1 1
v 3 -1.1875 -2.3125 1 1 1 1
v 3 -1.1875 -2.8125 1 1 1 1
v 3 -0.9375 -2.5625 1 1 1 1
v 3 -0.9375 -2.8125 1 1 1 1
v 3 -1.1875 -2.5625 1 1 1 1
v 3 -1.9375 -2.8125 1 1 1 1
v 3 -1.6875 -2.5625 1 1 1 1
v 3 -1.6875 -2.8125 1 1 1 1
v 3 -1.9375 -2.5625 1 1 1 1
v 0 -1.9375 -2.3125 1 1 1 1
v 0.25 -1.6875 -2.3125 1 1 1 1
v 0 -1.6875 -2.3125 1 1 1 1
v 0.25 -1.9375 -2.3125 1 1 1 1
v 0 -1.1875 -2.3125 1 1 1 1
v 0.25 -0.9375 -2.3125 1 1 1 1
v 0 -0.9375 -2.3125 1 1 1 1
v 0.25 -1.1875 -2.3125 1 1 1 1
v 0.25 -1.1875 -2.3125 1 1 1 1
v 0.5 -0.9375 -2.3125 1 1 1 1
v 0.25 -0.9375 -2.3125 1 1 1 1
v 0.5 -1.1875 -2.3125 1 1 1 1
v 0.25 -1.4375 -2.3125 1 1 1 1
v 0.5 -1.1875 -2.3125 1 1 1 1
v 0.25 -1.1875 -2.3125 1 1 1 1
v 0.5 -1.4375 -2.3125 1 1 1 1
v 0 -1.4375 -2.3125 1 1 1 1
v 0.25 -1.1875 -2.3125 1 1 1 1
v 0 -1.1875 -2.3125 1 1 1 1
v 0.25 -1.4375 -2.3125 1 1 1 1
v 0 -1.6875 -2.3125 1 1 1 1
v 0.25 -1.4375 -2.3125 1 1 1 1
v 0 -1.4375 -2.3125 1 1 1 1
v 0.25 -1.6875 -2.3125 1 1 1 1
v 0.25 -1.6875 -2.3125 1 1 1 1
v 0.5 -1.4375 -2.3125 1 1 1 1
v 0.25 -1.4375 -2.3125 1 1 1 1
v 0.5 -1.6875 -2.3125 1 1 1 1
v 0.25 -1.9375 -2.3125 1 1 1 1
v 0.5 -1.6875 -2.3125 1 1 1 1
v 0.25 -1.6875 -2.3125 1 1 1 1
v 0.5 -1.9375 -2.3125 1 1 1 1
v 0.5 -1.1875 -2.3125 1 1 1 1
v 0.5 -0.9375 -2.5625 1 1 1 1
v 0.5 -0.9375 -2.3125 1 1 1 1
v 0.5 -1.1875 -2.5625 1 1 1 1
v 0.5 -1.4375 -2.3125 1 1 1 1
v 0.5 -1.1875 -2.5625 1 1 1 1
v 0.5 -1.1875 -2.3125 1 1 1 1
v 0.5 -1.4375 -2.5625 1 1 1 1
v 0.5 -1.6875 -2.3125 1 1 1 1
v 0.5 -1.4375 -2.5625 1 1 1 1
v 0.5 -1.4375 -2.3125 1 1 1 1
v 0.5 -1.6875 -2.5625 1 1 1 1
v 0.5 -1.9375 -2.3125 1 1 1 1
v 0.5 -1.6875 -2.5625 1 1 1 1
v 0.5 -1.6875 -2.3125 1 1 1 1
v 0.5 -1.9375 -2.5625 1 1 1 1
v 0.5 -1.9375 -2.5625 1 1 1 1
v 0.5 -1.6875 -2.8125 1 1 1 1
v 0.5 -1.6875 -2.5625 1 1 1 1
v 0.5 -1.9375 -2.8125 1 1 1 1
v 0.5 -1.6875 -2.5625 1 1 1 1
v 0.5 -1.4375 -2.8125 1 1 1 1
v 0.5 -1.4375 -2.5625 1 1 1 1
v 0.5 -1.6875 -2.8125 1 1 1 1
v 0.5 -1.4375 -2.5625 1 1 1 1
v 0.5 -1.1875 -2.8125 1 1 1 1
v 0.5 -1.1875 -2.5625 1 1 1 1
v 0.5 -1.4375 -2.8125 1 1 1 1
v 0.5 -1.1875 -2.5625 1 1 1 1
v 0.5 -0.9375 -2.8125 1 1 1 1
v 0.5 -0.9375 -2.5625 1 1 1 1
v 0.5 -1.1875 -2.8125 1 1 1 1
v 0.25 -1.1875 0.1875 1 1 1 1
v 0 -0.9375 0.1875 1 1 1 1
v 0.25 -0.9375 0.1875 1 1 1 1
v 0 -1.1875 0.1875 1 1 1 1
v 0.25 -1.4375 0.1875 1 1 1 1
v 0 -1.1875 0.1875 1 1 1 1
v 0.25 -1.1875 0.1875 1 1 1 1
v 0 -1.4375 0.1875 1 1 1 1
v 0.25 -1.6875 0.1875 1 1 1 1
v 0 -1.4375 0.1875 1 1 1 1
v 0.25 -1.4375 0.1875 1 1 1 1
v 0 -1.6875 0.1875 1 1 1 1
v 0.25 -1.9375 0.1875 1 1 1 1
v 0 -1.6875 0.1875 1 1 1 1
v 0.25 -1.6875 0.1875 1 1 1 1
v 0 -1.9375 0.1875 1 1 1 1
v 0.5 -1.9375 0.1875 1 1 1 1
v 0.25 -1.6875 0.1875 1 1 1 1
v 0.5 -1.6875 0.1875 1 1 1 1
v 0.25 -1.9375 0.1875 1 1 1 1
v 0.5 -1.6875 0.1875 1 1 1 1
v 0.25 -1.4375 0.1875 1 1 1 1
v 0.5 -1.4375 0.1875 1 1 1 1
v 0.25 -1.6875 0.1875 1 1 1 1
v 0.5 -1.4375 0.1875 1 1 1 1
v 0.25 -1.1875 0.1875 1 1 1 1
v 0.5 -1.1875 0.1875 1 1 1 1
v 0.25 -1.4375 0.1875 1 1 1 1
v 0.5 -1.1875 0.1875 1 1 1 1
v 0.25 -0.9375 0.1875 1 1 1 1
v 0.5 -0.9375 0.1875 1 1 1 1
v 0.25 -1.1875 0.1875 1 1 1 1
v 0.5 -1.9375 0.4375 1 1 1 1
v 0.5 -1.6875 0.1875 1 1 1 1
v 0.5 -1.6875 0.4375 1 1 1 1
v 0.5 -1.9375 0.1875 1 1 1 1
v 0.5 -1.6875 0.4375 1 1 1 1
v 0.5 -1.4375 0.1875 1 1 1 1
v 0.5 -1.4375 0.4375 1 1 1 1
v 0.5 -1.6875 0.1875 1 1 1 1
v 0.5 -1.6875 0.6875 1 1 1 1
v 0.5 -1.4375 0.4375 1 1 1 1
v 0.5 -1.4375 0.6875 1 1 1 1
v 0.5 -1.6875 0.4375 1 1 1 1
v 0.5 -1.4375 0.6875 1 1 1 1
v 0.5 -1.1875 0.4375 1 1 1 1
v 0.5 -1.1875 0.6875 1 1 1 1
v 0.5 -1.4375 0.4375 1 1 1 1
v 0.5 -1.4375 0.4375 1 1 1 1
v 0.5 -1.1875 0.1875 1 1 1 1
v 0.5 -1.1875 0.4375 1 1 1 1
v 0.5 -1.4375 0.1875 1 1 1 1
v 0.5 -1.1875 0.4375 1 1 1 1
v 0.5 -0.9375 0.1875 1 1 1 1
v 0.5 -0.9375 0.4375 1 1 1 1
v 0.5 -1.1875 0.1875 1 1 1 1
v 0.5 -1.1875 0.6875 1 1 1 1
v 0.5 -0.9375 0.4375 1 1 1 1
v 0.5 -0.9375 0.6875 1 1 1 1
v 0.5 -1.1875 0.4375 1 1 1 1
v 0.5 -1.9375 0.6875 1 1 1 1
v 0.5 -1.6875 0.4375 1 1 1 1
v 0.5 -1.6875 0.6875 1 1 1 1
v 0.5 -1.9375 0.4375 1 1 1 1
vt 0.21875 0.1875
vt 0.28125 0.21875
vt 0.21875 0.21875
vt 0.28125 0.1875
vt 0.140625 0.78125
vt 0.125 0.796875
vt 0.125 0.78125
vt 0.140625 0.796875
vt 0.21875 0
vt 0.28125 0.03125
vt 0.21875 0.03125
vt 0.28125 0
vt 0.09375 0.09375
vt 0.125 0.125
vt 0.09375 0.125
vt 0.125 0.09375
vt 0 0
vt 0 0.21875
vt 0.109375 0.78125
vt 0.109375 0.796875
vn -1 0 0
vn 0 0 -1
vn 1 0 0
vn 0 0 1
vn 0 -1 0
vn 0 1 0
g Scene
usemtl 0
f 1/1/1 3/2/1 2/3/1
f 1/1/1 4/4/1 3/2/1
f 5/5/1 6/6/1 7/7/1
f 5/5/1 8/8/1 6/6/1
f 9/5/2 10/6/2 11/7/2
f 9/5/2 12/8/2 10/6/2
f 13/5/3 14/6/3 15/7/3
f 13/5/3 16/8/3 14/6/3
f 17/5/4 18/6/4 19/7/4
f 17/5/4 20/8/4 18/6/4
f 21/9/4 22/10/4 23/11/4
f 21/9/4 24/12/4 22/10/4
f 25/1/4 26/2/4 27/3/4
f 25/1/4 28/4/4 26/2/4
f 29/9/3 30/10/3 31/11/3
f 29/9/3 32/12/3 30/10/3
f 33/1/3 34/2/3 35/3/3
f 33/1/3 36/4/3 34/2/3
f 37/9/2 38/10/2 39/11/2
f 37/9/2 40/12/2 38/10/2
f 41/1/2 42/2/2 43/3/2
f 41/1/2 44/4/2 42/2/2
f 45/9/1 46/10/1 47/11/1
f 45/9/1 48/12/1 46/10/1
f 49/13/5 50/14/5 51/15/5
f 49/13/5 52/16/5 50/14/5
f 53/17/5 54/3/5 55/18/5
f 53/17/5 56/9/5 54/3/5
f 57/17/6 58/3/6 59/18/6
f 57/17/6 60/9/6 58/3/6
f 61/13/5 62/14/5 63/15/5
f 61/13/5 64/16/5 62/14/5
f 65/13/5 66/14/5 67/15/5
f 65/13/5 68/16/5 66/14/5
f 69/13/5 70/14/5 71/15/5
f 69/13/5 72/16/5 70/14/5
f 73/19/2 74/6/2 75/20/2
f 73/19/2 76/7/2 74/6/2
f 77/19/2 78/6/2 79/20/2
f 77/19/2 80/7/2 78/6/2
f 81/19/2 82/6/2 83/20/2
f 81/19/2 84/7/2 82/6/2
f 85/19/2 86/6/2 87/20/2
f 85/19/2 88/7/2 86/6/2
f 89/19/2 90/6/2 91/20/2
f 89/19/2 92/7/2 90/6/2
f 93/19/2 94/6/2 95/20/2
f 93/19/2 96/7/2 94/6/2
f 97/19/2 98/6/2 99/20/2
f 97/19/2 100/7/2 98/6/2
f 101/19/2 102/6/2 103/20/2
f 101/19/2 104/7/2 102/6/2
f 105/19/1 106/6/1 107/20/1
f 105/19/1 108/7/1 106/6/1
f 109/19/1 110/6/1 111/20/1
f 109/19/1 112/7/1 110/6/1
f 113/19/1 114/6/1 115/20/1
f 113/19/1 116/7/1 114/6/1
f 117/19/1 118/6/1 119/20/1
f 117/19/1 120/7/1 118/6/1
f 121/19/1 122/6/1 123/20/1
f 121/19/1 124/7/1 122/6/1
f 125/19/1 126/6/1 127/20/1
f 125/19/1 128/7/1 126/6/1
f 129/19/1 130/6/1 131/20/1
f 129/19/1 132/7/1 130/6/1
f 133/19/1 134/6/1 135/20/1
f 133/19/1 136/7/1 134/6/1
f 137/19/4 138/6/4 139/20/4
f 137/19/4 140/7/4 138/6/4
f 141/19/4 142/6/4 143/20/4
f 141/19/4 144/7/4 142/6/4
f 145/19/4 146/6/4 147/20/4
f 145/19/4 148/7/4 146/6/4
f 149/19/4 150/6/4 151/20/4
f 149/19/4 152/7/4 150/6/4
f 153/19/4 154/6/4 155/20/4
f 153/19/4 156/7/4 154/6/4
f 157/19/4 158/6/4 159/20/4
f 157/19/4 160/7/4 158/6/4
f 161/19/4 162/6/4 163/20/4
f 161/19/4 164/7/4 162/6/4
f 165/19/4 166/6/4 167/20/4
f 165/19/4 168/7/4 166/6/4
f 169/19/1 170/6/1 171/20/1
f 169/19/1 172/7/1 170/6/1
f 173/19/1 174/6/1 175/20/1
f 173/19/1 176/7/1 174/6/1
f 177/19/1 178/6/1 179/20/1
f 177/19/1 180/7/1 178/6/1
f 181/19/1 182/6/1 183/20/1
f 181/19/1 184/7/1 182/6/1
f 185/19/1 186/6/1 187/20/1
f 185/19/1 188/7/1 186/6/1
f 189/19/1 190/6/1 191/20/1
f 189/19/1 192/7/1 190/6/1
f 193/19/1 194/6/1 195/20/1
f 193/19/1 196/7/1 194/6/1
f 197/19/1 198/6/1 199/20/1
f 197/19/1 200/7/1 198/6/1
f 201/19/4 202/6/4 203/20/4
f 201/19/4 204/7/4 202/6/4
f 205/19/4 206/6/4 207/20/4
f 205/19/4 208/7/4 206/6/4
f 209/19/4 210/6/4 211/20/4
f 209/19/4 212/7/4 210/6/4
f 213/19/4 214/6/4 215/20/4
f 213/19/4 216/7/4 214/6/4
f 217/19/4 218/6/4 219/20/4
f 217/19/4 220/7/4 218/6/4
f 221/19/4 222/6/4 223/20/4
f 221/19/4 224/7/4 222/6/4
f 225/19/4 226/6/4 227/20/4
f 225/19/4 228/7/4 226/6/4
f 229/19/4 230/6/4 231/20/4
f 229/19/4 232/7/4 230/6/4
f 233/19/3 234/6/3 235/20/3
f 233/19/3 236/7/3 234/6/3
f 237/19/3 238/6/3 239/20/3
f 237/19/3 240/7/3 238/6/3
f 241/19/3 242/6/3 243/20/3
f 241/19/3 244/7/3 242/6/3
f 245/19/3 246/6/3 247/20/3
f 245/19/3 248/7/3 246/6/3
f 249/19/3 250/6/3 251/20/3
f 249/19/3 252/7/3 250/6/3
f 253/19/3 254/6/3 255/20/3
f 253/19/3 256/7/3 254/6/3
f 257/19/3 258/6/3 259/20/3
f 257/19/3 260/7/3 258/6/3
f 261/19/3 262/6/3 263/20/3
f 261/19/3 264/7/3 262/6/3
f 265/19/2 266/6/2 267/20/2
f 265/19/2 268/7/2 266/6/2
f 269/19/2 270/6/2 271/20/2
f 269/19/2 272/7/2 270/6/2
f 273/19/2 274/6/2 275/20/2
f 273/19/2 276/7/2 274/6/2
f 277/19/2 278/6/2 279/20/2
f 277/19/2 280/7/2 278/6/2
f 281/19/2 282/6/2 283/20/2
f 281/19/2 284/7/2 282/6/2
f 285/19/2 286/6/2 287/20/2
f 285/19/2 288/7/2 286/6/2
f 289/19/2 290/6/2 291/20/2
f 289/19/2 292/7/2 290/6/2
f 293/19/2 294/6/2 295/20/2
f 293/19/2 296/7/2 294/6/2
f 297/19/3 298/6/3 299/20/3
f 297/19/3 300/7/3 298/6/3
f 301/19/3 302/6/3 303/20/3
f 301/19/3 304/7/3 302/6/3
f 305/19/3 306/6/3 307/20/3
f 305/19/3 308/7/3 306/6/3
f 309/19/3 310/6/3 311/20/3
f 309/19/3 312/7/3 310/6/3
f 313/19/3 314/6/3 315/20/3
f 313/19/3 316/7/3 314/6/3
f 317/19/3 318/6/3 319/20/3
f 317/19/3 320/7/3 318/6/3
f 321/19/3 322/6/3 323/20/3
f 321/19/3 324/7/3 322/6/3
f 325/19/3 326/6/3 327/20/3
f 325/19/3 328/7/3 326/6/3
