mtllib MetalGate.mtl
o Default
v 0 0 0 1 1 1 1
v 0 1.28 0 1 1 1 1
v 1.28 1.28 0 1 1 1 1
v 1.28 0 0 1 1 1 1
v 1.28 0 -0.04 1 1 1 1
v 0 1.28 -0.04 1 1 1 1
v 1.28 1.28 -0.04 1 1 1 1
v 0 0 -0.04 1 1 1 1
v 0 0 -0.04 1 1 1 1
v 0 1.28 0 1 1 1 1
v 0 1.28 -0.04 1 1 1 1
v 0 0 0 1 1 1 1
v 1.28 0 0 1 1 1 1
v 1.28 1.28 -0.04 1 1 1 1
v 1.28 1.28 0 1 1 1 1
v 1.28 0 -0.04 1 1 1 1
vt 0.0625 0.375
vt 0.5625 0.875
vt 0.0625 0.875
vt 0.5625 0.375
vt 0.046875 0.375
vt 0.046875 0.875
vn 0 0 1
vn 0 0 -1
vn -1 0 0
vn 1 0 0
g Scene
usemtl 0
f 1/1/1 3/2/1 2/3/1
f 1/1/1 4/4/1 3/2/1
f 5/1/2 6/2/2 7/3/2
f 5/1/2 8/4/2 6/2/2
f 9/5/3 10/3/3 11/6/3
f 9/5/3 12/1/3 10/3/3
f 13/5/4 14/3/4 15/6/4
f 13/5/4 16/1/4 14/3/4
