mtllib material.mtl
o Default
v -3.62 0.53 -6.71 1 1 1 1
v -3.62 0.53 -5.43 1 1 1 1
v -4.9 0.53 -5.43 1 1 1 1
v -4.9 0.53 -6.71 1 1 1 1
v 5.75 0.53 -3.21 1 1 1 1
v 4.47 0.53 -1.93 1 1 1 1
v 5.75 0.53 -1.93 1 1 1 1
v 4.47 0.53 -3.21 1 1 1 1
v 4.47 0.53 -3.21 1 1 1 1
v 3.19 0.53 -1.93 1 1 1 1
v 4.47 0.53 -1.93 1 1 1 1
v 3.19 0.53 -3.21 1 1 1 1
v 3.19 0.53 -3.21 1 1 1 1
v 1.9100000000000001 0.53 -1.93 1 1 1 1
v 3.19 0.53 -1.93 1 1 1 1
v 1.9100000000000001 0.53 -3.21 1 1 1 1
v -3.2713409423828126 -0.9854463195800781 -13.83082275390625 1 1 1 1
v -4.551340942382812 -0.9854463195800781 -12.55082275390625 1 1 1 1
v -3.2713409423828126 -0.9854463195800781 -12.55082275390625 1 1 1 1
v -4.551340942382812 -0.9854463195800781 -13.83082275390625 1 1 1 1
v -2.1613409423828127 0.5245537185668946 -15.11082275390625 1 1 1 1
v -3.4413409423828125 0.5245537185668946 -13.83082275390625 1 1 1 1
v -2.1613409423828127 0.5245537185668946 -13.83082275390625 1 1 1 1
v -3.4413409423828125 0.5245537185668946 -15.11082275390625 1 1 1 1
v -7.111340942382813 -1.4854463195800782 -12.55082275390625 1 1 1 1
v -8.391340942382813 -1.4854463195800782 -11.27082275390625 1 1 1 1
v -7.111340942382813 -1.4854463195800782 -11.27082275390625 1 1 1 1
v -8.391340942382813 -1.4854463195800782 -12.55082275390625 1 1 1 1
v -3.5425347900390625 0.56 -4.019996337890625 1 1 1 1
v -4.822534790039063 0.56 -2.739996337890625 1 1 1 1
v -3.5425347900390625 0.56 -2.739996337890625 1 1 1 1
v -4.822534790039063 0.56 -4.019996337890625 1 1 1 1
v -4.822534790039063 0.56 -4.019996337890625 1 1 1 1
v -6.102534790039063 0.56 -2.739996337890625 1 1 1 1
v -4.822534790039063 0.56 -2.739996337890625 1 1 1 1
v -6.102534790039063 0.56 -4.019996337890625 1 1 1 1
v -6.102534790039063 0.56 -4.019996337890625 1 1 1 1
v -7.382534790039062 0.56 -2.739996337890625 1 1 1 1
v -6.102534790039063 0.56 -2.739996337890625 1 1 1 1
v -7.382534790039062 0.56 -4.019996337890625 1 1 1 1
v -7.382534790039062 0.56 -4.019996337890625 1 1 1 1
v -8.662534790039063 0.56 -2.739996337890625 1 1 1 1
v -7.382534790039062 0.56 -2.739996337890625 1 1 1 1
v -8.662534790039063 0.56 -4.019996337890625 1 1 1 1
v -7.382534790039062 0.56 -1.9799963378906251 1 1 1 1
v -8.662534790039063 0.56 -0.699996337890625 1 1 1 1
v -7.382534790039062 0.56 -0.699996337890625 1 1 1 1
v -8.662534790039063 0.56 -1.9799963378906251 1 1 1 1
v -2.34 0.53 -6.71 1 1 1 1
v -3.62 0.53 -5.43 1 1 1 1
v -2.34 0.53 -5.43 1 1 1 1
v -3.62 0.53 -6.71 1 1 1 1
v -3.9313409423828127 0.5245537185668946 -12.560822753906251 1 1 1 1
v -5.2113409423828125 0.5245537185668946 -11.28082275390625 1 1 1 1
v -3.9313409423828127 0.5245537185668946 -11.28082275390625 1 1 1 1
v -5.2113409423828125 0.5245537185668946 -12.560822753906251 1 1 1 1
v 4.5200000000000005 0.53 -12.51 1 1 1 1
v 5.8 0.53 -13.790000000000001 1 1 1 1
v 4.5200000000000005 0.53 -13.790000000000001 1 1 1 1
v 5.8 0.53 -12.51 1 1 1 1
v -4.65 -0.77 -8.92 1 1 1 1
v -3.37 -0.77 -10.200000000000001 1 1 1 1
v -4.65 -0.77 -10.200000000000001 1 1 1 1
v -3.37 -0.77 -8.92 1 1 1 1
v -3.37 -0.91 -10.200000000000001 1 1 1 1
v -4.65 -0.91 -8.92 1 1 1 1
v -3.37 -0.91 -8.92 1 1 1 1
v -4.65 -0.91 -10.200000000000001 1 1 1 1
v -6.18 0.53 -7.99 1 1 1 1
v -7.46 0.53 -6.71 1 1 1 1
v -6.18 0.53 -6.71 1 1 1 1
v -7.46 0.53 -7.99 1 1 1 1
v -6.18 0.53 -6.71 1 1 1 1
v -7.46 0.53 -5.43 1 1 1 1
v -6.18 0.53 -5.43 1 1 1 1
v -7.46 0.53 -6.71 1 1 1 1
v -4.9 0.53 -6.71 1 1 1 1
v -6.18 0.53 -5.43 1 1 1 1
v -4.9 0.53 -5.43 1 1 1 1
v -6.18 0.53 -6.71 1 1 1 1
v 9.64 0.53 -16.1 1 1 1 1
v 8.36 0.53 -14.82 1 1 1 1
v 9.64 0.53 -14.82 1 1 1 1
v 8.31 0.53 -16.18 1 1 1 1
v 5.8 0.53 -15.07 1 1 1 1
v 4.5200000000000005 0.53 -13.790000000000001 1 1 1 1
v 5.8 0.53 -13.790000000000001 1 1 1 1
v 4.5200000000000005 0.53 -15.07 1 1 1 1
v 4.5200000000000005 0.53 -15.07 1 1 1 1
v 3.24 0.53 -13.790000000000001 1 1 1 1
v 4.5200000000000005 0.53 -13.790000000000001 1 1 1 1
v 3.24 0.53 -15.07 1 1 1 1
v 3.24 0.53 -15.07 1 1 1 1
v 1.96 0.53 -13.790000000000001 1 1 1 1
v 3.24 0.53 -13.790000000000001 1 1 1 1
v 1.96 0.53 -15.07 1 1 1 1
v -5.2113409423828125 0.5245537185668946 -12.560822753906251 1 1 1 1
v -6.491340942382813 0.5245537185668946 -11.28082275390625 1 1 1 1
v -5.2113409423828125 0.5245537185668946 -11.28082275390625 1 1 1 1
v -6.491340942382813 0.5245537185668946 -12.560822753906251 1 1 1 1
v 3.24 0.53 -13.790000000000001 1 1 1 1
v 1.96 0.53 -12.51 1 1 1 1
v 3.24 0.53 -12.51 1 1 1 1
v 1.96 0.53 -13.790000000000001 1 1 1 1
v -5.2113409423828125 0.5245537185668946 -11.28082275390625 1 1 1 1
v -6.491340942382813 0.5245537185668946 -10.00082275390625 1 1 1 1
v -5.2113409423828125 0.5245537185668946 -10.00082275390625 1 1 1 1
v -6.491340942382813 0.5245537185668946 -11.28082275390625 1 1 1 1
v 6.4 -1.9100000000000001 -7.12 1 1 1 1
v 5.12 -1.9100000000000001 -5.84 1 1 1 1
v 6.4 -1.9100000000000001 -5.84 1 1 1 1
v 5.12 -1.9100000000000001 -7.12 1 1 1 1
v 7.73 -1.9100000000000001 -7.04 1 1 1 1
v 6.45 -1.9100000000000001 -5.76 1 1 1 1
v 7.73 -1.9100000000000001 -5.76 1 1 1 1
v 6.4 -1.9100000000000001 -7.12 1 1 1 1
v 2.04 0.53 -6.17 1 1 1 1
v 3.3200000000000003 0.53 -7.45 1 1 1 1
v 2.04 0.53 -7.45 1 1 1 1
v 3.3200000000000003 0.53 -6.17 1 1 1 1
v 3.3200000000000003 0.53 -6.17 1 1 1 1
v 4.6000000000000005 0.53 -7.45 1 1 1 1
v 3.3200000000000003 0.53 -7.45 1 1 1 1
v 4.6000000000000005 0.53 -6.17 1 1 1 1
v 4.6000000000000005 0.53 -6.17 1 1 1 1
v 5.88 0.53 -7.45 1 1 1 1
v 4.6000000000000005 0.53 -7.45 1 1 1 1
v 5.88 0.53 -6.17 1 1 1 1
v 5.88 0.53 -6.17 1 1 1 1
v 7.16 0.53 -7.45 1 1 1 1
v 5.88 0.53 -7.45 1 1 1 1
v 7.16 0.53 -6.17 1 1 1 1
v -6.102534790039063 0.56 -1.9799963378906251 1 1 1 1
v -7.382534790039062 0.56 -0.699996337890625 1 1 1 1
v -6.102534790039063 0.56 -0.699996337890625 1 1 1 1
v -7.382534790039062 0.56 -1.9799963378906251 1 1 1 1
v -3.9313409423828127 0.5245537185668946 -11.28082275390625 1 1 1 1
v -5.2113409423828125 0.5245537185668946 -10.00082275390625 1 1 1 1
v -3.9313409423828127 0.5245537185668946 -10.00082275390625 1 1 1 1
v -5.2113409423828125 0.5245537185668946 -11.28082275390625 1 1 1 1
v -2.1613409423828127 0.5245537185668946 -12.55082275390625 1 1 1 1
v -3.4413409423828125 0.5245537185668946 -11.27082275390625 1 1 1 1
v -2.1613409423828127 0.5245537185668946 -11.27082275390625 1 1 1 1
v -3.4413409423828125 0.5245537185668946 -12.55082275390625 1 1 1 1
v -2.1613409423828127 0.5245537185668946 -13.83082275390625 1 1 1 1
v -3.4413409423828125 0.5245537185668946 -12.55082275390625 1 1 1 1
v -2.1613409423828127 0.5245537185668946 -12.55082275390625 1 1 1 1
v -3.4413409423828125 0.5245537185668946 -13.83082275390625 1 1 1 1
v -7.281340942382813 0.5245537185668946 -12.55082275390625 1 1 1 1
v -8.561340942382813 0.5245537185668946 -11.27082275390625 1 1 1 1
v -7.281340942382813 0.5245537185668946 -11.27082275390625 1 1 1 1
v -8.561340942382813 0.5245537185668946 -12.55082275390625 1 1 1 1
v -7.281340942382813 0.5245537185668946 -13.83082275390625 1 1 1 1
v -8.561340942382813 0.5245537185668946 -12.55082275390625 1 1 1 1
v -7.281340942382813 0.5245537185668946 -12.55082275390625 1 1 1 1
v -8.561340942382813 0.5245537185668946 -13.83082275390625 1 1 1 1
v 1.96 0.53 -13.790000000000001 1 1 1 1
v 0.68 0.53 -12.51 1 1 1 1
v 1.96 0.53 -12.51 1 1 1 1
v 0.68 0.53 -13.790000000000001 1 1 1 1
v 1.96 0.53 -15.07 1 1 1 1
v 0.68 0.53 -13.790000000000001 1 1 1 1
v 1.96 0.53 -13.790000000000001 1 1 1 1
v 0.68 0.53 -15.07 1 1 1 1
v 5.74 0.53 -10.98 1 1 1 1
v 4.46 0.53 -9.700000000000001 1 1 1 1
v 5.74 0.53 -9.700000000000001 1 1 1 1
v 4.46 0.53 -10.98 1 1 1 1
v 1.9100000000000001 0.53 -3.21 1 1 1 1
v 0.63 0.53 -1.93 1 1 1 1
v 1.9100000000000001 0.53 -1.93 1 1 1 1
v 0.63 0.53 -3.21 1 1 1 1
v -0.65 0.53 -8.75 1 1 1 1
v 0.63 0.53 -10.03 1 1 1 1
v -0.65 0.53 -10.03 1 1 1 1
v 0.63 0.53 -8.75 1 1 1 1
v -0.65 0.53 -7.47 1 1 1 1
v 0.63 0.53 -8.75 1 1 1 1
v -0.65 0.53 -8.75 1 1 1 1
v 0.63 0.53 -7.47 1 1 1 1
v -0.65 0.53 -6.19 1 1 1 1
v 0.63 0.53 -7.47 1 1 1 1
v -0.65 0.53 -7.47 1 1 1 1
v 0.63 0.53 -6.19 1 1 1 1
v -4.721340942382812 0.5245537185668946 -15.11082275390625 1 1 1 1
v -6.001340942382813 0.5245537185668946 -13.83082275390625 1 1 1 1
v -4.721340942382812 0.5245537185668946 -13.83082275390625 1 1 1 1
v -6.001340942382813 0.5245537185668946 -15.11082275390625 1 1 1 1
v 9.58 0.53 -3.21 1 1 1 1
v 8.3 0.53 -1.93 1 1 1 1
v 9.58 0.53 -1.93 1 1 1 1
v 8.3 0.53 -3.21 1 1 1 1
v 8.3 0.53 -3.21 1 1 1 1
v 7.0200000000000005 0.53 -1.93 1 1 1 1
v 8.3 0.53 -1.93 1 1 1 1
v 7.0200000000000005 0.53 -3.21 1 1 1 1
v -7.281340942382813 0.5245537185668946 -15.11082275390625 1 1 1 1
v -8.561340942382813 0.5245537185668946 -13.83082275390625 1 1 1 1
v -7.281340942382813 0.5245537185668946 -13.83082275390625 1 1 1 1
v -8.561340942382813 0.5245537185668946 -15.11082275390625 1 1 1 1
v -6.001340942382813 0.5245537185668946 -15.11082275390625 1 1 1 1
v -7.281340942382813 0.5245537185668946 -13.83082275390625 1 1 1 1
v -6.001340942382813 0.5245537185668946 -13.83082275390625 1 1 1 1
v -7.281340942382813 0.5245537185668946 -15.11082275390625 1 1 1 1
v -3.4413409423828125 0.5245537185668946 -15.11082275390625 1 1 1 1
v -4.721340942382812 0.5245537185668946 -13.83082275390625 1 1 1 1
v -3.4413409423828125 0.5245537185668946 -13.83082275390625 1 1 1 1
v -4.721340942382812 0.5245537185668946 -15.11082275390625 1 1 1 1
v 9.86 0.53 -9.13 1 1 1 1
v 8.58 0.53 -7.8500000000000005 1 1 1 1
v 9.86 0.53 -7.8500000000000005 1 1 1 1
v 8.58 0.53 -9.13 1 1 1 1
v 9.86 0.53 -10.41 1 1 1 1
v 8.58 0.53 -9.13 1 1 1 1
v 9.86 0.53 -9.13 1 1 1 1
v 8.58 0.53 -10.41 1 1 1 1
v 9.86 0.53 -11.69 1 1 1 1
v 8.58 0.53 -10.41 1 1 1 1
v 9.86 0.53 -10.41 1 1 1 1
v 8.58 0.53 -11.69 1 1 1 1
v 8.58 0.53 -11.69 1 1 1 1
v 7.3 0.53 -10.41 1 1 1 1
v 8.58 0.53 -10.41 1 1 1 1
v 7.3 0.53 -11.69 1 1 1 1
v -4.822534790039063 0.56 -1.9799963378906251 1 1 1 1
v -6.102534790039063 0.56 -0.699996337890625 1 1 1 1
v -4.822534790039063 0.56 -0.699996337890625 1 1 1 1
v -6.102534790039063 0.56 -1.9799963378906251 1 1 1 1
v -3.5425347900390625 0.56 -1.9799963378906251 1 1 1 1
v -4.822534790039063 0.56 -0.699996337890625 1 1 1 1
v -3.5425347900390625 0.56 -0.699996337890625 1 1 1 1
v -4.822534790039063 0.56 -1.9799963378906251 1 1 1 1
v 9.64 0.53 -14.82 1 1 1 1
v 8.36 0.53 -13.540000000000001 1 1 1 1
v 9.64 0.53 -13.540000000000001 1 1 1 1
v 8.36 0.53 -14.82 1 1 1 1
vt 0 0.5
vt 0.5 1
vt 0 1
vt 0.5 0.5
vn 0 1 0
g Object 52152
usemtl maze_2
f 1/1/1 3/2/1 2/3/1
f 1/1/1 4/4/1 3/2/1
f 5/1/1 6/2/1 7/3/1
f 5/1/1 8/4/1 6/2/1
f 9/1/1 10/2/1 11/3/1
f 9/1/1 12/4/1 10/2/1
f 13/1/1 14/2/1 15/3/1
f 13/1/1 16/4/1 14/2/1
f 17/1/1 18/2/1 19/3/1
f 17/1/1 20/4/1 18/2/1
f 21/1/1 22/2/1 23/3/1
f 21/1/1 24/4/1 22/2/1
f 25/1/1 26/2/1 27/3/1
f 25/1/1 28/4/1 26/2/1
f 29/1/1 30/2/1 31/3/1
f 29/1/1 32/4/1 30/2/1
f 33/1/1 34/2/1 35/3/1
f 33/1/1 36/4/1 34/2/1
f 37/1/1 38/2/1 39/3/1
f 37/1/1 40/4/1 38/2/1
f 41/1/1 42/2/1 43/3/1
f 41/1/1 44/4/1 42/2/1
f 45/1/1 46/2/1 47/3/1
f 45/1/1 48/4/1 46/2/1
f 49/1/1 50/2/1 51/3/1
f 49/1/1 52/4/1 50/2/1
f 53/1/1 54/2/1 55/3/1
f 53/1/1 56/4/1 54/2/1
f 57/1/1 58/2/1 59/3/1
f 57/1/1 60/4/1 58/2/1
f 61/1/1 62/2/1 63/3/1
f 61/1/1 64/4/1 62/2/1
f 65/1/1 66/2/1 67/3/1
f 65/1/1 68/4/1 66/2/1
f 69/1/1 70/2/1 71/3/1
f 69/1/1 72/4/1 70/2/1
f 73/1/1 74/2/1 75/3/1
f 73/1/1 76/4/1 74/2/1
f 77/1/1 78/2/1 79/3/1
f 77/1/1 80/4/1 78/2/1
f 81/1/1 82/2/1 83/3/1
f 81/1/1 84/4/1 82/2/1
f 85/1/1 86/2/1 87/3/1
f 85/1/1 88/4/1 86/2/1
f 89/1/1 90/2/1 91/3/1
f 89/1/1 92/4/1 90/2/1
f 93/1/1 94/2/1 95/3/1
f 93/1/1 96/4/1 94/2/1
f 97/1/1 98/2/1 99/3/1
f 97/1/1 100/4/1 98/2/1
f 101/1/1 102/2/1 103/3/1
f 101/1/1 104/4/1 102/2/1
f 105/1/1 106/2/1 107/3/1
f 105/1/1 108/4/1 106/2/1
f 109/1/1 110/2/1 111/3/1
f 109/1/1 112/4/1 110/2/1
f 113/1/1 114/2/1 115/3/1
f 113/1/1 116/4/1 114/2/1
f 117/1/1 118/2/1 119/3/1
f 117/1/1 120/4/1 118/2/1
f 121/1/1 122/2/1 123/3/1
f 121/1/1 124/4/1 122/2/1
f 125/1/1 126/2/1 127/3/1
f 125/1/1 128/4/1 126/2/1
f 129/1/1 130/2/1 131/3/1
f 129/1/1 132/4/1 130/2/1
f 133/1/1 134/2/1 135/3/1
f 133/1/1 136/4/1 134/2/1
f 137/1/1 138/2/1 139/3/1
f 137/1/1 140/4/1 138/2/1
f 141/1/1 142/2/1 143/3/1
f 141/1/1 144/4/1 142/2/1
f 145/1/1 146/2/1 147/3/1
f 145/1/1 148/4/1 146/2/1
f 149/1/1 150/2/1 151/3/1
f 149/1/1 152/4/1 150/2/1
f 153/1/1 154/2/1 155/3/1
f 153/1/1 156/4/1 154/2/1
f 157/1/1 158/2/1 159/3/1
f 157/1/1 160/4/1 158/2/1
f 161/1/1 162/2/1 163/3/1
f 161/1/1 164/4/1 162/2/1
f 165/1/1 166/2/1 167/3/1
f 165/1/1 168/4/1 166/2/1
f 169/1/1 170/2/1 171/3/1
f 169/1/1 172/4/1 170/2/1
f 173/1/1 174/2/1 175/3/1
f 173/1/1 176/4/1 174/2/1
f 177/1/1 178/2/1 179/3/1
f 177/1/1 180/4/1 178/2/1
f 181/1/1 182/2/1 183/3/1
f 181/1/1 184/4/1 182/2/1
f 185/1/1 186/2/1 187/3/1
f 185/1/1 188/4/1 186/2/1
f 189/1/1 190/2/1 191/3/1
f 189/1/1 192/4/1 190/2/1
f 193/1/1 194/2/1 195/3/1
f 193/1/1 196/4/1 194/2/1
f 197/1/1 198/2/1 199/3/1
f 197/1/1 200/4/1 198/2/1
f 201/1/1 202/2/1 203/3/1
f 201/1/1 204/4/1 202/2/1
f 205/1/1 206/2/1 207/3/1
f 205/1/1 208/4/1 206/2/1
f 209/1/1 210/2/1 211/3/1
f 209/1/1 212/4/1 210/2/1
f 213/1/1 214/2/1 215/3/1
f 213/1/1 216/4/1 214/2/1
f 217/1/1 218/2/1 219/3/1
f 217/1/1 220/4/1 218/2/1
f 221/1/1 222/2/1 223/3/1
f 221/1/1 224/4/1 222/2/1
f 225/1/1 226/2/1 227/3/1
f 225/1/1 228/4/1 226/2/1
f 229/1/1 230/2/1 231/3/1
f 229/1/1 232/4/1 230/2/1
f 233/1/1 234/2/1 235/3/1
f 233/1/1 236/4/1 234/2/1
