mtllib material.mtl
o Default
v -6.102534790039063 -0.72 -4.019996337890625 1 1 1 1
v -4.822534790039063 -0.72 -4.019996337890625 1 1 1 1
v -4.822534790039063 0.56 -4.019996337890625 1 1 1 1
v -6.102534790039063 0.56 -4.019996337890625 1 1 1 1
v -4.822534790039063 -0.72 -2.739996337890625 1 1 1 1
v -6.102534790039063 0.56 -2.739996337890625 1 1 1 1
v -6.102534790039063 -0.72 -2.739996337890625 1 1 1 1
v -4.822534790039063 0.56 -2.739996337890625 1 1 1 1
v -4.822534790039063 -0.72 -4.019996337890625 1 1 1 1
v -3.5425347900390625 0.56 -4.019996337890625 1 1 1 1
v -3.5425347900390625 -0.72 -4.019996337890625 1 1 1 1
v -4.822534790039063 0.56 -4.019996337890625 1 1 1 1
v -3.9313409423828127 -0.7554463195800781 -12.560822753906251 1 1 1 1
v -3.9313409423828127 0.5245536804199219 -11.28082275390625 1 1 1 1
v -3.9313409423828127 -0.7554463195800781 -11.28082275390625 1 1 1 1
v -3.9313409423828127 0.5245536804199219 -12.560822753906251 1 1 1 1
v -8.662534790039063 -0.72 -0.699996337890625 1 1 1 1
v -8.662534790039063 0.56 -1.9799963378906251 1 1 1 1
v -8.662534790039063 -0.72 -1.9799963378906251 1 1 1 1
v -8.662534790039063 0.56 -0.699996337890625 1 1 1 1
v -7.382534790039062 -0.72 -0.699996337890625 1 1 1 1
v -8.662534790039063 0.56 -0.699996337890625 1 1 1 1
v -8.662534790039063 -0.72 -0.699996337890625 1 1 1 1
v -7.382534790039062 0.56 -0.699996337890625 1 1 1 1
v -2.1613409423828127 -0.7554463195800781 -13.83082275390625 1 1 1 1
v -2.1613409423828127 0.5245536804199219 -12.55082275390625 1 1 1 1
v -2.1613409423828127 -0.7554463195800781 -12.55082275390625 1 1 1 1
v -2.1613409423828127 0.5245536804199219 -13.83082275390625 1 1 1 1
v -3.9313409423828127 -0.7554463195800781 -11.28082275390625 1 1 1 1
v -3.9313409423828127 0.5245536804199219 -10.00082275390625 1 1 1 1
v -3.9313409423828127 -0.7554463195800781 -10.00082275390625 1 1 1 1
v -3.9313409423828127 0.5245536804199219 -11.28082275390625 1 1 1 1
v -3.4413409423828125 -0.7554463195800781 -15.11082275390625 1 1 1 1
v -2.1613409423828127 0.5245536804199219 -15.11082275390625 1 1 1 1
v -2.1613409423828127 -0.7554463195800781 -15.11082275390625 1 1 1 1
v -3.4413409423828125 0.5245536804199219 -15.11082275390625 1 1 1 1
v -1.3 -0.72 0.02 1 1 1 1
v -0.02 0.56 0.02 1 1 1 1
v -1.3 0.56 0.02 1 1 1 1
v -0.02 -0.72 0.02 1 1 1 1
v -6.18 -0.75 -5.43 1 1 1 1
v -7.46 0.53 -5.43 1 1 1 1
v -7.46 -0.75 -5.43 1 1 1 1
v -6.18 0.53 -5.43 1 1 1 1
v -7.46 -0.75 -7.99 1 1 1 1
v -6.18 0.53 -7.99 1 1 1 1
v -6.18 -0.75 -7.99 1 1 1 1
v -7.46 0.53 -7.99 1 1 1 1
v -7.46 -0.75 -6.71 1 1 1 1
v -7.46 0.53 -7.99 1 1 1 1
v -7.46 -0.75 -7.99 1 1 1 1
v -7.46 0.53 -6.71 1 1 1 1
v -6.18 -0.75 -6.71 1 1 1 1
v -4.9 0.53 -6.71 1 1 1 1
v -4.9 -0.75 -6.71 1 1 1 1
v -6.18 0.53 -6.71 1 1 1 1
v -4.9 -0.75 -5.43 1 1 1 1
v -6.18 0.53 -5.43 1 1 1 1
v -6.18 -0.75 -5.43 1 1 1 1
v -4.9 0.53 -5.43 1 1 1 1
v -7.46 -0.75 -5.43 1 1 1 1
v -7.46 0.53 -6.71 1 1 1 1
v -7.46 -0.75 -6.71 1 1 1 1
v -7.46 0.53 -5.43 1 1 1 1
v -8.561340942382813 -0.7554463195800781 -13.83082275390625 1 1 1 1
v -8.561340942382813 0.5245536804199219 -15.11082275390625 1 1 1 1
v -8.561340942382813 -0.7554463195800781 -15.11082275390625 1 1 1 1
v -8.561340942382813 0.5245536804199219 -13.83082275390625 1 1 1 1
v -5.2113409423828125 -0.7554463195800781 -10.00082275390625 1 1 1 1
v -6.491340942382813 0.5245536804199219 -10.00082275390625 1 1 1 1
v -6.491340942382813 -0.7554463195800781 -10.00082275390625 1 1 1 1
v -5.2113409423828125 0.5245536804199219 -10.00082275390625 1 1 1 1
v -3.62 -0.75 -5.43 1 1 1 1
v -4.9 0.53 -5.43 1 1 1 1
v -4.9 -0.75 -5.43 1 1 1 1
v -3.62 0.53 -5.43 1 1 1 1
v -3.62 -0.75 -6.71 1 1 1 1
v -2.34 0.53 -6.71 1 1 1 1
v -2.34 -0.75 -6.71 1 1 1 1
v -3.62 0.53 -6.71 1 1 1 1
v -2.34 -0.75 -5.43 1 1 1 1
v -3.62 0.53 -5.43 1 1 1 1
v -3.62 -0.75 -5.43 1 1 1 1
v -2.34 0.53 -5.43 1 1 1 1
v -3.5425347900390625 -0.72 -0.699996337890625 1 1 1 1
v -4.822534790039063 0.56 -0.699996337890625 1 1 1 1
v -4.822534790039063 -0.72 -0.699996337890625 1 1 1 1
v -3.5425347900390625 0.56 -0.699996337890625 1 1 1 1
v -3.5425347900390625 -0.72 -1.9799963378906251 1 1 1 1
v -3.5425347900390625 0.56 -0.699996337890625 1 1 1 1
v -3.5425347900390625 -0.72 -0.699996337890625 1 1 1 1
v -3.5425347900390625 0.56 -1.9799963378906251 1 1 1 1
v -8.561340942382813 -0.7554463195800781 -12.55082275390625 1 1 1 1
v -8.561340942382813 0.5245536804199219 -13.83082275390625 1 1 1 1
v -8.561340942382813 -0.7554463195800781 -13.83082275390625 1 1 1 1
v -8.561340942382813 0.5245536804199219 -12.55082275390625 1 1 1 1
v -2.1613409423828127 -0.7554463195800781 -15.11082275390625 1 1 1 1
v -2.1613409423828127 0.5245536804199219 -13.83082275390625 1 1 1 1
v -2.1613409423828127 -0.7554463195800781 -13.83082275390625 1 1 1 1
v -2.1613409423828127 0.5245536804199219 -15.11082275390625 1 1 1 1
v -4.721340942382812 -0.7554463195800781 -15.11082275390625 1 1 1 1
v -3.4413409423828125 0.5245536804199219 -15.11082275390625 1 1 1 1
v -3.4413409423828125 -0.7554463195800781 -15.11082275390625 1 1 1 1
v -4.721340942382812 0.5245536804199219 -15.11082275390625 1 1 1 1
v -4.9 -0.75 -6.71 1 1 1 1
v -3.62 0.53 -6.71 1 1 1 1
v -3.62 -0.75 -6.71 1 1 1 1
v -4.9 0.53 -6.71 1 1 1 1
v -2.34 -0.75 -6.71 1 1 1 1
v -2.34 0.53 -5.43 1 1 1 1
v -2.34 -0.75 -5.43 1 1 1 1
v -2.34 0.53 -6.71 1 1 1 1
v -0.02 -0.72 0.02 1 1 1 1
v 1.26 0.56 0.02 1 1 1 1
v -0.02 0.56 0.02 1 1 1 1
v 1.26 -0.72 0.02 1 1 1 1
v -7.281340942382813 -0.7554463195800781 -11.27082275390625 1 1 1 1
v -8.561340942382813 0.5245536804199219 -11.27082275390625 1 1 1 1
v -8.561340942382813 -0.7554463195800781 -11.27082275390625 1 1 1 1
v -7.281340942382813 0.5245536804199219 -11.27082275390625 1 1 1 1
v -8.561340942382813 -0.7554463195800781 -11.27082275390625 1 1 1 1
v -8.561340942382813 0.5245536804199219 -12.55082275390625 1 1 1 1
v -8.561340942382813 -0.7554463195800781 -12.55082275390625 1 1 1 1
v -8.561340942382813 0.5245536804199219 -11.27082275390625 1 1 1 1
v -5.2 -0.76 -10.01 1 1 1 1
v -3.92 0.52 -10.01 1 1 1 1
v -5.2 0.52 -10.01 1 1 1 1
v -3.92 -0.76 -10.01 1 1 1 1
v -7.281340942382813 -0.7554463195800781 -12.55082275390625 1 1 1 1
v -7.281340942382813 0.5245536804199219 -11.27082275390625 1 1 1 1
v -7.281340942382813 -0.7554463195800781 -11.27082275390625 1 1 1 1
v -7.281340942382813 0.5245536804199219 -12.55082275390625 1 1 1 1
v -6.18 -0.75 -7.99 1 1 1 1
v -6.18 0.53 -6.71 1 1 1 1
v -6.18 -0.75 -6.71 1 1 1 1
v -6.18 0.53 -7.99 1 1 1 1
v -6.102534790039063 -0.72 -1.9799963378906251 1 1 1 1
v -4.822534790039063 0.56 -1.9799963378906251 1 1 1 1
v -4.822534790039063 -0.72 -1.9799963378906251 1 1 1 1
v -6.102534790039063 0.56 -1.9799963378906251 1 1 1 1
v -8.662534790039063 -0.72 -4.019996337890625 1 1 1 1
v -7.382534790039062 0.56 -4.019996337890625 1 1 1 1
v -7.382534790039062 -0.72 -4.019996337890625 1 1 1 1
v -8.662534790039063 0.56 -4.019996337890625 1 1 1 1
v 0 0 0 1 1 1 1
v 1.28 1.28 0 1 1 1 1
v 0 1.28 0 1 1 1 1
v 1.28 0 0 1 1 1 1
v -4.822534790039063 -0.72 -0.699996337890625 1 1 1 1
v -6.102534790039063 0.56 -0.699996337890625 1 1 1 1
v -6.102534790039063 -0.72 -0.699996337890625 1 1 1 1
v -4.822534790039063 0.56 -0.699996337890625 1 1 1 1
v -2.1613409423828127 -0.7554463195800781 -11.27082275390625 1 1 1 1
v -3.4413409423828125 0.5245536804199219 -11.27082275390625 1 1 1 1
v -3.4413409423828125 -0.7554463195800781 -11.27082275390625 1 1 1 1
v -2.1613409423828127 0.5245536804199219 -11.27082275390625 1 1 1 1
v -2.1613409423828127 -0.7554463195800781 -12.55082275390625 1 1 1 1
v -2.1613409423828127 0.5245536804199219 -11.27082275390625 1 1 1 1
v -2.1613409423828127 -0.7554463195800781 -11.27082275390625 1 1 1 1
v -2.1613409423828127 0.5245536804199219 -12.55082275390625 1 1 1 1
v -3.4413409423828125 -0.7554463195800781 -12.55082275390625 1 1 1 1
v -3.4413409423828125 0.5245536804199219 -13.83082275390625 1 1 1 1
v -3.4413409423828125 -0.7554463195800781 -13.83082275390625 1 1 1 1
v -3.4413409423828125 0.5245536804199219 -12.55082275390625 1 1 1 1
v -8.662534790039063 -0.72 -2.739996337890625 1 1 1 1
v -8.662534790039063 0.56 -4.019996337890625 1 1 1 1
v -8.662534790039063 -0.72 -4.019996337890625 1 1 1 1
v -8.662534790039063 0.56 -2.739996337890625 1 1 1 1
v -6.491340942382813 -0.7554463195800781 -10.00082275390625 1 1 1 1
v -6.491340942382813 0.5245536804199219 -11.28082275390625 1 1 1 1
v -6.491340942382813 -0.7554463195800781 -11.28082275390625 1 1 1 1
v -6.491340942382813 0.5245536804199219 -10.00082275390625 1 1 1 1
v -7.382534790039062 -0.72 -1.9799963378906251 1 1 1 1
v -6.102534790039063 0.56 -1.9799963378906251 1 1 1 1
v -6.102534790039063 -0.72 -1.9799963378906251 1 1 1 1
v -7.382534790039062 0.56 -1.9799963378906251 1 1 1 1
v -6.102534790039063 -0.72 -0.699996337890625 1 1 1 1
v -7.382534790039062 0.56 -0.699996337890625 1 1 1 1
v -7.382534790039062 -0.72 -0.699996337890625 1 1 1 1
v -6.102534790039063 0.56 -0.699996337890625 1 1 1 1
v -8.662534790039063 -0.72 -1.9799963378906251 1 1 1 1
v -7.382534790039062 0.56 -1.9799963378906251 1 1 1 1
v -7.382534790039062 -0.72 -1.9799963378906251 1 1 1 1
v -8.662534790039063 0.56 -1.9799963378906251 1 1 1 1
v -3.4413409423828125 -0.7554463195800781 -11.27082275390625 1 1 1 1
v -3.4413409423828125 0.5245536804199219 -12.55082275390625 1 1 1 1
v -3.4413409423828125 -0.7554463195800781 -12.55082275390625 1 1 1 1
v -3.4413409423828125 0.5245536804199219 -11.27082275390625 1 1 1 1
v -6.491340942382813 -0.7554463195800781 -12.560822753906251 1 1 1 1
v -5.2113409423828125 0.5245536804199219 -12.560822753906251 1 1 1 1
v -5.2113409423828125 -0.7554463195800781 -12.560822753906251 1 1 1 1
v -6.491340942382813 0.5245536804199219 -12.560822753906251 1 1 1 1
v -3.4413409423828125 -0.7554463195800781 -13.83082275390625 1 1 1 1
v -4.721340942382812 0.5245536804199219 -13.83082275390625 1 1 1 1
v -4.721340942382812 -0.7554463195800781 -13.83082275390625 1 1 1 1
v -3.4413409423828125 0.5245536804199219 -13.83082275390625 1 1 1 1
v -6.001340942382813 -0.7554463195800781 -15.11082275390625 1 1 1 1
v -4.721340942382812 0.5245536804199219 -15.11082275390625 1 1 1 1
v -4.721340942382812 -0.7554463195800781 -15.11082275390625 1 1 1 1
v -6.001340942382813 0.5245536804199219 -15.11082275390625 1 1 1 1
v -4.721340942382812 -0.7554463195800781 -13.83082275390625 1 1 1 1
v -6.001340942382813 0.5245536804199219 -13.83082275390625 1 1 1 1
v -6.001340942382813 -0.7554463195800781 -13.83082275390625 1 1 1 1
v -4.721340942382812 0.5245536804199219 -13.83082275390625 1 1 1 1
v -7.281340942382813 -0.7554463195800781 -15.11082275390625 1 1 1 1
v -6.001340942382813 0.5245536804199219 -15.11082275390625 1 1 1 1
v -6.001340942382813 -0.7554463195800781 -15.11082275390625 1 1 1 1
v -7.281340942382813 0.5245536804199219 -15.11082275390625 1 1 1 1
v -6.001340942382813 -0.7554463195800781 -13.83082275390625 1 1 1 1
v -7.281340942382813 0.5245536804199219 -13.83082275390625 1 1 1 1
v -7.281340942382813 -0.7554463195800781 -13.83082275390625 1 1 1 1
v -6.001340942382813 0.5245536804199219 -13.83082275390625 1 1 1 1
v -7.382534790039062 -0.72 -2.739996337890625 1 1 1 1
v -8.662534790039063 0.56 -2.739996337890625 1 1 1 1
v -8.662534790039063 -0.72 -2.739996337890625 1 1 1 1
v -7.382534790039062 0.56 -2.739996337890625 1 1 1 1
v -8.561340942382813 -0.7554463195800781 -15.11082275390625 1 1 1 1
v -7.281340942382813 0.5245536804199219 -15.11082275390625 1 1 1 1
v -7.281340942382813 -0.7554463195800781 -15.11082275390625 1 1 1 1
v -8.561340942382813 0.5245536804199219 -15.11082275390625 1 1 1 1
v -7.382534790039062 -0.72 -4.019996337890625 1 1 1 1
v -6.102534790039063 0.56 -4.019996337890625 1 1 1 1
v -6.102534790039063 -0.72 -4.019996337890625 1 1 1 1
v -7.382534790039062 0.56 -4.019996337890625 1 1 1 1
v -6.102534790039063 -0.72 -2.739996337890625 1 1 1 1
v -7.382534790039062 0.56 -2.739996337890625 1 1 1 1
v -7.382534790039062 -0.72 -2.739996337890625 1 1 1 1
v -6.102534790039063 0.56 -2.739996337890625 1 1 1 1
v -6.491340942382813 -0.7554463195800781 -11.28082275390625 1 1 1 1
v -6.491340942382813 0.5245536804199219 -12.560822753906251 1 1 1 1
v -6.491340942382813 -0.7554463195800781 -12.560822753906251 1 1 1 1
v -6.491340942382813 0.5245536804199219 -11.28082275390625 1 1 1 1
v -3.5425347900390625 -0.72 -2.739996337890625 1 1 1 1
v -4.822534790039063 0.56 -2.739996337890625 1 1 1 1
v -4.822534790039063 -0.72 -2.739996337890625 1 1 1 1
v -3.5425347900390625 0.56 -2.739996337890625 1 1 1 1
v -3.5425347900390625 -0.72 -4.019996337890625 1 1 1 1
v -3.5425347900390625 0.56 -2.739996337890625 1 1 1 1
v -3.5425347900390625 -0.72 -2.739996337890625 1 1 1 1
v -3.5425347900390625 0.56 -4.019996337890625 1 1 1 1
v -4.822534790039063 -0.72 -1.9799963378906251 1 1 1 1
v -3.5425347900390625 0.56 -1.9799963378906251 1 1 1 1
v -3.5425347900390625 -0.72 -1.9799963378906251 1 1 1 1
v -4.822534790039063 0.56 -1.9799963378906251 1 1 1 1
v -7.281340942382813 -0.7554463195800781 -13.83082275390625 1 1 1 1
v -7.281340942382813 0.5245536804199219 -12.55082275390625 1 1 1 1
v -7.281340942382813 -0.7554463195800781 -12.55082275390625 1 1 1 1
v -7.281340942382813 0.5245536804199219 -13.83082275390625 1 1 1 1
v -5.2113409423828125 -0.7554463195800781 -12.560822753906251 1 1 1 1
v -3.9313409423828127 0.5245536804199219 -12.560822753906251 1 1 1 1
v -3.9313409423828127 -0.7554463195800781 -12.560822753906251 1 1 1 1
v -5.2113409423828125 0.5245536804199219 -12.560822753906251 1 1 1 1
vt 0.5 0.5
vt 0 1
vt 0 0.5
vt 0.5 1
vt 1 0.5
vt 1 1
vt 0.5 0
vt 1 0
vt 0 0
vn 0 0 -1
vn 0 0 1
vn 1 0 0
vn -1 0 0
g Object 52338
usemtl maze_3
f 1/1/1 3/2/1 2/3/1
f 1/1/1 4/4/1 3/2/1
f 5/1/2 6/2/2 7/3/2
f 5/1/2 8/4/2 6/2/2
f 9/1/1 10/2/1 11/3/1
f 9/1/1 12/4/1 10/2/1
f 13/5/3 14/4/3 15/1/3
f 13/5/3 16/6/3 14/4/3
f 17/1/4 18/2/4 19/3/4
f 17/1/4 20/4/4 18/2/4
f 21/1/2 22/2/2 23/3/2
f 21/1/2 24/4/2 22/2/2
f 25/5/3 26/4/3 27/1/3
f 25/5/3 28/6/3 26/4/3
f 29/5/3 30/4/3 31/1/3
f 29/5/3 32/6/3 30/4/3
f 33/5/1 34/4/1 35/1/1
f 33/5/1 36/6/1 34/4/1
f 37/7/2 38/5/2 39/1/2
f 37/7/2 40/8/2 38/5/2
f 41/1/2 42/2/2 43/3/2
f 41/1/2 44/4/2 42/2/2
f 45/1/1 46/2/1 47/3/1
f 45/1/1 48/4/1 46/2/1
f 49/1/4 50/2/4 51/3/4
f 49/1/4 52/4/4 50/2/4
f 53/1/1 54/2/1 55/3/1
f 53/1/1 56/4/1 54/2/1
f 57/7/2 58/5/2 59/8/2
f 57/7/2 60/1/2 58/5/2
f 61/1/4 62/2/4 63/3/4
f 61/1/4 64/4/4 62/2/4
f 65/5/4 66/4/4 67/1/4
f 65/5/4 68/6/4 66/4/4
f 69/5/2 70/4/2 71/1/2
f 69/5/2 72/6/2 70/4/2
f 73/7/2 74/5/2 75/8/2
f 73/7/2 76/1/2 74/5/2
f 77/1/1 78/2/1 79/3/1
f 77/1/1 80/4/1 78/2/1
f 81/9/2 82/1/2 83/7/2
f 81/9/2 84/3/2 82/1/2
f 85/7/2 86/5/2 87/8/2
f 85/7/2 88/1/2 86/5/2
f 89/1/3 90/2/3 91/3/3
f 89/1/3 92/4/3 90/2/3
f 93/7/4 94/5/4 95/8/4
f 93/7/4 96/1/4 94/5/4
f 97/5/3 98/4/3 99/1/3
f 97/5/3 100/6/3 98/4/3
f 101/5/1 102/4/1 103/1/1
f 101/5/1 104/6/1 102/4/1
f 105/1/1 106/2/1 107/3/1
f 105/1/1 108/4/1 106/2/1
f 109/1/3 110/2/3 111/3/3
f 109/1/3 112/4/3 110/2/3
f 113/7/2 114/5/2 115/1/2
f 113/7/2 116/8/2 114/5/2
f 117/7/2 118/5/2 119/8/2
f 117/7/2 120/1/2 118/5/2
f 121/5/4 122/4/4 123/1/4
f 121/5/4 124/6/4 122/4/4
f 125/8/2 126/1/2 127/5/2
f 125/8/2 128/7/2 126/1/2
f 129/5/3 130/4/3 131/1/3
f 129/5/3 132/6/3 130/4/3
f 133/1/3 134/2/3 135/3/3
f 133/1/3 136/4/3 134/2/3
f 137/1/1 138/2/1 139/3/1
f 137/1/1 140/4/1 138/2/1
f 141/1/1 142/2/1 143/3/1
f 141/1/1 144/4/1 142/2/1
f 145/8/2 146/1/2 147/5/2
f 145/8/2 148/7/2 146/1/2
f 149/1/2 150/2/2 151/3/2
f 149/1/2 152/4/2 150/2/2
f 153/5/2 154/4/2 155/1/2
f 153/5/2 156/6/2 154/4/2
f 157/5/3 158/4/3 159/1/3
f 157/5/3 160/6/3 158/4/3
f 161/5/4 162/4/4 163/1/4
f 161/5/4 164/6/4 162/4/4
f 165/1/4 166/2/4 167/3/4
f 165/1/4 168/4/4 166/2/4
f 169/5/4 170/4/4 171/1/4
f 169/5/4 172/6/4 170/4/4
f 173/1/1 174/2/1 175/3/1
f 173/1/1 176/4/1 174/2/1
f 177/9/2 178/1/2 179/7/2
f 177/9/2 180/3/2 178/1/2
f 181/1/1 182/2/1 183/3/1
f 181/1/1 184/4/1 182/2/1
f 185/5/4 186/4/4 187/1/4
f 185/5/4 188/6/4 186/4/4
f 189/5/1 190/4/1 191/1/1
f 189/5/1 192/6/1 190/4/1
f 193/7/2 194/5/2 195/8/2
f 193/7/2 196/1/2 194/5/2
f 197/5/1 198/4/1 199/1/1
f 197/5/1 200/6/1 198/4/1
f 201/5/2 202/4/2 203/1/2
f 201/5/2 204/6/2 202/4/2
f 205/5/1 206/4/1 207/1/1
f 205/5/1 208/6/1 206/4/1
f 209/5/2 210/4/2 211/1/2
f 209/5/2 212/6/2 210/4/2
f 213/1/2 214/6/2 215/5/2
f 213/1/2 216/4/2 214/6/2
f 217/5/1 218/4/1 219/1/1
f 217/5/1 220/6/1 218/4/1
f 221/1/1 222/2/1 223/3/1
f 221/1/1 224/4/1 222/2/1
f 225/1/2 226/6/2 227/5/2
f 225/1/2 228/4/2 226/6/2
f 229/5/4 230/4/4 231/1/4
f 229/5/4 232/6/4 230/4/4
f 233/1/2 234/2/2 235/3/2
f 233/1/2 236/4/2 234/2/2
f 237/1/3 238/2/3 239/3/3
f 237/1/3 240/4/3 238/2/3
f 241/1/1 242/2/1 243/3/1
f 241/1/1 244/4/1 242/2/1
f 245/5/3 246/4/3 247/1/3
f 245/5/3 248/6/3 246/4/3
f 249/5/1 250/4/1 251/1/1
f 249/5/1 252/6/1 250/4/1
