mtllib material.mtl
o Default
v 8.58 -0.75 -9.13 1 1 1 1
v 8.58 -0.75 -10.41 1 1 1 1
v 8.58 0.53 -10.41 1 1 1 1
v 8.58 0.53 -9.13 1 1 1 1
v 9.86 -0.75 -11.69 1 1 1 1
v 9.86 0.53 -10.41 1 1 1 1
v 9.86 -0.75 -10.41 1 1 1 1
v 9.86 0.53 -11.69 1 1 1 1
v 8.58 -0.75 -11.69 1 1 1 1
v 9.86 0.53 -11.69 1 1 1 1
v 9.86 -0.75 -11.69 1 1 1 1
v 8.58 0.53 -11.69 1 1 1 1
v 5.74 -0.75 -10.98 1 1 1 1
v 5.74 0.53 -9.700000000000001 1 1 1 1
v 5.74 -0.75 -9.700000000000001 1 1 1 1
v 5.74 0.53 -10.98 1 1 1 1
v 7.0200000000000005 -0.75 -3.21 1 1 1 1
v 8.3 0.53 -3.21 1 1 1 1
v 8.3 -0.75 -3.21 1 1 1 1
v 7.0200000000000005 0.53 -3.21 1 1 1 1
v 7.0200000000000005 -0.75 -1.93 1 1 1 1
v 7.0200000000000005 0.53 -3.21 1 1 1 1
v 7.0200000000000005 -0.75 -3.21 1 1 1 1
v 7.0200000000000005 0.53 -1.93 1 1 1 1
v 8.3 -0.75 -1.93 1 1 1 1
v 7.0200000000000005 0.53 -1.93 1 1 1 1
v 7.0200000000000005 -0.75 -1.93 1 1 1 1
v 8.3 0.53 -1.93 1 1 1 1
v 0.63 -0.75 -3.21 1 1 1 1
v 1.9100000000000001 0.53 -3.21 1 1 1 1
v 1.9100000000000001 -0.75 -3.21 1 1 1 1
v 0.63 0.53 -3.21 1 1 1 1
v 0.63 -0.75 -1.93 1 1 1 1
v 0.63 0.53 -3.21 1 1 1 1
v 0.63 -0.75 -3.21 1 1 1 1
v 0.63 0.53 -1.93 1 1 1 1
v 0.68 -0.75 -12.51 1 1 1 1
v 0.68 0.53 -13.790000000000001 1 1 1 1
v 0.68 -0.75 -13.790000000000001 1 1 1 1
v 0.68 0.53 -12.51 1 1 1 1
v 1.96 -0.75 -12.51 1 1 1 1
v 0.68 0.53 -12.51 1 1 1 1
v 0.68 -0.75 -12.51 1 1 1 1
v 1.96 0.53 -12.51 1 1 1 1
v 3.19 -0.75 -3.21 1 1 1 1
v 4.47 0.53 -3.21 1 1 1 1
v 4.47 -0.75 -3.21 1 1 1 1
v 3.19 0.53 -3.21 1 1 1 1
v 0.68 -0.75 -15.07 1 1 1 1
v 1.96 0.53 -15.07 1 1 1 1
v 1.96 -0.75 -15.07 1 1 1 1
v 0.68 0.53 -15.07 1 1 1 1
v 0.68 -0.75 -13.790000000000001 1 1 1 1
v 0.68 0.53 -15.07 1 1 1 1
v 0.68 -0.75 -15.07 1 1 1 1
v 0.68 0.53 -13.790000000000001 1 1 1 1
v 4.46 -0.75 -10.98 1 1 1 1
v 5.74 0.53 -10.98 1 1 1 1
v 5.74 -0.75 -10.98 1 1 1 1
v 4.46 0.53 -10.98 1 1 1 1
v 4.46 -0.75 -9.700000000000001 1 1 1 1
v 4.46 0.53 -10.98 1 1 1 1
v 4.46 -0.75 -10.98 1 1 1 1
v 4.46 0.53 -9.700000000000001 1 1 1 1
v 5.74 -0.75 -9.700000000000001 1 1 1 1
v 4.46 0.53 -9.700000000000001 1 1 1 1
v 4.46 -0.75 -9.700000000000001 1 1 1 1
v 5.74 0.53 -9.700000000000001 1 1 1 1
v 4.5200000000000005 -0.75 -13.790000000000001 1 1 1 1
v 5.8 0.53 -13.790000000000001 1 1 1 1
v 5.8 -0.75 -13.790000000000001 1 1 1 1
v 4.5200000000000005 0.53 -13.790000000000001 1 1 1 1
v 4.5200000000000005 -0.75 -12.51 1 1 1 1
v 4.5200000000000005 0.53 -13.790000000000001 1 1 1 1
v 4.5200000000000005 -0.75 -13.790000000000001 1 1 1 1
v 4.5200000000000005 0.53 -12.51 1 1 1 1
v 9.64 -0.75 -14.82 1 1 1 1
v 9.64 0.53 -13.540000000000001 1 1 1 1
v 9.64 -0.75 -13.540000000000001 1 1 1 1
v 9.64 0.53 -14.82 1 1 1 1
v 8.36 -0.75 -13.540000000000001 1 1 1 1
v 8.36 0.53 -14.82 1 1 1 1
v 8.36 -0.75 -14.82 1 1 1 1
v 8.36 0.53 -13.540000000000001 1 1 1 1
v 4.47 -0.75 -3.21 1 1 1 1
v 5.75 0.53 -3.21 1 1 1 1
v 5.75 -0.75 -3.21 1 1 1 1
v 4.47 0.53 -3.21 1 1 1 1
v 8.36 -0.75 -16.1 1 1 1 1
v 9.64 0.53 -16.1 1 1 1 1
v 9.64 -0.75 -16.1 1 1 1 1
v 8.36 0.53 -16.1 1 1 1 1
v 8.36 -0.75 -14.82 1 1 1 1
v 8.36 0.53 -16.1 1 1 1 1
v 8.36 -0.75 -16.1 1 1 1 1
v 8.36 0.53 -14.82 1 1 1 1
v 9.64 -0.75 -16.1 1 1 1 1
v 9.64 0.53 -14.82 1 1 1 1
v 9.64 -0.75 -14.82 1 1 1 1
v 9.64 0.53 -16.1 1 1 1 1
v 3.19 -0.75 -1.93 1 1 1 1
v 1.9100000000000001 0.53 -1.93 1 1 1 1
v 1.9100000000000001 -0.75 -1.93 1 1 1 1
v 3.19 0.53 -1.93 1 1 1 1
v 5.75 -0.75 -1.93 1 1 1 1
v 4.47 0.53 -1.93 1 1 1 1
v 4.47 -0.75 -1.93 1 1 1 1
v 5.75 0.53 -1.93 1 1 1 1
v 9.64 -0.75 -13.540000000000001 1 1 1 1
v 8.36 0.53 -13.540000000000001 1 1 1 1
v 8.36 -0.75 -13.540000000000001 1 1 1 1
v 9.64 0.53 -13.540000000000001 1 1 1 1
v 9.58 -0.75 -3.21 1 1 1 1
v 9.58 0.53 -1.93 1 1 1 1
v 9.58 -0.75 -1.93 1 1 1 1
v 9.58 0.53 -3.21 1 1 1 1
v 8.3 -0.75 -3.21 1 1 1 1
v 9.58 0.53 -3.21 1 1 1 1
v 9.58 -0.75 -3.21 1 1 1 1
v 8.3 0.53 -3.21 1 1 1 1
v 9.58 -0.75 -1.93 1 1 1 1
v 8.3 0.53 -1.93 1 1 1 1
v 8.3 -0.75 -1.93 1 1 1 1
v 9.58 0.53 -1.93 1 1 1 1
v 5.75 -0.75 -3.21 1 1 1 1
v 5.75 0.53 -1.93 1 1 1 1
v 5.75 -0.75 -1.93 1 1 1 1
v 5.75 0.53 -3.21 1 1 1 1
v 4.47 -0.75 -1.93 1 1 1 1
v 3.19 0.53 -1.93 1 1 1 1
v 3.19 -0.75 -1.93 1 1 1 1
v 4.47 0.53 -1.93 1 1 1 1
v 5.8 -0.75 -12.51 1 1 1 1
v 4.5200000000000005 0.53 -12.51 1 1 1 1
v 4.5200000000000005 -0.75 -12.51 1 1 1 1
v 5.8 0.53 -12.51 1 1 1 1
v 5.8 -0.75 -13.790000000000001 1 1 1 1
v 5.8 0.53 -12.51 1 1 1 1
v 5.8 -0.75 -12.51 1 1 1 1
v 5.8 0.53 -13.790000000000001 1 1 1 1
v 4.5200000000000005 -0.75 -15.07 1 1 1 1
v 5.8 0.53 -15.07 1 1 1 1
v 5.8 -0.75 -15.07 1 1 1 1
v 4.5200000000000005 0.53 -15.07 1 1 1 1
v 5.8 -0.75 -15.07 1 1 1 1
v 5.8 0.53 -13.790000000000001 1 1 1 1
v 5.8 -0.75 -13.790000000000001 1 1 1 1
v 5.8 0.53 -15.07 1 1 1 1
v 3.24 -0.75 -15.07 1 1 1 1
v 4.5200000000000005 0.53 -15.07 1 1 1 1
v 4.5200000000000005 -0.75 -15.07 1 1 1 1
v 3.24 0.53 -15.07 1 1 1 1
v 4.5200000000000005 -0.75 -13.790000000000001 1 1 1 1
v 3.24 0.53 -13.790000000000001 1 1 1 1
v 3.24 -0.75 -13.790000000000001 1 1 1 1
v 4.5200000000000005 0.53 -13.790000000000001 1 1 1 1
v 1.96 -0.75 -15.07 1 1 1 1
v 3.24 0.53 -15.07 1 1 1 1
v 3.24 -0.75 -15.07 1 1 1 1
v 1.96 0.53 -15.07 1 1 1 1
v 3.24 -0.75 -12.51 1 1 1 1
v 1.96 0.53 -12.51 1 1 1 1
v 1.96 -0.75 -12.51 1 1 1 1
v 3.24 0.53 -12.51 1 1 1 1
v 3.24 -0.75 -13.790000000000001 1 1 1 1
v 3.24 0.53 -12.51 1 1 1 1
v 3.24 -0.75 -12.51 1 1 1 1
v 3.24 0.53 -13.790000000000001 1 1 1 1
v 1.9100000000000001 -0.75 -1.93 1 1 1 1
v 0.63 0.53 -1.93 1 1 1 1
v 0.63 -0.75 -1.93 1 1 1 1
v 1.9100000000000001 0.53 -1.93 1 1 1 1
v 1.9100000000000001 -0.75 -3.21 1 1 1 1
v 3.19 0.53 -3.21 1 1 1 1
v 3.19 -0.75 -3.21 1 1 1 1
v 1.9100000000000001 0.53 -3.21 1 1 1 1
v 8.58 -0.75 -10.41 1 1 1 1
v 7.3 0.53 -10.41 1 1 1 1
v 7.3 -0.75 -10.41 1 1 1 1
v 8.58 0.53 -10.41 1 1 1 1
v 7.3 -0.75 -10.41 1 1 1 1
v 7.3 0.53 -11.69 1 1 1 1
v 7.3 -0.75 -11.69 1 1 1 1
v 7.3 0.53 -10.41 1 1 1 1
v 7.3 -0.75 -11.69 1 1 1 1
v 8.58 0.53 -11.69 1 1 1 1
v 8.58 -0.75 -11.69 1 1 1 1
v 7.3 0.53 -11.69 1 1 1 1
v -0.64 -0.75 -8.75 1 1 1 1
v -0.64 0.53 -10.03 1 1 1 1
v -0.64 -0.75 -10.03 1 1 1 1
v -0.64 0.53 -8.75 1 1 1 1
v -0.64 -0.75 -10.03 1 1 1 1
v 0.64 0.53 -10.03 1 1 1 1
v 0.64 -0.75 -10.03 1 1 1 1
v -0.64 0.53 -10.03 1 1 1 1
v 5.88 -0.75 -7.45 1 1 1 1
v 7.16 0.53 -7.45 1 1 1 1
v 7.16 -0.75 -7.45 1 1 1 1
v 5.88 0.53 -7.45 1 1 1 1
v 7.16 -0.75 -7.45 1 1 1 1
v 7.16 0.53 -6.17 1 1 1 1
v 7.16 -0.75 -6.17 1 1 1 1
v 7.16 0.53 -7.45 1 1 1 1
v 7.16 -0.75 -6.17 1 1 1 1
v 5.88 0.53 -6.17 1 1 1 1
v 5.88 -0.75 -6.17 1 1 1 1
v 7.16 0.53 -6.17 1 1 1 1
v 4.6000000000000005 -0.75 -7.45 1 1 1 1
v 5.88 0.53 -7.45 1 1 1 1
v 5.88 -0.75 -7.45 1 1 1 1
v 4.6000000000000005 0.53 -7.45 1 1 1 1
v 5.88 -0.75 -6.17 1 1 1 1
v 4.6000000000000005 0.53 -6.17 1 1 1 1
v 4.6000000000000005 -0.75 -6.17 1 1 1 1
v 5.88 0.53 -6.17 1 1 1 1
v 3.3200000000000003 -0.75 -7.45 1 1 1 1
v 4.6000000000000005 0.53 -7.45 1 1 1 1
v 4.6000000000000005 -0.75 -7.45 1 1 1 1
v 3.3200000000000003 0.53 -7.45 1 1 1 1
v 4.6000000000000005 -0.75 -6.17 1 1 1 1
v 3.3200000000000003 0.53 -6.17 1 1 1 1
v 3.3200000000000003 -0.75 -6.17 1 1 1 1
v 4.6000000000000005 0.53 -6.17 1 1 1 1
v 2.04 -0.75 -6.17 1 1 1 1
v 2.04 0.53 -7.45 1 1 1 1
v 2.04 -0.75 -7.45 1 1 1 1
v 2.04 0.53 -6.17 1 1 1 1
v 2.04 -0.75 -7.45 1 1 1 1
v 3.3200000000000003 0.53 -7.45 1 1 1 1
v 3.3200000000000003 -0.75 -7.45 1 1 1 1
v 2.04 0.53 -7.45 1 1 1 1
v 3.3200000000000003 -0.75 -6.17 1 1 1 1
v 2.04 0.53 -6.17 1 1 1 1
v 2.04 -0.75 -6.17 1 1 1 1
v 3.3200000000000003 0.53 -6.17 1 1 1 1
v 0.63 -0.75 -10.03 1 1 1 1
v 0.63 0.53 -8.75 1 1 1 1
v 0.63 -0.75 -8.75 1 1 1 1
v 0.63 0.53 -10.03 1 1 1 1
v -0.64 -0.75 -6.19 1 1 1 1
v -0.64 0.53 -7.47 1 1 1 1
v -0.64 -0.75 -7.47 1 1 1 1
v -0.64 0.53 -6.19 1 1 1 1
v -0.64 -0.75 -7.47 1 1 1 1
v -0.64 0.53 -8.75 1 1 1 1
v -0.64 -0.75 -8.75 1 1 1 1
v -0.64 0.53 -7.47 1 1 1 1
v 0.63 -0.75 -8.75 1 1 1 1
v 0.63 0.53 -7.47 1 1 1 1
v 0.63 -0.75 -7.47 1 1 1 1
v 0.63 0.53 -8.75 1 1 1 1
v 0.63 -0.75 -7.47 1 1 1 1
v 0.63 0.53 -6.19 1 1 1 1
v 0.63 -0.75 -6.19 1 1 1 1
v 0.63 0.53 -7.47 1 1 1 1
v 0.63 -0.75 -6.19 1 1 1 1
v -0.65 0.53 -6.19 1 1 1 1
v -0.65 -0.75 -6.19 1 1 1 1
v 0.63 0.53 -6.19 1 1 1 1
v 9.86 -0.75 -9.13 1 1 1 1
v 9.86 0.53 -7.8500000000000005 1 1 1 1
v 9.86 -0.75 -7.8500000000000005 1 1 1 1
v 9.86 0.53 -9.13 1 1 1 1
v 9.86 -0.75 -7.8500000000000005 1 1 1 1
v 8.58 0.53 -7.8500000000000005 1 1 1 1
v 8.58 -0.75 -7.8500000000000005 1 1 1 1
v 9.86 0.53 -7.8500000000000005 1 1 1 1
v 8.58 -0.75 -7.8500000000000005 1 1 1 1
v 8.58 0.53 -9.13 1 1 1 1
v 8.58 -0.75 -9.13 1 1 1 1
v 8.58 0.53 -7.8500000000000005 1 1 1 1
v 9.86 -0.75 -10.41 1 1 1 1
v 9.86 0.53 -9.13 1 1 1 1
v 9.86 -0.75 -9.13 1 1 1 1
v 9.86 0.53 -10.41 1 1 1 1
vt 1 0.5
vt 0.5 1
vt 0.5 0.5
vt 1 1
vt 0 1
vt 0 0.5
vt 0 0
vt 0.5 0
vt 1 0
vn -1 0 0
vn 1 0 0
vn 0 0 -1
vn 0 0 1
g Object 51940
usemtl maze_1
f 1/1/1 3/2/1 2/3/1
f 1/1/1 4/4/1 3/2/1
f 5/1/2 6/2/2 7/3/2
f 5/1/2 8/4/2 6/2/2
f 9/1/3 10/2/3 11/3/3
f 9/1/3 12/4/3 10/2/3
f 13/1/2 14/2/2 15/3/2
f 13/1/2 16/4/2 14/2/2
f 17/3/3 18/5/3 19/6/3
f 17/3/3 20/2/3 18/5/3
f 21/3/1 22/5/1 23/6/1
f 21/3/1 24/2/1 22/5/1
f 25/3/4 26/4/4 27/1/4
f 25/3/4 28/2/4 26/4/4
f 29/3/3 30/5/3 31/6/3
f 29/3/3 32/2/3 30/5/3
f 33/3/1 34/4/1 35/1/1
f 33/3/1 36/2/1 34/4/1
f 37/1/1 38/2/1 39/3/1
f 37/1/1 40/4/1 38/2/1
f 41/1/4 42/2/4 43/3/4
f 41/1/4 44/4/4 42/2/4
f 45/3/3 46/5/3 47/6/3
f 45/3/3 48/2/3 46/5/3
f 49/1/3 50/2/3 51/3/3
f 49/1/3 52/4/3 50/2/3
f 53/6/1 54/2/1 55/3/1
f 53/6/1 56/5/1 54/2/1
f 57/1/3 58/2/3 59/3/3
f 57/1/3 60/4/3 58/2/3
f 61/6/1 62/2/1 63/3/1
f 61/6/1 64/5/1 62/2/1
f 65/1/4 66/2/4 67/3/4
f 65/1/4 68/4/4 66/2/4
f 69/1/3 70/2/3 71/3/3
f 69/1/3 72/4/3 70/2/3
f 73/1/1 74/2/1 75/3/1
f 73/1/1 76/4/1 74/2/1
f 77/1/2 78/2/2 79/3/2
f 77/1/2 80/4/2 78/2/2
f 81/6/1 82/2/1 83/3/1
f 81/6/1 84/5/1 82/2/1
f 85/3/3 86/5/3 87/6/3
f 85/3/3 88/2/3 86/5/3
f 89/1/3 90/2/3 91/3/3
f 89/1/3 92/4/3 90/2/3
f 93/1/1 94/2/1 95/3/1
f 93/1/1 96/4/1 94/2/1
f 97/1/2 98/2/2 99/3/2
f 97/1/2 100/4/2 98/2/2
f 101/7/4 102/3/4 103/8/4
f 101/7/4 104/6/4 102/3/4
f 105/3/4 106/5/4 107/6/4
f 105/3/4 108/2/4 106/5/4
f 109/1/4 110/2/4 111/3/4
f 109/1/4 112/4/4 110/2/4
f 113/3/2 114/5/2 115/6/2
f 113/3/2 116/2/2 114/5/2
f 117/3/3 118/5/3 119/6/3
f 117/3/3 120/2/3 118/5/3
f 121/3/4 122/5/4 123/6/4
f 121/3/4 124/2/4 122/5/4
f 125/3/2 126/5/2 127/6/2
f 125/3/2 128/2/2 126/5/2
f 129/7/4 130/3/4 131/8/4
f 129/7/4 132/6/4 130/3/4
f 133/1/4 134/2/4 135/3/4
f 133/1/4 136/4/4 134/2/4
f 137/7/2 138/3/2 139/8/2
f 137/7/2 140/6/2 138/3/2
f 141/1/3 142/2/3 143/3/3
f 141/1/3 144/4/3 142/2/3
f 145/1/2 146/2/2 147/3/2
f 145/1/2 148/4/2 146/2/2
f 149/6/3 150/2/3 151/3/3
f 149/6/3 152/5/3 150/2/3
f 153/8/4 154/1/4 155/9/4
f 153/8/4 156/3/4 154/1/4
f 157/1/3 158/2/3 159/3/3
f 157/1/3 160/4/3 158/2/3
f 161/6/4 162/2/4 163/3/4
f 161/6/4 164/5/4 162/2/4
f 165/1/2 166/2/2 167/3/2
f 165/1/2 168/4/2 166/2/2
f 169/3/4 170/5/4 171/6/4
f 169/3/4 172/2/4 170/5/4
f 173/3/3 174/5/3 175/6/3
f 173/3/3 176/2/3 174/5/3
f 177/1/4 178/2/4 179/3/4
f 177/1/4 180/4/4 178/2/4
f 181/1/1 182/2/1 183/3/1
f 181/1/1 184/4/1 182/2/1
f 185/1/3 186/2/3 187/3/3
f 185/1/3 188/4/3 186/2/3
f 189/1/1 190/2/1 191/3/1
f 189/1/1 192/4/1 190/2/1
f 193/1/3 194/2/3 195/3/3
f 193/1/3 196/4/3 194/2/3
f 197/3/3 198/5/3 199/6/3
f 197/3/3 200/2/3 198/5/3
f 201/3/2 202/5/2 203/6/2
f 201/3/2 204/2/2 202/5/2
f 205/3/4 206/4/4 207/1/4
f 205/3/4 208/2/4 206/4/4
f 209/3/3 210/5/3 211/6/3
f 209/3/3 212/2/3 210/5/3
f 213/3/4 214/5/4 215/6/4
f 213/3/4 216/2/4 214/5/4
f 217/3/3 218/4/3 219/1/3
f 217/3/3 220/2/3 218/4/3
f 221/8/4 222/1/4 223/9/4
f 221/8/4 224/3/4 222/1/4
f 225/3/1 226/5/1 227/6/1
f 225/3/1 228/2/1 226/5/1
f 229/3/3 230/5/3 231/6/3
f 229/3/3 232/2/3 230/5/3
f 233/3/4 234/5/4 235/6/4
f 233/3/4 236/2/4 234/5/4
f 237/7/2 238/3/2 239/8/2
f 237/7/2 240/6/2 238/3/2
f 241/1/1 242/2/1 243/3/1
f 241/1/1 244/4/1 242/2/1
f 245/1/1 246/2/1 247/3/1
f 245/1/1 248/4/1 246/2/1
f 249/6/2 250/2/2 251/3/2
f 249/6/2 252/5/2 250/2/2
f 253/1/2 254/2/2 255/3/2
f 253/1/2 256/4/2 254/2/2
f 257/1/4 258/2/4 259/3/4
f 257/1/4 260/4/4 258/2/4
f 261/1/2 262/2/2 263/3/2
f 261/1/2 264/4/2 262/2/2
f 265/1/4 266/2/4 267/3/4
f 265/1/4 268/4/4 266/2/4
f 269/8/1 270/1/1 271/9/1
f 269/8/1 272/3/1 270/1/1
f 273/1/2 274/2/2 275/3/2
f 273/1/2 276/4/2 274/2/2
