mtllib pedestal.mtl
o Default
v 0.14 -0.01 -0.02 1 1 1 1
v 0.14 -0.01 -0.04 1 1 1 1
v 0.16 -0.01 -0.04 1 1 1 1
v 0.16 -0.01 -0.02 1 1 1 1
v 0.03841548919677734 0.19175922393798828 -0.41000000000000003 1 1 1 1
v 0.13841548919677735 0.19175922393798828 -0.33 1 1 1 1
v 0.13841548919677735 0.19175922393798828 -0.41000000000000003 1 1 1 1
v 0.058415489196777345 0.19175922393798828 -0.41000000000000003 1 1 1 1
v 0.03841548919677734 0.19175922393798828 -0.41000000000000003 1 1 1 1
v 0.13841545104980468 0.1517592239379883 -0.33 1 1 1 1
v 0.13841548919677735 0.19175922393798828 -0.33 1 1 1 1
v 0.03841545104980469 0.1517592239379883 -0.41000000000000003 1 1 1 1
v 0.13841548919677735 0.19175922393798828 -0.41000000000000003 1 1 1 1
v 0.03841545104980469 0.1517592239379883 -0.41000000000000003 1 1 1 1
v 0.03841548919677734 0.19175922393798828 -0.41000000000000003 1 1 1 1
v 0.13841545104980468 0.1517592239379883 -0.41000000000000003 1 1 1 1
v 0.13841548919677735 0.19175922393798828 -0.33 1 1 1 1
v 0.13841545104980468 0.1517592239379883 -0.41000000000000003 1 1 1 1
v 0.13841548919677735 0.19175922393798828 -0.41000000000000003 1 1 1 1
v 0.13841545104980468 0.1517592239379883 -0.33 1 1 1 1
v 0.13841545104980468 0.1517592239379883 -0.33 1 1 1 1
v 0.03841545104980469 0.1517592239379883 -0.41000000000000003 1 1 1 1
v 0.13841545104980468 0.1517592239379883 -0.41000000000000003 1 1 1 1
v 0.13841545104980468 0.1517592239379883 -0.33 1 1 1 1
v 0.1400873565673828 0.1916718673706055 -0.33 1 1 1 1
v 0.1400873565673828 0.29167186737060546 -0.41000000000000003 1 1 1 1
v 0.1400873565673828 0.1916718673706055 -0.41000000000000003 1 1 1 1
v 0.1400873565673828 0.1916718673706055 -0.33 1 1 1 1
v 0.1800873565673828 0.1916718673706055 -0.33 1 1 1 1
v 0.1400873565673828 0.1916718673706055 -0.41000000000000003 1 1 1 1
v 0.1800873565673828 0.1916718673706055 -0.41000000000000003 1 1 1 1
v 0.1400873565673828 0.1916718673706055 -0.33 1 1 1 1
v 0.1800873565673828 0.1916718673706055 -0.41000000000000003 1 1 1 1
v 0.1400873565673828 0.29167186737060546 -0.41000000000000003 1 1 1 1
v 0.1800873565673828 0.29167186737060546 -0.41000000000000003 1 1 1 1
v 0.1400873565673828 0.1916718673706055 -0.41000000000000003 1 1 1 1
v 0.1800873565673828 0.29167186737060546 -0.41000000000000003 1 1 1 1
v 0.1400873565673828 0.1916718673706055 -0.33 1 1 1 1
v 0.1800873565673828 0.1916718673706055 -0.33 1 1 1 1
v 0.1400873565673828 0.29167186737060546 -0.41000000000000003 1 1 1 1
v 0.1800873565673828 0.29167186737060546 -0.41000000000000003 1 1 1 1
v 0.1800873565673828 0.1916718673706055 -0.33 1 1 1 1
v 0.1800873565673828 0.1916718673706055 -0.41000000000000003 1 1 1 1
v 0.1800873565673828 0.2716718673706055 -0.41000000000000003 1 1 1 1
v 0.28 0.15 -0.41000000000000003 1 1 1 1
v 0.18 0.15 -0.33 1 1 1 1
v 0.18 0.15 -0.41000000000000003 1 1 1 1
v 0.26 0.15 -0.41000000000000003 1 1 1 1
v 0.28 0.15 -0.41000000000000003 1 1 1 1
v 0.18 0.19 -0.33 1 1 1 1
v 0.18 0.15 -0.33 1 1 1 1
v 0.28 0.19 -0.41000000000000003 1 1 1 1
v 0.18 0.15 -0.41000000000000003 1 1 1 1
v 0.28 0.19 -0.41000000000000003 1 1 1 1
v 0.28 0.15 -0.41000000000000003 1 1 1 1
v 0.18 0.19 -0.41000000000000003 1 1 1 1
v 0.18 0.15 -0.33 1 1 1 1
v 0.18 0.19 -0.41000000000000003 1 1 1 1
v 0.18 0.15 -0.41000000000000003 1 1 1 1
v 0.18 0.19 -0.33 1 1 1 1
v 0.18 0.19 -0.33 1 1 1 1
v 0.28 0.19 -0.41000000000000003 1 1 1 1
v 0.18 0.19 -0.41000000000000003 1 1 1 1
v 0.18 0.19 -0.33 1 1 1 1
v 0 0 0 1 1 1 1
v 0.32 0.32 0 1 1 1 1
v 0 0.32 0 1 1 1 1
v 0.32 0 0 1 1 1 1
v 0.32 0 0 1 1 1 1
v 0.32 0.32 -0.04 1 1 1 1
v 0.32 0.32 0 1 1 1 1
v 0.32 0 -0.04 1 1 1 1
v 0.32 0.32 0 1 1 1 1
v 0 0.32 -0.04 1 1 1 1
v 0 0.32 0 1 1 1 1
v 0.32 0.32 -0.04 1 1 1 1
v 0 0.32 0 1 1 1 1
v 0 0 -0.04 1 1 1 1
v 0 0 0 1 1 1 1
v 0 0.32 -0.04 1 1 1 1
v 0 0 0 1 1 1 1
v 0.32 0 -0.04 1 1 1 1
v 0.32 0 0 1 1 1 1
v 0 0 -0.04 1 1 1 1
v 0.32 -0.01 -0.04 1 1 1 1
v 0 0.32 -0.04 1 1 1 1
v 0.32 0.32 -0.04 1 1 1 1
v 0 -0.01 -0.04 1 1 1 1
v 0.14 0.15 -0.41000000000000003 1 1 1 1
v 0.18 0.15 -0.04 1 1 1 1
v 0.14 0.15 -0.04 1 1 1 1
v 0.18 0.15 -0.41000000000000003 1 1 1 1
v 0.14 0.19 -0.04 1 1 1 1
v 0.18 0.19 -0.41000000000000003 1 1 1 1
v 0.14 0.19 -0.41000000000000003 1 1 1 1
v 0.18 0.19 -0.04 1 1 1 1
v 0.18 0.19 -0.04 1 1 1 1
v 0.18 0.15 -0.41000000000000003 1 1 1 1
v 0.18 0.19 -0.41000000000000003 1 1 1 1
v 0.18 0.15 -0.04 1 1 1 1
v 0.14 0.15 -0.04 1 1 1 1
v 0.14 0.19 -0.41000000000000003 1 1 1 1
v 0.14 0.15 -0.41000000000000003 1 1 1 1
v 0.14 0.19 -0.04 1 1 1 1
v 0.17832809448242187 0.15008731842041015 -0.33 1 1 1 1
v 0.17832809448242187 0.05008731842041016 -0.41000000000000003 1 1 1 1
v 0.17832809448242187 0.15008731842041015 -0.41000000000000003 1 1 1 1
v 0.17832809448242187 0.15008731842041015 -0.33 1 1 1 1
v 0.13832809448242187 0.15008731842041015 -0.33 1 1 1 1
v 0.17832809448242187 0.15008731842041015 -0.41000000000000003 1 1 1 1
v 0.13832809448242187 0.15008731842041015 -0.41000000000000003 1 1 1 1
v 0.17832809448242187 0.15008731842041015 -0.33 1 1 1 1
v 0.13832809448242187 0.15008731842041015 -0.41000000000000003 1 1 1 1
v 0.17832809448242187 0.05008731842041016 -0.41000000000000003 1 1 1 1
v 0.13832809448242187 0.05008731842041016 -0.41000000000000003 1 1 1 1
v 0.17832809448242187 0.15008731842041015 -0.41000000000000003 1 1 1 1
v 0.13832809448242187 0.05008731842041016 -0.41000000000000003 1 1 1 1
v 0.17832809448242187 0.15008731842041015 -0.33 1 1 1 1
v 0.13832809448242187 0.15008731842041015 -0.33 1 1 1 1
v 0.17832809448242187 0.05008731842041016 -0.41000000000000003 1 1 1 1
v 0.13832809448242187 0.05008731842041016 -0.41000000000000003 1 1 1 1
v 0.13832809448242187 0.15008731842041015 -0.33 1 1 1 1
v 0.13832809448242187 0.15008731842041015 -0.41000000000000003 1 1 1 1
v 0.13832809448242187 0.07008735656738281 -0.41000000000000003 1 1 1 1
vt 0.15625 0.015625
vt 0.1640625 0.0234375
vt 0.15625 0.0234375
vt 0.1640625 0.015625
vt 0.96875 0
vt 1 0.03125
vt 0.96875 0.03125
vt 1 0
vt 0 0
vt 0.125 0.125
vt 0 0.125
vt 0.125 0
vt 0.15625 0
vt 0.171875 0.125
vt 0.15625 0.125
vt 0.171875 0
vt 0 -0.00390625
vt 0.125 -0.00390625
vt 0 0.75
vt 0.015625 1
vt 0 1
vt 0.015625 0.75
vn 0 1 0
vn 0 -1 0
vn -0.62469505 6e-7 0.78086881
vn 0 0 -1
vn 1 -9.5e-7 0
vn 0 0 0
vn -1 0 0
vn 0 0.62469505 0.78086881
vn 1 0 0
vn 0.62469505 0 0.78086881
vn 0 0 1
vn 0 -0.62469505 0.78086881
g Scene
usemtl 0
f 1/1/1 3/2/1 2/3/1
f 1/1/1 4/4/1 3/2/1
f 5/5/1 6/6/1 7/7/1
f 5/5/2 8/8/2 6/6/2
f 9/4/3 10/3/3 11/1/3
f 9/4/3 12/2/3 10/3/3
f 13/4/4 14/3/4 15/1/4
f 13/4/4 16/2/4 14/3/4
f 17/4/5 18/3/5 19/1/5
f 17/4/5 20/2/5 18/3/5
f 21/5/2 22/6/2 23/7/2
f 21/5/6 24/8/6 22/6/6
f 25/5/7 26/6/7 27/7/7
f 25/5/6 28/8/6 26/6/6
f 29/4/2 30/3/2 31/1/2
f 29/4/2 32/2/2 30/3/2
f 33/4/4 34/3/4 35/1/4
f 33/4/4 36/2/4 34/3/4
f 37/4/8 38/3/8 39/1/8
f 37/4/8 40/2/8 38/3/8
f 41/5/9 42/6/9 43/7/9
f 41/5/7 44/8/7 42/6/7
f 45/5/2 46/6/2 47/7/2
f 45/5/1 48/8/1 46/6/1
f 49/4/10 50/3/10 51/1/10
f 49/4/10 52/2/10 50/3/10
f 53/4/4 54/3/4 55/1/4
f 53/4/4 56/2/4 54/3/4
f 57/4/7 58/3/7 59/1/7
f 57/4/7 60/2/7 58/3/7
f 61/5/1 62/6/1 63/7/1
f 61/5/6 64/8/6 62/6/6
f 65/9/11 66/10/11 67/11/11
f 65/9/11 68/12/11 66/10/11
f 69/13/9 70/14/9 71/15/9
f 69/13/9 72/16/9 70/14/9
f 73/13/1 74/14/1 75/15/1
f 73/13/1 76/16/1 74/14/1
f 77/13/7 78/14/7 79/15/7
f 77/13/7 80/16/7 78/14/7
f 81/13/2 82/14/2 83/15/2
f 81/13/2 84/16/2 82/14/2
f 85/17/4 86/10/4 87/11/4
f 85/17/4 88/18/4 86/10/4
f 89/19/2 90/20/2 91/21/2
f 89/19/2 92/22/2 90/20/2
f 93/19/1 94/20/1 95/21/1
f 93/19/1 96/22/1 94/20/1
f 97/19/9 98/20/9 99/21/9
f 97/19/9 100/22/9 98/20/9
f 101/19/7 102/20/7 103/21/7
f 101/19/7 104/22/7 102/20/7
f 105/5/9 106/6/9 107/7/9
f 105/5/6 108/8/6 106/6/6
f 109/4/1 110/3/1 111/1/1
f 109/4/1 112/2/1 110/3/1
f 113/4/4 114/3/4 115/1/4
f 113/4/4 116/2/4 114/3/4
f 117/4/12 118/3/12 119/1/12
f 117/4/12 120/2/12 118/3/12
f 121/5/7 122/6/7 123/7/7
f 121/5/9 124/8/9 122/6/9
