mtllib short_shelves.mtl
o Default
v 0.7000000000000001 -0.32 -0.28 1 1 1 1
v 0.7000000000000001 0 -0.28 1 1 1 1
v 0.06 0 -0.28 1 1 1 1
v 0.06 -0.32 -0.28 1 1 1 1
v 0.06 -0.32 -0.04 1 1 1 1
v 0.7000000000000001 0 -0.04 1 1 1 1
v 0.06 0 -0.04 1 1 1 1
v 0.7000000000000001 -0.32 -0.04 1 1 1 1
v 0 -0.32 0 1 1 1 1
v 1.28 -0.32 -0.32 1 1 1 1
v 0 -0.32 -0.32 1 1 1 1
v 1.28 -0.32 0 1 1 1 1
v 0 -0.36 -0.16 1 1 1 1
v 0 -0.32 0 1 1 1 1
v 0 -0.32 -0.16 1 1 1 1
v 0 -0.36 0 1 1 1 1
v 0 -0.36 -0.32 1 1 1 1
v 1.28 -0.32 -0.32 1 1 1 1
v 1.28 -0.36 -0.32 1 1 1 1
v 0 -0.32 -0.32 1 1 1 1
v 1.28 -0.36 0 1 1 1 1
v 1.28 -0.32 -0.16 1 1 1 1
v 1.28 -0.32 0 1 1 1 1
v 1.28 -0.36 -0.16 1 1 1 1
v 1.28 -0.36 0 1 1 1 1
v 0 -0.32 0 1 1 1 1
v 0 -0.36 0 1 1 1 1
v 1.28 -0.32 0 1 1 1 1
v 0 -0.36 -0.32 1 1 1 1
v 0 -0.32 -0.16 1 1 1 1
v 0 -0.32 -0.32 1 1 1 1
v 0 -0.36 -0.16 1 1 1 1
v 1.28 -0.36 -0.16 1 1 1 1
v 1.28 -0.32 -0.32 1 1 1 1
v 1.28 -0.32 -0.16 1 1 1 1
v 1.28 -0.36 -0.32 1 1 1 1
v 0 -0.36 -0.32 1 1 1 1
v 1.28 -0.36 0 1 1 1 1
v 0 -0.36 0 1 1 1 1
v 1.28 -0.36 -0.32 1 1 1 1
v 0 -0.68 0 1 1 1 1
v 1.28 -0.68 -0.32 1 1 1 1
v 0 -0.68 -0.32 1 1 1 1
v 1.28 -0.68 0 1 1 1 1
v 0 -0.72 -0.16 1 1 1 1
v 0 -0.68 0 1 1 1 1
v 0 -0.68 -0.16 1 1 1 1
v 0 -0.72 0 1 1 1 1
v 0 -0.72 -0.32 1 1 1 1
v 1.28 -0.68 -0.32 1 1 1 1
v 1.28 -0.72 -0.32 1 1 1 1
v 0 -0.68 -0.32 1 1 1 1
v 1.28 -0.72 0 1 1 1 1
v 1.28 -0.68 -0.16 1 1 1 1
v 1.28 -0.68 0 1 1 1 1
v 1.28 -0.72 -0.16 1 1 1 1
v 1.28 -0.72 0 1 1 1 1
v 0 -0.68 0 1 1 1 1
v 0 -0.72 0 1 1 1 1
v 1.28 -0.68 0 1 1 1 1
v 0 -0.72 -0.32 1 1 1 1
v 0 -0.68 -0.16 1 1 1 1
v 0 -0.68 -0.32 1 1 1 1
v 0 -0.72 -0.16 1 1 1 1
v 1.28 -0.72 -0.16 1 1 1 1
v 1.28 -0.68 -0.32 1 1 1 1
v 1.28 -0.68 -0.16 1 1 1 1
v 1.28 -0.72 -0.32 1 1 1 1
v 0 -0.72 -0.32 1 1 1 1
v 1.28 -0.72 0 1 1 1 1
v 0 -0.72 0 1 1 1 1
v 1.28 -0.72 -0.32 1 1 1 1
v 0.74 -0.32 -0.06 1 1 1 1
v 0.7000000000000001 0 -0.06 1 1 1 1
v 0.74 0 -0.06 1 1 1 1
v 0.7000000000000001 -0.32 -0.06 1 1 1 1
v 0.74 -0.32 -0.02 1 1 1 1
v 0.74 0 -0.06 1 1 1 1
v 0.74 0 -0.02 1 1 1 1
v 0.74 -0.32 -0.06 1 1 1 1
v 0.74 0 -0.02 1 1 1 1
v 0.7000000000000001 0 -0.06 1 1 1 1
v 0.7000000000000001 0 -0.02 1 1 1 1
v 0.74 0 -0.06 1 1 1 1
v 0.7000000000000001 0 -0.02 1 1 1 1
v 0.7000000000000001 -0.32 -0.06 1 1 1 1
v 0.7000000000000001 -0.32 -0.02 1 1 1 1
v 0.7000000000000001 0 -0.06 1 1 1 1
v 0.7000000000000001 -0.32 -0.02 1 1 1 1
v 0.74 -0.32 -0.06 1 1 1 1
v 0.74 -0.32 -0.02 1 1 1 1
v 0.7000000000000001 -0.32 -0.06 1 1 1 1
v 0.7000000000000001 -0.32 -0.02 1 1 1 1
v 0.74 0 -0.02 1 1 1 1
v 0.7000000000000001 0 -0.02 1 1 1 1
v 0.74 -0.32 -0.02 1 1 1 1
v 0.74 -0.32 -0.3 1 1 1 1
v 0.7000000000000001 0 -0.3 1 1 1 1
v 0.74 0 -0.3 1 1 1 1
v 0.7000000000000001 -0.32 -0.3 1 1 1 1
v 0.74 -0.32 -0.26 1 1 1 1
v 0.74 0 -0.3 1 1 1 1
v 0.74 0 -0.26 1 1 1 1
v 0.74 -0.32 -0.3 1 1 1 1
v 0.74 0 -0.26 1 1 1 1
v 0.7000000000000001 0 -0.3 1 1 1 1
v 0.7000000000000001 0 -0.26 1 1 1 1
v 0.74 0 -0.3 1 1 1 1
v 0.7000000000000001 0 -0.26 1 1 1 1
v 0.7000000000000001 -0.32 -0.3 1 1 1 1
v 0.7000000000000001 -0.32 -0.26 1 1 1 1
v 0.7000000000000001 0 -0.3 1 1 1 1
v 0.7000000000000001 -0.32 -0.26 1 1 1 1
v 0.74 -0.32 -0.3 1 1 1 1
v 0.74 -0.32 -0.26 1 1 1 1
v 0.7000000000000001 -0.32 -0.3 1 1 1 1
v 0.7000000000000001 -0.32 -0.26 1 1 1 1
v 0.74 0 -0.26 1 1 1 1
v 0.7000000000000001 0 -0.26 1 1 1 1
v 0.74 -0.32 -0.26 1 1 1 1
v 1.21 -0.36 -0.02 1 1 1 1
v 1.21 -0.68 -0.06 1 1 1 1
v 1.21 -0.68 -0.02 1 1 1 1
v 1.21 -0.36 -0.06 1 1 1 1
v 1.25 -0.68 -0.02 1 1 1 1
v 1.25 -0.36 -0.06 1 1 1 1
v 1.25 -0.36 -0.02 1 1 1 1
v 1.25 -0.68 -0.06 1 1 1 1
v 1.21 -0.68 -0.02 1 1 1 1
v 1.25 -0.68 -0.06 1 1 1 1
v 1.25 -0.68 -0.02 1 1 1 1
v 1.21 -0.68 -0.06 1 1 1 1
v 1.25 -0.68 -0.06 1 1 1 1
v 1.21 -0.36 -0.06 1 1 1 1
v 1.25 -0.36 -0.06 1 1 1 1
v 1.21 -0.68 -0.06 1 1 1 1
v 1.25 -0.36 -0.02 1 1 1 1
v 1.21 -0.36 -0.06 1 1 1 1
v 1.21 -0.36 -0.02 1 1 1 1
v 1.25 -0.36 -0.06 1 1 1 1
v 1.21 -0.68 -0.02 1 1 1 1
v 1.25 -0.36 -0.02 1 1 1 1
v 1.21 -0.36 -0.02 1 1 1 1
v 1.25 -0.68 -0.02 1 1 1 1
v 0.02 -0.68 -0.02 1 1 1 1
v 0.06 -0.36 -0.02 1 1 1 1
v 0.02 -0.36 -0.02 1 1 1 1
v 0.06 -0.68 -0.02 1 1 1 1
v 0.02 -0.68 -0.02 1 1 1 1
v 0.06 -0.68 -0.06 1 1 1 1
v 0.06 -0.68 -0.02 1 1 1 1
v 0.02 -0.68 -0.06 1 1 1 1
v 0.02 -0.36 -0.02 1 1 1 1
v 0.02 -0.68 -0.06 1 1 1 1
v 0.02 -0.68 -0.02 1 1 1 1
v 0.02 -0.36 -0.06 1 1 1 1
v 0.06 -0.36 -0.02 1 1 1 1
v 0.02 -0.36 -0.06 1 1 1 1
v 0.02 -0.36 -0.02 1 1 1 1
v 0.06 -0.36 -0.06 1 1 1 1
v 0.06 -0.68 -0.02 1 1 1 1
v 0.06 -0.36 -0.06 1 1 1 1
v 0.06 -0.36 -0.02 1 1 1 1
v 0.06 -0.68 -0.06 1 1 1 1
v 0.06 -0.68 -0.06 1 1 1 1
v 0.02 -0.36 -0.06 1 1 1 1
v 0.06 -0.36 -0.06 1 1 1 1
v 0.02 -0.68 -0.06 1 1 1 1
v 1.21 -0.36 -0.26 1 1 1 1
v 1.21 -0.68 -0.3 1 1 1 1
v 1.21 -0.68 -0.26 1 1 1 1
v 1.21 -0.36 -0.3 1 1 1 1
v 1.25 -0.68 -0.26 1 1 1 1
v 1.25 -0.36 -0.3 1 1 1 1
v 1.25 -0.36 -0.26 1 1 1 1
v 1.25 -0.68 -0.3 1 1 1 1
v 1.21 -0.68 -0.26 1 1 1 1
v 1.25 -0.68 -0.3 1 1 1 1
v 1.25 -0.68 -0.26 1 1 1 1
v 1.21 -0.68 -0.3 1 1 1 1
v 1.25 -0.68 -0.3 1 1 1 1
v 1.21 -0.36 -0.3 1 1 1 1
v 1.25 -0.36 -0.3 1 1 1 1
v 1.21 -0.68 -0.3 1 1 1 1
v 1.25 -0.36 -0.26 1 1 1 1
v 1.21 -0.36 -0.3 1 1 1 1
v 1.21 -0.36 -0.26 1 1 1 1
v 1.25 -0.36 -0.3 1 1 1 1
v 1.21 -0.68 -0.26 1 1 1 1
v 1.25 -0.36 -0.26 1 1 1 1
v 1.21 -0.36 -0.26 1 1 1 1
v 1.25 -0.68 -0.26 1 1 1 1
v 0.02 -0.68 -0.26 1 1 1 1
v 0.06 -0.36 -0.26 1 1 1 1
v 0.02 -0.36 -0.26 1 1 1 1
v 0.06 -0.68 -0.26 1 1 1 1
v 0.02 -0.68 -0.26 1 1 1 1
v 0.06 -0.68 -0.3 1 1 1 1
v 0.06 -0.68 -0.26 1 1 1 1
v 0.02 -0.68 -0.3 1 1 1 1
v 0.02 -0.36 -0.26 1 1 1 1
v 0.02 -0.68 -0.3 1 1 1 1
v 0.02 -0.68 -0.26 1 1 1 1
v 0.02 -0.36 -0.3 1 1 1 1
v 0.06 -0.36 -0.26 1 1 1 1
v 0.02 -0.36 -0.3 1 1 1 1
v 0.02 -0.36 -0.26 1 1 1 1
v 0.06 -0.36 -0.3 1 1 1 1
v 0.06 -0.68 -0.26 1 1 1 1
v 0.06 -0.36 -0.3 1 1 1 1
v 0.06 -0.36 -0.26 1 1 1 1
v 0.06 -0.68 -0.3 1 1 1 1
v 0.06 -0.68 -0.3 1 1 1 1
v 0.02 -0.36 -0.3 1 1 1 1
v 0.06 -0.36 -0.3 1 1 1 1
v 0.02 -0.68 -0.3 1 1 1 1
v 0.06 -0.84 -0.06 1 1 1 1
v 0.02 -0.72 -0.06 1 1 1 1
v 0.06 -0.72 -0.06 1 1 1 1
v 0.02 -0.84 -0.06 1 1 1 1
v 0.06 -0.84 -0.06 1 1 1 1
v 0.02 -0.84 -0.02 1 1 1 1
v 0.02 -0.84 -0.06 1 1 1 1
v 0.06 -0.84 -0.02 1 1 1 1
v 0.06 -0.72 -0.06 1 1 1 1
v 0.06 -0.84 -0.02 1 1 1 1
v 0.06 -0.84 -0.06 1 1 1 1
v 0.06 -0.72 -0.02 1 1 1 1
v 0.02 -0.72 -0.06 1 1 1 1
v 0.06 -0.72 -0.02 1 1 1 1
v 0.06 -0.72 -0.06 1 1 1 1
v 0.02 -0.72 -0.02 1 1 1 1
v 0.02 -0.84 -0.06 1 1 1 1
v 0.02 -0.72 -0.02 1 1 1 1
v 0.02 -0.72 -0.06 1 1 1 1
v 0.02 -0.84 -0.02 1 1 1 1
v 0.02 -0.84 -0.02 1 1 1 1
v 0.06 -0.72 -0.02 1 1 1 1
v 0.02 -0.72 -0.02 1 1 1 1
v 0.06 -0.84 -0.02 1 1 1 1
v 0.06 -0.84 -0.3 1 1 1 1
v 0.02 -0.72 -0.3 1 1 1 1
v 0.06 -0.72 -0.3 1 1 1 1
v 0.02 -0.84 -0.3 1 1 1 1
v 0.06 -0.84 -0.3 1 1 1 1
v 0.02 -0.84 -0.26 1 1 1 1
v 0.02 -0.84 -0.3 1 1 1 1
v 0.06 -0.84 -0.26 1 1 1 1
v 0.06 -0.72 -0.3 1 1 1 1
v 0.06 -0.84 -0.26 1 1 1 1
v 0.06 -0.84 -0.3 1 1 1 1
v 0.06 -0.72 -0.26 1 1 1 1
v 0.02 -0.72 -0.3 1 1 1 1
v 0.06 -0.72 -0.26 1 1 1 1
v 0.06 -0.72 -0.3 1 1 1 1
v 0.02 -0.72 -0.26 1 1 1 1
v 0.02 -0.84 -0.3 1 1 1 1
v 0.02 -0.72 -0.26 1 1 1 1
v 0.02 -0.72 -0.3 1 1 1 1
v 0.02 -0.84 -0.26 1 1 1 1
v 0.02 -0.84 -0.26 1 1 1 1
v 0.06 -0.72 -0.26 1 1 1 1
v 0.02 -0.72 -0.26 1 1 1 1
v 0.06 -0.84 -0.26 1 1 1 1
v 1.25 -0.84 -0.06 1 1 1 1
v 1.21 -0.72 -0.06 1 1 1 1
v 1.25 -0.72 -0.06 1 1 1 1
v 1.21 -0.84 -0.06 1 1 1 1
v 1.25 -0.84 -0.06 1 1 1 1
v 1.21 -0.84 -0.02 1 1 1 1
v 1.21 -0.84 -0.06 1 1 1 1
v 1.25 -0.84 -0.02 1 1 1 1
v 1.25 -0.72 -0.06 1 1 1 1
v 1.25 -0.84 -0.02 1 1 1 1
v 1.25 -0.84 -0.06 1 1 1 1
v 1.25 -0.72 -0.02 1 1 1 1
v 1.21 -0.72 -0.06 1 1 1 1
v 1.25 -0.72 -0.02 1 1 1 1
v 1.25 -0.72 -0.06 1 1 1 1
v 1.21 -0.72 -0.02 1 1 1 1
v 1.21 -0.84 -0.06 1 1 1 1
v 1.21 -0.72 -0.02 1 1 1 1
v 1.21 -0.72 -0.06 1 1 1 1
v 1.21 -0.84 -0.02 1 1 1 1
v 1.21 -0.84 -0.02 1 1 1 1
v 1.25 -0.72 -0.02 1 1 1 1
v 1.21 -0.72 -0.02 1 1 1 1
v 1.25 -0.84 -0.02 1 1 1 1
v 1.25 -0.84 -0.3 1 1 1 1
v 1.21 -0.72 -0.3 1 1 1 1
v 1.25 -0.72 -0.3 1 1 1 1
v 1.21 -0.84 -0.3 1 1 1 1
v 1.25 -0.84 -0.3 1 1 1 1
v 1.21 -0.84 -0.26 1 1 1 1
v 1.21 -0.84 -0.3 1 1 1 1
v 1.25 -0.84 -0.26 1 1 1 1
v 1.25 -0.72 -0.3 1 1 1 1
v 1.25 -0.84 -0.26 1 1 1 1
v 1.25 -0.84 -0.3 1 1 1 1
v 1.25 -0.72 -0.26 1 1 1 1
v 1.21 -0.72 -0.3 1 1 1 1
v 1.25 -0.72 -0.26 1 1 1 1
v 1.25 -0.72 -0.3 1 1 1 1
v 1.21 -0.72 -0.26 1 1 1 1
v 1.21 -0.84 -0.3 1 1 1 1
v 1.21 -0.72 -0.26 1 1 1 1
v 1.21 -0.72 -0.3 1 1 1 1
v 1.21 -0.84 -0.26 1 1 1 1
v 1.21 -0.84 -0.26 1 1 1 1
v 1.25 -0.72 -0.26 1 1 1 1
v 1.21 -0.72 -0.26 1 1 1 1
v 1.25 -0.84 -0.26 1 1 1 1
v 0.72 -0.04 -0.06 1 1 1 1
v 0.72 0 -0.1 1 1 1 1
v 0.72 0 -0.06 1 1 1 1
v 0.72 -0.04 -0.1 1 1 1 1
v 0.72 -0.04 -0.22 1 1 1 1
v 0.72 0 -0.26 1 1 1 1
v 0.72 0 -0.22 1 1 1 1
v 0.72 -0.04 -0.26 1 1 1 1
v 0.72 -0.04 -0.18 1 1 1 1
v 0.72 0 -0.22 1 1 1 1
v 0.72 0 -0.18 1 1 1 1
v 0.72 -0.04 -0.22 1 1 1 1
v 0.72 -0.04 -0.14 1 1 1 1
v 0.72 0 -0.18 1 1 1 1
v 0.72 0 -0.14 1 1 1 1
v 0.72 -0.04 -0.18 1 1 1 1
v 0.72 -0.04 -0.1 1 1 1 1
v 0.72 0 -0.14 1 1 1 1
v 0.72 0 -0.1 1 1 1 1
v 0.72 -0.04 -0.14 1 1 1 1
v 0.72 -0.28 -0.22 1 1 1 1
v 0.72 -0.24 -0.26 1 1 1 1
v 0.72 -0.24 -0.22 1 1 1 1
v 0.72 -0.28 -0.26 1 1 1 1
v 0.72 -0.32 -0.22 1 1 1 1
v 0.72 -0.28 -0.26 1 1 1 1
v 0.72 -0.28 -0.22 1 1 1 1
v 0.72 -0.32 -0.26 1 1 1 1
v 0.72 -0.08 -0.06 1 1 1 1
v 0.72 -0.04 -0.1 1 1 1 1
v 0.72 -0.04 -0.06 1 1 1 1
v 0.72 -0.08 -0.1 1 1 1 1
v 0.72 -0.08 -0.1 1 1 1 1
v 0.72 -0.04 -0.14 1 1 1 1
v 0.72 -0.04 -0.1 1 1 1 1
v 0.72 -0.08 -0.14 1 1 1 1
v 0.72 -0.08 -0.14 1 1 1 1
v 0.72 -0.04 -0.18 1 1 1 1
v 0.72 -0.04 -0.14 1 1 1 1
v 0.72 -0.08 -0.18 1 1 1 1
v 0.72 -0.08 -0.18 1 1 1 1
v 0.72 -0.04 -0.22 1 1 1 1
v 0.72 -0.04 -0.18 1 1 1 1
v 0.72 -0.08 -0.22 1 1 1 1
v 0.72 -0.08 -0.22 1 1 1 1
v 0.72 -0.04 -0.26 1 1 1 1
v 0.72 -0.04 -0.22 1 1 1 1
v 0.72 -0.08 -0.26 1 1 1 1
v 0.72 -0.12 -0.22 1 1 1 1
v 0.72 -0.08 -0.26 1 1 1 1
v 0.72 -0.08 -0.22 1 1 1 1
v 0.72 -0.12 -0.26 1 1 1 1
v 0.72 -0.12 -0.18 1 1 1 1
v 0.72 -0.08 -0.22 1 1 1 1
v 0.72 -0.08 -0.18 1 1 1 1
v 0.72 -0.12 -0.22 1 1 1 1
v 0.72 -0.12 -0.14 1 1 1 1
v 0.72 -0.08 -0.18 1 1 1 1
v 0.72 -0.08 -0.14 1 1 1 1
v 0.72 -0.12 -0.18 1 1 1 1
v 0.72 -0.12 -0.1 1 1 1 1
v 0.72 -0.08 -0.14 1 1 1 1
v 0.72 -0.08 -0.1 1 1 1 1
v 0.72 -0.12 -0.14 1 1 1 1
v 0.72 -0.12 -0.06 1 1 1 1
v 0.72 -0.08 -0.1 1 1 1 1
v 0.72 -0.08 -0.06 1 1 1 1
v 0.72 -0.12 -0.1 1 1 1 1
v 0.72 -0.32 -0.18 1 1 1 1
v 0.72 -0.28 -0.22 1 1 1 1
v 0.72 -0.28 -0.18 1 1 1 1
v 0.72 -0.32 -0.22 1 1 1 1
v 0.72 -0.32 -0.14 1 1 1 1
v 0.72 -0.28 -0.18 1 1 1 1
v 0.72 -0.28 -0.14 1 1 1 1
v 0.72 -0.32 -0.18 1 1 1 1
v 0.72 -0.16 -0.06 1 1 1 1
v 0.72 -0.12 -0.1 1 1 1 1
v 0.72 -0.12 -0.06 1 1 1 1
v 0.72 -0.16 -0.1 1 1 1 1
v 0.72 -0.16 -0.1 1 1 1 1
v 0.72 -0.12 -0.14 1 1 1 1
v 0.72 -0.12 -0.1 1 1 1 1
v 0.72 -0.16 -0.14 1 1 1 1
v 0.72 -0.16 -0.14 1 1 1 1
v 0.72 -0.12 -0.18 1 1 1 1
v 0.72 -0.12 -0.14 1 1 1 1
v 0.72 -0.16 -0.18 1 1 1 1
v 0.72 -0.16 -0.18 1 1 1 1
v 0.72 -0.12 -0.22 1 1 1 1
v 0.72 -0.12 -0.18 1 1 1 1
v 0.72 -0.16 -0.22 1 1 1 1
v 0.72 -0.16 -0.22 1 1 1 1
v 0.72 -0.12 -0.26 1 1 1 1
v 0.72 -0.12 -0.22 1 1 1 1
v 0.72 -0.16 -0.26 1 1 1 1
v 0.72 -0.2 -0.22 1 1 1 1
v 0.72 -0.16 -0.26 1 1 1 1
v 0.72 -0.16 -0.22 1 1 1 1
v 0.72 -0.2 -0.26 1 1 1 1
v 0.72 -0.2 -0.18 1 1 1 1
v 0.72 -0.16 -0.22 1 1 1 1
v 0.72 -0.16 -0.18 1 1 1 1
v 0.72 -0.2 -0.22 1 1 1 1
v 0.72 -0.2 -0.14 1 1 1 1
v 0.72 -0.16 -0.18 1 1 1 1
v 0.72 -0.16 -0.14 1 1 1 1
v 0.72 -0.2 -0.18 1 1 1 1
v 0.72 -0.2 -0.1 1 1 1 1
v 0.72 -0.16 -0.14 1 1 1 1
v 0.72 -0.16 -0.1 1 1 1 1
v 0.72 -0.2 -0.14 1 1 1 1
v 0.72 -0.2 -0.06 1 1 1 1
v 0.72 -0.16 -0.1 1 1 1 1
v 0.72 -0.16 -0.06 1 1 1 1
v 0.72 -0.2 -0.1 1 1 1 1
v 0.72 -0.32 -0.1 1 1 1 1
v 0.72 -0.28 -0.14 1 1 1 1
v 0.72 -0.28 -0.1 1 1 1 1
v 0.72 -0.32 -0.14 1 1 1 1
v 0.72 -0.32 -0.06 1 1 1 1
v 0.72 -0.28 -0.1 1 1 1 1
v 0.72 -0.28 -0.06 1 1 1 1
v 0.72 -0.32 -0.1 1 1 1 1
v 0.72 -0.24 -0.06 1 1 1 1
v 0.72 -0.2 -0.1 1 1 1 1
v 0.72 -0.2 -0.06 1 1 1 1
v 0.72 -0.24 -0.1 1 1 1 1
v 0.72 -0.24 -0.1 1 1 1 1
v 0.72 -0.2 -0.14 1 1 1 1
v 0.72 -0.2 -0.1 1 1 1 1
v 0.72 -0.24 -0.14 1 1 1 1
v 0.72 -0.24 -0.14 1 1 1 1
v 0.72 -0.2 -0.18 1 1 1 1
v 0.72 -0.2 -0.14 1 1 1 1
v 0.72 -0.24 -0.18 1 1 1 1
v 0.72 -0.24 -0.18 1 1 1 1
v 0.72 -0.2 -0.22 1 1 1 1
v 0.72 -0.2 -0.18 1 1 1 1
v 0.72 -0.24 -0.22 1 1 1 1
v 0.72 -0.24 -0.22 1 1 1 1
v 0.72 -0.2 -0.26 1 1 1 1
v 0.72 -0.2 -0.22 1 1 1 1
v 0.72 -0.24 -0.26 1 1 1 1
v 0.72 -0.28 -0.06 1 1 1 1
v 0.72 -0.24 -0.1 1 1 1 1
v 0.72 -0.24 -0.06 1 1 1 1
v 0.72 -0.28 -0.1 1 1 1 1
v 0.72 -0.28 -0.1 1 1 1 1
v 0.72 -0.24 -0.14 1 1 1 1
v 0.72 -0.24 -0.1 1 1 1 1
v 0.72 -0.28 -0.14 1 1 1 1
v 0.72 -0.28 -0.14 1 1 1 1
v 0.72 -0.24 -0.18 1 1 1 1
v 0.72 -0.24 -0.14 1 1 1 1
v 0.72 -0.28 -0.18 1 1 1 1
v 0.72 -0.28 -0.18 1 1 1 1
v 0.72 -0.24 -0.22 1 1 1 1
v 0.72 -0.24 -0.18 1 1 1 1
v 0.72 -0.28 -0.22 1 1 1 1
v 0.03 -0.28 -0.14 1 1 1 1
v 0.03 -0.24 -0.1 1 1 1 1
v 0.03 -0.24 -0.14 1 1 1 1
v 0.03 -0.28 -0.1 1 1 1 1
v 0.03 -0.28 -0.18 1 1 1 1
v 0.03 -0.24 -0.14 1 1 1 1
v 0.03 -0.24 -0.18 1 1 1 1
v 0.03 -0.28 -0.14 1 1 1 1
v 0.03 -0.28 -0.22 1 1 1 1
v 0.03 -0.24 -0.18 1 1 1 1
v 0.03 -0.24 -0.22 1 1 1 1
v 0.03 -0.28 -0.18 1 1 1 1
v 0.03 -0.28 -0.26 1 1 1 1
v 0.03 -0.24 -0.22 1 1 1 1
v 0.03 -0.24 -0.26 1 1 1 1
v 0.03 -0.28 -0.22 1 1 1 1
v 0.03 -0.24 -0.1 1 1 1 1
v 0.03 -0.2 -0.06 1 1 1 1
v 0.03 -0.2 -0.1 1 1 1 1
v 0.03 -0.24 -0.06 1 1 1 1
v 0.03 -0.24 -0.14 1 1 1 1
v 0.03 -0.2 -0.1 1 1 1 1
v 0.03 -0.2 -0.14 1 1 1 1
v 0.03 -0.24 -0.1 1 1 1 1
v 0.03 -0.24 -0.18 1 1 1 1
v 0.03 -0.2 -0.14 1 1 1 1
v 0.03 -0.2 -0.18 1 1 1 1
v 0.03 -0.24 -0.14 1 1 1 1
v 0.03 -0.24 -0.22 1 1 1 1
v 0.03 -0.2 -0.18 1 1 1 1
v 0.03 -0.2 -0.22 1 1 1 1
v 0.03 -0.24 -0.18 1 1 1 1
v 0.03 -0.24 -0.26 1 1 1 1
v 0.03 -0.2 -0.22 1 1 1 1
v 0.03 -0.2 -0.26 1 1 1 1
v 0.03 -0.24 -0.22 1 1 1 1
v 0.03 -0.32 -0.26 1 1 1 1
v 0.03 -0.28 -0.22 1 1 1 1
v 0.03 -0.28 -0.26 1 1 1 1
v 0.03 -0.32 -0.22 1 1 1 1
v 0.03 -0.32 -0.22 1 1 1 1
v 0.03 -0.28 -0.18 1 1 1 1
v 0.03 -0.28 -0.22 1 1 1 1
v 0.03 -0.32 -0.18 1 1 1 1
v 0.03 -0.2 -0.26 1 1 1 1
v 0.03 -0.16 -0.22 1 1 1 1
v 0.03 -0.16 -0.26 1 1 1 1
v 0.03 -0.2 -0.22 1 1 1 1
v 0.03 -0.2 -0.22 1 1 1 1
v 0.03 -0.16 -0.18 1 1 1 1
v 0.03 -0.16 -0.22 1 1 1 1
v 0.03 -0.2 -0.18 1 1 1 1
v 0.03 -0.2 -0.18 1 1 1 1
v 0.03 -0.16 -0.14 1 1 1 1
v 0.03 -0.16 -0.18 1 1 1 1
v 0.03 -0.2 -0.14 1 1 1 1
v 0.03 -0.2 -0.14 1 1 1 1
v 0.03 -0.16 -0.1 1 1 1 1
v 0.03 -0.16 -0.14 1 1 1 1
v 0.03 -0.2 -0.1 1 1 1 1
v 0.03 -0.2 -0.1 1 1 1 1
v 0.03 -0.16 -0.06 1 1 1 1
v 0.03 -0.16 -0.1 1 1 1 1
v 0.03 -0.2 -0.06 1 1 1 1
v 0.03 -0.16 -0.1 1 1 1 1
v 0.03 -0.12 -0.06 1 1 1 1
v 0.03 -0.12 -0.1 1 1 1 1
v 0.03 -0.16 -0.06 1 1 1 1
v 0.03 -0.16 -0.14 1 1 1 1
v 0.03 -0.12 -0.1 1 1 1 1
v 0.03 -0.12 -0.14 1 1 1 1
v 0.03 -0.16 -0.1 1 1 1 1
v 0.03 -0.16 -0.18 1 1 1 1
v 0.03 -0.12 -0.14 1 1 1 1
v 0.03 -0.12 -0.18 1 1 1 1
v 0.03 -0.16 -0.14 1 1 1 1
v 0.03 -0.16 -0.22 1 1 1 1
v 0.03 -0.12 -0.18 1 1 1 1
v 0.03 -0.12 -0.22 1 1 1 1
v 0.03 -0.16 -0.18 1 1 1 1
v 0.03 -0.16 -0.26 1 1 1 1
v 0.03 -0.12 -0.22 1 1 1 1
v 0.03 -0.12 -0.26 1 1 1 1
v 0.03 -0.16 -0.22 1 1 1 1
v 0.03 -0.32 -0.18 1 1 1 1
v 0.03 -0.28 -0.14 1 1 1 1
v 0.03 -0.28 -0.18 1 1 1 1
v 0.03 -0.32 -0.14 1 1 1 1
v 0.03 -0.32 -0.14 1 1 1 1
v 0.03 -0.28 -0.1 1 1 1 1
v 0.03 -0.28 -0.14 1 1 1 1
v 0.03 -0.32 -0.1 1 1 1 1
v 0.03 -0.12 -0.26 1 1 1 1
v 0.03 -0.08 -0.22 1 1 1 1
v 0.03 -0.08 -0.26 1 1 1 1
v 0.03 -0.12 -0.22 1 1 1 1
v 0.03 -0.12 -0.22 1 1 1 1
v 0.03 -0.08 -0.18 1 1 1 1
v 0.03 -0.08 -0.22 1 1 1 1
v 0.03 -0.12 -0.18 1 1 1 1
v 0.03 -0.12 -0.18 1 1 1 1
v 0.03 -0.08 -0.14 1 1 1 1
v 0.03 -0.08 -0.18 1 1 1 1
v 0.03 -0.12 -0.14 1 1 1 1
v 0.03 -0.12 -0.14 1 1 1 1
v 0.03 -0.08 -0.1 1 1 1 1
v 0.03 -0.08 -0.14 1 1 1 1
v 0.03 -0.12 -0.1 1 1 1 1
v 0.03 -0.12 -0.1 1 1 1 1
v 0.03 -0.08 -0.06 1 1 1 1
v 0.03 -0.08 -0.1 1 1 1 1
v 0.03 -0.12 -0.06 1 1 1 1
v 0.03 -0.08 -0.1 1 1 1 1
v 0.03 -0.04 -0.06 1 1 1 1
v 0.03 -0.04 -0.1 1 1 1 1
v 0.03 -0.08 -0.06 1 1 1 1
v 0.03 -0.08 -0.14 1 1 1 1
v 0.03 -0.04 -0.1 1 1 1 1
v 0.03 -0.04 -0.14 1 1 1 1
v 0.03 -0.08 -0.1 1 1 1 1
v 0.03 -0.08 -0.18 1 1 1 1
v 0.03 -0.04 -0.14 1 1 1 1
v 0.03 -0.04 -0.18 1 1 1 1
v 0.03 -0.08 -0.14 1 1 1 1
v 0.03 -0.08 -0.22 1 1 1 1
v 0.03 -0.04 -0.18 1 1 1 1
v 0.03 -0.04 -0.22 1 1 1 1
v 0.03 -0.08 -0.18 1 1 1 1
v 0.03 -0.08 -0.26 1 1 1 1
v 0.03 -0.04 -0.22 1 1 1 1
v 0.03 -0.04 -0.26 1 1 1 1
v 0.03 -0.08 -0.22 1 1 1 1
v 0.03 -0.32 -0.1 1 1 1 1
v 0.03 -0.28 -0.06 1 1 1 1
v 0.03 -0.28 -0.1 1 1 1 1
v 0.03 -0.32 -0.06 1 1 1 1
v 0.03 -0.28 -0.1 1 1 1 1
v 0.03 -0.24 -0.06 1 1 1 1
v 0.03 -0.24 -0.1 1 1 1 1
v 0.03 -0.28 -0.06 1 1 1 1
v 0.03 -0.04 -0.22 1 1 1 1
v 0.03 0 -0.18 1 1 1 1
v 0.03 0 -0.22 1 1 1 1
v 0.03 -0.04 -0.18 1 1 1 1
v 0.03 -0.04 -0.18 1 1 1 1
v 0.03 0 -0.14 1 1 1 1
v 0.03 0 -0.18 1 1 1 1
v 0.03 -0.04 -0.14 1 1 1 1
v 0.03 -0.04 -0.14 1 1 1 1
v 0.03 0 -0.1 1 1 1 1
v 0.03 0 -0.14 1 1 1 1
v 0.03 -0.04 -0.1 1 1 1 1
v 0.03 -0.04 -0.1 1 1 1 1
v 0.03 0 -0.06 1 1 1 1
v 0.03 0 -0.1 1 1 1 1
v 0.03 -0.04 -0.06 1 1 1 1
v 0.03 -0.04 -0.26 1 1 1 1
v 0.03 0 -0.22 1 1 1 1
v 0.03 0 -0.26 1 1 1 1
v 0.03 -0.04 -0.22 1 1 1 1
v 0.4 -0.32 -0.3 1 1 1 1
v 0.36 0 -0.3 1 1 1 1
v 0.4 0 -0.3 1 1 1 1
v 0.36 -0.32 -0.3 1 1 1 1
v 0.4 -0.32 -0.28 1 1 1 1
v 0.4 0 -0.3 1 1 1 1
v 0.4 0 -0.28 1 1 1 1
v 0.4 -0.32 -0.3 1 1 1 1
v 0.4 0 -0.28 1 1 1 1
v 0.36 0 -0.3 1 1 1 1
v 0.36 0 -0.28 1 1 1 1
v 0.4 0 -0.3 1 1 1 1
v 0.36 0 -0.28 1 1 1 1
v 0.36 -0.32 -0.3 1 1 1 1
v 0.36 -0.32 -0.28 1 1 1 1
v 0.36 0 -0.3 1 1 1 1
v 0 0 -0.32 1 1 1 1
v 1.28 0 0 1 1 1 1
v 0 0 0 1 1 1 1
v 1.28 0 -0.32 1 1 1 1
v 1.28 0 -0.16 1 1 1 1
v 1.28 0.04 -0.32 1 1 1 1
v 1.28 0.04 -0.16 1 1 1 1
v 1.28 0 -0.32 1 1 1 1
v 0 0 -0.32 1 1 1 1
v 0 0.04 -0.16 1 1 1 1
v 0 0.04 -0.32 1 1 1 1
v 0 0 -0.16 1 1 1 1
v 1.28 0 0 1 1 1 1
v 0 0.04 0 1 1 1 1
v 0 0 0 1 1 1 1
v 1.28 0.04 0 1 1 1 1
v 1.28 0 0 1 1 1 1
v 1.28 0.04 -0.16 1 1 1 1
v 1.28 0.04 0 1 1 1 1
v 1.28 0 -0.16 1 1 1 1
v 0 0 -0.32 1 1 1 1
v 1.28 0.04 -0.32 1 1 1 1
v 1.28 0 -0.32 1 1 1 1
v 0 0.04 -0.32 1 1 1 1
v 0 0 -0.16 1 1 1 1
v 0 0.04 0 1 1 1 1
v 0 0.04 -0.16 1 1 1 1
v 0 0 0 1 1 1 1
v 0 0.04 0 1 1 1 1
v 1.28 0.04 -0.32 1 1 1 1
v 0 0.04 -0.32 1 1 1 1
v 1.28 0.04 0 1 1 1 1
v 1.25 0 -0.02 1 1 1 1
v 1.21 0 -0.06 1 1 1 1
v 1.21 0 -0.02 1 1 1 1
v 1.25 0 -0.06 1 1 1 1
v 1.25 -0.32 -0.02 1 1 1 1
v 1.25 0 -0.06 1 1 1 1
v 1.25 0 -0.02 1 1 1 1
v 1.25 -0.32 -0.06 1 1 1 1
v 1.21 -0.32 -0.02 1 1 1 1
v 1.25 0 -0.02 1 1 1 1
v 1.21 0 -0.02 1 1 1 1
v 1.25 -0.32 -0.02 1 1 1 1
v 1.21 -0.32 -0.02 1 1 1 1
v 1.25 -0.32 -0.06 1 1 1 1
v 1.25 -0.32 -0.02 1 1 1 1
v 1.21 -0.32 -0.06 1 1 1 1
v 1.21 0 -0.02 1 1 1 1
v 1.21 -0.32 -0.06 1 1 1 1
v 1.21 -0.32 -0.02 1 1 1 1
v 1.21 0 -0.06 1 1 1 1
v 1.25 -0.32 -0.06 1 1 1 1
v 1.21 0 -0.06 1 1 1 1
v 1.25 0 -0.06 1 1 1 1
v 1.21 -0.32 -0.06 1 1 1 1
v 1.25 0 -0.26 1 1 1 1
v 1.21 0 -0.3 1 1 1 1
v 1.21 0 -0.26 1 1 1 1
v 1.25 0 -0.3 1 1 1 1
v 1.25 -0.32 -0.26 1 1 1 1
v 1.25 0 -0.3 1 1 1 1
v 1.25 0 -0.26 1 1 1 1
v 1.25 -0.32 -0.3 1 1 1 1
v 1.21 -0.32 -0.26 1 1 1 1
v 1.25 0 -0.26 1 1 1 1
v 1.21 0 -0.26 1 1 1 1
v 1.25 -0.32 -0.26 1 1 1 1
v 1.21 -0.32 -0.26 1 1 1 1
v 1.25 -0.32 -0.3 1 1 1 1
v 1.25 -0.32 -0.26 1 1 1 1
v 1.21 -0.32 -0.3 1 1 1 1
v 1.21 0 -0.26 1 1 1 1
v 1.21 -0.32 -0.3 1 1 1 1
v 1.21 -0.32 -0.26 1 1 1 1
v 1.21 0 -0.3 1 1 1 1
v 1.25 -0.32 -0.3 1 1 1 1
v 1.21 0 -0.3 1 1 1 1
v 1.25 0 -0.3 1 1 1 1
v 1.21 -0.32 -0.3 1 1 1 1
v 0.02 -0.32 -0.26 1 1 1 1
v 0.06 0 -0.26 1 1 1 1
v 0.02 0 -0.26 1 1 1 1
v 0.06 -0.32 -0.26 1 1 1 1
v 0.02 -0.32 -0.26 1 1 1 1
v 0.06 -0.32 -0.3 1 1 1 1
v 0.06 -0.32 -0.26 1 1 1 1
v 0.02 -0.32 -0.3 1 1 1 1
v 0.02 0 -0.26 1 1 1 1
v 0.02 -0.32 -0.3 1 1 1 1
v 0.02 -0.32 -0.26 1 1 1 1
v 0.02 0 -0.3 1 1 1 1
v 0.06 0 -0.26 1 1 1 1
v 0.02 0 -0.3 1 1 1 1
v 0.02 0 -0.26 1 1 1 1
v 0.06 0 -0.3 1 1 1 1
v 0.06 -0.32 -0.26 1 1 1 1
v 0.06 0 -0.3 1 1 1 1
v 0.06 0 -0.26 1 1 1 1
v 0.06 -0.32 -0.3 1 1 1 1
v 0.06 -0.32 -0.3 1 1 1 1
v 0.02 0 -0.3 1 1 1 1
v 0.06 0 -0.3 1 1 1 1
v 0.02 -0.32 -0.3 1 1 1 1
v 0.02 -0.32 -0.02 1 1 1 1
v 0.06 0 -0.02 1 1 1 1
v 0.02 0 -0.02 1 1 1 1
v 0.06 -0.32 -0.02 1 1 1 1
v 0.02 -0.32 -0.02 1 1 1 1
v 0.06 -0.32 -0.06 1 1 1 1
v 0.06 -0.32 -0.02 1 1 1 1
v 0.02 -0.32 -0.06 1 1 1 1
v 0.02 0 -0.02 1 1 1 1
v 0.02 -0.32 -0.06 1 1 1 1
v 0.02 -0.32 -0.02 1 1 1 1
v 0.02 0 -0.06 1 1 1 1
v 0.06 0 -0.02 1 1 1 1
v 0.02 0 -0.06 1 1 1 1
v 0.02 0 -0.02 1 1 1 1
v 0.06 0 -0.06 1 1 1 1
v 0.06 -0.32 -0.02 1 1 1 1
v 0.06 0 -0.06 1 1 1 1
v 0.06 0 -0.02 1 1 1 1
v 0.06 -0.32 -0.06 1 1 1 1
v 0.06 -0.32 -0.06 1 1 1 1
v 0.02 0 -0.06 1 1 1 1
v 0.06 0 -0.06 1 1 1 1
v 0.02 -0.32 -0.06 1 1 1 1
v 0 0.36 -0.32 1 1 1 1
v 1.28 0.36 0 1 1 1 1
v 0 0.36 0 1 1 1 1
v 1.28 0.36 -0.32 1 1 1 1
v 1.28 0.36 -0.16 1 1 1 1
v 1.28 0.4 -0.32 1 1 1 1
v 1.28 0.4 -0.16 1 1 1 1
v 1.28 0.36 -0.32 1 1 1 1
v 0 0.36 -0.32 1 1 1 1
v 0 0.4 -0.16 1 1 1 1
v 0 0.4 -0.32 1 1 1 1
v 0 0.36 -0.16 1 1 1 1
v 1.28 0.36 0 1 1 1 1
v 0 0.4 0 1 1 1 1
v 0 0.36 0 1 1 1 1
v 1.28 0.4 0 1 1 1 1
v 1.28 0.36 0 1 1 1 1
v 1.28 0.4 -0.16 1 1 1 1
v 1.28 0.4 0 1 1 1 1
v 1.28 0.36 -0.16 1 1 1 1
v 0 0.36 -0.32 1 1 1 1
v 1.28 0.4 -0.32 1 1 1 1
v 1.28 0.36 -0.32 1 1 1 1
v 0 0.4 -0.32 1 1 1 1
v 0 0.36 -0.16 1 1 1 1
v 0 0.4 0 1 1 1 1
v 0 0.4 -0.16 1 1 1 1
v 0 0.36 0 1 1 1 1
v 0 0.4 0 1 1 1 1
v 1.28 0.4 -0.32 1 1 1 1
v 0 0.4 -0.32 1 1 1 1
v 1.28 0.4 0 1 1 1 1
v 1.25 0.36 -0.02 1 1 1 1
v 1.21 0.36 -0.06 1 1 1 1
v 1.21 0.36 -0.02 1 1 1 1
v 1.25 0.36 -0.06 1 1 1 1
v 1.25 0.04 -0.02 1 1 1 1
v 1.25 0.36 -0.06 1 1 1 1
v 1.25 0.36 -0.02 1 1 1 1
v 1.25 0.04 -0.06 1 1 1 1
v 1.21 0.04 -0.02 1 1 1 1
v 1.25 0.36 -0.02 1 1 1 1
v 1.21 0.36 -0.02 1 1 1 1
v 1.25 0.04 -0.02 1 1 1 1
v 1.21 0.04 -0.02 1 1 1 1
v 1.25 0.04 -0.06 1 1 1 1
v 1.25 0.04 -0.02 1 1 1 1
v 1.21 0.04 -0.06 1 1 1 1
v 1.21 0.36 -0.02 1 1 1 1
v 1.21 0.04 -0.06 1 1 1 1
v 1.21 0.04 -0.02 1 1 1 1
v 1.21 0.36 -0.06 1 1 1 1
v 1.25 0.04 -0.06 1 1 1 1
v 1.21 0.36 -0.06 1 1 1 1
v 1.25 0.36 -0.06 1 1 1 1
v 1.21 0.04 -0.06 1 1 1 1
v 1.25 0.36 -0.26 1 1 1 1
v 1.21 0.36 -0.3 1 1 1 1
v 1.21 0.36 -0.26 1 1 1 1
v 1.25 0.36 -0.3 1 1 1 1
v 1.25 0.04 -0.26 1 1 1 1
v 1.25 0.36 -0.3 1 1 1 1
v 1.25 0.36 -0.26 1 1 1 1
v 1.25 0.04 -0.3 1 1 1 1
v 1.21 0.04 -0.26 1 1 1 1
v 1.25 0.36 -0.26 1 1 1 1
v 1.21 0.36 -0.26 1 1 1 1
v 1.25 0.04 -0.26 1 1 1 1
v 1.21 0.04 -0.26 1 1 1 1
v 1.25 0.04 -0.3 1 1 1 1
v 1.25 0.04 -0.26 1 1 1 1
v 1.21 0.04 -0.3 1 1 1 1
v 1.21 0.36 -0.26 1 1 1 1
v 1.21 0.04 -0.3 1 1 1 1
v 1.21 0.04 -0.26 1 1 1 1
v 1.21 0.36 -0.3 1 1 1 1
v 1.25 0.04 -0.3 1 1 1 1
v 1.21 0.36 -0.3 1 1 1 1
v 1.25 0.36 -0.3 1 1 1 1
v 1.21 0.04 -0.3 1 1 1 1
v 0.02 0.04 -0.26 1 1 1 1
v 0.06 0.36 -0.26 1 1 1 1
v 0.02 0.36 -0.26 1 1 1 1
v 0.06 0.04 -0.26 1 1 1 1
v 0.02 0.04 -0.26 1 1 1 1
v 0.06 0.04 -0.3 1 1 1 1
v 0.06 0.04 -0.26 1 1 1 1
v 0.02 0.04 -0.3 1 1 1 1
v 0.02 0.36 -0.26 1 1 1 1
v 0.02 0.04 -0.3 1 1 1 1
v 0.02 0.04 -0.26 1 1 1 1
v 0.02 0.36 -0.3 1 1 1 1
v 0.06 0.36 -0.26 1 1 1 1
v 0.02 0.36 -0.3 1 1 1 1
v 0.02 0.36 -0.26 1 1 1 1
v 0.06 0.36 -0.3 1 1 1 1
v 0.06 0.04 -0.26 1 1 1 1
v 0.06 0.36 -0.3 1 1 1 1
v 0.06 0.36 -0.26 1 1 1 1
v 0.06 0.04 -0.3 1 1 1 1
v 0.06 0.04 -0.3 1 1 1 1
v 0.02 0.36 -0.3 1 1 1 1
v 0.06 0.36 -0.3 1 1 1 1
v 0.02 0.04 -0.3 1 1 1 1
v 0.02 0.04 -0.02 1 1 1 1
v 0.06 0.36 -0.02 1 1 1 1
v 0.02 0.36 -0.02 1 1 1 1
v 0.06 0.04 -0.02 1 1 1 1
v 0.02 0.04 -0.02 1 1 1 1
v 0.06 0.04 -0.06 1 1 1 1
v 0.06 0.04 -0.02 1 1 1 1
v 0.02 0.04 -0.06 1 1 1 1
v 0.02 0.36 -0.02 1 1 1 1
v 0.02 0.04 -0.06 1 1 1 1
v 0.02 0.04 -0.02 1 1 1 1
v 0.02 0.36 -0.06 1 1 1 1
v 0.06 0.36 -0.02 1 1 1 1
v 0.02 0.36 -0.06 1 1 1 1
v 0.02 0.36 -0.02 1 1 1 1
v 0.06 0.36 -0.06 1 1 1 1
v 0.06 0.04 -0.02 1 1 1 1
v 0.06 0.36 -0.06 1 1 1 1
v 0.06 0.36 -0.02 1 1 1 1
v 0.06 0.04 -0.06 1 1 1 1
v 0.06 0.04 -0.06 1 1 1 1
v 0.02 0.36 -0.06 1 1 1 1
v 0.06 0.36 -0.06 1 1 1 1
v 0.02 0.04 -0.06 1 1 1 1
vt 0 0.359375
vt 0.25 0.484375
vt 0 0.484375
vt 0.25 0.359375
vt 0 0.5
vt 0.5 0.625
vt 0 0.625
vt 0.5 0.5
vt 0.40625 0.484375
vt 0.46875 0.5
vt 0.40625 0.5
vt 0.46875 0.484375
vt 0.5 0.484375
vt 0.03125 0.484375
vt 0.09375 0.5
vt 0.03125 0.5
vt 0.09375 0.484375
vt 0.265625 0.484375
vt 0.265625 0.359375
vt 0.25 0.4375
vt 0.265625 0.4375
vt 0.125 0.515625
vt 0.140625 0.53125
vt 0.125 0.53125
vt 0.140625 0.515625
vt 0.1171875 0.359375
vt 0.1328125 0.484375
vt 0.1171875 0.484375
vt 0.1328125 0.359375
vt 0.109375 0.4765625
vt 0.1015625 0.484375
vt 0.1015625 0.4765625
vt 0.109375 0.484375
vn 0 0 -1
vn 0 0 1
vn 0 1 0
vn -1 0 0
vn 1 0 0
vn 0 -1 0
g Scene
usemtl 0
f 1/1/1 3/2/1 2/3/1
f 1/1/1 4/4/1 3/2/1
f 5/1/2 6/2/2 7/3/2
f 5/1/2 8/4/2 6/2/2
f 9/5/3 10/6/3 11/7/3
f 9/5/3 12/8/3 10/6/3
f 13/9/4 14/10/4 15/11/4
f 13/9/4 16/12/4 14/10/4
f 17/13/1 18/5/1 19/3/1
f 17/13/1 20/8/1 18/5/1
f 21/14/5 22/15/5 23/16/5
f 21/14/5 24/17/5 22/15/5
f 25/13/2 26/5/2 27/3/2
f 25/13/2 28/8/2 26/5/2
f 29/14/4 30/15/4 31/16/4
f 29/14/4 32/17/4 30/15/4
f 33/9/5 34/10/5 35/11/5
f 33/9/5 36/12/5 34/10/5
f 37/5/6 38/6/6 39/7/6
f 37/5/6 40/8/6 38/6/6
f 41/5/3 42/6/3 43/7/3
f 41/5/3 44/8/3 42/6/3
f 45/9/4 46/10/4 47/11/4
f 45/9/4 48/12/4 46/10/4
f 49/13/1 50/5/1 51/3/1
f 49/13/1 52/8/1 50/5/1
f 53/14/5 54/15/5 55/16/5
f 53/14/5 56/17/5 54/15/5
f 57/13/2 58/5/2 59/3/2
f 57/13/2 60/8/2 58/5/2
f 61/14/4 62/15/4 63/16/4
f 61/14/4 64/17/4 62/15/4
f 65/9/5 66/10/5 67/11/5
f 65/9/5 68/12/5 66/10/5
f 69/5/6 70/6/6 71/7/6
f 69/5/6 72/8/6 70/6/6
f 73/4/1 74/18/1 75/2/1
f 73/4/1 76/19/1 74/18/1
f 77/4/5 78/18/5 79/2/5
f 77/4/5 80/19/5 78/18/5
f 81/19/3 82/2/3 83/4/3
f 81/19/3 84/18/3 82/2/3
f 85/18/4 86/4/4 87/19/4
f 85/18/4 88/2/4 86/4/4
f 89/19/6 90/2/6 91/4/6
f 89/19/6 92/18/6 90/2/6
f 93/4/2 94/18/2 95/2/2
f 93/4/2 96/19/2 94/18/2
f 97/4/1 98/18/1 99/2/1
f 97/4/1 100/19/1 98/18/1
f 101/4/5 102/18/5 103/2/5
f 101/4/5 104/19/5 102/18/5
f 105/19/3 106/2/3 107/4/3
f 105/19/3 108/18/3 106/2/3
f 109/18/4 110/4/4 111/19/4
f 109/18/4 112/2/4 110/4/4
f 113/19/6 114/2/6 115/4/6
f 113/19/6 116/18/6 114/2/6
f 117/4/2 118/18/2 119/2/2
f 117/4/2 120/19/2 118/18/2
f 121/18/4 122/4/4 123/19/4
f 121/18/4 124/2/4 122/4/4
f 125/4/5 126/18/5 127/2/5
f 125/4/5 128/19/5 126/18/5
f 129/19/6 130/2/6 131/4/6
f 129/19/6 132/18/6 130/2/6
f 133/4/1 134/18/1 135/2/1
f 133/4/1 136/19/1 134/18/1
f 137/19/3 138/2/3 139/4/3
f 137/19/3 140/18/3 138/2/3
f 141/4/2 142/18/2 143/2/2
f 141/4/2 144/19/2 142/18/2
f 145/4/2 146/18/2 147/2/2
f 145/4/2 148/19/2 146/18/2
f 149/19/6 150/2/6 151/4/6
f 149/19/6 152/18/6 150/2/6
f 153/18/4 154/4/4 155/19/4
f 153/18/4 156/2/4 154/4/4
f 157/19/3 158/2/3 159/4/3
f 157/19/3 160/18/3 158/2/3
f 161/4/5 162/18/5 163/2/5
f 161/4/5 164/19/5 162/18/5
f 165/4/1 166/18/1 167/2/1
f 165/4/1 168/19/1 166/18/1
f 169/18/4 170/4/4 171/19/4
f 169/18/4 172/2/4 170/4/4
f 173/4/5 174/18/5 175/2/5
f 173/4/5 176/19/5 174/18/5
f 177/19/6 178/2/6 179/4/6
f 177/19/6 180/18/6 178/2/6
f 181/4/1 182/18/1 183/2/1
f 181/4/1 184/19/1 182/18/1
f 185/19/3 186/2/3 187/4/3
f 185/19/3 188/18/3 186/2/3
f 189/4/2 190/18/2 191/2/2
f 189/4/2 192/19/2 190/18/2
f 193/4/2 194/18/2 195/2/2
f 193/4/2 196/19/2 194/18/2
f 197/19/6 198/2/6 199/4/6
f 197/19/6 200/18/6 198/2/6
f 201/18/4 202/4/4 203/19/4
f 201/18/4 204/2/4 202/4/4
f 205/19/3 206/2/3 207/4/3
f 205/19/3 208/18/3 206/2/3
f 209/4/5 210/18/5 211/2/5
f 209/4/5 212/19/5 210/18/5
f 213/4/1 214/18/1 215/2/1
f 213/4/1 216/19/1 214/18/1
f 217/20/1 218/18/1 219/2/1
f 217/20/1 220/21/1 218/18/1
f 221/21/6 222/2/6 223/20/6
f 221/21/6 224/18/6 222/2/6
f 225/18/5 226/20/5 227/21/5
f 225/18/5 228/2/5 226/20/5
f 229/21/3 230/2/3 231/20/3
f 229/21/3 232/18/3 230/2/3
f 233/20/4 234/18/4 235/2/4
f 233/20/4 236/21/4 234/18/4
f 237/20/2 238/18/2 239/2/2
f 237/20/2 240/21/2 238/18/2
f 241/20/1 242/18/1 243/2/1
f 241/20/1 244/21/1 242/18/1
f 245/21/6 246/2/6 247/20/6
f 245/21/6 248/18/6 246/2/6
f 249/18/5 250/20/5 251/21/5
f 249/18/5 252/2/5 250/20/5
f 253/21/3 254/2/3 255/20/3
f 253/21/3 256/18/3 254/2/3
f 257/20/4 258/18/4 259/2/4
f 257/20/4 260/21/4 258/18/4
f 261/20/2 262/18/2 263/2/2
f 261/20/2 264/21/2 262/18/2
f 265/20/1 266/18/1 267/2/1
f 265/20/1 268/21/1 266/18/1
f 269/21/6 270/2/6 271/20/6
f 269/21/6 272/18/6 270/2/6
f 273/18/5 274/20/5 275/21/5
f 273/18/5 276/2/5 274/20/5
f 277/21/3 278/2/3 279/20/3
f 277/21/3 280/18/3 278/2/3
f 281/20/4 282/18/4 283/2/4
f 281/20/4 284/21/4 282/18/4
f 285/20/2 286/18/2 287/2/2
f 285/20/2 288/21/2 286/18/2
f 289/20/1 290/18/1 291/2/1
f 289/20/1 292/21/1 290/18/1
f 293/21/6 294/2/6 295/20/6
f 293/21/6 296/18/6 294/2/6
f 297/18/5 298/20/5 299/21/5
f 297/18/5 300/2/5 298/20/5
f 301/21/3 302/2/3 303/20/3
f 301/21/3 304/18/3 302/2/3
f 305/20/4 306/18/4 307/2/4
f 305/20/4 308/21/4 306/18/4
f 309/20/2 310/18/2 311/2/2
f 309/20/2 312/21/2 310/18/2
f 313/22/5 314/23/5 315/24/5
f 313/22/5 316/25/5 314/23/5
f 317/22/5 318/23/5 319/24/5
f 317/22/5 320/25/5 318/23/5
f 321/22/5 322/23/5 323/24/5
f 321/22/5 324/25/5 322/23/5
f 325/22/5 326/23/5 327/24/5
f 325/22/5 328/25/5 326/23/5
f 329/22/5 330/23/5 331/24/5
f 329/22/5 332/25/5 330/23/5
f 333/22/5 334/23/5 335/24/5
f 333/22/5 336/25/5 334/23/5
f 337/22/5 338/23/5 339/24/5
f 337/22/5 340/25/5 338/23/5
f 341/22/5 342/23/5 343/24/5
f 341/22/5 344/25/5 342/23/5
f 345/22/5 346/23/5 347/24/5
f 345/22/5 348/25/5 346/23/5
f 349/22/5 350/23/5 351/24/5
f 349/22/5 352/25/5 350/23/5
f 353/22/5 354/23/5 355/24/5
f 353/22/5 356/25/5 354/23/5
f 357/22/5 358/23/5 359/24/5
f 357/22/5 360/25/5 358/23/5
f 361/22/5 362/23/5 363/24/5
f 361/22/5 364/25/5 362/23/5
f 365/22/5 366/23/5 367/24/5
f 365/22/5 368/25/5 366/23/5
f 369/22/5 370/23/5 371/24/5
f 369/22/5 372/25/5 370/23/5
f 373/22/5 374/23/5 375/24/5
f 373/22/5 376/25/5 374/23/5
f 377/22/5 378/23/5 379/24/5
f 377/22/5 380/25/5 378/23/5
f 381/22/5 382/23/5 383/24/5
f 381/22/5 384/25/5 382/23/5
f 385/22/5 386/23/5 387/24/5
f 385/22/5 388/25/5 386/23/5
f 389/22/5 390/23/5 391/24/5
f 389/22/5 392/25/5 390/23/5
f 393/22/5 394/23/5 395/24/5
f 393/22/5 396/25/5 394/23/5
f 397/22/5 398/23/5 399/24/5
f 397/22/5 400/25/5 398/23/5
f 401/22/5 402/23/5 403/24/5
f 401/22/5 404/25/5 402/23/5
f 405/22/5 406/23/5 407/24/5
f 405/22/5 408/25/5 406/23/5
f 409/22/5 410/23/5 411/24/5
f 409/22/5 412/25/5 410/23/5
f 413/22/5 414/23/5 415/24/5
f 413/22/5 416/25/5 414/23/5
f 417/22/5 418/23/5 419/24/5
f 417/22/5 420/25/5 418/23/5
f 421/22/5 422/23/5 423/24/5
f 421/22/5 424/25/5 422/23/5
f 425/22/5 426/23/5 427/24/5
f 425/22/5 428/25/5 426/23/5
f 429/22/5 430/23/5 431/24/5
f 429/22/5 432/25/5 430/23/5
f 433/22/5 434/23/5 435/24/5
f 433/22/5 436/25/5 434/23/5
f 437/22/5 438/23/5 439/24/5
f 437/22/5 440/25/5 438/23/5
f 441/22/5 442/23/5 443/24/5
f 441/22/5 444/25/5 442/23/5
f 445/22/5 446/23/5 447/24/5
f 445/22/5 448/25/5 446/23/5
f 449/22/5 450/23/5 451/24/5
f 449/22/5 452/25/5 450/23/5
f 453/22/5 454/23/5 455/24/5
f 453/22/5 456/25/5 454/23/5
f 457/22/5 458/23/5 459/24/5
f 457/22/5 460/25/5 458/23/5
f 461/22/5 462/23/5 463/24/5
f 461/22/5 464/25/5 462/23/5
f 465/22/5 466/23/5 467/24/5
f 465/22/5 468/25/5 466/23/5
f 469/22/5 470/23/5 471/24/5
f 469/22/5 472/25/5 470/23/5
f 473/22/4 474/23/4 475/24/4
f 473/22/4 476/25/4 474/23/4
f 477/22/4 478/23/4 479/24/4
f 477/22/4 480/25/4 478/23/4
f 481/22/4 482/23/4 483/24/4
f 481/22/4 484/25/4 482/23/4
f 485/22/4 486/23/4 487/24/4
f 485/22/4 488/25/4 486/23/4
f 489/22/4 490/23/4 491/24/4
f 489/22/4 492/25/4 490/23/4
f 493/22/4 494/23/4 495/24/4
f 493/22/4 496/25/4 494/23/4
f 497/22/4 498/23/4 499/24/4
f 497/22/4 500/25/4 498/23/4
f 501/22/4 502/23/4 503/24/4
f 501/22/4 504/25/4 502/23/4
f 505/22/4 506/23/4 507/24/4
f 505/22/4 508/25/4 506/23/4
f 509/22/4 510/23/4 511/24/4
f 509/22/4 512/25/4 510/23/4
f 513/22/4 514/23/4 515/24/4
f 513/22/4 516/25/4 514/23/4
f 517/22/4 518/23/4 519/24/4
f 517/22/4 520/25/4 518/23/4
f 521/22/4 522/23/4 523/24/4
f 521/22/4 524/25/4 522/23/4
f 525/22/4 526/23/4 527/24/4
f 525/22/4 528/25/4 526/23/4
f 529/22/4 530/23/4 531/24/4
f 529/22/4 532/25/4 530/23/4
f 533/22/4 534/23/4 535/24/4
f 533/22/4 536/25/4 534/23/4
f 537/22/4 538/23/4 539/24/4
f 537/22/4 540/25/4 538/23/4
f 541/22/4 542/23/4 543/24/4
f 541/22/4 544/25/4 542/23/4
f 545/22/4 546/23/4 547/24/4
f 545/22/4 548/25/4 546/23/4
f 549/22/4 550/23/4 551/24/4
f 549/22/4 552/25/4 550/23/4
f 553/22/4 554/23/4 555/24/4
f 553/22/4 556/25/4 554/23/4
f 557/22/4 558/23/4 559/24/4
f 557/22/4 560/25/4 558/23/4
f 561/22/4 562/23/4 563/24/4
f 561/22/4 564/25/4 562/23/4
f 565/22/4 566/23/4 567/24/4
f 565/22/4 568/25/4 566/23/4
f 569/22/4 570/23/4 571/24/4
f 569/22/4 572/25/4 570/23/4
f 573/22/4 574/23/4 575/24/4
f 573/22/4 576/25/4 574/23/4
f 577/22/4 578/23/4 579/24/4
f 577/22/4 580/25/4 578/23/4
f 581/22/4 582/23/4 583/24/4
f 581/22/4 584/25/4 582/23/4
f 585/22/4 586/23/4 587/24/4
f 585/22/4 588/25/4 586/23/4
f 589/22/4 590/23/4 591/24/4
f 589/22/4 592/25/4 590/23/4
f 593/22/4 594/23/4 595/24/4
f 593/22/4 596/25/4 594/23/4
f 597/22/4 598/23/4 599/24/4
f 597/22/4 600/25/4 598/23/4
f 601/22/4 602/23/4 603/24/4
f 601/22/4 604/25/4 602/23/4
f 605/22/4 606/23/4 607/24/4
f 605/22/4 608/25/4 606/23/4
f 609/22/4 610/23/4 611/24/4
f 609/22/4 612/25/4 610/23/4
f 613/22/4 614/23/4 615/24/4
f 613/22/4 616/25/4 614/23/4
f 617/22/4 618/23/4 619/24/4
f 617/22/4 620/25/4 618/23/4
f 621/22/4 622/23/4 623/24/4
f 621/22/4 624/25/4 622/23/4
f 625/22/4 626/23/4 627/24/4
f 625/22/4 628/25/4 626/23/4
f 629/22/4 630/23/4 631/24/4
f 629/22/4 632/25/4 630/23/4
f 633/26/1 634/27/1 635/28/1
f 633/26/1 636/29/1 634/27/1
f 637/30/5 638/31/5 639/32/5
f 637/30/5 640/33/5 638/31/5
f 641/30/3 642/31/3 643/32/3
f 641/30/3 644/33/3 642/31/3
f 645/30/4 646/31/4 647/32/4
f 645/30/4 648/33/4 646/31/4
f 649/5/6 650/6/6 651/7/6
f 649/5/6 652/8/6 650/6/6
f 653/9/5 654/10/5 655/11/5
f 653/9/5 656/12/5 654/10/5
f 657/14/4 658/15/4 659/16/4
f 657/14/4 660/17/4 658/15/4
f 661/13/2 662/5/2 663/3/2
f 661/13/2 664/8/2 662/5/2
f 665/14/5 666/15/5 667/16/5
f 665/14/5 668/17/5 666/15/5
f 669/13/1 670/5/1 671/3/1
f 669/13/1 672/8/1 670/5/1
f 673/9/4 674/10/4 675/11/4
f 673/9/4 676/12/4 674/10/4
f 677/5/3 678/6/3 679/7/3
f 677/5/3 680/8/3 678/6/3
f 681/19/3 682/2/3 683/4/3
f 681/19/3 684/18/3 682/2/3
f 685/4/5 686/18/5 687/2/5
f 685/4/5 688/19/5 686/18/5
f 689/4/2 690/18/2 691/2/2
f 689/4/2 692/19/2 690/18/2
f 693/19/6 694/2/6 695/4/6
f 693/19/6 696/18/6 694/2/6
f 697/18/4 698/4/4 699/19/4
f 697/18/4 700/2/4 698/4/4
f 701/4/1 702/18/1 703/2/1
f 701/4/1 704/19/1 702/18/1
f 705/19/3 706/2/3 707/4/3
f 705/19/3 708/18/3 706/2/3
f 709/4/5 710/18/5 711/2/5
f 709/4/5 712/19/5 710/18/5
f 713/4/2 714/18/2 715/2/2
f 713/4/2 716/19/2 714/18/2
f 717/19/6 718/2/6 719/4/6
f 717/19/6 720/18/6 718/2/6
f 721/18/4 722/4/4 723/19/4
f 721/18/4 724/2/4 722/4/4
f 725/4/1 726/18/1 727/2/1
f 725/4/1 728/19/1 726/18/1
f 729/4/2 730/18/2 731/2/2
f 729/4/2 732/19/2 730/18/2
f 733/19/6 734/2/6 735/4/6
f 733/19/6 736/18/6 734/2/6
f 737/18/4 738/4/4 739/19/4
f 737/18/4 740/2/4 738/4/4
f 741/19/3 742/2/3 743/4/3
f 741/19/3 744/18/3 742/2/3
f 745/4/5 746/18/5 747/2/5
f 745/4/5 748/19/5 746/18/5
f 749/4/1 750/18/1 751/2/1
f 749/4/1 752/19/1 750/18/1
f 753/4/2 754/18/2 755/2/2
f 753/4/2 756/19/2 754/18/2
f 757/19/6 758/2/6 759/4/6
f 757/19/6 760/18/6 758/2/6
f 761/18/4 762/4/4 763/19/4
f 761/18/4 764/2/4 762/4/4
f 765/19/3 766/2/3 767/4/3
f 765/19/3 768/18/3 766/2/3
f 769/4/5 770/18/5 771/2/5
f 769/4/5 772/19/5 770/18/5
f 773/4/1 774/18/1 775/2/1
f 773/4/1 776/19/1 774/18/1
f 777/5/6 778/6/6 779/7/6
f 777/5/6 780/8/6 778/6/6
f 781/9/5 782/10/5 783/11/5
f 781/9/5 784/12/5 782/10/5
f 785/14/4 786/15/4 787/16/4
f 785/14/4 788/17/4 786/15/4
f 789/13/2 790/5/2 791/3/2
f 789/13/2 792/8/2 790/5/2
f 793/14/5 794/15/5 795/16/5
f 793/14/5 796/17/5 794/15/5
f 797/13/1 798/5/1 799/3/1
f 797/13/1 800/8/1 798/5/1
f 801/9/4 802/10/4 803/11/4
f 801/9/4 804/12/4 802/10/4
f 805/5/3 806/6/3 807/7/3
f 805/5/3 808/8/3 806/6/3
f 809/19/3 810/2/3 811/4/3
f 809/19/3 812/18/3 810/2/3
f 813/4/5 814/18/5 815/2/5
f 813/4/5 816/19/5 814/18/5
f 817/4/2 818/18/2 819/2/2
f 817/4/2 820/19/2 818/18/2
f 821/19/6 822/2/6 823/4/6
f 821/19/6 824/18/6 822/2/6
f 825/18/4 826/4/4 827/19/4
f 825/18/4 828/2/4 826/4/4
f 829/4/1 830/18/1 831/2/1
f 829/4/1 832/19/1 830/18/1
f 833/19/3 834/2/3 835/4/3
f 833/19/3 836/18/3 834/2/3
f 837/4/5 838/18/5 839/2/5
f 837/4/5 840/19/5 838/18/5
f 841/4/2 842/18/2 843/2/2
f 841/4/2 844/19/2 842/18/2
f 845/19/6 846/2/6 847/4/6
f 845/19/6 848/18/6 846/2/6
f 849/18/4 850/4/4 851/19/4
f 849/18/4 852/2/4 850/4/4
f 853/4/1 854/18/1 855/2/1
f 853/4/1 856/19/1 854/18/1
f 857/4/2 858/18/2 859/2/2
f 857/4/2 860/19/2 858/18/2
f 861/19/6 862/2/6 863/4/6
f 861/19/6 864/18/6 862/2/6
f 865/18/4 866/4/4 867/19/4
f 865/18/4 868/2/4 866/4/4
f 869/19/3 870/2/3 871/4/3
f 869/19/3 872/18/3 870/2/3
f 873/4/5 874/18/5 875/2/5
f 873/4/5 876/19/5 874/18/5
f 877/4/1 878/18/1 879/2/1
f 877/4/1 880/19/1 878/18/1
f 881/4/2 882/18/2 883/2/2
f 881/4/2 884/19/2 882/18/2
f 885/19/6 886/2/6 887/4/6
f 885/19/6 888/18/6 886/2/6
f 889/18/4 890/4/4 891/19/4
f 889/18/4 892/2/4 890/4/4
f 893/19/3 894/2/3 895/4/3
f 893/19/3 896/18/3 894/2/3
f 897/4/5 898/18/5 899/2/5
f 897/4/5 900/19/5 898/18/5
f 901/4/1 902/18/1 903/2/1
f 901/4/1 904/19/1 902/18/1
