mtllib shrineshelf_small.mtl
o Default
v -0.5 0 3 1 1 1 1
v -0.5 0 2 1 1 1 1
v -0.5 0.25 2 1 1 1 1
v -0.5 0.25 3 1 1 1 1
v -0.5 0.25 3 1 1 1 1
v 1.5 0.25 2 1 1 1 1
v -0.5 0.25 2 1 1 1 1
v 1.5 0.25 3 1 1 1 1
v 1.5 0 3 1 1 1 1
v -0.5 0.25 3 1 1 1 1
v -0.5 0 3 1 1 1 1
v 1.5 0.25 3 1 1 1 1
v 1.5 0 2 1 1 1 1
v 1.5 0.25 3 1 1 1 1
v 1.5 0 3 1 1 1 1
v 1.5 0.25 2 1 1 1 1
v -0.5 0 2 1 1 1 1
v 1.5 0.25 2 1 1 1 1
v 1.5 0 2 1 1 1 1
v -0.5 0.25 2 1 1 1 1
v -0.5 0 2 1 1 1 1
v 1.5 0 3 1 1 1 1
v -0.5 0 3 1 1 1 1
v 1.5 0 2 1 1 1 1
vt 0.1875 0.375
vt 0.15625 0.40625
vt 0.15625 0.375
vt 0.1875 0.40625
vt 0.0625 0.53125
vt 0.1875 0.59375
vt 0.0625 0.59375
vt 0.1875 0.53125
vt 0.15625 0.34375
vt 0.28125 0.40625
vt 0.28125 0.34375
vn -1 0 0
vn 0 1 0
vn 0 0 1
vn 1 0 0
vn 0 0 -1
vn 0 -1 0
g Scene
usemtl 0
f 1/1/1 3/2/1 2/3/1
f 1/1/1 4/4/1 3/2/1
f 5/5/2 6/6/2 7/7/2
f 5/5/2 8/8/2 6/6/2
f 9/1/3 10/2/3 11/3/3
f 9/1/3 12/4/3 10/2/3
f 13/1/4 14/2/4 15/3/4
f 13/1/4 16/4/4 14/2/4
f 17/1/5 18/2/5 19/3/5
f 17/1/5 20/4/5 18/2/5
f 21/9/6 22/10/6 23/2/6
f 21/9/6 24/11/6 22/10/6
