mtllib shrineshelf.mtl
o Default
v -0.375 -2.375 1.25 1 1 1 1
v -0.375 -2.375 -0.6875 1 1 1 1
v -0.375 -2.125 -0.6875 1 1 1 1
v -0.375 -2.125 1.25 1 1 1 1
v 5.0625 -2.375 1.25 1 1 1 1
v -0.375 -2.125 1.25 1 1 1 1
v -0.375 -2.375 1.25 1 1 1 1
v 5.0625 -2.125 1.25 1 1 1 1
v -0.375 -2.125 1.25 1 1 1 1
v 5.0625 -2.125 -0.6875 1 1 1 1
v -0.375 -2.125 -0.6875 1 1 1 1
v 5.0625 -2.125 1.25 1 1 1 1
v -0.375 -2.375 -0.6875 1 1 1 1
v 5.0625 -2.125 -0.6875 1 1 1 1
v 5.0625 -2.375 -0.6875 1 1 1 1
v -0.375 -2.125 -0.6875 1 1 1 1
v 5.0625 -2.375 -0.6875 1 1 1 1
v 5.0625 -2.125 1.25 1 1 1 1
v 5.0625 -2.375 1.25 1 1 1 1
v 5.0625 -2.125 -0.6875 1 1 1 1
v -0.375 -2.375 -0.6875 1 1 1 1
v 5.0625 -2.375 1.25 1 1 1 1
v -0.375 -2.375 1.25 1 1 1 1
v 5.0625 -2.375 -0.6875 1 1 1 1
vt 0.2109375 0.3828125
vt 0.20703125 0.38671875
vt 0.20703125 0.3828125
vt 0.2109375 0.38671875
vt 0.046875 0.51953125
vt 0.38671875 0.6875
vt 0.046875 0.6875
vt 0.38671875 0.51953125
vt 0.05078125 0.34375
vt 0.3828125 0.42578125
vt 0.05078125 0.42578125
vt 0.3828125 0.34375
vn -1 0 0
vn 0 0 1
vn 0 1 0
vn 0 0 -1
vn 1 0 0
vn 0 -1 0
g Scene
usemtl 0
f 1/1/1 3/2/1 2/3/1
f 1/1/1 4/4/1 3/2/1
f 5/1/2 6/2/2 7/3/2
f 5/1/2 8/4/2 6/2/2
f 9/5/3 10/6/3 11/7/3
f 9/5/3 12/8/3 10/6/3
f 13/1/4 14/2/4 15/3/4
f 13/1/4 16/4/4 14/2/4
f 17/1/5 18/2/5 19/3/5
f 17/1/5 20/4/5 18/2/5
f 21/9/6 22/10/6 23/11/6
f 21/9/6 24/12/6 22/10/6
