mtllib material.mtl
o Default
v 0 -0.44 0
v 0 0 -0.04
v 0 0 0
v 0 -0.44 -0.04
v -0.04 -0.44 0
v -0.04 0 0
v -0.04 -0.44 -0.04
v -0.04 0 -0.04
v 0.24 -0.44 0
v 0.28 0 0
v 0.24 0 0
v 0.28 -0.44 0
v 0.24 -0.44 -0.04
v 0.24 0 -0.04
v 0.28 -0.44 -0.04
v 0.28 0 -0.04
v -0.04 0.04 -0.04
v 0.28 0.04 -0.04
v 0 -0.44 0.56
v -0.04 0 0.56
v 0 0 0.56
v -0.04 -0.44 0.56
v 0 -0.44 0.6
v 0 0 0.6
v -0.04 -0.44 0.6
v -0.04 0 0.6
v -0.04 0.04 0.6
v 0.24 -0.44 0.56
v 0.24 0 0.6
v 0.24 0 0.56
v 0.24 -0.44 0.6
v 0.28 -0.44 0.56
v 0.28 0 0.56
v 0.28 0.04 0.6
v 0.28 0 0.6
v 0.28 -0.44 0.6
vt 0 0.25
vt 0.171875 0.234375
vt 0.171875 0.25
vt 0 0.234375
vt 0.171875 0.21875
vt 0 0.21875
vt 0.171875 0.203125
vt 0 0.203125
vt 0.28125 0.046875
vt 0.265625 0.171875
vt 0.265625 0.046875
vt 0.28125 0.171875
vt 0.015625 0.03125
vt 0.015625 0.046875
vt 0.265625 0.03125
vt 0.171875 0.1875
vt 0 0.1875
vt 0 0.171875
vt 0.015625 0.171875
vt 0 0.046875
vn 1 0 0
vn 0 0 1
vn -1 0 0
vn 0 0 -1
vn 0 1 0
g Table
usemtl HouseTileset
f 1/1/1 2/2/1 3/3/1
f 1/1/1 4/4/1 2/2/1
f 5/4/2 3/5/2 6/2/2
f 5/4/2 1/6/2 3/5/2
f 7/6/3 6/7/3 8/5/3
f 7/6/3 5/8/3 6/7/3
f 4/4/4 8/5/4 2/2/4
f 4/4/4 7/6/4 8/5/4
f 9/4/2 10/5/2 11/2/2
f 9/4/2 12/6/2 10/5/2
f 13/1/3 11/2/3 14/3/3
f 13/1/3 9/4/3 11/2/3
f 15/4/4 14/5/4 16/2/4
f 15/4/4 13/6/4 14/5/4
f 16/9/4 17/10/4 18/11/4
f 16/9/4 8/12/4 17/10/4
f 19/4/4 20/5/4 21/2/4
f 19/4/4 22/6/4 20/5/4
f 23/1/1 21/2/1 24/3/1
f 23/1/1 19/4/1 21/2/1
f 25/4/2 24/5/2 26/2/2
f 25/4/2 23/6/2 24/5/2
f 22/6/3 26/7/3 20/5/3
f 22/6/3 25/8/3 26/7/3
f 8/13/3 27/11/3 17/14/3
f 8/13/3 26/15/3 27/11/3
f 28/6/3 29/7/3 30/5/3
f 28/6/3 31/8/3 29/7/3
f 32/8/4 30/16/4 33/7/4
f 32/8/4 28/17/4 30/16/4
f 26/18/2 34/14/2 27/19/2
f 26/18/2 35/20/2 34/14/2
f 31/4/2 35/5/2 29/2/2
f 31/4/2 36/6/2 35/5/2
f 12/6/1 16/7/1 10/5/1
f 12/6/1 15/8/1 16/7/1
f 36/6/1 33/7/1 35/5/1
f 36/6/1 32/8/1 33/7/1
f 35/11/1 18/13/1 34/15/1
f 35/11/1 16/14/1 18/13/1
f 27/11/5 18/19/5 17/14/5
f 27/11/5 34/10/5 18/19/5
