mtllib treasury.mtl
o Default
v 1.28 1.92 -8 1 1 1 1
v 1.28 1.92 -7.68 1 1 1 1
v 2.56 1.92 -7.68 1 1 1 1
v 2.56 1.92 -8 1 1 1 1
v -1.28 0 -4.8 1 1 1 1
v -1.28 1.92 -5.12 1 1 1 1
v -1.28 1.92 -4.8 1 1 1 1
v -1.28 0 -5.12 1 1 1 1
v -1.28 0 -6.08 1 1 1 1
v -1.28 1.92 -6.4 1 1 1 1
v -1.28 1.92 -6.08 1 1 1 1
v -1.28 0 -6.4 1 1 1 1
v -1.28 0 -7.36 1 1 1 1
v -1.28 1.92 -7.68 1 1 1 1
v -1.28 1.92 -7.36 1 1 1 1
v -1.28 0 -7.68 1 1 1 1
v 1.28 1.92 -8.32 1 1 1 1
v 2.56 1.92 -8 1 1 1 1
v 1.28 1.92 -8 1 1 1 1
v 2.56 1.92 -8.32 1 1 1 1
v -1.28 1.92 -6.72 1 1 1 1
v 0 1.92 -6.4 1 1 1 1
v -1.28 1.92 -6.4 1 1 1 1
v 0 1.92 -6.72 1 1 1 1
v -1.28 1.92 -6.4 1 1 1 1
v 0 1.92 -6.08 1 1 1 1
v -1.28 1.92 -6.08 1 1 1 1
v 0 1.92 -6.4 1 1 1 1
v 1.28 1.92 -6.08 1 1 1 1
v 2.56 1.92 -5.76 1 1 1 1
v 1.28 1.92 -5.76 1 1 1 1
v 2.56 1.92 -6.08 1 1 1 1
v 2.56 0 -8 1 1 1 1
v 2.56 1.92 -7.68 1 1 1 1
v 2.56 1.92 -8 1 1 1 1
v 2.56 0 -7.68 1 1 1 1
v -1.28 0 -7.04 1 1 1 1
v -1.28 1.92 -7.36 1 1 1 1
v -1.28 1.92 -7.04 1 1 1 1
v -1.28 0 -7.36 1 1 1 1
v -1.28 0 -5.76 1 1 1 1
v -1.28 1.92 -6.08 1 1 1 1
v -1.28 1.92 -5.76 1 1 1 1
v -1.28 0 -6.08 1 1 1 1
v 0 0 -7.04 1 1 1 1
v 1.28 0 -7.36 1 1 1 1
v 0 0 -7.36 1 1 1 1
v 1.28 0 -7.04 1 1 1 1
v 1.28 1.92 -5.44 1 1 1 1
v 2.56 1.92 -5.12 1 1 1 1
v 1.28 1.92 -5.12 1 1 1 1
v 2.56 1.92 -5.44 1 1 1 1
v -1.28 1.92 -6.08 1 1 1 1
v 0 1.92 -5.76 1 1 1 1
v -1.28 1.92 -5.76 1 1 1 1
v 0 1.92 -6.08 1 1 1 1
v -1.28 1.92 -5.76 1 1 1 1
v 0 1.92 -5.44 1 1 1 1
v -1.28 1.92 -5.44 1 1 1 1
v 0 1.92 -5.76 1 1 1 1
v -1.28 1.92 -5.44 1 1 1 1
v 0 1.92 -5.12 1 1 1 1
v -1.28 1.92 -5.12 1 1 1 1
v 0 1.92 -5.44 1 1 1 1
v -1.28 1.92 -5.12 1 1 1 1
v 0 1.92 -4.8 1 1 1 1
v -1.28 1.92 -4.8 1 1 1 1
v 0 1.92 -5.12 1 1 1 1
v 0 1.92 -5.12 1 1 1 1
v 1.28 1.92 -4.8 1 1 1 1
v 0 1.92 -4.8 1 1 1 1
v 1.28 1.92 -5.12 1 1 1 1
v 0 1.92 -5.44 1 1 1 1
v 1.28 1.92 -5.12 1 1 1 1
v 0 1.92 -5.12 1 1 1 1
v 1.28 1.92 -5.44 1 1 1 1
v 1.28 1.92 -5.12 1 1 1 1
v 2.56 1.92 -4.8 1 1 1 1
v 1.28 1.92 -4.8 1 1 1 1
v 2.56 1.92 -5.12 1 1 1 1
v 0 0 -8.32 1 1 1 1
v 1.28 0 -8.64 1 1 1 1
v 0 0 -8.64 1 1 1 1
v 1.28 0 -8.32 1 1 1 1
v -1.28 0 -8.32 1 1 1 1
v -1.28 1.92 -8.64 1 1 1 1
v -1.28 1.92 -8.32 1 1 1 1
v -1.28 0 -8.64 1 1 1 1
v 1.28 0 -7.04 1 1 1 1
v 2.56 0 -7.36 1 1 1 1
v 1.28 0 -7.36 1 1 1 1
v 2.56 0 -7.04 1 1 1 1
v 1.28 0 -6.72 1 1 1 1
v 2.56 0 -7.04 1 1 1 1
v 1.28 0 -7.04 1 1 1 1
v 2.56 0 -6.72 1 1 1 1
v 1.28 0 -6.4 1 1 1 1
v 2.56 0 -6.72 1 1 1 1
v 1.28 0 -6.72 1 1 1 1
v 2.56 0 -6.4 1 1 1 1
v 1.28 0 -6.08 1 1 1 1
v 2.56 0 -6.4 1 1 1 1
v 1.28 0 -6.4 1 1 1 1
v 2.56 0 -6.08 1 1 1 1
v -1.28 1.92 -7.36 1 1 1 1
v 0 1.92 -7.04 1 1 1 1
v -1.28 1.92 -7.04 1 1 1 1
v 0 1.92 -7.36 1 1 1 1
v 2.56 0 -6.08 1 1 1 1
v 2.56 1.92 -5.76 1 1 1 1
v 2.56 1.92 -6.08 1 1 1 1
v 2.56 0 -5.76 1 1 1 1
v -1.28 1.92 -8.64 1 1 1 1
v 0 1.92 -8.32 1 1 1 1
v -1.28 1.92 -8.32 1 1 1 1
v 0 1.92 -8.64 1 1 1 1
v 1.28 0 -5.76 1 1 1 1
v 2.56 0 -6.08 1 1 1 1
v 1.28 0 -6.08 1 1 1 1
v 2.56 0 -5.76 1 1 1 1
v 0 1.92 -8.64 1 1 1 1
v 1.28 1.92 -8.32 1 1 1 1
v 0 1.92 -8.32 1 1 1 1
v 1.28 1.92 -8.64 1 1 1 1
v 2.56 0 -5.44 1 1 1 1
v 2.56 1.92 -5.12 1 1 1 1
v 2.56 1.92 -5.44 1 1 1 1
v 2.56 0 -5.12 1 1 1 1
v 2.56 0 -5.76 1 1 1 1
v 2.56 1.92 -5.44 1 1 1 1
v 2.56 1.92 -5.76 1 1 1 1
v 2.56 0 -5.44 1 1 1 1
v 2.56 0 -6.72 1 1 1 1
v 2.56 1.92 -6.4 1 1 1 1
v 2.56 1.92 -6.72 1 1 1 1
v 2.56 0 -6.4 1 1 1 1
v -1.28 1.92 -8.32 1 1 1 1
v 0 1.92 -8 1 1 1 1
v -1.28 1.92 -8 1 1 1 1
v 0 1.92 -8.32 1 1 1 1
v -1.28 0 -5.12 1 1 1 1
v -1.28 1.92 -5.44 1 1 1 1
v -1.28 1.92 -5.12 1 1 1 1
v -1.28 0 -5.44 1 1 1 1
v -1.28 1.92 -8 1 1 1 1
v 0 1.92 -7.68 1 1 1 1
v -1.28 1.92 -7.68 1 1 1 1
v 0 1.92 -8 1 1 1 1
v 1.28 1.92 -6.4 1 1 1 1
v 2.56 1.92 -6.08 1 1 1 1
v 1.28 1.92 -6.08 1 1 1 1
v 2.56 1.92 -6.4 1 1 1 1
v -1.28 1.92 -7.04 1 1 1 1
v 0 1.92 -6.72 1 1 1 1
v -1.28 1.92 -6.72 1 1 1 1
v 0 1.92 -7.04 1 1 1 1
v 1.28 1.28 -4.8 1 1 1 1
v 0.96 1.92 -4.8 1 1 1 1
v 1.28 1.92 -4.8 1 1 1 1
v 0.96 1.28 -4.8 1 1 1 1
v 0.96 1.28 -4.8 1 1 1 1
v 0.64 1.92 -4.8 1 1 1 1
v 0.96 1.92 -4.8 1 1 1 1
v 0.64 1.28 -4.8 1 1 1 1
v -1.28 0 -5.44 1 1 1 1
v -1.28 1.92 -5.76 1 1 1 1
v -1.28 1.92 -5.44 1 1 1 1
v -1.28 0 -5.76 1 1 1 1
v -1.28 0 -6.72 1 1 1 1
v -1.28 1.92 -7.04 1 1 1 1
v -1.28 1.92 -6.72 1 1 1 1
v -1.28 0 -7.04 1 1 1 1
v 1.28 1.92 -7.04 1 1 1 1
v 2.56 1.92 -6.72 1 1 1 1
v 1.28 1.92 -6.72 1 1 1 1
v 2.56 1.92 -7.04 1 1 1 1
v -1.28 0 -6.4 1 1 1 1
v -1.28 1.92 -6.72 1 1 1 1
v -1.28 1.92 -6.4 1 1 1 1
v -1.28 0 -6.72 1 1 1 1
v -1.28 0 -8 1 1 1 1
v -1.28 1.92 -8.32 1 1 1 1
v -1.28 1.92 -8 1 1 1 1
v -1.28 0 -8.32 1 1 1 1
v -1.28 0 -7.68 1 1 1 1
v -1.28 1.92 -8 1 1 1 1
v -1.28 1.92 -7.68 1 1 1 1
v -1.28 0 -8 1 1 1 1
v 1.28 1.92 -5.76 1 1 1 1
v 2.56 1.92 -5.44 1 1 1 1
v 1.28 1.92 -5.44 1 1 1 1
v 2.56 1.92 -5.76 1 1 1 1
v 0 0 -7.68 1 1 1 1
v 1.28 0 -8 1 1 1 1
v 0 0 -8 1 1 1 1
v 1.28 0 -7.68 1 1 1 1
v 0 1.92 -6.08 1 1 1 1
v 1.28 1.92 -5.76 1 1 1 1
v 0 1.92 -5.76 1 1 1 1
v 1.28 1.92 -6.08 1 1 1 1
v 1.28 0 -5.44 1 1 1 1
v 2.56 0 -5.76 1 1 1 1
v 1.28 0 -5.76 1 1 1 1
v 2.56 0 -5.44 1 1 1 1
v 1.28 0 -5.12 1 1 1 1
v 2.56 0 -5.44 1 1 1 1
v 1.28 0 -5.44 1 1 1 1
v 2.56 0 -5.12 1 1 1 1
v 1.28 0 -4.8 1 1 1 1
v 2.56 0 -5.12 1 1 1 1
v 1.28 0 -5.12 1 1 1 1
v 2.56 0 -4.8 1 1 1 1
v 0 0 -4.8 1 1 1 1
v 1.28 0 -5.12 1 1 1 1
v 0 0 -5.12 1 1 1 1
v 1.28 0 -4.8 1 1 1 1
v 0 1.92 -8.32 1 1 1 1
v 1.28 1.92 -8 1 1 1 1
v 0 1.92 -8 1 1 1 1
v 1.28 1.92 -8.32 1 1 1 1
v 2.56 0 -5.12 1 1 1 1
v 2.56 1.92 -4.8 1 1 1 1
v 2.56 1.92 -5.12 1 1 1 1
v 2.56 0 -4.8 1 1 1 1
v -1.28 0 -7.68 1 1 1 1
v 0 0 -8 1 1 1 1
v -1.28 0 -8 1 1 1 1
v 0 0 -7.68 1 1 1 1
v 2.56 0 -6.4 1 1 1 1
v 2.56 1.92 -6.08 1 1 1 1
v 2.56 1.92 -6.4 1 1 1 1
v 2.56 0 -6.08 1 1 1 1
v 0 1.92 -6.4 1 1 1 1
v 1.28 1.92 -6.08 1 1 1 1
v 0 1.92 -6.08 1 1 1 1
v 1.28 1.92 -6.4 1 1 1 1
v 0 1.92 -6.72 1 1 1 1
v 1.28 1.92 -6.4 1 1 1 1
v 0 1.92 -6.4 1 1 1 1
v 1.28 1.92 -6.72 1 1 1 1
v 0 0 -5.12 1 1 1 1
v 1.28 0 -5.44 1 1 1 1
v 0 0 -5.44 1 1 1 1
v 1.28 0 -5.12 1 1 1 1
v -1.28 0 -6.08 1 1 1 1
v 0 0 -6.4 1 1 1 1
v -1.28 0 -6.4 1 1 1 1
v 0 0 -6.08 1 1 1 1
v -1.28 0 -7.04 1 1 1 1
v 0 0 -7.36 1 1 1 1
v -1.28 0 -7.36 1 1 1 1
v 0 0 -7.04 1 1 1 1
v 2.56 0 -7.04 1 1 1 1
v 2.56 1.92 -6.72 1 1 1 1
v 2.56 1.92 -7.04 1 1 1 1
v 2.56 0 -6.72 1 1 1 1
v 2.56 0 -8.32 1 1 1 1
v 2.56 1.92 -8 1 1 1 1
v 2.56 1.92 -8.32 1 1 1 1
v 2.56 0 -8 1 1 1 1
v 2.56 0 -7.68 1 1 1 1
v 2.56 1.92 -7.36 1 1 1 1
v 2.56 1.92 -7.68 1 1 1 1
v 2.56 0 -7.36 1 1 1 1
v 0 0 -8 1 1 1 1
v 1.28 0 -8.32 1 1 1 1
v 0 0 -8.32 1 1 1 1
v 1.28 0 -8 1 1 1 1
v -1.28 0 -7.36 1 1 1 1
v 0 0 -7.68 1 1 1 1
v -1.28 0 -7.68 1 1 1 1
v 0 0 -7.36 1 1 1 1
v 1.28 1.92 -6.72 1 1 1 1
v 2.56 1.92 -6.4 1 1 1 1
v 1.28 1.92 -6.4 1 1 1 1
v 2.56 1.92 -6.72 1 1 1 1
v 1.28 1.92 -7.36 1 1 1 1
v 2.56 1.92 -7.04 1 1 1 1
v 1.28 1.92 -7.04 1 1 1 1
v 2.56 1.92 -7.36 1 1 1 1
v 1.28 1.92 -7.68 1 1 1 1
v 2.56 1.92 -7.36 1 1 1 1
v 1.28 1.92 -7.36 1 1 1 1
v 2.56 1.92 -7.68 1 1 1 1
v 1.28 0 -7.68 1 1 1 1
v 2.56 0 -8 1 1 1 1
v 1.28 0 -8 1 1 1 1
v 2.56 0 -7.68 1 1 1 1
v 0.64 1.28 -4.8 1 1 1 1
v 0.32 1.92 -4.8 1 1 1 1
v 0.64 1.92 -4.8 1 1 1 1
v 0.32 1.28 -4.8 1 1 1 1
v 0.32 1.28 -4.8 1 1 1 1
v 0 1.92 -4.8 1 1 1 1
v 0.32 1.92 -4.8 1 1 1 1
v 0 1.28 -4.8 1 1 1 1
v 1.28 0 -8.32 1 1 1 1
v 2.56 0 -8.64 1 1 1 1
v 1.28 0 -8.64 1 1 1 1
v 2.56 0 -8.32 1 1 1 1
v 0 0 -6.72 1 1 1 1
v 1.28 0 -7.04 1 1 1 1
v 0 0 -7.04 1 1 1 1
v 1.28 0 -6.72 1 1 1 1
v 0 0 -6.4 1 1 1 1
v 1.28 0 -6.72 1 1 1 1
v 0 0 -6.72 1 1 1 1
v 1.28 0 -6.4 1 1 1 1
v 1.28 1.92 -8.64 1 1 1 1
v 2.56 1.92 -8.32 1 1 1 1
v 1.28 1.92 -8.32 1 1 1 1
v 2.56 1.92 -8.64 1 1 1 1
v 0 0 -7.36 1 1 1 1
v 1.28 0 -7.68 1 1 1 1
v 0 0 -7.68 1 1 1 1
v 1.28 0 -7.36 1 1 1 1
v 0 1.92 -7.68 1 1 1 1
v 1.28 1.92 -7.36 1 1 1 1
v 0 1.92 -7.36 1 1 1 1
v 1.28 1.92 -7.68 1 1 1 1
v 0 1.92 -7.36 1 1 1 1
v 1.28 1.92 -7.04 1 1 1 1
v 0 1.92 -7.04 1 1 1 1
v 1.28 1.92 -7.36 1 1 1 1
v 0 1.92 -7.04 1 1 1 1
v 1.28 1.92 -6.72 1 1 1 1
v 0 1.92 -6.72 1 1 1 1
v 1.28 1.92 -7.04 1 1 1 1
v 0 1.92 -8 1 1 1 1
v 1.28 1.92 -7.68 1 1 1 1
v 0 1.92 -7.68 1 1 1 1
v 1.28 1.92 -8 1 1 1 1
v -1.28 1.92 -7.68 1 1 1 1
v 0 1.92 -7.36 1 1 1 1
v -1.28 1.92 -7.36 1 1 1 1
v 0 1.92 -7.68 1 1 1 1
v 2.56 0 -7.36 1 1 1 1
v 2.56 1.92 -7.04 1 1 1 1
v 2.56 1.92 -7.36 1 1 1 1
v 2.56 0 -7.04 1 1 1 1
v -1.28 0 -8.32 1 1 1 1
v 0 0 -8.64 1 1 1 1
v -1.28 0 -8.64 1 1 1 1
v 0 0 -8.32 1 1 1 1
v -1.28 0 -4.8 1 1 1 1
v 0 0 -5.12 1 1 1 1
v -1.28 0 -5.12 1 1 1 1
v 0 0 -4.8 1 1 1 1
v -1.28 0 -5.44 1 1 1 1
v 0 0 -5.76 1 1 1 1
v -1.28 0 -5.76 1 1 1 1
v 0 0 -5.44 1 1 1 1
v 0 1.92 -5.76 1 1 1 1
v 1.28 1.92 -5.44 1 1 1 1
v 0 1.92 -5.44 1 1 1 1
v 1.28 1.92 -5.76 1 1 1 1
v 0 0 -5.76 1 1 1 1
v 1.28 0 -6.08 1 1 1 1
v 0 0 -6.08 1 1 1 1
v 1.28 0 -5.76 1 1 1 1
v 0 0 -5.44 1 1 1 1
v 1.28 0 -5.76 1 1 1 1
v 0 0 -5.76 1 1 1 1
v 1.28 0 -5.44 1 1 1 1
v -1.28 0 -5.12 1 1 1 1
v 0 0 -5.44 1 1 1 1
v -1.28 0 -5.44 1 1 1 1
v 0 0 -5.12 1 1 1 1
v -1.28 0 -5.76 1 1 1 1
v 0 0 -6.08 1 1 1 1
v -1.28 0 -6.08 1 1 1 1
v 0 0 -5.76 1 1 1 1
v -1.28 0 -6.72 1 1 1 1
v 0 0 -7.04 1 1 1 1
v -1.28 0 -7.04 1 1 1 1
v 0 0 -6.72 1 1 1 1
v -1.28 0 -6.4 1 1 1 1
v 0 0 -6.72 1 1 1 1
v -1.28 0 -6.72 1 1 1 1
v 0 0 -6.4 1 1 1 1
v 1.28 0 -8 1 1 1 1
v 2.56 0 -8.32 1 1 1 1
v 1.28 0 -8.32 1 1 1 1
v 2.56 0 -8 1 1 1 1
v 0 0 -6.08 1 1 1 1
v 1.28 0 -6.4 1 1 1 1
v 0 0 -6.4 1 1 1 1
v 1.28 0 -6.08 1 1 1 1
v 1.28 0 -7.36 1 1 1 1
v 2.56 0 -7.68 1 1 1 1
v 1.28 0 -7.68 1 1 1 1
v 2.56 0 -7.36 1 1 1 1
v -1.28 0 -8 1 1 1 1
v 0 0 -8.32 1 1 1 1
v -1.28 0 -8.32 1 1 1 1
v 0 0 -8 1 1 1 1
v 2.56 0 -8.64 1 1 1 1
v 2.56 1.92 -8.32 1 1 1 1
v 2.56 1.92 -8.64 1 1 1 1
v 2.56 0 -8.32 1 1 1 1
v -0.96 1.28 -4.8 1 1 1 1
v -1.28 1.92 -4.8 1 1 1 1
v -0.96 1.92 -4.8 1 1 1 1
v -1.28 1.28 -4.8 1 1 1 1
v -0.64 1.28 -4.8 1 1 1 1
v -0.96 1.92 -4.8 1 1 1 1
v -0.64 1.92 -4.8 1 1 1 1
v -0.96 1.28 -4.8 1 1 1 1
v -0.32 1.28 -4.8 1 1 1 1
v -0.64 1.92 -4.8 1 1 1 1
v -0.32 1.92 -4.8 1 1 1 1
v -0.64 1.28 -4.8 1 1 1 1
v 0 1.28 -4.8 1 1 1 1
v -0.32 1.92 -4.8 1 1 1 1
v 0 1.92 -4.8 1 1 1 1
v -0.32 1.28 -4.8 1 1 1 1
v -0.64 0 -4.8 1 1 1 1
v -0.96 1.28 -4.8 1 1 1 1
v -0.64 1.28 -4.8 1 1 1 1
v -0.96 0 -4.8 1 1 1 1
v -0.32 0 -4.8 1 1 1 1
v -0.64 1.28 -4.8 1 1 1 1
v -0.32 1.28 -4.8 1 1 1 1
v -0.64 0 -4.8 1 1 1 1
v 0 0 -4.8 1 1 1 1
v -0.32 1.28 -4.8 1 1 1 1
v 0 1.28 -4.8 1 1 1 1
v -0.32 0 -4.8 1 1 1 1
v -0.96 0 -4.8 1 1 1 1
v -1.28 1.28 -4.8 1 1 1 1
v -0.96 1.28 -4.8 1 1 1 1
v -1.28 0 -4.8 1 1 1 1
v 1.6 1.28 -4.8 1 1 1 1
v 1.28 1.92 -4.8 1 1 1 1
v 1.6 1.92 -4.8 1 1 1 1
v 1.28 1.28 -4.8 1 1 1 1
v 1.92 1.28 -4.8 1 1 1 1
v 1.6 1.92 -4.8 1 1 1 1
v 1.92 1.92 -4.8 1 1 1 1
v 1.6 1.28 -4.8 1 1 1 1
v 2.24 1.28 -4.8 1 1 1 1
v 1.92 1.92 -4.8 1 1 1 1
v 2.24 1.92 -4.8 1 1 1 1
v 1.92 1.28 -4.8 1 1 1 1
v 2.56 1.28 -4.8 1 1 1 1
v 2.24 1.92 -4.8 1 1 1 1
v 2.56 1.92 -4.8 1 1 1 1
v 2.24 1.28 -4.8 1 1 1 1
v 1.92 0 -4.8 1 1 1 1
v 1.6 1.28 -4.8 1 1 1 1
v 1.92 1.28 -4.8 1 1 1 1
v 1.6 0 -4.8 1 1 1 1
v 2.24 0 -4.8 1 1 1 1
v 1.92 1.28 -4.8 1 1 1 1
v 2.24 1.28 -4.8 1 1 1 1
v 1.92 0 -4.8 1 1 1 1
v 2.56 0 -4.8 1 1 1 1
v 2.24 1.28 -4.8 1 1 1 1
v 2.56 1.28 -4.8 1 1 1 1
v 2.24 0 -4.8 1 1 1 1
v 1.6 0 -4.8 1 1 1 1
v 1.28 1.28 -4.8 1 1 1 1
v 1.6 1.28 -4.8 1 1 1 1
v 1.28 0 -4.8 1 1 1 1
v 1.71 0 -8.64 1 1 1 1
v 1.23 0 -8.56 1 1 1 1
v 1.23 0 -8.64 1 1 1 1
v 1.71 0 -8.56 1 1 1 1
v 1.23 1.92 -8.64 1 1 1 1
v 1.71 1.92 -8.56 1 1 1 1
v 1.71 1.92 -8.64 1 1 1 1
v 1.23 1.92 -8.56 1 1 1 1
v 1.23 0 -8.64 1 1 1 1
v 1.23 1.92 -8.56 1 1 1 1
v 1.23 1.92 -8.64 1 1 1 1
v 1.23 0 -8.56 1 1 1 1
v 1.99 0 -8.64 1 1 1 1
v 1.71 0 -8.56 1 1 1 1
v 1.71 0 -8.64 1 1 1 1
v 1.99 0 -8.56 1 1 1 1
v 1.71 1.92 -8.64 1 1 1 1
v 1.99 1.92 -8.56 1 1 1 1
v 1.99 1.92 -8.64 1 1 1 1
v 1.71 1.92 -8.56 1 1 1 1
v 2.5500000000000003 0 -8.64 1 1 1 1
v 2.27 0 -8.56 1 1 1 1
v 2.27 0 -8.64 1 1 1 1
v 2.5500000000000003 0 -8.56 1 1 1 1
v 2.5500000000000003 1.92 -8.64 1 1 1 1
v 2.5500000000000003 0 -8.56 1 1 1 1
v 2.5500000000000003 0 -8.64 1 1 1 1
v 2.5500000000000003 1.92 -8.56 1 1 1 1
v 2.27 1.92 -8.64 1 1 1 1
v 2.5500000000000003 1.92 -8.56 1 1 1 1
v 2.5500000000000003 1.92 -8.64 1 1 1 1
v 2.27 1.92 -8.56 1 1 1 1
v 2.27 0 -8.64 1 1 1 1
v 1.99 0 -8.56 1 1 1 1
v 1.99 0 -8.64 1 1 1 1
v 2.27 0 -8.56 1 1 1 1
v 1.99 1.92 -8.64 1 1 1 1
v 2.27 1.92 -8.56 1 1 1 1
v 2.27 1.92 -8.64 1 1 1 1
v 1.99 1.92 -8.56 1 1 1 1
v 1.23 0 -8.56 1 1 1 1
v 1.71 1.92 -8.56 1 1 1 1
v 1.23 1.92 -8.56 1 1 1 1
v 1.71 0 -8.56 1 1 1 1
v 1.71 0 -8.56 1 1 1 1
v 1.99 1.92 -8.56 1 1 1 1
v 1.71 1.92 -8.56 1 1 1 1
v 1.99 0 -8.56 1 1 1 1
v 1.99 0 -8.56 1 1 1 1
v 2.27 1.92 -8.56 1 1 1 1
v 1.99 1.92 -8.56 1 1 1 1
v 2.27 0 -8.56 1 1 1 1
v 2.27 0 -8.56 1 1 1 1
v 2.5500000000000003 1.92 -8.56 1 1 1 1
v 2.27 1.92 -8.56 1 1 1 1
v 2.5500000000000003 0 -8.56 1 1 1 1
v 1.23 1.92 -8.64 1 1 1 1
v 1.71 1.92 -8.64 1 1 1 1
v 1.23 0 -8.64 1 1 1 1
v 1.71 0 -8.64 1 1 1 1
v 1.71 1.92 -8.64 1 1 1 1
v 1.99 1.92 -8.64 1 1 1 1
v 1.71 0 -8.64 1 1 1 1
v 1.99 0 -8.64 1 1 1 1
v 1.99 1.92 -8.64 1 1 1 1
v 2.27 1.92 -8.64 1 1 1 1
v 1.99 0 -8.64 1 1 1 1
v 2.27 0 -8.64 1 1 1 1
v 2.27 1.92 -8.64 1 1 1 1
v 2.5500000000000003 1.92 -8.64 1 1 1 1
v 2.27 0 -8.64 1 1 1 1
v 2.5500000000000003 0 -8.64 1 1 1 1
v -1 0 -8.64 1 1 1 1
v -1.28 1.92 -8.64 1 1 1 1
v -1 1.92 -8.64 1 1 1 1
v -1.28 0 -8.64 1 1 1 1
v -0.72 0 -8.64 1 1 1 1
v -1 1.92 -8.64 1 1 1 1
v -0.72 1.92 -8.64 1 1 1 1
v -1 0 -8.64 1 1 1 1
v -0.44 0 -8.64 1 1 1 1
v -0.72 1.92 -8.64 1 1 1 1
v -0.44 1.92 -8.64 1 1 1 1
v -0.72 0 -8.64 1 1 1 1
v 0.04 0 -8.64 1 1 1 1
v -0.44 1.92 -8.64 1 1 1 1
v 0.04 1.92 -8.64 1 1 1 1
v -0.44 0 -8.64 1 1 1 1
v -1 1.92 -8.56 1 1 1 1
v -1.28 1.92 -8.56 1 1 1 1
v -1 0 -8.56 1 1 1 1
v -1.28 0 -8.56 1 1 1 1
v -0.72 1.92 -8.56 1 1 1 1
v -1 1.92 -8.56 1 1 1 1
v -0.72 0 -8.56 1 1 1 1
v -1 0 -8.56 1 1 1 1
v -0.44 1.92 -8.56 1 1 1 1
v -0.72 1.92 -8.56 1 1 1 1
v -0.44 0 -8.56 1 1 1 1
v -0.72 0 -8.56 1 1 1 1
v 0.04 1.92 -8.56 1 1 1 1
v -0.44 1.92 -8.56 1 1 1 1
v 0.04 0 -8.56 1 1 1 1
v -0.44 0 -8.56 1 1 1 1
v -1 1.92 -8.64 1 1 1 1
v -1 1.92 -8.56 1 1 1 1
v -0.72 1.92 -8.64 1 1 1 1
v -0.72 1.92 -8.56 1 1 1 1
v -0.72 0 -8.64 1 1 1 1
v -0.72 0 -8.56 1 1 1 1
v -1 0 -8.64 1 1 1 1
v -1 0 -8.56 1 1 1 1
v -1.28 1.92 -8.64 1 1 1 1
v -1.28 1.92 -8.56 1 1 1 1
v -1 1.92 -8.64 1 1 1 1
v -1 1.92 -8.56 1 1 1 1
v -1.28 0 -8.64 1 1 1 1
v -1.28 0 -8.56 1 1 1 1
v -1.28 1.92 -8.64 1 1 1 1
v -1.28 1.92 -8.56 1 1 1 1
v -1 0 -8.64 1 1 1 1
v -1 0 -8.56 1 1 1 1
v -1.28 0 -8.64 1 1 1 1
v -1.28 0 -8.56 1 1 1 1
v -0.72 1.92 -8.64 1 1 1 1
v -0.72 1.92 -8.56 1 1 1 1
v -0.44 1.92 -8.64 1 1 1 1
v -0.44 1.92 -8.56 1 1 1 1
v -0.44 0 -8.64 1 1 1 1
v -0.44 0 -8.56 1 1 1 1
v -0.72 0 -8.64 1 1 1 1
v -0.72 0 -8.56 1 1 1 1
v 0.04 1.92 -8.64 1 1 1 1
v 0.04 1.92 -8.56 1 1 1 1
v 0.04 0 -8.64 1 1 1 1
v 0.04 0 -8.56 1 1 1 1
v -0.44 1.92 -8.64 1 1 1 1
v -0.44 1.92 -8.56 1 1 1 1
v 0.04 1.92 -8.64 1 1 1 1
v 0.04 1.92 -8.56 1 1 1 1
v 0.04 0 -8.64 1 1 1 1
v 0.04 0 -8.56 1 1 1 1
v -0.44 0 -8.64 1 1 1 1
v -0.44 0 -8.56 1 1 1 1
v -1.28 0 -10.88 1 1 1 1
v -1.28 1.92 -11.200000000000001 1 1 1 1
v -1.28 1.92 -10.88 1 1 1 1
v -1.28 0 -11.200000000000001 1 1 1 1
v -1.28 0 -10.56 1 1 1 1
v -1.28 1.92 -10.88 1 1 1 1
v -1.28 1.92 -10.56 1 1 1 1
v -1.28 0 -10.88 1 1 1 1
v -0.96 0 -11.200000000000001 1 1 1 1
v -0.64 1.92 -11.200000000000001 1 1 1 1
v -0.96 1.92 -11.200000000000001 1 1 1 1
v -0.64 0 -11.200000000000001 1 1 1 1
v -1.28 0 -8.96 1 1 1 1
v -1.28 1.92 -9.28 1 1 1 1
v -1.28 1.92 -8.96 1 1 1 1
v -1.28 0 -9.28 1 1 1 1
v -1.28 0 -8.64 1 1 1 1
v -1.28 1.92 -8.96 1 1 1 1
v -1.28 1.92 -8.64 1 1 1 1
v -1.28 0 -8.96 1 1 1 1
v -1.28 0 -11.200000000000001 1 1 1 1
v -0.96 1.92 -11.200000000000001 1 1 1 1
v -1.28 1.92 -11.200000000000001 1 1 1 1
v -0.96 0 -11.200000000000001 1 1 1 1
v -1.28 0 -10.24 1 1 1 1
v -1.28 1.92 -10.56 1 1 1 1
v -1.28 1.92 -10.24 1 1 1 1
v -1.28 0 -10.56 1 1 1 1
v 2.56 0 -9.6 1 1 1 1
v 2.56 1.92 -9.28 1 1 1 1
v 2.56 1.92 -9.6 1 1 1 1
v 2.56 0 -9.28 1 1 1 1
v 2.56 0 -9.92 1 1 1 1
v 2.56 1.92 -9.6 1 1 1 1
v 2.56 1.92 -9.92 1 1 1 1
v 2.56 0 -9.6 1 1 1 1
v 2.56 0 -9.28 1 1 1 1
v 2.56 1.92 -8.96 1 1 1 1
v 2.56 1.92 -9.28 1 1 1 1
v 2.56 0 -8.96 1 1 1 1
v -0.64 0 -11.200000000000001 1 1 1 1
v -0.32 1.92 -11.200000000000001 1 1 1 1
v -0.64 1.92 -11.200000000000001 1 1 1 1
v -0.32 0 -11.200000000000001 1 1 1 1
v -1.28 0 -9.92 1 1 1 1
v -1.28 1.92 -10.24 1 1 1 1
v -1.28 1.92 -9.92 1 1 1 1
v -1.28 0 -10.24 1 1 1 1
v 2.56 0 -10.56 1 1 1 1
v 2.56 1.92 -10.24 1 1 1 1
v 2.56 1.92 -10.56 1 1 1 1
v 2.56 0 -10.24 1 1 1 1
v -0.32 0 -11.200000000000001 1 1 1 1
v 0 1.92 -11.200000000000001 1 1 1 1
v -0.32 1.92 -11.200000000000001 1 1 1 1
v 0 0 -11.200000000000001 1 1 1 1
v 2.56 0 -10.24 1 1 1 1
v 2.56 1.92 -9.92 1 1 1 1
v 2.56 1.92 -10.24 1 1 1 1
v 2.56 0 -9.92 1 1 1 1
v -1.28 0 -9.28 1 1 1 1
v -1.28 1.92 -9.6 1 1 1 1
v -1.28 1.92 -9.28 1 1 1 1
v -1.28 0 -9.6 1 1 1 1
v -1.28 0 -9.6 1 1 1 1
v -1.28 1.92 -9.92 1 1 1 1
v -1.28 1.92 -9.6 1 1 1 1
v -1.28 0 -9.92 1 1 1 1
v 2.56 0 -8.96 1 1 1 1
v 2.56 1.92 -8.64 1 1 1 1
v 2.56 1.92 -8.96 1 1 1 1
v 2.56 0 -8.64 1 1 1 1
v 2.56 0 -10.88 1 1 1 1
v 2.56 1.92 -10.56 1 1 1 1
v 2.56 1.92 -10.88 1 1 1 1
v 2.56 0 -10.56 1 1 1 1
v 2.56 0 -11.200000000000001 1 1 1 1
v 2.56 1.92 -10.88 1 1 1 1
v 2.56 1.92 -11.200000000000001 1 1 1 1
v 2.56 0 -10.88 1 1 1 1
v 0 0 -8.64 1 1 1 1
v 1.28 0 -9.92 1 1 1 1
v 0 0 -9.92 1 1 1 1
v 1.28 0 -8.64 1 1 1 1
v 1.28 0 -8.64 1 1 1 1
v 2.56 0 -11.200000000000001 1 1 1 1
v 1.28 0 -11.200000000000001 1 1 1 1
v 2.56 0 -8.64 1 1 1 1
v -1.28 1.92 -9.92 1 1 1 1
v 0 1.92 -8.64 1 1 1 1
v -1.28 1.92 -8.64 1 1 1 1
v 0 1.92 -9.92 1 1 1 1
v 1.28 1.92 -9.92 1 1 1 1
v 2.56 1.92 -8.64 1 1 1 1
v 1.28 1.92 -8.64 1 1 1 1
v 2.56 1.92 -9.92 1 1 1 1
v 0 1.92 -11.200000000000001 1 1 1 1
v 1.28 1.92 -9.92 1 1 1 1
v 0 1.92 -9.92 1 1 1 1
v 1.28 1.92 -11.200000000000001 1 1 1 1
v 0 1.92 -9.92 1 1 1 1
v 1.28 1.92 -8.64 1 1 1 1
v 0 1.92 -8.64 1 1 1 1
v 1.28 1.92 -9.92 1 1 1 1
v -1.28 1.92 -11.200000000000001 1 1 1 1
v 0 1.92 -9.92 1 1 1 1
v -1.28 1.92 -9.92 1 1 1 1
v 0 1.92 -11.200000000000001 1 1 1 1
v 1.28 1.92 -11.200000000000001 1 1 1 1
v 2.56 1.92 -9.92 1 1 1 1
v 1.28 1.92 -9.92 1 1 1 1
v 2.56 1.92 -11.200000000000001 1 1 1 1
v 0 0 -9.92 1 1 1 1
v 1.28 0 -11.200000000000001 1 1 1 1
v 0 0 -11.200000000000001 1 1 1 1
v 1.28 0 -9.92 1 1 1 1
v -1.28 0 -8.64 1 1 1 1
v 0 0 -9.92 1 1 1 1
v -1.28 0 -9.92 1 1 1 1
v 0 0 -8.64 1 1 1 1
v -1.28 0 -9.92 1 1 1 1
v 0 0 -11.200000000000001 1 1 1 1
v -1.28 0 -11.200000000000001 1 1 1 1
v 0 0 -9.92 1 1 1 1
v 0.96 0 -11.200000000000001 1 1 1 1
v 1.28 1.92 -11.200000000000001 1 1 1 1
v 0.96 1.92 -11.200000000000001 1 1 1 1
v 1.28 0 -11.200000000000001 1 1 1 1
v 0.32 0 -11.200000000000001 1 1 1 1
v 0.64 1.92 -11.200000000000001 1 1 1 1
v 0.32 1.92 -11.200000000000001 1 1 1 1
v 0.64 0 -11.200000000000001 1 1 1 1
v 0 0 -11.200000000000001 1 1 1 1
v 0.32 1.92 -11.200000000000001 1 1 1 1
v 0 1.92 -11.200000000000001 1 1 1 1
v 0.32 0 -11.200000000000001 1 1 1 1
v 0.64 0 -11.200000000000001 1 1 1 1
v 0.96 1.92 -11.200000000000001 1 1 1 1
v 0.64 1.92 -11.200000000000001 1 1 1 1
v 0.96 0 -11.200000000000001 1 1 1 1
v 2.24 0 -11.200000000000001 1 1 1 1
v 2.56 1.92 -11.200000000000001 1 1 1 1
v 2.24 1.92 -11.200000000000001 1 1 1 1
v 2.56 0 -11.200000000000001 1 1 1 1
v 1.92 0 -11.200000000000001 1 1 1 1
v 2.24 1.92 -11.200000000000001 1 1 1 1
v 1.92 1.92 -11.200000000000001 1 1 1 1
v 2.24 0 -11.200000000000001 1 1 1 1
v -0.68 0 -11.200000000000001 1 1 1 1
v -0.36 1.92 -11.200000000000001 1 1 1 1
v -0.68 1.92 -11.200000000000001 1 1 1 1
v -0.36 0 -11.200000000000001 1 1 1 1
v -0.36 0 -11.200000000000001 1 1 1 1
v -0.04 1.92 -11.200000000000001 1 1 1 1
v -0.36 1.92 -11.200000000000001 1 1 1 1
v -0.04 0 -11.200000000000001 1 1 1 1
v 1.28 0 -11.200000000000001 1 1 1 1
v 1.6 1.92 -11.200000000000001 1 1 1 1
v 1.28 1.92 -11.200000000000001 1 1 1 1
v 1.6 0 -11.200000000000001 1 1 1 1
v 1.6 0 -11.200000000000001 1 1 1 1
v 1.92 1.92 -11.200000000000001 1 1 1 1
v 1.6 1.92 -11.200000000000001 1 1 1 1
v 1.92 0 -11.200000000000001 1 1 1 1
vt 0 0.875
vt 0.5 1
vt 0 1
vt 0.5 0.875
vt 0.5 0.125
vt 0.625 0.875
vt 0.625 0.125
vt 0.5625 0.125
vt 0.6875 0.875
vt 0.5625 0.875
vt 0.6875 0.125
vt 0.75 0.875
vt 0.75 0.125
vt 0.5 0.625
vt 0.625 0.625
vt 0.5625 0.625
vt 0.6875 0.625
vt 0.75 0.625
vt 0.75 0.203125
vt 0.734375 0.21875
vt 0.734375 0.203125
vt 0.75 0.21875
vt 0.59375 0.125
vt 0.703125 0.875
vt 0.59375 0.875
vt 0.703125 0.125
vt 0 0.5
vt 0.5 0.5
vt 0 0
vt 0.5 0
vn 0 -1 0
vn 1 0 0
vn -1 0 0
vn 0 1 0
vn 0 0 -1
vn 0 0 1
g Scene
usemtl HouseTileset
f 1/1/1 3/2/1 2/3/1
f 1/1/1 4/4/1 3/2/1
f 5/5/2 6/6/2 7/4/2
f 5/5/2 8/7/2 6/6/2
f 9/5/2 10/6/2 11/4/2
f 9/5/2 12/7/2 10/6/2
f 13/5/2 14/6/2 15/4/2
f 13/5/2 16/7/2 14/6/2
f 17/1/1 18/2/1 19/3/1
f 17/1/1 20/4/1 18/2/1
f 21/1/1 22/2/1 23/3/1
f 21/1/1 24/4/1 22/2/1
f 25/1/1 26/2/1 27/3/1
f 25/1/1 28/4/1 26/2/1
f 29/1/1 30/2/1 31/3/1
f 29/1/1 32/4/1 30/2/1
f 33/8/3 34/9/3 35/10/3
f 33/8/3 36/11/3 34/9/3
f 37/7/2 38/12/2 39/6/2
f 37/7/2 40/13/2 38/12/2
f 41/7/2 42/12/2 43/6/2
f 41/7/2 44/13/2 42/12/2
f 45/1/4 46/2/4 47/3/4
f 45/1/4 48/4/4 46/2/4
f 49/1/1 50/2/1 51/3/1
f 49/1/1 52/4/1 50/2/1
f 53/1/1 54/2/1 55/3/1
f 53/1/1 56/4/1 54/2/1
f 57/1/1 58/2/1 59/3/1
f 57/1/1 60/4/1 58/2/1
f 61/1/1 62/2/1 63/3/1
f 61/1/1 64/4/1 62/2/1
f 65/1/1 66/2/1 67/3/1
f 65/1/1 68/4/1 66/2/1
f 69/1/1 70/2/1 71/3/1
f 69/1/1 72/4/1 70/2/1
f 73/1/1 74/2/1 75/3/1
f 73/1/1 76/4/1 74/2/1
f 77/1/1 78/2/1 79/3/1
f 77/1/1 80/4/1 78/2/1
f 81/1/4 82/2/4 83/3/4
f 81/1/4 84/4/4 82/2/4
f 85/7/2 86/12/2 87/6/2
f 85/7/2 88/13/2 86/12/2
f 89/1/4 90/2/4 91/3/4
f 89/1/4 92/4/4 90/2/4
f 93/1/4 94/2/4 95/3/4
f 93/1/4 96/4/4 94/2/4
f 97/1/4 98/2/4 99/3/4
f 97/1/4 100/4/4 98/2/4
f 101/1/4 102/2/4 103/3/4
f 101/1/4 104/4/4 102/2/4
f 105/1/1 106/2/1 107/3/1
f 105/1/1 108/4/1 106/2/1
f 109/5/3 110/6/3 111/4/3
f 109/5/3 112/7/3 110/6/3
f 113/1/1 114/2/1 115/3/1
f 113/1/1 116/4/1 114/2/1
f 117/1/4 118/2/4 119/3/4
f 117/1/4 120/4/4 118/2/4
f 121/1/1 122/2/1 123/3/1
f 121/1/1 124/4/1 122/2/1
f 125/8/3 126/9/3 127/10/3
f 125/8/3 128/11/3 126/9/3
f 129/8/3 130/9/3 131/10/3
f 129/8/3 132/11/3 130/9/3
f 133/8/3 134/9/3 135/10/3
f 133/8/3 136/11/3 134/9/3
f 137/1/1 138/2/1 139/3/1
f 137/1/1 140/4/1 138/2/1
f 141/8/2 142/9/2 143/10/2
f 141/8/2 144/11/2 142/9/2
f 145/1/1 146/2/1 147/3/1
f 145/1/1 148/4/1 146/2/1
f 149/1/1 150/2/1 151/3/1
f 149/1/1 152/4/1 150/2/1
f 153/1/1 154/2/1 155/3/1
f 153/1/1 156/4/1 154/2/1
f 157/14/5 158/6/5 159/4/5
f 157/14/5 160/15/5 158/6/5
f 161/16/5 162/9/5 163/10/5
f 161/16/5 164/17/5 162/9/5
f 165/8/2 166/9/2 167/10/2
f 165/8/2 168/11/2 166/9/2
f 169/8/2 170/9/2 171/10/2
f 169/8/2 172/11/2 170/9/2
f 173/1/1 174/2/1 175/3/1
f 173/1/1 176/4/1 174/2/1
f 177/8/2 178/9/2 179/10/2
f 177/8/2 180/11/2 178/9/2
f 181/8/2 182/9/2 183/10/2
f 181/8/2 184/11/2 182/9/2
f 185/8/2 186/9/2 187/10/2
f 185/8/2 188/11/2 186/9/2
f 189/1/1 190/2/1 191/3/1
f 189/1/1 192/4/1 190/2/1
f 193/1/4 194/2/4 195/3/4
f 193/1/4 196/4/4 194/2/4
f 197/1/1 198/2/1 199/3/1
f 197/1/1 200/4/1 198/2/1
f 201/1/4 202/2/4 203/3/4
f 201/1/4 204/4/4 202/2/4
f 205/1/4 206/2/4 207/3/4
f 205/1/4 208/4/4 206/2/4
f 209/1/4 210/2/4 211/3/4
f 209/1/4 212/4/4 210/2/4
f 213/1/4 214/2/4 215/3/4
f 213/1/4 216/4/4 214/2/4
f 217/1/1 218/2/1 219/3/1
f 217/1/1 220/4/1 218/2/1
f 221/7/3 222/12/3 223/6/3
f 221/7/3 224/13/3 222/12/3
f 225/1/4 226/2/4 227/3/4
f 225/1/4 228/4/4 226/2/4
f 229/7/3 230/12/3 231/6/3
f 229/7/3 232/13/3 230/12/3
f 233/1/1 234/2/1 235/3/1
f 233/1/1 236/4/1 234/2/1
f 237/1/1 238/2/1 239/3/1
f 237/1/1 240/4/1 238/2/1
f 241/1/4 242/2/4 243/3/4
f 241/1/4 244/4/4 242/2/4
f 245/1/4 246/2/4 247/3/4
f 245/1/4 248/4/4 246/2/4
f 249/1/4 250/2/4 251/3/4
f 249/1/4 252/4/4 250/2/4
f 253/8/3 254/9/3 255/10/3
f 253/8/3 256/11/3 254/9/3
f 257/8/3 258/9/3 259/10/3
f 257/8/3 260/11/3 258/9/3
f 261/7/3 262/12/3 263/6/3
f 261/7/3 264/13/3 262/12/3
f 265/1/4 266/2/4 267/3/4
f 265/1/4 268/4/4 266/2/4
f 269/1/4 270/2/4 271/3/4
f 269/1/4 272/4/4 270/2/4
f 273/1/1 274/2/1 275/3/1
f 273/1/1 276/4/1 274/2/1
f 277/1/1 278/2/1 279/3/1
f 277/1/1 280/4/1 278/2/1
f 281/1/1 282/2/1 283/3/1
f 281/1/1 284/4/1 282/2/1
f 285/1/4 286/2/4 287/3/4
f 285/1/4 288/4/4 286/2/4
f 289/16/5 290/9/5 291/10/5
f 289/16/5 292/17/5 290/9/5
f 293/15/5 294/12/5 295/6/5
f 293/15/5 296/18/5 294/12/5
f 297/1/4 298/2/4 299/3/4
f 297/1/4 300/4/4 298/2/4
f 301/1/4 302/2/4 303/3/4
f 301/1/4 304/4/4 302/2/4
f 305/1/4 306/2/4 307/3/4
f 305/1/4 308/4/4 306/2/4
f 309/1/1 310/2/1 311/3/1
f 309/1/1 312/4/1 310/2/1
f 313/1/4 314/2/4 315/3/4
f 313/1/4 316/4/4 314/2/4
f 317/1/1 318/2/1 319/3/1
f 317/1/1 320/4/1 318/2/1
f 321/1/1 322/2/1 323/3/1
f 321/1/1 324/4/1 322/2/1
f 325/1/1 326/2/1 327/3/1
f 325/1/1 328/4/1 326/2/1
f 329/1/1 330/2/1 331/3/1
f 329/1/1 332/4/1 330/2/1
f 333/1/1 334/2/1 335/3/1
f 333/1/1 336/4/1 334/2/1
f 337/5/3 338/6/3 339/4/3
f 337/5/3 340/7/3 338/6/3
f 341/1/4 342/2/4 343/3/4
f 341/1/4 344/4/4 342/2/4
f 345/1/4 346/2/4 347/3/4
f 345/1/4 348/4/4 346/2/4
f 349/1/4 350/2/4 351/3/4
f 349/1/4 352/4/4 350/2/4
f 353/1/1 354/2/1 355/3/1
f 353/1/1 356/4/1 354/2/1
f 357/1/4 358/2/4 359/3/4
f 357/1/4 360/4/4 358/2/4
f 361/1/4 362/2/4 363/3/4
f 361/1/4 364/4/4 362/2/4
f 365/1/4 366/2/4 367/3/4
f 365/1/4 368/4/4 366/2/4
f 369/1/4 370/2/4 371/3/4
f 369/1/4 372/4/4 370/2/4
f 373/1/4 374/2/4 375/3/4
f 373/1/4 376/4/4 374/2/4
f 377/1/4 378/2/4 379/3/4
f 377/1/4 380/4/4 378/2/4
f 381/1/4 382/2/4 383/3/4
f 381/1/4 384/4/4 382/2/4
f 385/1/4 386/2/4 387/3/4
f 385/1/4 388/4/4 386/2/4
f 389/1/4 390/2/4 391/3/4
f 389/1/4 392/4/4 390/2/4
f 393/1/4 394/2/4 395/3/4
f 393/1/4 396/4/4 394/2/4
f 397/5/3 398/6/3 399/4/3
f 397/5/3 400/7/3 398/6/3
f 401/15/5 402/12/5 403/6/5
f 401/15/5 404/18/5 402/12/5
f 405/16/5 406/9/5 407/10/5
f 405/16/5 408/17/5 406/9/5
f 409/16/5 410/9/5 411/10/5
f 409/16/5 412/17/5 410/9/5
f 413/14/5 414/6/5 415/4/5
f 413/14/5 416/15/5 414/6/5
f 417/8/5 418/17/5 419/16/5
f 417/8/5 420/11/5 418/17/5
f 421/8/5 422/17/5 423/16/5
f 421/8/5 424/11/5 422/17/5
f 425/5/5 426/15/5 427/14/5
f 425/5/5 428/7/5 426/15/5
f 429/7/5 430/18/5 431/15/5
f 429/7/5 432/13/5 430/18/5
f 433/15/5 434/12/5 435/6/5
f 433/15/5 436/18/5 434/12/5
f 437/16/5 438/9/5 439/10/5
f 437/16/5 440/17/5 438/9/5
f 441/16/5 442/9/5 443/10/5
f 441/16/5 444/17/5 442/9/5
f 445/14/5 446/6/5 447/4/5
f 445/14/5 448/15/5 446/6/5
f 449/8/5 450/17/5 451/16/5
f 449/8/5 452/11/5 450/17/5
f 453/8/5 454/17/5 455/16/5
f 453/8/5 456/11/5 454/17/5
f 457/5/5 458/15/5 459/14/5
f 457/5/5 460/7/5 458/15/5
f 461/7/5 462/18/5 463/15/5
f 461/7/5 464/13/5 462/18/5
usemtl 0
f 465/19/1 466/20/1 467/21/1
f 465/19/1 468/22/1 466/20/1
f 469/19/4 470/20/4 471/21/4
f 469/19/4 472/22/4 470/20/4
f 473/19/3 474/20/3 475/21/3
f 473/19/3 476/22/3 474/20/3
f 477/19/1 478/20/1 479/21/1
f 477/19/1 480/22/1 478/20/1
f 481/19/4 482/20/4 483/21/4
f 481/19/4 484/22/4 482/20/4
f 485/19/1 486/20/1 487/21/1
f 485/19/1 488/22/1 486/20/1
f 489/19/2 490/20/2 491/21/2
f 489/19/2 492/22/2 490/20/2
f 493/19/4 494/20/4 495/21/4
f 493/19/4 496/22/4 494/20/4
f 497/19/1 498/20/1 499/21/1
f 497/19/1 500/22/1 498/20/1
f 501/19/4 502/20/4 503/21/4
f 501/19/4 504/22/4 502/20/4
f 505/5/6 506/9/6 507/4/6
f 505/5/6 508/11/6 506/9/6
f 509/23/6 510/24/6 511/25/6
f 509/23/6 512/26/6 510/24/6
f 513/23/6 514/24/6 515/25/6
f 513/23/6 516/26/6 514/24/6
f 517/23/6 518/24/6 519/25/6
f 517/23/6 520/26/6 518/24/6
f 521/4/5 522/9/5 523/5/5
f 522/9/5 524/11/5 523/5/5
f 525/25/5 526/24/5 527/23/5
f 526/24/5 528/26/5 527/23/5
f 529/25/5 530/24/5 531/23/5
f 530/24/5 532/26/5 531/23/5
f 533/25/5 534/24/5 535/23/5
f 534/24/5 536/26/5 535/23/5
f 537/23/5 538/24/5 539/25/5
f 537/23/5 540/26/5 538/24/5
f 541/23/5 542/24/5 543/25/5
f 541/23/5 544/26/5 542/24/5
f 545/23/5 546/24/5 547/25/5
f 545/23/5 548/26/5 546/24/5
f 549/5/5 550/9/5 551/4/5
f 549/5/5 552/11/5 550/9/5
f 553/25/6 554/24/6 555/23/6
f 554/24/6 556/26/6 555/23/6
f 557/25/6 558/24/6 559/23/6
f 558/24/6 560/26/6 559/23/6
f 561/25/6 562/24/6 563/23/6
f 562/24/6 564/26/6 563/23/6
f 565/4/6 566/9/6 567/5/6
f 566/9/6 568/11/6 567/5/6
f 569/21/4 570/20/4 571/19/4
f 570/20/4 572/22/4 571/19/4
f 573/21/1 574/20/1 575/19/1
f 574/20/1 576/22/1 575/19/1
f 577/21/4 578/20/4 579/19/4
f 578/20/4 580/22/4 579/19/4
f 581/21/3 582/20/3 583/19/3
f 582/20/3 584/22/3 583/19/3
f 585/21/1 586/20/1 587/19/1
f 586/20/1 588/22/1 587/19/1
f 589/21/4 590/20/4 591/19/4
f 590/20/4 592/22/4 591/19/4
f 593/21/1 594/20/1 595/19/1
f 594/20/1 596/22/1 595/19/1
f 597/21/2 598/20/2 599/19/2
f 598/20/2 600/22/2 599/19/2
f 601/21/4 602/20/4 603/19/4
f 602/20/4 604/22/4 603/19/4
f 605/21/1 606/20/1 607/19/1
f 606/20/1 608/22/1 607/19/1
f 609/7/2 610/12/2 611/6/2
f 609/7/2 612/13/2 610/12/2
f 613/8/2 614/9/2 615/10/2
f 613/8/2 616/11/2 614/9/2
f 617/8/6 618/9/6 619/10/6
f 617/8/6 620/11/6 618/9/6
f 621/8/2 622/9/2 623/10/2
f 621/8/2 624/11/2 622/9/2
f 625/5/2 626/6/2 627/4/2
f 625/5/2 628/7/2 626/6/2
f 629/5/6 630/6/6 631/4/6
f 629/5/6 632/7/6 630/6/6
f 633/8/2 634/9/2 635/10/2
f 633/8/2 636/11/2 634/9/2
f 637/8/3 638/9/3 639/10/3
f 637/8/3 640/11/3 638/9/3
f 641/5/3 642/6/3 643/4/3
f 641/5/3 644/7/3 642/6/3
f 645/8/3 646/9/3 647/10/3
f 645/8/3 648/11/3 646/9/3
f 649/8/6 650/9/6 651/10/6
f 649/8/6 652/11/6 650/9/6
f 653/5/2 654/6/2 655/4/2
f 653/5/2 656/7/2 654/6/2
f 657/8/3 658/9/3 659/10/3
f 657/8/3 660/11/3 658/9/3
f 661/7/6 662/12/6 663/6/6
f 661/7/6 664/13/6 662/12/6
f 665/7/3 666/12/3 667/6/3
f 665/7/3 668/13/3 666/12/3
f 669/8/2 670/9/2 671/10/2
f 669/8/2 672/11/2 670/9/2
f 673/7/2 674/12/2 675/6/2
f 673/7/2 676/13/2 674/12/2
f 677/7/3 678/12/3 679/6/3
f 677/7/3 680/13/3 678/12/3
f 681/8/3 682/9/3 683/10/3
f 681/8/3 684/11/3 682/9/3
f 685/5/3 686/6/3 687/4/3
f 685/5/3 688/7/3 686/6/3
f 689/27/4 690/2/4 691/3/4
f 689/27/4 692/28/4 690/2/4
f 693/29/4 694/2/4 695/3/4
f 693/29/4 696/30/4 694/2/4
f 697/27/1 698/2/1 699/3/1
f 697/27/1 700/28/1 698/2/1
f 701/27/1 702/2/1 703/3/1
f 701/27/1 704/28/1 702/2/1
f 705/27/1 706/2/1 707/3/1
f 705/27/1 708/28/1 706/2/1
f 709/29/1 710/28/1 711/27/1
f 709/29/1 712/30/1 710/28/1
f 713/29/1 714/28/1 715/27/1
f 713/29/1 716/30/1 714/28/1
f 717/29/1 718/28/1 719/27/1
f 717/29/1 720/30/1 718/28/1
f 721/29/4 722/28/4 723/27/4
f 721/29/4 724/30/4 722/28/4
f 725/29/4 726/28/4 727/27/4
f 725/29/4 728/30/4 726/28/4
f 729/27/4 730/2/4 731/3/4
f 729/27/4 732/28/4 730/2/4
f 733/7/6 734/12/6 735/6/6
f 733/7/6 736/13/6 734/12/6
f 737/8/6 738/9/6 739/10/6
f 737/8/6 740/11/6 738/9/6
f 741/5/6 742/6/6 743/4/6
f 741/5/6 744/7/6 742/6/6
f 745/8/6 746/9/6 747/10/6
f 745/8/6 748/11/6 746/9/6
f 749/7/6 750/12/6 751/6/6
f 749/7/6 752/13/6 750/12/6
f 753/8/6 754/9/6 755/10/6
f 753/8/6 756/11/6 754/9/6
f 757/5/6 758/6/6 759/4/6
f 757/5/6 760/7/6 758/6/6
f 761/8/6 762/9/6 763/10/6
f 761/8/6 764/11/6 762/9/6
f 765/5/6 766/6/6 767/4/6
f 765/5/6 768/7/6 766/6/6
f 769/8/6 770/9/6 771/10/6
f 769/8/6 772/11/6 770/9/6
