mtllib wall_shelves.mtl
o Default
v 0 -0.16 0 1 1 1 1
v 0 0 0 1 1 1 1
v 0.64 0 0 1 1 1 1
v 0.64 -0.16 0 1 1 1 1
v 0.64 -0.16 0 1 1 1 1
v 1.28 0 0 1 1 1 1
v 0.64 0 0 1 1 1 1
v 1.28 -0.16 0 1 1 1 1
v 1.28 -0.16 0 1 1 1 1
v 1.92 0 0 1 1 1 1
v 1.28 0 0 1 1 1 1
v 1.92 -0.16 0 1 1 1 1
v 0 0 0 1 1 1 1
v 1.92 0 -0.32 1 1 1 1
v 0 0 -0.32 1 1 1 1
v 1.92 0 0 1 1 1 1
v 1.61 1.32 -0.07 1 1 1 1
v 1.6300000000000001 1.32 -0.05 1 1 1 1
v 1.6300000000000001 1.32 -0.07 1 1 1 1
v 1.61 1.32 -0.05 1 1 1 1
v 1.92 1.76 0 1 1 1 1
v 1.96 1.76 -0.32 1 1 1 1
v 1.92 1.76 -0.32 1 1 1 1
v 1.96 1.76 0 1 1 1 1
v 1.96 -0.16 0 1 1 1 1
v 1.92 1.76 0 1 1 1 1
v 1.92 -0.16 0 1 1 1 1
v 1.96 1.76 0 1 1 1 1
v 1.96 1.76 0 1 1 1 1
v 1.96 -0.16 -0.32 1 1 1 1
v 1.96 1.76 -0.32 1 1 1 1
v 1.96 -0.16 0 1 1 1 1
v 1.92 -0.16 0 1 1 1 1
v 1.92 1.76 -0.32 1 1 1 1
v 1.92 -0.16 -0.32 1 1 1 1
v 1.92 1.76 0 1 1 1 1
v -0.04 1.76 0 1 1 1 1
v 0 1.76 -0.32 1 1 1 1
v -0.04 1.76 -0.32 1 1 1 1
v 0 1.76 0 1 1 1 1
v 0 -0.16 0 1 1 1 1
v -0.04 1.76 0 1 1 1 1
v -0.04 -0.16 0 1 1 1 1
v 0 1.76 0 1 1 1 1
v 0 1.76 0 1 1 1 1
v 0 -0.16 -0.32 1 1 1 1
v 0 1.76 -0.32 1 1 1 1
v 0 -0.16 0 1 1 1 1
v -0.04 -0.16 0 1 1 1 1
v -0.04 1.76 -0.32 1 1 1 1
v -0.04 -0.16 -0.32 1 1 1 1
v -0.04 1.76 0 1 1 1 1
v 0 1.76 0 1 1 1 1
v 1.92 1.76 -0.32 1 1 1 1
v 0 1.76 -0.32 1 1 1 1
v 1.92 1.76 0 1 1 1 1
v 1.92 1.72 0 1 1 1 1
v 0 1.72 -0.32 1 1 1 1
v 1.92 1.72 -0.32 1 1 1 1
v 0 1.72 0 1 1 1 1
v 0 1.72 0 1 1 1 1
v 1.92 1.76 0 1 1 1 1
v 0 1.76 0 1 1 1 1
v 1.92 1.72 0 1 1 1 1
v 0.36 0.8200000000000001 0 1 1 1 1
v 1.28 0.8200000000000001 -0.32 1 1 1 1
v 0.36 0.8200000000000001 -0.32 1 1 1 1
v 1.28 0.8200000000000001 0 1 1 1 1
v 0.36 0.78 0 1 1 1 1
v 1.28 0.8200000000000001 0 1 1 1 1
v 0.36 0.8200000000000001 0 1 1 1 1
v 1.28 0.78 0 1 1 1 1
v 1.28 0.78 0 1 1 1 1
v 1.28 0.8200000000000001 -0.32 1 1 1 1
v 1.28 0.8200000000000001 0 1 1 1 1
v 1.28 0.78 -0.32 1 1 1 1
v 0.36 0.78 -0.32 1 1 1 1
v 0.36 0.8200000000000001 0 1 1 1 1
v 0.36 0.8200000000000001 -0.32 1 1 1 1
v 0.36 0.78 0 1 1 1 1
v 0.36 0.78 -0.31 1 1 1 1
v 1.28 0.78 0.01 1 1 1 1
v 0.36 0.78 0.01 1 1 1 1
v 1.28 0.78 -0.31 1 1 1 1
v 0 1.02 0 1 1 1 1
v 0.64 1.02 -0.32 1 1 1 1
v 0 1.02 -0.32 1 1 1 1
v 0.64 1.02 0 1 1 1 1
v 0 0.98 -0.32 1 1 1 1
v 0 1.02 0 1 1 1 1
v 0 1.02 -0.32 1 1 1 1
v 0 0.98 0 1 1 1 1
v 0.64 0.98 0 1 1 1 1
v 0.64 1.02 -0.32 1 1 1 1
v 0.64 1.02 0 1 1 1 1
v 0.64 0.98 -0.32 1 1 1 1
v 0 0.98 0 1 1 1 1
v 0.64 1.02 0 1 1 1 1
v 0 1.02 0 1 1 1 1
v 0.64 0.98 0 1 1 1 1
v 0 0.98 -0.32 1 1 1 1
v 0.64 0.98 0 1 1 1 1
v 0 0.98 0 1 1 1 1
v 0.64 0.98 -0.32 1 1 1 1
v 0.32 0.54 0 1 1 1 1
v 0.96 0.54 -0.32 1 1 1 1
v 0.32 0.54 -0.32 1 1 1 1
v 0.96 0.54 0 1 1 1 1
v 0.32 0.5 -0.32 1 1 1 1
v 0.32 0.54 0 1 1 1 1
v 0.32 0.54 -0.32 1 1 1 1
v 0.32 0.5 0 1 1 1 1
v 0.96 0.5 0 1 1 1 1
v 0.96 0.54 -0.32 1 1 1 1
v 0.96 0.54 0 1 1 1 1
v 0.96 0.5 -0.32 1 1 1 1
v 0.32 0.5 0 1 1 1 1
v 0.96 0.54 0 1 1 1 1
v 0.32 0.54 0 1 1 1 1
v 0.96 0.5 0 1 1 1 1
v 0.32 0.5 -0.32 1 1 1 1
v 0.96 0.5 0 1 1 1 1
v 0.32 0.5 0 1 1 1 1
v 0.96 0.5 -0.32 1 1 1 1
v 1.28 1.36 0 1 1 1 1
v 1.92 1.36 -0.32 1 1 1 1
v 1.28 1.36 -0.32 1 1 1 1
v 1.92 1.36 0 1 1 1 1
v 1.28 1.32 -0.32 1 1 1 1
v 1.28 1.36 0 1 1 1 1
v 1.28 1.36 -0.32 1 1 1 1
v 1.28 1.32 0 1 1 1 1
v 1.92 1.32 0 1 1 1 1
v 1.92 1.36 -0.32 1 1 1 1
v 1.92 1.36 0 1 1 1 1
v 1.92 1.32 -0.32 1 1 1 1
v 1.28 1.32 0 1 1 1 1
v 1.92 1.36 0 1 1 1 1
v 1.28 1.36 0 1 1 1 1
v 1.92 1.32 0 1 1 1 1
v 1.28 1.32 -0.32 1 1 1 1
v 1.92 1.32 0 1 1 1 1
v 1.28 1.32 0 1 1 1 1
v 1.92 1.32 -0.32 1 1 1 1
v 0.88 1.16 0 1 1 1 1
v 1.52 1.16 -0.32 1 1 1 1
v 0.88 1.16 -0.32 1 1 1 1
v 1.52 1.16 0 1 1 1 1
v 0.88 1.12 -0.32 1 1 1 1
v 0.88 1.16 0 1 1 1 1
v 0.88 1.16 -0.32 1 1 1 1
v 0.88 1.12 0 1 1 1 1
v 1.52 1.12 0 1 1 1 1
v 1.52 1.16 -0.32 1 1 1 1
v 1.52 1.16 0 1 1 1 1
v 1.52 1.12 -0.32 1 1 1 1
v 0.88 1.12 0 1 1 1 1
v 1.52 1.16 0 1 1 1 1
v 0.88 1.16 0 1 1 1 1
v 1.52 1.12 0 1 1 1 1
v 0.88 1.12 -0.32 1 1 1 1
v 1.52 1.12 0 1 1 1 1
v 0.88 1.12 0 1 1 1 1
v 1.52 1.12 -0.32 1 1 1 1
v 1.92 0.16 0 1 1 1 1
v 1.92 0.16 0 1 1 1 1
v 0.8 0.16 -0.32 1 1 1 1
v 1.92 0.16 -0.32 1 1 1 1
v 0.8 0 -0.32 1 1 1 1
v 1.92 0.16 0 1 1 1 1
v 0.8 0.16 -0.32 1 1 1 1
v 1.92 0 0 1 1 1 1
v 1.33 1.7 -0.05 1 1 1 1
v 1.35 1.72 -0.05 1 1 1 1
v 1.33 1.72 -0.05 1 1 1 1
v 1.35 1.7 -0.05 1 1 1 1
v 1.33 1.68 -0.05 1 1 1 1
v 1.35 1.7 -0.05 1 1 1 1
v 1.33 1.7 -0.05 1 1 1 1
v 1.35 1.68 -0.05 1 1 1 1
v 1.33 1.6600000000000001 -0.05 1 1 1 1
v 1.35 1.68 -0.05 1 1 1 1
v 1.33 1.68 -0.05 1 1 1 1
v 1.35 1.6600000000000001 -0.05 1 1 1 1
v 1.33 1.6400000000000001 -0.05 1 1 1 1
v 1.35 1.6600000000000001 -0.05 1 1 1 1
v 1.33 1.6600000000000001 -0.05 1 1 1 1
v 1.35 1.6400000000000001 -0.05 1 1 1 1
v 1.33 1.62 -0.05 1 1 1 1
v 1.35 1.6400000000000001 -0.05 1 1 1 1
v 1.33 1.6400000000000001 -0.05 1 1 1 1
v 1.35 1.62 -0.05 1 1 1 1
v 1.33 1.6 -0.05 1 1 1 1
v 1.35 1.62 -0.05 1 1 1 1
v 1.33 1.62 -0.05 1 1 1 1
v 1.35 1.6 -0.05 1 1 1 1
v 1.33 1.58 -0.05 1 1 1 1
v 1.35 1.6 -0.05 1 1 1 1
v 1.33 1.6 -0.05 1 1 1 1
v 1.35 1.58 -0.05 1 1 1 1
v 1.33 1.56 -0.05 1 1 1 1
v 1.35 1.58 -0.05 1 1 1 1
v 1.33 1.58 -0.05 1 1 1 1
v 1.35 1.56 -0.05 1 1 1 1
v 1.33 1.54 -0.05 1 1 1 1
v 1.35 1.56 -0.05 1 1 1 1
v 1.33 1.56 -0.05 1 1 1 1
v 1.35 1.54 -0.05 1 1 1 1
v 1.33 1.52 -0.05 1 1 1 1
v 1.35 1.54 -0.05 1 1 1 1
v 1.33 1.54 -0.05 1 1 1 1
v 1.35 1.52 -0.05 1 1 1 1
v 1.33 1.5 -0.05 1 1 1 1
v 1.35 1.52 -0.05 1 1 1 1
v 1.33 1.52 -0.05 1 1 1 1
v 1.35 1.5 -0.05 1 1 1 1
v 1.33 1.48 -0.05 1 1 1 1
v 1.35 1.5 -0.05 1 1 1 1
v 1.33 1.5 -0.05 1 1 1 1
v 1.35 1.48 -0.05 1 1 1 1
v 1.33 1.46 -0.05 1 1 1 1
v 1.35 1.48 -0.05 1 1 1 1
v 1.33 1.48 -0.05 1 1 1 1
v 1.35 1.46 -0.05 1 1 1 1
v 1.33 1.44 -0.05 1 1 1 1
v 1.35 1.46 -0.05 1 1 1 1
v 1.33 1.46 -0.05 1 1 1 1
v 1.35 1.44 -0.05 1 1 1 1
v 1.33 1.42 -0.05 1 1 1 1
v 1.35 1.44 -0.05 1 1 1 1
v 1.33 1.44 -0.05 1 1 1 1
v 1.35 1.42 -0.05 1 1 1 1
v 1.33 1.4000000000000001 -0.05 1 1 1 1
v 1.35 1.42 -0.05 1 1 1 1
v 1.33 1.42 -0.05 1 1 1 1
v 1.35 1.4000000000000001 -0.05 1 1 1 1
v 1.33 1.3800000000000001 -0.05 1 1 1 1
v 1.35 1.4000000000000001 -0.05 1 1 1 1
v 1.33 1.4000000000000001 -0.05 1 1 1 1
v 1.35 1.3800000000000001 -0.05 1 1 1 1
v 1.33 1.36 -0.05 1 1 1 1
v 1.35 1.3800000000000001 -0.05 1 1 1 1
v 1.33 1.3800000000000001 -0.05 1 1 1 1
v 1.35 1.36 -0.05 1 1 1 1
v 1.33 1.36 -0.07 1 1 1 1
v 1.33 1.3800000000000001 -0.05 1 1 1 1
v 1.33 1.3800000000000001 -0.07 1 1 1 1
v 1.33 1.36 -0.05 1 1 1 1
v 1.35 1.3800000000000001 -0.07 1 1 1 1
v 1.35 1.36 -0.05 1 1 1 1
v 1.35 1.36 -0.07 1 1 1 1
v 1.35 1.3800000000000001 -0.05 1 1 1 1
v 1.33 1.3800000000000001 -0.07 1 1 1 1
v 1.33 1.4000000000000001 -0.05 1 1 1 1
v 1.33 1.4000000000000001 -0.07 1 1 1 1
v 1.33 1.3800000000000001 -0.05 1 1 1 1
v 1.35 1.4000000000000001 -0.07 1 1 1 1
v 1.35 1.3800000000000001 -0.05 1 1 1 1
v 1.35 1.3800000000000001 -0.07 1 1 1 1
v 1.35 1.4000000000000001 -0.05 1 1 1 1
v 1.33 1.4000000000000001 -0.07 1 1 1 1
v 1.33 1.42 -0.05 1 1 1 1
v 1.33 1.42 -0.07 1 1 1 1
v 1.33 1.4000000000000001 -0.05 1 1 1 1
v 1.35 1.42 -0.07 1 1 1 1
v 1.35 1.4000000000000001 -0.05 1 1 1 1
v 1.35 1.4000000000000001 -0.07 1 1 1 1
v 1.35 1.42 -0.05 1 1 1 1
v 1.33 1.42 -0.07 1 1 1 1
v 1.33 1.44 -0.05 1 1 1 1
v 1.33 1.44 -0.07 1 1 1 1
v 1.33 1.42 -0.05 1 1 1 1
v 1.35 1.44 -0.07 1 1 1 1
v 1.35 1.42 -0.05 1 1 1 1
v 1.35 1.42 -0.07 1 1 1 1
v 1.35 1.44 -0.05 1 1 1 1
v 1.33 1.44 -0.07 1 1 1 1
v 1.33 1.46 -0.05 1 1 1 1
v 1.33 1.46 -0.07 1 1 1 1
v 1.33 1.44 -0.05 1 1 1 1
v 1.35 1.46 -0.07 1 1 1 1
v 1.35 1.44 -0.05 1 1 1 1
v 1.35 1.44 -0.07 1 1 1 1
v 1.35 1.46 -0.05 1 1 1 1
v 1.33 1.46 -0.07 1 1 1 1
v 1.33 1.48 -0.05 1 1 1 1
v 1.33 1.48 -0.07 1 1 1 1
v 1.33 1.46 -0.05 1 1 1 1
v 1.35 1.48 -0.07 1 1 1 1
v 1.35 1.46 -0.05 1 1 1 1
v 1.35 1.46 -0.07 1 1 1 1
v 1.35 1.48 -0.05 1 1 1 1
v 1.33 1.48 -0.07 1 1 1 1
v 1.33 1.5 -0.05 1 1 1 1
v 1.33 1.5 -0.07 1 1 1 1
v 1.33 1.48 -0.05 1 1 1 1
v 1.35 1.5 -0.07 1 1 1 1
v 1.35 1.48 -0.05 1 1 1 1
v 1.35 1.48 -0.07 1 1 1 1
v 1.35 1.5 -0.05 1 1 1 1
v 1.33 1.5 -0.07 1 1 1 1
v 1.33 1.52 -0.05 1 1 1 1
v 1.33 1.52 -0.07 1 1 1 1
v 1.33 1.5 -0.05 1 1 1 1
v 1.35 1.52 -0.07 1 1 1 1
v 1.35 1.5 -0.05 1 1 1 1
v 1.35 1.5 -0.07 1 1 1 1
v 1.35 1.52 -0.05 1 1 1 1
v 1.33 1.52 -0.07 1 1 1 1
v 1.33 1.54 -0.05 1 1 1 1
v 1.33 1.54 -0.07 1 1 1 1
v 1.33 1.52 -0.05 1 1 1 1
v 1.35 1.54 -0.07 1 1 1 1
v 1.35 1.52 -0.05 1 1 1 1
v 1.35 1.52 -0.07 1 1 1 1
v 1.35 1.54 -0.05 1 1 1 1
v 1.33 1.54 -0.07 1 1 1 1
v 1.33 1.56 -0.05 1 1 1 1
v 1.33 1.56 -0.07 1 1 1 1
v 1.33 1.54 -0.05 1 1 1 1
v 1.35 1.56 -0.07 1 1 1 1
v 1.35 1.54 -0.05 1 1 1 1
v 1.35 1.54 -0.07 1 1 1 1
v 1.35 1.56 -0.05 1 1 1 1
v 1.33 1.56 -0.07 1 1 1 1
v 1.33 1.58 -0.05 1 1 1 1
v 1.33 1.58 -0.07 1 1 1 1
v 1.33 1.56 -0.05 1 1 1 1
v 1.35 1.58 -0.07 1 1 1 1
v 1.35 1.56 -0.05 1 1 1 1
v 1.35 1.56 -0.07 1 1 1 1
v 1.35 1.58 -0.05 1 1 1 1
v 1.33 1.58 -0.07 1 1 1 1
v 1.33 1.6 -0.05 1 1 1 1
v 1.33 1.6 -0.07 1 1 1 1
v 1.33 1.58 -0.05 1 1 1 1
v 1.35 1.6 -0.07 1 1 1 1
v 1.35 1.58 -0.05 1 1 1 1
v 1.35 1.58 -0.07 1 1 1 1
v 1.35 1.6 -0.05 1 1 1 1
v 1.33 1.6 -0.07 1 1 1 1
v 1.33 1.62 -0.05 1 1 1 1
v 1.33 1.62 -0.07 1 1 1 1
v 1.33 1.6 -0.05 1 1 1 1
v 1.35 1.62 -0.07 1 1 1 1
v 1.35 1.6 -0.05 1 1 1 1
v 1.35 1.6 -0.07 1 1 1 1
v 1.35 1.62 -0.05 1 1 1 1
v 1.33 1.62 -0.07 1 1 1 1
v 1.33 1.6400000000000001 -0.05 1 1 1 1
v 1.33 1.6400000000000001 -0.07 1 1 1 1
v 1.33 1.62 -0.05 1 1 1 1
v 1.35 1.6400000000000001 -0.07 1 1 1 1
v 1.35 1.62 -0.05 1 1 1 1
v 1.35 1.62 -0.07 1 1 1 1
v 1.35 1.6400000000000001 -0.05 1 1 1 1
v 1.33 1.6400000000000001 -0.07 1 1 1 1
v 1.33 1.6600000000000001 -0.05 1 1 1 1
v 1.33 1.6600000000000001 -0.07 1 1 1 1
v 1.33 1.6400000000000001 -0.05 1 1 1 1
v 1.35 1.6600000000000001 -0.07 1 1 1 1
v 1.35 1.6400000000000001 -0.05 1 1 1 1
v 1.35 1.6400000000000001 -0.07 1 1 1 1
v 1.35 1.6600000000000001 -0.05 1 1 1 1
v 1.33 1.6600000000000001 -0.07 1 1 1 1
v 1.33 1.68 -0.05 1 1 1 1
v 1.33 1.68 -0.07 1 1 1 1
v 1.33 1.6600000000000001 -0.05 1 1 1 1
v 1.35 1.68 -0.07 1 1 1 1
v 1.35 1.6600000000000001 -0.05 1 1 1 1
v 1.35 1.6600000000000001 -0.07 1 1 1 1
v 1.35 1.68 -0.05 1 1 1 1
v 1.33 1.68 -0.07 1 1 1 1
v 1.33 1.7 -0.05 1 1 1 1
v 1.33 1.7 -0.07 1 1 1 1
v 1.33 1.68 -0.05 1 1 1 1
v 1.35 1.7 -0.07 1 1 1 1
v 1.35 1.68 -0.05 1 1 1 1
v 1.35 1.68 -0.07 1 1 1 1
v 1.35 1.7 -0.05 1 1 1 1
v 1.33 1.7 -0.07 1 1 1 1
v 1.33 1.72 -0.05 1 1 1 1
v 1.33 1.72 -0.07 1 1 1 1
v 1.33 1.7 -0.05 1 1 1 1
v 1.33 1.72 -0.07 1 1 1 1
v 1.35 1.72 -0.05 1 1 1 1
v 1.35 1.72 -0.07 1 1 1 1
v 1.33 1.72 -0.05 1 1 1 1
v 1.35 1.72 -0.07 1 1 1 1
v 1.35 1.7 -0.05 1 1 1 1
v 1.35 1.7 -0.07 1 1 1 1
v 1.35 1.72 -0.05 1 1 1 1
v 1.35 1.7 -0.07 1 1 1 1
v 1.33 1.72 -0.07 1 1 1 1
v 1.35 1.72 -0.07 1 1 1 1
v 1.33 1.7 -0.07 1 1 1 1
v 1.35 1.68 -0.07 1 1 1 1
v 1.33 1.7 -0.07 1 1 1 1
v 1.35 1.7 -0.07 1 1 1 1
v 1.33 1.68 -0.07 1 1 1 1
v 1.35 1.6600000000000001 -0.07 1 1 1 1
v 1.33 1.68 -0.07 1 1 1 1
v 1.35 1.68 -0.07 1 1 1 1
v 1.33 1.6600000000000001 -0.07 1 1 1 1
v 1.35 1.6400000000000001 -0.07 1 1 1 1
v 1.33 1.6600000000000001 -0.07 1 1 1 1
v 1.35 1.6600000000000001 -0.07 1 1 1 1
v 1.33 1.6400000000000001 -0.07 1 1 1 1
v 1.35 1.62 -0.07 1 1 1 1
v 1.33 1.6400000000000001 -0.07 1 1 1 1
v 1.35 1.6400000000000001 -0.07 1 1 1 1
v 1.33 1.62 -0.07 1 1 1 1
v 1.35 1.6 -0.07 1 1 1 1
v 1.33 1.62 -0.07 1 1 1 1
v 1.35 1.62 -0.07 1 1 1 1
v 1.33 1.6 -0.07 1 1 1 1
v 1.35 1.58 -0.07 1 1 1 1
v 1.33 1.6 -0.07 1 1 1 1
v 1.35 1.6 -0.07 1 1 1 1
v 1.33 1.58 -0.07 1 1 1 1
v 1.35 1.56 -0.07 1 1 1 1
v 1.33 1.58 -0.07 1 1 1 1
v 1.35 1.58 -0.07 1 1 1 1
v 1.33 1.56 -0.07 1 1 1 1
v 1.35 1.54 -0.07 1 1 1 1
v 1.33 1.56 -0.07 1 1 1 1
v 1.35 1.56 -0.07 1 1 1 1
v 1.33 1.54 -0.07 1 1 1 1
v 1.35 1.52 -0.07 1 1 1 1
v 1.33 1.54 -0.07 1 1 1 1
v 1.35 1.54 -0.07 1 1 1 1
v 1.33 1.52 -0.07 1 1 1 1
v 1.35 1.5 -0.07 1 1 1 1
v 1.33 1.52 -0.07 1 1 1 1
v 1.35 1.52 -0.07 1 1 1 1
v 1.33 1.5 -0.07 1 1 1 1
v 1.35 1.48 -0.07 1 1 1 1
v 1.33 1.5 -0.07 1 1 1 1
v 1.35 1.5 -0.07 1 1 1 1
v 1.33 1.48 -0.07 1 1 1 1
v 1.35 1.46 -0.07 1 1 1 1
v 1.33 1.48 -0.07 1 1 1 1
v 1.35 1.48 -0.07 1 1 1 1
v 1.33 1.46 -0.07 1 1 1 1
v 1.35 1.44 -0.07 1 1 1 1
v 1.33 1.46 -0.07 1 1 1 1
v 1.35 1.46 -0.07 1 1 1 1
v 1.33 1.44 -0.07 1 1 1 1
v 1.35 1.42 -0.07 1 1 1 1
v 1.33 1.44 -0.07 1 1 1 1
v 1.35 1.44 -0.07 1 1 1 1
v 1.33 1.42 -0.07 1 1 1 1
v 1.35 1.4000000000000001 -0.07 1 1 1 1
v 1.33 1.42 -0.07 1 1 1 1
v 1.35 1.42 -0.07 1 1 1 1
v 1.33 1.4000000000000001 -0.07 1 1 1 1
v 1.35 1.3800000000000001 -0.07 1 1 1 1
v 1.33 1.4000000000000001 -0.07 1 1 1 1
v 1.35 1.4000000000000001 -0.07 1 1 1 1
v 1.33 1.3800000000000001 -0.07 1 1 1 1
v 1.35 1.36 -0.07 1 1 1 1
v 1.33 1.3800000000000001 -0.07 1 1 1 1
v 1.35 1.3800000000000001 -0.07 1 1 1 1
v 1.33 1.36 -0.07 1 1 1 1
v 1.4000000000000001 1.16 -0.05 1 1 1 1
v 1.42 1.18 -0.05 1 1 1 1
v 1.4000000000000001 1.18 -0.05 1 1 1 1
v 1.42 1.16 -0.05 1 1 1 1
v 1.42 1.18 -0.07 1 1 1 1
v 1.42 1.16 -0.05 1 1 1 1
v 1.42 1.16 -0.07 1 1 1 1
v 1.42 1.18 -0.05 1 1 1 1
v 1.4000000000000001 1.18 -0.05 1 1 1 1
v 1.42 1.2 -0.05 1 1 1 1
v 1.4000000000000001 1.2 -0.05 1 1 1 1
v 1.42 1.18 -0.05 1 1 1 1
v 1.4000000000000001 1.3 -0.05 1 1 1 1
v 1.42 1.32 -0.05 1 1 1 1
v 1.4000000000000001 1.32 -0.05 1 1 1 1
v 1.42 1.3 -0.05 1 1 1 1
v 1.4000000000000001 1.2 -0.05 1 1 1 1
v 1.42 1.22 -0.05 1 1 1 1
v 1.4000000000000001 1.22 -0.05 1 1 1 1
v 1.42 1.2 -0.05 1 1 1 1
v 1.4000000000000001 1.16 -0.07 1 1 1 1
v 1.4000000000000001 1.18 -0.05 1 1 1 1
v 1.4000000000000001 1.18 -0.07 1 1 1 1
v 1.4000000000000001 1.16 -0.05 1 1 1 1
v 1.4000000000000001 1.22 -0.05 1 1 1 1
v 1.42 1.24 -0.05 1 1 1 1
v 1.4000000000000001 1.24 -0.05 1 1 1 1
v 1.42 1.22 -0.05 1 1 1 1
v 1.4000000000000001 1.28 -0.05 1 1 1 1
v 1.42 1.3 -0.05 1 1 1 1
v 1.4000000000000001 1.3 -0.05 1 1 1 1
v 1.42 1.28 -0.05 1 1 1 1
v 1.4000000000000001 1.24 -0.05 1 1 1 1
v 1.42 1.26 -0.05 1 1 1 1
v 1.4000000000000001 1.26 -0.05 1 1 1 1
v 1.42 1.24 -0.05 1 1 1 1
v 1.4000000000000001 1.26 -0.05 1 1 1 1
v 1.42 1.28 -0.05 1 1 1 1
v 1.4000000000000001 1.28 -0.05 1 1 1 1
v 1.42 1.26 -0.05 1 1 1 1
v 1.42 1.16 -0.07 1 1 1 1
v 1.4000000000000001 1.18 -0.07 1 1 1 1
v 1.42 1.18 -0.07 1 1 1 1
v 1.4000000000000001 1.16 -0.07 1 1 1 1
v 1.42 1.18 -0.07 1 1 1 1
v 1.4000000000000001 1.2 -0.07 1 1 1 1
v 1.42 1.2 -0.07 1 1 1 1
v 1.4000000000000001 1.18 -0.07 1 1 1 1
v 1.42 1.2 -0.07 1 1 1 1
v 1.4000000000000001 1.22 -0.07 1 1 1 1
v 1.42 1.22 -0.07 1 1 1 1
v 1.4000000000000001 1.2 -0.07 1 1 1 1
v 1.42 1.22 -0.07 1 1 1 1
v 1.4000000000000001 1.24 -0.07 1 1 1 1
v 1.42 1.24 -0.07 1 1 1 1
v 1.4000000000000001 1.22 -0.07 1 1 1 1
v 1.42 1.24 -0.07 1 1 1 1
v 1.4000000000000001 1.26 -0.07 1 1 1 1
v 1.42 1.26 -0.07 1 1 1 1
v 1.4000000000000001 1.24 -0.07 1 1 1 1
v 1.42 1.26 -0.07 1 1 1 1
v 1.4000000000000001 1.28 -0.07 1 1 1 1
v 1.42 1.28 -0.07 1 1 1 1
v 1.4000000000000001 1.26 -0.07 1 1 1 1
v 1.42 1.28 -0.07 1 1 1 1
v 1.4000000000000001 1.3 -0.07 1 1 1 1
v 1.42 1.3 -0.07 1 1 1 1
v 1.4000000000000001 1.28 -0.07 1 1 1 1
v 1.42 1.3 -0.07 1 1 1 1
v 1.4000000000000001 1.32 -0.07 1 1 1 1
v 1.42 1.32 -0.07 1 1 1 1
v 1.4000000000000001 1.3 -0.07 1 1 1 1
v 1.42 1.32 -0.07 1 1 1 1
v 1.42 1.3 -0.05 1 1 1 1
v 1.42 1.3 -0.07 1 1 1 1
v 1.42 1.32 -0.05 1 1 1 1
v 1.4000000000000001 1.3 -0.07 1 1 1 1
v 1.4000000000000001 1.32 -0.05 1 1 1 1
v 1.4000000000000001 1.32 -0.07 1 1 1 1
v 1.4000000000000001 1.3 -0.05 1 1 1 1
v 1.42 1.3 -0.07 1 1 1 1
v 1.42 1.28 -0.05 1 1 1 1
v 1.42 1.28 -0.07 1 1 1 1
v 1.42 1.3 -0.05 1 1 1 1
v 1.4000000000000001 1.28 -0.07 1 1 1 1
v 1.4000000000000001 1.3 -0.05 1 1 1 1
v 1.4000000000000001 1.3 -0.07 1 1 1 1
v 1.4000000000000001 1.28 -0.05 1 1 1 1
v 1.42 1.28 -0.07 1 1 1 1
v 1.42 1.26 -0.05 1 1 1 1
v 1.42 1.26 -0.07 1 1 1 1
v 1.42 1.28 -0.05 1 1 1 1
v 1.4000000000000001 1.26 -0.07 1 1 1 1
v 1.4000000000000001 1.28 -0.05 1 1 1 1
v 1.4000000000000001 1.28 -0.07 1 1 1 1
v 1.4000000000000001 1.26 -0.05 1 1 1 1
v 1.42 1.26 -0.07 1 1 1 1
v 1.42 1.24 -0.05 1 1 1 1
v 1.42 1.24 -0.07 1 1 1 1
v 1.42 1.26 -0.05 1 1 1 1
v 1.4000000000000001 1.24 -0.07 1 1 1 1
v 1.4000000000000001 1.26 -0.05 1 1 1 1
v 1.4000000000000001 1.26 -0.07 1 1 1 1
v 1.4000000000000001 1.24 -0.05 1 1 1 1
v 1.42 1.24 -0.07 1 1 1 1
v 1.42 1.22 -0.05 1 1 1 1
v 1.42 1.22 -0.07 1 1 1 1
v 1.42 1.24 -0.05 1 1 1 1
v 1.4000000000000001 1.22 -0.07 1 1 1 1
v 1.4000000000000001 1.24 -0.05 1 1 1 1
v 1.4000000000000001 1.24 -0.07 1 1 1 1
v 1.4000000000000001 1.22 -0.05 1 1 1 1
v 1.42 1.22 -0.07 1 1 1 1
v 1.42 1.2 -0.05 1 1 1 1
v 1.42 1.2 -0.07 1 1 1 1
v 1.42 1.22 -0.05 1 1 1 1
v 1.4000000000000001 1.2 -0.07 1 1 1 1
v 1.4000000000000001 1.22 -0.05 1 1 1 1
v 1.4000000000000001 1.22 -0.07 1 1 1 1
v 1.4000000000000001 1.2 -0.05 1 1 1 1
v 1.42 1.2 -0.07 1 1 1 1
v 1.42 1.18 -0.05 1 1 1 1
v 1.42 1.18 -0.07 1 1 1 1
v 1.42 1.2 -0.05 1 1 1 1
v 1.4000000000000001 1.18 -0.07 1 1 1 1
v 1.4000000000000001 1.2 -0.05 1 1 1 1
v 1.4000000000000001 1.2 -0.07 1 1 1 1
v 1.4000000000000001 1.18 -0.05 1 1 1 1
v 0.55 0.8200000000000001 -0.05 1 1 1 1
v 0.5700000000000001 0.84 -0.05 1 1 1 1
v 0.55 0.84 -0.05 1 1 1 1
v 0.5700000000000001 0.8200000000000001 -0.05 1 1 1 1
v 0.5700000000000001 0.84 -0.07 1 1 1 1
v 0.5700000000000001 0.8200000000000001 -0.05 1 1 1 1
v 0.5700000000000001 0.8200000000000001 -0.07 1 1 1 1
v 0.5700000000000001 0.84 -0.05 1 1 1 1
v 0.55 0.84 -0.05 1 1 1 1
v 0.5700000000000001 0.86 -0.05 1 1 1 1
v 0.55 0.86 -0.05 1 1 1 1
v 0.5700000000000001 0.84 -0.05 1 1 1 1
v 0.55 0.96 -0.05 1 1 1 1
v 0.5700000000000001 0.98 -0.05 1 1 1 1
v 0.55 0.98 -0.05 1 1 1 1
v 0.5700000000000001 0.96 -0.05 1 1 1 1
v 0.55 0.86 -0.05 1 1 1 1
v 0.5700000000000001 0.88 -0.05 1 1 1 1
v 0.55 0.88 -0.05 1 1 1 1
v 0.5700000000000001 0.86 -0.05 1 1 1 1
v 0.55 0.8200000000000001 -0.07 1 1 1 1
v 0.55 0.84 -0.05 1 1 1 1
v 0.55 0.84 -0.07 1 1 1 1
v 0.55 0.8200000000000001 -0.05 1 1 1 1
v 0.55 0.88 -0.05 1 1 1 1
v 0.5700000000000001 0.9 -0.05 1 1 1 1
v 0.55 0.9 -0.05 1 1 1 1
v 0.5700000000000001 0.88 -0.05 1 1 1 1
v 0.55 0.9400000000000001 -0.05 1 1 1 1
v 0.5700000000000001 0.96 -0.05 1 1 1 1
v 0.55 0.96 -0.05 1 1 1 1
v 0.5700000000000001 0.9400000000000001 -0.05 1 1 1 1
v 0.55 0.9 -0.05 1 1 1 1
v 0.5700000000000001 0.92 -0.05 1 1 1 1
v 0.55 0.92 -0.05 1 1 1 1
v 0.5700000000000001 0.9 -0.05 1 1 1 1
v 0.55 0.92 -0.05 1 1 1 1
v 0.5700000000000001 0.9400000000000001 -0.05 1 1 1 1
v 0.55 0.9400000000000001 -0.05 1 1 1 1
v 0.5700000000000001 0.92 -0.05 1 1 1 1
v 0.5700000000000001 0.8200000000000001 -0.07 1 1 1 1
v 0.55 0.84 -0.07 1 1 1 1
v 0.5700000000000001 0.84 -0.07 1 1 1 1
v 0.55 0.8200000000000001 -0.07 1 1 1 1
v 0.5700000000000001 0.84 -0.07 1 1 1 1
v 0.55 0.86 -0.07 1 1 1 1
v 0.5700000000000001 0.86 -0.07 1 1 1 1
v 0.55 0.84 -0.07 1 1 1 1
v 0.5700000000000001 0.86 -0.07 1 1 1 1
v 0.55 0.88 -0.07 1 1 1 1
v 0.5700000000000001 0.88 -0.07 1 1 1 1
v 0.55 0.86 -0.07 1 1 1 1
v 0.5700000000000001 0.88 -0.07 1 1 1 1
v 0.55 0.9 -0.07 1 1 1 1
v 0.5700000000000001 0.9 -0.07 1 1 1 1
v 0.55 0.88 -0.07 1 1 1 1
v 0.5700000000000001 0.9 -0.07 1 1 1 1
v 0.55 0.92 -0.07 1 1 1 1
v 0.5700000000000001 0.92 -0.07 1 1 1 1
v 0.55 0.9 -0.07 1 1 1 1
v 0.5700000000000001 0.92 -0.07 1 1 1 1
v 0.55 0.9400000000000001 -0.07 1 1 1 1
v 0.5700000000000001 0.9400000000000001 -0.07 1 1 1 1
v 0.55 0.92 -0.07 1 1 1 1
v 0.5700000000000001 0.9400000000000001 -0.07 1 1 1 1
v 0.55 0.96 -0.07 1 1 1 1
v 0.5700000000000001 0.96 -0.07 1 1 1 1
v 0.55 0.9400000000000001 -0.07 1 1 1 1
v 0.5700000000000001 0.96 -0.07 1 1 1 1
v 0.55 0.98 -0.07 1 1 1 1
v 0.5700000000000001 0.98 -0.07 1 1 1 1
v 0.55 0.96 -0.07 1 1 1 1
v 0.5700000000000001 0.98 -0.07 1 1 1 1
v 0.5700000000000001 0.96 -0.05 1 1 1 1
v 0.5700000000000001 0.96 -0.07 1 1 1 1
v 0.5700000000000001 0.98 -0.05 1 1 1 1
v 0.55 0.96 -0.07 1 1 1 1
v 0.55 0.98 -0.05 1 1 1 1
v 0.55 0.98 -0.07 1 1 1 1
v 0.55 0.96 -0.05 1 1 1 1
v 0.5700000000000001 0.96 -0.07 1 1 1 1
v 0.5700000000000001 0.9400000000000001 -0.05 1 1 1 1
v 0.5700000000000001 0.9400000000000001 -0.07 1 1 1 1
v 0.5700000000000001 0.96 -0.05 1 1 1 1
v 0.55 0.9400000000000001 -0.07 1 1 1 1
v 0.55 0.96 -0.05 1 1 1 1
v 0.55 0.96 -0.07 1 1 1 1
v 0.55 0.9400000000000001 -0.05 1 1 1 1
v 0.5700000000000001 0.9400000000000001 -0.07 1 1 1 1
v 0.5700000000000001 0.92 -0.05 1 1 1 1
v 0.5700000000000001 0.92 -0.07 1 1 1 1
v 0.5700000000000001 0.9400000000000001 -0.05 1 1 1 1
v 0.55 0.92 -0.07 1 1 1 1
v 0.55 0.9400000000000001 -0.05 1 1 1 1
v 0.55 0.9400000000000001 -0.07 1 1 1 1
v 0.55 0.92 -0.05 1 1 1 1
v 0.5700000000000001 0.92 -0.07 1 1 1 1
v 0.5700000000000001 0.9 -0.05 1 1 1 1
v 0.5700000000000001 0.9 -0.07 1 1 1 1
v 0.5700000000000001 0.92 -0.05 1 1 1 1
v 0.55 0.9 -0.07 1 1 1 1
v 0.55 0.92 -0.05 1 1 1 1
v 0.55 0.92 -0.07 1 1 1 1
v 0.55 0.9 -0.05 1 1 1 1
v 0.5700000000000001 0.9 -0.07 1 1 1 1
v 0.5700000000000001 0.88 -0.05 1 1 1 1
v 0.5700000000000001 0.88 -0.07 1 1 1 1
v 0.5700000000000001 0.9 -0.05 1 1 1 1
v 0.55 0.88 -0.07 1 1 1 1
v 0.55 0.9 -0.05 1 1 1 1
v 0.55 0.9 -0.07 1 1 1 1
v 0.55 0.88 -0.05 1 1 1 1
v 0.5700000000000001 0.88 -0.07 1 1 1 1
v 0.5700000000000001 0.86 -0.05 1 1 1 1
v 0.5700000000000001 0.86 -0.07 1 1 1 1
v 0.5700000000000001 0.88 -0.05 1 1 1 1
v 0.55 0.86 -0.07 1 1 1 1
v 0.55 0.88 -0.05 1 1 1 1
v 0.55 0.88 -0.07 1 1 1 1
v 0.55 0.86 -0.05 1 1 1 1
v 0.5700000000000001 0.86 -0.07 1 1 1 1
v 0.5700000000000001 0.84 -0.05 1 1 1 1
v 0.5700000000000001 0.84 -0.07 1 1 1 1
v 0.5700000000000001 0.86 -0.05 1 1 1 1
v 0.55 0.84 -0.07 1 1 1 1
v 0.55 0.86 -0.05 1 1 1 1
v 0.55 0.86 -0.07 1 1 1 1
v 0.55 0.84 -0.05 1 1 1 1
v 1.1 0.8200000000000001 -0.07 1 1 1 1
v 1.08 0.84 -0.07 1 1 1 1
v 1.1 0.84 -0.07 1 1 1 1
v 1.08 0.8200000000000001 -0.07 1 1 1 1
v 1.1 0.84 -0.07 1 1 1 1
v 1.08 0.86 -0.07 1 1 1 1
v 1.1 0.86 -0.07 1 1 1 1
v 1.08 0.84 -0.07 1 1 1 1
v 1.1 0.86 -0.07 1 1 1 1
v 1.08 0.88 -0.07 1 1 1 1
v 1.1 0.88 -0.07 1 1 1 1
v 1.08 0.86 -0.07 1 1 1 1
v 1.1 0.88 -0.07 1 1 1 1
v 1.08 0.9 -0.07 1 1 1 1
v 1.1 0.9 -0.07 1 1 1 1
v 1.08 0.88 -0.07 1 1 1 1
v 1.1 0.9 -0.07 1 1 1 1
v 1.08 0.92 -0.07 1 1 1 1
v 1.1 0.92 -0.07 1 1 1 1
v 1.08 0.9 -0.07 1 1 1 1
v 1.1 0.92 -0.07 1 1 1 1
v 1.08 0.9400000000000001 -0.07 1 1 1 1
v 1.1 0.9400000000000001 -0.07 1 1 1 1
v 1.08 0.92 -0.07 1 1 1 1
v 1.1 0.9400000000000001 -0.07 1 1 1 1
v 1.08 0.96 -0.07 1 1 1 1
v 1.1 0.96 -0.07 1 1 1 1
v 1.08 0.9400000000000001 -0.07 1 1 1 1
v 1.1 0.96 -0.07 1 1 1 1
v 1.08 0.98 -0.07 1 1 1 1
v 1.1 0.98 -0.07 1 1 1 1
v 1.08 0.96 -0.07 1 1 1 1
v 1.1 0.98 -0.07 1 1 1 1
v 1.08 1 -0.07 1 1 1 1
v 1.1 1 -0.07 1 1 1 1
v 1.08 0.98 -0.07 1 1 1 1
v 1.1 1 -0.07 1 1 1 1
v 1.08 1.02 -0.07 1 1 1 1
v 1.1 1.02 -0.07 1 1 1 1
v 1.08 1 -0.07 1 1 1 1
v 1.1 1.02 -0.07 1 1 1 1
v 1.08 1.04 -0.07 1 1 1 1
v 1.1 1.04 -0.07 1 1 1 1
v 1.08 1.02 -0.07 1 1 1 1
v 1.1 1.04 -0.07 1 1 1 1
v 1.08 1.06 -0.07 1 1 1 1
v 1.1 1.06 -0.07 1 1 1 1
v 1.08 1.04 -0.07 1 1 1 1
v 1.1 1.06 -0.07 1 1 1 1
v 1.08 1.08 -0.07 1 1 1 1
v 1.1 1.08 -0.07 1 1 1 1
v 1.08 1.06 -0.07 1 1 1 1
v 1.1 1.08 -0.07 1 1 1 1
v 1.08 1.1 -0.07 1 1 1 1
v 1.1 1.1 -0.07 1 1 1 1
v 1.08 1.08 -0.07 1 1 1 1
v 1.1 1.1 -0.07 1 1 1 1
v 1.08 1.12 -0.07 1 1 1 1
v 1.1 1.12 -0.07 1 1 1 1
v 1.08 1.1 -0.07 1 1 1 1
v 1.08 0.92 -0.05 1 1 1 1
v 1.1 0.9400000000000001 -0.05 1 1 1 1
v 1.08 0.9400000000000001 -0.05 1 1 1 1
v 1.1 0.92 -0.05 1 1 1 1
v 1.08 0.9400000000000001 -0.05 1 1 1 1
v 1.1 0.96 -0.05 1 1 1 1
v 1.08 0.96 -0.05 1 1 1 1
v 1.1 0.9400000000000001 -0.05 1 1 1 1
v 1.08 0.96 -0.05 1 1 1 1
v 1.1 0.98 -0.05 1 1 1 1
v 1.08 0.98 -0.05 1 1 1 1
v 1.1 0.96 -0.05 1 1 1 1
v 1.08 0.98 -0.05 1 1 1 1
v 1.1 1 -0.05 1 1 1 1
v 1.08 1 -0.05 1 1 1 1
v 1.1 0.98 -0.05 1 1 1 1
v 1.08 1 -0.05 1 1 1 1
v 1.1 1.02 -0.05 1 1 1 1
v 1.08 1.02 -0.05 1 1 1 1
v 1.1 1 -0.05 1 1 1 1
v 1.08 1.02 -0.05 1 1 1 1
v 1.1 1.04 -0.05 1 1 1 1
v 1.08 1.04 -0.05 1 1 1 1
v 1.1 1.02 -0.05 1 1 1 1
v 1.08 1.04 -0.05 1 1 1 1
v 1.1 1.06 -0.05 1 1 1 1
v 1.08 1.06 -0.05 1 1 1 1
v 1.1 1.04 -0.05 1 1 1 1
v 1.08 1.06 -0.05 1 1 1 1
v 1.1 1.08 -0.05 1 1 1 1
v 1.08 1.08 -0.05 1 1 1 1
v 1.1 1.06 -0.05 1 1 1 1
v 1.08 1.08 -0.05 1 1 1 1
v 1.1 1.1 -0.05 1 1 1 1
v 1.08 1.1 -0.05 1 1 1 1
v 1.1 1.08 -0.05 1 1 1 1
v 1.08 1.1 -0.05 1 1 1 1
v 1.1 1.12 -0.05 1 1 1 1
v 1.08 1.12 -0.05 1 1 1 1
v 1.1 1.1 -0.05 1 1 1 1
v 1.1 1.12 -0.07 1 1 1 1
v 1.1 1.1 -0.05 1 1 1 1
v 1.1 1.1 -0.07 1 1 1 1
v 1.1 1.12 -0.05 1 1 1 1
v 1.08 1.1 -0.07 1 1 1 1
v 1.08 1.12 -0.05 1 1 1 1
v 1.08 1.12 -0.07 1 1 1 1
v 1.08 1.1 -0.05 1 1 1 1
v 1.1 1.1 -0.07 1 1 1 1
v 1.1 1.08 -0.05 1 1 1 1
v 1.1 1.08 -0.07 1 1 1 1
v 1.1 1.1 -0.05 1 1 1 1
v 1.08 1.08 -0.07 1 1 1 1
v 1.08 1.1 -0.05 1 1 1 1
v 1.08 1.1 -0.07 1 1 1 1
v 1.08 1.08 -0.05 1 1 1 1
v 1.1 1.08 -0.07 1 1 1 1
v 1.1 1.06 -0.05 1 1 1 1
v 1.1 1.06 -0.07 1 1 1 1
v 1.1 1.08 -0.05 1 1 1 1
v 1.08 1.06 -0.07 1 1 1 1
v 1.08 1.08 -0.05 1 1 1 1
v 1.08 1.08 -0.07 1 1 1 1
v 1.08 1.06 -0.05 1 1 1 1
v 1.1 1.06 -0.07 1 1 1 1
v 1.1 1.04 -0.05 1 1 1 1
v 1.1 1.04 -0.07 1 1 1 1
v 1.1 1.06 -0.05 1 1 1 1
v 1.08 1.04 -0.07 1 1 1 1
v 1.08 1.06 -0.05 1 1 1 1
v 1.08 1.06 -0.07 1 1 1 1
v 1.08 1.04 -0.05 1 1 1 1
v 1.1 1.04 -0.07 1 1 1 1
v 1.1 1.02 -0.05 1 1 1 1
v 1.1 1.02 -0.07 1 1 1 1
v 1.1 1.04 -0.05 1 1 1 1
v 1.08 1.02 -0.07 1 1 1 1
v 1.08 1.04 -0.05 1 1 1 1
v 1.08 1.04 -0.07 1 1 1 1
v 1.08 1.02 -0.05 1 1 1 1
v 1.1 1.02 -0.07 1 1 1 1
v 1.1 1 -0.05 1 1 1 1
v 1.1 1 -0.07 1 1 1 1
v 1.1 1.02 -0.05 1 1 1 1
v 1.08 1 -0.07 1 1 1 1
v 1.08 1.02 -0.05 1 1 1 1
v 1.08 1.02 -0.07 1 1 1 1
v 1.08 1 -0.05 1 1 1 1
v 1.1 1 -0.07 1 1 1 1
v 1.1 0.98 -0.05 1 1 1 1
v 1.1 0.98 -0.07 1 1 1 1
v 1.1 1 -0.05 1 1 1 1
v 1.08 0.98 -0.07 1 1 1 1
v 1.08 1 -0.05 1 1 1 1
v 1.08 1 -0.07 1 1 1 1
v 1.08 0.98 -0.05 1 1 1 1
v 1.1 0.98 -0.07 1 1 1 1
v 1.1 0.96 -0.05 1 1 1 1
v 1.1 0.96 -0.07 1 1 1 1
v 1.1 0.98 -0.05 1 1 1 1
v 1.08 0.96 -0.07 1 1 1 1
v 1.08 0.98 -0.05 1 1 1 1
v 1.08 0.98 -0.07 1 1 1 1
v 1.08 0.96 -0.05 1 1 1 1
v 1.1 0.96 -0.07 1 1 1 1
v 1.1 0.9400000000000001 -0.05 1 1 1 1
v 1.1 0.9400000000000001 -0.07 1 1 1 1
v 1.1 0.96 -0.05 1 1 1 1
v 1.08 0.9400000000000001 -0.07 1 1 1 1
v 1.08 0.96 -0.05 1 1 1 1
v 1.08 0.96 -0.07 1 1 1 1
v 1.08 0.9400000000000001 -0.05 1 1 1 1
v 1.1 0.9400000000000001 -0.07 1 1 1 1
v 1.1 0.92 -0.05 1 1 1 1
v 1.1 0.92 -0.07 1 1 1 1
v 1.1 0.9400000000000001 -0.05 1 1 1 1
v 1.08 0.92 -0.07 1 1 1 1
v 1.08 0.9400000000000001 -0.05 1 1 1 1
v 1.08 0.9400000000000001 -0.07 1 1 1 1
v 1.08 0.92 -0.05 1 1 1 1
v 1.1 0.92 -0.07 1 1 1 1
v 1.1 0.9 -0.05 1 1 1 1
v 1.1 0.9 -0.07 1 1 1 1
v 1.1 0.92 -0.05 1 1 1 1
v 1.08 0.9 -0.07 1 1 1 1
v 1.08 0.92 -0.05 1 1 1 1
v 1.08 0.92 -0.07 1 1 1 1
v 1.08 0.9 -0.05 1 1 1 1
v 1.1 0.9 -0.07 1 1 1 1
v 1.1 0.88 -0.05 1 1 1 1
v 1.1 0.88 -0.07 1 1 1 1
v 1.1 0.9 -0.05 1 1 1 1
v 1.08 0.88 -0.07 1 1 1 1
v 1.08 0.9 -0.05 1 1 1 1
v 1.08 0.9 -0.07 1 1 1 1
v 1.08 0.88 -0.05 1 1 1 1
v 1.1 0.88 -0.07 1 1 1 1
v 1.1 0.86 -0.05 1 1 1 1
v 1.1 0.86 -0.07 1 1 1 1
v 1.1 0.88 -0.05 1 1 1 1
v 1.08 0.86 -0.07 1 1 1 1
v 1.08 0.88 -0.05 1 1 1 1
v 1.08 0.88 -0.07 1 1 1 1
v 1.08 0.86 -0.05 1 1 1 1
v 1.1 0.86 -0.07 1 1 1 1
v 1.1 0.84 -0.05 1 1 1 1
v 1.1 0.84 -0.07 1 1 1 1
v 1.1 0.86 -0.05 1 1 1 1
v 1.08 0.84 -0.07 1 1 1 1
v 1.08 0.86 -0.05 1 1 1 1
v 1.08 0.86 -0.07 1 1 1 1
v 1.08 0.84 -0.05 1 1 1 1
v 1.1 0.84 -0.07 1 1 1 1
v 1.1 0.8200000000000001 -0.05 1 1 1 1
v 1.1 0.8200000000000001 -0.07 1 1 1 1
v 1.1 0.84 -0.05 1 1 1 1
v 1.08 0.8200000000000001 -0.07 1 1 1 1
v 1.08 0.84 -0.05 1 1 1 1
v 1.08 0.84 -0.07 1 1 1 1
v 1.08 0.8200000000000001 -0.05 1 1 1 1
v 1.08 0.8200000000000001 -0.05 1 1 1 1
v 1.1 0.84 -0.05 1 1 1 1
v 1.08 0.84 -0.05 1 1 1 1
v 1.1 0.8200000000000001 -0.05 1 1 1 1
v 1.08 0.84 -0.05 1 1 1 1
v 1.1 0.86 -0.05 1 1 1 1
v 1.08 0.86 -0.05 1 1 1 1
v 1.1 0.84 -0.05 1 1 1 1
v 1.08 0.86 -0.05 1 1 1 1
v 1.1 0.88 -0.05 1 1 1 1
v 1.08 0.88 -0.05 1 1 1 1
v 1.1 0.86 -0.05 1 1 1 1
v 1.08 0.88 -0.05 1 1 1 1
v 1.1 0.9 -0.05 1 1 1 1
v 1.08 0.9 -0.05 1 1 1 1
v 1.1 0.88 -0.05 1 1 1 1
v 1.08 0.9 -0.05 1 1 1 1
v 1.1 0.92 -0.05 1 1 1 1
v 1.08 0.92 -0.05 1 1 1 1
v 1.1 0.9 -0.05 1 1 1 1
v 0.38 0.56 -0.05 1 1 1 1
v 0.4 0.58 -0.05 1 1 1 1
v 0.38 0.58 -0.05 1 1 1 1
v 0.4 0.56 -0.05 1 1 1 1
v 0.38 0.54 -0.05 1 1 1 1
v 0.4 0.56 -0.05 1 1 1 1
v 0.38 0.56 -0.05 1 1 1 1
v 0.4 0.54 -0.05 1 1 1 1
v 0.4 0.68 -0.07 1 1 1 1
v 0.38 0.7000000000000001 -0.07 1 1 1 1
v 0.4 0.7000000000000001 -0.07 1 1 1 1
v 0.38 0.68 -0.07 1 1 1 1
v 0.4 0.66 -0.07 1 1 1 1
v 0.38 0.68 -0.07 1 1 1 1
v 0.4 0.68 -0.07 1 1 1 1
v 0.38 0.66 -0.07 1 1 1 1
v 0.4 0.64 -0.07 1 1 1 1
v 0.38 0.66 -0.07 1 1 1 1
v 0.4 0.66 -0.07 1 1 1 1
v 0.38 0.64 -0.07 1 1 1 1
v 0.4 0.62 -0.07 1 1 1 1
v 0.38 0.64 -0.07 1 1 1 1
v 0.4 0.64 -0.07 1 1 1 1
v 0.38 0.62 -0.07 1 1 1 1
v 0.4 0.6 -0.07 1 1 1 1
v 0.38 0.62 -0.07 1 1 1 1
v 0.4 0.62 -0.07 1 1 1 1
v 0.38 0.6 -0.07 1 1 1 1
v 0.4 0.58 -0.07 1 1 1 1
v 0.38 0.6 -0.07 1 1 1 1
v 0.4 0.6 -0.07 1 1 1 1
v 0.38 0.58 -0.07 1 1 1 1
v 0.4 0.56 -0.07 1 1 1 1
v 0.38 0.58 -0.07 1 1 1 1
v 0.4 0.58 -0.07 1 1 1 1
v 0.38 0.56 -0.07 1 1 1 1
v 0.4 0.54 -0.07 1 1 1 1
v 0.38 0.56 -0.07 1 1 1 1
v 0.4 0.56 -0.07 1 1 1 1
v 0.38 0.54 -0.07 1 1 1 1
v 0.4 0.7000000000000001 -0.07 1 1 1 1
v 0.38 0.72 -0.07 1 1 1 1
v 0.4 0.72 -0.07 1 1 1 1
v 0.38 0.7000000000000001 -0.07 1 1 1 1
v 0.38 0.54 -0.07 1 1 1 1
v 0.38 0.56 -0.05 1 1 1 1
v 0.38 0.56 -0.07 1 1 1 1
v 0.38 0.54 -0.05 1 1 1 1
v 0.4 0.56 -0.07 1 1 1 1
v 0.4 0.54 -0.05 1 1 1 1
v 0.4 0.54 -0.07 1 1 1 1
v 0.4 0.56 -0.05 1 1 1 1
v 0.38 0.56 -0.07 1 1 1 1
v 0.38 0.58 -0.05 1 1 1 1
v 0.38 0.58 -0.07 1 1 1 1
v 0.38 0.56 -0.05 1 1 1 1
v 0.4 0.58 -0.07 1 1 1 1
v 0.4 0.56 -0.05 1 1 1 1
v 0.4 0.56 -0.07 1 1 1 1
v 0.4 0.58 -0.05 1 1 1 1
v 0.38 0.58 -0.07 1 1 1 1
v 0.38 0.6 -0.05 1 1 1 1
v 0.38 0.6 -0.07 1 1 1 1
v 0.38 0.58 -0.05 1 1 1 1
v 0.4 0.6 -0.07 1 1 1 1
v 0.4 0.58 -0.05 1 1 1 1
v 0.4 0.58 -0.07 1 1 1 1
v 0.4 0.6 -0.05 1 1 1 1
v 0.38 0.6 -0.07 1 1 1 1
v 0.38 0.62 -0.05 1 1 1 1
v 0.38 0.62 -0.07 1 1 1 1
v 0.38 0.6 -0.05 1 1 1 1
v 0.4 0.62 -0.07 1 1 1 1
v 0.4 0.6 -0.05 1 1 1 1
v 0.4 0.6 -0.07 1 1 1 1
v 0.4 0.62 -0.05 1 1 1 1
v 0.38 0.62 -0.07 1 1 1 1
v 0.38 0.64 -0.05 1 1 1 1
v 0.38 0.64 -0.07 1 1 1 1
v 0.38 0.62 -0.05 1 1 1 1
v 0.4 0.64 -0.07 1 1 1 1
v 0.4 0.62 -0.05 1 1 1 1
v 0.4 0.62 -0.07 1 1 1 1
v 0.4 0.64 -0.05 1 1 1 1
v 0.38 0.64 -0.07 1 1 1 1
v 0.38 0.66 -0.05 1 1 1 1
v 0.38 0.66 -0.07 1 1 1 1
v 0.38 0.64 -0.05 1 1 1 1
v 0.4 0.66 -0.07 1 1 1 1
v 0.4 0.64 -0.05 1 1 1 1
v 0.4 0.64 -0.07 1 1 1 1
v 0.4 0.66 -0.05 1 1 1 1
v 0.38 0.66 -0.07 1 1 1 1
v 0.38 0.68 -0.05 1 1 1 1
v 0.38 0.68 -0.07 1 1 1 1
v 0.38 0.66 -0.05 1 1 1 1
v 0.4 0.68 -0.07 1 1 1 1
v 0.4 0.66 -0.05 1 1 1 1
v 0.4 0.66 -0.07 1 1 1 1
v 0.4 0.68 -0.05 1 1 1 1
v 0.38 0.68 -0.07 1 1 1 1
v 0.38 0.7000000000000001 -0.05 1 1 1 1
v 0.38 0.7000000000000001 -0.07 1 1 1 1
v 0.38 0.68 -0.05 1 1 1 1
v 0.4 0.7000000000000001 -0.07 1 1 1 1
v 0.4 0.68 -0.05 1 1 1 1
v 0.4 0.68 -0.07 1 1 1 1
v 0.4 0.7000000000000001 -0.05 1 1 1 1
v 0.38 0.7000000000000001 -0.07 1 1 1 1
v 0.38 0.72 -0.05 1 1 1 1
v 0.38 0.72 -0.07 1 1 1 1
v 0.38 0.7000000000000001 -0.05 1 1 1 1
v 0.4 0.72 -0.07 1 1 1 1
v 0.4 0.7000000000000001 -0.05 1 1 1 1
v 0.4 0.7000000000000001 -0.07 1 1 1 1
v 0.4 0.72 -0.05 1 1 1 1
v 0.38 0.72 -0.07 1 1 1 1
v 0.38 0.74 -0.05 1 1 1 1
v 0.38 0.74 -0.07 1 1 1 1
v 0.38 0.72 -0.05 1 1 1 1
v 0.4 0.74 -0.07 1 1 1 1
v 0.4 0.72 -0.05 1 1 1 1
v 0.4 0.72 -0.07 1 1 1 1
v 0.4 0.74 -0.05 1 1 1 1
v 0.38 0.74 -0.07 1 1 1 1
v 0.38 0.76 -0.05 1 1 1 1
v 0.38 0.76 -0.07 1 1 1 1
v 0.38 0.74 -0.05 1 1 1 1
v 0.4 0.76 -0.07 1 1 1 1
v 0.4 0.74 -0.05 1 1 1 1
v 0.4 0.74 -0.07 1 1 1 1
v 0.4 0.76 -0.05 1 1 1 1
v 0.38 0.76 -0.07 1 1 1 1
v 0.38 0.78 -0.05 1 1 1 1
v 0.38 0.78 -0.07 1 1 1 1
v 0.38 0.76 -0.05 1 1 1 1
v 0.4 0.78 -0.07 1 1 1 1
v 0.4 0.76 -0.05 1 1 1 1
v 0.4 0.76 -0.07 1 1 1 1
v 0.4 0.78 -0.05 1 1 1 1
v 0.38 0.76 -0.05 1 1 1 1
v 0.4 0.78 -0.05 1 1 1 1
v 0.38 0.78 -0.05 1 1 1 1
v 0.4 0.76 -0.05 1 1 1 1
v 0.38 0.74 -0.05 1 1 1 1
v 0.4 0.76 -0.05 1 1 1 1
v 0.38 0.76 -0.05 1 1 1 1
v 0.4 0.74 -0.05 1 1 1 1
v 0.38 0.72 -0.05 1 1 1 1
v 0.4 0.74 -0.05 1 1 1 1
v 0.38 0.74 -0.05 1 1 1 1
v 0.4 0.72 -0.05 1 1 1 1
v 0.38 0.7000000000000001 -0.05 1 1 1 1
v 0.4 0.72 -0.05 1 1 1 1
v 0.38 0.72 -0.05 1 1 1 1
v 0.4 0.7000000000000001 -0.05 1 1 1 1
v 0.38 0.68 -0.05 1 1 1 1
v 0.4 0.7000000000000001 -0.05 1 1 1 1
v 0.38 0.7000000000000001 -0.05 1 1 1 1
v 0.4 0.68 -0.05 1 1 1 1
v 0.38 0.66 -0.05 1 1 1 1
v 0.4 0.68 -0.05 1 1 1 1
v 0.38 0.68 -0.05 1 1 1 1
v 0.4 0.66 -0.05 1 1 1 1
v 0.38 0.64 -0.05 1 1 1 1
v 0.4 0.66 -0.05 1 1 1 1
v 0.38 0.66 -0.05 1 1 1 1
v 0.4 0.64 -0.05 1 1 1 1
v 0.38 0.62 -0.05 1 1 1 1
v 0.4 0.64 -0.05 1 1 1 1
v 0.38 0.64 -0.05 1 1 1 1
v 0.4 0.62 -0.05 1 1 1 1
v 0.38 0.6 -0.05 1 1 1 1
v 0.4 0.62 -0.05 1 1 1 1
v 0.38 0.62 -0.05 1 1 1 1
v 0.4 0.6 -0.05 1 1 1 1
v 0.38 0.58 -0.05 1 1 1 1
v 0.4 0.6 -0.05 1 1 1 1
v 0.38 0.6 -0.05 1 1 1 1
v 0.4 0.58 -0.05 1 1 1 1
v 0.4 0.76 -0.07 1 1 1 1
v 0.38 0.78 -0.07 1 1 1 1
v 0.4 0.78 -0.07 1 1 1 1
v 0.38 0.76 -0.07 1 1 1 1
v 0.4 0.74 -0.07 1 1 1 1
v 0.38 0.76 -0.07 1 1 1 1
v 0.4 0.76 -0.07 1 1 1 1
v 0.38 0.74 -0.07 1 1 1 1
v 0.4 0.72 -0.07 1 1 1 1
v 0.38 0.74 -0.07 1 1 1 1
v 0.4 0.74 -0.07 1 1 1 1
v 0.38 0.72 -0.07 1 1 1 1
v 0.89 0.08 -0.07 1 1 1 1
v 0.89 0.06 -0.05 1 1 1 1
v 0.89 0.06 -0.07 1 1 1 1
v 0.89 0.08 -0.05 1 1 1 1
v 0.87 0.06 -0.07 1 1 1 1
v 0.87 0.08 -0.05 1 1 1 1
v 0.87 0.08 -0.07 1 1 1 1
v 0.87 0.06 -0.05 1 1 1 1
v 0.89 0.06 -0.07 1 1 1 1
v 0.89 0.04 -0.05 1 1 1 1
v 0.89 0.04 -0.07 1 1 1 1
v 0.89 0.06 -0.05 1 1 1 1
v 0.87 0.04 -0.07 1 1 1 1
v 0.87 0.06 -0.05 1 1 1 1
v 0.87 0.06 -0.07 1 1 1 1
v 0.87 0.04 -0.05 1 1 1 1
v 0.89 0.04 -0.07 1 1 1 1
v 0.89 0.02 -0.05 1 1 1 1
v 0.89 0.02 -0.07 1 1 1 1
v 0.89 0.04 -0.05 1 1 1 1
v 0.87 0.02 -0.07 1 1 1 1
v 0.87 0.04 -0.05 1 1 1 1
v 0.87 0.04 -0.07 1 1 1 1
v 0.87 0.02 -0.05 1 1 1 1
v 0.89 0.02 -0.07 1 1 1 1
v 0.89 0 -0.05 1 1 1 1
v 0.89 0 -0.07 1 1 1 1
v 0.89 0.02 -0.05 1 1 1 1
v 0.87 0 -0.07 1 1 1 1
v 0.87 0.02 -0.05 1 1 1 1
v 0.87 0.02 -0.07 1 1 1 1
v 0.87 0 -0.05 1 1 1 1
v 0.87 0 -0.05 1 1 1 1
v 0.89 0.02 -0.05 1 1 1 1
v 0.87 0.02 -0.05 1 1 1 1
v 0.89 0 -0.05 1 1 1 1
v 0.87 0.02 -0.05 1 1 1 1
v 0.89 0.04 -0.05 1 1 1 1
v 0.87 0.04 -0.05 1 1 1 1
v 0.89 0.02 -0.05 1 1 1 1
v 0.87 0.04 -0.05 1 1 1 1
v 0.89 0.06 -0.05 1 1 1 1
v 0.87 0.06 -0.05 1 1 1 1
v 0.89 0.04 -0.05 1 1 1 1
v 0.87 0.06 -0.05 1 1 1 1
v 0.89 0.08 -0.05 1 1 1 1
v 0.87 0.08 -0.05 1 1 1 1
v 0.89 0.06 -0.05 1 1 1 1
v 0.89 0 -0.07 1 1 1 1
v 0.87 0.02 -0.07 1 1 1 1
v 0.89 0.02 -0.07 1 1 1 1
v 0.87 0 -0.07 1 1 1 1
v 0.89 0.02 -0.07 1 1 1 1
v 0.87 0.04 -0.07 1 1 1 1
v 0.89 0.04 -0.07 1 1 1 1
v 0.87 0.02 -0.07 1 1 1 1
v 0.89 0.04 -0.07 1 1 1 1
v 0.87 0.06 -0.07 1 1 1 1
v 0.89 0.06 -0.07 1 1 1 1
v 0.87 0.04 -0.07 1 1 1 1
v 0.89 0.06 -0.07 1 1 1 1
v 0.87 0.08 -0.07 1 1 1 1
v 0.89 0.08 -0.07 1 1 1 1
v 0.87 0.06 -0.07 1 1 1 1
v 0.87 0.48 -0.05 1 1 1 1
v 0.89 0.5 -0.05 1 1 1 1
v 0.87 0.5 -0.05 1 1 1 1
v 0.89 0.48 -0.05 1 1 1 1
v 0.87 0.46 -0.05 1 1 1 1
v 0.89 0.48 -0.05 1 1 1 1
v 0.87 0.48 -0.05 1 1 1 1
v 0.89 0.46 -0.05 1 1 1 1
v 0.87 0.44 -0.05 1 1 1 1
v 0.89 0.46 -0.05 1 1 1 1
v 0.87 0.46 -0.05 1 1 1 1
v 0.89 0.44 -0.05 1 1 1 1
v 0.87 0.42 -0.05 1 1 1 1
v 0.89 0.44 -0.05 1 1 1 1
v 0.87 0.44 -0.05 1 1 1 1
v 0.89 0.42 -0.05 1 1 1 1
v 0.87 0.4 -0.05 1 1 1 1
v 0.89 0.42 -0.05 1 1 1 1
v 0.87 0.42 -0.05 1 1 1 1
v 0.89 0.4 -0.05 1 1 1 1
v 0.87 0.38 -0.05 1 1 1 1
v 0.89 0.4 -0.05 1 1 1 1
v 0.87 0.4 -0.05 1 1 1 1
v 0.89 0.38 -0.05 1 1 1 1
v 0.87 0.36 -0.05 1 1 1 1
v 0.89 0.38 -0.05 1 1 1 1
v 0.87 0.38 -0.05 1 1 1 1
v 0.89 0.36 -0.05 1 1 1 1
v 0.87 0.34 -0.05 1 1 1 1
v 0.89 0.36 -0.05 1 1 1 1
v 0.87 0.36 -0.05 1 1 1 1
v 0.89 0.34 -0.05 1 1 1 1
v 0.87 0.32 -0.05 1 1 1 1
v 0.89 0.34 -0.05 1 1 1 1
v 0.87 0.34 -0.05 1 1 1 1
v 0.89 0.32 -0.05 1 1 1 1
v 0.87 0.3 -0.05 1 1 1 1
v 0.89 0.32 -0.05 1 1 1 1
v 0.87 0.32 -0.05 1 1 1 1
v 0.89 0.3 -0.05 1 1 1 1
v 0.87 0.28 -0.05 1 1 1 1
v 0.89 0.3 -0.05 1 1 1 1
v 0.87 0.3 -0.05 1 1 1 1
v 0.89 0.28 -0.05 1 1 1 1
v 0.87 0.26 -0.05 1 1 1 1
v 0.89 0.28 -0.05 1 1 1 1
v 0.87 0.28 -0.05 1 1 1 1
v 0.89 0.26 -0.05 1 1 1 1
v 0.87 0.24 -0.05 1 1 1 1
v 0.89 0.26 -0.05 1 1 1 1
v 0.87 0.26 -0.05 1 1 1 1
v 0.89 0.24 -0.05 1 1 1 1
v 0.87 0.22 -0.05 1 1 1 1
v 0.89 0.24 -0.05 1 1 1 1
v 0.87 0.24 -0.05 1 1 1 1
v 0.89 0.22 -0.05 1 1 1 1
v 0.87 0.2 -0.05 1 1 1 1
v 0.89 0.22 -0.05 1 1 1 1
v 0.87 0.22 -0.05 1 1 1 1
v 0.89 0.2 -0.05 1 1 1 1
v 0.87 0.18 -0.05 1 1 1 1
v 0.89 0.2 -0.05 1 1 1 1
v 0.87 0.2 -0.05 1 1 1 1
v 0.89 0.18 -0.05 1 1 1 1
v 0.87 0.16 -0.05 1 1 1 1
v 0.89 0.18 -0.05 1 1 1 1
v 0.87 0.18 -0.05 1 1 1 1
v 0.89 0.16 -0.05 1 1 1 1
v 0.87 0.14 -0.05 1 1 1 1
v 0.89 0.16 -0.05 1 1 1 1
v 0.87 0.16 -0.05 1 1 1 1
v 0.89 0.14 -0.05 1 1 1 1
v 0.87 0.14 -0.07 1 1 1 1
v 0.87 0.16 -0.05 1 1 1 1
v 0.87 0.16 -0.07 1 1 1 1
v 0.87 0.14 -0.05 1 1 1 1
v 0.89 0.16 -0.07 1 1 1 1
v 0.89 0.14 -0.05 1 1 1 1
v 0.89 0.14 -0.07 1 1 1 1
v 0.89 0.16 -0.05 1 1 1 1
v 0.87 0.16 -0.07 1 1 1 1
v 0.87 0.18 -0.05 1 1 1 1
v 0.87 0.18 -0.07 1 1 1 1
v 0.87 0.16 -0.05 1 1 1 1
v 0.89 0.18 -0.07 1 1 1 1
v 0.89 0.16 -0.05 1 1 1 1
v 0.89 0.16 -0.07 1 1 1 1
v 0.89 0.18 -0.05 1 1 1 1
v 0.87 0.18 -0.07 1 1 1 1
v 0.87 0.2 -0.05 1 1 1 1
v 0.87 0.2 -0.07 1 1 1 1
v 0.87 0.18 -0.05 1 1 1 1
v 0.89 0.2 -0.07 1 1 1 1
v 0.89 0.18 -0.05 1 1 1 1
v 0.89 0.18 -0.07 1 1 1 1
v 0.89 0.2 -0.05 1 1 1 1
v 0.87 0.2 -0.07 1 1 1 1
v 0.87 0.22 -0.05 1 1 1 1
v 0.87 0.22 -0.07 1 1 1 1
v 0.87 0.2 -0.05 1 1 1 1
v 0.89 0.22 -0.07 1 1 1 1
v 0.89 0.2 -0.05 1 1 1 1
v 0.89 0.2 -0.07 1 1 1 1
v 0.89 0.22 -0.05 1 1 1 1
v 0.87 0.22 -0.07 1 1 1 1
v 0.87 0.24 -0.05 1 1 1 1
v 0.87 0.24 -0.07 1 1 1 1
v 0.87 0.22 -0.05 1 1 1 1
v 0.89 0.24 -0.07 1 1 1 1
v 0.89 0.22 -0.05 1 1 1 1
v 0.89 0.22 -0.07 1 1 1 1
v 0.89 0.24 -0.05 1 1 1 1
v 0.87 0.24 -0.07 1 1 1 1
v 0.87 0.26 -0.05 1 1 1 1
v 0.87 0.26 -0.07 1 1 1 1
v 0.87 0.24 -0.05 1 1 1 1
v 0.89 0.26 -0.07 1 1 1 1
v 0.89 0.24 -0.05 1 1 1 1
v 0.89 0.24 -0.07 1 1 1 1
v 0.89 0.26 -0.05 1 1 1 1
v 0.87 0.26 -0.07 1 1 1 1
v 0.87 0.28 -0.05 1 1 1 1
v 0.87 0.28 -0.07 1 1 1 1
v 0.87 0.26 -0.05 1 1 1 1
v 0.89 0.28 -0.07 1 1 1 1
v 0.89 0.26 -0.05 1 1 1 1
v 0.89 0.26 -0.07 1 1 1 1
v 0.89 0.28 -0.05 1 1 1 1
v 0.87 0.28 -0.07 1 1 1 1
v 0.87 0.3 -0.05 1 1 1 1
v 0.87 0.3 -0.07 1 1 1 1
v 0.87 0.28 -0.05 1 1 1 1
v 0.89 0.3 -0.07 1 1 1 1
v 0.89 0.28 -0.05 1 1 1 1
v 0.89 0.28 -0.07 1 1 1 1
v 0.89 0.3 -0.05 1 1 1 1
v 0.87 0.3 -0.07 1 1 1 1
v 0.87 0.32 -0.05 1 1 1 1
v 0.87 0.32 -0.07 1 1 1 1
v 0.87 0.3 -0.05 1 1 1 1
v 0.89 0.32 -0.07 1 1 1 1
v 0.89 0.3 -0.05 1 1 1 1
v 0.89 0.3 -0.07 1 1 1 1
v 0.89 0.32 -0.05 1 1 1 1
v 0.87 0.32 -0.07 1 1 1 1
v 0.87 0.34 -0.05 1 1 1 1
v 0.87 0.34 -0.07 1 1 1 1
v 0.87 0.32 -0.05 1 1 1 1
v 0.89 0.34 -0.07 1 1 1 1
v 0.89 0.32 -0.05 1 1 1 1
v 0.89 0.32 -0.07 1 1 1 1
v 0.89 0.34 -0.05 1 1 1 1
v 0.87 0.34 -0.07 1 1 1 1
v 0.87 0.36 -0.05 1 1 1 1
v 0.87 0.36 -0.07 1 1 1 1
v 0.87 0.34 -0.05 1 1 1 1
v 0.89 0.36 -0.07 1 1 1 1
v 0.89 0.34 -0.05 1 1 1 1
v 0.89 0.34 -0.07 1 1 1 1
v 0.89 0.36 -0.05 1 1 1 1
v 0.87 0.36 -0.07 1 1 1 1
v 0.87 0.38 -0.05 1 1 1 1
v 0.87 0.38 -0.07 1 1 1 1
v 0.87 0.36 -0.05 1 1 1 1
v 0.89 0.38 -0.07 1 1 1 1
v 0.89 0.36 -0.05 1 1 1 1
v 0.89 0.36 -0.07 1 1 1 1
v 0.89 0.38 -0.05 1 1 1 1
v 0.87 0.38 -0.07 1 1 1 1
v 0.87 0.4 -0.05 1 1 1 1
v 0.87 0.4 -0.07 1 1 1 1
v 0.87 0.38 -0.05 1 1 1 1
v 0.89 0.4 -0.07 1 1 1 1
v 0.89 0.38 -0.05 1 1 1 1
v 0.89 0.38 -0.07 1 1 1 1
v 0.89 0.4 -0.05 1 1 1 1
v 0.87 0.4 -0.07 1 1 1 1
v 0.87 0.42 -0.05 1 1 1 1
v 0.87 0.42 -0.07 1 1 1 1
v 0.87 0.4 -0.05 1 1 1 1
v 0.89 0.42 -0.07 1 1 1 1
v 0.89 0.4 -0.05 1 1 1 1
v 0.89 0.4 -0.07 1 1 1 1
v 0.89 0.42 -0.05 1 1 1 1
v 0.87 0.42 -0.07 1 1 1 1
v 0.87 0.44 -0.05 1 1 1 1
v 0.87 0.44 -0.07 1 1 1 1
v 0.87 0.42 -0.05 1 1 1 1
v 0.89 0.44 -0.07 1 1 1 1
v 0.89 0.42 -0.05 1 1 1 1
v 0.89 0.42 -0.07 1 1 1 1
v 0.89 0.44 -0.05 1 1 1 1
v 0.87 0.44 -0.07 1 1 1 1
v 0.87 0.46 -0.05 1 1 1 1
v 0.87 0.46 -0.07 1 1 1 1
v 0.87 0.44 -0.05 1 1 1 1
v 0.89 0.46 -0.07 1 1 1 1
v 0.89 0.44 -0.05 1 1 1 1
v 0.89 0.44 -0.07 1 1 1 1
v 0.89 0.46 -0.05 1 1 1 1
v 0.87 0.46 -0.07 1 1 1 1
v 0.87 0.48 -0.05 1 1 1 1
v 0.87 0.48 -0.07 1 1 1 1
v 0.87 0.46 -0.05 1 1 1 1
v 0.89 0.48 -0.07 1 1 1 1
v 0.89 0.46 -0.05 1 1 1 1
v 0.89 0.46 -0.07 1 1 1 1
v 0.89 0.48 -0.05 1 1 1 1
v 0.87 0.48 -0.07 1 1 1 1
v 0.87 0.5 -0.05 1 1 1 1
v 0.87 0.5 -0.07 1 1 1 1
v 0.87 0.48 -0.05 1 1 1 1
v 0.87 0.5 -0.07 1 1 1 1
v 0.89 0.5 -0.05 1 1 1 1
v 0.89 0.5 -0.07 1 1 1 1
v 0.87 0.5 -0.05 1 1 1 1
v 0.89 0.5 -0.07 1 1 1 1
v 0.89 0.48 -0.05 1 1 1 1
v 0.89 0.48 -0.07 1 1 1 1
v 0.89 0.5 -0.05 1 1 1 1
v 0.89 0.48 -0.07 1 1 1 1
v 0.87 0.5 -0.07 1 1 1 1
v 0.89 0.5 -0.07 1 1 1 1
v 0.87 0.48 -0.07 1 1 1 1
v 0.89 0.46 -0.07 1 1 1 1
v 0.87 0.48 -0.07 1 1 1 1
v 0.89 0.48 -0.07 1 1 1 1
v 0.87 0.46 -0.07 1 1 1 1
v 0.89 0.44 -0.07 1 1 1 1
v 0.87 0.46 -0.07 1 1 1 1
v 0.89 0.46 -0.07 1 1 1 1
v 0.87 0.44 -0.07 1 1 1 1
v 0.89 0.42 -0.07 1 1 1 1
v 0.87 0.44 -0.07 1 1 1 1
v 0.89 0.44 -0.07 1 1 1 1
v 0.87 0.42 -0.07 1 1 1 1
v 0.89 0.4 -0.07 1 1 1 1
v 0.87 0.42 -0.07 1 1 1 1
v 0.89 0.42 -0.07 1 1 1 1
v 0.87 0.4 -0.07 1 1 1 1
v 0.89 0.38 -0.07 1 1 1 1
v 0.87 0.4 -0.07 1 1 1 1
v 0.89 0.4 -0.07 1 1 1 1
v 0.87 0.38 -0.07 1 1 1 1
v 0.89 0.36 -0.07 1 1 1 1
v 0.87 0.38 -0.07 1 1 1 1
v 0.89 0.38 -0.07 1 1 1 1
v 0.87 0.36 -0.07 1 1 1 1
v 0.89 0.34 -0.07 1 1 1 1
v 0.87 0.36 -0.07 1 1 1 1
v 0.89 0.36 -0.07 1 1 1 1
v 0.87 0.34 -0.07 1 1 1 1
v 0.89 0.32 -0.07 1 1 1 1
v 0.87 0.34 -0.07 1 1 1 1
v 0.89 0.34 -0.07 1 1 1 1
v 0.87 0.32 -0.07 1 1 1 1
v 0.89 0.3 -0.07 1 1 1 1
v 0.87 0.32 -0.07 1 1 1 1
v 0.89 0.32 -0.07 1 1 1 1
v 0.87 0.3 -0.07 1 1 1 1
v 0.89 0.28 -0.07 1 1 1 1
v 0.87 0.3 -0.07 1 1 1 1
v 0.89 0.3 -0.07 1 1 1 1
v 0.87 0.28 -0.07 1 1 1 1
v 0.89 0.26 -0.07 1 1 1 1
v 0.87 0.28 -0.07 1 1 1 1
v 0.89 0.28 -0.07 1 1 1 1
v 0.87 0.26 -0.07 1 1 1 1
v 0.89 0.24 -0.07 1 1 1 1
v 0.87 0.26 -0.07 1 1 1 1
v 0.89 0.26 -0.07 1 1 1 1
v 0.87 0.24 -0.07 1 1 1 1
v 0.89 0.22 -0.07 1 1 1 1
v 0.87 0.24 -0.07 1 1 1 1
v 0.89 0.24 -0.07 1 1 1 1
v 0.87 0.22 -0.07 1 1 1 1
v 0.89 0.2 -0.07 1 1 1 1
v 0.87 0.22 -0.07 1 1 1 1
v 0.89 0.22 -0.07 1 1 1 1
v 0.87 0.2 -0.07 1 1 1 1
v 0.89 0.18 -0.07 1 1 1 1
v 0.87 0.2 -0.07 1 1 1 1
v 0.89 0.2 -0.07 1 1 1 1
v 0.87 0.18 -0.07 1 1 1 1
v 0.89 0.16 -0.07 1 1 1 1
v 0.87 0.18 -0.07 1 1 1 1
v 0.89 0.18 -0.07 1 1 1 1
v 0.87 0.16 -0.07 1 1 1 1
v 0.89 0.14 -0.07 1 1 1 1
v 0.87 0.16 -0.07 1 1 1 1
v 0.89 0.16 -0.07 1 1 1 1
v 0.87 0.14 -0.07 1 1 1 1
v 0.89 0.14 -0.07 1 1 1 1
v 0.89 0.12 -0.05 1 1 1 1
v 0.89 0.12 -0.07 1 1 1 1
v 0.89 0.14 -0.05 1 1 1 1
v 0.87 0.12 -0.07 1 1 1 1
v 0.87 0.14 -0.05 1 1 1 1
v 0.87 0.14 -0.07 1 1 1 1
v 0.87 0.12 -0.05 1 1 1 1
v 0.89 0.12 -0.07 1 1 1 1
v 0.89 0.1 -0.05 1 1 1 1
v 0.89 0.1 -0.07 1 1 1 1
v 0.89 0.12 -0.05 1 1 1 1
v 0.87 0.1 -0.07 1 1 1 1
v 0.87 0.12 -0.05 1 1 1 1
v 0.87 0.12 -0.07 1 1 1 1
v 0.87 0.1 -0.05 1 1 1 1
v 0.89 0.08 -0.07 1 1 1 1
v 0.87 0.08 -0.05 1 1 1 1
v 0.87 0.08 -0.07 1 1 1 1
v 0.89 0.08 -0.05 1 1 1 1
v 0.89 0.1 -0.07 1 1 1 1
v 0.89 0.08 -0.05 1 1 1 1
v 0.89 0.08 -0.07 1 1 1 1
v 0.89 0.1 -0.05 1 1 1 1
v 0.87 0.08 -0.07 1 1 1 1
v 0.87 0.1 -0.05 1 1 1 1
v 0.87 0.1 -0.07 1 1 1 1
v 0.87 0.08 -0.05 1 1 1 1
v 0.87 0.08 -0.05 1 1 1 1
v 0.89 0.1 -0.05 1 1 1 1
v 0.87 0.1 -0.05 1 1 1 1
v 0.89 0.08 -0.05 1 1 1 1
v 0.87 0.1 -0.05 1 1 1 1
v 0.89 0.12 -0.05 1 1 1 1
v 0.87 0.12 -0.05 1 1 1 1
v 0.89 0.1 -0.05 1 1 1 1
v 0.87 0.12 -0.05 1 1 1 1
v 0.89 0.14 -0.05 1 1 1 1
v 0.87 0.14 -0.05 1 1 1 1
v 0.89 0.12 -0.05 1 1 1 1
v 0.89 0.08 -0.07 1 1 1 1
v 0.87 0.1 -0.07 1 1 1 1
v 0.89 0.1 -0.07 1 1 1 1
v 0.87 0.08 -0.07 1 1 1 1
v 0.89 0.1 -0.07 1 1 1 1
v 0.87 0.12 -0.07 1 1 1 1
v 0.89 0.12 -0.07 1 1 1 1
v 0.87 0.1 -0.07 1 1 1 1
v 0.89 0.12 -0.07 1 1 1 1
v 0.87 0.14 -0.07 1 1 1 1
v 0.89 0.14 -0.07 1 1 1 1
v 0.87 0.12 -0.07 1 1 1 1
vt 0 0
vt 0.25 0.0625
vt 0 0.0625
vt 0.25 0
vt 0 0.75
vt 0.75 0.875
vt 0 0.875
vt 0.75 0.75
vt 0.0078125 0.75
vt 0 0.7421875
vt 0.0078125 0.7421875
vt 0.734375 0.75
vt 0.734375 0.875
vt 0 0.859375
vt 0.75 0.859375
vt 0.4375 0.875
vt 0.796875 1
vt 0.4375 1
vt 0.796875 0.875
vt 0.359375 0.078125
vt 0 0.078125
vt 0.359375 0.0625
vt 0.125 0.078125
vt 0.125 0.0625
vt 0.25 1
vt 0 1
vt 0.25 0.875
vt 0.25 0.09375
vt 0 0.09375
vt 0.25 0.078125
vt 0 0.625
vt 0.4375 0.625
vt 0.4375 0.75
vt 0.6875 0.0625
vt 0.6875 0
vn 0 0 1
vn 0 1 0
vn 1 0 0
vn -1 0 0
vn 0 -1 0
vn 0 0 0
vn -0.27472113 0 0.96152395
vn 0 0 -1
g Scene
usemtl 0
f 1/1/1 3/2/1 2/3/1
f 1/1/1 4/4/1 3/2/1
f 5/1/1 6/2/1 7/3/1
f 5/1/1 8/4/1 6/2/1
f 9/1/1 10/2/1 11/3/1
f 9/1/1 12/4/1 10/2/1
f 13/5/2 14/6/2 15/7/2
f 13/5/2 16/8/2 14/6/2
f 17/9/2 18/10/2 19/11/2
f 17/9/2 20/5/2 18/10/2
f 21/12/2 22/6/2 23/13/2
f 21/12/2 24/8/2 22/6/2
f 25/14/1 26/6/1 27/7/1
f 25/14/1 28/15/1 26/6/1
f 29/5/3 30/6/3 31/7/3
f 29/5/3 32/8/3 30/6/3
f 33/5/4 34/6/4 35/7/4
f 33/5/4 36/8/4 34/6/4
f 37/12/2 38/6/2 39/13/2
f 37/12/2 40/8/2 38/6/2
f 41/14/1 42/6/1 43/7/1
f 41/14/1 44/15/1 42/6/1
f 45/5/3 46/6/3 47/7/3
f 45/5/3 48/8/3 46/6/3
f 49/5/4 50/6/4 51/7/4
f 49/5/4 52/8/4 50/6/4
f 53/5/2 54/6/2 55/7/2
f 53/5/2 56/8/2 54/6/2
f 57/5/5 58/6/5 59/7/5
f 57/5/5 60/8/5 58/6/5
f 61/14/1 62/6/1 63/7/1
f 61/14/1 64/15/1 62/6/1
f 65/16/2 66/17/2 67/18/2
f 65/16/2 68/19/2 66/17/2
f 69/3/1 70/20/1 71/21/1
f 69/3/1 72/22/1 70/20/1
f 73/3/3 74/23/3 75/21/3
f 73/3/3 76/24/3 74/23/3
f 77/3/4 78/23/4 79/21/4
f 77/3/4 80/24/4 78/23/4
f 81/16/5 82/17/5 83/18/5
f 81/16/5 84/19/5 82/17/5
f 85/7/2 86/25/2 87/26/2
f 85/7/2 88/27/2 86/25/2
f 89/3/4 90/23/4 91/21/4
f 89/3/4 92/24/4 90/23/4
f 93/3/3 94/23/3 95/21/3
f 93/3/3 96/24/3 94/23/3
f 97/21/1 98/28/1 99/29/1
f 97/21/1 100/30/1 98/28/1
f 101/7/5 102/25/5 103/26/5
f 101/7/5 104/27/5 102/25/5
f 105/7/2 106/25/2 107/26/2
f 105/7/2 108/27/2 106/25/2
f 109/3/4 110/23/4 111/21/4
f 109/3/4 112/24/4 110/23/4
f 113/3/3 114/23/3 115/21/3
f 113/3/3 116/24/3 114/23/3
f 117/21/1 118/28/1 119/29/1
f 117/21/1 120/30/1 118/28/1
f 121/7/5 122/25/5 123/26/5
f 121/7/5 124/27/5 122/25/5
f 125/7/2 126/25/2 127/26/2
f 125/7/2 128/27/2 126/25/2
f 129/3/4 130/23/4 131/21/4
f 129/3/4 132/24/4 130/23/4
f 133/3/3 134/23/3 135/21/3
f 133/3/3 136/24/3 134/23/3
f 137/21/1 138/28/1 139/29/1
f 137/21/1 140/30/1 138/28/1
f 141/7/5 142/25/5 143/26/5
f 141/7/5 144/27/5 142/25/5
f 145/7/2 146/25/2 147/26/2
f 145/7/2 148/27/2 146/25/2
f 149/3/4 150/23/4 151/21/4
f 149/3/4 152/24/4 150/23/4
f 153/3/3 154/23/3 155/21/3
f 153/3/3 156/24/3 154/23/3
f 157/21/1 158/28/1 159/29/1
f 157/21/1 160/30/1 158/28/1
f 161/7/5 162/25/5 163/26/5
f 161/7/5 164/27/5 162/25/5
f 165/31/6 166/32/6 167/5/6
f 166/32/2 168/33/2 167/5/2
f 169/4/7 170/34/7 171/2/7
f 169/4/7 172/35/7 170/34/7
f 173/11/1 174/5/1 175/10/1
f 173/11/1 176/9/1 174/5/1
f 177/11/1 178/5/1 179/10/1
f 177/11/1 180/9/1 178/5/1
f 181/11/1 182/5/1 183/10/1
f 181/11/1 184/9/1 182/5/1
f 185/11/1 186/5/1 187/10/1
f 185/11/1 188/9/1 186/5/1
f 189/11/1 190/5/1 191/10/1
f 189/11/1 192/9/1 190/5/1
f 193/11/1 194/5/1 195/10/1
f 193/11/1 196/9/1 194/5/1
f 197/11/1 198/5/1 199/10/1
f 197/11/1 200/9/1 198/5/1
f 201/11/1 202/5/1 203/10/1
f 201/11/1 204/9/1 202/5/1
f 205/11/1 206/5/1 207/10/1
f 205/11/1 208/9/1 206/5/1
f 209/11/1 210/5/1 211/10/1
f 209/11/1 212/9/1 210/5/1
f 213/11/1 214/5/1 215/10/1
f 213/11/1 216/9/1 214/5/1
f 217/11/1 218/5/1 219/10/1
f 217/11/1 220/9/1 218/5/1
f 221/11/1 222/5/1 223/10/1
f 221/11/1 224/9/1 222/5/1
f 225/11/1 226/5/1 227/10/1
f 225/11/1 228/9/1 226/5/1
f 229/11/1 230/5/1 231/10/1
f 229/11/1 232/9/1 230/5/1
f 233/11/1 234/5/1 235/10/1
f 233/11/1 236/9/1 234/5/1
f 237/11/1 238/5/1 239/10/1
f 237/11/1 240/9/1 238/5/1
f 241/11/1 242/5/1 243/10/1
f 241/11/1 244/9/1 242/5/1
f 245/9/4 246/10/4 247/11/4
f 245/9/4 248/5/4 246/10/4
f 249/9/3 250/10/3 251/11/3
f 249/9/3 252/5/3 250/10/3
f 253/9/4 254/10/4 255/11/4
f 253/9/4 256/5/4 254/10/4
f 257/9/3 258/10/3 259/11/3
f 257/9/3 260/5/3 258/10/3
f 261/9/4 262/10/4 263/11/4
f 261/9/4 264/5/4 262/10/4
f 265/9/3 266/10/3 267/11/3
f 265/9/3 268/5/3 266/10/3
f 269/9/4 270/10/4 271/11/4
f 269/9/4 272/5/4 270/10/4
f 273/9/3 274/10/3 275/11/3
f 273/9/3 276/5/3 274/10/3
f 277/9/4 278/10/4 279/11/4
f 277/9/4 280/5/4 278/10/4
f 281/9/3 282/10/3 283/11/3
f 281/9/3 284/5/3 282/10/3
f 285/9/4 286/10/4 287/11/4
f 285/9/4 288/5/4 286/10/4
f 289/9/3 290/10/3 291/11/3
f 289/9/3 292/5/3 290/10/3
f 293/9/4 294/10/4 295/11/4
f 293/9/4 296/5/4 294/10/4
f 297/9/3 298/10/3 299/11/3
f 297/9/3 300/5/3 298/10/3
f 301/9/4 302/10/4 303/11/4
f 301/9/4 304/5/4 302/10/4
f 305/9/3 306/10/3 307/11/3
f 305/9/3 308/5/3 306/10/3
f 309/9/4 310/10/4 311/11/4
f 309/9/4 312/5/4 310/10/4
f 313/9/3 314/10/3 315/11/3
f 313/9/3 316/5/3 314/10/3
f 317/9/4 318/10/4 319/11/4
f 317/9/4 320/5/4 318/10/4
f 321/9/3 322/10/3 323/11/3
f 321/9/3 324/5/3 322/10/3
f 325/9/4 326/10/4 327/11/4
f 325/9/4 328/5/4 326/10/4
f 329/9/3 330/10/3 331/11/3
f 329/9/3 332/5/3 330/10/3
f 333/9/4 334/10/4 335/11/4
f 333/9/4 336/5/4 334/10/4
f 337/9/3 338/10/3 339/11/3
f 337/9/3 340/5/3 338/10/3
f 341/9/4 342/10/4 343/11/4
f 341/9/4 344/5/4 342/10/4
f 345/9/3 346/10/3 347/11/3
f 345/9/3 348/5/3 346/10/3
f 349/9/4 350/10/4 351/11/4
f 349/9/4 352/5/4 350/10/4
f 353/9/3 354/10/3 355/11/3
f 353/9/3 356/5/3 354/10/3
f 357/9/4 358/10/4 359/11/4
f 357/9/4 360/5/4 358/10/4
f 361/9/3 362/10/3 363/11/3
f 361/9/3 364/5/3 362/10/3
f 365/9/4 366/10/4 367/11/4
f 365/9/4 368/5/4 366/10/4
f 369/9/3 370/10/3 371/11/3
f 369/9/3 372/5/3 370/10/3
f 373/9/4 374/10/4 375/11/4
f 373/9/4 376/5/4 374/10/4
f 377/9/3 378/10/3 379/11/3
f 377/9/3 380/5/3 378/10/3
f 381/9/4 382/10/4 383/11/4
f 381/9/4 384/5/4 382/10/4
f 385/9/2 386/10/2 387/11/2
f 385/9/2 388/5/2 386/10/2
f 389/9/3 390/10/3 391/11/3
f 389/9/3 392/5/3 390/10/3
f 393/11/8 394/5/8 395/10/8
f 393/11/8 396/9/8 394/5/8
f 397/11/8 398/5/8 399/10/8
f 397/11/8 400/9/8 398/5/8
f 401/11/8 402/5/8 403/10/8
f 401/11/8 404/9/8 402/5/8
f 405/11/8 406/5/8 407/10/8
f 405/11/8 408/9/8 406/5/8
f 409/11/8 410/5/8 411/10/8
f 409/11/8 412/9/8 410/5/8
f 413/11/8 414/5/8 415/10/8
f 413/11/8 416/9/8 414/5/8
f 417/11/8 418/5/8 419/10/8
f 417/11/8 420/9/8 418/5/8
f 421/11/8 422/5/8 423/10/8
f 421/11/8 424/9/8 422/5/8
f 425/11/8 426/5/8 427/10/8
f 425/11/8 428/9/8 426/5/8
f 429/11/8 430/5/8 431/10/8
f 429/11/8 432/9/8 430/5/8
f 433/11/8 434/5/8 435/10/8
f 433/11/8 436/9/8 434/5/8
f 437/11/8 438/5/8 439/10/8
f 437/11/8 440/9/8 438/5/8
f 441/11/8 442/5/8 443/10/8
f 441/11/8 444/9/8 442/5/8
f 445/11/8 446/5/8 447/10/8
f 445/11/8 448/9/8 446/5/8
f 449/11/8 450/5/8 451/10/8
f 449/11/8 452/9/8 450/5/8
f 453/11/8 454/5/8 455/10/8
f 453/11/8 456/9/8 454/5/8
f 457/11/8 458/5/8 459/10/8
f 457/11/8 460/9/8 458/5/8
f 461/11/8 462/5/8 463/10/8
f 461/11/8 464/9/8 462/5/8
f 465/11/1 466/5/1 467/10/1
f 465/11/1 468/9/1 466/5/1
f 469/9/3 470/10/3 471/11/3
f 469/9/3 472/5/3 470/10/3
f 473/11/1 474/5/1 475/10/1
f 473/11/1 476/9/1 474/5/1
f 477/11/1 478/5/1 479/10/1
f 477/11/1 480/9/1 478/5/1
f 481/11/1 482/5/1 483/10/1
f 481/11/1 484/9/1 482/5/1
f 485/9/4 486/10/4 487/11/4
f 485/9/4 488/5/4 486/10/4
f 489/11/1 490/5/1 491/10/1
f 489/11/1 492/9/1 490/5/1
f 493/11/1 494/5/1 495/10/1
f 493/11/1 496/9/1 494/5/1
f 497/11/1 498/5/1 499/10/1
f 497/11/1 500/9/1 498/5/1
f 501/11/1 502/5/1 503/10/1
f 501/11/1 504/9/1 502/5/1
f 505/11/8 506/5/8 507/10/8
f 505/11/8 508/9/8 506/5/8
f 509/11/8 510/5/8 511/10/8
f 509/11/8 512/9/8 510/5/8
f 513/11/8 514/5/8 515/10/8
f 513/11/8 516/9/8 514/5/8
f 517/11/8 518/5/8 519/10/8
f 517/11/8 520/9/8 518/5/8
f 521/11/8 522/5/8 523/10/8
f 521/11/8 524/9/8 522/5/8
f 525/11/8 526/5/8 527/10/8
f 525/11/8 528/9/8 526/5/8
f 529/11/8 530/5/8 531/10/8
f 529/11/8 532/9/8 530/5/8
f 533/11/8 534/5/8 535/10/8
f 533/11/8 536/9/8 534/5/8
f 537/9/3 538/10/3 539/11/3
f 537/9/3 540/5/3 538/10/3
f 541/9/4 542/10/4 543/11/4
f 541/9/4 544/5/4 542/10/4
f 545/9/3 546/10/3 547/11/3
f 545/9/3 548/5/3 546/10/3
f 549/9/4 550/10/4 551/11/4
f 549/9/4 552/5/4 550/10/4
f 553/9/3 554/10/3 555/11/3
f 553/9/3 556/5/3 554/10/3
f 557/9/4 558/10/4 559/11/4
f 557/9/4 560/5/4 558/10/4
f 561/9/3 562/10/3 563/11/3
f 561/9/3 564/5/3 562/10/3
f 565/9/4 566/10/4 567/11/4
f 565/9/4 568/5/4 566/10/4
f 569/9/3 570/10/3 571/11/3
f 569/9/3 572/5/3 570/10/3
f 573/9/4 574/10/4 575/11/4
f 573/9/4 576/5/4 574/10/4
f 577/9/3 578/10/3 579/11/3
f 577/9/3 580/5/3 578/10/3
f 581/9/4 582/10/4 583/11/4
f 581/9/4 584/5/4 582/10/4
f 585/9/3 586/10/3 587/11/3
f 585/9/3 588/5/3 586/10/3
f 589/9/4 590/10/4 591/11/4
f 589/9/4 592/5/4 590/10/4
f 593/11/1 594/5/1 595/10/1
f 593/11/1 596/9/1 594/5/1
f 597/9/3 598/10/3 599/11/3
f 597/9/3 600/5/3 598/10/3
f 601/11/1 602/5/1 603/10/1
f 601/11/1 604/9/1 602/5/1
f 605/11/1 606/5/1 607/10/1
f 605/11/1 608/9/1 606/5/1
f 609/11/1 610/5/1 611/10/1
f 609/11/1 612/9/1 610/5/1
f 613/9/4 614/10/4 615/11/4
f 613/9/4 616/5/4 614/10/4
f 617/11/1 618/5/1 619/10/1
f 617/11/1 620/9/1 618/5/1
f 621/11/1 622/5/1 623/10/1
f 621/11/1 624/9/1 622/5/1
f 625/11/1 626/5/1 627/10/1
f 625/11/1 628/9/1 626/5/1
f 629/11/1 630/5/1 631/10/1
f 629/11/1 632/9/1 630/5/1
f 633/11/8 634/5/8 635/10/8
f 633/11/8 636/9/8 634/5/8
f 637/11/8 638/5/8 639/10/8
f 637/11/8 640/9/8 638/5/8
f 641/11/8 642/5/8 643/10/8
f 641/11/8 644/9/8 642/5/8
f 645/11/8 646/5/8 647/10/8
f 645/11/8 648/9/8 646/5/8
f 649/11/8 650/5/8 651/10/8
f 649/11/8 652/9/8 650/5/8
f 653/11/8 654/5/8 655/10/8
f 653/11/8 656/9/8 654/5/8
f 657/11/8 658/5/8 659/10/8
f 657/11/8 660/9/8 658/5/8
f 661/11/8 662/5/8 663/10/8
f 661/11/8 664/9/8 662/5/8
f 665/9/3 666/10/3 667/11/3
f 665/9/3 668/5/3 666/10/3
f 669/9/4 670/10/4 671/11/4
f 669/9/4 672/5/4 670/10/4
f 673/9/3 674/10/3 675/11/3
f 673/9/3 676/5/3 674/10/3
f 677/9/4 678/10/4 679/11/4
f 677/9/4 680/5/4 678/10/4
f 681/9/3 682/10/3 683/11/3
f 681/9/3 684/5/3 682/10/3
f 685/9/4 686/10/4 687/11/4
f 685/9/4 688/5/4 686/10/4
f 689/9/3 690/10/3 691/11/3
f 689/9/3 692/5/3 690/10/3
f 693/9/4 694/10/4 695/11/4
f 693/9/4 696/5/4 694/10/4
f 697/9/3 698/10/3 699/11/3
f 697/9/3 700/5/3 698/10/3
f 701/9/4 702/10/4 703/11/4
f 701/9/4 704/5/4 702/10/4
f 705/9/3 706/10/3 707/11/3
f 705/9/3 708/5/3 706/10/3
f 709/9/4 710/10/4 711/11/4
f 709/9/4 712/5/4 710/10/4
f 713/9/3 714/10/3 715/11/3
f 713/9/3 716/5/3 714/10/3
f 717/9/4 718/10/4 719/11/4
f 717/9/4 720/5/4 718/10/4
f 721/11/8 722/5/8 723/10/8
f 721/11/8 724/9/8 722/5/8
f 725/11/8 726/5/8 727/10/8
f 725/11/8 728/9/8 726/5/8
f 729/11/8 730/5/8 731/10/8
f 729/11/8 732/9/8 730/5/8
f 733/11/8 734/5/8 735/10/8
f 733/11/8 736/9/8 734/5/8
f 737/11/8 738/5/8 739/10/8
f 737/11/8 740/9/8 738/5/8
f 741/11/8 742/5/8 743/10/8
f 741/11/8 744/9/8 742/5/8
f 745/11/8 746/5/8 747/10/8
f 745/11/8 748/9/8 746/5/8
f 749/11/8 750/5/8 751/10/8
f 749/11/8 752/9/8 750/5/8
f 753/11/8 754/5/8 755/10/8
f 753/11/8 756/9/8 754/5/8
f 757/11/8 758/5/8 759/10/8
f 757/11/8 760/9/8 758/5/8
f 761/11/8 762/5/8 763/10/8
f 761/11/8 764/9/8 762/5/8
f 765/11/8 766/5/8 767/10/8
f 765/11/8 768/9/8 766/5/8
f 769/11/8 770/5/8 771/10/8
f 769/11/8 772/9/8 770/5/8
f 773/11/8 774/5/8 775/10/8
f 773/11/8 776/9/8 774/5/8
f 777/11/8 778/5/8 779/10/8
f 777/11/8 780/9/8 778/5/8
f 781/11/1 782/5/1 783/10/1
f 781/11/1 784/9/1 782/5/1
f 785/11/1 786/5/1 787/10/1
f 785/11/1 788/9/1 786/5/1
f 789/11/1 790/5/1 791/10/1
f 789/11/1 792/9/1 790/5/1
f 793/11/1 794/5/1 795/10/1
f 793/11/1 796/9/1 794/5/1
f 797/11/1 798/5/1 799/10/1
f 797/11/1 800/9/1 798/5/1
f 801/11/1 802/5/1 803/10/1
f 801/11/1 804/9/1 802/5/1
f 805/11/1 806/5/1 807/10/1
f 805/11/1 808/9/1 806/5/1
f 809/11/1 810/5/1 811/10/1
f 809/11/1 812/9/1 810/5/1
f 813/11/1 814/5/1 815/10/1
f 813/11/1 816/9/1 814/5/1
f 817/11/1 818/5/1 819/10/1
f 817/11/1 820/9/1 818/5/1
f 821/9/3 822/10/3 823/11/3
f 821/9/3 824/5/3 822/10/3
f 825/9/4 826/10/4 827/11/4
f 825/9/4 828/5/4 826/10/4
f 829/9/3 830/10/3 831/11/3
f 829/9/3 832/5/3 830/10/3
f 833/9/4 834/10/4 835/11/4
f 833/9/4 836/5/4 834/10/4
f 837/9/3 838/10/3 839/11/3
f 837/9/3 840/5/3 838/10/3
f 841/9/4 842/10/4 843/11/4
f 841/9/4 844/5/4 842/10/4
f 845/9/3 846/10/3 847/11/3
f 845/9/3 848/5/3 846/10/3
f 849/9/4 850/10/4 851/11/4
f 849/9/4 852/5/4 850/10/4
f 853/9/3 854/10/3 855/11/3
f 853/9/3 856/5/3 854/10/3
f 857/9/4 858/10/4 859/11/4
f 857/9/4 860/5/4 858/10/4
f 861/9/3 862/10/3 863/11/3
f 861/9/3 864/5/3 862/10/3
f 865/9/4 866/10/4 867/11/4
f 865/9/4 868/5/4 866/10/4
f 869/9/3 870/10/3 871/11/3
f 869/9/3 872/5/3 870/10/3
f 873/9/4 874/10/4 875/11/4
f 873/9/4 876/5/4 874/10/4
f 877/9/3 878/10/3 879/11/3
f 877/9/3 880/5/3 878/10/3
f 881/9/4 882/10/4 883/11/4
f 881/9/4 884/5/4 882/10/4
f 885/9/3 886/10/3 887/11/3
f 885/9/3 888/5/3 886/10/3
f 889/9/4 890/10/4 891/11/4
f 889/9/4 892/5/4 890/10/4
f 893/9/3 894/10/3 895/11/3
f 893/9/3 896/5/3 894/10/3
f 897/9/4 898/10/4 899/11/4
f 897/9/4 900/5/4 898/10/4
f 901/9/3 902/10/3 903/11/3
f 901/9/3 904/5/3 902/10/3
f 905/9/4 906/10/4 907/11/4
f 905/9/4 908/5/4 906/10/4
f 909/9/3 910/10/3 911/11/3
f 909/9/3 912/5/3 910/10/3
f 913/9/4 914/10/4 915/11/4
f 913/9/4 916/5/4 914/10/4
f 917/9/3 918/10/3 919/11/3
f 917/9/3 920/5/3 918/10/3
f 921/9/4 922/10/4 923/11/4
f 921/9/4 924/5/4 922/10/4
f 925/9/3 926/10/3 927/11/3
f 925/9/3 928/5/3 926/10/3
f 929/9/4 930/10/4 931/11/4
f 929/9/4 932/5/4 930/10/4
f 933/9/3 934/10/3 935/11/3
f 933/9/3 936/5/3 934/10/3
f 937/9/4 938/10/4 939/11/4
f 937/9/4 940/5/4 938/10/4
f 941/11/1 942/5/1 943/10/1
f 941/11/1 944/9/1 942/5/1
f 945/11/1 946/5/1 947/10/1
f 945/11/1 948/9/1 946/5/1
f 949/11/1 950/5/1 951/10/1
f 949/11/1 952/9/1 950/5/1
f 953/11/1 954/5/1 955/10/1
f 953/11/1 956/9/1 954/5/1
f 957/11/1 958/5/1 959/10/1
f 957/11/1 960/9/1 958/5/1
f 961/11/1 962/5/1 963/10/1
f 961/11/1 964/9/1 962/5/1
f 965/11/1 966/5/1 967/10/1
f 965/11/1 968/9/1 966/5/1
f 969/11/8 970/5/8 971/10/8
f 969/11/8 972/9/8 970/5/8
f 973/11/8 974/5/8 975/10/8
f 973/11/8 976/9/8 974/5/8
f 977/11/8 978/5/8 979/10/8
f 977/11/8 980/9/8 978/5/8
f 981/11/8 982/5/8 983/10/8
f 981/11/8 984/9/8 982/5/8
f 985/11/8 986/5/8 987/10/8
f 985/11/8 988/9/8 986/5/8
f 989/11/8 990/5/8 991/10/8
f 989/11/8 992/9/8 990/5/8
f 993/11/8 994/5/8 995/10/8
f 993/11/8 996/9/8 994/5/8
f 997/11/8 998/5/8 999/10/8
f 997/11/8 1000/9/8 998/5/8
f 1001/11/8 1002/5/8 1003/10/8
f 1001/11/8 1004/9/8 1002/5/8
f 1005/9/4 1006/10/4 1007/11/4
f 1005/9/4 1008/5/4 1006/10/4
f 1009/9/3 1010/10/3 1011/11/3
f 1009/9/3 1012/5/3 1010/10/3
f 1013/9/4 1014/10/4 1015/11/4
f 1013/9/4 1016/5/4 1014/10/4
f 1017/9/3 1018/10/3 1019/11/3
f 1017/9/3 1020/5/3 1018/10/3
f 1021/9/4 1022/10/4 1023/11/4
f 1021/9/4 1024/5/4 1022/10/4
f 1025/9/3 1026/10/3 1027/11/3
f 1025/9/3 1028/5/3 1026/10/3
f 1029/9/4 1030/10/4 1031/11/4
f 1029/9/4 1032/5/4 1030/10/4
f 1033/9/3 1034/10/3 1035/11/3
f 1033/9/3 1036/5/3 1034/10/3
f 1037/9/4 1038/10/4 1039/11/4
f 1037/9/4 1040/5/4 1038/10/4
f 1041/9/3 1042/10/3 1043/11/3
f 1041/9/3 1044/5/3 1042/10/3
f 1045/9/4 1046/10/4 1047/11/4
f 1045/9/4 1048/5/4 1046/10/4
f 1049/9/3 1050/10/3 1051/11/3
f 1049/9/3 1052/5/3 1050/10/3
f 1053/9/4 1054/10/4 1055/11/4
f 1053/9/4 1056/5/4 1054/10/4
f 1057/9/3 1058/10/3 1059/11/3
f 1057/9/3 1060/5/3 1058/10/3
f 1061/9/4 1062/10/4 1063/11/4
f 1061/9/4 1064/5/4 1062/10/4
f 1065/9/3 1066/10/3 1067/11/3
f 1065/9/3 1068/5/3 1066/10/3
f 1069/9/4 1070/10/4 1071/11/4
f 1069/9/4 1072/5/4 1070/10/4
f 1073/9/3 1074/10/3 1075/11/3
f 1073/9/3 1076/5/3 1074/10/3
f 1077/9/4 1078/10/4 1079/11/4
f 1077/9/4 1080/5/4 1078/10/4
f 1081/9/3 1082/10/3 1083/11/3
f 1081/9/3 1084/5/3 1082/10/3
f 1085/9/4 1086/10/4 1087/11/4
f 1085/9/4 1088/5/4 1086/10/4
f 1089/9/3 1090/10/3 1091/11/3
f 1089/9/3 1092/5/3 1090/10/3
f 1093/9/4 1094/10/4 1095/11/4
f 1093/9/4 1096/5/4 1094/10/4
f 1097/9/3 1098/10/3 1099/11/3
f 1097/9/3 1100/5/3 1098/10/3
f 1101/11/1 1102/5/1 1103/10/1
f 1101/11/1 1104/9/1 1102/5/1
f 1105/11/1 1106/5/1 1107/10/1
f 1105/11/1 1108/9/1 1106/5/1
f 1109/11/1 1110/5/1 1111/10/1
f 1109/11/1 1112/9/1 1110/5/1
f 1113/11/1 1114/5/1 1115/10/1
f 1113/11/1 1116/9/1 1114/5/1
f 1117/11/1 1118/5/1 1119/10/1
f 1117/11/1 1120/9/1 1118/5/1
f 1121/11/1 1122/5/1 1123/10/1
f 1121/11/1 1124/9/1 1122/5/1
f 1125/11/1 1126/5/1 1127/10/1
f 1125/11/1 1128/9/1 1126/5/1
f 1129/11/1 1130/5/1 1131/10/1
f 1129/11/1 1132/9/1 1130/5/1
f 1133/11/1 1134/5/1 1135/10/1
f 1133/11/1 1136/9/1 1134/5/1
f 1137/11/1 1138/5/1 1139/10/1
f 1137/11/1 1140/9/1 1138/5/1
f 1141/11/8 1142/5/8 1143/10/8
f 1141/11/8 1144/9/8 1142/5/8
f 1145/11/8 1146/5/8 1147/10/8
f 1145/11/8 1148/9/8 1146/5/8
f 1149/11/8 1150/5/8 1151/10/8
f 1149/11/8 1152/9/8 1150/5/8
f 1153/9/3 1154/10/3 1155/11/3
f 1153/9/3 1156/5/3 1154/10/3
f 1157/9/4 1158/10/4 1159/11/4
f 1157/9/4 1160/5/4 1158/10/4
f 1161/9/3 1162/10/3 1163/11/3
f 1161/9/3 1164/5/3 1162/10/3
f 1165/9/4 1166/10/4 1167/11/4
f 1165/9/4 1168/5/4 1166/10/4
f 1169/9/3 1170/10/3 1171/11/3
f 1169/9/3 1172/5/3 1170/10/3
f 1173/9/4 1174/10/4 1175/11/4
f 1173/9/4 1176/5/4 1174/10/4
f 1177/9/3 1178/10/3 1179/11/3
f 1177/9/3 1180/5/3 1178/10/3
f 1181/9/4 1182/10/4 1183/11/4
f 1181/9/4 1184/5/4 1182/10/4
f 1185/11/1 1186/5/1 1187/10/1
f 1185/11/1 1188/9/1 1186/5/1
f 1189/11/1 1190/5/1 1191/10/1
f 1189/11/1 1192/9/1 1190/5/1
f 1193/11/1 1194/5/1 1195/10/1
f 1193/11/1 1196/9/1 1194/5/1
f 1197/11/1 1198/5/1 1199/10/1
f 1197/11/1 1200/9/1 1198/5/1
f 1201/11/8 1202/5/8 1203/10/8
f 1201/11/8 1204/9/8 1202/5/8
f 1205/11/8 1206/5/8 1207/10/8
f 1205/11/8 1208/9/8 1206/5/8
f 1209/11/8 1210/5/8 1211/10/8
f 1209/11/8 1212/9/8 1210/5/8
f 1213/11/8 1214/5/8 1215/10/8
f 1213/11/8 1216/9/8 1214/5/8
f 1217/11/1 1218/5/1 1219/10/1
f 1217/11/1 1220/9/1 1218/5/1
f 1221/11/1 1222/5/1 1223/10/1
f 1221/11/1 1224/9/1 1222/5/1
f 1225/11/1 1226/5/1 1227/10/1
f 1225/11/1 1228/9/1 1226/5/1
f 1229/11/1 1230/5/1 1231/10/1
f 1229/11/1 1232/9/1 1230/5/1
f 1233/11/1 1234/5/1 1235/10/1
f 1233/11/1 1236/9/1 1234/5/1
f 1237/11/1 1238/5/1 1239/10/1
f 1237/11/1 1240/9/1 1238/5/1
f 1241/11/1 1242/5/1 1243/10/1
f 1241/11/1 1244/9/1 1242/5/1
f 1245/11/1 1246/5/1 1247/10/1
f 1245/11/1 1248/9/1 1246/5/1
f 1249/11/1 1250/5/1 1251/10/1
f 1249/11/1 1252/9/1 1250/5/1
f 1253/11/1 1254/5/1 1255/10/1
f 1253/11/1 1256/9/1 1254/5/1
f 1257/11/1 1258/5/1 1259/10/1
f 1257/11/1 1260/9/1 1258/5/1
f 1261/11/1 1262/5/1 1263/10/1
f 1261/11/1 1264/9/1 1262/5/1
f 1265/11/1 1266/5/1 1267/10/1
f 1265/11/1 1268/9/1 1266/5/1
f 1269/11/1 1270/5/1 1271/10/1
f 1269/11/1 1272/9/1 1270/5/1
f 1273/11/1 1274/5/1 1275/10/1
f 1273/11/1 1276/9/1 1274/5/1
f 1277/11/1 1278/5/1 1279/10/1
f 1277/11/1 1280/9/1 1278/5/1
f 1281/11/1 1282/5/1 1283/10/1
f 1281/11/1 1284/9/1 1282/5/1
f 1285/11/1 1286/5/1 1287/10/1
f 1285/11/1 1288/9/1 1286/5/1
f 1289/9/4 1290/10/4 1291/11/4
f 1289/9/4 1292/5/4 1290/10/4
f 1293/9/3 1294/10/3 1295/11/3
f 1293/9/3 1296/5/3 1294/10/3
f 1297/9/4 1298/10/4 1299/11/4
f 1297/9/4 1300/5/4 1298/10/4
f 1301/9/3 1302/10/3 1303/11/3
f 1301/9/3 1304/5/3 1302/10/3
f 1305/9/4 1306/10/4 1307/11/4
f 1305/9/4 1308/5/4 1306/10/4
f 1309/9/3 1310/10/3 1311/11/3
f 1309/9/3 1312/5/3 1310/10/3
f 1313/9/4 1314/10/4 1315/11/4
f 1313/9/4 1316/5/4 1314/10/4
f 1317/9/3 1318/10/3 1319/11/3
f 1317/9/3 1320/5/3 1318/10/3
f 1321/9/4 1322/10/4 1323/11/4
f 1321/9/4 1324/5/4 1322/10/4
f 1325/9/3 1326/10/3 1327/11/3
f 1325/9/3 1328/5/3 1326/10/3
f 1329/9/4 1330/10/4 1331/11/4
f 1329/9/4 1332/5/4 1330/10/4
f 1333/9/3 1334/10/3 1335/11/3
f 1333/9/3 1336/5/3 1334/10/3
f 1337/9/4 1338/10/4 1339/11/4
f 1337/9/4 1340/5/4 1338/10/4
f 1341/9/3 1342/10/3 1343/11/3
f 1341/9/3 1344/5/3 1342/10/3
f 1345/9/4 1346/10/4 1347/11/4
f 1345/9/4 1348/5/4 1346/10/4
f 1349/9/3 1350/10/3 1351/11/3
f 1349/9/3 1352/5/3 1350/10/3
f 1353/9/4 1354/10/4 1355/11/4
f 1353/9/4 1356/5/4 1354/10/4
f 1357/9/3 1358/10/3 1359/11/3
f 1357/9/3 1360/5/3 1358/10/3
f 1361/9/4 1362/10/4 1363/11/4
f 1361/9/4 1364/5/4 1362/10/4
f 1365/9/3 1366/10/3 1367/11/3
f 1365/9/3 1368/5/3 1366/10/3
f 1369/9/4 1370/10/4 1371/11/4
f 1369/9/4 1372/5/4 1370/10/4
f 1373/9/3 1374/10/3 1375/11/3
f 1373/9/3 1376/5/3 1374/10/3
f 1377/9/4 1378/10/4 1379/11/4
f 1377/9/4 1380/5/4 1378/10/4
f 1381/9/3 1382/10/3 1383/11/3
f 1381/9/3 1384/5/3 1382/10/3
f 1385/9/4 1386/10/4 1387/11/4
f 1385/9/4 1388/5/4 1386/10/4
f 1389/9/3 1390/10/3 1391/11/3
f 1389/9/3 1392/5/3 1390/10/3
f 1393/9/4 1394/10/4 1395/11/4
f 1393/9/4 1396/5/4 1394/10/4
f 1397/9/3 1398/10/3 1399/11/3
f 1397/9/3 1400/5/3 1398/10/3
f 1401/9/4 1402/10/4 1403/11/4
f 1401/9/4 1404/5/4 1402/10/4
f 1405/9/3 1406/10/3 1407/11/3
f 1405/9/3 1408/5/3 1406/10/3
f 1409/9/4 1410/10/4 1411/11/4
f 1409/9/4 1412/5/4 1410/10/4
f 1413/9/3 1414/10/3 1415/11/3
f 1413/9/3 1416/5/3 1414/10/3
f 1417/9/4 1418/10/4 1419/11/4
f 1417/9/4 1420/5/4 1418/10/4
f 1421/9/3 1422/10/3 1423/11/3
f 1421/9/3 1424/5/3 1422/10/3
f 1425/9/4 1426/10/4 1427/11/4
f 1425/9/4 1428/5/4 1426/10/4
f 1429/9/2 1430/10/2 1431/11/2
f 1429/9/2 1432/5/2 1430/10/2
f 1433/9/3 1434/10/3 1435/11/3
f 1433/9/3 1436/5/3 1434/10/3
f 1437/11/8 1438/5/8 1439/10/8
f 1437/11/8 1440/9/8 1438/5/8
f 1441/11/8 1442/5/8 1443/10/8
f 1441/11/8 1444/9/8 1442/5/8
f 1445/11/8 1446/5/8 1447/10/8
f 1445/11/8 1448/9/8 1446/5/8
f 1449/11/8 1450/5/8 1451/10/8
f 1449/11/8 1452/9/8 1450/5/8
f 1453/11/8 1454/5/8 1455/10/8
f 1453/11/8 1456/9/8 1454/5/8
f 1457/11/8 1458/5/8 1459/10/8
f 1457/11/8 1460/9/8 1458/5/8
f 1461/11/8 1462/5/8 1463/10/8
f 1461/11/8 1464/9/8 1462/5/8
f 1465/11/8 1466/5/8 1467/10/8
f 1465/11/8 1468/9/8 1466/5/8
f 1469/11/8 1470/5/8 1471/10/8
f 1469/11/8 1472/9/8 1470/5/8
f 1473/11/8 1474/5/8 1475/10/8
f 1473/11/8 1476/9/8 1474/5/8
f 1477/11/8 1478/5/8 1479/10/8
f 1477/11/8 1480/9/8 1478/5/8
f 1481/11/8 1482/5/8 1483/10/8
f 1481/11/8 1484/9/8 1482/5/8
f 1485/11/8 1486/5/8 1487/10/8
f 1485/11/8 1488/9/8 1486/5/8
f 1489/11/8 1490/5/8 1491/10/8
f 1489/11/8 1492/9/8 1490/5/8
f 1493/11/8 1494/5/8 1495/10/8
f 1493/11/8 1496/9/8 1494/5/8
f 1497/11/8 1498/5/8 1499/10/8
f 1497/11/8 1500/9/8 1498/5/8
f 1501/11/8 1502/5/8 1503/10/8
f 1501/11/8 1504/9/8 1502/5/8
f 1505/11/8 1506/5/8 1507/10/8
f 1505/11/8 1508/9/8 1506/5/8
f 1509/9/3 1510/10/3 1511/11/3
f 1509/9/3 1512/5/3 1510/10/3
f 1513/9/4 1514/10/4 1515/11/4
f 1513/9/4 1516/5/4 1514/10/4
f 1517/9/3 1518/10/3 1519/11/3
f 1517/9/3 1520/5/3 1518/10/3
f 1521/9/4 1522/10/4 1523/11/4
f 1521/9/4 1524/5/4 1522/10/4
f 1525/9/5 1526/10/5 1527/11/5
f 1525/9/5 1528/5/5 1526/10/5
f 1529/9/3 1530/10/3 1531/11/3
f 1529/9/3 1532/5/3 1530/10/3
f 1533/9/4 1534/10/4 1535/11/4
f 1533/9/4 1536/5/4 1534/10/4
f 1537/11/1 1538/5/1 1539/10/1
f 1537/11/1 1540/9/1 1538/5/1
f 1541/11/1 1542/5/1 1543/10/1
f 1541/11/1 1544/9/1 1542/5/1
f 1545/11/1 1546/5/1 1547/10/1
f 1545/11/1 1548/9/1 1546/5/1
f 1549/11/8 1550/5/8 1551/10/8
f 1549/11/8 1552/9/8 1550/5/8
f 1553/11/8 1554/5/8 1555/10/8
f 1553/11/8 1556/9/8 1554/5/8
f 1557/11/8 1558/5/8 1559/10/8
f 1557/11/8 1560/9/8 1558/5/8
