mtllib Clock.mtl
o Default
v 0.03 0.67 -0.03
v 0.29 0.93 -0.02999499797821045
v 0.03 0.93 -0.03
v 0.29 0.67 -0.02999199867248535
v 0.32 0 -0.32
v 0 0.32 -0.32
v 0.32 0.32 -0.32
v 0 0 -0.32
v 0 0 0
v 0.32 0.16 0
v 0 0.16 0
v 0.32 0 0
v 0.28 0.16 -0.16
v 0.28 0.64 0
v 0.28 0.64 -0.16
v 0.28 0.16 0
v 0.04 0.16 0
v 0.04 0.64 -0.16
v 0.04 0.64 0
v 0.04 0.16 -0.16
v 0.29 0.93 0.000005002021789550781
v 0.29 0.67 0.000008001327514648438
v 0.03 0.67 0
v 0.03 0.93 0
v 0 0.64 0
v 0.03 0.96 0
v 0 0.96 0
v 0.03 0.64 0
v 0.29 0.96 0
v 0.29 0.64 0
v 0.32 0.96 0
v 0.32 0.64 0
v 0.32 0.96 -0.32
v 0.32 0.64 -0.32
v 0.32 0.44 0
v 0.32 0.64 -0.06
v 0.32 0.44 -0.06
v 0.32 0.44 -0.26
v 0.32 0.64 -0.26
v 0.32 0.44 -0.32
v 0.3 0.44 -0.06
v 0.3 0.64 -0.26
v 0.3 0.64 -0.06
v 0.3 0.44 -0.26
v 0 0.96 -0.32
v 0 0.64 -0.32
vt 0.44921875 0.82421875
vt 0.55078125 0.92578125
vt 0.44921875 0.92578125
vt 0.55078125 0.82421875
vt 0.4375 0.625
vt 0.5625 0.75
vt 0.4375 0.75
vt 0.5625 0.625
vt 0.125 0.625
vt 0.25 0.6875
vt 0.125 0.6875
vt 0.25 0.625
vt 0.25 0.375
vt 0.3125 0.5625
vt 0.25 0.5625
vt 0.3125 0.375
vt 0.0625 0.375
vt 0.125 0.5625
vt 0.0625 0.5625
vt 0.125 0.375
vt 0.140625 0.375
vt 0.234375 0.5625
vt 0.140625 0.5625
vt 0.234375 0.375
vt 0.140625 0.3125
vt 0.234375 0.3125
vt 0.5625 0.92578125
vt 0.5625 0.82421875
vt 0.4375 0.82421875
vt 0.4375 0.92578125
vt 0.44921875 0.8125
vt 0.55078125 0.8125
vt 0.55078125 0.9375
vt 0.44921875 0.9375
vt 0.125 0.875
vt 0.13671875 1
vt 0.125 1
vt 0.13671875 0.875
vt 0.13671875 0.98828125
vt 0.23828125 1
vt 0.23828125 0.98828125
vt 0.23828125 0.875
vt 0.25 1
vt 0.25 0.875
vt 0.23828125 0.88671875
vt 0.13671875 0.88671875
vt 0.140625 0.875
vt 0.140625 0.6875
vt 0.234375 0.6875
vt 0.234375 0.875
vt 0.375 1
vt 0.375 0.875
vt 0.25 0.796875
vt 0.2734375 0.875
vt 0.2734375 0.796875
vt 0.3515625 0.796875
vt 0.3515625 0.875
vt 0.375 0.796875
vt 0.375 0.625
vt 0.6484375 0.8984375
vt 0.7265625 0.9765625
vt 0.6484375 0.9765625
vt 0.7265625 0.8984375
vt 0.6484375 0.890625
vt 0.7265625 0.890625
vt 0.640625 0.9765625
vt 0.640625 0.8984375
vt 0.7265625 0.984375
vt 0.6484375 0.984375
vt 0 0.625
vt 0 1
vt 0.734375 0.9765625
vt 0.734375 0.8984375
vn -0.00001924 0 1
vn -0.00003077 0.00001154 1
vn 0 0 -1
vn 0 0 1
vn -1 0 0
vn 1 0 0
vn 0 1 0
vn 0 -1 0
vn -0.00001924 0.00016673 0.99999999
vn -0.00003077 0 1
vn 0 -0.00026671 0.99999996
g Scene
usemtl Clock_tex
f 1/1/1 2/2/1 3/3/1
f 1/1/2 4/4/2 2/2/2
f 5/5/3 6/6/3 7/7/3
f 5/5/3 8/8/3 6/6/3
f 9/9/4 10/10/4 11/11/4
f 9/9/4 12/12/4 10/10/4
f 13/13/5 14/14/5 15/15/5
f 13/13/5 16/16/5 14/14/5
f 17/17/6 18/18/6 19/19/6
f 17/17/6 20/20/6 18/18/6
f 20/21/4 15/22/4 18/23/4
f 20/21/4 13/24/4 15/22/4
f 17/25/7 13/24/7 20/21/7
f 17/25/7 16/26/7 13/24/7
f 18/25/8 14/24/8 19/21/8
f 18/25/8 15/26/8 14/24/8
f 4/4/5 21/27/5 2/2/5
f 4/4/5 22/28/5 21/27/5
f 23/29/6 3/3/6 24/30/6
f 23/29/6 1/1/6 3/3/6
f 23/31/7 4/4/7 1/1/7
f 23/31/7 22/32/7 4/4/7
f 3/3/8 21/33/8 24/34/8
f 3/3/8 2/2/8 21/33/8
f 25/35/4 26/36/4 27/37/4
f 25/35/4 28/38/4 26/36/4
f 24/39/4 29/40/4 26/36/4
f 24/39/9 21/41/9 29/40/9
f 30/42/4 31/43/4 29/40/4
f 30/42/4 32/44/4 31/43/4
f 28/38/10 22/45/10 23/46/10
f 28/38/11 30/42/11 22/45/11
f 11/11/4 19/47/4 25/35/4
f 11/11/4 17/48/4 19/47/4
f 16/49/4 32/44/4 14/50/4
f 16/49/4 10/10/4 32/44/4
f 32/44/6 33/51/6 31/43/6
f 32/44/6 34/52/6 33/51/6
f 35/53/6 36/54/6 32/44/6
f 35/53/6 37/55/6 36/54/6
f 38/56/6 34/52/6 39/57/6
f 38/56/6 40/58/6 34/52/6
f 12/12/6 40/58/6 35/53/6
f 12/12/6 5/59/6 40/58/6
f 41/60/6 42/61/6 43/62/6
f 41/60/6 44/63/6 42/61/6
f 41/64/7 38/63/7 44/65/7
f 41/64/7 37/60/7 38/63/7
f 37/60/3 43/66/3 36/62/3
f 37/60/3 41/67/3 43/66/3
f 42/68/8 36/62/8 43/69/8
f 42/68/8 39/61/8 36/62/8
f 8/5/8 12/6/8 9/7/8
f 8/5/8 5/8/8 12/6/8
f 34/5/3 45/6/3 33/7/3
f 34/5/3 46/8/3 45/6/3
f 7/5/3 46/6/3 34/7/3
f 7/5/3 6/8/3 46/6/3
f 8/70/5 27/37/5 45/71/5
f 8/70/5 9/9/5 27/37/5
f 27/5/7 33/6/7 45/7/7
f 27/5/7 31/8/7 33/6/7
f 44/63/4 39/72/4 42/61/4
f 44/63/4 38/73/4 39/72/4
