mtllib lowTable.mtl
o Default
v 0 -0.6875 0.6875 1 1 1 1
v 0 -0.6875 -2.8125 1 1 1 1
v 3.5 -0.6875 -2.8125 1 1 1 1
v 3.5 -0.6875 0.6875 1 1 1 1
v 0 -0.9375 0.6875 1 1 1 1
v 0 -0.6875 -2.8125 1 1 1 1
v 0 -0.9375 -2.8125 1 1 1 1
v 0 -0.6875 0.6875 1 1 1 1
v 0 -0.9375 -2.8125 1 1 1 1
v 3.5 -0.6875 -2.8125 1 1 1 1
v 3.5 -0.9375 -2.8125 1 1 1 1
v 0 -0.6875 -2.8125 1 1 1 1
v 3.5 -0.9375 -2.8125 1 1 1 1
v 3.5 -0.6875 0.6875 1 1 1 1
v 3.5 -0.9375 0.6875 1 1 1 1
v 3.5 -0.6875 -2.8125 1 1 1 1
v 3.5 -0.9375 0.6875 1 1 1 1
v 0 -0.6875 0.6875 1 1 1 1
v 0 -0.9375 0.6875 1 1 1 1
v 3.5 -0.6875 0.6875 1 1 1 1
v 0 -0.9375 0.6875 1 1 1 1
v 0.5 -1.9375 0.6875 1 1 1 1
v 0.5 -0.9375 0.6875 1 1 1 1
v 0 -1.9375 0.6875 1 1 1 1
v 3 -0.9375 0.6875 1 1 1 1
v 3.5 -1.9375 0.6875 1 1 1 1
v 3.5 -0.9375 0.6875 1 1 1 1
v 3 -1.9375 0.6875 1 1 1 1
v 3.5 -0.9375 0.6875 1 1 1 1
v 3.5 -1.9375 0.1875 1 1 1 1
v 3.5 -0.9375 0.1875 1 1 1 1
v 3.5 -1.9375 0.6875 1 1 1 1
v 3.5 -0.9375 -2.3125 1 1 1 1
v 3.5 -1.9375 -2.8125 1 1 1 1
v 3.5 -0.9375 -2.8125 1 1 1 1
v 3.5 -1.9375 -2.3125 1 1 1 1
v 3.5 -0.9375 -2.8125 1 1 1 1
v 3 -1.9375 -2.8125 1 1 1 1
v 3 -0.9375 -2.8125 1 1 1 1
v 3.5 -1.9375 -2.8125 1 1 1 1
v 0.5 -0.9375 -2.8125 1 1 1 1
v 0 -1.9375 -2.8125 1 1 1 1
v 0 -0.9375 -2.8125 1 1 1 1
v 0.5 -1.9375 -2.8125 1 1 1 1
v 0 -0.9375 -2.8125 1 1 1 1
v 0 -1.9375 -2.3125 1 1 1 1
v 0 -0.9375 -2.3125 1 1 1 1
v 0 -1.9375 -2.8125 1 1 1 1
v 0 -0.9375 0.1875 1 1 1 1
v 0 -1.9375 0.6875 1 1 1 1
v 0 -0.9375 0.6875 1 1 1 1
v 0 -1.9375 0.1875 1 1 1 1
v 3 -1.1875 0.4375 1 1 1 1
v 3 -0.9375 0.6875 1 1 1 1
v 3 -0.9375 0.4375 1 1 1 1
v 3 -1.1875 0.6875 1 1 1 1
v 3 -1.4375 0.4375 1 1 1 1
v 3 -1.1875 0.6875 1 1 1 1
v 3 -1.1875 0.4375 1 1 1 1
v 3 -1.4375 0.6875 1 1 1 1
v 3 -1.6875 0.4375 1 1 1 1
v 3 -1.4375 0.6875 1 1 1 1
v 3 -1.4375 0.4375 1 1 1 1
v 3 -1.6875 0.6875 1 1 1 1
v 3 -1.9375 0.4375 1 1 1 1
v 3 -1.6875 0.6875 1 1 1 1
v 3 -1.6875 0.4375 1 1 1 1
v 3 -1.9375 0.6875 1 1 1 1
v 3 -1.9375 0.1875 1 1 1 1
v 3 -1.6875 0.4375 1 1 1 1
v 3 -1.6875 0.1875 1 1 1 1
v 3 -1.9375 0.4375 1 1 1 1
v 3 -1.6875 0.1875 1 1 1 1
v 3 -1.4375 0.4375 1 1 1 1
v 3 -1.4375 0.1875 1 1 1 1
v 3 -1.6875 0.4375 1 1 1 1
v 3 -1.4375 0.1875 1 1 1 1
v 3 -1.1875 0.4375 1 1 1 1
v 3 -1.1875 0.1875 1 1 1 1
v 3 -1.4375 0.4375 1 1 1 1
v 3 -1.1875 0.1875 1 1 1 1
v 3 -0.9375 0.4375 1 1 1 1
v 3 -0.9375 0.1875 1 1 1 1
v 3 -1.1875 0.4375 1 1 1 1
v 3.25 -1.9375 0.1875 1 1 1 1
v 3 -1.6875 0.1875 1 1 1 1
v 3.25 -1.6875 0.1875 1 1 1 1
v 3 -1.9375 0.1875 1 1 1 1
v 3.25 -1.6875 0.1875 1 1 1 1
v 3 -1.4375 0.1875 1 1 1 1
v 3.25 -1.4375 0.1875 1 1 1 1
v 3 -1.6875 0.1875 1 1 1 1
v 3.5 -1.6875 0.1875 1 1 1 1
v 3.25 -1.4375 0.1875 1 1 1 1
v 3.5 -1.4375 0.1875 1 1 1 1
v 3.25 -1.6875 0.1875 1 1 1 1
v 3.5 -1.4375 0.1875 1 1 1 1
v 3.25 -1.1875 0.1875 1 1 1 1
v 3.5 -1.1875 0.1875 1 1 1 1
v 3.25 -1.4375 0.1875 1 1 1 1
v 3.25 -1.4375 0.1875 1 1 1 1
v 3 -1.1875 0.1875 1 1 1 1
v 3.25 -1.1875 0.1875 1 1 1 1
v 3 -1.4375 0.1875 1 1 1 1
v 3.25 -1.1875 0.1875 1 1 1 1
v 3 -0.9375 0.1875 1 1 1 1
v 3.25 -0.9375 0.1875 1 1 1 1
v 3 -1.1875 0.1875 1 1 1 1
v 3.5 -1.1875 0.1875 1 1 1 1
v 3.25 -0.9375 0.1875 1 1 1 1
v 3.5 -0.9375 0.1875 1 1 1 1
v 3.25 -1.1875 0.1875 1 1 1 1
v 3.5 -1.9375 0.1875 1 1 1 1
v 3.25 -1.6875 0.1875 1 1 1 1
v 3.5 -1.6875 0.1875 1 1 1 1
v 3.25 -1.9375 0.1875 1 1 1 1
v 3.0625 -1.9375 -2.8125 1 1 1 1
v 3.0625 -1.6875 -2.5625 1 1 1 1
v 3.0625 -1.6875 -2.8125 1 1 1 1
v 3.0625 -1.9375 -2.5625 1 1 1 1
v 3.0625 -1.1875 -2.8125 1 1 1 1
v 3.0625 -0.9375 -2.5625 1 1 1 1
v 3.0625 -0.9375 -2.8125 1 1 1 1
v 3.0625 -1.1875 -2.5625 1 1 1 1
v 3.0625 -1.1875 -2.5625 1 1 1 1
v 3.0625 -0.9375 -2.3125 1 1 1 1
v 3.0625 -0.9375 -2.5625 1 1 1 1
v 3.0625 -1.1875 -2.3125 1 1 1 1
v 3.0625 -1.4375 -2.5625 1 1 1 1
v 3.0625 -1.1875 -2.3125 1 1 1 1
v 3.0625 -1.1875 -2.5625 1 1 1 1
v 3.0625 -1.4375 -2.3125 1 1 1 1
v 3.0625 -1.4375 -2.8125 1 1 1 1
v 3.0625 -1.1875 -2.5625 1 1 1 1
v 3.0625 -1.1875 -2.8125 1 1 1 1
v 3.0625 -1.4375 -2.5625 1 1 1 1
v 3.0625 -1.6875 -2.8125 1 1 1 1
v 3.0625 -1.4375 -2.5625 1 1 1 1
v 3.0625 -1.4375 -2.8125 1 1 1 1
v 3.0625 -1.6875 -2.5625 1 1 1 1
v 3.0625 -1.6875 -2.5625 1 1 1 1
v 3.0625 -1.4375 -2.3125 1 1 1 1
v 3.0625 -1.4375 -2.5625 1 1 1 1
v 3.0625 -1.6875 -2.3125 1 1 1 1
v 3.0625 -1.9375 -2.5625 1 1 1 1
v 3.0625 -1.6875 -2.3125 1 1 1 1
v 3.0625 -1.6875 -2.5625 1 1 1 1
v 3.0625 -1.9375 -2.3125 1 1 1 1
v 3.0625 -1.1875 -2.3125 1 1 1 1
v 3.3125 -0.9375 -2.3125 1 1 1 1
v 3.0625 -0.9375 -2.3125 1 1 1 1
v 3.3125 -1.1875 -2.3125 1 1 1 1
v 3.0625 -1.4375 -2.3125 1 1 1 1
v 3.3125 -1.1875 -2.3125 1 1 1 1
v 3.0625 -1.1875 -2.3125 1 1 1 1
v 3.3125 -1.4375 -2.3125 1 1 1 1
v 3.0625 -1.6875 -2.3125 1 1 1 1
v 3.3125 -1.4375 -2.3125 1 1 1 1
v 3.0625 -1.4375 -2.3125 1 1 1 1
v 3.3125 -1.6875 -2.3125 1 1 1 1
v 3.0625 -1.9375 -2.3125 1 1 1 1
v 3.3125 -1.6875 -2.3125 1 1 1 1
v 3.0625 -1.6875 -2.3125 1 1 1 1
v 3.3125 -1.9375 -2.3125 1 1 1 1
v 3.3125 -1.9375 -2.3125 1 1 1 1
v 3.5625 -1.6875 -2.3125 1 1 1 1
v 3.3125 -1.6875 -2.3125 1 1 1 1
v 3.5625 -1.9375 -2.3125 1 1 1 1
v 3.3125 -1.6875 -2.3125 1 1 1 1
v 3.5625 -1.4375 -2.3125 1 1 1 1
v 3.3125 -1.4375 -2.3125 1 1 1 1
v 3.5625 -1.6875 -2.3125 1 1 1 1
v 3.3125 -1.4375 -2.3125 1 1 1 1
v 3.5625 -1.1875 -2.3125 1 1 1 1
v 3.3125 -1.1875 -2.3125 1 1 1 1
v 3.5625 -1.4375 -2.3125 1 1 1 1
v 3.3125 -1.1875 -2.3125 1 1 1 1
v 3.5625 -0.9375 -2.3125 1 1 1 1
v 3.3125 -0.9375 -2.3125 1 1 1 1
v 3.5625 -1.1875 -2.3125 1 1 1 1
v 0.5 -1.1875 -2.5625 1 1 1 1
v 0.5 -0.9375 -2.8125 1 1 1 1
v 0.5 -0.9375 -2.5625 1 1 1 1
v 0.5 -1.1875 -2.8125 1 1 1 1
v 0.5 -1.4375 -2.5625 1 1 1 1
v 0.5 -1.1875 -2.8125 1 1 1 1
v 0.5 -1.1875 -2.5625 1 1 1 1
v 0.5 -1.4375 -2.8125 1 1 1 1
v 0.5 -1.6875 -2.5625 1 1 1 1
v 0.5 -1.4375 -2.8125 1 1 1 1
v 0.5 -1.4375 -2.5625 1 1 1 1
v 0.5 -1.6875 -2.8125 1 1 1 1
v 0.5 -1.9375 -2.5625 1 1 1 1
v 0.5 -1.6875 -2.8125 1 1 1 1
v 0.5 -1.6875 -2.5625 1 1 1 1
v 0.5 -1.9375 -2.8125 1 1 1 1
v 0.5 -1.9375 -2.3125 1 1 1 1
v 0.5 -1.6875 -2.5625 1 1 1 1
v 0.5 -1.6875 -2.3125 1 1 1 1
v 0.5 -1.9375 -2.5625 1 1 1 1
v 0.5 -1.6875 -2.3125 1 1 1 1
v 0.5 -1.4375 -2.5625 1 1 1 1
v 0.5 -1.4375 -2.3125 1 1 1 1
v 0.5 -1.6875 -2.5625 1 1 1 1
v 0.5 -1.4375 -2.3125 1 1 1 1
v 0.5 -1.1875 -2.5625 1 1 1 1
v 0.5 -1.1875 -2.3125 1 1 1 1
v 0.5 -1.4375 -2.5625 1 1 1 1
v 0.5 -1.1875 -2.3125 1 1 1 1
v 0.5 -0.9375 -2.5625 1 1 1 1
v 0.5 -0.9375 -2.3125 1 1 1 1
v 0.5 -1.1875 -2.5625 1 1 1 1
v 0.25 -1.9375 -2.3125 1 1 1 1
v 0.5 -1.6875 -2.3125 1 1 1 1
v 0.25 -1.6875 -2.3125 1 1 1 1
v 0.5 -1.9375 -2.3125 1 1 1 1
v 0.25 -1.6875 -2.3125 1 1 1 1
v 0.5 -1.4375 -2.3125 1 1 1 1
v 0.25 -1.4375 -2.3125 1 1 1 1
v 0.5 -1.6875 -2.3125 1 1 1 1
v 0 -1.6875 -2.3125 1 1 1 1
v 0.25 -1.4375 -2.3125 1 1 1 1
v 0 -1.4375 -2.3125 1 1 1 1
v 0.25 -1.6875 -2.3125 1 1 1 1
v 0 -1.4375 -2.3125 1 1 1 1
v 0.25 -1.1875 -2.3125 1 1 1 1
v 0 -1.1875 -2.3125 1 1 1 1
v 0.25 -1.4375 -2.3125 1 1 1 1
v 0.25 -1.4375 -2.3125 1 1 1 1
v 0.5 -1.1875 -2.3125 1 1 1 1
v 0.25 -1.1875 -2.3125 1 1 1 1
v 0.5 -1.4375 -2.3125 1 1 1 1
v 0.25 -1.1875 -2.3125 1 1 1 1
v 0.5 -0.9375 -2.3125 1 1 1 1
v 0.25 -0.9375 -2.3125 1 1 1 1
v 0.5 -1.1875 -2.3125 1 1 1 1
v 0 -1.1875 -2.3125 1 1 1 1
v 0.25 -0.9375 -2.3125 1 1 1 1
v 0 -0.9375 -2.3125 1 1 1 1
v 0.25 -1.1875 -2.3125 1 1 1 1
v 0 -1.9375 -2.3125 1 1 1 1
v 0.25 -1.6875 -2.3125 1 1 1 1
v 0 -1.6875 -2.3125 1 1 1 1
v 0.25 -1.9375 -2.3125 1 1 1 1
v 0.5 -1.9375 0.6875 1 1 1 1
v 0.5 -1.6875 0.4375 1 1 1 1
v 0.5 -1.6875 0.6875 1 1 1 1
v 0.5 -1.9375 0.4375 1 1 1 1
v 0.5 -1.1875 0.6875 1 1 1 1
v 0.5 -0.9375 0.4375 1 1 1 1
v 0.5 -0.9375 0.6875 1 1 1 1
v 0.5 -1.1875 0.4375 1 1 1 1
v 0.5 -1.1875 0.4375 1 1 1 1
v 0.5 -0.9375 0.1875 1 1 1 1
v 0.5 -0.9375 0.4375 1 1 1 1
v 0.5 -1.1875 0.1875 1 1 1 1
v 0.5 -1.4375 0.4375 1 1 1 1
v 0.5 -1.1875 0.1875 1 1 1 1
v 0.5 -1.1875 0.4375 1 1 1 1
v 0.5 -1.4375 0.1875 1 1 1 1
v 0.5 -1.4375 0.6875 1 1 1 1
v 0.5 -1.1875 0.4375 1 1 1 1
v 0.5 -1.1875 0.6875 1 1 1 1
v 0.5 -1.4375 0.4375 1 1 1 1
v 0.5 -1.6875 0.6875 1 1 1 1
v 0.5 -1.4375 0.4375 1 1 1 1
v 0.5 -1.4375 0.6875 1 1 1 1
v 0.5 -1.6875 0.4375 1 1 1 1
v 0.5 -1.6875 0.4375 1 1 1 1
v 0.5 -1.4375 0.1875 1 1 1 1
v 0.5 -1.4375 0.4375 1 1 1 1
v 0.5 -1.6875 0.1875 1 1 1 1
v 0.5 -1.9375 0.4375 1 1 1 1
v 0.5 -1.6875 0.1875 1 1 1 1
v 0.5 -1.6875 0.4375 1 1 1 1
v 0.5 -1.9375 0.1875 1 1 1 1
v 0.5 -1.1875 0.1875 1 1 1 1
v 0.25 -0.9375 0.1875 1 1 1 1
v 0.5 -0.9375 0.1875 1 1 1 1
v 0.25 -1.1875 0.1875 1 1 1 1
v 0.5 -1.4375 0.1875 1 1 1 1
v 0.25 -1.1875 0.1875 1 1 1 1
v 0.5 -1.1875 0.1875 1 1 1 1
v 0.25 -1.4375 0.1875 1 1 1 1
v 0.5 -1.6875 0.1875 1 1 1 1
v 0.25 -1.4375 0.1875 1 1 1 1
v 0.5 -1.4375 0.1875 1 1 1 1
v 0.25 -1.6875 0.1875 1 1 1 1
v 0.5 -1.9375 0.1875 1 1 1 1
v 0.25 -1.6875 0.1875 1 1 1 1
v 0.5 -1.6875 0.1875 1 1 1 1
v 0.25 -1.9375 0.1875 1 1 1 1
v 0.25 -1.9375 0.1875 1 1 1 1
v 0 -1.6875 0.1875 1 1 1 1
v 0.25 -1.6875 0.1875 1 1 1 1
v 0 -1.9375 0.1875 1 1 1 1
v 0.25 -1.6875 0.1875 1 1 1 1
v 0 -1.4375 0.1875 1 1 1 1
v 0.25 -1.4375 0.1875 1 1 1 1
v 0 -1.6875 0.1875 1 1 1 1
v 0.25 -1.4375 0.1875 1 1 1 1
v 0 -1.1875 0.1875 1 1 1 1
v 0.25 -1.1875 0.1875 1 1 1 1
v 0 -1.4375 0.1875 1 1 1 1
v 0.25 -1.1875 0.1875 1 1 1 1
v 0 -0.9375 0.1875 1 1 1 1
v 0.25 -0.9375 0.1875 1 1 1 1
v 0 -1.1875 0.1875 1 1 1 1
vt 0 0
vt 0.21875 0.21875
vt 0 0.21875
vt 0.21875 0
vt 0.140625 0.78125
vt 0.125 0.796875
vt 0.125 0.78125
vt 0.140625 0.796875
vt 0.28125 0.03125
vt 0.21875 0.03125
vt 0.28125 0
vt 0.21875 0.1875
vt 0.28125 0.21875
vt 0.28125 0.1875
vt 0.109375 0.78125
vt 0.109375 0.796875
vn 0 1 0
vn -1 0 0
vn 0 0 -1
vn 1 0 0
vn 0 0 1
g Scene
usemtl 0
f 1/1/1 3/2/1 2/3/1
f 1/1/1 4/4/1 3/2/1
f 5/5/2 6/6/2 7/7/2
f 5/5/2 8/8/2 6/6/2
f 9/5/3 10/6/3 11/7/3
f 9/5/3 12/8/3 10/6/3
f 13/5/4 14/6/4 15/7/4
f 13/5/4 16/8/4 14/6/4
f 17/5/5 18/6/5 19/7/5
f 17/5/5 20/8/5 18/6/5
f 21/4/5 22/9/5 23/10/5
f 21/4/5 24/11/5 22/9/5
f 25/12/5 26/13/5 27/2/5
f 25/12/5 28/14/5 26/13/5
f 29/4/4 30/9/4 31/10/4
f 29/4/4 32/11/4 30/9/4
f 33/12/4 34/13/4 35/2/4
f 33/12/4 36/14/4 34/13/4
f 37/4/3 38/9/3 39/10/3
f 37/4/3 40/11/3 38/9/3
f 41/12/3 42/13/3 43/2/3
f 41/12/3 44/14/3 42/13/3
f 45/4/2 46/9/2 47/10/2
f 45/4/2 48/11/2 46/9/2
f 49/12/2 50/13/2 51/2/2
f 49/12/2 52/14/2 50/13/2
f 53/15/2 54/6/2 55/16/2
f 53/15/2 56/7/2 54/6/2
f 57/15/2 58/6/2 59/16/2
f 57/15/2 60/7/2 58/6/2
f 61/15/2 62/6/2 63/16/2
f 61/15/2 64/7/2 62/6/2
f 65/15/2 66/6/2 67/16/2
f 65/15/2 68/7/2 66/6/2
f 69/15/2 70/6/2 71/16/2
f 69/15/2 72/7/2 70/6/2
f 73/15/2 74/6/2 75/16/2
f 73/15/2 76/7/2 74/6/2
f 77/15/2 78/6/2 79/16/2
f 77/15/2 80/7/2 78/6/2
f 81/15/2 82/6/2 83/16/2
f 81/15/2 84/7/2 82/6/2
f 85/15/3 86/6/3 87/16/3
f 85/15/3 88/7/3 86/6/3
f 89/15/3 90/6/3 91/16/3
f 89/15/3 92/7/3 90/6/3
f 93/15/3 94/6/3 95/16/3
f 93/15/3 96/7/3 94/6/3
f 97/15/3 98/6/3 99/16/3
f 97/15/3 100/7/3 98/6/3
f 101/15/3 102/6/3 103/16/3
f 101/15/3 104/7/3 102/6/3
f 105/15/3 106/6/3 107/16/3
f 105/15/3 108/7/3 106/6/3
f 109/15/3 110/6/3 111/16/3
f 109/15/3 112/7/3 110/6/3
f 113/15/3 114/6/3 115/16/3
f 113/15/3 116/7/3 114/6/3
f 117/15/2 118/6/2 119/16/2
f 117/15/2 120/7/2 118/6/2
f 121/15/2 122/6/2 123/16/2
f 121/15/2 124/7/2 122/6/2
f 125/15/2 126/6/2 127/16/2
f 125/15/2 128/7/2 126/6/2
f 129/15/2 130/6/2 131/16/2
f 129/15/2 132/7/2 130/6/2
f 133/15/2 134/6/2 135/16/2
f 133/15/2 136/7/2 134/6/2
f 137/15/2 138/6/2 139/16/2
f 137/15/2 140/7/2 138/6/2
f 141/15/2 142/6/2 143/16/2
f 141/15/2 144/7/2 142/6/2
f 145/15/2 146/6/2 147/16/2
f 145/15/2 148/7/2 146/6/2
f 149/15/5 150/6/5 151/16/5
f 149/15/5 152/7/5 150/6/5
f 153/15/5 154/6/5 155/16/5
f 153/15/5 156/7/5 154/6/5
f 157/15/5 158/6/5 159/16/5
f 157/15/5 160/7/5 158/6/5
f 161/15/5 162/6/5 163/16/5
f 161/15/5 164/7/5 162/6/5
f 165/15/5 166/6/5 167/16/5
f 165/15/5 168/7/5 166/6/5
f 169/15/5 170/6/5 171/16/5
f 169/15/5 172/7/5 170/6/5
f 173/15/5 174/6/5 175/16/5
f 173/15/5 176/7/5 174/6/5
f 177/15/5 178/6/5 179/16/5
f 177/15/5 180/7/5 178/6/5
f 181/15/4 182/6/4 183/16/4
f 181/15/4 184/7/4 182/6/4
f 185/15/4 186/6/4 187/16/4
f 185/15/4 188/7/4 186/6/4
f 189/15/4 190/6/4 191/16/4
f 189/15/4 192/7/4 190/6/4
f 193/15/4 194/6/4 195/16/4
f 193/15/4 196/7/4 194/6/4
f 197/15/4 198/6/4 199/16/4
f 197/15/4 200/7/4 198/6/4
f 201/15/4 202/6/4 203/16/4
f 201/15/4 204/7/4 202/6/4
f 205/15/4 206/6/4 207/16/4
f 205/15/4 208/7/4 206/6/4
f 209/15/4 210/6/4 211/16/4
f 209/15/4 212/7/4 210/6/4
f 213/15/5 214/6/5 215/16/5
f 213/15/5 216/7/5 214/6/5
f 217/15/5 218/6/5 219/16/5
f 217/15/5 220/7/5 218/6/5
f 221/15/5 222/6/5 223/16/5
f 221/15/5 224/7/5 222/6/5
f 225/15/5 226/6/5 227/16/5
f 225/15/5 228/7/5 226/6/5
f 229/15/5 230/6/5 231/16/5
f 229/15/5 232/7/5 230/6/5
f 233/15/5 234/6/5 235/16/5
f 233/15/5 236/7/5 234/6/5
f 237/15/5 238/6/5 239/16/5
f 237/15/5 240/7/5 238/6/5
f 241/15/5 242/6/5 243/16/5
f 241/15/5 244/7/5 242/6/5
f 245/15/4 246/6/4 247/16/4
f 245/15/4 248/7/4 246/6/4
f 249/15/4 250/6/4 251/16/4
f 249/15/4 252/7/4 250/6/4
f 253/15/4 254/6/4 255/16/4
f 253/15/4 256/7/4 254/6/4
f 257/15/4 258/6/4 259/16/4
f 257/15/4 260/7/4 258/6/4
f 261/15/4 262/6/4 263/16/4
f 261/15/4 264/7/4 262/6/4
f 265/15/4 266/6/4 267/16/4
f 265/15/4 268/7/4 266/6/4
f 269/15/4 270/6/4 271/16/4
f 269/15/4 272/7/4 270/6/4
f 273/15/4 274/6/4 275/16/4
f 273/15/4 276/7/4 274/6/4
f 277/15/3 278/6/3 279/16/3
f 277/15/3 280/7/3 278/6/3
f 281/15/3 282/6/3 283/16/3
f 281/15/3 284/7/3 282/6/3
f 285/15/3 286/6/3 287/16/3
f 285/15/3 288/7/3 286/6/3
f 289/15/3 290/6/3 291/16/3
f 289/15/3 292/7/3 290/6/3
f 293/15/3 294/6/3 295/16/3
f 293/15/3 296/7/3 294/6/3
f 297/15/3 298/6/3 299/16/3
f 297/15/3 300/7/3 298/6/3
f 301/15/3 302/6/3 303/16/3
f 301/15/3 304/7/3 302/6/3
f 305/15/3 306/6/3 307/16/3
f 305/15/3 308/7/3 306/6/3
