mtllib sanboTray.mtl
o Default
v 0.875 1.3125 -0.5625 1 1 1 1
v 0.75 1.3125 -0.5625 1 1 1 1
v 0.75 1.3125 -0.6875 1 1 1 1
v 0.875 1.3125 -0.6875 1 1 1 1
v 0.875 1.3125 -0.4375 1 1 1 1
v 0.75 1.3125 -0.5625 1 1 1 1
v 0.75 1.3125 -0.4375 1 1 1 1
v 0.875 1.3125 -0.5625 1 1 1 1
v 0.875 1.3125 -0.3125 1 1 1 1
v 0.75 1.3125 -0.4375 1 1 1 1
v 0.75 1.3125 -0.3125 1 1 1 1
v 0.875 1.3125 -0.4375 1 1 1 1
v 0.875 1.3125 -0.1875 1 1 1 1
v 0.75 1.3125 -0.3125 1 1 1 1
v 0.75 1.3125 -0.1875 1 1 1 1
v 0.875 1.3125 -0.3125 1 1 1 1
v 0.375 1.3125 0.9375 1 1 1 1
v 0.25 1.3125 0.8125 1 1 1 1
v 0.25 1.3125 0.9375 1 1 1 1
v 0.375 1.3125 0.8125 1 1 1 1
v 0 1.3125 0.9375 1 1 1 1
v -0.125 1.3125 0.8125 1 1 1 1
v -0.125 1.3125 0.9375 1 1 1 1
v 0 1.3125 0.8125 1 1 1 1
v -0.125 1.3125 -0.9375 1 1 1 1
v -0.25 1.3125 -1.0625 1 1 1 1
v -0.25 1.3125 -0.9375 1 1 1 1
v -0.125 1.3125 -1.0625 1 1 1 1
v 0.25 1.3125 -0.9375 1 1 1 1
v 0.125 1.3125 -1.0625 1 1 1 1
v 0.125 1.3125 -0.9375 1 1 1 1
v 0.25 1.3125 -1.0625 1 1 1 1
v 0.875 1.3125 -0.0625 1 1 1 1
v 0.75 1.3125 -0.1875 1 1 1 1
v 0.75 1.3125 -0.0625 1 1 1 1
v 0.875 1.3125 -0.1875 1 1 1 1
v 0.875 1.3125 0.0625 1 1 1 1
v 0.75 1.3125 -0.0625 1 1 1 1
v 0.75 1.3125 0.0625 1 1 1 1
v 0.875 1.3125 -0.0625 1 1 1 1
v 0.875 1.3125 0.1875 1 1 1 1
v 0.75 1.3125 0.0625 1 1 1 1
v 0.75 1.3125 0.1875 1 1 1 1
v 0.875 1.3125 0.0625 1 1 1 1
v -1 1.3125 0.3125 1 1 1 1
v -1.125 1.3125 0.1875 1 1 1 1
v -1.125 1.3125 0.3125 1 1 1 1
v -1 1.3125 0.1875 1 1 1 1
v -0.5 1.3125 0.9375 1 1 1 1
v -0.625 1.3125 0.8125 1 1 1 1
v -0.625 1.3125 0.9375 1 1 1 1
v -0.5 1.3125 0.8125 1 1 1 1
v -0.625 1.3125 -0.9375 1 1 1 1
v -0.75 1.3125 -1.0625 1 1 1 1
v -0.75 1.3125 -0.9375 1 1 1 1
v -0.625 1.3125 -1.0625 1 1 1 1
v -1 1.3125 -0.1875 1 1 1 1
v -1.125 1.3125 -0.3125 1 1 1 1
v -1.125 1.3125 -0.1875 1 1 1 1
v -1 1.3125 -0.3125 1 1 1 1
v -1 1.3125 -0.5625 1 1 1 1
v -1.125 1.3125 -0.6875 1 1 1 1
v -1.125 1.3125 -0.5625 1 1 1 1
v -1 1.3125 -0.6875 1 1 1 1
v -1 1.3125 -0.0625 1 1 1 1
v -1.125 1.3125 -0.1875 1 1 1 1
v -1.125 1.3125 -0.0625 1 1 1 1
v -1 1.3125 -0.1875 1 1 1 1
v 0.625 1.3125 -0.9375 1 1 1 1
v 0.5 1.3125 -1.0625 1 1 1 1
v 0.5 1.3125 -0.9375 1 1 1 1
v 0.625 1.3125 -0.9375 1 1 1 1
v 0.875 1.3125 0.5625 1 1 1 1
v 0.75 1.3125 0.4375 1 1 1 1
v 0.75 1.3125 0.5625 1 1 1 1
v 0.875 1.3125 0.4375 1 1 1 1
v -0.25 1.3125 0.9375 1 1 1 1
v -0.375 1.3125 0.8125 1 1 1 1
v -0.375 1.3125 0.9375 1 1 1 1
v -0.25 1.3125 0.8125 1 1 1 1
v -0.125 1.3125 0.9375 1 1 1 1
v -0.25 1.3125 0.8125 1 1 1 1
v -0.25 1.3125 0.9375 1 1 1 1
v -0.125 1.3125 0.8125 1 1 1 1
v -1 1.3125 0.1875 1 1 1 1
v -1.125 1.3125 0.0625 1 1 1 1
v -1.125 1.3125 0.1875 1 1 1 1
v -1 1.3125 0.0625 1 1 1 1
v 0.875 1.3125 0.3125 1 1 1 1
v 0.75 1.3125 0.1875 1 1 1 1
v 0.75 1.3125 0.3125 1 1 1 1
v 0.875 1.3125 0.1875 1 1 1 1
v -1 1.3125 -0.3125 1 1 1 1
v -1.125 1.3125 -0.4375 1 1 1 1
v -1.125 1.3125 -0.3125 1 1 1 1
v -1 1.3125 -0.4375 1 1 1 1
v 0.875 1.3125 0.4375 1 1 1 1
v 0.75 1.3125 0.3125 1 1 1 1
v 0.75 1.3125 0.4375 1 1 1 1
v 0.875 1.3125 0.3125 1 1 1 1
v -1 1.3125 -0.4375 1 1 1 1
v -1.125 1.3125 -0.5625 1 1 1 1
v -1.125 1.3125 -0.4375 1 1 1 1
v -1 1.3125 -0.5625 1 1 1 1
v 0.625 1.3125 0.8125 1 1 1 1
v 0.625 1.3125 0.8125 1 1 1 1
v 0.5 1.3125 0.9375 1 1 1 1
v 0.5 1.3125 0.8125 1 1 1 1
v -0.375 1.3125 -0.9375 1 1 1 1
v -0.5 1.3125 -1.0625 1 1 1 1
v -0.5 1.3125 -0.9375 1 1 1 1
v -0.375 1.3125 -1.0625 1 1 1 1
v -0.625 1.3125 0.9375 1 1 1 1
v -0.75 1.3125 0.8125 1 1 1 1
v -0.75 1.3125 0.9375 1 1 1 1
v -0.625 1.3125 0.8125 1 1 1 1
v -0.75 1.3125 0.9375 1 1 1 1
v -0.875 1.3125 0.8125 1 1 1 1
v -0.75 1.3125 0.9375 1 1 1 1
v -0.75 1.3125 0.8125 1 1 1 1
v 0.75 1.3125 0.6875 1 1 1 1
v 0.75 1.3125 0.5625 1 1 1 1
v 0.625 1.3125 0.6875 1 1 1 1
v 0.75 1.3125 0.5625 1 1 1 1
v 0.75 1.3125 -0.6875 1 1 1 1
v 0.625 1.3125 -0.8125 1 1 1 1
v 0.75 1.3125 -0.6875 1 1 1 1
v 0.75 1.3125 -0.8125 1 1 1 1
v 0.625 1.3125 -0.8125 1 1 1 1
v 0.5 1.3125 -0.9375 1 1 1 1
v 0.625 1.3125 -0.8125 1 1 1 1
v 0.625 1.3125 -0.9375 1 1 1 1
v -1 1.3125 0.5625 1 1 1 1
v -1.125 1.3125 0.4375 1 1 1 1
v -1.125 1.3125 0.5625 1 1 1 1
v -1 1.3125 0.4375 1 1 1 1
v 0.25 1.3125 0.9375 1 1 1 1
v 0.125 1.3125 0.8125 1 1 1 1
v 0.125 1.3125 0.9375 1 1 1 1
v 0.25 1.3125 0.8125 1 1 1 1
v -0.875 1.3125 -0.8125 1 1 1 1
v -0.875 1.3125 -0.8125 1 1 1 1
v -1 1.3125 -0.6875 1 1 1 1
v -1 1.3125 -0.8125 1 1 1 1
v 0.5 1.3125 0.9375 1 1 1 1
v 0.375 1.3125 0.8125 1 1 1 1
v 0.375 1.3125 0.9375 1 1 1 1
v 0.5 1.3125 0.8125 1 1 1 1
v 0.375 1.3125 -0.9375 1 1 1 1
v 0.25 1.3125 -1.0625 1 1 1 1
v 0.25 1.3125 -0.9375 1 1 1 1
v 0.375 1.3125 -1.0625 1 1 1 1
v -0.875 1.3125 -0.8125 1 1 1 1
v -0.875 1.3125 -0.9375 1 1 1 1
v -1 1.3125 -0.8125 1 1 1 1
v -0.875 1.3125 -0.9375 1 1 1 1
v 0.125 1.3125 0.9375 1 1 1 1
v 0 1.3125 0.8125 1 1 1 1
v 0 1.3125 0.9375 1 1 1 1
v 0.125 1.3125 0.8125 1 1 1 1
v 0 1.3125 -0.9375 1 1 1 1
v -0.125 1.3125 -1.0625 1 1 1 1
v -0.125 1.3125 -0.9375 1 1 1 1
v 0 1.3125 -1.0625 1 1 1 1
v 0.125 1.3125 -0.9375 1 1 1 1
v 0 1.3125 -1.0625 1 1 1 1
v 0 1.3125 -0.9375 1 1 1 1
v 0.125 1.3125 -1.0625 1 1 1 1
v 0.875 1.3125 -0.6875 1 1 1 1
v 0.75 1.3125 -0.8125 1 1 1 1
v 0.75 1.3125 -0.6875 1 1 1 1
v 0.875 1.3125 -0.6875 1 1 1 1
v 0.625 1.3125 0.8125 1 1 1 1
v 0.625 1.3125 0.6875 1 1 1 1
v 0.5 1.3125 0.8125 1 1 1 1
v 0.625 1.3125 0.6875 1 1 1 1
v 0.875 1.3125 0.5625 1 1 1 1
v 0.875 1.3125 0.5625 1 1 1 1
v 0.75 1.3125 0.6875 1 1 1 1
v 0.75 1.3125 0.5625 1 1 1 1
v -0.25 1.3125 -0.9375 1 1 1 1
v -0.375 1.3125 -1.0625 1 1 1 1
v -0.375 1.3125 -0.9375 1 1 1 1
v -0.25 1.3125 -1.0625 1 1 1 1
v -0.75 1.3125 -0.9375 1 1 1 1
v -0.75 1.3125 -1.0625 1 1 1 1
v -0.875 1.3125 -0.9375 1 1 1 1
v -0.75 1.3125 -1.0625 1 1 1 1
v -0.875 1.3125 0.6875 1 1 1 1
v -1 1.3125 0.5625 1 1 1 1
v -1 1.3125 0.6875 1 1 1 1
v -0.875 1.3125 0.6875 1 1 1 1
v 0.5 1.3125 -0.9375 1 1 1 1
v 0.375 1.3125 -1.0625 1 1 1 1
v 0.375 1.3125 -0.9375 1 1 1 1
v 0.5 1.3125 -1.0625 1 1 1 1
v -1 1.3125 -0.6875 1 1 1 1
v -1 1.3125 -0.8125 1 1 1 1
v -1.125 1.3125 -0.6875 1 1 1 1
v -1 1.3125 -0.8125 1 1 1 1
v -0.75 1.3125 -0.9375 1 1 1 1
v -0.75 1.3125 -0.9375 1 1 1 1
v -0.875 1.3125 -0.8125 1 1 1 1
v -0.875 1.3125 -0.9375 1 1 1 1
v 0.75 1.3125 -0.8125 1 1 1 1
v 0.625 1.3125 -0.9375 1 1 1 1
v 0.625 1.3125 -0.8125 1 1 1 1
v 0.75 1.3125 -0.8125 1 1 1 1
v -0.875 1.3125 0.8125 1 1 1 1
v -1 1.3125 0.6875 1 1 1 1
v -0.875 1.3125 0.8125 1 1 1 1
v -0.875 1.3125 0.6875 1 1 1 1
v 0.75 1.3125 0.6875 1 1 1 1
v 0.75 1.3125 0.6875 1 1 1 1
v 0.625 1.3125 0.8125 1 1 1 1
v 0.625 1.3125 0.6875 1 1 1 1
v -0.5 1.3125 -0.9375 1 1 1 1
v -0.625 1.3125 -1.0625 1 1 1 1
v -0.625 1.3125 -0.9375 1 1 1 1
v -0.5 1.3125 -1.0625 1 1 1 1
v -0.375 1.3125 0.9375 1 1 1 1
v -0.5 1.3125 0.8125 1 1 1 1
v -0.5 1.3125 0.9375 1 1 1 1
v -0.375 1.3125 0.8125 1 1 1 1
v -1 1.3125 0.0625 1 1 1 1
v -1.125 1.3125 -0.0625 1 1 1 1
v -1.125 1.3125 0.0625 1 1 1 1
v -1 1.3125 -0.0625 1 1 1 1
v -1 1.3125 0.6875 1 1 1 1
v -1.125 1.3125 0.5625 1 1 1 1
v -1 1.3125 0.6875 1 1 1 1
v -1 1.3125 0.5625 1 1 1 1
v -0.75 1.3125 0.8125 1 1 1 1
v -0.875 1.3125 0.6875 1 1 1 1
v -0.875 1.3125 0.8125 1 1 1 1
v -0.75 1.3125 0.8125 1 1 1 1
v -1 1.3125 0.4375 1 1 1 1
v -1.125 1.3125 0.3125 1 1 1 1
v -1.125 1.3125 0.4375 1 1 1 1
v -1 1.3125 0.3125 1 1 1 1
v 0.5 1.0625 0.9375 1 1 1 1
v -0.75 1.3125 0.9375 1 1 1 1
v -0.75 1.0625 0.9375 1 1 1 1
v 0.5 1.3125 0.9375 1 1 1 1
v -0.75 1.0625 0.9375 1 1 1 1
v -0.75 1.3125 0.9375 1 1 1 1
v -1.125 1.0625 0.5625 1 1 1 1
v -1.125 1.3125 0.5625 1 1 1 1
v 0.875 1.0625 0.5625 1 1 1 1
v 0.5 1.3125 0.9375 1 1 1 1
v 0.5 1.0625 0.9375 1 1 1 1
v 0.875 1.3125 0.5625 1 1 1 1
v 0.875 1.0625 -0.6875 1 1 1 1
v 0.875 1.3125 0.5625 1 1 1 1
v 0.875 1.0625 0.5625 1 1 1 1
v 0.875 1.3125 -0.6875 1 1 1 1
v 0.5 1.0625 -1.0625 1 1 1 1
v 0.875 1.3125 -0.6875 1 1 1 1
v 0.875 1.0625 -0.6875 1 1 1 1
v 0.5 1.3125 -1.0625 1 1 1 1
v -0.75 1.0625 -1.0625 1 1 1 1
v 0.5 1.3125 -1.0625 1 1 1 1
v 0.5 1.0625 -1.0625 1 1 1 1
v -0.75 1.3125 -1.0625 1 1 1 1
v -1.125 1.0625 0.5625 1 1 1 1
v -1.125 1.3125 -0.6875 1 1 1 1
v -1.125 1.0625 -0.6875 1 1 1 1
v -1.125 1.3125 0.5625 1 1 1 1
v -1.125 1.0625 -0.6875 1 1 1 1
v -0.75 1.3125 -1.0625 1 1 1 1
v -0.75 1.0625 -1.0625 1 1 1 1
v -1.125 1.3125 -0.6875 1 1 1 1
v 0.75 1.0625 0.5625 1 1 1 1
v 1 1.0625 -0.6875 1 1 1 1
v 0.75 1.0625 -0.6875 1 1 1 1
v 1 1.0625 0.5625 1 1 1 1
v -0.75 1.0625 0.8125 1 1 1 1
v 0.5 1.3125 0.8125 1 1 1 1
v 0.5 1.0625 0.8125 1 1 1 1
v -0.75 1.3125 0.8125 1 1 1 1
v -1 1.0625 -0.6875 1 1 1 1
v -1 1.3125 0.5625 1 1 1 1
v -1 1.0625 0.5625 1 1 1 1
v -1 1.3125 -0.6875 1 1 1 1
v 0.5 1.0625 -0.9375 1 1 1 1
v -0.75 1.3125 -0.9375 1 1 1 1
v -0.75 1.0625 -0.9375 1 1 1 1
v 0.5 1.3125 -0.9375 1 1 1 1
v 0.75 1.0625 0.5625 1 1 1 1
v 0.75 1.3125 -0.6875 1 1 1 1
v 0.75 1.0625 -0.6875 1 1 1 1
v 0.75 1.3125 0.5625 1 1 1 1
v 0.5 1.0625 0.8125 1 1 1 1
v 0.75 1.3125 0.5625 1 1 1 1
v 0.75 1.0625 0.5625 1 1 1 1
v 0.5 1.3125 0.8125 1 1 1 1
v -1 1.0625 0.5625 1 1 1 1
v -0.75 1.3125 0.8125 1 1 1 1
v -0.75 1.0625 0.8125 1 1 1 1
v -1 1.3125 0.5625 1 1 1 1
v -0.75 1.0625 -0.9375 1 1 1 1
v -1 1.3125 -0.6875 1 1 1 1
v -1 1.0625 -0.6875 1 1 1 1
v -0.75 1.3125 -0.9375 1 1 1 1
v 0.75 1.0625 -0.6875 1 1 1 1
v 0.5 1.3125 -0.9375 1 1 1 1
v 0.5 1.0625 -0.9375 1 1 1 1
v 0.75 1.3125 -0.6875 1 1 1 1
v -1.1875 0.9375 0.5625 1 1 1 1
v -1.1875 1.0625 0.3125 1 1 1 1
v -1.1875 0.9375 0.3125 1 1 1 1
v -1.1875 1.0625 0.5625 1 1 1 1
v 1.0625 0.9375 0.5625 1 1 1 1
v 0.8125 1.0625 0.8125 1 1 1 1
v 0.8125 0.9375 0.8125 1 1 1 1
v 1.0625 1.0625 0.5625 1 1 1 1
v -0.9375 0.9375 0.8125 1 1 1 1
v -1.1875 1.0625 0.5625 1 1 1 1
v -1.1875 0.9375 0.5625 1 1 1 1
v -0.9375 1.0625 0.8125 1 1 1 1
v -0.4375 0.9375 1.0625 1 1 1 1
v -0.6875 1.0625 1.0625 1 1 1 1
v -0.6875 0.9375 1.0625 1 1 1 1
v -0.4375 1.0625 1.0625 1 1 1 1
v -0.1875 0.9375 1.0625 1 1 1 1
v -0.4375 1.0625 1.0625 1 1 1 1
v -0.4375 0.9375 1.0625 1 1 1 1
v -0.1875 1.0625 1.0625 1 1 1 1
v 0.0625 0.9375 1.0625 1 1 1 1
v -0.1875 1.0625 1.0625 1 1 1 1
v -0.1875 0.9375 1.0625 1 1 1 1
v 0.0625 1.0625 1.0625 1 1 1 1
v 0.3125 0.9375 1.0625 1 1 1 1
v 0.0625 1.0625 1.0625 1 1 1 1
v 0.0625 0.9375 1.0625 1 1 1 1
v 0.3125 1.0625 1.0625 1 1 1 1
v 0.5625 0.9375 1.0625 1 1 1 1
v 0.3125 1.0625 1.0625 1 1 1 1
v 0.3125 0.9375 1.0625 1 1 1 1
v 0.5625 1.0625 1.0625 1 1 1 1
v 0.8125 0.9375 0.8125 1 1 1 1
v 0.5625 1.0625 1.0625 1 1 1 1
v 0.5625 0.9375 1.0625 1 1 1 1
v 0.8125 1.0625 0.8125 1 1 1 1
v -0.6875 0.9375 1.0625 1 1 1 1
v -0.9375 1.0625 0.8125 1 1 1 1
v -0.9375 0.9375 0.8125 1 1 1 1
v -0.6875 1.0625 1.0625 1 1 1 1
v 1.0625 0.9375 0.3125 1 1 1 1
v 1.0625 1.0625 0.5625 1 1 1 1
v 1.0625 0.9375 0.5625 1 1 1 1
v 1.0625 1.0625 0.3125 1 1 1 1
v 1.0625 1.0625 0.3125 1 1 1 1
v 0.8125 1.0625 0.0625 1 1 1 1
v 0.8125 1.0625 0.3125 1 1 1 1
v 1.0625 1.0625 0.0625 1 1 1 1
v 1.0625 1.0625 0.5625 1 1 1 1
v 0.8125 1.0625 0.3125 1 1 1 1
v 0.8125 1.0625 0.5625 1 1 1 1
v 1.0625 1.0625 0.3125 1 1 1 1
v -0.6875 1.0625 -0.9375 1 1 1 1
v -0.6875 1.0625 -1.1875 1 1 1 1
v -0.9375 1.0625 -0.9375 1 1 1 1
v -0.6875 1.0625 -1.1875 1 1 1 1
v -0.6875 1.0625 1.0625 1 1 1 1
v -0.9375 1.0625 0.8125 1 1 1 1
v -0.6875 1.0625 1.0625 1 1 1 1
v -0.6875 1.0625 0.8125 1 1 1 1
v 0.8125 1.0625 -0.9375 1 1 1 1
v 0.5625 1.0625 -1.1875 1 1 1 1
v 0.5625 1.0625 -0.9375 1 1 1 1
v 0.8125 1.0625 -0.9375 1 1 1 1
v 0.8125 1.0625 -0.6875 1 1 1 1
v 0.5625 1.0625 -0.9375 1 1 1 1
v 0.5625 1.0625 -0.6875 1 1 1 1
v 0.8125 1.0625 -0.9375 1 1 1 1
v 0.8125 1.0625 -0.4375 1 1 1 1
v 0.5625 1.0625 -0.6875 1 1 1 1
v 0.5625 1.0625 -0.4375 1 1 1 1
v 0.8125 1.0625 -0.6875 1 1 1 1
v 0.8125 1.0625 -0.1875 1 1 1 1
v 0.5625 1.0625 -0.4375 1 1 1 1
v 0.5625 1.0625 -0.1875 1 1 1 1
v 0.8125 1.0625 -0.4375 1 1 1 1
v 0.8125 1.0625 0.0625 1 1 1 1
v 0.5625 1.0625 -0.1875 1 1 1 1
v 0.5625 1.0625 0.0625 1 1 1 1
v 0.8125 1.0625 -0.1875 1 1 1 1
v 0.8125 1.0625 0.3125 1 1 1 1
v 0.5625 1.0625 0.0625 1 1 1 1
v 0.5625 1.0625 0.3125 1 1 1 1
v 0.8125 1.0625 0.0625 1 1 1 1
v 0.8125 1.0625 0.5625 1 1 1 1
v 0.5625 1.0625 0.3125 1 1 1 1
v 0.5625 1.0625 0.5625 1 1 1 1
v 0.8125 1.0625 0.3125 1 1 1 1
v 0.8125 1.0625 0.8125 1 1 1 1
v 0.5625 1.0625 0.5625 1 1 1 1
v 0.5625 1.0625 0.8125 1 1 1 1
v 0.8125 1.0625 0.5625 1 1 1 1
v 0.8125 1.0625 0.8125 1 1 1 1
v 0.8125 1.0625 0.8125 1 1 1 1
v 0.5625 1.0625 1.0625 1 1 1 1
v 0.5625 1.0625 0.8125 1 1 1 1
v 0.5625 1.0625 -0.9375 1 1 1 1
v 0.3125 1.0625 -1.1875 1 1 1 1
v 0.3125 1.0625 -0.9375 1 1 1 1
v 0.5625 1.0625 -1.1875 1 1 1 1
v 0.5625 1.0625 -0.6875 1 1 1 1
v 0.3125 1.0625 -0.9375 1 1 1 1
v 0.3125 1.0625 -0.6875 1 1 1 1
v 0.5625 1.0625 -0.9375 1 1 1 1
v 0.5625 1.0625 -0.4375 1 1 1 1
v 0.3125 1.0625 -0.6875 1 1 1 1
v 0.3125 1.0625 -0.4375 1 1 1 1
v 0.5625 1.0625 -0.6875 1 1 1 1
v 0.5625 1.0625 -0.1875 1 1 1 1
v 0.3125 1.0625 -0.4375 1 1 1 1
v 0.3125 1.0625 -0.1875 1 1 1 1
v 0.5625 1.0625 -0.4375 1 1 1 1
v 0.5625 1.0625 0.0625 1 1 1 1
v 0.3125 1.0625 -0.1875 1 1 1 1
v 0.3125 1.0625 0.0625 1 1 1 1
v 0.5625 1.0625 -0.1875 1 1 1 1
v 0.5625 1.0625 0.3125 1 1 1 1
v 0.3125 1.0625 0.0625 1 1 1 1
v 0.3125 1.0625 0.3125 1 1 1 1
v 0.5625 1.0625 0.0625 1 1 1 1
v 0.5625 1.0625 0.5625 1 1 1 1
v 0.3125 1.0625 0.3125 1 1 1 1
v 0.3125 1.0625 0.5625 1 1 1 1
v 0.5625 1.0625 0.3125 1 1 1 1
v 0.5625 1.0625 0.8125 1 1 1 1
v 0.3125 1.0625 0.5625 1 1 1 1
v 0.3125 1.0625 0.8125 1 1 1 1
v 0.5625 1.0625 0.5625 1 1 1 1
v 0.5625 1.0625 1.0625 1 1 1 1
v 0.3125 1.0625 0.8125 1 1 1 1
v 0.3125 1.0625 1.0625 1 1 1 1
v 0.5625 1.0625 0.8125 1 1 1 1
v 0.3125 1.0625 -0.9375 1 1 1 1
v 0.0625 1.0625 -1.1875 1 1 1 1
v 0.0625 1.0625 -0.9375 1 1 1 1
v 0.3125 1.0625 -1.1875 1 1 1 1
v 0.3125 1.0625 -0.6875 1 1 1 1
v 0.0625 1.0625 -0.9375 1 1 1 1
v 0.0625 1.0625 -0.6875 1 1 1 1
v 0.3125 1.0625 -0.9375 1 1 1 1
v 0.3125 1.0625 -0.4375 1 1 1 1
v 0.0625 1.0625 -0.6875 1 1 1 1
v 0.0625 1.0625 -0.4375 1 1 1 1
v 0.3125 1.0625 -0.6875 1 1 1 1
v 0.3125 1.0625 -0.1875 1 1 1 1
v 0.0625 1.0625 -0.4375 1 1 1 1
v 0.0625 1.0625 -0.1875 1 1 1 1
v 0.3125 1.0625 -0.4375 1 1 1 1
v 0.3125 1.0625 0.0625 1 1 1 1
v 0.0625 1.0625 -0.1875 1 1 1 1
v 0.0625 1.0625 0.0625 1 1 1 1
v 0.3125 1.0625 -0.1875 1 1 1 1
v 0.3125 1.0625 0.3125 1 1 1 1
v 0.0625 1.0625 0.0625 1 1 1 1
v 0.0625 1.0625 0.3125 1 1 1 1
v 0.3125 1.0625 0.0625 1 1 1 1
v 0.3125 1.0625 0.5625 1 1 1 1
v 0.0625 1.0625 0.3125 1 1 1 1
v 0.0625 1.0625 0.5625 1 1 1 1
v 0.3125 1.0625 0.3125 1 1 1 1
v 0.3125 1.0625 0.8125 1 1 1 1
v 0.0625 1.0625 0.5625 1 1 1 1
v 0.0625 1.0625 0.8125 1 1 1 1
v 0.3125 1.0625 0.5625 1 1 1 1
v 0.3125 1.0625 1.0625 1 1 1 1
v 0.0625 1.0625 0.8125 1 1 1 1
v 0.0625 1.0625 1.0625 1 1 1 1
v 0.3125 1.0625 0.8125 1 1 1 1
v 0.0625 1.0625 -0.9375 1 1 1 1
v -0.1875 1.0625 -1.1875 1 1 1 1
v -0.1875 1.0625 -0.9375 1 1 1 1
v 0.0625 1.0625 -1.1875 1 1 1 1
v 0.0625 1.0625 -0.6875 1 1 1 1
v -0.1875 1.0625 -0.9375 1 1 1 1
v -0.1875 1.0625 -0.6875 1 1 1 1
v 0.0625 1.0625 -0.9375 1 1 1 1
v 0.0625 1.0625 -0.4375 1 1 1 1
v -0.1875 1.0625 -0.6875 1 1 1 1
v -0.1875 1.0625 -0.4375 1 1 1 1
v 0.0625 1.0625 -0.6875 1 1 1 1
v 0.0625 1.0625 -0.1875 1 1 1 1
v -0.1875 1.0625 -0.4375 1 1 1 1
v -0.1875 1.0625 -0.1875 1 1 1 1
v 0.0625 1.0625 -0.4375 1 1 1 1
v 0.0625 1.0625 0.0625 1 1 1 1
v -0.1875 1.0625 -0.1875 1 1 1 1
v -0.1875 1.0625 0.0625 1 1 1 1
v 0.0625 1.0625 -0.1875 1 1 1 1
v 0.0625 1.0625 0.3125 1 1 1 1
v -0.1875 1.0625 0.0625 1 1 1 1
v -0.1875 1.0625 0.3125 1 1 1 1
v 0.0625 1.0625 0.0625 1 1 1 1
v 0.0625 1.0625 0.5625 1 1 1 1
v -0.1875 1.0625 0.3125 1 1 1 1
v -0.1875 1.0625 0.5625 1 1 1 1
v 0.0625 1.0625 0.3125 1 1 1 1
v 0.0625 1.0625 0.8125 1 1 1 1
v -0.1875 1.0625 0.5625 1 1 1 1
v -0.1875 1.0625 0.8125 1 1 1 1
v 0.0625 1.0625 0.5625 1 1 1 1
v 0.0625 1.0625 1.0625 1 1 1 1
v -0.1875 1.0625 0.8125 1 1 1 1
v -0.1875 1.0625 1.0625 1 1 1 1
v 0.0625 1.0625 0.8125 1 1 1 1
v -0.1875 1.0625 -0.9375 1 1 1 1
v -0.4375 1.0625 -1.1875 1 1 1 1
v -0.4375 1.0625 -0.9375 1 1 1 1
v -0.1875 1.0625 -1.1875 1 1 1 1
v -0.1875 1.0625 -0.6875 1 1 1 1
v -0.4375 1.0625 -0.9375 1 1 1 1
v -0.4375 1.0625 -0.6875 1 1 1 1
v -0.1875 1.0625 -0.9375 1 1 1 1
v -0.1875 1.0625 -0.4375 1 1 1 1
v -0.4375 1.0625 -0.6875 1 1 1 1
v -0.4375 1.0625 -0.4375 1 1 1 1
v -0.1875 1.0625 -0.6875 1 1 1 1
v -0.1875 1.0625 -0.1875 1 1 1 1
v -0.4375 1.0625 -0.4375 1 1 1 1
v -0.4375 1.0625 -0.1875 1 1 1 1
v -0.1875 1.0625 -0.4375 1 1 1 1
v -0.1875 1.0625 0.0625 1 1 1 1
v -0.4375 1.0625 -0.1875 1 1 1 1
v -0.4375 1.0625 0.0625 1 1 1 1
v -0.1875 1.0625 -0.1875 1 1 1 1
v -0.1875 1.0625 0.3125 1 1 1 1
v -0.4375 1.0625 0.0625 1 1 1 1
v -0.4375 1.0625 0.3125 1 1 1 1
v -0.1875 1.0625 0.0625 1 1 1 1
v -0.1875 1.0625 0.5625 1 1 1 1
v -0.4375 1.0625 0.3125 1 1 1 1
v -0.4375 1.0625 0.5625 1 1 1 1
v -0.1875 1.0625 0.3125 1 1 1 1
v -0.1875 1.0625 0.8125 1 1 1 1
v -0.4375 1.0625 0.5625 1 1 1 1
v -0.4375 1.0625 0.8125 1 1 1 1
v -0.1875 1.0625 0.5625 1 1 1 1
v -0.1875 1.0625 1.0625 1 1 1 1
v -0.4375 1.0625 0.8125 1 1 1 1
v -0.4375 1.0625 1.0625 1 1 1 1
v -0.1875 1.0625 0.8125 1 1 1 1
v -0.4375 1.0625 -0.9375 1 1 1 1
v -0.6875 1.0625 -1.1875 1 1 1 1
v -0.6875 1.0625 -0.9375 1 1 1 1
v -0.4375 1.0625 -1.1875 1 1 1 1
v -0.4375 1.0625 -0.6875 1 1 1 1
v -0.6875 1.0625 -0.9375 1 1 1 1
v -0.6875 1.0625 -0.6875 1 1 1 1
v -0.4375 1.0625 -0.9375 1 1 1 1
v -0.4375 1.0625 -0.4375 1 1 1 1
v -0.6875 1.0625 -0.6875 1 1 1 1
v -0.6875 1.0625 -0.4375 1 1 1 1
v -0.4375 1.0625 -0.6875 1 1 1 1
v -0.4375 1.0625 -0.1875 1 1 1 1
v -0.6875 1.0625 -0.4375 1 1 1 1
v -0.6875 1.0625 -0.1875 1 1 1 1
v -0.4375 1.0625 -0.4375 1 1 1 1
v -0.4375 1.0625 0.0625 1 1 1 1
v -0.6875 1.0625 -0.1875 1 1 1 1
v -0.6875 1.0625 0.0625 1 1 1 1
v -0.4375 1.0625 -0.1875 1 1 1 1
v -0.4375 1.0625 0.3125 1 1 1 1
v -0.6875 1.0625 0.0625 1 1 1 1
v -0.6875 1.0625 0.3125 1 1 1 1
v -0.4375 1.0625 0.0625 1 1 1 1
v -0.4375 1.0625 0.5625 1 1 1 1
v -0.6875 1.0625 0.3125 1 1 1 1
v -0.6875 1.0625 0.5625 1 1 1 1
v -0.4375 1.0625 0.3125 1 1 1 1
v -0.4375 1.0625 0.8125 1 1 1 1
v -0.6875 1.0625 0.5625 1 1 1 1
v -0.6875 1.0625 0.8125 1 1 1 1
v -0.4375 1.0625 0.5625 1 1 1 1
v -0.4375 1.0625 1.0625 1 1 1 1
v -0.6875 1.0625 0.8125 1 1 1 1
v -0.6875 1.0625 1.0625 1 1 1 1
v -0.4375 1.0625 0.8125 1 1 1 1
v -0.9375 1.0625 -0.6875 1 1 1 1
v -0.9375 1.0625 -0.9375 1 1 1 1
v -1.1875 1.0625 -0.6875 1 1 1 1
v -0.9375 1.0625 -0.9375 1 1 1 1
v -0.6875 1.0625 -0.6875 1 1 1 1
v -0.9375 1.0625 -0.9375 1 1 1 1
v -0.9375 1.0625 -0.6875 1 1 1 1
v -0.6875 1.0625 -0.9375 1 1 1 1
v -0.6875 1.0625 -0.4375 1 1 1 1
v -0.9375 1.0625 -0.6875 1 1 1 1
v -0.9375 1.0625 -0.4375 1 1 1 1
v -0.6875 1.0625 -0.6875 1 1 1 1
v -0.6875 1.0625 -0.1875 1 1 1 1
v -0.9375 1.0625 -0.4375 1 1 1 1
v -0.9375 1.0625 -0.1875 1 1 1 1
v -0.6875 1.0625 -0.4375 1 1 1 1
v -0.6875 1.0625 0.0625 1 1 1 1
v -0.9375 1.0625 -0.1875 1 1 1 1
v -0.9375 1.0625 0.0625 1 1 1 1
v -0.6875 1.0625 -0.1875 1 1 1 1
v -0.6875 1.0625 0.3125 1 1 1 1
v -0.9375 1.0625 0.0625 1 1 1 1
v -0.9375 1.0625 0.3125 1 1 1 1
v -0.6875 1.0625 0.0625 1 1 1 1
v -0.6875 1.0625 0.5625 1 1 1 1
v -0.9375 1.0625 0.3125 1 1 1 1
v -0.9375 1.0625 0.5625 1 1 1 1
v -0.6875 1.0625 0.3125 1 1 1 1
v -0.6875 1.0625 0.8125 1 1 1 1
v -0.9375 1.0625 0.5625 1 1 1 1
v -0.9375 1.0625 0.8125 1 1 1 1
v -0.6875 1.0625 0.5625 1 1 1 1
v -0.9375 1.0625 0.8125 1 1 1 1
v -1.1875 1.0625 0.5625 1 1 1 1
v -0.9375 1.0625 0.8125 1 1 1 1
v -0.9375 1.0625 0.5625 1 1 1 1
v 1.0625 1.0625 -0.4375 1 1 1 1
v 0.8125 1.0625 -0.6875 1 1 1 1
v 0.8125 1.0625 -0.4375 1 1 1 1
v 1.0625 1.0625 -0.6875 1 1 1 1
v 1.0625 1.0625 0.5625 1 1 1 1
v 1.0625 1.0625 0.5625 1 1 1 1
v 0.8125 1.0625 0.8125 1 1 1 1
v 0.8125 1.0625 0.5625 1 1 1 1
v -0.9375 1.0625 -0.4375 1 1 1 1
v -1.1875 1.0625 -0.6875 1 1 1 1
v -1.1875 1.0625 -0.4375 1 1 1 1
v -0.9375 1.0625 -0.6875 1 1 1 1
v -0.9375 1.0625 -0.1875 1 1 1 1
v -1.1875 1.0625 -0.4375 1 1 1 1
v -1.1875 1.0625 -0.1875 1 1 1 1
v -0.9375 1.0625 -0.4375 1 1 1 1
v -0.9375 1.0625 0.0625 1 1 1 1
v -1.1875 1.0625 -0.1875 1 1 1 1
v -1.1875 1.0625 0.0625 1 1 1 1
v -0.9375 1.0625 -0.1875 1 1 1 1
v -0.9375 1.0625 0.3125 1 1 1 1
v -1.1875 1.0625 0.0625 1 1 1 1
v -1.1875 1.0625 0.3125 1 1 1 1
v -0.9375 1.0625 0.0625 1 1 1 1
v -0.9375 1.0625 0.5625 1 1 1 1
v -1.1875 1.0625 0.3125 1 1 1 1
v -1.1875 1.0625 0.5625 1 1 1 1
v -0.9375 1.0625 0.3125 1 1 1 1
v 1.0625 1.0625 -0.6875 1 1 1 1
v 0.8125 1.0625 -0.9375 1 1 1 1
v 0.8125 1.0625 -0.6875 1 1 1 1
v 1.0625 1.0625 -0.6875 1 1 1 1
v 1.0625 1.0625 -0.1875 1 1 1 1
v 0.8125 1.0625 -0.4375 1 1 1 1
v 0.8125 1.0625 -0.1875 1 1 1 1
v 1.0625 1.0625 -0.4375 1 1 1 1
v 1.0625 1.0625 0.0625 1 1 1 1
v 0.8125 1.0625 -0.1875 1 1 1 1
v 0.8125 1.0625 0.0625 1 1 1 1
v 1.0625 1.0625 -0.1875 1 1 1 1
v 1.0625 0.9375 -0.1875 1 1 1 1
v 1.0625 1.0625 0.0625 1 1 1 1
v 1.0625 0.9375 0.0625 1 1 1 1
v 1.0625 1.0625 -0.1875 1 1 1 1
v 1.0625 0.9375 -0.4375 1 1 1 1
v 1.0625 1.0625 -0.1875 1 1 1 1
v 1.0625 0.9375 -0.1875 1 1 1 1
v 1.0625 1.0625 -0.4375 1 1 1 1
v -1.1875 0.9375 0.3125 1 1 1 1
v -1.1875 1.0625 0.0625 1 1 1 1
v -1.1875 0.9375 0.0625 1 1 1 1
v -1.1875 1.0625 0.3125 1 1 1 1
v -1.1875 0.9375 0.0625 1 1 1 1
v -1.1875 1.0625 -0.1875 1 1 1 1
v -1.1875 0.9375 -0.1875 1 1 1 1
v -1.1875 1.0625 0.0625 1 1 1 1
v -1.1875 0.9375 -0.1875 1 1 1 1
v -1.1875 1.0625 -0.4375 1 1 1 1
v -1.1875 0.9375 -0.4375 1 1 1 1
v -1.1875 1.0625 -0.1875 1 1 1 1
v -1.1875 0.9375 -0.4375 1 1 1 1
v -1.1875 1.0625 -0.6875 1 1 1 1
v -1.1875 0.9375 -0.6875 1 1 1 1
v -1.1875 1.0625 -0.4375 1 1 1 1
v -1.1875 0.9375 -0.6875 1 1 1 1
v -0.9375 1.0625 -0.9375 1 1 1 1
v -0.9375 0.9375 -0.9375 1 1 1 1
v -1.1875 1.0625 -0.6875 1 1 1 1
v -0.6875 0.9375 -1.1875 1 1 1 1
v -0.4375 1.0625 -1.1875 1 1 1 1
v -0.4375 0.9375 -1.1875 1 1 1 1
v -0.6875 1.0625 -1.1875 1 1 1 1
v -0.4375 0.9375 -1.1875 1 1 1 1
v -0.1875 1.0625 -1.1875 1 1 1 1
v -0.1875 0.9375 -1.1875 1 1 1 1
v -0.4375 1.0625 -1.1875 1 1 1 1
v -0.1875 0.9375 -1.1875 1 1 1 1
v 0.0625 1.0625 -1.1875 1 1 1 1
v 0.0625 0.9375 -1.1875 1 1 1 1
v -0.1875 1.0625 -1.1875 1 1 1 1
v 0.0625 0.9375 -1.1875 1 1 1 1
v 0.3125 1.0625 -1.1875 1 1 1 1
v 0.3125 0.9375 -1.1875 1 1 1 1
v 0.0625 1.0625 -1.1875 1 1 1 1
v 0.3125 0.9375 -1.1875 1 1 1 1
v 0.5625 1.0625 -1.1875 1 1 1 1
v 0.5625 0.9375 -1.1875 1 1 1 1
v 0.3125 1.0625 -1.1875 1 1 1 1
v -0.9375 0.9375 -0.9375 1 1 1 1
v -0.6875 1.0625 -1.1875 1 1 1 1
v -0.6875 0.9375 -1.1875 1 1 1 1
v -0.9375 1.0625 -0.9375 1 1 1 1
v 1.0625 0.9375 0.0625 1 1 1 1
v 1.0625 1.0625 0.3125 1 1 1 1
v 1.0625 0.9375 0.3125 1 1 1 1
v 1.0625 1.0625 0.0625 1 1 1 1
v 0.5625 0.9375 -1.1875 1 1 1 1
v 0.8125 1.0625 -0.9375 1 1 1 1
v 0.8125 0.9375 -0.9375 1 1 1 1
v 0.5625 1.0625 -1.1875 1 1 1 1
v 1.0625 0.9375 -0.6875 1 1 1 1
v 1.0625 1.0625 -0.4375 1 1 1 1
v 1.0625 0.9375 -0.4375 1 1 1 1
v 1.0625 1.0625 -0.6875 1 1 1 1
v 0.8125 0.9375 -0.9375 1 1 1 1
v 1.0625 1.0625 -0.6875 1 1 1 1
v 1.0625 0.9375 -0.6875 1 1 1 1
v 0.8125 1.0625 -0.9375 1 1 1 1
v 0.4375 0.0625 -0.6875 1 1 1 1
v -0.5625 0.9375 -0.6875 1 1 1 1
v 0.4375 0.9375 -0.6875 1 1 1 1
v -0.5625 0.0625 -0.6875 1 1 1 1
v 0.5625 0.0625 0.4375 1 1 1 1
v 0.5625 0.9375 -0.5625 1 1 1 1
v 0.5625 0.9375 0.4375 1 1 1 1
v 0.5625 0.0625 -0.5625 1 1 1 1
v 0.5625 0.0625 -0.5625 1 1 1 1
v 0.4375 0.9375 -0.6875 1 1 1 1
v 0.5625 0.9375 -0.5625 1 1 1 1
v 0.4375 0.0625 -0.6875 1 1 1 1
v -0.6875 0.0625 -0.5625 1 1 1 1
v -0.6875 0.9375 0.4375 1 1 1 1
v -0.6875 0.9375 -0.5625 1 1 1 1
v -0.6875 0.0625 0.4375 1 1 1 1
v -0.5625 0.0625 0.5625 1 1 1 1
v 0.4375 0.9375 0.5625 1 1 1 1
v -0.5625 0.9375 0.5625 1 1 1 1
v 0.4375 0.0625 0.5625 1 1 1 1
v -0.5625 0.0625 -0.6875 1 1 1 1
v -0.6875 0.9375 -0.5625 1 1 1 1
v -0.5625 0.9375 -0.6875 1 1 1 1
v -0.6875 0.0625 -0.5625 1 1 1 1
v -0.6875 0.0625 0.4375 1 1 1 1
v -0.5625 0.9375 0.5625 1 1 1 1
v -0.6875 0.9375 0.4375 1 1 1 1
v -0.5625 0.0625 0.5625 1 1 1 1
v 0.4375 0.0625 0.5625 1 1 1 1
v 0.5625 0.9375 0.4375 1 1 1 1
v 0.4375 0.9375 0.5625 1 1 1 1
v 0.5625 0.0625 0.4375 1 1 1 1
vt 0.46875 0
vt 0.4765625 0.0078125
vt 0.46875 0.0078125
vt 0.4765625 0
vt 0.4609375 0
vt 0.4609375 0.0078125
vt 0.453125 0
vt 0.453125 0.0078125
vt 0.4453125 0
vt 0.4453125 0.0078125
vt 0.375 0.03125
vt 0.3828125 0.0390625
vt 0.375 0.0390625
vt 0.3828125 0.03125
vt 0.375 0.0546875
vt 0.3828125 0.0625
vt 0.375 0.0625
vt 0.3828125 0.0546875
vt 0.4921875 0.0625
vt 0.5 0.0703125
vt 0.4921875 0.0703125
vt 0.5 0.0625
vt 0.4921875 0.0390625
vt 0.5 0.046875
vt 0.4921875 0.046875
vt 0.5 0.0390625
vt 0.4375 0
vt 0.4375 0.0078125
vt 0.4296875 0
vt 0.4296875 0.0078125
vt 0.421875 0
vt 0.421875 0.0078125
vt 0.4140625 0.1171875
vt 0.421875 0.125
vt 0.4140625 0.125
vt 0.421875 0.1171875
vt 0.375 0.0859375
vt 0.3828125 0.09375
vt 0.375 0.09375
vt 0.3828125 0.0859375
vt 0.4921875 0.09375
vt 0.5 0.1015625
vt 0.4921875 0.1015625
vt 0.5 0.09375
vt 0.4453125 0.1171875
vt 0.453125 0.125
vt 0.4453125 0.125
vt 0.453125 0.1171875
vt 0.46875 0.1171875
vt 0.4765625 0.125
vt 0.46875 0.125
vt 0.4765625 0.1171875
vt 0.4375 0.1171875
vt 0.4375 0.125
vt 0.4921875 0.015625
vt 0.5 0.0234375
vt 0.4921875 0.0234375
vt 0.5 0.015625
vt 0.3984375 0
vt 0.40625 0.0078125
vt 0.3984375 0.0078125
vt 0.40625 0
vt 0.375 0.0703125
vt 0.3828125 0.078125
vt 0.375 0.078125
vt 0.3828125 0.0703125
vt 0.4296875 0.125
vt 0.4296875 0.1171875
vt 0.4140625 0
vt 0.4140625 0.0078125
vt 0.4609375 0.125
vt 0.4609375 0.1171875
vt 0.375 0.015625
vt 0.3828125 0.015625
vt 0.375 0.0234375
vt 0.3828125 0.0234375
vt 0.4921875 0.078125
vt 0.5 0.0859375
vt 0.4921875 0.0859375
vt 0.5 0.078125
vt 0.3828125 0.1015625
vt 0.375 0.1015625
vt 0.3828125 0.109375
vt 0.375 0.109375
vt 0.390625 0.0078125
vt 0.390625 0.015625
vt 0.3984375 0.015625
vt 0.40625 0.109375
vt 0.40625 0.1171875
vt 0.4140625 0.109375
vt 0.484375 0.015625
vt 0.484375 0.0234375
vt 0.3984375 0.1171875
vt 0.40625 0.125
vt 0.3984375 0.125
vt 0.3828125 0.046875
vt 0.375 0.046875
vt 0.4765625 0.109375
vt 0.484375 0.109375
vt 0.484375 0.1171875
vt 0.4921875 0.03125
vt 0.5 0.03125
vt 0.4921875 0.109375
vt 0.4921875 0.1171875
vt 0.4921875 0.0546875
vt 0.5 0.0546875
vt 0.484375 0.0078125
vt 0.484375 0
vt 0.390625 0.0234375
vt 0.390625 0
vt 0.5 0.109375
vt 0.390625 0.109375
vt 0.390625 0.1171875
vt 0.3984375 0.109375
vt 0.484375 0.125
vt 0.484375 0.1015625
vt 0.3828125 0.1171875
vt 0.3828125 0.0078125
vt 0.390625 0.125
vt 0.390625 0.1015625
vt 0.625 0
vt 0.640625 0.078125
vt 0.625 0.078125
vt 0.640625 0
vt 0.625 0.109375
vt 0.640625 0.109375
vt 0.65625 0
vt 0.671875 0.078125
vt 0.65625 0.078125
vt 0.671875 0
vt 0.671875 0.1015625
vt 0.65625 0.1015625
vt 0.03125 0.140625
vt 0.046875 0.1328125
vt 0.046875 0.140625
vt 0.03125 0.1328125
vt 0.015625 0
vt 0.0234375 0.015625
vt 0.015625 0.015625
vt 0.0234375 0
vt 0.015625 0.140625
vt 0.015625 0.1328125
vt 0 0.09375
vt 0.0078125 0.109375
vt 0 0.109375
vt 0.0078125 0.09375
vt 0 0.078125
vt 0.0078125 0.078125
vt 0 0.0625
vt 0.0078125 0.0625
vt 0 0.046875
vt 0.0078125 0.046875
vt 0 0.03125
vt 0.0078125 0.03125
vt 0 0.015625
vt 0.0078125 0.015625
vt 0 0.125
vt 0.015625 0.1171875
vt 0.015625 0.125
vt 0 0.1171875
vt 0.046875 0
vt 0.03125 0.0078125
vt 0.03125 0
vt 0.046875 0.0078125
vt 0.0625 0.015625
vt 0.046875 0.015625
vt 0.0625 0
vt 0.03125 0.015625
vt 0.125 0.109375
vt 0.140625 0.109375
vt 0.125 0.125
vt 0.140625 0.125
vt 0.015625 0.109375
vt 0.125 0.015625
vt 0.140625 0.03125
vt 0.125 0.03125
vt 0.140625 0.015625
vt 0.109375 0.015625
vt 0.109375 0.03125
vt 0.09375 0.015625
vt 0.09375 0.03125
vt 0.078125 0.015625
vt 0.078125 0.03125
vt 0.0625 0.03125
vt 0.046875 0.03125
vt 0.03125 0.03125
vt 0.015625 0.03125
vt 0.140625 0.046875
vt 0.125 0.046875
vt 0.109375 0.046875
vt 0.09375 0.046875
vt 0.078125 0.046875
vt 0.0625 0.046875
vt 0.046875 0.046875
vt 0.03125 0.046875
vt 0.015625 0.046875
vt 0.140625 0.0625
vt 0.125 0.0625
vt 0.109375 0.0625
vt 0.09375 0.0625
vt 0.078125 0.0625
vt 0.0625 0.0625
vt 0.046875 0.0625
vt 0.03125 0.0625
vt 0.015625 0.0625
vt 0.140625 0.078125
vt 0.125 0.078125
vt 0.109375 0.078125
vt 0.09375 0.078125
vt 0.078125 0.078125
vt 0.0625 0.078125
vt 0.046875 0.078125
vt 0.03125 0.078125
vt 0.015625 0.078125
vt 0.140625 0.09375
vt 0.125 0.09375
vt 0.109375 0.09375
vt 0.09375 0.09375
vt 0.078125 0.09375
vt 0.0625 0.09375
vt 0.046875 0.09375
vt 0.03125 0.09375
vt 0.015625 0.09375
vt 0.109375 0.109375
vt 0.09375 0.109375
vt 0.078125 0.109375
vt 0.0625 0.109375
vt 0.046875 0.109375
vt 0.03125 0.109375
vt 0.109375 0.125
vt 0.109375 0.140625
vt 0.125 0.140625
vt 0.09375 0.125
vt 0.078125 0.125
vt 0.0625 0.125
vt 0.046875 0.125
vt 0.03125 0.125
vt 0.09375 0
vt 0.109375 0
vt 0.09375 0.140625
vt 0.078125 0.140625
vt 0.0625 0.140625
vt 0.125 0
vt 0.078125 0
vt 0.0625 0.0078125
vt 0.078125 0.0078125
vt 0.09375 0.0078125
vt 0.0625 0.1328125
vt 0.078125 0.1328125
vt 0.09375 0.1328125
vt 0.109375 0.1328125
vt 0.125 0.1328125
vt 0.1328125 0.09375
vt 0.1328125 0.109375
vt 0.1328125 0.078125
vt 0.1328125 0.0625
vt 0.1328125 0.046875
vt 0.1328125 0.03125
vt 0.140625 0.1171875
vt 0.125 0.1171875
vt 0.1328125 0.015625
vt 0.109375 0.0078125
vt 0.1171875 0
vt 0.1171875 0.015625
vt 0.703125 0
vt 0.765625 0.0546875
vt 0.703125 0.0546875
vt 0.765625 0
vt 0.6875 0
vt 0.6875 0.0546875
vn 0 1 0
vn 0 0 0
vn 0 0 1
vn -0.70710678 0 0.70710678
vn 0.70710678 0 0.70710678
vn 1 0 0
vn 0.70710678 0 -0.70710678
vn 0 0 -1
vn -1 0 0
vn -0.70710678 0 -0.70710678
g Scene
usemtl 0
f 1/1/1 3/2/1 2/3/1
f 1/1/1 4/4/1 3/2/1
f 5/5/1 6/3/1 7/6/1
f 5/5/1 8/1/1 6/3/1
f 9/7/1 10/6/1 11/8/1
f 9/7/1 12/5/1 10/6/1
f 13/9/1 14/8/1 15/10/1
f 13/9/1 16/7/1 14/8/1
f 17/11/1 18/12/1 19/13/1
f 17/11/1 20/14/1 18/12/1
f 21/15/1 22/16/1 23/17/1
f 21/15/1 24/18/1 22/16/1
f 25/19/1 26/20/1 27/21/1
f 25/19/1 28/22/1 26/20/1
f 29/23/1 30/24/1 31/25/1
f 29/23/1 32/26/1 30/24/1
f 33/27/1 34/10/1 35/28/1
f 33/27/1 36/9/1 34/10/1
f 37/29/1 38/28/1 39/30/1
f 37/29/1 40/27/1 38/28/1
f 41/31/1 42/30/1 43/32/1
f 41/31/1 44/29/1 42/30/1
f 45/33/1 46/34/1 47/35/1
f 45/33/1 48/36/1 46/34/1
f 49/37/1 50/38/1 51/39/1
f 49/37/1 52/40/1 50/38/1
f 53/41/1 54/42/1 55/43/1
f 53/41/1 56/44/1 54/42/1
f 57/45/1 58/46/1 59/47/1
f 57/45/1 60/48/1 58/46/1
f 61/49/1 62/50/1 63/51/1
f 61/49/1 64/52/1 62/50/1
f 65/53/1 66/47/1 67/54/1
f 65/53/1 68/45/1 66/47/1
f 69/55/1 70/56/1 71/57/1
f 69/55/2 72/58/2 70/56/2
f 73/59/1 74/60/1 75/61/1
f 73/59/1 76/62/1 74/60/1
f 77/63/1 78/64/1 79/65/1
f 77/63/1 80/66/1 78/64/1
f 81/17/1 82/66/1 83/63/1
f 81/17/1 84/16/1 82/66/1
f 85/36/1 86/67/1 87/34/1
f 85/36/1 88/68/1 86/67/1
f 89/69/1 90/32/1 91/70/1
f 89/69/1 92/31/1 90/32/1
f 93/48/1 94/71/1 95/46/1
f 93/48/1 96/72/1 94/71/1
f 97/62/1 98/70/1 99/60/1
f 97/62/1 100/69/1 98/70/1
f 101/72/1 102/51/1 103/71/1
f 101/72/1 104/49/1 102/51/1
f 105/73/2 106/74/2 107/75/2
f 106/74/1 108/76/1 107/75/1
f 109/77/1 110/78/1 111/79/1
f 109/77/1 112/80/1 110/78/1
f 113/39/1 114/81/1 115/82/1
f 113/39/1 116/38/1 114/81/1
f 117/82/2 118/83/2 119/84/2
f 117/82/1 120/81/1 118/83/1
f 121/85/1 122/61/1 123/86/1
f 122/61/2 124/87/2 123/86/2
f 125/88/2 126/33/2 127/89/2
f 125/88/1 128/90/1 126/33/1
f 129/91/2 130/57/2 131/92/2
f 129/91/1 132/55/1 130/57/1
f 133/93/1 134/94/1 135/95/1
f 133/93/1 136/89/1 134/94/1
f 137/13/1 138/96/1 139/97/1
f 137/13/1 140/12/1 138/96/1
f 141/98/2 142/99/2 143/52/2
f 142/99/1 144/100/1 143/52/1
f 145/75/1 146/14/1 147/11/1
f 145/75/1 148/76/1 146/14/1
f 149/101/1 150/26/1 151/23/1
f 149/101/1 152/102/1 150/26/1
f 153/99/1 154/103/1 155/100/1
f 154/103/2 156/104/2 155/100/2
f 157/97/1 158/18/1 159/15/1
f 157/97/1 160/96/1 158/18/1
f 161/105/1 162/22/1 163/19/1
f 161/105/1 164/106/1 162/22/1
f 165/25/1 166/106/1 167/105/1
f 165/25/1 168/24/1 166/106/1
f 169/4/1 170/107/1 171/2/1
f 169/4/2 172/108/2 170/107/2
f 173/74/1 174/86/1 175/76/1
f 174/86/2 176/109/2 175/76/2
f 177/110/2 178/59/2 179/85/2
f 178/59/1 180/61/1 179/85/1
f 181/21/1 182/80/1 183/77/1
f 181/21/1 184/20/1 182/80/1
f 185/43/1 186/42/1 187/103/1
f 186/42/2 188/111/2 187/103/2
f 189/112/1 190/93/1 191/113/1
f 189/112/2 192/114/2 190/93/2
f 193/57/1 194/102/1 195/101/1
f 193/57/1 196/56/1 194/102/1
f 197/52/1 198/100/1 199/50/1
f 198/100/2 200/115/2 199/50/2
f 201/116/2 202/43/2 203/99/2
f 202/43/1 204/103/1 203/99/1
f 205/83/1 206/113/1 207/117/1
f 205/83/2 208/112/2 206/113/2
f 209/83/2 210/113/2 211/117/2
f 209/83/1 212/112/1 210/113/1
f 213/118/2 214/85/2 215/74/2
f 214/85/1 216/86/1 215/74/1
f 217/79/1 218/44/1 219/41/1
f 217/79/1 220/78/1 218/44/1
f 221/65/1 222/40/1 223/37/1
f 221/65/1 224/64/1 222/40/1
f 225/68/1 226/54/1 227/67/1
f 225/68/1 228/53/1 226/54/1
f 229/113/2 230/95/2 231/119/2
f 229/113/1 232/93/1 230/95/1
f 233/81/1 234/112/1 235/83/1
f 233/81/2 236/120/2 234/112/2
f 237/89/1 238/35/1 239/94/1
f 237/89/1 240/33/1 238/35/1
f 241/121/3 242/122/3 243/123/3
f 241/121/3 244/124/3 242/122/3
f 245/125/4 246/126/4 247/123/4
f 246/126/4 248/122/4 247/123/4
f 249/123/5 250/126/5 251/125/5
f 249/123/5 252/122/5 250/126/5
f 253/121/6 254/122/6 255/123/6
f 253/121/6 256/124/6 254/122/6
f 257/123/7 258/126/7 259/125/7
f 257/123/7 260/122/7 258/126/7
f 261/121/8 262/122/8 263/123/8
f 261/121/8 264/124/8 262/122/8
f 265/121/9 266/122/9 267/123/9
f 265/121/9 268/124/9 266/122/9
f 269/123/10 270/126/10 271/125/10
f 269/123/10 272/122/10 270/126/10
f 273/127/1 274/128/1 275/129/1
f 273/127/1 276/130/1 274/128/1
f 277/127/8 278/128/8 279/129/8
f 277/127/8 280/130/8 278/128/8
f 281/127/6 282/128/6 283/129/6
f 281/127/6 284/130/6 282/128/6
f 285/127/3 286/128/3 287/129/3
f 285/127/3 288/130/3 286/128/3
f 289/127/9 290/128/9 291/129/9
f 289/127/9 292/130/9 290/128/9
f 293/129/10 294/131/10 295/132/10
f 293/129/10 296/128/10 294/131/10
f 297/129/7 298/131/7 299/132/7
f 297/129/7 300/128/7 298/131/7
f 301/129/5 302/131/5 303/132/5
f 301/129/5 304/128/5 302/131/5
f 305/129/4 306/131/4 307/132/4
f 305/129/4 308/128/4 306/131/4
f 309/133/9 310/134/9 311/135/9
f 309/133/9 312/136/9 310/134/9
f 313/137/5 314/138/5 315/139/5
f 313/137/5 316/140/5 314/138/5
f 317/141/4 318/136/4 319/133/4
f 317/141/4 320/142/4 318/136/4
f 321/143/3 322/144/3 323/145/3
f 321/143/3 324/146/3 322/144/3
f 325/147/3 326/146/3 327/143/3
f 325/147/3 328/148/3 326/146/3
f 329/149/3 330/148/3 331/147/3
f 329/149/3 332/150/3 330/148/3
f 333/151/3 334/150/3 335/149/3
f 333/151/3 336/152/3 334/150/3
f 337/153/3 338/152/3 339/151/3
f 337/153/3 340/154/3 338/152/3
f 341/155/5 342/154/5 343/153/5
f 341/155/5 344/156/5 342/154/5
f 345/157/4 346/158/4 347/159/4
f 345/157/4 348/160/4 346/158/4
f 349/161/6 350/162/6 351/163/6
f 349/161/6 352/164/6 350/162/6
f 353/161/1 354/165/1 355/166/1
f 353/161/1 356/167/1 354/165/1
f 357/163/1 358/166/1 359/168/1
f 357/163/1 360/161/1 358/166/1
f 361/169/1 362/170/1 363/171/1
f 362/170/2 364/172/2 363/171/2
f 365/145/2 366/159/2 367/157/2
f 365/145/1 368/173/1 366/159/1
f 369/174/1 370/175/1 371/176/1
f 369/174/2 372/177/2 370/175/2
f 373/178/1 374/176/1 375/179/1
f 373/178/1 376/174/1 374/176/1
f 377/180/1 378/179/1 379/181/1
f 377/180/1 380/178/1 378/179/1
f 381/182/1 382/181/1 383/183/1
f 381/182/1 384/180/1 382/181/1
f 385/165/1 386/183/1 387/184/1
f 385/165/1 388/182/1 386/183/1
f 389/166/1 390/184/1 391/185/1
f 389/166/1 392/165/1 390/184/1
f 393/168/1 394/185/1 395/186/1
f 393/168/1 396/166/1 394/185/1
f 397/139/1 398/186/1 399/187/1
f 397/139/1 400/168/1 398/186/1
f 401/155/2 402/139/2 403/153/2
f 402/139/1 404/187/1 403/153/1
f 405/176/1 406/188/1 407/189/1
f 405/176/1 408/175/1 406/188/1
f 409/179/1 410/189/1 411/190/1
f 409/179/1 412/176/1 410/189/1
f 413/181/1 414/190/1 415/191/1
f 413/181/1 416/179/1 414/190/1
f 417/183/1 418/191/1 419/192/1
f 417/183/1 420/181/1 418/191/1
f 421/184/1 422/192/1 423/193/1
f 421/184/1 424/183/1 422/192/1
f 425/185/1 426/193/1 427/194/1
f 425/185/1 428/184/1 426/193/1
f 429/186/1 430/194/1 431/195/1
f 429/186/1 432/185/1 430/194/1
f 433/187/1 434/195/1 435/196/1
f 433/187/1 436/186/1 434/195/1
f 437/153/1 438/196/1 439/151/1
f 437/153/1 440/187/1 438/196/1
f 441/189/1 442/197/1 443/198/1
f 441/189/1 444/188/1 442/197/1
f 445/190/1 446/198/1 447/199/1
f 445/190/1 448/189/1 446/198/1
f 449/191/1 450/199/1 451/200/1
f 449/191/1 452/190/1 450/199/1
f 453/192/1 454/200/1 455/201/1
f 453/192/1 456/191/1 454/200/1
f 457/193/1 458/201/1 459/202/1
f 457/193/1 460/192/1 458/201/1
f 461/194/1 462/202/1 463/203/1
f 461/194/1 464/193/1 462/202/1
f 465/195/1 466/203/1 467/204/1
f 465/195/1 468/194/1 466/203/1
f 469/196/1 470/204/1 471/205/1
f 469/196/1 472/195/1 470/204/1
f 473/151/1 474/205/1 475/149/1
f 473/151/1 476/196/1 474/205/1
f 477/198/1 478/206/1 479/207/1
f 477/198/1 480/197/1 478/206/1
f 481/199/1 482/207/1 483/208/1
f 481/199/1 484/198/1 482/207/1
f 485/200/1 486/208/1 487/209/1
f 485/200/1 488/199/1 486/208/1
f 489/201/1 490/209/1 491/210/1
f 489/201/1 492/200/1 490/209/1
f 493/202/1 494/210/1 495/211/1
f 493/202/1 496/201/1 494/210/1
f 497/203/1 498/211/1 499/212/1
f 497/203/1 500/202/1 498/211/1
f 501/204/1 502/212/1 503/213/1
f 501/204/1 504/203/1 502/212/1
f 505/205/1 506/213/1 507/214/1
f 505/205/1 508/204/1 506/213/1
f 509/149/1 510/214/1 511/147/1
f 509/149/1 512/205/1 510/214/1
f 513/207/1 514/215/1 515/216/1
f 513/207/1 516/206/1 514/215/1
f 517/208/1 518/216/1 519/217/1
f 517/208/1 520/207/1 518/216/1
f 521/209/1 522/217/1 523/218/1
f 521/209/1 524/208/1 522/217/1
f 525/210/1 526/218/1 527/219/1
f 525/210/1 528/209/1 526/218/1
f 529/211/1 530/219/1 531/220/1
f 529/211/1 532/210/1 530/219/1
f 533/212/1 534/220/1 535/221/1
f 533/212/1 536/211/1 534/220/1
f 537/213/1 538/221/1 539/222/1
f 537/213/1 540/212/1 538/221/1
f 541/214/1 542/222/1 543/223/1
f 541/214/1 544/213/1 542/222/1
f 545/147/1 546/223/1 547/143/1
f 545/147/1 548/214/1 546/223/1
f 549/216/1 550/170/1 551/169/1
f 549/216/1 552/215/1 550/170/1
f 553/217/1 554/169/1 555/224/1
f 553/217/1 556/216/1 554/169/1
f 557/218/1 558/224/1 559/225/1
f 557/218/1 560/217/1 558/224/1
f 561/219/1 562/225/1 563/226/1
f 561/219/1 564/218/1 562/225/1
f 565/220/1 566/226/1 567/227/1
f 565/220/1 568/219/1 566/226/1
f 569/221/1 570/227/1 571/228/1
f 569/221/1 572/220/1 570/227/1
f 573/222/1 574/228/1 575/229/1
f 573/222/1 576/221/1 574/228/1
f 577/223/1 578/229/1 579/173/1
f 577/223/1 580/222/1 578/229/1
f 581/143/1 582/173/1 583/145/1
f 581/143/1 584/223/1 582/173/1
f 585/230/1 586/171/1 587/231/1
f 586/171/2 588/232/2 587/231/2
f 589/224/1 590/171/1 591/230/1
f 589/224/1 592/169/1 590/171/1
f 593/225/1 594/230/1 595/233/1
f 593/225/1 596/224/1 594/230/1
f 597/226/1 598/233/1 599/234/1
f 597/226/1 600/225/1 598/233/1
f 601/227/1 602/234/1 603/235/1
f 601/227/1 604/226/1 602/234/1
f 605/228/1 606/235/1 607/236/1
f 605/228/1 608/227/1 606/235/1
f 609/229/1 610/236/1 611/237/1
f 609/229/1 612/228/1 610/236/1
f 613/173/1 614/237/1 615/159/1
f 613/173/1 616/229/1 614/237/1
f 617/159/2 618/133/2 619/141/2
f 617/159/1 620/237/1 618/133/1
f 621/238/1 622/178/1 623/180/1
f 621/238/1 624/239/1 622/178/1
f 625/137/2 626/163/2 627/139/2
f 626/163/1 628/168/1 627/139/1
f 629/233/1 630/231/1 631/240/1
f 629/233/1 632/230/1 630/231/1
f 633/234/1 634/240/1 635/241/1
f 633/234/1 636/233/1 634/240/1
f 637/235/1 638/241/1 639/242/1
f 637/235/1 640/234/1 638/241/1
f 641/236/1 642/242/1 643/135/1
f 641/236/1 644/235/1 642/242/1
f 645/237/1 646/135/1 647/133/1
f 645/237/1 648/236/1 646/135/1
f 649/239/1 650/174/1 651/178/1
f 649/239/2 652/243/2 650/174/2
f 653/244/1 654/180/1 655/182/1
f 653/244/1 656/238/1 654/180/1
f 657/167/1 658/182/1 659/165/1
f 657/167/1 660/244/1 658/182/1
f 661/244/6 662/245/6 663/167/6
f 661/244/6 664/246/6 662/245/6
f 665/238/6 666/246/6 667/244/6
f 665/238/6 668/247/6 666/246/6
f 669/135/9 670/248/9 671/242/9
f 669/135/9 672/134/9 670/248/9
f 673/242/9 674/249/9 675/241/9
f 673/242/9 676/248/9 674/249/9
f 677/241/9 678/250/9 679/240/9
f 677/241/9 680/249/9 678/250/9
f 681/240/9 682/251/9 683/231/9
f 681/240/9 684/250/9 682/251/9
f 685/231/10 686/252/10 687/232/10
f 685/231/10 688/251/10 686/252/10
f 689/170/8 690/253/8 691/215/8
f 689/170/8 692/254/8 690/253/8
f 693/215/8 694/255/8 695/206/8
f 693/215/8 696/253/8 694/255/8
f 697/206/8 698/256/8 699/197/8
f 697/206/8 700/255/8 698/256/8
f 701/197/8 702/257/8 703/188/8
f 701/197/8 704/256/8 702/257/8
f 705/188/8 706/258/8 707/175/8
f 705/188/8 708/257/8 706/258/8
f 709/171/10 710/259/10 711/172/10
f 709/171/10 712/260/10 710/259/10
f 713/167/6 714/164/6 715/161/6
f 713/167/6 716/245/6 714/164/6
f 717/175/7 718/261/7 719/177/7
f 717/175/7 720/258/7 718/261/7
f 721/239/6 722/247/6 723/238/6
f 721/239/6 724/262/6 722/247/6
f 725/174/7 726/263/7 727/243/7
f 725/174/7 728/264/7 726/263/7
f 729/265/8 730/266/8 731/267/8
f 729/265/8 732/268/8 730/266/8
f 733/265/6 734/266/6 735/267/6
f 733/265/6 736/268/6 734/266/6
f 737/269/7 738/267/7 739/270/7
f 737/269/7 740/265/7 738/267/7
f 741/265/9 742/266/9 743/267/9
f 741/265/9 744/268/9 742/266/9
f 745/265/3 746/266/3 747/267/3
f 745/265/3 748/268/3 746/266/3
f 749/269/10 750/267/10 751/270/10
f 749/269/10 752/265/10 750/267/10
f 753/269/4 754/267/4 755/270/4
f 753/269/4 756/265/4 754/267/4
f 757/269/5 758/267/5 759/270/5
f 757/269/5 760/265/5 758/267/5
